%TF.GenerationSoftware,KiCad,Pcbnew,9.0.8*%
%TF.CreationDate,2026-04-12T18:01:38-07:00*%
%TF.ProjectId,Charging Shutdown,43686172-6769-46e6-9720-53687574646f,rev?*%
%TF.SameCoordinates,Original*%
%TF.FileFunction,Copper,L1,Top*%
%TF.FilePolarity,Positive*%
%FSLAX46Y46*%
G04 Gerber Fmt 4.6, Leading zero omitted, Abs format (unit mm)*
G04 Created by KiCad (PCBNEW 9.0.8) date 2026-04-12 18:01:38*
%MOMM*%
%LPD*%
G01*
G04 APERTURE LIST*
G04 Aperture macros list*
%AMRoundRect*
0 Rectangle with rounded corners*
0 $1 Rounding radius*
0 $2 $3 $4 $5 $6 $7 $8 $9 X,Y pos of 4 corners*
0 Add a 4 corners polygon primitive as box body*
4,1,4,$2,$3,$4,$5,$6,$7,$8,$9,$2,$3,0*
0 Add four circle primitives for the rounded corners*
1,1,$1+$1,$2,$3*
1,1,$1+$1,$4,$5*
1,1,$1+$1,$6,$7*
1,1,$1+$1,$8,$9*
0 Add four rect primitives between the rounded corners*
20,1,$1+$1,$2,$3,$4,$5,0*
20,1,$1+$1,$4,$5,$6,$7,0*
20,1,$1+$1,$6,$7,$8,$9,0*
20,1,$1+$1,$8,$9,$2,$3,0*%
G04 Aperture macros list end*
%TA.AperFunction,SMDPad,CuDef*%
%ADD10RoundRect,0.100000X-0.130000X-0.100000X0.130000X-0.100000X0.130000X0.100000X-0.130000X0.100000X0*%
%TD*%
%TA.AperFunction,SMDPad,CuDef*%
%ADD11R,0.640000X0.420000*%
%TD*%
%TA.AperFunction,SMDPad,CuDef*%
%ADD12RoundRect,0.100000X0.130000X0.100000X-0.130000X0.100000X-0.130000X-0.100000X0.130000X-0.100000X0*%
%TD*%
%TA.AperFunction,SMDPad,CuDef*%
%ADD13R,1.000000X1.000000*%
%TD*%
%TA.AperFunction,ComponentPad*%
%ADD14R,1.950000X1.950000*%
%TD*%
%TA.AperFunction,ComponentPad*%
%ADD15C,1.950000*%
%TD*%
%TA.AperFunction,ComponentPad*%
%ADD16C,2.700000*%
%TD*%
%TA.AperFunction,ViaPad*%
%ADD17C,0.600000*%
%TD*%
%TA.AperFunction,Conductor*%
%ADD18C,0.200000*%
%TD*%
G04 APERTURE END LIST*
D10*
%TO.P,D8,1,K*%
%TO.N,GND*%
X88453000Y-113665000D03*
%TO.P,D8,2,A*%
%TO.N,Net-(D8-A)*%
X89093000Y-113665000D03*
%TD*%
D11*
%TO.P,D1,1,K*%
%TO.N,+12V*%
X117463000Y-98298000D03*
%TO.P,D1,2,A*%
%TO.N,GND*%
X115963000Y-98298000D03*
%TD*%
D12*
%TO.P,R4,1*%
%TO.N,Net-(D5-A)*%
X108778000Y-98806000D03*
%TO.P,R4,2*%
%TO.N,Net-(K1-COIL_2)*%
X108138000Y-98806000D03*
%TD*%
D13*
%TO.P,Q1,1,G*%
%TO.N,/BMS KILL SIGNAL*%
X110556000Y-94395000D03*
%TO.P,Q1,2,D*%
%TO.N,Net-(D5-K)*%
X111506000Y-92295000D03*
%TO.P,Q1,3,S*%
%TO.N,GND*%
X112456000Y-94395000D03*
%TD*%
D10*
%TO.P,D6,1,K*%
%TO.N,Net-(D6-K)*%
X106614000Y-86106000D03*
%TO.P,D6,2,A*%
%TO.N,Net-(D6-A)*%
X107254000Y-86106000D03*
%TD*%
D14*
%TO.P,K1,1,COIL_1*%
%TO.N,+12V*%
X98136000Y-80077000D03*
D15*
%TO.P,K1,2,COM_1*%
X118456000Y-80077000D03*
%TO.P,K1,3,NO_1*%
%TO.N,Net-(K1-NO_1)*%
X123536000Y-80077000D03*
%TO.P,K1,4,NO_2*%
%TO.N,unconnected-(K1-NO_2-Pad4)*%
X123536000Y-72477000D03*
%TO.P,K1,5,COM_2*%
%TO.N,unconnected-(K1-COM_2-Pad5)*%
X118456000Y-72477000D03*
%TO.P,K1,6,COIL_2*%
%TO.N,Net-(K1-COIL_2)*%
X98136000Y-72477000D03*
%TD*%
D14*
%TO.P,K3,1,COIL_1*%
%TO.N,+12V*%
X123606000Y-104581000D03*
D15*
%TO.P,K3,2,COM_1*%
%TO.N,Net-(K1-NO_1)*%
X103286000Y-104581000D03*
%TO.P,K3,3,NO_1*%
%TO.N,/RELAYS_OUT*%
X98206000Y-104581000D03*
%TO.P,K3,4,NO_2*%
%TO.N,unconnected-(K3-NO_2-Pad4)*%
X98206000Y-112181000D03*
%TO.P,K3,5,COM_2*%
%TO.N,unconnected-(K3-COM_2-Pad5)*%
X103286000Y-112181000D03*
%TO.P,K3,6,COIL_2*%
%TO.N,Net-(K3-COM_1)*%
X123606000Y-112181000D03*
%TD*%
D11*
%TO.P,D3,1,K*%
%TO.N,+12V*%
X115697000Y-85725000D03*
%TO.P,D3,2,A*%
%TO.N,GND*%
X114197000Y-85725000D03*
%TD*%
D13*
%TO.P,Q3,1,G*%
%TO.N,/IMD KILL SIGNAL*%
X98264500Y-91831000D03*
%TO.P,Q3,2,D*%
%TO.N,Net-(D6-K)*%
X100364500Y-92781000D03*
%TO.P,Q3,3,S*%
%TO.N,GND*%
X98264500Y-93731000D03*
%TD*%
D12*
%TO.P,D5,1,K*%
%TO.N,Net-(D5-K)*%
X112461000Y-98679000D03*
%TO.P,D5,2,A*%
%TO.N,Net-(D5-A)*%
X111821000Y-98679000D03*
%TD*%
%TO.P,R8,1*%
%TO.N,Shutdown Signal*%
X92939000Y-112141000D03*
%TO.P,R8,2*%
%TO.N,Net-(D8-A)*%
X92299000Y-112141000D03*
%TD*%
D10*
%TO.P,R6,1*%
%TO.N,Net-(D6-A)*%
X110587000Y-85725000D03*
%TO.P,R6,2*%
%TO.N,Net-(K3-COM_1)*%
X111227000Y-85725000D03*
%TD*%
D16*
%TO.P,J2,1,Pin_1*%
%TO.N,+12V*%
X93019000Y-93061000D03*
%TO.P,J2,2,Pin_2*%
%TO.N,/RELAYS_OUT*%
X93019000Y-97061000D03*
%TO.P,J2,3,Pin_3*%
%TO.N,/BMS KILL SIGNAL*%
X93019000Y-101061000D03*
%TO.P,J2,4,Pin_4*%
%TO.N,Shutdown Signal*%
X89019000Y-95061000D03*
%TO.P,J2,5,Pin_5*%
X89019000Y-99061000D03*
%TO.P,J2,6,Pin_6*%
%TO.N,/IMD KILL SIGNAL*%
X85019000Y-93061000D03*
%TO.P,J2,7,Pin_7*%
%TO.N,unconnected-(J2-Pin_7-Pad7)*%
X85019000Y-97061000D03*
%TO.P,J2,8,Pin_8*%
%TO.N,GND*%
X85019000Y-101061000D03*
%TD*%
D17*
%TO.N,Net-(K1-COIL_2)*%
X102108000Y-98044000D03*
%TD*%
D18*
%TO.N,+12V*%
X117463000Y-87491000D02*
X115697000Y-85725000D01*
X115697000Y-82836000D02*
X115697000Y-85725000D01*
X98136000Y-80077000D02*
X118456000Y-80077000D01*
X118456000Y-80077000D02*
X115697000Y-82836000D01*
X123606000Y-104441000D02*
X117463000Y-98298000D01*
X123606000Y-104581000D02*
X123606000Y-104441000D01*
X117463000Y-98298000D02*
X117463000Y-87491000D01*
%TO.N,Net-(D5-A)*%
X111821000Y-98679000D02*
X108905000Y-98679000D01*
X108905000Y-98679000D02*
X108778000Y-98806000D01*
%TO.N,Net-(D6-A)*%
X107635000Y-85725000D02*
X107254000Y-86106000D01*
X110587000Y-85725000D02*
X107635000Y-85725000D01*
%TO.N,Net-(D8-A)*%
X90775000Y-113665000D02*
X92299000Y-112141000D01*
X89093000Y-113665000D02*
X90775000Y-113665000D01*
%TO.N,Shutdown Signal*%
X92939000Y-111941001D02*
X92939000Y-112141000D01*
X89019000Y-99061000D02*
X90369000Y-100411000D01*
X90369000Y-100411000D02*
X90369000Y-109371001D01*
X90369000Y-109371001D02*
X92939000Y-111941001D01*
X89019000Y-95061000D02*
X89019000Y-99061000D01*
%TO.N,/IMD KILL SIGNAL*%
X87148000Y-90932000D02*
X97365500Y-90932000D01*
X97365500Y-90932000D02*
X98264500Y-91831000D01*
X85019000Y-93061000D02*
X87148000Y-90932000D01*
%TO.N,/BMS KILL SIGNAL*%
X110556000Y-94395000D02*
X101566000Y-94395000D01*
X101566000Y-94395000D02*
X94900000Y-101061000D01*
X94900000Y-101061000D02*
X93019000Y-101061000D01*
%TO.N,Net-(D5-K)*%
X112461000Y-98551938D02*
X112461000Y-98679000D01*
X111506000Y-92295000D02*
X111506000Y-97596938D01*
X111506000Y-97596938D02*
X112461000Y-98551938D01*
%TO.N,Net-(D6-K)*%
X100364500Y-92781000D02*
X106614000Y-86531500D01*
X106614000Y-86531500D02*
X106614000Y-86106000D01*
%TO.N,Net-(K1-COIL_2)*%
X108138000Y-98806000D02*
X102870000Y-98806000D01*
X102870000Y-98806000D02*
X102108000Y-98044000D01*
%TO.N,Net-(K3-COM_1)*%
X114935000Y-103510000D02*
X114935000Y-89433000D01*
X123606000Y-112181000D02*
X114935000Y-103510000D01*
X114935000Y-89433000D02*
X111227000Y-85725000D01*
%TD*%
%TA.AperFunction,Conductor*%
%TO.N,GND*%
G36*
X127149922Y-68319280D02*
G01*
X127166878Y-68321190D01*
X127240268Y-68329458D01*
X127267333Y-68335636D01*
X127346539Y-68363351D01*
X127371549Y-68375395D01*
X127442606Y-68420043D01*
X127464313Y-68437355D01*
X127523644Y-68496686D01*
X127540957Y-68518395D01*
X127585602Y-68589447D01*
X127597649Y-68614464D01*
X127625362Y-68693662D01*
X127631541Y-68720734D01*
X127641720Y-68811076D01*
X127642500Y-68824959D01*
X127642500Y-116722040D01*
X127641720Y-116735923D01*
X127631541Y-116826265D01*
X127625362Y-116853337D01*
X127597649Y-116932535D01*
X127585602Y-116957552D01*
X127540957Y-117028604D01*
X127523644Y-117050313D01*
X127464313Y-117109644D01*
X127442604Y-117126957D01*
X127371552Y-117171602D01*
X127346535Y-117183649D01*
X127267337Y-117211362D01*
X127240265Y-117217541D01*
X127149923Y-117227720D01*
X127136040Y-117228500D01*
X83556960Y-117228500D01*
X83543077Y-117227720D01*
X83452734Y-117217541D01*
X83425662Y-117211362D01*
X83346464Y-117183649D01*
X83321447Y-117171602D01*
X83250395Y-117126957D01*
X83228686Y-117109644D01*
X83169355Y-117050313D01*
X83152042Y-117028604D01*
X83107397Y-116957552D01*
X83095351Y-116932539D01*
X83067636Y-116853333D01*
X83061458Y-116826268D01*
X83051280Y-116735922D01*
X83050500Y-116722040D01*
X83050500Y-101766291D01*
X83070185Y-101699252D01*
X83122989Y-101653497D01*
X83192147Y-101643553D01*
X83255703Y-101672578D01*
X83289061Y-101718839D01*
X83356220Y-101880978D01*
X83356227Y-101880992D01*
X83477481Y-102091010D01*
X83546061Y-102180384D01*
X84210497Y-101515947D01*
X84300505Y-101650653D01*
X84429347Y-101779495D01*
X84564050Y-101869501D01*
X83899614Y-102533936D01*
X83899614Y-102533937D01*
X83988989Y-102602517D01*
X83988996Y-102602522D01*
X84199007Y-102723772D01*
X84199021Y-102723779D01*
X84423060Y-102816578D01*
X84657312Y-102879346D01*
X84897735Y-102910998D01*
X84897752Y-102911000D01*
X85140248Y-102911000D01*
X85140264Y-102910998D01*
X85380687Y-102879346D01*
X85614939Y-102816578D01*
X85838978Y-102723779D01*
X85838992Y-102723772D01*
X86049016Y-102602515D01*
X86138384Y-102533939D01*
X86138384Y-102533936D01*
X85473948Y-101869501D01*
X85608653Y-101779495D01*
X85737495Y-101650653D01*
X85827501Y-101515948D01*
X86491936Y-102180384D01*
X86491939Y-102180384D01*
X86560515Y-102091016D01*
X86681772Y-101880992D01*
X86681779Y-101880978D01*
X86774578Y-101656939D01*
X86837346Y-101422687D01*
X86868998Y-101182264D01*
X86869000Y-101182248D01*
X86869000Y-100939751D01*
X86868998Y-100939735D01*
X86837346Y-100699312D01*
X86774578Y-100465060D01*
X86681779Y-100241021D01*
X86681772Y-100241007D01*
X86560522Y-100030996D01*
X86560517Y-100030989D01*
X86491937Y-99941614D01*
X86491936Y-99941614D01*
X85827501Y-100606050D01*
X85737495Y-100471347D01*
X85608653Y-100342505D01*
X85473947Y-100252497D01*
X86138384Y-99588061D01*
X86049010Y-99519481D01*
X85838992Y-99398227D01*
X85838978Y-99398220D01*
X85614939Y-99305421D01*
X85380687Y-99242653D01*
X85140264Y-99211001D01*
X85140248Y-99211000D01*
X84897752Y-99211000D01*
X84897735Y-99211001D01*
X84657312Y-99242653D01*
X84423060Y-99305421D01*
X84199021Y-99398220D01*
X84199006Y-99398227D01*
X83988990Y-99519480D01*
X83899614Y-99588060D01*
X83899614Y-99588061D01*
X84564051Y-100252498D01*
X84429347Y-100342505D01*
X84300505Y-100471347D01*
X84210498Y-100606051D01*
X83546061Y-99941614D01*
X83546060Y-99941614D01*
X83477480Y-100030990D01*
X83356227Y-100241006D01*
X83356220Y-100241021D01*
X83289061Y-100403160D01*
X83245220Y-100457564D01*
X83178926Y-100479629D01*
X83111227Y-100462350D01*
X83063616Y-100411213D01*
X83050500Y-100355708D01*
X83050500Y-97767601D01*
X83070185Y-97700562D01*
X83122989Y-97654807D01*
X83192147Y-97644863D01*
X83255703Y-97673888D01*
X83289061Y-97720148D01*
X83341054Y-97845669D01*
X83355776Y-97881212D01*
X83477064Y-98091289D01*
X83477066Y-98091292D01*
X83477067Y-98091293D01*
X83624733Y-98283736D01*
X83624739Y-98283743D01*
X83796256Y-98455260D01*
X83796263Y-98455266D01*
X83906217Y-98539636D01*
X83988711Y-98602936D01*
X84198788Y-98724224D01*
X84422900Y-98817054D01*
X84657211Y-98879838D01*
X84837586Y-98903584D01*
X84897711Y-98911500D01*
X84897712Y-98911500D01*
X85140289Y-98911500D01*
X85188388Y-98905167D01*
X85380789Y-98879838D01*
X85615100Y-98817054D01*
X85839212Y-98724224D01*
X86049289Y-98602936D01*
X86241738Y-98455265D01*
X86413265Y-98283738D01*
X86560936Y-98091289D01*
X86682224Y-97881212D01*
X86775054Y-97657100D01*
X86837838Y-97422789D01*
X86869500Y-97182288D01*
X86869500Y-96939712D01*
X86837838Y-96699211D01*
X86775054Y-96464900D01*
X86771063Y-96455266D01*
X86748938Y-96401851D01*
X86682224Y-96240788D01*
X86560936Y-96030711D01*
X86413265Y-95838262D01*
X86413260Y-95838256D01*
X86241743Y-95666739D01*
X86241736Y-95666733D01*
X86049293Y-95519067D01*
X86049292Y-95519066D01*
X86049289Y-95519064D01*
X85839212Y-95397776D01*
X85839205Y-95397773D01*
X85615104Y-95304947D01*
X85419535Y-95252544D01*
X85380789Y-95242162D01*
X85380788Y-95242161D01*
X85380785Y-95242161D01*
X85140289Y-95210500D01*
X85140288Y-95210500D01*
X84897712Y-95210500D01*
X84897711Y-95210500D01*
X84657214Y-95242161D01*
X84422895Y-95304947D01*
X84198794Y-95397773D01*
X84198785Y-95397777D01*
X83988706Y-95519067D01*
X83796263Y-95666733D01*
X83796256Y-95666739D01*
X83624739Y-95838256D01*
X83624733Y-95838263D01*
X83477067Y-96030706D01*
X83355777Y-96240785D01*
X83355772Y-96240794D01*
X83289061Y-96401851D01*
X83245220Y-96456254D01*
X83178926Y-96478319D01*
X83111226Y-96461040D01*
X83063616Y-96409902D01*
X83050500Y-96354398D01*
X83050500Y-93767601D01*
X83070185Y-93700562D01*
X83122989Y-93654807D01*
X83192147Y-93644863D01*
X83255703Y-93673888D01*
X83289061Y-93720148D01*
X83355773Y-93881205D01*
X83355776Y-93881212D01*
X83477064Y-94091289D01*
X83477066Y-94091292D01*
X83477067Y-94091293D01*
X83624733Y-94283736D01*
X83624739Y-94283743D01*
X83796256Y-94455260D01*
X83796263Y-94455266D01*
X83819487Y-94473086D01*
X83988711Y-94602936D01*
X84198788Y-94724224D01*
X84422900Y-94817054D01*
X84657211Y-94879838D01*
X84837586Y-94903584D01*
X84897711Y-94911500D01*
X84897712Y-94911500D01*
X85140289Y-94911500D01*
X85188388Y-94905167D01*
X85380789Y-94879838D01*
X85615100Y-94817054D01*
X85839212Y-94724224D01*
X86049289Y-94602936D01*
X86241738Y-94455265D01*
X86413265Y-94283738D01*
X86560936Y-94091289D01*
X86682224Y-93881212D01*
X86775054Y-93657100D01*
X86837838Y-93422789D01*
X86869500Y-93182288D01*
X86869500Y-92939712D01*
X86837838Y-92699211D01*
X86775054Y-92464900D01*
X86715751Y-92321732D01*
X86708283Y-92252266D01*
X86739558Y-92189787D01*
X86742600Y-92186634D01*
X87360417Y-91568819D01*
X87421740Y-91535334D01*
X87448098Y-91532500D01*
X91631134Y-91532500D01*
X91698173Y-91552185D01*
X91743928Y-91604989D01*
X91753872Y-91674147D01*
X91724847Y-91737703D01*
X91718815Y-91744181D01*
X91624739Y-91838256D01*
X91624733Y-91838263D01*
X91477067Y-92030706D01*
X91477064Y-92030710D01*
X91477064Y-92030711D01*
X91460817Y-92058851D01*
X91355777Y-92240785D01*
X91355773Y-92240794D01*
X91262947Y-92464895D01*
X91200161Y-92699214D01*
X91168500Y-92939711D01*
X91168500Y-93182288D01*
X91200161Y-93422785D01*
X91262947Y-93657104D01*
X91355773Y-93881205D01*
X91355776Y-93881212D01*
X91477064Y-94091289D01*
X91477066Y-94091292D01*
X91477067Y-94091293D01*
X91624733Y-94283736D01*
X91624739Y-94283743D01*
X91796256Y-94455260D01*
X91796263Y-94455266D01*
X91819487Y-94473086D01*
X91988711Y-94602936D01*
X92198788Y-94724224D01*
X92422900Y-94817054D01*
X92657211Y-94879838D01*
X92837586Y-94903584D01*
X92897711Y-94911500D01*
X92897712Y-94911500D01*
X93140289Y-94911500D01*
X93188388Y-94905167D01*
X93380789Y-94879838D01*
X93615100Y-94817054D01*
X93839212Y-94724224D01*
X94049289Y-94602936D01*
X94241738Y-94455265D01*
X94413265Y-94283738D01*
X94417020Y-94278844D01*
X97264500Y-94278844D01*
X97270901Y-94338372D01*
X97270903Y-94338379D01*
X97321145Y-94473086D01*
X97321149Y-94473093D01*
X97407309Y-94588187D01*
X97407312Y-94588190D01*
X97522406Y-94674350D01*
X97522413Y-94674354D01*
X97657120Y-94724596D01*
X97657127Y-94724598D01*
X97716655Y-94730999D01*
X97716672Y-94731000D01*
X98014500Y-94731000D01*
X98514500Y-94731000D01*
X98812328Y-94731000D01*
X98812344Y-94730999D01*
X98871872Y-94724598D01*
X98871879Y-94724596D01*
X99006586Y-94674354D01*
X99006593Y-94674350D01*
X99121687Y-94588190D01*
X99121690Y-94588187D01*
X99207850Y-94473093D01*
X99207854Y-94473086D01*
X99258096Y-94338379D01*
X99258098Y-94338372D01*
X99264499Y-94278844D01*
X99264500Y-94278827D01*
X99264500Y-93981000D01*
X98514500Y-93981000D01*
X98514500Y-94731000D01*
X98014500Y-94731000D01*
X98014500Y-93981000D01*
X97264500Y-93981000D01*
X97264500Y-94278844D01*
X94417020Y-94278844D01*
X94560936Y-94091289D01*
X94682224Y-93881212D01*
X94775054Y-93657100D01*
X94837838Y-93422789D01*
X94869500Y-93182288D01*
X94869500Y-92939712D01*
X94837838Y-92699211D01*
X94775054Y-92464900D01*
X94682224Y-92240788D01*
X94560936Y-92030711D01*
X94478635Y-91923454D01*
X94413266Y-91838263D01*
X94413260Y-91838256D01*
X94319185Y-91744181D01*
X94285700Y-91682858D01*
X94290684Y-91613166D01*
X94332556Y-91557233D01*
X94398020Y-91532816D01*
X94406866Y-91532500D01*
X97065403Y-91532500D01*
X97094843Y-91541144D01*
X97124830Y-91547668D01*
X97129845Y-91551422D01*
X97132442Y-91552185D01*
X97153084Y-91568819D01*
X97227681Y-91643416D01*
X97261166Y-91704739D01*
X97264000Y-91731097D01*
X97264000Y-92378870D01*
X97264001Y-92378876D01*
X97270408Y-92438483D01*
X97320702Y-92573328D01*
X97320706Y-92573335D01*
X97406952Y-92688544D01*
X97412084Y-92693676D01*
X97445569Y-92754999D01*
X97440585Y-92824691D01*
X97412084Y-92869038D01*
X97407309Y-92873812D01*
X97321149Y-92988906D01*
X97321145Y-92988913D01*
X97270903Y-93123620D01*
X97270901Y-93123627D01*
X97264500Y-93183155D01*
X97264500Y-93481000D01*
X99289418Y-93481000D01*
X99295832Y-93477497D01*
X99365524Y-93482476D01*
X99421461Y-93524343D01*
X99421466Y-93524350D01*
X99506952Y-93638544D01*
X99506955Y-93638547D01*
X99622164Y-93724793D01*
X99622171Y-93724797D01*
X99757017Y-93775091D01*
X99757016Y-93775091D01*
X99763944Y-93775835D01*
X99816627Y-93781500D01*
X100912372Y-93781499D01*
X100971983Y-93775091D01*
X101019528Y-93757358D01*
X101089219Y-93752373D01*
X101150543Y-93785857D01*
X101184028Y-93847180D01*
X101179044Y-93916872D01*
X101150543Y-93961220D01*
X94865580Y-100246183D01*
X94804257Y-100279668D01*
X94734565Y-100274684D01*
X94678632Y-100232812D01*
X94670512Y-100220502D01*
X94642248Y-100171547D01*
X94560936Y-100030711D01*
X94413265Y-99838262D01*
X94413260Y-99838256D01*
X94241743Y-99666739D01*
X94241736Y-99666733D01*
X94049293Y-99519067D01*
X94049292Y-99519066D01*
X94049289Y-99519064D01*
X93854324Y-99406501D01*
X93839214Y-99397777D01*
X93839205Y-99397773D01*
X93615104Y-99304947D01*
X93380785Y-99242161D01*
X93140289Y-99210500D01*
X93140288Y-99210500D01*
X92897712Y-99210500D01*
X92897711Y-99210500D01*
X92657214Y-99242161D01*
X92422895Y-99304947D01*
X92198794Y-99397773D01*
X92198785Y-99397777D01*
X92016851Y-99502817D01*
X92010473Y-99506500D01*
X91988706Y-99519067D01*
X91796263Y-99666733D01*
X91796256Y-99666739D01*
X91624739Y-99838256D01*
X91624733Y-99838263D01*
X91477067Y-100030706D01*
X91477064Y-100030710D01*
X91477064Y-100030711D01*
X91470382Y-100042284D01*
X91355777Y-100240785D01*
X91355773Y-100240794D01*
X91262947Y-100464895D01*
X91258999Y-100479629D01*
X91213274Y-100650276D01*
X91176910Y-100709935D01*
X91114063Y-100740464D01*
X91044687Y-100732169D01*
X90990809Y-100687684D01*
X90969535Y-100621132D01*
X90969500Y-100618181D01*
X90969500Y-100331945D01*
X90969500Y-100331943D01*
X90928577Y-100179216D01*
X90928577Y-100179215D01*
X90928577Y-100179214D01*
X90899639Y-100129095D01*
X90899637Y-100129092D01*
X90849520Y-100042284D01*
X90742632Y-99935396D01*
X90709148Y-99874073D01*
X90714132Y-99804381D01*
X90715736Y-99800304D01*
X90775054Y-99657100D01*
X90837838Y-99422789D01*
X90869500Y-99182288D01*
X90869500Y-98939712D01*
X90837838Y-98699211D01*
X90775054Y-98464900D01*
X90771063Y-98455266D01*
X90700014Y-98283738D01*
X90682224Y-98240788D01*
X90560936Y-98030711D01*
X90415982Y-97841803D01*
X90413266Y-97838263D01*
X90413260Y-97838256D01*
X90241743Y-97666739D01*
X90241736Y-97666733D01*
X90049293Y-97519067D01*
X90049292Y-97519066D01*
X90049289Y-97519064D01*
X89965532Y-97470707D01*
X89839219Y-97397779D01*
X89839207Y-97397773D01*
X89696047Y-97338474D01*
X89641643Y-97294633D01*
X89619579Y-97228338D01*
X89619500Y-97223913D01*
X89619500Y-96939711D01*
X91168500Y-96939711D01*
X91168500Y-97182288D01*
X91200161Y-97422785D01*
X91262947Y-97657104D01*
X91341054Y-97845671D01*
X91355776Y-97881212D01*
X91477064Y-98091289D01*
X91477066Y-98091292D01*
X91477067Y-98091293D01*
X91624733Y-98283736D01*
X91624739Y-98283743D01*
X91796256Y-98455260D01*
X91796263Y-98455266D01*
X91906217Y-98539636D01*
X91988711Y-98602936D01*
X92198788Y-98724224D01*
X92422900Y-98817054D01*
X92657211Y-98879838D01*
X92837586Y-98903584D01*
X92897711Y-98911500D01*
X92897712Y-98911500D01*
X93140289Y-98911500D01*
X93188388Y-98905167D01*
X93380789Y-98879838D01*
X93615100Y-98817054D01*
X93839212Y-98724224D01*
X94049289Y-98602936D01*
X94241738Y-98455265D01*
X94413265Y-98283738D01*
X94560936Y-98091289D01*
X94682224Y-97881212D01*
X94775054Y-97657100D01*
X94837838Y-97422789D01*
X94869500Y-97182288D01*
X94869500Y-96939712D01*
X94837838Y-96699211D01*
X94775054Y-96464900D01*
X94771063Y-96455266D01*
X94748938Y-96401851D01*
X94682224Y-96240788D01*
X94560936Y-96030711D01*
X94413265Y-95838262D01*
X94413260Y-95838256D01*
X94241743Y-95666739D01*
X94241736Y-95666733D01*
X94049293Y-95519067D01*
X94049292Y-95519066D01*
X94049289Y-95519064D01*
X93839212Y-95397776D01*
X93839205Y-95397773D01*
X93615104Y-95304947D01*
X93419535Y-95252544D01*
X93380789Y-95242162D01*
X93380788Y-95242161D01*
X93380785Y-95242161D01*
X93140289Y-95210500D01*
X93140288Y-95210500D01*
X92897712Y-95210500D01*
X92897711Y-95210500D01*
X92657214Y-95242161D01*
X92422895Y-95304947D01*
X92198794Y-95397773D01*
X92198785Y-95397777D01*
X91988706Y-95519067D01*
X91796263Y-95666733D01*
X91796256Y-95666739D01*
X91624739Y-95838256D01*
X91624733Y-95838263D01*
X91477067Y-96030706D01*
X91355777Y-96240785D01*
X91355773Y-96240794D01*
X91262947Y-96464895D01*
X91200161Y-96699214D01*
X91168500Y-96939711D01*
X89619500Y-96939711D01*
X89619500Y-96898085D01*
X89639185Y-96831046D01*
X89691989Y-96785291D01*
X89696048Y-96783524D01*
X89839200Y-96724229D01*
X89839200Y-96724228D01*
X89839212Y-96724224D01*
X90049289Y-96602936D01*
X90241738Y-96455265D01*
X90413265Y-96283738D01*
X90560936Y-96091289D01*
X90682224Y-95881212D01*
X90775054Y-95657100D01*
X90837838Y-95422789D01*
X90869500Y-95182288D01*
X90869500Y-94939712D01*
X90837838Y-94699211D01*
X90775054Y-94464900D01*
X90771063Y-94455266D01*
X90722647Y-94338379D01*
X90682224Y-94240788D01*
X90560936Y-94030711D01*
X90500018Y-93951321D01*
X90413266Y-93838263D01*
X90413260Y-93838256D01*
X90241743Y-93666739D01*
X90241736Y-93666733D01*
X90049293Y-93519067D01*
X90049292Y-93519066D01*
X90049289Y-93519064D01*
X89839212Y-93397776D01*
X89832510Y-93395000D01*
X89615104Y-93304947D01*
X89380785Y-93242161D01*
X89140289Y-93210500D01*
X89140288Y-93210500D01*
X88897712Y-93210500D01*
X88897711Y-93210500D01*
X88657214Y-93242161D01*
X88422895Y-93304947D01*
X88198794Y-93397773D01*
X88198785Y-93397777D01*
X87988706Y-93519067D01*
X87796263Y-93666733D01*
X87796256Y-93666739D01*
X87624739Y-93838256D01*
X87624733Y-93838263D01*
X87477067Y-94030706D01*
X87355777Y-94240785D01*
X87355773Y-94240794D01*
X87262947Y-94464895D01*
X87200161Y-94699214D01*
X87168500Y-94939711D01*
X87168500Y-95182288D01*
X87200161Y-95422785D01*
X87262947Y-95657104D01*
X87337986Y-95838263D01*
X87355776Y-95881212D01*
X87477064Y-96091289D01*
X87477066Y-96091292D01*
X87477067Y-96091293D01*
X87624733Y-96283736D01*
X87624739Y-96283743D01*
X87796256Y-96455260D01*
X87796263Y-96455266D01*
X87909321Y-96542018D01*
X87988711Y-96602936D01*
X88198788Y-96724224D01*
X88198793Y-96724226D01*
X88198799Y-96724229D01*
X88341952Y-96783524D01*
X88396356Y-96827364D01*
X88418421Y-96893658D01*
X88418500Y-96898085D01*
X88418500Y-97223913D01*
X88398815Y-97290952D01*
X88346011Y-97336707D01*
X88341953Y-97338474D01*
X88198792Y-97397773D01*
X88198780Y-97397779D01*
X87988706Y-97519067D01*
X87796263Y-97666733D01*
X87796256Y-97666739D01*
X87624739Y-97838256D01*
X87624733Y-97838263D01*
X87477067Y-98030706D01*
X87355777Y-98240785D01*
X87355773Y-98240794D01*
X87262947Y-98464895D01*
X87200161Y-98699214D01*
X87168500Y-98939711D01*
X87168500Y-99182288D01*
X87198017Y-99406501D01*
X87200162Y-99422789D01*
X87225959Y-99519064D01*
X87262947Y-99657104D01*
X87337986Y-99838263D01*
X87355776Y-99881212D01*
X87477064Y-100091289D01*
X87477066Y-100091292D01*
X87477067Y-100091293D01*
X87624733Y-100283736D01*
X87624739Y-100283743D01*
X87796256Y-100455260D01*
X87796263Y-100455266D01*
X87828014Y-100479629D01*
X87988711Y-100602936D01*
X88198788Y-100724224D01*
X88422900Y-100817054D01*
X88657211Y-100879838D01*
X88837586Y-100903584D01*
X88897711Y-100911500D01*
X88897712Y-100911500D01*
X89140289Y-100911500D01*
X89188388Y-100905167D01*
X89380789Y-100879838D01*
X89612408Y-100817775D01*
X89682256Y-100819438D01*
X89740119Y-100858600D01*
X89767623Y-100922828D01*
X89768500Y-100937550D01*
X89768500Y-105656406D01*
X89748815Y-105723445D01*
X89696011Y-105769200D01*
X89626853Y-105779144D01*
X89569014Y-105754782D01*
X89451864Y-105664890D01*
X89451858Y-105664886D01*
X89451855Y-105664884D01*
X89261645Y-105555065D01*
X89261641Y-105555063D01*
X89058729Y-105471014D01*
X88846573Y-105414167D01*
X88628828Y-105385501D01*
X88628823Y-105385500D01*
X88628818Y-105385500D01*
X88409182Y-105385500D01*
X88409176Y-105385500D01*
X88409171Y-105385501D01*
X88191426Y-105414167D01*
X87979270Y-105471014D01*
X87776358Y-105555063D01*
X87776354Y-105555065D01*
X87586145Y-105664884D01*
X87586136Y-105664890D01*
X87411897Y-105798588D01*
X87411890Y-105798594D01*
X87256594Y-105953890D01*
X87256588Y-105953897D01*
X87122890Y-106128136D01*
X87122884Y-106128145D01*
X87013065Y-106318354D01*
X87013063Y-106318358D01*
X86929014Y-106521270D01*
X86872167Y-106733426D01*
X86843501Y-106951171D01*
X86843500Y-106951188D01*
X86843500Y-107170811D01*
X86843501Y-107170828D01*
X86872167Y-107388573D01*
X86929014Y-107600729D01*
X87013063Y-107803641D01*
X87013065Y-107803645D01*
X87122884Y-107993855D01*
X87122889Y-107993861D01*
X87122890Y-107993863D01*
X87256588Y-108168102D01*
X87256594Y-108168109D01*
X87411890Y-108323405D01*
X87411897Y-108323411D01*
X87468986Y-108367217D01*
X87586145Y-108457116D01*
X87776355Y-108566935D01*
X87877814Y-108608960D01*
X87979270Y-108650985D01*
X87979271Y-108650985D01*
X87979273Y-108650986D01*
X88191425Y-108707832D01*
X88409182Y-108736500D01*
X88409189Y-108736500D01*
X88628811Y-108736500D01*
X88628818Y-108736500D01*
X88846575Y-108707832D01*
X89058727Y-108650986D01*
X89261645Y-108566935D01*
X89451855Y-108457116D01*
X89569014Y-108367217D01*
X89634183Y-108342023D01*
X89702628Y-108356061D01*
X89752617Y-108404875D01*
X89768500Y-108465593D01*
X89768500Y-109284331D01*
X89768499Y-109284349D01*
X89768499Y-109450055D01*
X89768498Y-109450055D01*
X89809423Y-109602786D01*
X89838358Y-109652901D01*
X89838359Y-109652905D01*
X89838360Y-109652905D01*
X89888479Y-109739715D01*
X89888481Y-109739718D01*
X90007349Y-109858586D01*
X90007355Y-109858591D01*
X91672838Y-111524074D01*
X91706323Y-111585397D01*
X91701339Y-111655089D01*
X91683534Y-111687240D01*
X91644464Y-111738158D01*
X91583956Y-111884237D01*
X91583956Y-111884238D01*
X91570866Y-111983661D01*
X91542599Y-112047557D01*
X91535608Y-112055155D01*
X90562584Y-113028181D01*
X90501261Y-113061666D01*
X90474903Y-113064500D01*
X89599257Y-113064500D01*
X89532218Y-113044815D01*
X89526900Y-113041075D01*
X89525836Y-113040461D01*
X89379765Y-112979957D01*
X89379760Y-112979955D01*
X89262361Y-112964500D01*
X88923637Y-112964500D01*
X88806236Y-112979955D01*
X88804111Y-112980525D01*
X88801910Y-112980525D01*
X88798181Y-112981016D01*
X88798116Y-112980525D01*
X88747815Y-112980525D01*
X88747687Y-112981505D01*
X88740251Y-112980525D01*
X88739937Y-112980526D01*
X88739633Y-112980444D01*
X88653000Y-112969038D01*
X88653000Y-112984807D01*
X88644452Y-113013915D01*
X88638173Y-113043606D01*
X88634450Y-113047979D01*
X88633315Y-113051846D01*
X88617185Y-113071982D01*
X88611219Y-113078016D01*
X88534718Y-113136718D01*
X88470645Y-113220219D01*
X88465185Y-113225743D01*
X88441143Y-113239050D01*
X88418948Y-113255257D01*
X88411010Y-113255729D01*
X88404055Y-113259580D01*
X88376636Y-113257777D01*
X88349202Y-113259412D01*
X88342269Y-113255518D01*
X88334336Y-113254997D01*
X88312242Y-113238655D01*
X88288281Y-113225199D01*
X88284554Y-113218176D01*
X88278163Y-113213449D01*
X88268411Y-113187757D01*
X88255529Y-113163482D01*
X88254189Y-113150288D01*
X88253369Y-113148126D01*
X88253775Y-113146205D01*
X88253000Y-113138568D01*
X88253000Y-112969038D01*
X88166369Y-112980444D01*
X88166365Y-112980445D01*
X88020413Y-113040899D01*
X87895075Y-113137075D01*
X87798899Y-113262413D01*
X87738444Y-113408368D01*
X87730987Y-113465000D01*
X88238500Y-113465000D01*
X88247185Y-113467550D01*
X88256146Y-113466262D01*
X88280184Y-113477240D01*
X88305539Y-113484685D01*
X88311466Y-113491526D01*
X88319702Y-113495287D01*
X88333990Y-113517520D01*
X88351294Y-113537489D01*
X88353581Y-113548002D01*
X88357477Y-113554064D01*
X88362500Y-113588999D01*
X88362501Y-113740999D01*
X88342817Y-113808039D01*
X88290013Y-113853794D01*
X88238501Y-113865000D01*
X87730990Y-113865000D01*
X87730988Y-113865001D01*
X87738442Y-113921627D01*
X87738444Y-113921633D01*
X87798899Y-114067585D01*
X87895075Y-114192924D01*
X88020413Y-114289100D01*
X88166365Y-114349554D01*
X88166369Y-114349555D01*
X88253000Y-114360961D01*
X88253000Y-114191431D01*
X88259336Y-114169852D01*
X88261070Y-114147429D01*
X88268990Y-114136975D01*
X88272685Y-114124392D01*
X88289681Y-114109664D01*
X88303263Y-114091738D01*
X88315577Y-114087225D01*
X88325489Y-114078637D01*
X88347748Y-114075436D01*
X88368866Y-114067698D01*
X88381665Y-114070559D01*
X88394647Y-114068693D01*
X88415105Y-114078036D01*
X88437053Y-114082943D01*
X88449701Y-114093835D01*
X88458203Y-114097718D01*
X88465185Y-114104256D01*
X88470641Y-114109775D01*
X88534718Y-114193282D01*
X88611224Y-114251987D01*
X88617185Y-114258017D01*
X88629889Y-114281605D01*
X88645689Y-114303243D01*
X88647672Y-114314623D01*
X88650316Y-114319532D01*
X88649766Y-114326638D01*
X88653000Y-114345192D01*
X88653000Y-114360959D01*
X88653001Y-114360960D01*
X88739622Y-114349558D01*
X88739917Y-114349479D01*
X88740222Y-114349478D01*
X88747690Y-114348496D01*
X88747819Y-114349478D01*
X88798115Y-114349476D01*
X88798180Y-114348983D01*
X88801925Y-114349476D01*
X88804121Y-114349476D01*
X88806230Y-114350040D01*
X88806238Y-114350044D01*
X88923639Y-114365500D01*
X89262360Y-114365499D01*
X89262363Y-114365499D01*
X89379753Y-114350046D01*
X89379757Y-114350044D01*
X89379762Y-114350044D01*
X89525841Y-114289536D01*
X89525845Y-114289532D01*
X89532876Y-114285474D01*
X89533882Y-114287216D01*
X89588932Y-114265931D01*
X89599257Y-114265500D01*
X90688331Y-114265500D01*
X90688347Y-114265501D01*
X90695943Y-114265501D01*
X90854054Y-114265501D01*
X90854057Y-114265501D01*
X91006785Y-114224577D01*
X91006787Y-114224575D01*
X91006789Y-114224575D01*
X91006790Y-114224574D01*
X91060988Y-114193283D01*
X91060989Y-114193282D01*
X91143716Y-114145520D01*
X91255520Y-114033716D01*
X91255520Y-114033714D01*
X91265724Y-114023511D01*
X91265728Y-114023506D01*
X92414845Y-112874388D01*
X92434360Y-112863732D01*
X92451191Y-112849195D01*
X92471777Y-112843301D01*
X92476166Y-112840905D01*
X92485071Y-112839305D01*
X92485628Y-112839225D01*
X92585762Y-112826044D01*
X92589635Y-112824439D01*
X92601547Y-112822746D01*
X92622124Y-112825737D01*
X92644080Y-112825737D01*
X92644180Y-112824983D01*
X92649907Y-112825737D01*
X92651091Y-112825737D01*
X92652234Y-112826043D01*
X92652236Y-112826043D01*
X92652238Y-112826044D01*
X92769639Y-112841500D01*
X93108360Y-112841499D01*
X93108363Y-112841499D01*
X93225753Y-112826046D01*
X93225757Y-112826044D01*
X93225762Y-112826044D01*
X93371841Y-112765536D01*
X93497282Y-112669282D01*
X93593536Y-112543841D01*
X93654044Y-112397762D01*
X93669500Y-112280361D01*
X93669499Y-112064870D01*
X96730500Y-112064870D01*
X96730500Y-112297129D01*
X96766831Y-112526514D01*
X96838601Y-112747400D01*
X96944039Y-112954331D01*
X97080551Y-113142224D01*
X97244776Y-113306449D01*
X97432669Y-113442961D01*
X97499945Y-113477240D01*
X97639599Y-113548398D01*
X97639601Y-113548398D01*
X97639604Y-113548400D01*
X97860486Y-113620169D01*
X97978668Y-113638886D01*
X98089871Y-113656500D01*
X98089876Y-113656500D01*
X98322129Y-113656500D01*
X98423502Y-113640443D01*
X98551514Y-113620169D01*
X98772396Y-113548400D01*
X98979331Y-113442961D01*
X99167224Y-113306449D01*
X99331449Y-113142224D01*
X99467961Y-112954331D01*
X99573400Y-112747396D01*
X99645169Y-112526514D01*
X99665561Y-112397760D01*
X99681500Y-112297129D01*
X99681500Y-112064870D01*
X101810500Y-112064870D01*
X101810500Y-112297129D01*
X101846831Y-112526514D01*
X101918601Y-112747400D01*
X102024039Y-112954331D01*
X102160551Y-113142224D01*
X102324776Y-113306449D01*
X102512669Y-113442961D01*
X102579945Y-113477240D01*
X102719599Y-113548398D01*
X102719601Y-113548398D01*
X102719604Y-113548400D01*
X102940486Y-113620169D01*
X103058668Y-113638886D01*
X103169871Y-113656500D01*
X103169876Y-113656500D01*
X103402129Y-113656500D01*
X103503502Y-113640443D01*
X103631514Y-113620169D01*
X103852396Y-113548400D01*
X104059331Y-113442961D01*
X104247224Y-113306449D01*
X104411449Y-113142224D01*
X104547961Y-112954331D01*
X104653400Y-112747396D01*
X104725169Y-112526514D01*
X104745561Y-112397760D01*
X104761500Y-112297129D01*
X104761500Y-112064870D01*
X104742232Y-111943222D01*
X104725169Y-111835486D01*
X104653400Y-111614604D01*
X104653398Y-111614601D01*
X104653398Y-111614599D01*
X104547960Y-111407668D01*
X104411449Y-111219776D01*
X104247224Y-111055551D01*
X104059331Y-110919039D01*
X103852400Y-110813601D01*
X103631514Y-110741831D01*
X103402129Y-110705500D01*
X103402124Y-110705500D01*
X103169876Y-110705500D01*
X103169871Y-110705500D01*
X102940485Y-110741831D01*
X102719599Y-110813601D01*
X102512668Y-110919039D01*
X102324773Y-111055553D01*
X102160553Y-111219773D01*
X102024039Y-111407668D01*
X101918601Y-111614599D01*
X101846831Y-111835485D01*
X101810500Y-112064870D01*
X99681500Y-112064870D01*
X99662232Y-111943222D01*
X99645169Y-111835486D01*
X99573400Y-111614604D01*
X99573398Y-111614601D01*
X99573398Y-111614599D01*
X99467960Y-111407668D01*
X99331449Y-111219776D01*
X99167224Y-111055551D01*
X98979331Y-110919039D01*
X98772400Y-110813601D01*
X98551514Y-110741831D01*
X98322129Y-110705500D01*
X98322124Y-110705500D01*
X98089876Y-110705500D01*
X98089871Y-110705500D01*
X97860485Y-110741831D01*
X97639599Y-110813601D01*
X97432668Y-110919039D01*
X97244773Y-111055553D01*
X97080553Y-111219773D01*
X96944039Y-111407668D01*
X96838601Y-111614599D01*
X96766831Y-111835485D01*
X96730500Y-112064870D01*
X93669499Y-112064870D01*
X93669499Y-112001640D01*
X93669499Y-112001639D01*
X93669499Y-112001636D01*
X93654046Y-111884246D01*
X93654044Y-111884241D01*
X93654044Y-111884238D01*
X93593536Y-111738159D01*
X93497282Y-111612718D01*
X93497280Y-111612717D01*
X93497280Y-111612716D01*
X93371838Y-111516461D01*
X93366704Y-111513497D01*
X93341034Y-111493799D01*
X93307716Y-111460481D01*
X93307713Y-111460479D01*
X91005819Y-109158585D01*
X90972334Y-109097262D01*
X90969500Y-109070904D01*
X90969500Y-104464870D01*
X96730500Y-104464870D01*
X96730500Y-104697129D01*
X96766831Y-104926514D01*
X96838601Y-105147400D01*
X96944039Y-105354331D01*
X97080551Y-105542224D01*
X97244776Y-105706449D01*
X97432669Y-105842961D01*
X97530436Y-105892776D01*
X97639599Y-105948398D01*
X97639601Y-105948398D01*
X97639604Y-105948400D01*
X97860486Y-106020169D01*
X97978668Y-106038886D01*
X98089871Y-106056500D01*
X98089876Y-106056500D01*
X98322129Y-106056500D01*
X98423502Y-106040443D01*
X98551514Y-106020169D01*
X98772396Y-105948400D01*
X98979331Y-105842961D01*
X99167224Y-105706449D01*
X99331449Y-105542224D01*
X99467961Y-105354331D01*
X99573400Y-105147396D01*
X99645169Y-104926514D01*
X99665443Y-104798502D01*
X99681500Y-104697129D01*
X99681500Y-104464870D01*
X101810500Y-104464870D01*
X101810500Y-104697129D01*
X101846831Y-104926514D01*
X101918601Y-105147400D01*
X102024039Y-105354331D01*
X102160551Y-105542224D01*
X102324776Y-105706449D01*
X102512669Y-105842961D01*
X102610436Y-105892776D01*
X102719599Y-105948398D01*
X102719601Y-105948398D01*
X102719604Y-105948400D01*
X102940486Y-106020169D01*
X103058668Y-106038886D01*
X103169871Y-106056500D01*
X103169876Y-106056500D01*
X103402129Y-106056500D01*
X103503502Y-106040443D01*
X103631514Y-106020169D01*
X103852396Y-105948400D01*
X104059331Y-105842961D01*
X104247224Y-105706449D01*
X104411449Y-105542224D01*
X104547961Y-105354331D01*
X104653400Y-105147396D01*
X104725169Y-104926514D01*
X104745443Y-104798502D01*
X104761500Y-104697129D01*
X104761500Y-104464870D01*
X104742232Y-104343222D01*
X104725169Y-104235486D01*
X104653400Y-104014604D01*
X104653398Y-104014601D01*
X104653398Y-104014599D01*
X104584160Y-103878714D01*
X104547961Y-103807669D01*
X104411449Y-103619776D01*
X104247224Y-103455551D01*
X104059331Y-103319039D01*
X103852400Y-103213601D01*
X103631514Y-103141831D01*
X103402129Y-103105500D01*
X103402124Y-103105500D01*
X103169876Y-103105500D01*
X103169871Y-103105500D01*
X102940485Y-103141831D01*
X102719599Y-103213601D01*
X102512668Y-103319039D01*
X102324773Y-103455553D01*
X102160553Y-103619773D01*
X102024039Y-103807668D01*
X101918601Y-104014599D01*
X101846831Y-104235485D01*
X101810500Y-104464870D01*
X99681500Y-104464870D01*
X99662232Y-104343222D01*
X99645169Y-104235486D01*
X99573400Y-104014604D01*
X99573398Y-104014601D01*
X99573398Y-104014599D01*
X99504160Y-103878714D01*
X99467961Y-103807669D01*
X99331449Y-103619776D01*
X99167224Y-103455551D01*
X98979331Y-103319039D01*
X98772400Y-103213601D01*
X98551514Y-103141831D01*
X98322129Y-103105500D01*
X98322124Y-103105500D01*
X98089876Y-103105500D01*
X98089871Y-103105500D01*
X97860485Y-103141831D01*
X97639599Y-103213601D01*
X97432668Y-103319039D01*
X97244773Y-103455553D01*
X97080553Y-103619773D01*
X96944039Y-103807668D01*
X96838601Y-104014599D01*
X96766831Y-104235485D01*
X96730500Y-104464870D01*
X90969500Y-104464870D01*
X90969500Y-101503818D01*
X90989185Y-101436779D01*
X91041989Y-101391024D01*
X91111147Y-101381080D01*
X91174703Y-101410105D01*
X91212477Y-101468883D01*
X91213257Y-101471662D01*
X91253159Y-101620576D01*
X91262947Y-101657104D01*
X91355574Y-101880725D01*
X91355776Y-101881212D01*
X91477064Y-102091289D01*
X91477066Y-102091292D01*
X91477067Y-102091293D01*
X91624733Y-102283736D01*
X91624739Y-102283743D01*
X91796256Y-102455260D01*
X91796262Y-102455265D01*
X91988711Y-102602936D01*
X92198788Y-102724224D01*
X92422900Y-102817054D01*
X92657211Y-102879838D01*
X92837586Y-102903584D01*
X92897711Y-102911500D01*
X92897712Y-102911500D01*
X93140289Y-102911500D01*
X93188388Y-102905167D01*
X93380789Y-102879838D01*
X93615100Y-102817054D01*
X93839212Y-102724224D01*
X94049289Y-102602936D01*
X94241738Y-102455265D01*
X94413265Y-102283738D01*
X94560936Y-102091289D01*
X94682224Y-101881212D01*
X94682426Y-101880725D01*
X94741524Y-101738049D01*
X94785365Y-101683645D01*
X94851659Y-101661580D01*
X94856085Y-101661501D01*
X94979054Y-101661501D01*
X94979057Y-101661501D01*
X95131785Y-101620577D01*
X95181904Y-101591639D01*
X95268716Y-101541520D01*
X95380520Y-101429716D01*
X95380520Y-101429714D01*
X95390728Y-101419507D01*
X95390729Y-101419504D01*
X101778417Y-95031819D01*
X101839740Y-94998334D01*
X101866098Y-94995500D01*
X109473209Y-94995500D01*
X109540248Y-95015185D01*
X109586003Y-95067989D01*
X109589391Y-95076167D01*
X109612202Y-95137328D01*
X109612206Y-95137335D01*
X109698452Y-95252544D01*
X109698455Y-95252547D01*
X109813664Y-95338793D01*
X109813671Y-95338797D01*
X109948517Y-95389091D01*
X109948516Y-95389091D01*
X109955444Y-95389835D01*
X110008127Y-95395500D01*
X110781500Y-95395499D01*
X110848539Y-95415183D01*
X110894294Y-95467987D01*
X110905500Y-95519499D01*
X110905500Y-97510268D01*
X110905499Y-97510286D01*
X110905499Y-97675992D01*
X110905498Y-97675992D01*
X110914604Y-97709976D01*
X110946423Y-97828723D01*
X110946424Y-97828725D01*
X110946423Y-97828725D01*
X110953974Y-97841802D01*
X110953976Y-97841805D01*
X110983245Y-97892500D01*
X110999718Y-97960400D01*
X110976866Y-98026427D01*
X110921945Y-98069617D01*
X110875858Y-98078500D01*
X108825941Y-98078500D01*
X108740942Y-98101275D01*
X108708851Y-98105500D01*
X108608637Y-98105500D01*
X108491234Y-98120955D01*
X108490083Y-98121264D01*
X108488891Y-98121264D01*
X108483179Y-98122016D01*
X108483080Y-98121264D01*
X108432919Y-98121264D01*
X108432820Y-98122017D01*
X108427107Y-98121264D01*
X108425917Y-98121265D01*
X108424765Y-98120956D01*
X108307361Y-98105500D01*
X107968636Y-98105500D01*
X107851246Y-98120953D01*
X107851234Y-98120957D01*
X107705163Y-98181461D01*
X107698124Y-98185526D01*
X107697117Y-98183783D01*
X107642068Y-98205069D01*
X107631743Y-98205500D01*
X103170098Y-98205500D01*
X103140657Y-98196855D01*
X103110671Y-98190332D01*
X103105655Y-98186577D01*
X103103059Y-98185815D01*
X103082417Y-98169181D01*
X102942573Y-98029337D01*
X102909088Y-97968014D01*
X102908637Y-97965847D01*
X102891802Y-97881212D01*
X102877737Y-97810503D01*
X102854247Y-97753793D01*
X102817397Y-97664827D01*
X102817390Y-97664814D01*
X102729789Y-97533711D01*
X102729786Y-97533707D01*
X102618292Y-97422213D01*
X102618288Y-97422210D01*
X102487185Y-97334609D01*
X102487172Y-97334602D01*
X102341501Y-97274264D01*
X102341489Y-97274261D01*
X102186845Y-97243500D01*
X102186842Y-97243500D01*
X102029158Y-97243500D01*
X102029155Y-97243500D01*
X101874510Y-97274261D01*
X101874498Y-97274264D01*
X101728827Y-97334602D01*
X101728814Y-97334609D01*
X101597711Y-97422210D01*
X101597707Y-97422213D01*
X101486213Y-97533707D01*
X101486210Y-97533711D01*
X101398609Y-97664814D01*
X101398602Y-97664827D01*
X101338264Y-97810498D01*
X101338261Y-97810510D01*
X101307500Y-97965153D01*
X101307500Y-98122846D01*
X101338261Y-98277489D01*
X101338264Y-98277501D01*
X101398602Y-98423172D01*
X101398609Y-98423185D01*
X101486210Y-98554288D01*
X101486213Y-98554292D01*
X101597707Y-98665786D01*
X101597711Y-98665789D01*
X101728814Y-98753390D01*
X101728827Y-98753397D01*
X101874498Y-98813735D01*
X101874503Y-98813737D01*
X101939147Y-98826595D01*
X102029849Y-98844638D01*
X102091760Y-98877023D01*
X102093334Y-98878569D01*
X102501284Y-99286520D01*
X102501286Y-99286521D01*
X102501290Y-99286524D01*
X102633723Y-99362983D01*
X102638216Y-99365577D01*
X102790943Y-99406501D01*
X102790945Y-99406501D01*
X102956654Y-99406501D01*
X102956670Y-99406500D01*
X107631743Y-99406500D01*
X107698782Y-99426185D01*
X107704099Y-99429924D01*
X107705157Y-99430534D01*
X107705159Y-99430536D01*
X107705160Y-99430536D01*
X107705163Y-99430538D01*
X107778198Y-99460790D01*
X107851238Y-99491044D01*
X107968639Y-99506500D01*
X108307360Y-99506499D01*
X108307363Y-99506499D01*
X108424755Y-99491045D01*
X108424755Y-99491044D01*
X108424762Y-99491044D01*
X108424767Y-99491041D01*
X108425900Y-99490739D01*
X108427085Y-99490738D01*
X108432821Y-99489984D01*
X108432920Y-99490738D01*
X108483080Y-99490737D01*
X108483180Y-99489983D01*
X108488907Y-99490737D01*
X108490091Y-99490737D01*
X108491234Y-99491043D01*
X108491236Y-99491043D01*
X108491238Y-99491044D01*
X108608639Y-99506500D01*
X108947360Y-99506499D01*
X108947363Y-99506499D01*
X109064753Y-99491046D01*
X109064757Y-99491044D01*
X109064762Y-99491044D01*
X109210841Y-99430536D01*
X109336282Y-99334282D01*
X109341092Y-99328014D01*
X109397519Y-99286811D01*
X109439468Y-99279500D01*
X111314743Y-99279500D01*
X111381782Y-99299185D01*
X111387099Y-99302924D01*
X111388157Y-99303534D01*
X111388159Y-99303536D01*
X111388160Y-99303536D01*
X111388163Y-99303538D01*
X111447254Y-99328014D01*
X111534238Y-99364044D01*
X111651639Y-99379500D01*
X111990360Y-99379499D01*
X111990363Y-99379499D01*
X112107755Y-99364045D01*
X112107755Y-99364044D01*
X112107762Y-99364044D01*
X112107767Y-99364041D01*
X112108900Y-99363739D01*
X112110085Y-99363738D01*
X112115821Y-99362984D01*
X112115920Y-99363738D01*
X112166080Y-99363737D01*
X112166180Y-99362983D01*
X112171907Y-99363737D01*
X112173091Y-99363737D01*
X112174234Y-99364043D01*
X112174236Y-99364043D01*
X112174238Y-99364044D01*
X112291639Y-99379500D01*
X112630360Y-99379499D01*
X112630363Y-99379499D01*
X112747753Y-99364046D01*
X112747757Y-99364044D01*
X112747762Y-99364044D01*
X112893841Y-99303536D01*
X113019282Y-99207282D01*
X113115536Y-99081841D01*
X113176044Y-98935762D01*
X113191500Y-98818361D01*
X113191499Y-98539640D01*
X113191499Y-98539636D01*
X113176046Y-98422246D01*
X113176044Y-98422241D01*
X113176044Y-98422238D01*
X113115536Y-98276159D01*
X113019282Y-98150718D01*
X113019280Y-98150717D01*
X113019280Y-98150716D01*
X112960354Y-98105501D01*
X112893841Y-98054464D01*
X112893837Y-98054462D01*
X112893838Y-98054462D01*
X112778214Y-98006569D01*
X112737986Y-97979689D01*
X112142819Y-97384522D01*
X112109334Y-97323199D01*
X112106500Y-97296841D01*
X112106500Y-95519000D01*
X112126185Y-95451961D01*
X112178989Y-95406206D01*
X112199188Y-95401811D01*
X112206000Y-95395000D01*
X112706000Y-95395000D01*
X113003828Y-95395000D01*
X113003844Y-95394999D01*
X113063372Y-95388598D01*
X113063379Y-95388596D01*
X113198086Y-95338354D01*
X113198093Y-95338350D01*
X113313187Y-95252190D01*
X113313190Y-95252187D01*
X113399350Y-95137093D01*
X113399354Y-95137086D01*
X113449596Y-95002379D01*
X113449598Y-95002372D01*
X113455999Y-94942844D01*
X113456000Y-94942827D01*
X113456000Y-94645000D01*
X112706000Y-94645000D01*
X112706000Y-95395000D01*
X112206000Y-95395000D01*
X112206000Y-94145000D01*
X112706000Y-94145000D01*
X113456000Y-94145000D01*
X113456000Y-93847172D01*
X113455999Y-93847155D01*
X113449598Y-93787627D01*
X113449596Y-93787620D01*
X113399354Y-93652913D01*
X113399350Y-93652906D01*
X113313190Y-93537812D01*
X113313187Y-93537809D01*
X113198093Y-93451649D01*
X113198086Y-93451645D01*
X113063379Y-93401403D01*
X113063372Y-93401401D01*
X113003844Y-93395000D01*
X112706000Y-93395000D01*
X112706000Y-94145000D01*
X112206000Y-94145000D01*
X112206000Y-93370075D01*
X112202495Y-93363657D01*
X112207479Y-93293965D01*
X112249347Y-93238034D01*
X112363546Y-93152546D01*
X112449796Y-93037331D01*
X112500091Y-92902483D01*
X112506500Y-92842873D01*
X112506499Y-91747128D01*
X112500091Y-91687517D01*
X112498353Y-91682858D01*
X112449797Y-91552671D01*
X112449793Y-91552664D01*
X112363547Y-91437455D01*
X112363544Y-91437452D01*
X112248335Y-91351206D01*
X112248328Y-91351202D01*
X112113482Y-91300908D01*
X112113483Y-91300908D01*
X112053883Y-91294501D01*
X112053881Y-91294500D01*
X112053873Y-91294500D01*
X112053864Y-91294500D01*
X110958129Y-91294500D01*
X110958123Y-91294501D01*
X110898516Y-91300908D01*
X110763671Y-91351202D01*
X110763664Y-91351206D01*
X110648455Y-91437452D01*
X110648452Y-91437455D01*
X110562206Y-91552664D01*
X110562202Y-91552671D01*
X110511908Y-91687517D01*
X110510057Y-91704739D01*
X110505501Y-91747123D01*
X110505500Y-91747135D01*
X110505500Y-92842870D01*
X110505501Y-92842876D01*
X110511908Y-92902483D01*
X110562202Y-93037328D01*
X110562206Y-93037335D01*
X110648452Y-93152544D01*
X110648453Y-93152544D01*
X110648454Y-93152546D01*
X110673418Y-93171234D01*
X110715288Y-93227168D01*
X110720272Y-93296860D01*
X110686786Y-93358182D01*
X110625462Y-93391667D01*
X110599106Y-93394500D01*
X110008129Y-93394500D01*
X110008123Y-93394501D01*
X109948516Y-93400908D01*
X109813671Y-93451202D01*
X109813664Y-93451206D01*
X109698455Y-93537452D01*
X109698452Y-93537455D01*
X109612206Y-93652664D01*
X109612202Y-93652671D01*
X109589391Y-93713833D01*
X109547520Y-93769767D01*
X109482056Y-93794184D01*
X109473209Y-93794500D01*
X101652670Y-93794500D01*
X101652654Y-93794499D01*
X101645058Y-93794499D01*
X101486943Y-93794499D01*
X101387158Y-93821236D01*
X101355607Y-93829691D01*
X101285757Y-93828028D01*
X101227894Y-93788866D01*
X101200390Y-93724637D01*
X101211976Y-93655735D01*
X101224240Y-93635613D01*
X101308296Y-93523331D01*
X101358591Y-93388483D01*
X101365000Y-93328873D01*
X101364999Y-92681095D01*
X101384683Y-92614057D01*
X101401313Y-92593420D01*
X107094520Y-86900216D01*
X107100127Y-86890503D01*
X107112832Y-86868499D01*
X107163398Y-86820284D01*
X107220219Y-86806499D01*
X107423363Y-86806499D01*
X107540753Y-86791046D01*
X107540757Y-86791044D01*
X107540762Y-86791044D01*
X107686841Y-86730536D01*
X107812282Y-86634282D01*
X107908536Y-86508841D01*
X107952771Y-86402047D01*
X107996612Y-86347644D01*
X108062906Y-86325579D01*
X108067332Y-86325500D01*
X110080743Y-86325500D01*
X110147782Y-86345185D01*
X110153099Y-86348924D01*
X110154157Y-86349534D01*
X110154159Y-86349536D01*
X110154160Y-86349536D01*
X110154163Y-86349538D01*
X110186089Y-86362762D01*
X110300238Y-86410044D01*
X110417639Y-86425500D01*
X110756360Y-86425499D01*
X110756363Y-86425499D01*
X110873755Y-86410045D01*
X110873755Y-86410044D01*
X110873762Y-86410044D01*
X110873767Y-86410041D01*
X110874900Y-86409739D01*
X110877090Y-86409606D01*
X110881821Y-86408984D01*
X110881865Y-86409318D01*
X110883946Y-86409192D01*
X110889159Y-86406802D01*
X110906576Y-86407825D01*
X110924453Y-86406746D01*
X110936364Y-86408439D01*
X110940238Y-86410044D01*
X111040436Y-86423235D01*
X111040927Y-86423305D01*
X111072213Y-86437533D01*
X111103555Y-86451398D01*
X111104391Y-86452167D01*
X111104529Y-86452230D01*
X111104630Y-86452387D01*
X111111155Y-86458390D01*
X114298181Y-89645416D01*
X114331666Y-89706739D01*
X114334500Y-89733097D01*
X114334500Y-103423330D01*
X114334499Y-103423348D01*
X114334499Y-103589054D01*
X114334498Y-103589054D01*
X114334499Y-103589057D01*
X114375423Y-103741785D01*
X114396572Y-103778416D01*
X114404358Y-103791900D01*
X114404359Y-103791904D01*
X114404360Y-103791904D01*
X114454479Y-103878714D01*
X114454481Y-103878717D01*
X114573349Y-103997585D01*
X114573355Y-103997590D01*
X122173039Y-111597275D01*
X122206524Y-111658598D01*
X122203289Y-111723273D01*
X122166832Y-111835478D01*
X122166831Y-111835485D01*
X122130500Y-112064870D01*
X122130500Y-112297129D01*
X122166831Y-112526514D01*
X122238601Y-112747400D01*
X122344039Y-112954331D01*
X122480551Y-113142224D01*
X122644776Y-113306449D01*
X122832669Y-113442961D01*
X122899945Y-113477240D01*
X123039599Y-113548398D01*
X123039601Y-113548398D01*
X123039604Y-113548400D01*
X123260486Y-113620169D01*
X123378668Y-113638886D01*
X123489871Y-113656500D01*
X123489876Y-113656500D01*
X123722129Y-113656500D01*
X123823502Y-113640443D01*
X123951514Y-113620169D01*
X124172396Y-113548400D01*
X124379331Y-113442961D01*
X124567224Y-113306449D01*
X124731449Y-113142224D01*
X124867961Y-112954331D01*
X124973400Y-112747396D01*
X125045169Y-112526514D01*
X125065561Y-112397760D01*
X125081500Y-112297129D01*
X125081500Y-112064870D01*
X125062232Y-111943222D01*
X125045169Y-111835486D01*
X124973400Y-111614604D01*
X124973398Y-111614601D01*
X124973398Y-111614599D01*
X124867960Y-111407668D01*
X124731449Y-111219776D01*
X124567224Y-111055551D01*
X124379331Y-110919039D01*
X124172400Y-110813601D01*
X123951514Y-110741831D01*
X123722129Y-110705500D01*
X123722124Y-110705500D01*
X123489876Y-110705500D01*
X123489871Y-110705500D01*
X123260485Y-110741831D01*
X123260478Y-110741832D01*
X123148273Y-110778289D01*
X123078431Y-110780284D01*
X123022275Y-110748039D01*
X115571819Y-103297583D01*
X115538334Y-103236260D01*
X115535500Y-103209902D01*
X115535500Y-99132000D01*
X115555185Y-99064961D01*
X115607989Y-99019206D01*
X115659500Y-99008000D01*
X115753000Y-99008000D01*
X115753000Y-97588000D01*
X115659500Y-97588000D01*
X115592461Y-97568315D01*
X115546706Y-97515511D01*
X115535500Y-97464000D01*
X115535500Y-89522059D01*
X115535501Y-89522046D01*
X115535501Y-89353945D01*
X115535501Y-89353943D01*
X115494577Y-89201215D01*
X115465639Y-89151095D01*
X115415520Y-89064284D01*
X115303716Y-88952480D01*
X115303715Y-88952479D01*
X115299385Y-88948149D01*
X115299374Y-88948139D01*
X112334079Y-85982844D01*
X113377000Y-85982844D01*
X113383401Y-86042372D01*
X113383403Y-86042379D01*
X113433645Y-86177086D01*
X113433649Y-86177093D01*
X113519809Y-86292187D01*
X113519812Y-86292190D01*
X113634906Y-86378350D01*
X113634913Y-86378354D01*
X113769620Y-86428596D01*
X113769627Y-86428598D01*
X113829155Y-86434999D01*
X113829172Y-86435000D01*
X113987000Y-86435000D01*
X113987000Y-85935000D01*
X113377000Y-85935000D01*
X113377000Y-85982844D01*
X112334079Y-85982844D01*
X111990390Y-85639155D01*
X111979434Y-85619090D01*
X111964671Y-85601637D01*
X111959134Y-85581915D01*
X111956905Y-85577832D01*
X111955132Y-85567657D01*
X111943598Y-85480034D01*
X111942045Y-85468245D01*
X111942044Y-85468244D01*
X111942044Y-85468238D01*
X111941595Y-85467155D01*
X113377000Y-85467155D01*
X113377000Y-85515000D01*
X113987000Y-85515000D01*
X113987000Y-85015000D01*
X113829155Y-85015000D01*
X113769627Y-85021401D01*
X113769620Y-85021403D01*
X113634913Y-85071645D01*
X113634906Y-85071649D01*
X113519812Y-85157809D01*
X113519809Y-85157812D01*
X113433649Y-85272906D01*
X113433645Y-85272913D01*
X113383403Y-85407620D01*
X113383401Y-85407627D01*
X113377000Y-85467155D01*
X111941595Y-85467155D01*
X111881536Y-85322159D01*
X111785282Y-85196718D01*
X111659841Y-85100464D01*
X111658182Y-85099777D01*
X111513762Y-85039956D01*
X111513760Y-85039955D01*
X111396361Y-85024500D01*
X111057636Y-85024500D01*
X110940234Y-85039955D01*
X110939083Y-85040264D01*
X110937891Y-85040264D01*
X110932179Y-85041016D01*
X110932080Y-85040264D01*
X110881919Y-85040264D01*
X110881820Y-85041017D01*
X110876107Y-85040264D01*
X110874917Y-85040265D01*
X110873765Y-85039956D01*
X110756361Y-85024500D01*
X110417636Y-85024500D01*
X110300246Y-85039953D01*
X110300234Y-85039957D01*
X110154163Y-85100461D01*
X110147124Y-85104526D01*
X110146117Y-85102783D01*
X110091068Y-85124069D01*
X110080743Y-85124500D01*
X107555940Y-85124500D01*
X107515019Y-85135464D01*
X107515019Y-85135465D01*
X107477751Y-85145451D01*
X107403214Y-85165423D01*
X107403209Y-85165426D01*
X107266290Y-85244475D01*
X107266282Y-85244481D01*
X107154478Y-85356285D01*
X107154478Y-85356286D01*
X107138152Y-85372612D01*
X107076827Y-85406095D01*
X107066658Y-85407867D01*
X106967232Y-85420956D01*
X106966083Y-85421264D01*
X106964893Y-85421264D01*
X106959181Y-85422016D01*
X106959082Y-85421264D01*
X106908919Y-85421264D01*
X106908820Y-85422017D01*
X106903107Y-85421264D01*
X106901917Y-85421265D01*
X106900765Y-85420956D01*
X106783361Y-85405500D01*
X106444636Y-85405500D01*
X106327246Y-85420953D01*
X106327237Y-85420956D01*
X106181160Y-85481463D01*
X106055718Y-85577718D01*
X105959463Y-85703160D01*
X105898956Y-85849237D01*
X105898955Y-85849239D01*
X105883500Y-85966638D01*
X105883500Y-86245362D01*
X105894993Y-86332662D01*
X105884227Y-86401698D01*
X105859735Y-86436527D01*
X100552082Y-91744181D01*
X100490759Y-91777666D01*
X100464401Y-91780500D01*
X99816629Y-91780500D01*
X99816623Y-91780501D01*
X99757016Y-91786908D01*
X99622171Y-91837202D01*
X99622164Y-91837206D01*
X99506956Y-91923452D01*
X99506955Y-91923453D01*
X99506954Y-91923454D01*
X99497001Y-91936748D01*
X99488264Y-91948420D01*
X99432329Y-91990289D01*
X99362637Y-91995271D01*
X99301315Y-91961784D01*
X99267832Y-91900460D01*
X99264999Y-91874111D01*
X99264999Y-91283128D01*
X99258591Y-91223517D01*
X99208296Y-91088669D01*
X99208295Y-91088668D01*
X99208293Y-91088664D01*
X99122047Y-90973455D01*
X99122044Y-90973452D01*
X99006835Y-90887206D01*
X99006828Y-90887202D01*
X98871982Y-90836908D01*
X98871983Y-90836908D01*
X98812383Y-90830501D01*
X98812381Y-90830500D01*
X98812373Y-90830500D01*
X98812365Y-90830500D01*
X98164597Y-90830500D01*
X98097558Y-90810815D01*
X98076916Y-90794181D01*
X97853090Y-90570355D01*
X97853088Y-90570352D01*
X97734217Y-90451481D01*
X97734216Y-90451480D01*
X97647404Y-90401360D01*
X97647404Y-90401359D01*
X97647400Y-90401358D01*
X97597285Y-90372423D01*
X97444557Y-90331499D01*
X97286443Y-90331499D01*
X97278847Y-90331499D01*
X97278831Y-90331500D01*
X87234670Y-90331500D01*
X87234654Y-90331499D01*
X87227058Y-90331499D01*
X87068943Y-90331499D01*
X86992579Y-90351961D01*
X86916214Y-90372423D01*
X86916209Y-90372426D01*
X86779290Y-90451475D01*
X86779282Y-90451481D01*
X85893397Y-91337366D01*
X85832074Y-91370851D01*
X85762382Y-91365867D01*
X85758263Y-91364246D01*
X85615104Y-91304947D01*
X85380785Y-91242161D01*
X85140289Y-91210500D01*
X85140288Y-91210500D01*
X84897712Y-91210500D01*
X84897711Y-91210500D01*
X84657214Y-91242161D01*
X84422895Y-91304947D01*
X84198794Y-91397773D01*
X84198785Y-91397777D01*
X83988706Y-91519067D01*
X83796263Y-91666733D01*
X83796256Y-91666739D01*
X83624739Y-91838256D01*
X83624733Y-91838263D01*
X83477067Y-92030706D01*
X83477064Y-92030710D01*
X83477064Y-92030711D01*
X83460817Y-92058851D01*
X83355777Y-92240785D01*
X83355772Y-92240794D01*
X83289061Y-92401851D01*
X83245220Y-92456254D01*
X83178926Y-92478319D01*
X83111226Y-92461040D01*
X83063616Y-92409902D01*
X83050500Y-92354398D01*
X83050500Y-86951188D01*
X86843500Y-86951188D01*
X86843500Y-87170811D01*
X86843501Y-87170828D01*
X86872167Y-87388573D01*
X86929014Y-87600729D01*
X87007867Y-87791097D01*
X87013065Y-87803645D01*
X87122884Y-87993855D01*
X87122889Y-87993861D01*
X87122890Y-87993863D01*
X87256588Y-88168102D01*
X87256594Y-88168109D01*
X87411890Y-88323405D01*
X87411896Y-88323410D01*
X87586145Y-88457116D01*
X87776355Y-88566935D01*
X87877814Y-88608960D01*
X87979270Y-88650985D01*
X87979271Y-88650985D01*
X87979273Y-88650986D01*
X88191425Y-88707832D01*
X88409182Y-88736500D01*
X88409189Y-88736500D01*
X88628811Y-88736500D01*
X88628818Y-88736500D01*
X88846575Y-88707832D01*
X89058727Y-88650986D01*
X89261645Y-88566935D01*
X89451855Y-88457116D01*
X89626104Y-88323410D01*
X89781410Y-88168104D01*
X89915116Y-87993855D01*
X90024935Y-87803645D01*
X90108986Y-87600727D01*
X90165832Y-87388575D01*
X90194500Y-87170818D01*
X90194500Y-86951182D01*
X90165832Y-86733425D01*
X90108986Y-86521273D01*
X90080361Y-86452167D01*
X90062475Y-86408984D01*
X90024935Y-86318355D01*
X89915116Y-86128145D01*
X89781410Y-85953896D01*
X89781405Y-85953890D01*
X89626109Y-85798594D01*
X89626102Y-85798588D01*
X89451863Y-85664890D01*
X89451861Y-85664889D01*
X89451855Y-85664884D01*
X89261645Y-85555065D01*
X89261641Y-85555063D01*
X89058729Y-85471014D01*
X88846573Y-85414167D01*
X88628828Y-85385501D01*
X88628823Y-85385500D01*
X88628818Y-85385500D01*
X88409182Y-85385500D01*
X88409176Y-85385500D01*
X88409171Y-85385501D01*
X88191426Y-85414167D01*
X87979270Y-85471014D01*
X87776358Y-85555063D01*
X87776354Y-85555065D01*
X87586145Y-85664884D01*
X87586136Y-85664890D01*
X87411897Y-85798588D01*
X87411890Y-85798594D01*
X87256594Y-85953890D01*
X87256588Y-85953897D01*
X87122890Y-86128136D01*
X87122884Y-86128145D01*
X87013065Y-86318354D01*
X87013063Y-86318358D01*
X86929014Y-86521270D01*
X86872167Y-86733426D01*
X86843501Y-86951171D01*
X86843500Y-86951188D01*
X83050500Y-86951188D01*
X83050500Y-83175959D01*
X83051280Y-83162077D01*
X83054207Y-83136096D01*
X83061459Y-83071729D01*
X83067635Y-83044668D01*
X83095353Y-82965457D01*
X83107393Y-82940453D01*
X83152046Y-82869389D01*
X83169351Y-82847690D01*
X83228690Y-82788351D01*
X83250389Y-82771046D01*
X83321453Y-82726393D01*
X83346457Y-82714353D01*
X83425668Y-82686635D01*
X83452729Y-82680459D01*
X83528753Y-82671893D01*
X83543078Y-82670280D01*
X83556960Y-82669500D01*
X92579317Y-82669500D01*
X92579318Y-82669500D01*
X92791769Y-82638954D01*
X92910101Y-82604209D01*
X92997701Y-82578488D01*
X92997703Y-82578486D01*
X92997710Y-82578485D01*
X93104677Y-82529634D01*
X93192938Y-82489328D01*
X93192942Y-82489325D01*
X93192950Y-82489322D01*
X93373513Y-82373281D01*
X93535724Y-82232724D01*
X93676281Y-82070513D01*
X93792322Y-81889950D01*
X93792325Y-81889942D01*
X93792328Y-81889938D01*
X93832634Y-81801677D01*
X93881485Y-81694710D01*
X93941954Y-81488769D01*
X93972500Y-81276318D01*
X93972500Y-81169000D01*
X93972500Y-81103108D01*
X93972500Y-79054135D01*
X96660500Y-79054135D01*
X96660500Y-81099870D01*
X96660501Y-81099876D01*
X96666908Y-81159483D01*
X96717202Y-81294328D01*
X96717206Y-81294335D01*
X96803452Y-81409544D01*
X96803455Y-81409547D01*
X96918664Y-81495793D01*
X96918671Y-81495797D01*
X97053517Y-81546091D01*
X97053516Y-81546091D01*
X97060444Y-81546835D01*
X97113127Y-81552500D01*
X99158872Y-81552499D01*
X99218483Y-81546091D01*
X99353331Y-81495796D01*
X99468546Y-81409546D01*
X99554796Y-81294331D01*
X99605091Y-81159483D01*
X99611500Y-81099873D01*
X99611500Y-80801500D01*
X99631185Y-80734461D01*
X99683989Y-80688706D01*
X99735500Y-80677500D01*
X116706903Y-80677500D01*
X116773942Y-80697185D01*
X116819697Y-80749989D01*
X116829641Y-80819147D01*
X116800616Y-80882703D01*
X116794585Y-80889179D01*
X116027787Y-81655977D01*
X115328286Y-82355478D01*
X115216481Y-82467282D01*
X115216479Y-82467285D01*
X115166361Y-82554094D01*
X115166359Y-82554096D01*
X115137425Y-82604209D01*
X115137424Y-82604210D01*
X115126953Y-82643290D01*
X115096499Y-82756943D01*
X115096499Y-82756945D01*
X115096499Y-82925046D01*
X115096500Y-82925059D01*
X115096500Y-85037708D01*
X115095212Y-85042091D01*
X115096184Y-85046555D01*
X115085458Y-85075311D01*
X115076815Y-85104747D01*
X115072918Y-85108932D01*
X115071767Y-85112019D01*
X115046813Y-85136972D01*
X115020894Y-85156376D01*
X115020893Y-85156377D01*
X114955428Y-85180793D01*
X114887156Y-85165941D01*
X114872272Y-85156376D01*
X114759088Y-85071646D01*
X114759086Y-85071645D01*
X114624379Y-85021403D01*
X114624372Y-85021401D01*
X114564844Y-85015000D01*
X114407000Y-85015000D01*
X114407000Y-86435000D01*
X114564828Y-86435000D01*
X114564844Y-86434999D01*
X114624372Y-86428598D01*
X114624379Y-86428596D01*
X114759086Y-86378354D01*
X114759089Y-86378352D01*
X114872271Y-86293624D01*
X114937735Y-86269206D01*
X115006009Y-86284057D01*
X115020888Y-86293619D01*
X115134076Y-86378352D01*
X115134668Y-86378795D01*
X115134671Y-86378797D01*
X115179618Y-86395561D01*
X115269517Y-86429091D01*
X115329127Y-86435500D01*
X115506901Y-86435499D01*
X115573941Y-86455183D01*
X115594583Y-86471818D01*
X116826181Y-87703416D01*
X116859666Y-87764739D01*
X116862500Y-87791097D01*
X116862500Y-97610708D01*
X116861212Y-97615091D01*
X116862184Y-97619555D01*
X116851458Y-97648311D01*
X116842815Y-97677747D01*
X116838918Y-97681932D01*
X116837767Y-97685019D01*
X116812813Y-97709972D01*
X116786894Y-97729376D01*
X116786893Y-97729377D01*
X116721428Y-97753793D01*
X116653156Y-97738941D01*
X116638272Y-97729376D01*
X116525088Y-97644646D01*
X116525086Y-97644645D01*
X116390379Y-97594403D01*
X116390372Y-97594401D01*
X116330844Y-97588000D01*
X116173000Y-97588000D01*
X116173000Y-99008000D01*
X116330828Y-99008000D01*
X116330844Y-99007999D01*
X116390372Y-99001598D01*
X116390379Y-99001596D01*
X116525086Y-98951354D01*
X116525089Y-98951352D01*
X116638271Y-98866624D01*
X116703735Y-98842206D01*
X116772009Y-98857057D01*
X116786888Y-98866619D01*
X116884526Y-98939711D01*
X116900668Y-98951795D01*
X116900671Y-98951797D01*
X116945618Y-98968561D01*
X117035517Y-99002091D01*
X117095127Y-99008500D01*
X117272901Y-99008499D01*
X117339941Y-99028183D01*
X117360583Y-99044818D01*
X122094181Y-103778416D01*
X122127666Y-103839739D01*
X122130500Y-103866097D01*
X122130500Y-105603870D01*
X122130501Y-105603876D01*
X122136908Y-105663483D01*
X122187202Y-105798328D01*
X122187206Y-105798335D01*
X122273452Y-105913544D01*
X122273455Y-105913547D01*
X122388664Y-105999793D01*
X122388671Y-105999797D01*
X122523517Y-106050091D01*
X122523516Y-106050091D01*
X122530444Y-106050835D01*
X122583127Y-106056500D01*
X124628872Y-106056499D01*
X124688483Y-106050091D01*
X124823331Y-105999796D01*
X124938546Y-105913546D01*
X125024796Y-105798331D01*
X125075091Y-105663483D01*
X125081500Y-105603873D01*
X125081499Y-103558128D01*
X125075091Y-103498517D01*
X125059066Y-103455553D01*
X125024797Y-103363671D01*
X125024793Y-103363664D01*
X124938547Y-103248455D01*
X124938544Y-103248452D01*
X124823335Y-103162206D01*
X124823328Y-103162202D01*
X124688482Y-103111908D01*
X124688483Y-103111908D01*
X124628883Y-103105501D01*
X124628881Y-103105500D01*
X124628873Y-103105500D01*
X124628865Y-103105500D01*
X123171097Y-103105500D01*
X123104058Y-103085815D01*
X123083416Y-103069181D01*
X118319818Y-98305583D01*
X118286333Y-98244260D01*
X118283499Y-98217902D01*
X118283499Y-98040129D01*
X118283498Y-98040123D01*
X118282486Y-98030711D01*
X118277091Y-97980517D01*
X118276782Y-97979689D01*
X118226797Y-97845671D01*
X118226793Y-97845664D01*
X118140548Y-97730457D01*
X118140546Y-97730454D01*
X118140544Y-97730452D01*
X118140542Y-97730450D01*
X118113188Y-97709973D01*
X118071318Y-97654039D01*
X118063500Y-97610707D01*
X118063500Y-87411945D01*
X118063500Y-87411943D01*
X118022577Y-87259216D01*
X118022577Y-87259215D01*
X118022577Y-87259214D01*
X117993639Y-87209095D01*
X117993637Y-87209092D01*
X117971536Y-87170811D01*
X117943520Y-87122284D01*
X117831716Y-87010480D01*
X117831715Y-87010479D01*
X117827385Y-87006149D01*
X117827374Y-87006139D01*
X116553818Y-85732583D01*
X116520333Y-85671260D01*
X116517499Y-85644902D01*
X116517499Y-85467129D01*
X116517498Y-85467123D01*
X116514015Y-85434723D01*
X116511091Y-85407517D01*
X116502879Y-85385500D01*
X116460797Y-85272671D01*
X116460793Y-85272664D01*
X116380514Y-85165426D01*
X116374546Y-85157454D01*
X116374544Y-85157452D01*
X116374542Y-85157450D01*
X116347188Y-85136973D01*
X116305318Y-85081039D01*
X116297500Y-85037707D01*
X116297500Y-83136096D01*
X116317185Y-83069057D01*
X116333814Y-83048420D01*
X117872276Y-81509957D01*
X117933597Y-81476474D01*
X117998273Y-81479709D01*
X118023393Y-81487871D01*
X118110486Y-81516169D01*
X118216728Y-81532995D01*
X118339871Y-81552500D01*
X118339876Y-81552500D01*
X118572129Y-81552500D01*
X118673502Y-81536443D01*
X118801514Y-81516169D01*
X119022396Y-81444400D01*
X119229331Y-81338961D01*
X119417224Y-81202449D01*
X119581449Y-81038224D01*
X119717961Y-80850331D01*
X119823400Y-80643396D01*
X119895169Y-80422514D01*
X119915443Y-80294502D01*
X119931500Y-80193129D01*
X119931500Y-79960870D01*
X122060500Y-79960870D01*
X122060500Y-80193129D01*
X122096831Y-80422514D01*
X122168601Y-80643400D01*
X122215000Y-80734461D01*
X122274039Y-80850331D01*
X122410551Y-81038224D01*
X122574776Y-81202449D01*
X122762669Y-81338961D01*
X122854448Y-81385725D01*
X122969599Y-81444398D01*
X122969601Y-81444398D01*
X122969604Y-81444400D01*
X123190486Y-81516169D01*
X123308668Y-81534886D01*
X123419871Y-81552500D01*
X123419876Y-81552500D01*
X123652129Y-81552500D01*
X123753502Y-81536443D01*
X123881514Y-81516169D01*
X124102396Y-81444400D01*
X124309331Y-81338961D01*
X124497224Y-81202449D01*
X124661449Y-81038224D01*
X124797961Y-80850331D01*
X124903400Y-80643396D01*
X124975169Y-80422514D01*
X124995443Y-80294502D01*
X125011500Y-80193129D01*
X125011500Y-79960870D01*
X124992232Y-79839222D01*
X124975169Y-79731486D01*
X124903400Y-79510604D01*
X124903398Y-79510601D01*
X124903398Y-79510599D01*
X124847776Y-79401436D01*
X124797961Y-79303669D01*
X124661449Y-79115776D01*
X124497224Y-78951551D01*
X124309331Y-78815039D01*
X124102400Y-78709601D01*
X123881514Y-78637831D01*
X123652129Y-78601500D01*
X123652124Y-78601500D01*
X123419876Y-78601500D01*
X123419871Y-78601500D01*
X123190485Y-78637831D01*
X122969599Y-78709601D01*
X122762668Y-78815039D01*
X122574773Y-78951553D01*
X122410553Y-79115773D01*
X122274039Y-79303668D01*
X122168601Y-79510599D01*
X122096831Y-79731485D01*
X122060500Y-79960870D01*
X119931500Y-79960870D01*
X119912232Y-79839222D01*
X119895169Y-79731486D01*
X119823400Y-79510604D01*
X119823398Y-79510601D01*
X119823398Y-79510599D01*
X119767776Y-79401436D01*
X119717961Y-79303669D01*
X119581449Y-79115776D01*
X119417224Y-78951551D01*
X119229331Y-78815039D01*
X119022400Y-78709601D01*
X118801514Y-78637831D01*
X118572129Y-78601500D01*
X118572124Y-78601500D01*
X118339876Y-78601500D01*
X118339871Y-78601500D01*
X118110485Y-78637831D01*
X117889599Y-78709601D01*
X117682668Y-78815039D01*
X117494773Y-78951553D01*
X117330553Y-79115773D01*
X117194039Y-79303668D01*
X117169158Y-79352500D01*
X117142913Y-79404011D01*
X117140475Y-79408795D01*
X117092501Y-79459591D01*
X117029990Y-79476500D01*
X99735499Y-79476500D01*
X99668460Y-79456815D01*
X99622705Y-79404011D01*
X99611499Y-79352500D01*
X99611499Y-79054129D01*
X99611498Y-79054123D01*
X99611497Y-79054116D01*
X99605091Y-78994517D01*
X99589066Y-78951553D01*
X99554797Y-78859671D01*
X99554793Y-78859664D01*
X99468547Y-78744455D01*
X99468544Y-78744452D01*
X99353335Y-78658206D01*
X99353328Y-78658202D01*
X99218482Y-78607908D01*
X99218483Y-78607908D01*
X99158883Y-78601501D01*
X99158881Y-78601500D01*
X99158873Y-78601500D01*
X99158864Y-78601500D01*
X97113129Y-78601500D01*
X97113123Y-78601501D01*
X97053516Y-78607908D01*
X96918671Y-78658202D01*
X96918664Y-78658206D01*
X96803455Y-78744452D01*
X96803452Y-78744455D01*
X96717206Y-78859664D01*
X96717202Y-78859671D01*
X96666908Y-78994517D01*
X96660501Y-79054116D01*
X96660501Y-79054123D01*
X96660500Y-79054135D01*
X93972500Y-79054135D01*
X93972500Y-72360870D01*
X96660500Y-72360870D01*
X96660500Y-72593129D01*
X96696831Y-72822514D01*
X96768601Y-73043400D01*
X96874039Y-73250331D01*
X97010551Y-73438224D01*
X97174776Y-73602449D01*
X97362669Y-73738961D01*
X97460436Y-73788776D01*
X97569599Y-73844398D01*
X97569601Y-73844398D01*
X97569604Y-73844400D01*
X97790486Y-73916169D01*
X97908668Y-73934886D01*
X98019871Y-73952500D01*
X98019876Y-73952500D01*
X98252129Y-73952500D01*
X98353502Y-73936443D01*
X98481514Y-73916169D01*
X98702396Y-73844400D01*
X98909331Y-73738961D01*
X99097224Y-73602449D01*
X99261449Y-73438224D01*
X99397961Y-73250331D01*
X99503400Y-73043396D01*
X99575169Y-72822514D01*
X99595443Y-72694502D01*
X99611500Y-72593129D01*
X99611500Y-72360870D01*
X116980500Y-72360870D01*
X116980500Y-72593129D01*
X117016831Y-72822514D01*
X117088601Y-73043400D01*
X117194039Y-73250331D01*
X117330551Y-73438224D01*
X117494776Y-73602449D01*
X117682669Y-73738961D01*
X117780436Y-73788776D01*
X117889599Y-73844398D01*
X117889601Y-73844398D01*
X117889604Y-73844400D01*
X118110486Y-73916169D01*
X118228668Y-73934886D01*
X118339871Y-73952500D01*
X118339876Y-73952500D01*
X118572129Y-73952500D01*
X118673502Y-73936443D01*
X118801514Y-73916169D01*
X119022396Y-73844400D01*
X119229331Y-73738961D01*
X119417224Y-73602449D01*
X119581449Y-73438224D01*
X119717961Y-73250331D01*
X119823400Y-73043396D01*
X119895169Y-72822514D01*
X119915443Y-72694502D01*
X119931500Y-72593129D01*
X119931500Y-72360870D01*
X122060500Y-72360870D01*
X122060500Y-72593129D01*
X122096831Y-72822514D01*
X122168601Y-73043400D01*
X122274039Y-73250331D01*
X122410551Y-73438224D01*
X122574776Y-73602449D01*
X122762669Y-73738961D01*
X122860436Y-73788776D01*
X122969599Y-73844398D01*
X122969601Y-73844398D01*
X122969604Y-73844400D01*
X123190486Y-73916169D01*
X123308668Y-73934886D01*
X123419871Y-73952500D01*
X123419876Y-73952500D01*
X123652129Y-73952500D01*
X123753502Y-73936443D01*
X123881514Y-73916169D01*
X124102396Y-73844400D01*
X124309331Y-73738961D01*
X124497224Y-73602449D01*
X124661449Y-73438224D01*
X124797961Y-73250331D01*
X124903400Y-73043396D01*
X124975169Y-72822514D01*
X124995443Y-72694502D01*
X125011500Y-72593129D01*
X125011500Y-72360870D01*
X124992232Y-72239222D01*
X124975169Y-72131486D01*
X124903400Y-71910604D01*
X124903398Y-71910601D01*
X124903398Y-71910599D01*
X124797960Y-71703668D01*
X124661449Y-71515776D01*
X124497224Y-71351551D01*
X124309331Y-71215039D01*
X124102400Y-71109601D01*
X123881514Y-71037831D01*
X123652129Y-71001500D01*
X123652124Y-71001500D01*
X123419876Y-71001500D01*
X123419871Y-71001500D01*
X123190485Y-71037831D01*
X122969599Y-71109601D01*
X122762668Y-71215039D01*
X122574773Y-71351553D01*
X122410553Y-71515773D01*
X122274039Y-71703668D01*
X122168601Y-71910599D01*
X122096831Y-72131485D01*
X122060500Y-72360870D01*
X119931500Y-72360870D01*
X119912232Y-72239222D01*
X119895169Y-72131486D01*
X119823400Y-71910604D01*
X119823398Y-71910601D01*
X119823398Y-71910599D01*
X119717960Y-71703668D01*
X119581449Y-71515776D01*
X119417224Y-71351551D01*
X119229331Y-71215039D01*
X119022400Y-71109601D01*
X118801514Y-71037831D01*
X118572129Y-71001500D01*
X118572124Y-71001500D01*
X118339876Y-71001500D01*
X118339871Y-71001500D01*
X118110485Y-71037831D01*
X117889599Y-71109601D01*
X117682668Y-71215039D01*
X117494773Y-71351553D01*
X117330553Y-71515773D01*
X117194039Y-71703668D01*
X117088601Y-71910599D01*
X117016831Y-72131485D01*
X116980500Y-72360870D01*
X99611500Y-72360870D01*
X99592232Y-72239222D01*
X99575169Y-72131486D01*
X99503400Y-71910604D01*
X99503398Y-71910601D01*
X99503398Y-71910599D01*
X99397960Y-71703668D01*
X99261449Y-71515776D01*
X99097224Y-71351551D01*
X98909331Y-71215039D01*
X98702400Y-71109601D01*
X98481514Y-71037831D01*
X98252129Y-71001500D01*
X98252124Y-71001500D01*
X98019876Y-71001500D01*
X98019871Y-71001500D01*
X97790485Y-71037831D01*
X97569599Y-71109601D01*
X97362668Y-71215039D01*
X97174773Y-71351553D01*
X97010553Y-71515773D01*
X96874039Y-71703668D01*
X96768601Y-71910599D01*
X96696831Y-72131485D01*
X96660500Y-72360870D01*
X93972500Y-72360870D01*
X93972500Y-68824959D01*
X93973280Y-68811077D01*
X93973320Y-68810717D01*
X93983459Y-68720727D01*
X93989635Y-68693668D01*
X94017353Y-68614457D01*
X94029393Y-68589453D01*
X94074046Y-68518389D01*
X94091351Y-68496690D01*
X94150690Y-68437351D01*
X94172389Y-68420046D01*
X94243453Y-68375393D01*
X94268457Y-68363353D01*
X94347668Y-68335635D01*
X94374729Y-68329459D01*
X94450753Y-68320893D01*
X94465078Y-68319280D01*
X94478960Y-68318500D01*
X94537892Y-68318500D01*
X127077108Y-68318500D01*
X127136040Y-68318500D01*
X127149922Y-68319280D01*
G37*
%TD.AperFunction*%
%TD*%
M02*
