%TF.GenerationSoftware,KiCad,Pcbnew,9.0.8*%
%TF.CreationDate,2026-03-28T18:00:19-07:00*%
%TF.ProjectId,Charging Shutdown,43686172-6769-46e6-9720-53687574646f,rev?*%
%TF.SameCoordinates,Original*%
%TF.FileFunction,Legend,Top*%
%TF.FilePolarity,Positive*%
%FSLAX46Y46*%
G04 Gerber Fmt 4.6, Leading zero omitted, Abs format (unit mm)*
G04 Created by KiCad (PCBNEW 9.0.8) date 2026-03-28 18:00:19*
%MOMM*%
%LPD*%
G01*
G04 APERTURE LIST*
%ADD10C,0.150000*%
%ADD11C,0.254000*%
%ADD12C,0.100000*%
%ADD13C,0.200000*%
G04 APERTURE END LIST*
D10*
X88034905Y-113069819D02*
X88034905Y-112069819D01*
X88034905Y-112069819D02*
X88273000Y-112069819D01*
X88273000Y-112069819D02*
X88415857Y-112117438D01*
X88415857Y-112117438D02*
X88511095Y-112212676D01*
X88511095Y-112212676D02*
X88558714Y-112307914D01*
X88558714Y-112307914D02*
X88606333Y-112498390D01*
X88606333Y-112498390D02*
X88606333Y-112641247D01*
X88606333Y-112641247D02*
X88558714Y-112831723D01*
X88558714Y-112831723D02*
X88511095Y-112926961D01*
X88511095Y-112926961D02*
X88415857Y-113022200D01*
X88415857Y-113022200D02*
X88273000Y-113069819D01*
X88273000Y-113069819D02*
X88034905Y-113069819D01*
X89177762Y-112498390D02*
X89082524Y-112450771D01*
X89082524Y-112450771D02*
X89034905Y-112403152D01*
X89034905Y-112403152D02*
X88987286Y-112307914D01*
X88987286Y-112307914D02*
X88987286Y-112260295D01*
X88987286Y-112260295D02*
X89034905Y-112165057D01*
X89034905Y-112165057D02*
X89082524Y-112117438D01*
X89082524Y-112117438D02*
X89177762Y-112069819D01*
X89177762Y-112069819D02*
X89368238Y-112069819D01*
X89368238Y-112069819D02*
X89463476Y-112117438D01*
X89463476Y-112117438D02*
X89511095Y-112165057D01*
X89511095Y-112165057D02*
X89558714Y-112260295D01*
X89558714Y-112260295D02*
X89558714Y-112307914D01*
X89558714Y-112307914D02*
X89511095Y-112403152D01*
X89511095Y-112403152D02*
X89463476Y-112450771D01*
X89463476Y-112450771D02*
X89368238Y-112498390D01*
X89368238Y-112498390D02*
X89177762Y-112498390D01*
X89177762Y-112498390D02*
X89082524Y-112546009D01*
X89082524Y-112546009D02*
X89034905Y-112593628D01*
X89034905Y-112593628D02*
X88987286Y-112688866D01*
X88987286Y-112688866D02*
X88987286Y-112879342D01*
X88987286Y-112879342D02*
X89034905Y-112974580D01*
X89034905Y-112974580D02*
X89082524Y-113022200D01*
X89082524Y-113022200D02*
X89177762Y-113069819D01*
X89177762Y-113069819D02*
X89368238Y-113069819D01*
X89368238Y-113069819D02*
X89463476Y-113022200D01*
X89463476Y-113022200D02*
X89511095Y-112974580D01*
X89511095Y-112974580D02*
X89558714Y-112879342D01*
X89558714Y-112879342D02*
X89558714Y-112688866D01*
X89558714Y-112688866D02*
X89511095Y-112593628D01*
X89511095Y-112593628D02*
X89463476Y-112546009D01*
X89463476Y-112546009D02*
X89368238Y-112498390D01*
X84939667Y-114646009D02*
X85273000Y-114646009D01*
X85415857Y-115169819D02*
X84939667Y-115169819D01*
X84939667Y-115169819D02*
X84939667Y-114169819D01*
X84939667Y-114169819D02*
X85415857Y-114169819D01*
X85844429Y-115169819D02*
X85844429Y-114169819D01*
X85844429Y-114169819D02*
X86415857Y-115169819D01*
X86415857Y-115169819D02*
X86415857Y-114169819D01*
X86892048Y-115169819D02*
X86892048Y-114169819D01*
X86892048Y-114169819D02*
X87130143Y-114169819D01*
X87130143Y-114169819D02*
X87273000Y-114217438D01*
X87273000Y-114217438D02*
X87368238Y-114312676D01*
X87368238Y-114312676D02*
X87415857Y-114407914D01*
X87415857Y-114407914D02*
X87463476Y-114598390D01*
X87463476Y-114598390D02*
X87463476Y-114741247D01*
X87463476Y-114741247D02*
X87415857Y-114931723D01*
X87415857Y-114931723D02*
X87368238Y-115026961D01*
X87368238Y-115026961D02*
X87273000Y-115122200D01*
X87273000Y-115122200D02*
X87130143Y-115169819D01*
X87130143Y-115169819D02*
X86892048Y-115169819D01*
X87653953Y-115265057D02*
X88415857Y-115265057D01*
X89225381Y-115074580D02*
X89177762Y-115122200D01*
X89177762Y-115122200D02*
X89034905Y-115169819D01*
X89034905Y-115169819D02*
X88939667Y-115169819D01*
X88939667Y-115169819D02*
X88796810Y-115122200D01*
X88796810Y-115122200D02*
X88701572Y-115026961D01*
X88701572Y-115026961D02*
X88653953Y-114931723D01*
X88653953Y-114931723D02*
X88606334Y-114741247D01*
X88606334Y-114741247D02*
X88606334Y-114598390D01*
X88606334Y-114598390D02*
X88653953Y-114407914D01*
X88653953Y-114407914D02*
X88701572Y-114312676D01*
X88701572Y-114312676D02*
X88796810Y-114217438D01*
X88796810Y-114217438D02*
X88939667Y-114169819D01*
X88939667Y-114169819D02*
X89034905Y-114169819D01*
X89034905Y-114169819D02*
X89177762Y-114217438D01*
X89177762Y-114217438D02*
X89225381Y-114265057D01*
X89653953Y-115169819D02*
X89653953Y-114169819D01*
X89653953Y-114646009D02*
X90225381Y-114646009D01*
X90225381Y-115169819D02*
X90225381Y-114169819D01*
X90653953Y-114884104D02*
X91130143Y-114884104D01*
X90558715Y-115169819D02*
X90892048Y-114169819D01*
X90892048Y-114169819D02*
X91225381Y-115169819D01*
X91558715Y-115169819D02*
X91558715Y-114169819D01*
X92034905Y-115169819D02*
X92034905Y-114169819D01*
X92034905Y-114169819D02*
X92606333Y-115169819D01*
X92606333Y-115169819D02*
X92606333Y-114169819D01*
D11*
X115775618Y-100396318D02*
X115775618Y-99126318D01*
X115775618Y-99126318D02*
X116077999Y-99126318D01*
X116077999Y-99126318D02*
X116259428Y-99186794D01*
X116259428Y-99186794D02*
X116380380Y-99307746D01*
X116380380Y-99307746D02*
X116440857Y-99428699D01*
X116440857Y-99428699D02*
X116501333Y-99670603D01*
X116501333Y-99670603D02*
X116501333Y-99852032D01*
X116501333Y-99852032D02*
X116440857Y-100093937D01*
X116440857Y-100093937D02*
X116380380Y-100214889D01*
X116380380Y-100214889D02*
X116259428Y-100335842D01*
X116259428Y-100335842D02*
X116077999Y-100396318D01*
X116077999Y-100396318D02*
X115775618Y-100396318D01*
X117710857Y-100396318D02*
X116985142Y-100396318D01*
X117347999Y-100396318D02*
X117347999Y-99126318D01*
X117347999Y-99126318D02*
X117227047Y-99307746D01*
X117227047Y-99307746D02*
X117106095Y-99428699D01*
X117106095Y-99428699D02*
X116985142Y-99489175D01*
X96223318Y-97484332D02*
X97130461Y-97484332D01*
X97130461Y-97484332D02*
X97311889Y-97544809D01*
X97311889Y-97544809D02*
X97432842Y-97665761D01*
X97432842Y-97665761D02*
X97493318Y-97847190D01*
X97493318Y-97847190D02*
X97493318Y-97968142D01*
X96344270Y-96940047D02*
X96283794Y-96879571D01*
X96283794Y-96879571D02*
X96223318Y-96758618D01*
X96223318Y-96758618D02*
X96223318Y-96456237D01*
X96223318Y-96456237D02*
X96283794Y-96335285D01*
X96283794Y-96335285D02*
X96344270Y-96274809D01*
X96344270Y-96274809D02*
X96465222Y-96214332D01*
X96465222Y-96214332D02*
X96586175Y-96214332D01*
X96586175Y-96214332D02*
X96767603Y-96274809D01*
X96767603Y-96274809D02*
X97493318Y-97000523D01*
X97493318Y-97000523D02*
X97493318Y-96214332D01*
D10*
X108291333Y-100310819D02*
X107958000Y-99834628D01*
X107719905Y-100310819D02*
X107719905Y-99310819D01*
X107719905Y-99310819D02*
X108100857Y-99310819D01*
X108100857Y-99310819D02*
X108196095Y-99358438D01*
X108196095Y-99358438D02*
X108243714Y-99406057D01*
X108243714Y-99406057D02*
X108291333Y-99501295D01*
X108291333Y-99501295D02*
X108291333Y-99644152D01*
X108291333Y-99644152D02*
X108243714Y-99739390D01*
X108243714Y-99739390D02*
X108196095Y-99787009D01*
X108196095Y-99787009D02*
X108100857Y-99834628D01*
X108100857Y-99834628D02*
X107719905Y-99834628D01*
X109148476Y-99644152D02*
X109148476Y-100310819D01*
X108910381Y-99263200D02*
X108672286Y-99977485D01*
X108672286Y-99977485D02*
X109291333Y-99977485D01*
D11*
X110115047Y-90611270D02*
X109994095Y-90550794D01*
X109994095Y-90550794D02*
X109873142Y-90429842D01*
X109873142Y-90429842D02*
X109691714Y-90248413D01*
X109691714Y-90248413D02*
X109570761Y-90187937D01*
X109570761Y-90187937D02*
X109449809Y-90187937D01*
X109510285Y-90490318D02*
X109389333Y-90429842D01*
X109389333Y-90429842D02*
X109268380Y-90308889D01*
X109268380Y-90308889D02*
X109207904Y-90066984D01*
X109207904Y-90066984D02*
X109207904Y-89643651D01*
X109207904Y-89643651D02*
X109268380Y-89401746D01*
X109268380Y-89401746D02*
X109389333Y-89280794D01*
X109389333Y-89280794D02*
X109510285Y-89220318D01*
X109510285Y-89220318D02*
X109752190Y-89220318D01*
X109752190Y-89220318D02*
X109873142Y-89280794D01*
X109873142Y-89280794D02*
X109994095Y-89401746D01*
X109994095Y-89401746D02*
X110054571Y-89643651D01*
X110054571Y-89643651D02*
X110054571Y-90066984D01*
X110054571Y-90066984D02*
X109994095Y-90308889D01*
X109994095Y-90308889D02*
X109873142Y-90429842D01*
X109873142Y-90429842D02*
X109752190Y-90490318D01*
X109752190Y-90490318D02*
X109510285Y-90490318D01*
X111264095Y-90490318D02*
X110538380Y-90490318D01*
X110901237Y-90490318D02*
X110901237Y-89220318D01*
X110901237Y-89220318D02*
X110780285Y-89401746D01*
X110780285Y-89401746D02*
X110659333Y-89522699D01*
X110659333Y-89522699D02*
X110538380Y-89583175D01*
D10*
X106195905Y-85510819D02*
X106195905Y-84510819D01*
X106195905Y-84510819D02*
X106434000Y-84510819D01*
X106434000Y-84510819D02*
X106576857Y-84558438D01*
X106576857Y-84558438D02*
X106672095Y-84653676D01*
X106672095Y-84653676D02*
X106719714Y-84748914D01*
X106719714Y-84748914D02*
X106767333Y-84939390D01*
X106767333Y-84939390D02*
X106767333Y-85082247D01*
X106767333Y-85082247D02*
X106719714Y-85272723D01*
X106719714Y-85272723D02*
X106672095Y-85367961D01*
X106672095Y-85367961D02*
X106576857Y-85463200D01*
X106576857Y-85463200D02*
X106434000Y-85510819D01*
X106434000Y-85510819D02*
X106195905Y-85510819D01*
X107624476Y-84510819D02*
X107434000Y-84510819D01*
X107434000Y-84510819D02*
X107338762Y-84558438D01*
X107338762Y-84558438D02*
X107291143Y-84606057D01*
X107291143Y-84606057D02*
X107195905Y-84748914D01*
X107195905Y-84748914D02*
X107148286Y-84939390D01*
X107148286Y-84939390D02*
X107148286Y-85320342D01*
X107148286Y-85320342D02*
X107195905Y-85415580D01*
X107195905Y-85415580D02*
X107243524Y-85463200D01*
X107243524Y-85463200D02*
X107338762Y-85510819D01*
X107338762Y-85510819D02*
X107529238Y-85510819D01*
X107529238Y-85510819D02*
X107624476Y-85463200D01*
X107624476Y-85463200D02*
X107672095Y-85415580D01*
X107672095Y-85415580D02*
X107719714Y-85320342D01*
X107719714Y-85320342D02*
X107719714Y-85082247D01*
X107719714Y-85082247D02*
X107672095Y-84987009D01*
X107672095Y-84987009D02*
X107624476Y-84939390D01*
X107624476Y-84939390D02*
X107529238Y-84891771D01*
X107529238Y-84891771D02*
X107338762Y-84891771D01*
X107338762Y-84891771D02*
X107243524Y-84939390D01*
X107243524Y-84939390D02*
X107195905Y-84987009D01*
X107195905Y-84987009D02*
X107148286Y-85082247D01*
X105862572Y-87610819D02*
X105862572Y-86610819D01*
X106338762Y-87610819D02*
X106338762Y-86610819D01*
X106338762Y-86610819D02*
X106672095Y-87325104D01*
X106672095Y-87325104D02*
X107005428Y-86610819D01*
X107005428Y-86610819D02*
X107005428Y-87610819D01*
X107481619Y-87610819D02*
X107481619Y-86610819D01*
X107481619Y-86610819D02*
X107719714Y-86610819D01*
X107719714Y-86610819D02*
X107862571Y-86658438D01*
X107862571Y-86658438D02*
X107957809Y-86753676D01*
X107957809Y-86753676D02*
X108005428Y-86848914D01*
X108005428Y-86848914D02*
X108053047Y-87039390D01*
X108053047Y-87039390D02*
X108053047Y-87182247D01*
X108053047Y-87182247D02*
X108005428Y-87372723D01*
X108005428Y-87372723D02*
X107957809Y-87467961D01*
X107957809Y-87467961D02*
X107862571Y-87563200D01*
X107862571Y-87563200D02*
X107719714Y-87610819D01*
X107719714Y-87610819D02*
X107481619Y-87610819D01*
D11*
X98849618Y-76343318D02*
X98849618Y-75073318D01*
X99575333Y-76343318D02*
X99031047Y-75617603D01*
X99575333Y-75073318D02*
X98849618Y-75799032D01*
X100784857Y-76343318D02*
X100059142Y-76343318D01*
X100421999Y-76343318D02*
X100421999Y-75073318D01*
X100421999Y-75073318D02*
X100301047Y-75254746D01*
X100301047Y-75254746D02*
X100180095Y-75375699D01*
X100180095Y-75375699D02*
X100059142Y-75436175D01*
X109968618Y-108955318D02*
X109968618Y-107685318D01*
X110694333Y-108955318D02*
X110150047Y-108229603D01*
X110694333Y-107685318D02*
X109968618Y-108411032D01*
X111117666Y-107685318D02*
X111903857Y-107685318D01*
X111903857Y-107685318D02*
X111480523Y-108169127D01*
X111480523Y-108169127D02*
X111661952Y-108169127D01*
X111661952Y-108169127D02*
X111782904Y-108229603D01*
X111782904Y-108229603D02*
X111843380Y-108290080D01*
X111843380Y-108290080D02*
X111903857Y-108411032D01*
X111903857Y-108411032D02*
X111903857Y-108713413D01*
X111903857Y-108713413D02*
X111843380Y-108834365D01*
X111843380Y-108834365D02*
X111782904Y-108894842D01*
X111782904Y-108894842D02*
X111661952Y-108955318D01*
X111661952Y-108955318D02*
X111299095Y-108955318D01*
X111299095Y-108955318D02*
X111178142Y-108894842D01*
X111178142Y-108894842D02*
X111117666Y-108834365D01*
X114014618Y-87808318D02*
X114014618Y-86538318D01*
X114014618Y-86538318D02*
X114316999Y-86538318D01*
X114316999Y-86538318D02*
X114498428Y-86598794D01*
X114498428Y-86598794D02*
X114619380Y-86719746D01*
X114619380Y-86719746D02*
X114679857Y-86840699D01*
X114679857Y-86840699D02*
X114740333Y-87082603D01*
X114740333Y-87082603D02*
X114740333Y-87264032D01*
X114740333Y-87264032D02*
X114679857Y-87505937D01*
X114679857Y-87505937D02*
X114619380Y-87626889D01*
X114619380Y-87626889D02*
X114498428Y-87747842D01*
X114498428Y-87747842D02*
X114316999Y-87808318D01*
X114316999Y-87808318D02*
X114014618Y-87808318D01*
X115163666Y-86538318D02*
X115949857Y-86538318D01*
X115949857Y-86538318D02*
X115526523Y-87022127D01*
X115526523Y-87022127D02*
X115707952Y-87022127D01*
X115707952Y-87022127D02*
X115828904Y-87082603D01*
X115828904Y-87082603D02*
X115889380Y-87143080D01*
X115889380Y-87143080D02*
X115949857Y-87264032D01*
X115949857Y-87264032D02*
X115949857Y-87566413D01*
X115949857Y-87566413D02*
X115889380Y-87687365D01*
X115889380Y-87687365D02*
X115828904Y-87747842D01*
X115828904Y-87747842D02*
X115707952Y-87808318D01*
X115707952Y-87808318D02*
X115345095Y-87808318D01*
X115345095Y-87808318D02*
X115224142Y-87747842D01*
X115224142Y-87747842D02*
X115163666Y-87687365D01*
X98050047Y-90103270D02*
X97929095Y-90042794D01*
X97929095Y-90042794D02*
X97808142Y-89921842D01*
X97808142Y-89921842D02*
X97626714Y-89740413D01*
X97626714Y-89740413D02*
X97505761Y-89679937D01*
X97505761Y-89679937D02*
X97384809Y-89679937D01*
X97445285Y-89982318D02*
X97324333Y-89921842D01*
X97324333Y-89921842D02*
X97203380Y-89800889D01*
X97203380Y-89800889D02*
X97142904Y-89558984D01*
X97142904Y-89558984D02*
X97142904Y-89135651D01*
X97142904Y-89135651D02*
X97203380Y-88893746D01*
X97203380Y-88893746D02*
X97324333Y-88772794D01*
X97324333Y-88772794D02*
X97445285Y-88712318D01*
X97445285Y-88712318D02*
X97687190Y-88712318D01*
X97687190Y-88712318D02*
X97808142Y-88772794D01*
X97808142Y-88772794D02*
X97929095Y-88893746D01*
X97929095Y-88893746D02*
X97989571Y-89135651D01*
X97989571Y-89135651D02*
X97989571Y-89558984D01*
X97989571Y-89558984D02*
X97929095Y-89800889D01*
X97929095Y-89800889D02*
X97808142Y-89921842D01*
X97808142Y-89921842D02*
X97687190Y-89982318D01*
X97687190Y-89982318D02*
X97445285Y-89982318D01*
X98412904Y-88712318D02*
X99199095Y-88712318D01*
X99199095Y-88712318D02*
X98775761Y-89196127D01*
X98775761Y-89196127D02*
X98957190Y-89196127D01*
X98957190Y-89196127D02*
X99078142Y-89256603D01*
X99078142Y-89256603D02*
X99138618Y-89317080D01*
X99138618Y-89317080D02*
X99199095Y-89438032D01*
X99199095Y-89438032D02*
X99199095Y-89740413D01*
X99199095Y-89740413D02*
X99138618Y-89861365D01*
X99138618Y-89861365D02*
X99078142Y-89921842D01*
X99078142Y-89921842D02*
X98957190Y-89982318D01*
X98957190Y-89982318D02*
X98594333Y-89982318D01*
X98594333Y-89982318D02*
X98473380Y-89921842D01*
X98473380Y-89921842D02*
X98412904Y-89861365D01*
D10*
X111402905Y-100183819D02*
X111402905Y-99183819D01*
X111402905Y-99183819D02*
X111641000Y-99183819D01*
X111641000Y-99183819D02*
X111783857Y-99231438D01*
X111783857Y-99231438D02*
X111879095Y-99326676D01*
X111879095Y-99326676D02*
X111926714Y-99421914D01*
X111926714Y-99421914D02*
X111974333Y-99612390D01*
X111974333Y-99612390D02*
X111974333Y-99755247D01*
X111974333Y-99755247D02*
X111926714Y-99945723D01*
X111926714Y-99945723D02*
X111879095Y-100040961D01*
X111879095Y-100040961D02*
X111783857Y-100136200D01*
X111783857Y-100136200D02*
X111641000Y-100183819D01*
X111641000Y-100183819D02*
X111402905Y-100183819D01*
X112879095Y-99183819D02*
X112402905Y-99183819D01*
X112402905Y-99183819D02*
X112355286Y-99660009D01*
X112355286Y-99660009D02*
X112402905Y-99612390D01*
X112402905Y-99612390D02*
X112498143Y-99564771D01*
X112498143Y-99564771D02*
X112736238Y-99564771D01*
X112736238Y-99564771D02*
X112831476Y-99612390D01*
X112831476Y-99612390D02*
X112879095Y-99660009D01*
X112879095Y-99660009D02*
X112926714Y-99755247D01*
X112926714Y-99755247D02*
X112926714Y-99993342D01*
X112926714Y-99993342D02*
X112879095Y-100088580D01*
X112879095Y-100088580D02*
X112831476Y-100136200D01*
X112831476Y-100136200D02*
X112736238Y-100183819D01*
X112736238Y-100183819D02*
X112498143Y-100183819D01*
X112498143Y-100183819D02*
X112402905Y-100136200D01*
X112402905Y-100136200D02*
X112355286Y-100088580D01*
X111164809Y-97560009D02*
X111307666Y-97607628D01*
X111307666Y-97607628D02*
X111355285Y-97655247D01*
X111355285Y-97655247D02*
X111402904Y-97750485D01*
X111402904Y-97750485D02*
X111402904Y-97893342D01*
X111402904Y-97893342D02*
X111355285Y-97988580D01*
X111355285Y-97988580D02*
X111307666Y-98036200D01*
X111307666Y-98036200D02*
X111212428Y-98083819D01*
X111212428Y-98083819D02*
X110831476Y-98083819D01*
X110831476Y-98083819D02*
X110831476Y-97083819D01*
X110831476Y-97083819D02*
X111164809Y-97083819D01*
X111164809Y-97083819D02*
X111260047Y-97131438D01*
X111260047Y-97131438D02*
X111307666Y-97179057D01*
X111307666Y-97179057D02*
X111355285Y-97274295D01*
X111355285Y-97274295D02*
X111355285Y-97369533D01*
X111355285Y-97369533D02*
X111307666Y-97464771D01*
X111307666Y-97464771D02*
X111260047Y-97512390D01*
X111260047Y-97512390D02*
X111164809Y-97560009D01*
X111164809Y-97560009D02*
X110831476Y-97560009D01*
X111831476Y-98083819D02*
X111831476Y-97083819D01*
X111831476Y-97083819D02*
X112164809Y-97798104D01*
X112164809Y-97798104D02*
X112498142Y-97083819D01*
X112498142Y-97083819D02*
X112498142Y-98083819D01*
X112926714Y-98036200D02*
X113069571Y-98083819D01*
X113069571Y-98083819D02*
X113307666Y-98083819D01*
X113307666Y-98083819D02*
X113402904Y-98036200D01*
X113402904Y-98036200D02*
X113450523Y-97988580D01*
X113450523Y-97988580D02*
X113498142Y-97893342D01*
X113498142Y-97893342D02*
X113498142Y-97798104D01*
X113498142Y-97798104D02*
X113450523Y-97702866D01*
X113450523Y-97702866D02*
X113402904Y-97655247D01*
X113402904Y-97655247D02*
X113307666Y-97607628D01*
X113307666Y-97607628D02*
X113117190Y-97560009D01*
X113117190Y-97560009D02*
X113021952Y-97512390D01*
X113021952Y-97512390D02*
X112974333Y-97464771D01*
X112974333Y-97464771D02*
X112926714Y-97369533D01*
X112926714Y-97369533D02*
X112926714Y-97274295D01*
X112926714Y-97274295D02*
X112974333Y-97179057D01*
X112974333Y-97179057D02*
X113021952Y-97131438D01*
X113021952Y-97131438D02*
X113117190Y-97083819D01*
X113117190Y-97083819D02*
X113355285Y-97083819D01*
X113355285Y-97083819D02*
X113498142Y-97131438D01*
X92452333Y-113645819D02*
X92119000Y-113169628D01*
X91880905Y-113645819D02*
X91880905Y-112645819D01*
X91880905Y-112645819D02*
X92261857Y-112645819D01*
X92261857Y-112645819D02*
X92357095Y-112693438D01*
X92357095Y-112693438D02*
X92404714Y-112741057D01*
X92404714Y-112741057D02*
X92452333Y-112836295D01*
X92452333Y-112836295D02*
X92452333Y-112979152D01*
X92452333Y-112979152D02*
X92404714Y-113074390D01*
X92404714Y-113074390D02*
X92357095Y-113122009D01*
X92357095Y-113122009D02*
X92261857Y-113169628D01*
X92261857Y-113169628D02*
X91880905Y-113169628D01*
X93023762Y-113074390D02*
X92928524Y-113026771D01*
X92928524Y-113026771D02*
X92880905Y-112979152D01*
X92880905Y-112979152D02*
X92833286Y-112883914D01*
X92833286Y-112883914D02*
X92833286Y-112836295D01*
X92833286Y-112836295D02*
X92880905Y-112741057D01*
X92880905Y-112741057D02*
X92928524Y-112693438D01*
X92928524Y-112693438D02*
X93023762Y-112645819D01*
X93023762Y-112645819D02*
X93214238Y-112645819D01*
X93214238Y-112645819D02*
X93309476Y-112693438D01*
X93309476Y-112693438D02*
X93357095Y-112741057D01*
X93357095Y-112741057D02*
X93404714Y-112836295D01*
X93404714Y-112836295D02*
X93404714Y-112883914D01*
X93404714Y-112883914D02*
X93357095Y-112979152D01*
X93357095Y-112979152D02*
X93309476Y-113026771D01*
X93309476Y-113026771D02*
X93214238Y-113074390D01*
X93214238Y-113074390D02*
X93023762Y-113074390D01*
X93023762Y-113074390D02*
X92928524Y-113122009D01*
X92928524Y-113122009D02*
X92880905Y-113169628D01*
X92880905Y-113169628D02*
X92833286Y-113264866D01*
X92833286Y-113264866D02*
X92833286Y-113455342D01*
X92833286Y-113455342D02*
X92880905Y-113550580D01*
X92880905Y-113550580D02*
X92928524Y-113598200D01*
X92928524Y-113598200D02*
X93023762Y-113645819D01*
X93023762Y-113645819D02*
X93214238Y-113645819D01*
X93214238Y-113645819D02*
X93309476Y-113598200D01*
X93309476Y-113598200D02*
X93357095Y-113550580D01*
X93357095Y-113550580D02*
X93404714Y-113455342D01*
X93404714Y-113455342D02*
X93404714Y-113264866D01*
X93404714Y-113264866D02*
X93357095Y-113169628D01*
X93357095Y-113169628D02*
X93309476Y-113122009D01*
X93309476Y-113122009D02*
X93214238Y-113074390D01*
X110740333Y-85129819D02*
X110407000Y-84653628D01*
X110168905Y-85129819D02*
X110168905Y-84129819D01*
X110168905Y-84129819D02*
X110549857Y-84129819D01*
X110549857Y-84129819D02*
X110645095Y-84177438D01*
X110645095Y-84177438D02*
X110692714Y-84225057D01*
X110692714Y-84225057D02*
X110740333Y-84320295D01*
X110740333Y-84320295D02*
X110740333Y-84463152D01*
X110740333Y-84463152D02*
X110692714Y-84558390D01*
X110692714Y-84558390D02*
X110645095Y-84606009D01*
X110645095Y-84606009D02*
X110549857Y-84653628D01*
X110549857Y-84653628D02*
X110168905Y-84653628D01*
X111597476Y-84129819D02*
X111407000Y-84129819D01*
X111407000Y-84129819D02*
X111311762Y-84177438D01*
X111311762Y-84177438D02*
X111264143Y-84225057D01*
X111264143Y-84225057D02*
X111168905Y-84367914D01*
X111168905Y-84367914D02*
X111121286Y-84558390D01*
X111121286Y-84558390D02*
X111121286Y-84939342D01*
X111121286Y-84939342D02*
X111168905Y-85034580D01*
X111168905Y-85034580D02*
X111216524Y-85082200D01*
X111216524Y-85082200D02*
X111311762Y-85129819D01*
X111311762Y-85129819D02*
X111502238Y-85129819D01*
X111502238Y-85129819D02*
X111597476Y-85082200D01*
X111597476Y-85082200D02*
X111645095Y-85034580D01*
X111645095Y-85034580D02*
X111692714Y-84939342D01*
X111692714Y-84939342D02*
X111692714Y-84701247D01*
X111692714Y-84701247D02*
X111645095Y-84606009D01*
X111645095Y-84606009D02*
X111597476Y-84558390D01*
X111597476Y-84558390D02*
X111502238Y-84510771D01*
X111502238Y-84510771D02*
X111311762Y-84510771D01*
X111311762Y-84510771D02*
X111216524Y-84558390D01*
X111216524Y-84558390D02*
X111168905Y-84606009D01*
X111168905Y-84606009D02*
X111121286Y-84701247D01*
D12*
%TO.C,D8*%
X87963000Y-113665000D02*
G75*
G02*
X87863000Y-113665000I-50000J0D01*
G01*
X87863000Y-113665000D02*
G75*
G02*
X87963000Y-113665000I50000J0D01*
G01*
D13*
%TO.C,D1*%
X117313000Y-97898000D02*
X116113000Y-97898000D01*
X117783000Y-98698000D02*
X116113000Y-98698000D01*
%TO.C,J2*%
X95628180Y-93039000D02*
G75*
G02*
X95353820Y-93039000I-137180J0D01*
G01*
X95353820Y-93039000D02*
G75*
G02*
X95628180Y-93039000I137180J0D01*
G01*
%TO.C,Q1*%
X110076000Y-92695000D02*
X110076000Y-93545000D01*
D12*
X110556000Y-95345000D02*
X110556000Y-95345000D01*
X110556000Y-95445000D02*
X110556000Y-95445000D01*
D13*
X110706000Y-92695000D02*
X110076000Y-92695000D01*
X112306000Y-92695000D02*
X112936000Y-92695000D01*
X112936000Y-92695000D02*
X112936000Y-93545000D01*
D12*
X110556000Y-95345000D02*
G75*
G02*
X110556000Y-95445000I0J-50000D01*
G01*
X110556000Y-95445000D02*
G75*
G02*
X110556000Y-95345000I0J50000D01*
G01*
%TO.C,D6*%
X106124000Y-86106000D02*
G75*
G02*
X106024000Y-86106000I-50000J0D01*
G01*
X106024000Y-86106000D02*
G75*
G02*
X106124000Y-86106000I50000J0D01*
G01*
%TO.C,K1*%
X84687000Y-79569000D02*
X84687000Y-79569000D01*
X84787000Y-79569000D02*
X84787000Y-79569000D01*
D13*
X85287000Y-69469000D02*
X114287000Y-69469000D01*
X85287000Y-82069000D02*
X85287000Y-69469000D01*
X114287000Y-69469000D02*
X114287000Y-82069000D01*
X114287000Y-82069000D02*
X85287000Y-82069000D01*
D12*
X84687000Y-79569000D02*
G75*
G02*
X84787000Y-79569000I50000J0D01*
G01*
X84787000Y-79569000D02*
G75*
G02*
X84687000Y-79569000I-50000J0D01*
G01*
D13*
%TO.C,K3*%
X96406000Y-102081000D02*
X125406000Y-102081000D01*
X96406000Y-114681000D02*
X96406000Y-102081000D01*
X125406000Y-102081000D02*
X125406000Y-114681000D01*
X125406000Y-114681000D02*
X96406000Y-114681000D01*
D12*
X125906000Y-104581000D02*
X125906000Y-104581000D01*
X126006000Y-104581000D02*
X126006000Y-104581000D01*
X125906000Y-104581000D02*
G75*
G02*
X126006000Y-104581000I50000J0D01*
G01*
X126006000Y-104581000D02*
G75*
G02*
X125906000Y-104581000I-50000J0D01*
G01*
D13*
%TO.C,D3*%
X115547000Y-85325000D02*
X114347000Y-85325000D01*
X116017000Y-86125000D02*
X114347000Y-86125000D01*
D12*
%TO.C,Q3*%
X97214500Y-91831000D02*
X97214500Y-91831000D01*
X97314500Y-91831000D02*
X97314500Y-91831000D01*
D13*
X99964500Y-91351000D02*
X99114500Y-91351000D01*
X99964500Y-91981000D02*
X99964500Y-91351000D01*
X99964500Y-93581000D02*
X99964500Y-94211000D01*
X99964500Y-94211000D02*
X99114500Y-94211000D01*
D12*
X97214500Y-91831000D02*
G75*
G02*
X97314500Y-91831000I50000J0D01*
G01*
X97314500Y-91831000D02*
G75*
G02*
X97214500Y-91831000I-50000J0D01*
G01*
%TO.C,D5*%
X113051000Y-98679000D02*
G75*
G02*
X112951000Y-98679000I-50000J0D01*
G01*
X112951000Y-98679000D02*
G75*
G02*
X113051000Y-98679000I50000J0D01*
G01*
%TD*%
M02*
