M48
; DRILL file {KiCad 9.0.8} date 2026-03-28T18:00:23-0700
; FORMAT={-:-/ absolute / metric / decimal}
; #@! TF.CreationDate,2026-03-28T18:00:23-07:00
; #@! TF.GenerationSoftware,Kicad,Pcbnew,9.0.8
; #@! TF.FileFunction,Plated,1,2,PTH
FMAT,2
METRIC
; #@! TA.AperFunction,Plated,PTH,ViaDrill
T1C0.300
; #@! TA.AperFunction,Plated,PTH,ComponentDrill
T2C1.300
; #@! TA.AperFunction,Plated,PTH,ComponentDrill
T3C1.850
%
G90
G05
T1
X102.108Y-98.044
T2
X87.087Y-71.969
X87.087Y-79.569
X98.206Y-104.581
X98.206Y-112.181
X103.286Y-104.581
X103.286Y-112.181
X107.407Y-71.969
X107.407Y-79.569
X112.487Y-71.969
X112.487Y-79.569
X123.606Y-104.581
X123.606Y-112.181
T3
X85.019Y-93.061
X85.019Y-97.061
X85.019Y-101.061
X89.019Y-95.061
X89.019Y-99.061
X93.019Y-93.061
X93.019Y-97.061
X93.019Y-101.061
M30
