%TF.GenerationSoftware,KiCad,Pcbnew,9.0.6*%
%TF.CreationDate,2026-04-01T12:29:40-07:00*%
%TF.ProjectId,IMD Indicator,494d4420-496e-4646-9963-61746f722e6b,rev?*%
%TF.SameCoordinates,Original*%
%TF.FileFunction,Copper,L2,Bot*%
%TF.FilePolarity,Positive*%
%FSLAX46Y46*%
G04 Gerber Fmt 4.6, Leading zero omitted, Abs format (unit mm)*
G04 Created by KiCad (PCBNEW 9.0.6) date 2026-04-01 12:29:40*
%MOMM*%
%LPD*%
G01*
G04 APERTURE LIST*
%TA.AperFunction,ComponentPad*%
%ADD10C,1.800000*%
%TD*%
%TA.AperFunction,ComponentPad*%
%ADD11C,2.300000*%
%TD*%
%TA.AperFunction,ComponentPad*%
%ADD12R,2.300000X2.300000*%
%TD*%
%TA.AperFunction,ViaPad*%
%ADD13C,0.600000*%
%TD*%
%TA.AperFunction,Conductor*%
%ADD14C,0.500000*%
%TD*%
%TA.AperFunction,Conductor*%
%ADD15C,0.250000*%
%TD*%
G04 APERTURE END LIST*
D10*
%TO.P,LED1,2,A*%
%TO.N,Net-(LED1-A)*%
X177460000Y-57500000D03*
%TO.P,LED1,1,K*%
%TO.N,IMD KILL SIGNAL*%
X180000000Y-57500000D03*
%TD*%
D11*
%TO.P,J1,4,4*%
%TO.N,IMD KILL SIGNAL*%
X187100000Y-51800000D03*
%TO.P,J1,3,3*%
%TO.N,GND*%
X182900000Y-51800000D03*
%TO.P,J1,2,2*%
%TO.N,/12V MASTER*%
X187100000Y-46300000D03*
D12*
%TO.P,J1,1,1*%
%TO.N,/12V IGNITION*%
X182900000Y-46300000D03*
%TD*%
D11*
%TO.P,J2,4,4*%
%TO.N,/IMD_LOGIC_SIGNAL*%
X173800000Y-51800000D03*
%TO.P,J2,3,3*%
%TO.N,GND*%
X169600000Y-51800000D03*
%TO.P,J2,2,2*%
%TO.N,/12V IGNITION*%
X173800000Y-46300000D03*
D12*
%TO.P,J2,1,1*%
%TO.N,/12V MASTER*%
X169600000Y-46300000D03*
%TD*%
D11*
%TO.P,J3,4,4*%
%TO.N,/12V IGNITION*%
X160783000Y-51800000D03*
%TO.P,J3,3,3*%
X156583000Y-51800000D03*
%TO.P,J3,2,2*%
%TO.N,/12V MASTER*%
X160783000Y-46300000D03*
D12*
%TO.P,J3,1,1*%
X156583000Y-46300000D03*
%TD*%
D13*
%TO.N,/12V IGNITION*%
X167500000Y-55000000D03*
%TO.N,Net-(D5-A)*%
X169650000Y-66000000D03*
X166275000Y-64000000D03*
%TO.N,GND*%
X174150000Y-61000000D03*
%TO.N,Net-(D6-A)*%
X165150000Y-61500000D03*
X165650000Y-68500000D03*
%TD*%
D14*
%TO.N,/12V IGNITION*%
X160783000Y-51800000D02*
X163983000Y-55000000D01*
X171000000Y-43500000D02*
X173800000Y-46300000D01*
X156583000Y-51800000D02*
X160783000Y-51800000D01*
X182900000Y-46300000D02*
X173800000Y-46300000D01*
X165100000Y-45500000D02*
X167100000Y-43500000D01*
X160783000Y-51800000D02*
X165100000Y-47483000D01*
X163983000Y-55000000D02*
X167500000Y-55000000D01*
X165100000Y-47483000D02*
X165100000Y-45500000D01*
X167100000Y-43500000D02*
X171000000Y-43500000D01*
%TO.N,/12V MASTER*%
X156683000Y-46500000D02*
X156883000Y-46300000D01*
X156583000Y-46300000D02*
X156583000Y-46400000D01*
X156583000Y-46400000D02*
X156683000Y-46500000D01*
D15*
%TO.N,Net-(D5-A)*%
X169650000Y-66000000D02*
X168150000Y-66000000D01*
X168150000Y-66000000D02*
X166150000Y-64000000D01*
X166150000Y-64000000D02*
X166275000Y-64000000D01*
D14*
%TO.N,GND*%
X171401000Y-50199000D02*
X181299000Y-50199000D01*
X169600000Y-51800000D02*
X169600000Y-52000000D01*
X174150000Y-61000000D02*
X174150000Y-56350000D01*
X169600000Y-52000000D02*
X171401000Y-50199000D01*
X181299000Y-50199000D02*
X182900000Y-51800000D01*
X174150000Y-56350000D02*
X169600000Y-51800000D01*
D15*
%TO.N,Net-(D6-A)*%
X165650000Y-62000000D02*
X165150000Y-61500000D01*
X165650000Y-68500000D02*
X165650000Y-62000000D01*
%TD*%
%TA.AperFunction,Conductor*%
%TO.N,GND*%
G36*
X191942539Y-29520185D02*
G01*
X191988294Y-29572989D01*
X191999500Y-29624500D01*
X191999500Y-72375500D01*
X191979815Y-72442539D01*
X191927011Y-72488294D01*
X191875500Y-72499500D01*
X150124500Y-72499500D01*
X150057461Y-72479815D01*
X150011706Y-72427011D01*
X150000500Y-72375500D01*
X150000500Y-64378711D01*
X152649500Y-64378711D01*
X152649500Y-64621288D01*
X152681161Y-64861785D01*
X152743947Y-65096104D01*
X152824511Y-65290602D01*
X152836776Y-65320212D01*
X152958064Y-65530289D01*
X152958066Y-65530292D01*
X152958067Y-65530293D01*
X153105733Y-65722736D01*
X153105739Y-65722743D01*
X153277256Y-65894260D01*
X153277262Y-65894265D01*
X153469711Y-66041936D01*
X153679788Y-66163224D01*
X153903900Y-66256054D01*
X154138211Y-66318838D01*
X154318586Y-66342584D01*
X154378711Y-66350500D01*
X154378712Y-66350500D01*
X154621289Y-66350500D01*
X154669388Y-66344167D01*
X154861789Y-66318838D01*
X155096100Y-66256054D01*
X155320212Y-66163224D01*
X155530289Y-66041936D01*
X155722738Y-65894265D01*
X155894265Y-65722738D01*
X156041936Y-65530289D01*
X156163224Y-65320212D01*
X156256054Y-65096100D01*
X156318838Y-64861789D01*
X156350500Y-64621288D01*
X156350500Y-64378712D01*
X156318838Y-64138211D01*
X156256054Y-63903900D01*
X156163224Y-63679788D01*
X156041936Y-63469711D01*
X155971725Y-63378210D01*
X155894266Y-63277263D01*
X155894260Y-63277256D01*
X155722743Y-63105739D01*
X155722736Y-63105733D01*
X155530293Y-62958067D01*
X155530292Y-62958066D01*
X155530289Y-62958064D01*
X155320212Y-62836776D01*
X155320205Y-62836773D01*
X155096104Y-62743947D01*
X154861785Y-62681161D01*
X154621289Y-62649500D01*
X154621288Y-62649500D01*
X154378712Y-62649500D01*
X154378711Y-62649500D01*
X154138214Y-62681161D01*
X153903895Y-62743947D01*
X153679794Y-62836773D01*
X153679785Y-62836777D01*
X153469706Y-62958067D01*
X153277263Y-63105733D01*
X153277256Y-63105739D01*
X153105739Y-63277256D01*
X153105733Y-63277263D01*
X152958067Y-63469706D01*
X152836777Y-63679785D01*
X152836773Y-63679794D01*
X152743947Y-63903895D01*
X152681161Y-64138214D01*
X152649500Y-64378711D01*
X150000500Y-64378711D01*
X150000500Y-61421153D01*
X164349500Y-61421153D01*
X164349500Y-61578846D01*
X164380261Y-61733489D01*
X164380264Y-61733501D01*
X164440602Y-61879172D01*
X164440609Y-61879185D01*
X164528210Y-62010288D01*
X164528213Y-62010292D01*
X164639707Y-62121786D01*
X164639711Y-62121789D01*
X164770814Y-62209390D01*
X164770827Y-62209397D01*
X164880082Y-62254651D01*
X164916503Y-62269737D01*
X164924691Y-62271365D01*
X164986601Y-62303750D01*
X165021176Y-62364465D01*
X165024500Y-62392983D01*
X165024500Y-67957650D01*
X165004815Y-68024689D01*
X165003602Y-68026541D01*
X164940609Y-68120815D01*
X164940602Y-68120828D01*
X164880264Y-68266498D01*
X164880261Y-68266510D01*
X164849500Y-68421153D01*
X164849500Y-68578846D01*
X164880261Y-68733489D01*
X164880264Y-68733501D01*
X164940602Y-68879172D01*
X164940609Y-68879185D01*
X165028210Y-69010288D01*
X165028213Y-69010292D01*
X165139707Y-69121786D01*
X165139711Y-69121789D01*
X165270814Y-69209390D01*
X165270827Y-69209397D01*
X165416498Y-69269735D01*
X165416503Y-69269737D01*
X165571153Y-69300499D01*
X165571156Y-69300500D01*
X165571158Y-69300500D01*
X165728844Y-69300500D01*
X165728845Y-69300499D01*
X165883497Y-69269737D01*
X166029179Y-69209394D01*
X166160289Y-69121789D01*
X166271789Y-69010289D01*
X166359394Y-68879179D01*
X166419737Y-68733497D01*
X166450500Y-68578842D01*
X166450500Y-68421158D01*
X166450500Y-68421155D01*
X166450499Y-68421153D01*
X166419738Y-68266510D01*
X166419737Y-68266503D01*
X166359394Y-68120821D01*
X166296397Y-68026539D01*
X166275520Y-67959863D01*
X166275500Y-67957650D01*
X166275500Y-65309452D01*
X166295185Y-65242413D01*
X166347989Y-65196658D01*
X166417147Y-65186714D01*
X166480703Y-65215739D01*
X166487181Y-65221771D01*
X167664139Y-66398729D01*
X167664142Y-66398733D01*
X167751267Y-66485858D01*
X167787831Y-66510289D01*
X167853714Y-66554312D01*
X167853719Y-66554314D01*
X167927390Y-66584829D01*
X167927394Y-66584830D01*
X167934207Y-66587652D01*
X167967548Y-66601463D01*
X168027971Y-66613481D01*
X168088393Y-66625500D01*
X168088394Y-66625500D01*
X169107650Y-66625500D01*
X169174689Y-66645185D01*
X169176541Y-66646398D01*
X169270821Y-66709394D01*
X169270823Y-66709395D01*
X169270827Y-66709397D01*
X169416498Y-66769735D01*
X169416503Y-66769737D01*
X169571153Y-66800499D01*
X169571156Y-66800500D01*
X169571158Y-66800500D01*
X169728844Y-66800500D01*
X169728845Y-66800499D01*
X169883497Y-66769737D01*
X170029179Y-66709394D01*
X170160289Y-66621789D01*
X170271789Y-66510289D01*
X170359394Y-66379179D01*
X170419737Y-66233497D01*
X170450500Y-66078842D01*
X170450500Y-65921158D01*
X170450500Y-65921155D01*
X170450499Y-65921153D01*
X170419738Y-65766510D01*
X170419737Y-65766503D01*
X170401608Y-65722736D01*
X170359397Y-65620827D01*
X170359390Y-65620814D01*
X170271789Y-65489711D01*
X170271786Y-65489707D01*
X170160292Y-65378213D01*
X170160288Y-65378210D01*
X170029185Y-65290609D01*
X170029172Y-65290602D01*
X169883501Y-65230264D01*
X169883489Y-65230261D01*
X169728845Y-65199500D01*
X169728842Y-65199500D01*
X169571158Y-65199500D01*
X169571155Y-65199500D01*
X169416510Y-65230261D01*
X169416498Y-65230264D01*
X169270827Y-65290602D01*
X169270815Y-65290609D01*
X169176541Y-65353602D01*
X169109864Y-65374480D01*
X169107650Y-65374500D01*
X168460452Y-65374500D01*
X168393413Y-65354815D01*
X168372771Y-65338181D01*
X167413301Y-64378711D01*
X186149500Y-64378711D01*
X186149500Y-64621288D01*
X186181161Y-64861785D01*
X186243947Y-65096104D01*
X186324511Y-65290602D01*
X186336776Y-65320212D01*
X186458064Y-65530289D01*
X186458066Y-65530292D01*
X186458067Y-65530293D01*
X186605733Y-65722736D01*
X186605739Y-65722743D01*
X186777256Y-65894260D01*
X186777262Y-65894265D01*
X186969711Y-66041936D01*
X187179788Y-66163224D01*
X187403900Y-66256054D01*
X187638211Y-66318838D01*
X187818586Y-66342584D01*
X187878711Y-66350500D01*
X187878712Y-66350500D01*
X188121289Y-66350500D01*
X188169388Y-66344167D01*
X188361789Y-66318838D01*
X188596100Y-66256054D01*
X188820212Y-66163224D01*
X189030289Y-66041936D01*
X189222738Y-65894265D01*
X189394265Y-65722738D01*
X189541936Y-65530289D01*
X189663224Y-65320212D01*
X189756054Y-65096100D01*
X189818838Y-64861789D01*
X189850500Y-64621288D01*
X189850500Y-64378712D01*
X189818838Y-64138211D01*
X189756054Y-63903900D01*
X189663224Y-63679788D01*
X189541936Y-63469711D01*
X189471725Y-63378210D01*
X189394266Y-63277263D01*
X189394260Y-63277256D01*
X189222743Y-63105739D01*
X189222736Y-63105733D01*
X189030293Y-62958067D01*
X189030292Y-62958066D01*
X189030289Y-62958064D01*
X188820212Y-62836776D01*
X188820205Y-62836773D01*
X188596104Y-62743947D01*
X188361785Y-62681161D01*
X188121289Y-62649500D01*
X188121288Y-62649500D01*
X187878712Y-62649500D01*
X187878711Y-62649500D01*
X187638214Y-62681161D01*
X187403895Y-62743947D01*
X187179794Y-62836773D01*
X187179785Y-62836777D01*
X186969706Y-62958067D01*
X186777263Y-63105733D01*
X186777256Y-63105739D01*
X186605739Y-63277256D01*
X186605733Y-63277263D01*
X186458067Y-63469706D01*
X186336777Y-63679785D01*
X186336773Y-63679794D01*
X186243947Y-63903895D01*
X186181161Y-64138214D01*
X186149500Y-64378711D01*
X167413301Y-64378711D01*
X167111819Y-64077229D01*
X167078334Y-64015906D01*
X167075500Y-63989548D01*
X167075500Y-63921155D01*
X167075499Y-63921153D01*
X167044738Y-63766510D01*
X167044737Y-63766503D01*
X167044735Y-63766498D01*
X166984397Y-63620827D01*
X166984390Y-63620814D01*
X166896789Y-63489711D01*
X166896786Y-63489707D01*
X166785292Y-63378213D01*
X166785288Y-63378210D01*
X166654185Y-63290609D01*
X166654172Y-63290602D01*
X166508501Y-63230264D01*
X166508491Y-63230261D01*
X166375308Y-63203769D01*
X166313397Y-63171384D01*
X166278823Y-63110668D01*
X166275500Y-63082152D01*
X166275500Y-61938393D01*
X166275499Y-61938389D01*
X166263723Y-61879185D01*
X166251463Y-61817548D01*
X166216648Y-61733497D01*
X166204312Y-61703715D01*
X166187256Y-61678190D01*
X166135858Y-61601267D01*
X166135856Y-61601264D01*
X166045637Y-61511045D01*
X166045606Y-61511016D01*
X165975793Y-61441203D01*
X165942308Y-61379880D01*
X165941887Y-61377864D01*
X165919737Y-61266503D01*
X165895599Y-61208230D01*
X165859397Y-61120827D01*
X165859390Y-61120814D01*
X165771789Y-60989711D01*
X165771786Y-60989707D01*
X165660292Y-60878213D01*
X165660288Y-60878210D01*
X165529185Y-60790609D01*
X165529172Y-60790602D01*
X165383501Y-60730264D01*
X165383489Y-60730261D01*
X165228845Y-60699500D01*
X165228842Y-60699500D01*
X165071158Y-60699500D01*
X165071155Y-60699500D01*
X164916510Y-60730261D01*
X164916498Y-60730264D01*
X164770827Y-60790602D01*
X164770814Y-60790609D01*
X164639711Y-60878210D01*
X164639707Y-60878213D01*
X164528213Y-60989707D01*
X164528210Y-60989711D01*
X164440609Y-61120814D01*
X164440602Y-61120827D01*
X164380264Y-61266498D01*
X164380261Y-61266510D01*
X164349500Y-61421153D01*
X150000500Y-61421153D01*
X150000500Y-57389778D01*
X176059500Y-57389778D01*
X176059500Y-57610221D01*
X176093985Y-57827952D01*
X176162103Y-58037603D01*
X176162104Y-58037606D01*
X176230122Y-58171096D01*
X176257129Y-58224100D01*
X176262187Y-58234025D01*
X176391752Y-58412358D01*
X176391756Y-58412363D01*
X176547636Y-58568243D01*
X176547641Y-58568247D01*
X176703192Y-58681260D01*
X176725978Y-58697815D01*
X176854375Y-58763237D01*
X176922393Y-58797895D01*
X176922396Y-58797896D01*
X177027221Y-58831955D01*
X177132049Y-58866015D01*
X177349778Y-58900500D01*
X177349779Y-58900500D01*
X177570221Y-58900500D01*
X177570222Y-58900500D01*
X177787951Y-58866015D01*
X177997606Y-58797895D01*
X178194022Y-58697815D01*
X178372365Y-58568242D01*
X178528242Y-58412365D01*
X178538804Y-58397826D01*
X178629682Y-58272745D01*
X178685011Y-58230079D01*
X178754625Y-58224100D01*
X178816420Y-58256705D01*
X178830318Y-58272745D01*
X178931752Y-58412358D01*
X178931756Y-58412363D01*
X179087636Y-58568243D01*
X179087641Y-58568247D01*
X179243192Y-58681260D01*
X179265978Y-58697815D01*
X179394375Y-58763237D01*
X179462393Y-58797895D01*
X179462396Y-58797896D01*
X179567221Y-58831955D01*
X179672049Y-58866015D01*
X179889778Y-58900500D01*
X179889779Y-58900500D01*
X180110221Y-58900500D01*
X180110222Y-58900500D01*
X180327951Y-58866015D01*
X180537606Y-58797895D01*
X180734022Y-58697815D01*
X180912365Y-58568242D01*
X181068242Y-58412365D01*
X181197815Y-58234022D01*
X181297895Y-58037606D01*
X181366015Y-57827951D01*
X181400500Y-57610222D01*
X181400500Y-57389778D01*
X181366015Y-57172049D01*
X181297895Y-56962394D01*
X181297895Y-56962393D01*
X181263237Y-56894375D01*
X181197815Y-56765978D01*
X181169681Y-56727254D01*
X181068247Y-56587641D01*
X181068243Y-56587636D01*
X180912363Y-56431756D01*
X180912358Y-56431752D01*
X180734025Y-56302187D01*
X180734024Y-56302186D01*
X180734022Y-56302185D01*
X180671096Y-56270122D01*
X180537606Y-56202104D01*
X180537603Y-56202103D01*
X180327952Y-56133985D01*
X180219086Y-56116742D01*
X180110222Y-56099500D01*
X179889778Y-56099500D01*
X179817201Y-56110995D01*
X179672047Y-56133985D01*
X179462396Y-56202103D01*
X179462393Y-56202104D01*
X179265974Y-56302187D01*
X179087641Y-56431752D01*
X179087636Y-56431756D01*
X178931756Y-56587636D01*
X178931752Y-56587641D01*
X178830318Y-56727254D01*
X178774988Y-56769920D01*
X178705375Y-56775899D01*
X178643580Y-56743293D01*
X178629682Y-56727254D01*
X178528247Y-56587641D01*
X178528243Y-56587636D01*
X178372363Y-56431756D01*
X178372358Y-56431752D01*
X178194025Y-56302187D01*
X178194024Y-56302186D01*
X178194022Y-56302185D01*
X178131096Y-56270122D01*
X177997606Y-56202104D01*
X177997603Y-56202103D01*
X177787952Y-56133985D01*
X177679086Y-56116742D01*
X177570222Y-56099500D01*
X177349778Y-56099500D01*
X177277201Y-56110995D01*
X177132047Y-56133985D01*
X176922396Y-56202103D01*
X176922393Y-56202104D01*
X176725974Y-56302187D01*
X176547641Y-56431752D01*
X176547636Y-56431756D01*
X176391756Y-56587636D01*
X176391752Y-56587641D01*
X176262187Y-56765974D01*
X176162104Y-56962393D01*
X176162103Y-56962396D01*
X176093985Y-57172047D01*
X176059500Y-57389778D01*
X150000500Y-57389778D01*
X150000500Y-51670097D01*
X154932500Y-51670097D01*
X154932500Y-51929902D01*
X154973140Y-52186493D01*
X155053422Y-52433576D01*
X155086797Y-52499076D01*
X155171366Y-52665051D01*
X155324069Y-52875229D01*
X155507771Y-53058931D01*
X155717949Y-53211634D01*
X155865445Y-53286787D01*
X155949423Y-53329577D01*
X155949425Y-53329577D01*
X155949428Y-53329579D01*
X156196507Y-53409860D01*
X156328706Y-53430797D01*
X156453098Y-53450500D01*
X156453103Y-53450500D01*
X156712902Y-53450500D01*
X156826298Y-53432539D01*
X156969493Y-53409860D01*
X157216572Y-53329579D01*
X157448051Y-53211634D01*
X157658229Y-53058931D01*
X157841931Y-52875229D01*
X157994634Y-52665051D01*
X158018503Y-52618204D01*
X158066477Y-52567409D01*
X158128988Y-52550500D01*
X159237012Y-52550500D01*
X159304051Y-52570185D01*
X159347496Y-52618204D01*
X159371366Y-52665051D01*
X159524069Y-52875229D01*
X159707771Y-53058931D01*
X159917949Y-53211634D01*
X160065445Y-53286787D01*
X160149423Y-53329577D01*
X160149425Y-53329577D01*
X160149428Y-53329579D01*
X160396507Y-53409860D01*
X160528706Y-53430797D01*
X160653098Y-53450500D01*
X160653103Y-53450500D01*
X160912902Y-53450500D01*
X161081086Y-53423862D01*
X161169493Y-53409860D01*
X161219494Y-53393612D01*
X161289334Y-53391616D01*
X161345494Y-53423862D01*
X163400048Y-55478415D01*
X163400049Y-55478416D01*
X163504584Y-55582951D01*
X163504585Y-55582952D01*
X163627498Y-55665080D01*
X163627511Y-55665087D01*
X163734469Y-55709390D01*
X163764087Y-55721658D01*
X163764091Y-55721658D01*
X163764092Y-55721659D01*
X163909079Y-55750500D01*
X163909082Y-55750500D01*
X167195396Y-55750500D01*
X167242844Y-55759937D01*
X167266503Y-55769737D01*
X167266508Y-55769738D01*
X167266511Y-55769739D01*
X167421153Y-55800499D01*
X167421156Y-55800500D01*
X167421158Y-55800500D01*
X167578844Y-55800500D01*
X167578845Y-55800499D01*
X167733497Y-55769737D01*
X167879179Y-55709394D01*
X168010289Y-55621789D01*
X168121789Y-55510289D01*
X168209394Y-55379179D01*
X168269737Y-55233497D01*
X168300500Y-55078842D01*
X168300500Y-54921158D01*
X168300500Y-54921155D01*
X168300499Y-54921153D01*
X168269738Y-54766510D01*
X168269737Y-54766503D01*
X168269735Y-54766498D01*
X168209397Y-54620827D01*
X168209390Y-54620814D01*
X168121789Y-54489711D01*
X168121786Y-54489707D01*
X168010292Y-54378213D01*
X168010288Y-54378210D01*
X167879185Y-54290609D01*
X167879172Y-54290602D01*
X167733501Y-54230264D01*
X167733489Y-54230261D01*
X167578845Y-54199500D01*
X167578842Y-54199500D01*
X167421158Y-54199500D01*
X167421155Y-54199500D01*
X167266511Y-54230260D01*
X167266506Y-54230262D01*
X167266504Y-54230262D01*
X167266503Y-54230263D01*
X167242844Y-54240062D01*
X167195396Y-54249500D01*
X164345229Y-54249500D01*
X164278190Y-54229815D01*
X164257548Y-54213181D01*
X163214836Y-53170468D01*
X162406862Y-52362494D01*
X162373377Y-52301171D01*
X162376612Y-52236495D01*
X162392860Y-52186493D01*
X162412495Y-52062520D01*
X162433500Y-51929902D01*
X162433500Y-51670142D01*
X167950000Y-51670142D01*
X167950000Y-51929857D01*
X167990629Y-52186377D01*
X168070883Y-52433377D01*
X168188796Y-52664791D01*
X168269951Y-52776492D01*
X168269952Y-52776493D01*
X168809521Y-52236923D01*
X168900924Y-52373717D01*
X169026283Y-52499076D01*
X169163075Y-52590477D01*
X168623505Y-53130046D01*
X168623506Y-53130048D01*
X168735208Y-53211203D01*
X168966622Y-53329116D01*
X169213622Y-53409370D01*
X169470143Y-53450000D01*
X169729857Y-53450000D01*
X169986377Y-53409370D01*
X170233377Y-53329116D01*
X170464788Y-53211205D01*
X170576492Y-53130046D01*
X170576493Y-53130046D01*
X170036924Y-52590477D01*
X170173717Y-52499076D01*
X170299076Y-52373717D01*
X170390477Y-52236924D01*
X170930046Y-52776493D01*
X170930046Y-52776492D01*
X171011205Y-52664788D01*
X171129116Y-52433377D01*
X171209370Y-52186377D01*
X171250000Y-51929857D01*
X171250000Y-51670142D01*
X171249993Y-51670097D01*
X172149500Y-51670097D01*
X172149500Y-51929902D01*
X172190140Y-52186493D01*
X172270422Y-52433576D01*
X172303797Y-52499076D01*
X172388366Y-52665051D01*
X172541069Y-52875229D01*
X172724771Y-53058931D01*
X172934949Y-53211634D01*
X173082445Y-53286787D01*
X173166423Y-53329577D01*
X173166425Y-53329577D01*
X173166428Y-53329579D01*
X173413507Y-53409860D01*
X173545706Y-53430797D01*
X173670098Y-53450500D01*
X173670103Y-53450500D01*
X173929902Y-53450500D01*
X174043298Y-53432539D01*
X174186493Y-53409860D01*
X174433572Y-53329579D01*
X174665051Y-53211634D01*
X174875229Y-53058931D01*
X175058931Y-52875229D01*
X175211634Y-52665051D01*
X175329579Y-52433572D01*
X175409860Y-52186493D01*
X175432539Y-52043298D01*
X175450500Y-51929902D01*
X175450500Y-51670142D01*
X181250000Y-51670142D01*
X181250000Y-51929857D01*
X181290629Y-52186377D01*
X181370883Y-52433377D01*
X181488796Y-52664791D01*
X181569951Y-52776492D01*
X181569952Y-52776493D01*
X182109521Y-52236923D01*
X182200924Y-52373717D01*
X182326283Y-52499076D01*
X182463075Y-52590477D01*
X181923505Y-53130046D01*
X181923506Y-53130048D01*
X182035208Y-53211203D01*
X182266622Y-53329116D01*
X182513622Y-53409370D01*
X182770143Y-53450000D01*
X183029857Y-53450000D01*
X183286377Y-53409370D01*
X183533377Y-53329116D01*
X183764788Y-53211205D01*
X183876492Y-53130046D01*
X183876493Y-53130046D01*
X183336924Y-52590477D01*
X183473717Y-52499076D01*
X183599076Y-52373717D01*
X183690477Y-52236924D01*
X184230046Y-52776493D01*
X184230046Y-52776492D01*
X184311205Y-52664788D01*
X184429116Y-52433377D01*
X184509370Y-52186377D01*
X184550000Y-51929857D01*
X184550000Y-51670142D01*
X184549993Y-51670097D01*
X185449500Y-51670097D01*
X185449500Y-51929902D01*
X185490140Y-52186493D01*
X185570422Y-52433576D01*
X185603797Y-52499076D01*
X185688366Y-52665051D01*
X185841069Y-52875229D01*
X186024771Y-53058931D01*
X186234949Y-53211634D01*
X186382445Y-53286787D01*
X186466423Y-53329577D01*
X186466425Y-53329577D01*
X186466428Y-53329579D01*
X186713507Y-53409860D01*
X186845706Y-53430797D01*
X186970098Y-53450500D01*
X186970103Y-53450500D01*
X187229902Y-53450500D01*
X187343298Y-53432539D01*
X187486493Y-53409860D01*
X187733572Y-53329579D01*
X187965051Y-53211634D01*
X188175229Y-53058931D01*
X188358931Y-52875229D01*
X188511634Y-52665051D01*
X188629579Y-52433572D01*
X188709860Y-52186493D01*
X188732539Y-52043298D01*
X188750500Y-51929902D01*
X188750500Y-51670097D01*
X188728947Y-51534021D01*
X188709860Y-51413507D01*
X188629579Y-51166428D01*
X188629577Y-51166425D01*
X188629577Y-51166423D01*
X188535503Y-50981795D01*
X188511634Y-50934949D01*
X188358931Y-50724771D01*
X188175229Y-50541069D01*
X188077343Y-50469951D01*
X187965054Y-50388368D01*
X187965053Y-50388367D01*
X187965051Y-50388366D01*
X187892764Y-50351534D01*
X187733576Y-50270422D01*
X187486493Y-50190140D01*
X187229902Y-50149500D01*
X187229897Y-50149500D01*
X186970103Y-50149500D01*
X186970098Y-50149500D01*
X186713506Y-50190140D01*
X186466423Y-50270422D01*
X186234945Y-50388368D01*
X186024774Y-50541066D01*
X186024768Y-50541071D01*
X185841071Y-50724768D01*
X185841066Y-50724774D01*
X185688368Y-50934945D01*
X185570422Y-51166423D01*
X185490140Y-51413506D01*
X185449500Y-51670097D01*
X184549993Y-51670097D01*
X184509370Y-51413622D01*
X184429116Y-51166622D01*
X184311203Y-50935208D01*
X184230048Y-50823506D01*
X184230046Y-50823505D01*
X183690477Y-51363074D01*
X183599076Y-51226283D01*
X183473717Y-51100924D01*
X183336924Y-51009522D01*
X183876493Y-50469952D01*
X183876492Y-50469951D01*
X183764791Y-50388796D01*
X183533377Y-50270883D01*
X183286377Y-50190629D01*
X183029857Y-50150000D01*
X182770143Y-50150000D01*
X182513622Y-50190629D01*
X182266622Y-50270883D01*
X182035215Y-50388792D01*
X181923506Y-50469952D01*
X182463076Y-51009522D01*
X182326283Y-51100924D01*
X182200924Y-51226283D01*
X182109522Y-51363076D01*
X181569952Y-50823506D01*
X181488792Y-50935215D01*
X181370883Y-51166622D01*
X181290629Y-51413622D01*
X181250000Y-51670142D01*
X175450500Y-51670142D01*
X175450500Y-51670097D01*
X175428947Y-51534021D01*
X175409860Y-51413507D01*
X175329579Y-51166428D01*
X175329577Y-51166425D01*
X175329577Y-51166423D01*
X175235503Y-50981795D01*
X175211634Y-50934949D01*
X175058931Y-50724771D01*
X174875229Y-50541069D01*
X174777343Y-50469951D01*
X174665054Y-50388368D01*
X174665053Y-50388367D01*
X174665051Y-50388366D01*
X174592764Y-50351534D01*
X174433576Y-50270422D01*
X174186493Y-50190140D01*
X173929902Y-50149500D01*
X173929897Y-50149500D01*
X173670103Y-50149500D01*
X173670098Y-50149500D01*
X173413506Y-50190140D01*
X173166423Y-50270422D01*
X172934945Y-50388368D01*
X172724774Y-50541066D01*
X172724768Y-50541071D01*
X172541071Y-50724768D01*
X172541066Y-50724774D01*
X172388368Y-50934945D01*
X172270422Y-51166423D01*
X172190140Y-51413506D01*
X172149500Y-51670097D01*
X171249993Y-51670097D01*
X171209370Y-51413622D01*
X171129116Y-51166622D01*
X171011203Y-50935208D01*
X170930048Y-50823506D01*
X170930046Y-50823505D01*
X170390477Y-51363074D01*
X170299076Y-51226283D01*
X170173717Y-51100924D01*
X170036924Y-51009522D01*
X170576493Y-50469952D01*
X170576492Y-50469951D01*
X170464791Y-50388796D01*
X170233377Y-50270883D01*
X169986377Y-50190629D01*
X169729857Y-50150000D01*
X169470143Y-50150000D01*
X169213622Y-50190629D01*
X168966622Y-50270883D01*
X168735215Y-50388792D01*
X168623506Y-50469952D01*
X169163076Y-51009522D01*
X169026283Y-51100924D01*
X168900924Y-51226283D01*
X168809522Y-51363076D01*
X168269952Y-50823506D01*
X168188792Y-50935215D01*
X168070883Y-51166622D01*
X167990629Y-51413622D01*
X167950000Y-51670142D01*
X162433500Y-51670142D01*
X162433500Y-51670097D01*
X162411332Y-51530141D01*
X162392860Y-51413507D01*
X162376611Y-51363501D01*
X162374617Y-51293663D01*
X162406860Y-51237506D01*
X165682952Y-47961416D01*
X165732186Y-47887729D01*
X165765084Y-47838495D01*
X165821658Y-47701913D01*
X165831096Y-47654462D01*
X165850500Y-47556920D01*
X165850500Y-45862229D01*
X165870185Y-45795190D01*
X165886819Y-45774548D01*
X167374548Y-44286819D01*
X167435871Y-44253334D01*
X167462229Y-44250500D01*
X170637770Y-44250500D01*
X170667210Y-44259144D01*
X170697197Y-44265668D01*
X170702212Y-44269422D01*
X170704809Y-44270185D01*
X170725451Y-44286819D01*
X170876451Y-44437819D01*
X170909936Y-44499142D01*
X170904952Y-44568834D01*
X170863080Y-44624767D01*
X170797616Y-44649184D01*
X170788770Y-44649500D01*
X168402129Y-44649500D01*
X168402123Y-44649501D01*
X168342516Y-44655908D01*
X168207671Y-44706202D01*
X168207664Y-44706206D01*
X168092455Y-44792452D01*
X168092452Y-44792455D01*
X168006206Y-44907664D01*
X168006202Y-44907671D01*
X167955908Y-45042517D01*
X167950237Y-45095268D01*
X167949501Y-45102123D01*
X167949500Y-45102135D01*
X167949500Y-47497870D01*
X167949501Y-47497876D01*
X167955908Y-47557483D01*
X168006202Y-47692328D01*
X168006206Y-47692335D01*
X168092452Y-47807544D01*
X168092455Y-47807547D01*
X168207664Y-47893793D01*
X168207671Y-47893797D01*
X168342517Y-47944091D01*
X168342516Y-47944091D01*
X168349444Y-47944835D01*
X168402127Y-47950500D01*
X170797872Y-47950499D01*
X170857483Y-47944091D01*
X170992331Y-47893796D01*
X171107546Y-47807546D01*
X171193796Y-47692331D01*
X171244091Y-47557483D01*
X171250500Y-47497873D01*
X171250499Y-45111228D01*
X171270184Y-45044190D01*
X171322987Y-44998435D01*
X171392146Y-44988491D01*
X171455702Y-45017516D01*
X171462180Y-45023548D01*
X172176136Y-45737504D01*
X172209621Y-45798827D01*
X172206387Y-45863501D01*
X172190139Y-45913507D01*
X172149500Y-46170097D01*
X172149500Y-46429902D01*
X172190140Y-46686493D01*
X172270422Y-46933576D01*
X172388368Y-47165054D01*
X172395231Y-47174500D01*
X172541069Y-47375229D01*
X172724771Y-47558931D01*
X172934949Y-47711634D01*
X173082445Y-47786787D01*
X173166423Y-47829577D01*
X173166425Y-47829577D01*
X173166428Y-47829579D01*
X173413507Y-47909860D01*
X173545706Y-47930797D01*
X173670098Y-47950500D01*
X173670103Y-47950500D01*
X173929902Y-47950500D01*
X174043298Y-47932539D01*
X174186493Y-47909860D01*
X174433572Y-47829579D01*
X174665051Y-47711634D01*
X174875229Y-47558931D01*
X175058931Y-47375229D01*
X175211634Y-47165051D01*
X175235503Y-47118204D01*
X175283477Y-47067409D01*
X175345988Y-47050500D01*
X181125501Y-47050500D01*
X181192540Y-47070185D01*
X181238295Y-47122989D01*
X181249501Y-47174500D01*
X181249501Y-47497876D01*
X181255908Y-47557483D01*
X181306202Y-47692328D01*
X181306206Y-47692335D01*
X181392452Y-47807544D01*
X181392455Y-47807547D01*
X181507664Y-47893793D01*
X181507671Y-47893797D01*
X181642517Y-47944091D01*
X181642516Y-47944091D01*
X181649444Y-47944835D01*
X181702127Y-47950500D01*
X184097872Y-47950499D01*
X184157483Y-47944091D01*
X184292331Y-47893796D01*
X184407546Y-47807546D01*
X184493796Y-47692331D01*
X184544091Y-47557483D01*
X184550500Y-47497873D01*
X184550499Y-46170097D01*
X185449500Y-46170097D01*
X185449500Y-46429902D01*
X185490140Y-46686493D01*
X185570422Y-46933576D01*
X185688368Y-47165054D01*
X185695231Y-47174500D01*
X185841069Y-47375229D01*
X186024771Y-47558931D01*
X186234949Y-47711634D01*
X186382445Y-47786787D01*
X186466423Y-47829577D01*
X186466425Y-47829577D01*
X186466428Y-47829579D01*
X186713507Y-47909860D01*
X186845706Y-47930797D01*
X186970098Y-47950500D01*
X186970103Y-47950500D01*
X187229902Y-47950500D01*
X187343298Y-47932539D01*
X187486493Y-47909860D01*
X187733572Y-47829579D01*
X187965051Y-47711634D01*
X188175229Y-47558931D01*
X188358931Y-47375229D01*
X188511634Y-47165051D01*
X188629579Y-46933572D01*
X188709860Y-46686493D01*
X188732539Y-46543298D01*
X188750500Y-46429902D01*
X188750500Y-46170097D01*
X188728947Y-46034021D01*
X188709860Y-45913507D01*
X188629579Y-45666428D01*
X188629577Y-45666425D01*
X188629577Y-45666423D01*
X188559971Y-45529815D01*
X188511634Y-45434949D01*
X188358931Y-45224771D01*
X188175229Y-45041069D01*
X188175225Y-45041066D01*
X187965054Y-44888368D01*
X187965053Y-44888367D01*
X187965051Y-44888366D01*
X187892764Y-44851534D01*
X187733576Y-44770422D01*
X187486493Y-44690140D01*
X187229902Y-44649500D01*
X187229897Y-44649500D01*
X186970103Y-44649500D01*
X186970098Y-44649500D01*
X186713506Y-44690140D01*
X186466423Y-44770422D01*
X186234945Y-44888368D01*
X186024774Y-45041066D01*
X186024768Y-45041071D01*
X185841071Y-45224768D01*
X185841066Y-45224774D01*
X185688368Y-45434945D01*
X185570422Y-45666423D01*
X185490140Y-45913506D01*
X185449500Y-46170097D01*
X184550499Y-46170097D01*
X184550499Y-45102128D01*
X184544091Y-45042517D01*
X184534766Y-45017516D01*
X184493797Y-44907671D01*
X184493793Y-44907664D01*
X184407547Y-44792455D01*
X184407544Y-44792452D01*
X184292335Y-44706206D01*
X184292328Y-44706202D01*
X184157482Y-44655908D01*
X184157483Y-44655908D01*
X184097883Y-44649501D01*
X184097881Y-44649500D01*
X184097873Y-44649500D01*
X184097864Y-44649500D01*
X181702129Y-44649500D01*
X181702123Y-44649501D01*
X181642516Y-44655908D01*
X181507671Y-44706202D01*
X181507664Y-44706206D01*
X181392455Y-44792452D01*
X181392452Y-44792455D01*
X181306206Y-44907664D01*
X181306202Y-44907671D01*
X181255908Y-45042517D01*
X181250237Y-45095268D01*
X181249501Y-45102123D01*
X181249500Y-45102135D01*
X181249500Y-45425500D01*
X181229815Y-45492539D01*
X181177011Y-45538294D01*
X181125500Y-45549500D01*
X175345988Y-45549500D01*
X175278949Y-45529815D01*
X175235503Y-45481795D01*
X175211634Y-45434949D01*
X175058931Y-45224771D01*
X174875229Y-45041069D01*
X174875225Y-45041066D01*
X174665054Y-44888368D01*
X174665053Y-44888367D01*
X174665051Y-44888366D01*
X174592764Y-44851534D01*
X174433576Y-44770422D01*
X174186493Y-44690140D01*
X173929902Y-44649500D01*
X173929897Y-44649500D01*
X173670103Y-44649500D01*
X173670098Y-44649500D01*
X173413507Y-44690139D01*
X173363501Y-44706387D01*
X173293660Y-44708381D01*
X173237504Y-44676136D01*
X171478421Y-42917052D01*
X171478414Y-42917046D01*
X171404729Y-42867812D01*
X171404729Y-42867813D01*
X171355491Y-42834913D01*
X171218917Y-42778343D01*
X171218907Y-42778340D01*
X171073920Y-42749500D01*
X171073918Y-42749500D01*
X167026082Y-42749500D01*
X167026080Y-42749500D01*
X166881092Y-42778340D01*
X166881082Y-42778343D01*
X166744508Y-42834913D01*
X166621584Y-42917048D01*
X166621584Y-42917049D01*
X164517050Y-45021580D01*
X164517044Y-45021588D01*
X164467812Y-45095268D01*
X164467813Y-45095269D01*
X164434921Y-45144496D01*
X164434914Y-45144508D01*
X164378342Y-45281086D01*
X164378340Y-45281092D01*
X164349500Y-45426079D01*
X164349500Y-47120769D01*
X164329815Y-47187808D01*
X164313181Y-47208450D01*
X161345494Y-50176136D01*
X161284171Y-50209621D01*
X161219495Y-50206386D01*
X161169496Y-50190140D01*
X160912902Y-50149500D01*
X160912897Y-50149500D01*
X160653103Y-50149500D01*
X160653098Y-50149500D01*
X160396506Y-50190140D01*
X160149423Y-50270422D01*
X159917945Y-50388368D01*
X159707774Y-50541066D01*
X159707768Y-50541071D01*
X159524071Y-50724768D01*
X159524066Y-50724774D01*
X159371368Y-50934945D01*
X159347497Y-50981795D01*
X159299523Y-51032591D01*
X159237012Y-51049500D01*
X158128988Y-51049500D01*
X158061949Y-51029815D01*
X158018503Y-50981795D01*
X157994634Y-50934949D01*
X157841931Y-50724771D01*
X157658229Y-50541069D01*
X157560343Y-50469951D01*
X157448054Y-50388368D01*
X157448053Y-50388367D01*
X157448051Y-50388366D01*
X157375764Y-50351534D01*
X157216576Y-50270422D01*
X156969493Y-50190140D01*
X156712902Y-50149500D01*
X156712897Y-50149500D01*
X156453103Y-50149500D01*
X156453098Y-50149500D01*
X156196506Y-50190140D01*
X155949423Y-50270422D01*
X155717945Y-50388368D01*
X155507774Y-50541066D01*
X155507768Y-50541071D01*
X155324071Y-50724768D01*
X155324066Y-50724774D01*
X155171368Y-50934945D01*
X155053422Y-51166423D01*
X154973140Y-51413506D01*
X154932500Y-51670097D01*
X150000500Y-51670097D01*
X150000500Y-45102135D01*
X154932500Y-45102135D01*
X154932500Y-47497870D01*
X154932501Y-47497876D01*
X154938908Y-47557483D01*
X154989202Y-47692328D01*
X154989206Y-47692335D01*
X155075452Y-47807544D01*
X155075455Y-47807547D01*
X155190664Y-47893793D01*
X155190671Y-47893797D01*
X155325517Y-47944091D01*
X155325516Y-47944091D01*
X155332444Y-47944835D01*
X155385127Y-47950500D01*
X157780872Y-47950499D01*
X157840483Y-47944091D01*
X157975331Y-47893796D01*
X158090546Y-47807546D01*
X158176796Y-47692331D01*
X158227091Y-47557483D01*
X158233500Y-47497873D01*
X158233499Y-46170097D01*
X159132500Y-46170097D01*
X159132500Y-46429902D01*
X159173140Y-46686493D01*
X159253422Y-46933576D01*
X159371368Y-47165054D01*
X159378231Y-47174500D01*
X159524069Y-47375229D01*
X159707771Y-47558931D01*
X159917949Y-47711634D01*
X160065445Y-47786787D01*
X160149423Y-47829577D01*
X160149425Y-47829577D01*
X160149428Y-47829579D01*
X160396507Y-47909860D01*
X160528706Y-47930797D01*
X160653098Y-47950500D01*
X160653103Y-47950500D01*
X160912902Y-47950500D01*
X161026298Y-47932539D01*
X161169493Y-47909860D01*
X161416572Y-47829579D01*
X161648051Y-47711634D01*
X161858229Y-47558931D01*
X162041931Y-47375229D01*
X162194634Y-47165051D01*
X162312579Y-46933572D01*
X162392860Y-46686493D01*
X162415539Y-46543298D01*
X162433500Y-46429902D01*
X162433500Y-46170097D01*
X162411947Y-46034021D01*
X162392860Y-45913507D01*
X162312579Y-45666428D01*
X162312577Y-45666425D01*
X162312577Y-45666423D01*
X162242971Y-45529815D01*
X162194634Y-45434949D01*
X162041931Y-45224771D01*
X161858229Y-45041069D01*
X161858225Y-45041066D01*
X161648054Y-44888368D01*
X161648053Y-44888367D01*
X161648051Y-44888366D01*
X161575764Y-44851534D01*
X161416576Y-44770422D01*
X161169493Y-44690140D01*
X160912902Y-44649500D01*
X160912897Y-44649500D01*
X160653103Y-44649500D01*
X160653098Y-44649500D01*
X160396506Y-44690140D01*
X160149423Y-44770422D01*
X159917945Y-44888368D01*
X159707774Y-45041066D01*
X159707768Y-45041071D01*
X159524071Y-45224768D01*
X159524066Y-45224774D01*
X159371368Y-45434945D01*
X159253422Y-45666423D01*
X159173140Y-45913506D01*
X159132500Y-46170097D01*
X158233499Y-46170097D01*
X158233499Y-45102128D01*
X158227091Y-45042517D01*
X158217766Y-45017516D01*
X158176797Y-44907671D01*
X158176793Y-44907664D01*
X158090547Y-44792455D01*
X158090544Y-44792452D01*
X157975335Y-44706206D01*
X157975328Y-44706202D01*
X157840482Y-44655908D01*
X157840483Y-44655908D01*
X157780883Y-44649501D01*
X157780881Y-44649500D01*
X157780873Y-44649500D01*
X157780864Y-44649500D01*
X155385129Y-44649500D01*
X155385123Y-44649501D01*
X155325516Y-44655908D01*
X155190671Y-44706202D01*
X155190664Y-44706206D01*
X155075455Y-44792452D01*
X155075452Y-44792455D01*
X154989206Y-44907664D01*
X154989202Y-44907671D01*
X154938908Y-45042517D01*
X154933237Y-45095268D01*
X154932501Y-45102123D01*
X154932500Y-45102135D01*
X150000500Y-45102135D01*
X150000500Y-38885258D01*
X156932500Y-38885258D01*
X156932500Y-39114741D01*
X156957446Y-39304215D01*
X156962452Y-39342238D01*
X156962453Y-39342240D01*
X157021842Y-39563887D01*
X157109650Y-39775876D01*
X157109657Y-39775890D01*
X157224392Y-39974617D01*
X157364081Y-40156661D01*
X157364089Y-40156670D01*
X157526330Y-40318911D01*
X157526338Y-40318918D01*
X157708382Y-40458607D01*
X157708385Y-40458608D01*
X157708388Y-40458611D01*
X157907112Y-40573344D01*
X157907117Y-40573346D01*
X157907123Y-40573349D01*
X157998480Y-40611190D01*
X158119113Y-40661158D01*
X158340762Y-40720548D01*
X158568266Y-40750500D01*
X158568273Y-40750500D01*
X158797727Y-40750500D01*
X158797734Y-40750500D01*
X159025238Y-40720548D01*
X159246887Y-40661158D01*
X159458888Y-40573344D01*
X159657612Y-40458611D01*
X159839661Y-40318919D01*
X159839665Y-40318914D01*
X159839670Y-40318911D01*
X160001911Y-40156670D01*
X160001914Y-40156665D01*
X160001919Y-40156661D01*
X160141611Y-39974612D01*
X160256344Y-39775888D01*
X160344158Y-39563887D01*
X160403548Y-39342238D01*
X160433500Y-39114734D01*
X160433500Y-38885266D01*
X160433499Y-38885258D01*
X169949500Y-38885258D01*
X169949500Y-39114741D01*
X169974446Y-39304215D01*
X169979452Y-39342238D01*
X169979453Y-39342240D01*
X170038842Y-39563887D01*
X170126650Y-39775876D01*
X170126657Y-39775890D01*
X170241392Y-39974617D01*
X170381081Y-40156661D01*
X170381089Y-40156670D01*
X170543330Y-40318911D01*
X170543338Y-40318918D01*
X170725382Y-40458607D01*
X170725385Y-40458608D01*
X170725388Y-40458611D01*
X170924112Y-40573344D01*
X170924117Y-40573346D01*
X170924123Y-40573349D01*
X171015480Y-40611190D01*
X171136113Y-40661158D01*
X171357762Y-40720548D01*
X171585266Y-40750500D01*
X171585273Y-40750500D01*
X171814727Y-40750500D01*
X171814734Y-40750500D01*
X172042238Y-40720548D01*
X172263887Y-40661158D01*
X172475888Y-40573344D01*
X172674612Y-40458611D01*
X172856661Y-40318919D01*
X172856665Y-40318914D01*
X172856670Y-40318911D01*
X173018911Y-40156670D01*
X173018914Y-40156665D01*
X173018919Y-40156661D01*
X173158611Y-39974612D01*
X173273344Y-39775888D01*
X173361158Y-39563887D01*
X173420548Y-39342238D01*
X173450500Y-39114734D01*
X173450500Y-38885266D01*
X173450499Y-38885258D01*
X183249500Y-38885258D01*
X183249500Y-39114741D01*
X183274446Y-39304215D01*
X183279452Y-39342238D01*
X183279453Y-39342240D01*
X183338842Y-39563887D01*
X183426650Y-39775876D01*
X183426657Y-39775890D01*
X183541392Y-39974617D01*
X183681081Y-40156661D01*
X183681089Y-40156670D01*
X183843330Y-40318911D01*
X183843338Y-40318918D01*
X184025382Y-40458607D01*
X184025385Y-40458608D01*
X184025388Y-40458611D01*
X184224112Y-40573344D01*
X184224117Y-40573346D01*
X184224123Y-40573349D01*
X184315480Y-40611190D01*
X184436113Y-40661158D01*
X184657762Y-40720548D01*
X184885266Y-40750500D01*
X184885273Y-40750500D01*
X185114727Y-40750500D01*
X185114734Y-40750500D01*
X185342238Y-40720548D01*
X185563887Y-40661158D01*
X185775888Y-40573344D01*
X185974612Y-40458611D01*
X186156661Y-40318919D01*
X186156665Y-40318914D01*
X186156670Y-40318911D01*
X186318911Y-40156670D01*
X186318914Y-40156665D01*
X186318919Y-40156661D01*
X186458611Y-39974612D01*
X186573344Y-39775888D01*
X186661158Y-39563887D01*
X186720548Y-39342238D01*
X186750500Y-39114734D01*
X186750500Y-38885266D01*
X186720548Y-38657762D01*
X186661158Y-38436113D01*
X186573344Y-38224112D01*
X186458611Y-38025388D01*
X186458608Y-38025385D01*
X186458607Y-38025382D01*
X186318918Y-37843338D01*
X186318911Y-37843330D01*
X186156670Y-37681089D01*
X186156661Y-37681081D01*
X185974617Y-37541392D01*
X185775890Y-37426657D01*
X185775876Y-37426650D01*
X185563887Y-37338842D01*
X185342238Y-37279452D01*
X185304215Y-37274446D01*
X185114741Y-37249500D01*
X185114734Y-37249500D01*
X184885266Y-37249500D01*
X184885258Y-37249500D01*
X184668715Y-37278009D01*
X184657762Y-37279452D01*
X184564076Y-37304554D01*
X184436112Y-37338842D01*
X184224123Y-37426650D01*
X184224109Y-37426657D01*
X184025382Y-37541392D01*
X183843338Y-37681081D01*
X183681081Y-37843338D01*
X183541392Y-38025382D01*
X183426657Y-38224109D01*
X183426650Y-38224123D01*
X183338842Y-38436112D01*
X183279453Y-38657759D01*
X183279451Y-38657770D01*
X183249500Y-38885258D01*
X173450499Y-38885258D01*
X173420548Y-38657762D01*
X173361158Y-38436113D01*
X173273344Y-38224112D01*
X173158611Y-38025388D01*
X173158608Y-38025385D01*
X173158607Y-38025382D01*
X173018918Y-37843338D01*
X173018911Y-37843330D01*
X172856670Y-37681089D01*
X172856661Y-37681081D01*
X172674617Y-37541392D01*
X172475890Y-37426657D01*
X172475876Y-37426650D01*
X172263887Y-37338842D01*
X172042238Y-37279452D01*
X172004215Y-37274446D01*
X171814741Y-37249500D01*
X171814734Y-37249500D01*
X171585266Y-37249500D01*
X171585258Y-37249500D01*
X171368715Y-37278009D01*
X171357762Y-37279452D01*
X171264076Y-37304554D01*
X171136112Y-37338842D01*
X170924123Y-37426650D01*
X170924109Y-37426657D01*
X170725382Y-37541392D01*
X170543338Y-37681081D01*
X170381081Y-37843338D01*
X170241392Y-38025382D01*
X170126657Y-38224109D01*
X170126650Y-38224123D01*
X170038842Y-38436112D01*
X169979453Y-38657759D01*
X169979451Y-38657770D01*
X169949500Y-38885258D01*
X160433499Y-38885258D01*
X160403548Y-38657762D01*
X160344158Y-38436113D01*
X160256344Y-38224112D01*
X160141611Y-38025388D01*
X160141608Y-38025385D01*
X160141607Y-38025382D01*
X160001918Y-37843338D01*
X160001911Y-37843330D01*
X159839670Y-37681089D01*
X159839661Y-37681081D01*
X159657617Y-37541392D01*
X159458890Y-37426657D01*
X159458876Y-37426650D01*
X159246887Y-37338842D01*
X159025238Y-37279452D01*
X158987215Y-37274446D01*
X158797741Y-37249500D01*
X158797734Y-37249500D01*
X158568266Y-37249500D01*
X158568258Y-37249500D01*
X158351715Y-37278009D01*
X158340762Y-37279452D01*
X158247076Y-37304554D01*
X158119112Y-37338842D01*
X157907123Y-37426650D01*
X157907109Y-37426657D01*
X157708382Y-37541392D01*
X157526338Y-37681081D01*
X157364081Y-37843338D01*
X157224392Y-38025382D01*
X157109657Y-38224109D01*
X157109650Y-38224123D01*
X157021842Y-38436112D01*
X156962453Y-38657759D01*
X156962451Y-38657770D01*
X156932500Y-38885258D01*
X150000500Y-38885258D01*
X150000500Y-29624500D01*
X150020185Y-29557461D01*
X150072989Y-29511706D01*
X150124500Y-29500500D01*
X191875500Y-29500500D01*
X191942539Y-29520185D01*
G37*
%TD.AperFunction*%
%TD*%
M02*
