M48
; DRILL file {KiCad 9.0.6} date 2026-03-29T16:16:05-0700
; FORMAT={-:-/ absolute / metric / decimal}
; #@! TF.CreationDate,2026-03-29T16:16:05-07:00
; #@! TF.GenerationSoftware,Kicad,Pcbnew,9.0.6
; #@! TF.FileFunction,Plated,1,2,PTH
FMAT,2
METRIC
; #@! TA.AperFunction,Plated,PTH,ViaDrill
T1C0.300
; #@! TA.AperFunction,Plated,PTH,ComponentDrill
T2C0.610
; #@! TA.AperFunction,Plated,PTH,ComponentDrill
T3C1.800
%
G90
G05
T1
X165.15Y-61.5
X165.65Y-68.5
X166.275Y-64.0
X167.5Y-55.0
X169.65Y-66.0
X174.15Y-61.0
T2
X177.11Y-58.5
X179.65Y-58.5
T3
X156.583Y-46.3
X156.583Y-51.8
X160.783Y-46.3
X160.783Y-51.8
X169.6Y-46.3
X169.6Y-51.8
X173.8Y-46.3
X173.8Y-51.8
X182.9Y-46.3
X182.9Y-51.8
X187.1Y-46.3
X187.1Y-51.8
M30
