%TF.GenerationSoftware,KiCad,Pcbnew,9.0.6*%
%TF.CreationDate,2026-03-29T16:14:51-07:00*%
%TF.ProjectId,IMD Indicator,494d4420-496e-4646-9963-61746f722e6b,rev?*%
%TF.SameCoordinates,Original*%
%TF.FileFunction,Copper,L1,Top*%
%TF.FilePolarity,Positive*%
%FSLAX46Y46*%
G04 Gerber Fmt 4.6, Leading zero omitted, Abs format (unit mm)*
G04 Created by KiCad (PCBNEW 9.0.6) date 2026-03-29 16:14:51*
%MOMM*%
%LPD*%
G01*
G04 APERTURE LIST*
G04 Aperture macros list*
%AMRoundRect*
0 Rectangle with rounded corners*
0 $1 Rounding radius*
0 $2 $3 $4 $5 $6 $7 $8 $9 X,Y pos of 4 corners*
0 Add a 4 corners polygon primitive as box body*
4,1,4,$2,$3,$4,$5,$6,$7,$8,$9,$2,$3,0*
0 Add four circle primitives for the rounded corners*
1,1,$1+$1,$2,$3*
1,1,$1+$1,$4,$5*
1,1,$1+$1,$6,$7*
1,1,$1+$1,$8,$9*
0 Add four rect primitives between the rounded corners*
20,1,$1+$1,$2,$3,$4,$5,0*
20,1,$1+$1,$4,$5,$6,$7,0*
20,1,$1+$1,$6,$7,$8,$9,0*
20,1,$1+$1,$8,$9,$2,$3,0*%
G04 Aperture macros list end*
%TA.AperFunction,SMDPad,CuDef*%
%ADD10R,0.640000X0.420000*%
%TD*%
%TA.AperFunction,ComponentPad*%
%ADD11C,1.117600*%
%TD*%
%TA.AperFunction,SMDPad,CuDef*%
%ADD12RoundRect,0.200000X-0.200000X-0.275000X0.200000X-0.275000X0.200000X0.275000X-0.200000X0.275000X0*%
%TD*%
%TA.AperFunction,SMDPad,CuDef*%
%ADD13R,1.050000X0.600000*%
%TD*%
%TA.AperFunction,SMDPad,CuDef*%
%ADD14RoundRect,0.200000X0.200000X0.275000X-0.200000X0.275000X-0.200000X-0.275000X0.200000X-0.275000X0*%
%TD*%
%TA.AperFunction,SMDPad,CuDef*%
%ADD15R,1.650000X0.950000*%
%TD*%
%TA.AperFunction,SMDPad,CuDef*%
%ADD16R,1.650000X3.250000*%
%TD*%
%TA.AperFunction,ComponentPad*%
%ADD17R,2.300000X2.300000*%
%TD*%
%TA.AperFunction,ComponentPad*%
%ADD18C,2.300000*%
%TD*%
%TA.AperFunction,ViaPad*%
%ADD19C,0.600000*%
%TD*%
%TA.AperFunction,Conductor*%
%ADD20C,0.500000*%
%TD*%
%TA.AperFunction,Conductor*%
%ADD21C,0.250000*%
%TD*%
G04 APERTURE END LIST*
D10*
%TO.P,D3,2,A*%
%TO.N,/12V MASTER*%
X167150000Y-65500000D03*
%TO.P,D3,1,K*%
%TO.N,Net-(D2-K)*%
X168650000Y-65500000D03*
%TD*%
D11*
%TO.P,LED1,2*%
%TO.N,Net-(LED1-Pad2)*%
X177110000Y-58500000D03*
%TO.P,LED1,1*%
%TO.N,IMD KILL SIGNAL*%
X179650000Y-58500000D03*
%TD*%
D12*
%TO.P,R2,2*%
%TO.N,Net-(LED1-Pad2)*%
X171650000Y-57600000D03*
%TO.P,R2,1*%
%TO.N,Net-(D2-K)*%
X170000000Y-57600000D03*
%TD*%
D13*
%TO.P,Q1,3,D*%
%TO.N,Net-(D5-A)*%
X161450000Y-64950000D03*
%TO.P,Q1,2,S*%
%TO.N,GND*%
X163650000Y-64000000D03*
%TO.P,Q1,1,G*%
%TO.N,/12V MASTER*%
X163650000Y-65900000D03*
%TD*%
%TO.P,Q2,3,D*%
%TO.N,Net-(D6-A)*%
X163650000Y-59100000D03*
%TO.P,Q2,2,S*%
%TO.N,GND*%
X161450000Y-60050000D03*
%TO.P,Q2,1,G*%
%TO.N,/IMD_LOGIC_SIGNAL*%
X161450000Y-58150000D03*
%TD*%
D10*
%TO.P,D2,2,A*%
%TO.N,/12V IGNITION*%
X170150000Y-62600000D03*
%TO.P,D2,1,K*%
%TO.N,Net-(D2-K)*%
X171650000Y-62600000D03*
%TD*%
D14*
%TO.P,R3,2*%
%TO.N,Net-(D6-K)*%
X170500000Y-69600000D03*
%TO.P,R3,1*%
%TO.N,/SCR Gate*%
X172150000Y-69600000D03*
%TD*%
%TO.P,R1,2*%
%TO.N,Net-(D5-A)*%
X166500000Y-61600000D03*
%TO.P,R1,1*%
%TO.N,/12V IGNITION*%
X168150000Y-61600000D03*
%TD*%
D10*
%TO.P,D5,2,A*%
%TO.N,Net-(D5-A)*%
X170650000Y-66100000D03*
%TO.P,D5,1,K*%
%TO.N,/SCR Gate*%
X172150000Y-66100000D03*
%TD*%
%TO.P,D6,2,A*%
%TO.N,Net-(D6-A)*%
X167150000Y-69600000D03*
%TO.P,D6,1,K*%
%TO.N,Net-(D6-K)*%
X168650000Y-69600000D03*
%TD*%
D14*
%TO.P,R5,2*%
%TO.N,Net-(D6-A)*%
X166500000Y-57600000D03*
%TO.P,R5,1*%
%TO.N,/12V IGNITION*%
X168150000Y-57600000D03*
%TD*%
D15*
%TO.P,D7,1,K*%
%TO.N,GND*%
X175850000Y-64700000D03*
%TO.P,D7,2,A_1*%
%TO.N,IMD KILL SIGNAL*%
X175850000Y-67000000D03*
%TO.P,D7,3,G*%
%TO.N,/SCR Gate*%
X175850000Y-69300000D03*
D16*
%TO.P,D7,4,A_2*%
%TO.N,IMD KILL SIGNAL*%
X182150000Y-67000000D03*
%TD*%
D17*
%TO.P,J2,1,1*%
%TO.N,/12V MASTER*%
X169600000Y-46300000D03*
D18*
%TO.P,J2,2,2*%
%TO.N,/12V IGNITION*%
X173800000Y-46300000D03*
%TO.P,J2,3,3*%
%TO.N,GND*%
X169600000Y-51800000D03*
%TO.P,J2,4,4*%
%TO.N,/IMD_LOGIC_SIGNAL*%
X173800000Y-51800000D03*
%TD*%
D17*
%TO.P,J3,1,1*%
%TO.N,/12V MASTER*%
X156583000Y-46300000D03*
D18*
%TO.P,J3,2,2*%
X160783000Y-46300000D03*
%TO.P,J3,3,3*%
%TO.N,/12V IGNITION*%
X156583000Y-51800000D03*
%TO.P,J3,4,4*%
X160783000Y-51800000D03*
%TD*%
D17*
%TO.P,J1,1,1*%
%TO.N,/12V IGNITION*%
X182900000Y-46300000D03*
D18*
%TO.P,J1,2,2*%
%TO.N,/12V MASTER*%
X187100000Y-46300000D03*
%TO.P,J1,3,3*%
%TO.N,GND*%
X182900000Y-51800000D03*
%TO.P,J1,4,4*%
%TO.N,IMD KILL SIGNAL*%
X187100000Y-51800000D03*
%TD*%
D19*
%TO.N,/12V IGNITION*%
X167500000Y-55000000D03*
%TO.N,Net-(D6-A)*%
X165650000Y-68500000D03*
X165150000Y-61500000D03*
%TO.N,Net-(D5-A)*%
X166275000Y-64000000D03*
X169650000Y-66000000D03*
%TO.N,GND*%
X174150000Y-61000000D03*
%TD*%
D20*
%TO.N,/12V IGNITION*%
X167500000Y-55000000D02*
X168500000Y-55000000D01*
X168500000Y-55000000D02*
X169000000Y-55500000D01*
X169000000Y-55500000D02*
X169000000Y-56750000D01*
X169000000Y-56750000D02*
X168150000Y-57600000D01*
%TO.N,/12V MASTER*%
X159000000Y-51000000D02*
X159000000Y-65000000D01*
X160500000Y-49500000D02*
X159000000Y-51000000D01*
X166500000Y-49500000D02*
X160500000Y-49500000D01*
X169600000Y-46400000D02*
X166500000Y-49500000D01*
X169600000Y-46300000D02*
X169600000Y-46400000D01*
D21*
%TO.N,IMD KILL SIGNAL*%
X186350000Y-51800000D02*
X187100000Y-51800000D01*
X179650000Y-58500000D02*
X186350000Y-51800000D01*
%TO.N,/IMD_LOGIC_SIGNAL*%
X171600000Y-54000000D02*
X173800000Y-51800000D01*
X167500000Y-54000000D02*
X171600000Y-54000000D01*
X163350000Y-58150000D02*
X167500000Y-54000000D01*
X161450000Y-58150000D02*
X163350000Y-58150000D01*
D20*
%TO.N,/12V MASTER*%
X159900000Y-65900000D02*
X163650000Y-65900000D01*
X159000000Y-65000000D02*
X159900000Y-65900000D01*
%TO.N,GND*%
X160000000Y-58600000D02*
X161450000Y-60050000D01*
X160000000Y-56000000D02*
X160000000Y-58600000D01*
X164200000Y-51800000D02*
X160000000Y-56000000D01*
X169600000Y-51800000D02*
X164200000Y-51800000D01*
X163650000Y-64000000D02*
X161150000Y-64000000D01*
D21*
%TO.N,Net-(D6-A)*%
X165650000Y-68500000D02*
X166750000Y-69600000D01*
X165000000Y-59100000D02*
X166500000Y-57600000D01*
D20*
%TO.N,GND*%
X160650000Y-60850000D02*
X161450000Y-60050000D01*
D21*
%TO.N,Net-(D6-A)*%
X163650000Y-60000000D02*
X163650000Y-59100000D01*
X165150000Y-61500000D02*
X163650000Y-60000000D01*
D20*
%TO.N,GND*%
X160650000Y-63500000D02*
X160650000Y-60850000D01*
D21*
%TO.N,Net-(D6-A)*%
X163650000Y-59100000D02*
X165000000Y-59100000D01*
X166750000Y-69600000D02*
X167150000Y-69600000D01*
D20*
%TO.N,GND*%
X161150000Y-64000000D02*
X160650000Y-63500000D01*
D21*
%TO.N,/SCR Gate*%
X173050000Y-66100000D02*
X175850000Y-68900000D01*
%TO.N,Net-(D5-A)*%
X170650000Y-66100000D02*
X169750000Y-66100000D01*
X169750000Y-66100000D02*
X169650000Y-66000000D01*
X161476000Y-64924000D02*
X165351000Y-64924000D01*
%TO.N,Net-(D2-K)*%
X168650000Y-65600000D02*
X169650000Y-64600000D01*
D20*
%TO.N,/12V IGNITION*%
X169150000Y-62600000D02*
X168150000Y-61600000D01*
D21*
%TO.N,Net-(D2-K)*%
X170650000Y-59600000D02*
X172150000Y-59600000D01*
D20*
%TO.N,/12V IGNITION*%
X168150000Y-57600000D02*
X168250000Y-57600000D01*
D21*
%TO.N,Net-(D2-K)*%
X172650000Y-61600000D02*
X171650000Y-62600000D01*
X169650000Y-64600000D02*
X169650000Y-64100000D01*
D20*
%TO.N,/12V IGNITION*%
X169150000Y-58500000D02*
X169150000Y-60500000D01*
D21*
%TO.N,Net-(D2-K)*%
X172650000Y-60100000D02*
X172650000Y-61600000D01*
%TO.N,/SCR Gate*%
X175850000Y-68900000D02*
X175150000Y-69600000D01*
X175150000Y-69600000D02*
X172150000Y-69600000D01*
X172150000Y-66100000D02*
X173050000Y-66100000D01*
%TO.N,Net-(D2-K)*%
X170000000Y-57600000D02*
X170000000Y-58950000D01*
D20*
%TO.N,/12V IGNITION*%
X169150000Y-60500000D02*
X168150000Y-61500000D01*
D21*
%TO.N,Net-(D2-K)*%
X170000000Y-58950000D02*
X170650000Y-59600000D01*
D20*
%TO.N,/12V IGNITION*%
X168250000Y-57600000D02*
X169150000Y-58500000D01*
D21*
%TO.N,Net-(D2-K)*%
X172150000Y-59600000D02*
X172650000Y-60100000D01*
X169650000Y-64100000D02*
X171150000Y-62600000D01*
%TO.N,/12V IGNITION*%
X168150000Y-61500000D02*
X168150000Y-61600000D01*
D20*
%TO.N,/12V MASTER*%
X166750000Y-65900000D02*
X167150000Y-65500000D01*
D21*
%TO.N,Net-(D2-K)*%
X171150000Y-62600000D02*
X171650000Y-62600000D01*
D20*
%TO.N,/12V MASTER*%
X163650000Y-65900000D02*
X166750000Y-65900000D01*
%TO.N,/12V IGNITION*%
X170150000Y-62600000D02*
X169150000Y-62600000D01*
D21*
%TO.N,IMD KILL SIGNAL*%
X175850000Y-67000000D02*
X182150000Y-67000000D01*
%TO.N,Net-(D5-A)*%
X161450000Y-64950000D02*
X161476000Y-64924000D01*
%TO.N,IMD KILL SIGNAL*%
X182150000Y-61100000D02*
X179650000Y-58600000D01*
%TO.N,Net-(LED1-Pad2)*%
X177110000Y-58600000D02*
X176110000Y-57600000D01*
X176110000Y-57600000D02*
X171650000Y-57600000D01*
%TO.N,Net-(D6-K)*%
X168650000Y-69600000D02*
X170500000Y-69600000D01*
%TO.N,Net-(D5-A)*%
X165351000Y-64924000D02*
X166275000Y-64000000D01*
%TO.N,IMD KILL SIGNAL*%
X182150000Y-66600000D02*
X182150000Y-61100000D01*
%TO.N,Net-(D5-A)*%
X166275000Y-61825000D02*
X166500000Y-61600000D01*
X166650000Y-61750000D02*
X166500000Y-61600000D01*
X166275000Y-64000000D02*
X166275000Y-61825000D01*
D20*
%TO.N,/12V IGNITION*%
X168150000Y-57600000D02*
X168150000Y-57500000D01*
%TO.N,GND*%
X174150000Y-63000000D02*
X175850000Y-64700000D01*
X174150000Y-61000000D02*
X174150000Y-63000000D01*
%TO.N,/12V IGNITION*%
X182900000Y-47200000D02*
X182900000Y-46300000D01*
%TO.N,/12V MASTER*%
X156583000Y-46300000D02*
X160783000Y-46300000D01*
X172400000Y-43500000D02*
X184300000Y-43500000D01*
X169600000Y-46300000D02*
X172400000Y-43500000D01*
X160783000Y-46300000D02*
X169600000Y-46300000D01*
X184300000Y-43500000D02*
X187100000Y-46300000D01*
%TD*%
%TA.AperFunction,Conductor*%
%TO.N,GND*%
G36*
X191942539Y-29520185D02*
G01*
X191988294Y-29572989D01*
X191999500Y-29624500D01*
X191999500Y-72375500D01*
X191979815Y-72442539D01*
X191927011Y-72488294D01*
X191875500Y-72499500D01*
X150124500Y-72499500D01*
X150057461Y-72479815D01*
X150011706Y-72427011D01*
X150000500Y-72375500D01*
X150000500Y-64378711D01*
X152649500Y-64378711D01*
X152649500Y-64621288D01*
X152681161Y-64861785D01*
X152743947Y-65096104D01*
X152836773Y-65320205D01*
X152836777Y-65320214D01*
X152840773Y-65327135D01*
X152958064Y-65530289D01*
X152958066Y-65530292D01*
X152958067Y-65530293D01*
X153105733Y-65722736D01*
X153105739Y-65722743D01*
X153277256Y-65894260D01*
X153277262Y-65894265D01*
X153469711Y-66041936D01*
X153679788Y-66163224D01*
X153903900Y-66256054D01*
X154138211Y-66318838D01*
X154318586Y-66342584D01*
X154378711Y-66350500D01*
X154378712Y-66350500D01*
X154621289Y-66350500D01*
X154669388Y-66344167D01*
X154861789Y-66318838D01*
X155096100Y-66256054D01*
X155320212Y-66163224D01*
X155530289Y-66041936D01*
X155722738Y-65894265D01*
X155894265Y-65722738D01*
X156041936Y-65530289D01*
X156163224Y-65320212D01*
X156256054Y-65096100D01*
X156318838Y-64861789D01*
X156350500Y-64621288D01*
X156350500Y-64378712D01*
X156318838Y-64138211D01*
X156256054Y-63903900D01*
X156163224Y-63679788D01*
X156041936Y-63469711D01*
X155894265Y-63277262D01*
X155894260Y-63277256D01*
X155722743Y-63105739D01*
X155722736Y-63105733D01*
X155530293Y-62958067D01*
X155530292Y-62958066D01*
X155530289Y-62958064D01*
X155356753Y-62857873D01*
X155320214Y-62836777D01*
X155320205Y-62836773D01*
X155096104Y-62743947D01*
X154861785Y-62681161D01*
X154621289Y-62649500D01*
X154621288Y-62649500D01*
X154378712Y-62649500D01*
X154378711Y-62649500D01*
X154138214Y-62681161D01*
X153903895Y-62743947D01*
X153679794Y-62836773D01*
X153679785Y-62836777D01*
X153469706Y-62958067D01*
X153277263Y-63105733D01*
X153277256Y-63105739D01*
X153105739Y-63277256D01*
X153105733Y-63277263D01*
X152958067Y-63469706D01*
X152836777Y-63679785D01*
X152836773Y-63679794D01*
X152743947Y-63903895D01*
X152681161Y-64138214D01*
X152649500Y-64378711D01*
X150000500Y-64378711D01*
X150000500Y-45102135D01*
X154932500Y-45102135D01*
X154932500Y-47497870D01*
X154932501Y-47497876D01*
X154938908Y-47557483D01*
X154989202Y-47692328D01*
X154989206Y-47692335D01*
X155075452Y-47807544D01*
X155075455Y-47807547D01*
X155190664Y-47893793D01*
X155190671Y-47893797D01*
X155325517Y-47944091D01*
X155325516Y-47944091D01*
X155332444Y-47944835D01*
X155385127Y-47950500D01*
X157780872Y-47950499D01*
X157840483Y-47944091D01*
X157975331Y-47893796D01*
X158090546Y-47807546D01*
X158176796Y-47692331D01*
X158227091Y-47557483D01*
X158233500Y-47497873D01*
X158233500Y-47174500D01*
X158253185Y-47107461D01*
X158305989Y-47061706D01*
X158357500Y-47050500D01*
X159237012Y-47050500D01*
X159304051Y-47070185D01*
X159347496Y-47118204D01*
X159371366Y-47165051D01*
X159524069Y-47375229D01*
X159707771Y-47558931D01*
X159917949Y-47711634D01*
X160065445Y-47786787D01*
X160149423Y-47829577D01*
X160149425Y-47829577D01*
X160149428Y-47829579D01*
X160396507Y-47909860D01*
X160528706Y-47930797D01*
X160653098Y-47950500D01*
X160653103Y-47950500D01*
X160912902Y-47950500D01*
X161026298Y-47932539D01*
X161169493Y-47909860D01*
X161416572Y-47829579D01*
X161648051Y-47711634D01*
X161858229Y-47558931D01*
X162041931Y-47375229D01*
X162194634Y-47165051D01*
X162218503Y-47118204D01*
X162266477Y-47067409D01*
X162328988Y-47050500D01*
X167588770Y-47050500D01*
X167655809Y-47070185D01*
X167701564Y-47122989D01*
X167711508Y-47192147D01*
X167682483Y-47255703D01*
X167676451Y-47262181D01*
X166225451Y-48713181D01*
X166164128Y-48746666D01*
X166137770Y-48749500D01*
X160426080Y-48749500D01*
X160281092Y-48778340D01*
X160281082Y-48778343D01*
X160144511Y-48834912D01*
X160144498Y-48834919D01*
X160021584Y-48917048D01*
X160021580Y-48917051D01*
X158417050Y-50521580D01*
X158417044Y-50521588D01*
X158367812Y-50595268D01*
X158367813Y-50595269D01*
X158334921Y-50644496D01*
X158334914Y-50644508D01*
X158278342Y-50781086D01*
X158278340Y-50781092D01*
X158249500Y-50926078D01*
X158249013Y-50931025D01*
X158222851Y-50995812D01*
X158165817Y-51036171D01*
X158096016Y-51039287D01*
X158035612Y-51004172D01*
X158015125Y-50975165D01*
X157994634Y-50934949D01*
X157841931Y-50724771D01*
X157658229Y-50541069D01*
X157448643Y-50388796D01*
X157448054Y-50388368D01*
X157448053Y-50388367D01*
X157448051Y-50388366D01*
X157355803Y-50341363D01*
X157216576Y-50270422D01*
X156969493Y-50190140D01*
X156712902Y-50149500D01*
X156712897Y-50149500D01*
X156453103Y-50149500D01*
X156453098Y-50149500D01*
X156196506Y-50190140D01*
X155949423Y-50270422D01*
X155717945Y-50388368D01*
X155507774Y-50541066D01*
X155507768Y-50541071D01*
X155324071Y-50724768D01*
X155324066Y-50724774D01*
X155171368Y-50934945D01*
X155053422Y-51166423D01*
X154973140Y-51413506D01*
X154932500Y-51670097D01*
X154932500Y-51929902D01*
X154973140Y-52186493D01*
X155053422Y-52433576D01*
X155116545Y-52557460D01*
X155149648Y-52622428D01*
X155171368Y-52665054D01*
X155218383Y-52729764D01*
X155324069Y-52875229D01*
X155507771Y-53058931D01*
X155717949Y-53211634D01*
X155842557Y-53275125D01*
X155949423Y-53329577D01*
X155949425Y-53329577D01*
X155949428Y-53329579D01*
X156196507Y-53409860D01*
X156328706Y-53430797D01*
X156453098Y-53450500D01*
X156453103Y-53450500D01*
X156712902Y-53450500D01*
X156826298Y-53432539D01*
X156969493Y-53409860D01*
X157216572Y-53329579D01*
X157448051Y-53211634D01*
X157658229Y-53058931D01*
X157841931Y-52875229D01*
X157994634Y-52665051D01*
X158015015Y-52625050D01*
X158062990Y-52574255D01*
X158130811Y-52557460D01*
X158196946Y-52579998D01*
X158240397Y-52634713D01*
X158249500Y-52681346D01*
X158249500Y-65073918D01*
X158249500Y-65073920D01*
X158249499Y-65073920D01*
X158278340Y-65218907D01*
X158278343Y-65218917D01*
X158334914Y-65355492D01*
X158334915Y-65355494D01*
X158334916Y-65355495D01*
X158353183Y-65382834D01*
X158357637Y-65389499D01*
X158357638Y-65389502D01*
X158417046Y-65478414D01*
X158417052Y-65478421D01*
X159421580Y-66482948D01*
X159421584Y-66482951D01*
X159544498Y-66565080D01*
X159544511Y-66565087D01*
X159681082Y-66621656D01*
X159681087Y-66621658D01*
X159681091Y-66621658D01*
X159681092Y-66621659D01*
X159826079Y-66650500D01*
X159826082Y-66650500D01*
X159973917Y-66650500D01*
X162878271Y-66650500D01*
X162921604Y-66658318D01*
X163017517Y-66694091D01*
X163017516Y-66694091D01*
X163024444Y-66694835D01*
X163077127Y-66700500D01*
X164222872Y-66700499D01*
X164282483Y-66694091D01*
X164378396Y-66658318D01*
X164421729Y-66650500D01*
X166823920Y-66650500D01*
X166921462Y-66631096D01*
X166968913Y-66621658D01*
X167105495Y-66565084D01*
X167154729Y-66532186D01*
X167228416Y-66482952D01*
X167467889Y-66243477D01*
X167529208Y-66209995D01*
X167542309Y-66207872D01*
X167577483Y-66204091D01*
X167712331Y-66153796D01*
X167825690Y-66068935D01*
X167891152Y-66044518D01*
X167959426Y-66059369D01*
X167974303Y-66068930D01*
X168087668Y-66153795D01*
X168087671Y-66153797D01*
X168112941Y-66163222D01*
X168222517Y-66204091D01*
X168282127Y-66210500D01*
X168500766Y-66210499D01*
X168524959Y-66212882D01*
X168588391Y-66225500D01*
X168588393Y-66225500D01*
X168711608Y-66225500D01*
X168736194Y-66220609D01*
X168764553Y-66214968D01*
X168834145Y-66221195D01*
X168889323Y-66264057D01*
X168903307Y-66289132D01*
X168940604Y-66379175D01*
X168940609Y-66379185D01*
X169028210Y-66510288D01*
X169028213Y-66510292D01*
X169139707Y-66621786D01*
X169139711Y-66621789D01*
X169270814Y-66709390D01*
X169270827Y-66709397D01*
X169378020Y-66753797D01*
X169416503Y-66769737D01*
X169571153Y-66800499D01*
X169571156Y-66800500D01*
X169571158Y-66800500D01*
X169728844Y-66800500D01*
X169728845Y-66800499D01*
X169883497Y-66769737D01*
X169963413Y-66736634D01*
X170032880Y-66729166D01*
X170079850Y-66749611D01*
X170079886Y-66749546D01*
X170080615Y-66749944D01*
X170085175Y-66751929D01*
X170087668Y-66753795D01*
X170087671Y-66753797D01*
X170130404Y-66769735D01*
X170222517Y-66804091D01*
X170282127Y-66810500D01*
X171017872Y-66810499D01*
X171077483Y-66804091D01*
X171212331Y-66753796D01*
X171325690Y-66668935D01*
X171391152Y-66644518D01*
X171459426Y-66659369D01*
X171474303Y-66668930D01*
X171585175Y-66751929D01*
X171587668Y-66753795D01*
X171587671Y-66753797D01*
X171630404Y-66769735D01*
X171722517Y-66804091D01*
X171782127Y-66810500D01*
X172517872Y-66810499D01*
X172577483Y-66804091D01*
X172712331Y-66753796D01*
X172712331Y-66753795D01*
X172715508Y-66752611D01*
X172785199Y-66747627D01*
X172846522Y-66781112D01*
X174543021Y-68477611D01*
X174576506Y-68538934D01*
X174571522Y-68608624D01*
X174530909Y-68717514D01*
X174530908Y-68717516D01*
X174524501Y-68777116D01*
X174524501Y-68777123D01*
X174524500Y-68777135D01*
X174524500Y-68850500D01*
X174504815Y-68917539D01*
X174452011Y-68963294D01*
X174400500Y-68974500D01*
X173026602Y-68974500D01*
X172959563Y-68954815D01*
X172920486Y-68914651D01*
X172911727Y-68900162D01*
X172905472Y-68889815D01*
X172905471Y-68889814D01*
X172905468Y-68889810D01*
X172785188Y-68769530D01*
X172725569Y-68733489D01*
X172639606Y-68681522D01*
X172477196Y-68630914D01*
X172477194Y-68630913D01*
X172477192Y-68630913D01*
X172427778Y-68626423D01*
X172406616Y-68624500D01*
X171893384Y-68624500D01*
X171874145Y-68626248D01*
X171822807Y-68630913D01*
X171660393Y-68681522D01*
X171514811Y-68769530D01*
X171514810Y-68769531D01*
X171412681Y-68871661D01*
X171351358Y-68905146D01*
X171281666Y-68900162D01*
X171237319Y-68871661D01*
X171135188Y-68769530D01*
X171075569Y-68733489D01*
X170989606Y-68681522D01*
X170827196Y-68630914D01*
X170827194Y-68630913D01*
X170827192Y-68630913D01*
X170777778Y-68626423D01*
X170756616Y-68624500D01*
X170243384Y-68624500D01*
X170224145Y-68626248D01*
X170172807Y-68630913D01*
X170010393Y-68681522D01*
X169864811Y-68769530D01*
X169744531Y-68889810D01*
X169744528Y-68889814D01*
X169729514Y-68914651D01*
X169677986Y-68961838D01*
X169623398Y-68974500D01*
X169291401Y-68974500D01*
X169224362Y-68954815D01*
X169217088Y-68949765D01*
X169212332Y-68946204D01*
X169212328Y-68946202D01*
X169077486Y-68895910D01*
X169077485Y-68895909D01*
X169077483Y-68895909D01*
X169017873Y-68889500D01*
X169017863Y-68889500D01*
X168282129Y-68889500D01*
X168282123Y-68889501D01*
X168222516Y-68895908D01*
X168087671Y-68946202D01*
X168087669Y-68946203D01*
X167974311Y-69031064D01*
X167908847Y-69055481D01*
X167840574Y-69040630D01*
X167825689Y-69031064D01*
X167712330Y-68946203D01*
X167712328Y-68946202D01*
X167577482Y-68895908D01*
X167577483Y-68895908D01*
X167517883Y-68889501D01*
X167517881Y-68889500D01*
X167517873Y-68889500D01*
X167517865Y-68889500D01*
X166975452Y-68889500D01*
X166908413Y-68869815D01*
X166887771Y-68853181D01*
X166475793Y-68441203D01*
X166442308Y-68379880D01*
X166441887Y-68377864D01*
X166419737Y-68266503D01*
X166361480Y-68125857D01*
X166359397Y-68120827D01*
X166359390Y-68120814D01*
X166271789Y-67989711D01*
X166271786Y-67989707D01*
X166160292Y-67878213D01*
X166160288Y-67878210D01*
X166029185Y-67790609D01*
X166029172Y-67790602D01*
X165883501Y-67730264D01*
X165883489Y-67730261D01*
X165728845Y-67699500D01*
X165728842Y-67699500D01*
X165571158Y-67699500D01*
X165571155Y-67699500D01*
X165416510Y-67730261D01*
X165416498Y-67730264D01*
X165270827Y-67790602D01*
X165270814Y-67790609D01*
X165139711Y-67878210D01*
X165139707Y-67878213D01*
X165028213Y-67989707D01*
X165028210Y-67989711D01*
X164940609Y-68120814D01*
X164940602Y-68120827D01*
X164880264Y-68266498D01*
X164880261Y-68266510D01*
X164849500Y-68421153D01*
X164849500Y-68578846D01*
X164880261Y-68733489D01*
X164880264Y-68733501D01*
X164940602Y-68879172D01*
X164940609Y-68879185D01*
X165028210Y-69010288D01*
X165028213Y-69010292D01*
X165139707Y-69121786D01*
X165139711Y-69121789D01*
X165270814Y-69209390D01*
X165270827Y-69209397D01*
X165358230Y-69245599D01*
X165416503Y-69269737D01*
X165527716Y-69291858D01*
X165589623Y-69324241D01*
X165591203Y-69325793D01*
X166264139Y-69998729D01*
X166264142Y-69998733D01*
X166351267Y-70085858D01*
X166428190Y-70137256D01*
X166433990Y-70141132D01*
X166433993Y-70141134D01*
X166458780Y-70157697D01*
X166458205Y-70158556D01*
X166464572Y-70163277D01*
X166465355Y-70162232D01*
X166587664Y-70253793D01*
X166587671Y-70253797D01*
X166628677Y-70269091D01*
X166722517Y-70304091D01*
X166782127Y-70310500D01*
X167517872Y-70310499D01*
X167577483Y-70304091D01*
X167712331Y-70253796D01*
X167825690Y-70168935D01*
X167891152Y-70144518D01*
X167959426Y-70159369D01*
X167974303Y-70168930D01*
X168082912Y-70250235D01*
X168087668Y-70253795D01*
X168087671Y-70253797D01*
X168128677Y-70269091D01*
X168222517Y-70304091D01*
X168282127Y-70310500D01*
X169017872Y-70310499D01*
X169077483Y-70304091D01*
X169212331Y-70253796D01*
X169217088Y-70250235D01*
X169282552Y-70225816D01*
X169291401Y-70225500D01*
X169623398Y-70225500D01*
X169690437Y-70245185D01*
X169729514Y-70285349D01*
X169744528Y-70310185D01*
X169744531Y-70310189D01*
X169864811Y-70430469D01*
X169864813Y-70430470D01*
X169864815Y-70430472D01*
X170010394Y-70518478D01*
X170172804Y-70569086D01*
X170243384Y-70575500D01*
X170243387Y-70575500D01*
X170756613Y-70575500D01*
X170756616Y-70575500D01*
X170827196Y-70569086D01*
X170989606Y-70518478D01*
X171135185Y-70430472D01*
X171135189Y-70430468D01*
X171237319Y-70328339D01*
X171298642Y-70294854D01*
X171368334Y-70299838D01*
X171412681Y-70328339D01*
X171514811Y-70430469D01*
X171514813Y-70430470D01*
X171514815Y-70430472D01*
X171660394Y-70518478D01*
X171822804Y-70569086D01*
X171893384Y-70575500D01*
X171893387Y-70575500D01*
X172406613Y-70575500D01*
X172406616Y-70575500D01*
X172477196Y-70569086D01*
X172639606Y-70518478D01*
X172785185Y-70430472D01*
X172905472Y-70310185D01*
X172920486Y-70285349D01*
X172972014Y-70238162D01*
X173026602Y-70225500D01*
X174778271Y-70225500D01*
X174821604Y-70233318D01*
X174917517Y-70269091D01*
X174917516Y-70269091D01*
X174924444Y-70269835D01*
X174977127Y-70275500D01*
X176722872Y-70275499D01*
X176782483Y-70269091D01*
X176917331Y-70218796D01*
X177032546Y-70132546D01*
X177118796Y-70017331D01*
X177169091Y-69882483D01*
X177175500Y-69822873D01*
X177175499Y-68777128D01*
X177169091Y-68717517D01*
X177118796Y-68582669D01*
X177118795Y-68582668D01*
X177118793Y-68582664D01*
X177032547Y-68467455D01*
X177032544Y-68467452D01*
X176917335Y-68381206D01*
X176917328Y-68381202D01*
X176782482Y-68330908D01*
X176782483Y-68330908D01*
X176722883Y-68324501D01*
X176722881Y-68324500D01*
X176722873Y-68324500D01*
X176722865Y-68324500D01*
X176210452Y-68324500D01*
X176181011Y-68315855D01*
X176151025Y-68309332D01*
X176146009Y-68305577D01*
X176143413Y-68304815D01*
X176122771Y-68288181D01*
X176021770Y-68187180D01*
X175988285Y-68125857D01*
X175993269Y-68056165D01*
X176035141Y-68000232D01*
X176100605Y-67975815D01*
X176109451Y-67975499D01*
X176722871Y-67975499D01*
X176722872Y-67975499D01*
X176782483Y-67969091D01*
X176917331Y-67918796D01*
X177032546Y-67832546D01*
X177118796Y-67717331D01*
X177122960Y-67706165D01*
X177164829Y-67650234D01*
X177230293Y-67625816D01*
X177239141Y-67625500D01*
X180700501Y-67625500D01*
X180767540Y-67645185D01*
X180813295Y-67697989D01*
X180824501Y-67749500D01*
X180824501Y-68672876D01*
X180830908Y-68732483D01*
X180881202Y-68867328D01*
X180881206Y-68867335D01*
X180967452Y-68982544D01*
X180967455Y-68982547D01*
X181082664Y-69068793D01*
X181082671Y-69068797D01*
X181217517Y-69119091D01*
X181217516Y-69119091D01*
X181224444Y-69119835D01*
X181277127Y-69125500D01*
X183022872Y-69125499D01*
X183082483Y-69119091D01*
X183217331Y-69068796D01*
X183332546Y-68982546D01*
X183418796Y-68867331D01*
X183469091Y-68732483D01*
X183475500Y-68672873D01*
X183475499Y-65327128D01*
X183469091Y-65267517D01*
X183461348Y-65246758D01*
X183418797Y-65132671D01*
X183418793Y-65132664D01*
X183332547Y-65017455D01*
X183332544Y-65017452D01*
X183217335Y-64931206D01*
X183217328Y-64931202D01*
X183082482Y-64880908D01*
X183082483Y-64880908D01*
X183022883Y-64874501D01*
X183022881Y-64874500D01*
X183022873Y-64874500D01*
X183022865Y-64874500D01*
X182899500Y-64874500D01*
X182832461Y-64854815D01*
X182786706Y-64802011D01*
X182775500Y-64750500D01*
X182775500Y-64378711D01*
X186149500Y-64378711D01*
X186149500Y-64621288D01*
X186181161Y-64861785D01*
X186243947Y-65096104D01*
X186336773Y-65320205D01*
X186336777Y-65320214D01*
X186340773Y-65327135D01*
X186458064Y-65530289D01*
X186458066Y-65530292D01*
X186458067Y-65530293D01*
X186605733Y-65722736D01*
X186605739Y-65722743D01*
X186777256Y-65894260D01*
X186777262Y-65894265D01*
X186969711Y-66041936D01*
X187179788Y-66163224D01*
X187403900Y-66256054D01*
X187638211Y-66318838D01*
X187818586Y-66342584D01*
X187878711Y-66350500D01*
X187878712Y-66350500D01*
X188121289Y-66350500D01*
X188169388Y-66344167D01*
X188361789Y-66318838D01*
X188596100Y-66256054D01*
X188820212Y-66163224D01*
X189030289Y-66041936D01*
X189222738Y-65894265D01*
X189394265Y-65722738D01*
X189541936Y-65530289D01*
X189663224Y-65320212D01*
X189756054Y-65096100D01*
X189818838Y-64861789D01*
X189850500Y-64621288D01*
X189850500Y-64378712D01*
X189818838Y-64138211D01*
X189756054Y-63903900D01*
X189663224Y-63679788D01*
X189541936Y-63469711D01*
X189394265Y-63277262D01*
X189394260Y-63277256D01*
X189222743Y-63105739D01*
X189222736Y-63105733D01*
X189030293Y-62958067D01*
X189030292Y-62958066D01*
X189030289Y-62958064D01*
X188856753Y-62857873D01*
X188820214Y-62836777D01*
X188820205Y-62836773D01*
X188596104Y-62743947D01*
X188361785Y-62681161D01*
X188121289Y-62649500D01*
X188121288Y-62649500D01*
X187878712Y-62649500D01*
X187878711Y-62649500D01*
X187638214Y-62681161D01*
X187403895Y-62743947D01*
X187179794Y-62836773D01*
X187179785Y-62836777D01*
X186969706Y-62958067D01*
X186777263Y-63105733D01*
X186777256Y-63105739D01*
X186605739Y-63277256D01*
X186605733Y-63277263D01*
X186458067Y-63469706D01*
X186336777Y-63679785D01*
X186336773Y-63679794D01*
X186243947Y-63903895D01*
X186181161Y-64138214D01*
X186149500Y-64378711D01*
X182775500Y-64378711D01*
X182775500Y-61038394D01*
X182773108Y-61026371D01*
X182772156Y-61021584D01*
X182757060Y-60945689D01*
X182751463Y-60917548D01*
X182725759Y-60855494D01*
X182704312Y-60803715D01*
X182695554Y-60790609D01*
X182687257Y-60778191D01*
X182687256Y-60778190D01*
X182635858Y-60701267D01*
X182635856Y-60701264D01*
X182545637Y-60611045D01*
X182545606Y-60611016D01*
X180727898Y-58793308D01*
X180694413Y-58731985D01*
X180693962Y-58681439D01*
X180709300Y-58604332D01*
X180709300Y-58395668D01*
X180709299Y-58395667D01*
X180708738Y-58389964D01*
X180721757Y-58321318D01*
X180744457Y-58290131D01*
X185921440Y-53113149D01*
X185982761Y-53079666D01*
X186052453Y-53084650D01*
X186082004Y-53100514D01*
X186150367Y-53150182D01*
X186234949Y-53211634D01*
X186359557Y-53275125D01*
X186466423Y-53329577D01*
X186466425Y-53329577D01*
X186466428Y-53329579D01*
X186713507Y-53409860D01*
X186845706Y-53430797D01*
X186970098Y-53450500D01*
X186970103Y-53450500D01*
X187229902Y-53450500D01*
X187343298Y-53432539D01*
X187486493Y-53409860D01*
X187733572Y-53329579D01*
X187965051Y-53211634D01*
X188175229Y-53058931D01*
X188358931Y-52875229D01*
X188511634Y-52665051D01*
X188629579Y-52433572D01*
X188709860Y-52186493D01*
X188732539Y-52043298D01*
X188750500Y-51929902D01*
X188750500Y-51670097D01*
X188728947Y-51534021D01*
X188709860Y-51413507D01*
X188629579Y-51166428D01*
X188629577Y-51166425D01*
X188629577Y-51166423D01*
X188542645Y-50995812D01*
X188511634Y-50934949D01*
X188358931Y-50724771D01*
X188175229Y-50541069D01*
X187965643Y-50388796D01*
X187965054Y-50388368D01*
X187965053Y-50388367D01*
X187965051Y-50388366D01*
X187872803Y-50341363D01*
X187733576Y-50270422D01*
X187486493Y-50190140D01*
X187229902Y-50149500D01*
X187229897Y-50149500D01*
X186970103Y-50149500D01*
X186970098Y-50149500D01*
X186713506Y-50190140D01*
X186466423Y-50270422D01*
X186234945Y-50388368D01*
X186024774Y-50541066D01*
X186024768Y-50541071D01*
X185841071Y-50724768D01*
X185841066Y-50724774D01*
X185688368Y-50934945D01*
X185570422Y-51166423D01*
X185490140Y-51413506D01*
X185449500Y-51670097D01*
X185449500Y-51764547D01*
X185429815Y-51831586D01*
X185413181Y-51852228D01*
X184564146Y-52701263D01*
X184502823Y-52734748D01*
X184433131Y-52729764D01*
X184377198Y-52687892D01*
X184352781Y-52622428D01*
X184365981Y-52557286D01*
X184429115Y-52433379D01*
X184509370Y-52186377D01*
X184550000Y-51929857D01*
X184550000Y-51670142D01*
X184509370Y-51413622D01*
X184429116Y-51166622D01*
X184311203Y-50935208D01*
X184230048Y-50823506D01*
X184230046Y-50823505D01*
X183690477Y-51363075D01*
X183599076Y-51226283D01*
X183473717Y-51100924D01*
X183336924Y-51009522D01*
X183876493Y-50469952D01*
X183876492Y-50469951D01*
X183764791Y-50388796D01*
X183533377Y-50270883D01*
X183286377Y-50190629D01*
X183029857Y-50150000D01*
X182770143Y-50150000D01*
X182513622Y-50190629D01*
X182266622Y-50270883D01*
X182035215Y-50388792D01*
X181923506Y-50469952D01*
X182463076Y-51009522D01*
X182326283Y-51100924D01*
X182200924Y-51226283D01*
X182109522Y-51363076D01*
X181569952Y-50823506D01*
X181488792Y-50935215D01*
X181370883Y-51166622D01*
X181290629Y-51413622D01*
X181250000Y-51670142D01*
X181250000Y-51929857D01*
X181290629Y-52186377D01*
X181370883Y-52433377D01*
X181488796Y-52664791D01*
X181569951Y-52776492D01*
X181569952Y-52776493D01*
X182109521Y-52236923D01*
X182200924Y-52373717D01*
X182326283Y-52499076D01*
X182463075Y-52590477D01*
X181923505Y-53130046D01*
X181923506Y-53130048D01*
X182035208Y-53211203D01*
X182266622Y-53329116D01*
X182513622Y-53409370D01*
X182770143Y-53450000D01*
X183029857Y-53450000D01*
X183286377Y-53409370D01*
X183533379Y-53329115D01*
X183657285Y-53265981D01*
X183725954Y-53253084D01*
X183790695Y-53279359D01*
X183830952Y-53336465D01*
X183833945Y-53406271D01*
X183801262Y-53464146D01*
X179859869Y-57405539D01*
X179798546Y-57439024D01*
X179760041Y-57441262D01*
X179754332Y-57440700D01*
X179545668Y-57440700D01*
X179545666Y-57440700D01*
X179341019Y-57481407D01*
X179341013Y-57481409D01*
X179148231Y-57561261D01*
X178974740Y-57677184D01*
X178974732Y-57677190D01*
X178827190Y-57824732D01*
X178827184Y-57824740D01*
X178711261Y-57998231D01*
X178631409Y-58191013D01*
X178631407Y-58191019D01*
X178590700Y-58395665D01*
X178590700Y-58395668D01*
X178590700Y-58604332D01*
X178590700Y-58604334D01*
X178590699Y-58604334D01*
X178631407Y-58808980D01*
X178631409Y-58808986D01*
X178711261Y-59001768D01*
X178827184Y-59175259D01*
X178827190Y-59175267D01*
X178974732Y-59322809D01*
X178974740Y-59322815D01*
X179148231Y-59438738D01*
X179170283Y-59447872D01*
X179341014Y-59518591D01*
X179341018Y-59518591D01*
X179341019Y-59518592D01*
X179545665Y-59559300D01*
X179545668Y-59559300D01*
X179673348Y-59559300D01*
X179740387Y-59578985D01*
X179761029Y-59595619D01*
X181488181Y-61322771D01*
X181521666Y-61384094D01*
X181524500Y-61410452D01*
X181524500Y-64750500D01*
X181504815Y-64817539D01*
X181452011Y-64863294D01*
X181400501Y-64874500D01*
X181277130Y-64874500D01*
X181277123Y-64874501D01*
X181217516Y-64880908D01*
X181082671Y-64931202D01*
X181082664Y-64931206D01*
X180967455Y-65017452D01*
X180967452Y-65017455D01*
X180881206Y-65132664D01*
X180881202Y-65132671D01*
X180830908Y-65267517D01*
X180825244Y-65320205D01*
X180824501Y-65327123D01*
X180824500Y-65327135D01*
X180824500Y-66250500D01*
X180804815Y-66317539D01*
X180752011Y-66363294D01*
X180700500Y-66374500D01*
X177239141Y-66374500D01*
X177172102Y-66354815D01*
X177126347Y-66302011D01*
X177122969Y-66293859D01*
X177118796Y-66282669D01*
X177118793Y-66282665D01*
X177118793Y-66282664D01*
X177032547Y-66167455D01*
X177032544Y-66167452D01*
X176917335Y-66081206D01*
X176917328Y-66081202D01*
X176782482Y-66030908D01*
X176782483Y-66030908D01*
X176722883Y-66024501D01*
X176722881Y-66024500D01*
X176722873Y-66024500D01*
X176722864Y-66024500D01*
X174977129Y-66024500D01*
X174977123Y-66024501D01*
X174917516Y-66030908D01*
X174782671Y-66081202D01*
X174782664Y-66081206D01*
X174667455Y-66167452D01*
X174667452Y-66167455D01*
X174581206Y-66282664D01*
X174581202Y-66282671D01*
X174530908Y-66417517D01*
X174529126Y-66425062D01*
X174526250Y-66424382D01*
X174504767Y-66476167D01*
X174447352Y-66515983D01*
X174377526Y-66518438D01*
X174320578Y-66485988D01*
X173543421Y-65708831D01*
X173535860Y-65701270D01*
X173535858Y-65701267D01*
X173448733Y-65614142D01*
X173388534Y-65573918D01*
X173346286Y-65545688D01*
X173265792Y-65512347D01*
X173232452Y-65498537D01*
X173232448Y-65498536D01*
X173232444Y-65498535D01*
X173131294Y-65478415D01*
X173131293Y-65478415D01*
X173111611Y-65474500D01*
X173111607Y-65474500D01*
X173111606Y-65474500D01*
X172791401Y-65474500D01*
X172724362Y-65454815D01*
X172717088Y-65449765D01*
X172712332Y-65446204D01*
X172712328Y-65446202D01*
X172577486Y-65395910D01*
X172577485Y-65395909D01*
X172577483Y-65395909D01*
X172517873Y-65389500D01*
X172517863Y-65389500D01*
X171782129Y-65389500D01*
X171782123Y-65389501D01*
X171722516Y-65395908D01*
X171587671Y-65446202D01*
X171587669Y-65446203D01*
X171474311Y-65531064D01*
X171408847Y-65555481D01*
X171340574Y-65540630D01*
X171325689Y-65531064D01*
X171300686Y-65512347D01*
X171212331Y-65446204D01*
X171212330Y-65446203D01*
X171212328Y-65446202D01*
X171077486Y-65395910D01*
X171077485Y-65395909D01*
X171077483Y-65395909D01*
X171017873Y-65389500D01*
X171017863Y-65389500D01*
X170282129Y-65389500D01*
X170282120Y-65389501D01*
X170236462Y-65394409D01*
X170211511Y-65389906D01*
X170186157Y-65389454D01*
X170172322Y-65382834D01*
X170167702Y-65382001D01*
X170154319Y-65374221D01*
X170043793Y-65300370D01*
X169998988Y-65246758D01*
X169995984Y-65222844D01*
X174525000Y-65222844D01*
X174531401Y-65282372D01*
X174531403Y-65282379D01*
X174581645Y-65417086D01*
X174581649Y-65417093D01*
X174667809Y-65532187D01*
X174667812Y-65532190D01*
X174782906Y-65618350D01*
X174782913Y-65618354D01*
X174917620Y-65668596D01*
X174917627Y-65668598D01*
X174977155Y-65674999D01*
X174977172Y-65675000D01*
X175600000Y-65675000D01*
X176100000Y-65675000D01*
X176722828Y-65675000D01*
X176722844Y-65674999D01*
X176782372Y-65668598D01*
X176782379Y-65668596D01*
X176917086Y-65618354D01*
X176917093Y-65618350D01*
X177032187Y-65532190D01*
X177032190Y-65532187D01*
X177118350Y-65417093D01*
X177118354Y-65417086D01*
X177168596Y-65282379D01*
X177168598Y-65282372D01*
X177174999Y-65222844D01*
X177175000Y-65222827D01*
X177175000Y-64950000D01*
X176100000Y-64950000D01*
X176100000Y-65675000D01*
X175600000Y-65675000D01*
X175600000Y-64950000D01*
X174525000Y-64950000D01*
X174525000Y-65222844D01*
X169995984Y-65222844D01*
X169990281Y-65177433D01*
X170020435Y-65114406D01*
X170024994Y-65109596D01*
X170135858Y-64998733D01*
X170204312Y-64896285D01*
X170248543Y-64789501D01*
X170251463Y-64782452D01*
X170265995Y-64709394D01*
X170270748Y-64685500D01*
X170275501Y-64661607D01*
X170275501Y-64533283D01*
X170275500Y-64533257D01*
X170275500Y-64410451D01*
X170295185Y-64343412D01*
X170311814Y-64322774D01*
X170457433Y-64177155D01*
X174525000Y-64177155D01*
X174525000Y-64450000D01*
X175600000Y-64450000D01*
X176100000Y-64450000D01*
X177175000Y-64450000D01*
X177175000Y-64177172D01*
X177174999Y-64177155D01*
X177168598Y-64117627D01*
X177168596Y-64117620D01*
X177118354Y-63982913D01*
X177118350Y-63982906D01*
X177032190Y-63867812D01*
X177032187Y-63867809D01*
X176917093Y-63781649D01*
X176917086Y-63781645D01*
X176782379Y-63731403D01*
X176782372Y-63731401D01*
X176722844Y-63725000D01*
X176100000Y-63725000D01*
X176100000Y-64450000D01*
X175600000Y-64450000D01*
X175600000Y-63725000D01*
X174977155Y-63725000D01*
X174917627Y-63731401D01*
X174917620Y-63731403D01*
X174782913Y-63781645D01*
X174782906Y-63781649D01*
X174667812Y-63867809D01*
X174667809Y-63867812D01*
X174581649Y-63982906D01*
X174581645Y-63982913D01*
X174531403Y-64117620D01*
X174531401Y-64117627D01*
X174525000Y-64177155D01*
X170457433Y-64177155D01*
X171287771Y-63346817D01*
X171349094Y-63313333D01*
X171375452Y-63310499D01*
X172017871Y-63310499D01*
X172017872Y-63310499D01*
X172077483Y-63304091D01*
X172212331Y-63253796D01*
X172327546Y-63167546D01*
X172413796Y-63052331D01*
X172464091Y-62917483D01*
X172470500Y-62857873D01*
X172470499Y-62715451D01*
X172490183Y-62648412D01*
X172506809Y-62627779D01*
X173135858Y-61998733D01*
X173204312Y-61896285D01*
X173251463Y-61782451D01*
X173275501Y-61661606D01*
X173275501Y-61538393D01*
X173275501Y-61533283D01*
X173275500Y-61533257D01*
X173275500Y-60038394D01*
X173274716Y-60034452D01*
X173272156Y-60021584D01*
X173251463Y-59917549D01*
X173251255Y-59917048D01*
X173220914Y-59843796D01*
X173204312Y-59803715D01*
X173186094Y-59776450D01*
X173168087Y-59749500D01*
X173168084Y-59749497D01*
X173135859Y-59701268D01*
X173135855Y-59701263D01*
X173045637Y-59611045D01*
X173045606Y-59611016D01*
X172643150Y-59208560D01*
X172635860Y-59201270D01*
X172635858Y-59201267D01*
X172548733Y-59114142D01*
X172497509Y-59079915D01*
X172446286Y-59045688D01*
X172340247Y-59001766D01*
X172332452Y-58998537D01*
X172231294Y-58978416D01*
X172229527Y-58978064D01*
X172229477Y-58978053D01*
X172211611Y-58974500D01*
X172211607Y-58974500D01*
X172211606Y-58974500D01*
X170960452Y-58974500D01*
X170893413Y-58954815D01*
X170872771Y-58938181D01*
X170661819Y-58727229D01*
X170647115Y-58700301D01*
X170630523Y-58674483D01*
X170629631Y-58668282D01*
X170628334Y-58665906D01*
X170625500Y-58639548D01*
X170625500Y-58491519D01*
X170645185Y-58424480D01*
X170661813Y-58403843D01*
X170737321Y-58328335D01*
X170798640Y-58294853D01*
X170868332Y-58299837D01*
X170912680Y-58328338D01*
X171014811Y-58430469D01*
X171014813Y-58430470D01*
X171014815Y-58430472D01*
X171160394Y-58518478D01*
X171322804Y-58569086D01*
X171393384Y-58575500D01*
X171393387Y-58575500D01*
X171906613Y-58575500D01*
X171906616Y-58575500D01*
X171977196Y-58569086D01*
X172139606Y-58518478D01*
X172285185Y-58430472D01*
X172405472Y-58310185D01*
X172420486Y-58285349D01*
X172472014Y-58238162D01*
X172526602Y-58225500D01*
X175799548Y-58225500D01*
X175828988Y-58234144D01*
X175858975Y-58240668D01*
X175863990Y-58244422D01*
X175866587Y-58245185D01*
X175887229Y-58261819D01*
X176014381Y-58388971D01*
X176047866Y-58450294D01*
X176050700Y-58476652D01*
X176050700Y-58604332D01*
X176050700Y-58604334D01*
X176050699Y-58604334D01*
X176091407Y-58808980D01*
X176091409Y-58808986D01*
X176171261Y-59001768D01*
X176287184Y-59175259D01*
X176287190Y-59175267D01*
X176434732Y-59322809D01*
X176434740Y-59322815D01*
X176608231Y-59438738D01*
X176630283Y-59447872D01*
X176801014Y-59518591D01*
X176801018Y-59518591D01*
X176801019Y-59518592D01*
X177005665Y-59559300D01*
X177005668Y-59559300D01*
X177214334Y-59559300D01*
X177352014Y-59531912D01*
X177418986Y-59518591D01*
X177611766Y-59438739D01*
X177611766Y-59438738D01*
X177611768Y-59438738D01*
X177697933Y-59381163D01*
X177785264Y-59322812D01*
X177932812Y-59175264D01*
X177999499Y-59075459D01*
X178048738Y-59001768D01*
X178060033Y-58974500D01*
X178128591Y-58808986D01*
X178152078Y-58690910D01*
X178169300Y-58604334D01*
X178169300Y-58395665D01*
X178128592Y-58191019D01*
X178128591Y-58191018D01*
X178128591Y-58191014D01*
X178048739Y-57998234D01*
X178048738Y-57998231D01*
X177932815Y-57824740D01*
X177932809Y-57824732D01*
X177785267Y-57677190D01*
X177785259Y-57677184D01*
X177611768Y-57561261D01*
X177418986Y-57481409D01*
X177418980Y-57481407D01*
X177214334Y-57440700D01*
X177214332Y-57440700D01*
X177005668Y-57440700D01*
X176959878Y-57449808D01*
X176928562Y-57456037D01*
X176858971Y-57449808D01*
X176816691Y-57422100D01*
X176605822Y-57211232D01*
X176595859Y-57201269D01*
X176595858Y-57201267D01*
X176508733Y-57114142D01*
X176457509Y-57079915D01*
X176406286Y-57045688D01*
X176406283Y-57045686D01*
X176406280Y-57045685D01*
X176332603Y-57015168D01*
X176332601Y-57015167D01*
X176325792Y-57012347D01*
X176292452Y-56998537D01*
X176232029Y-56986518D01*
X176227306Y-56985578D01*
X176227304Y-56985578D01*
X176171610Y-56974500D01*
X176171607Y-56974500D01*
X176171606Y-56974500D01*
X172526602Y-56974500D01*
X172459563Y-56954815D01*
X172420486Y-56914651D01*
X172405471Y-56889814D01*
X172405468Y-56889810D01*
X172285188Y-56769530D01*
X172139606Y-56681522D01*
X171977196Y-56630914D01*
X171977194Y-56630913D01*
X171977192Y-56630913D01*
X171927778Y-56626423D01*
X171906616Y-56624500D01*
X171393384Y-56624500D01*
X171374145Y-56626248D01*
X171322807Y-56630913D01*
X171160393Y-56681522D01*
X171014811Y-56769530D01*
X171014810Y-56769531D01*
X170912681Y-56871661D01*
X170851358Y-56905146D01*
X170781666Y-56900162D01*
X170737319Y-56871661D01*
X170635188Y-56769530D01*
X170489606Y-56681522D01*
X170327196Y-56630914D01*
X170327194Y-56630913D01*
X170327192Y-56630913D01*
X170277778Y-56626423D01*
X170256616Y-56624500D01*
X170256613Y-56624500D01*
X169874500Y-56624500D01*
X169807461Y-56604815D01*
X169761706Y-56552011D01*
X169750500Y-56500500D01*
X169750500Y-55426079D01*
X169721659Y-55281092D01*
X169721658Y-55281091D01*
X169721658Y-55281087D01*
X169665084Y-55144505D01*
X169632186Y-55095270D01*
X169632185Y-55095268D01*
X169582956Y-55021589D01*
X169582952Y-55021584D01*
X169398549Y-54837181D01*
X169365064Y-54775858D01*
X169370048Y-54706166D01*
X169411920Y-54650233D01*
X169477384Y-54625816D01*
X169486230Y-54625500D01*
X171661607Y-54625500D01*
X171722029Y-54613481D01*
X171782452Y-54601463D01*
X171821398Y-54585331D01*
X171896286Y-54554312D01*
X171947509Y-54520084D01*
X171998733Y-54485858D01*
X172085858Y-54398733D01*
X172085859Y-54398731D01*
X172092925Y-54391665D01*
X172092928Y-54391661D01*
X173104080Y-53380508D01*
X173165401Y-53347025D01*
X173230077Y-53350260D01*
X173413507Y-53409860D01*
X173515781Y-53426058D01*
X173670098Y-53450500D01*
X173670103Y-53450500D01*
X173929902Y-53450500D01*
X174043298Y-53432539D01*
X174186493Y-53409860D01*
X174433572Y-53329579D01*
X174665051Y-53211634D01*
X174875229Y-53058931D01*
X175058931Y-52875229D01*
X175211634Y-52665051D01*
X175329579Y-52433572D01*
X175409860Y-52186493D01*
X175432539Y-52043298D01*
X175450500Y-51929902D01*
X175450500Y-51670097D01*
X175428947Y-51534021D01*
X175409860Y-51413507D01*
X175329579Y-51166428D01*
X175329577Y-51166425D01*
X175329577Y-51166423D01*
X175242645Y-50995812D01*
X175211634Y-50934949D01*
X175058931Y-50724771D01*
X174875229Y-50541069D01*
X174665643Y-50388796D01*
X174665054Y-50388368D01*
X174665053Y-50388367D01*
X174665051Y-50388366D01*
X174572803Y-50341363D01*
X174433576Y-50270422D01*
X174186493Y-50190140D01*
X173929902Y-50149500D01*
X173929897Y-50149500D01*
X173670103Y-50149500D01*
X173670098Y-50149500D01*
X173413506Y-50190140D01*
X173166423Y-50270422D01*
X172934945Y-50388368D01*
X172724774Y-50541066D01*
X172724768Y-50541071D01*
X172541071Y-50724768D01*
X172541066Y-50724774D01*
X172388368Y-50934945D01*
X172270422Y-51166423D01*
X172190140Y-51413506D01*
X172149500Y-51670097D01*
X172149500Y-51929902D01*
X172190140Y-52186494D01*
X172190140Y-52186497D01*
X172249739Y-52369920D01*
X172251734Y-52439761D01*
X172219489Y-52495919D01*
X171377229Y-53338181D01*
X171315906Y-53371666D01*
X171289548Y-53374500D01*
X170621665Y-53374500D01*
X170554626Y-53354815D01*
X170508871Y-53302011D01*
X170498927Y-53232853D01*
X170527952Y-53169297D01*
X170548779Y-53150182D01*
X170576492Y-53130046D01*
X170576493Y-53130046D01*
X170036924Y-52590477D01*
X170173717Y-52499076D01*
X170299076Y-52373717D01*
X170390477Y-52236924D01*
X170930046Y-52776493D01*
X170930046Y-52776492D01*
X171011205Y-52664788D01*
X171129116Y-52433377D01*
X171209370Y-52186377D01*
X171250000Y-51929857D01*
X171250000Y-51670142D01*
X171209370Y-51413622D01*
X171129116Y-51166622D01*
X171011203Y-50935208D01*
X170930048Y-50823506D01*
X170930046Y-50823505D01*
X170390477Y-51363074D01*
X170299076Y-51226283D01*
X170173717Y-51100924D01*
X170036924Y-51009522D01*
X170576493Y-50469952D01*
X170576492Y-50469951D01*
X170464791Y-50388796D01*
X170233377Y-50270883D01*
X169986377Y-50190629D01*
X169729857Y-50150000D01*
X169470143Y-50150000D01*
X169213622Y-50190629D01*
X168966622Y-50270883D01*
X168735215Y-50388792D01*
X168623506Y-50469952D01*
X169163076Y-51009522D01*
X169026283Y-51100924D01*
X168900924Y-51226283D01*
X168809522Y-51363076D01*
X168269952Y-50823506D01*
X168188792Y-50935215D01*
X168070883Y-51166622D01*
X167990629Y-51413622D01*
X167950000Y-51670142D01*
X167950000Y-51929857D01*
X167990629Y-52186377D01*
X168070883Y-52433377D01*
X168188796Y-52664791D01*
X168269951Y-52776492D01*
X168269952Y-52776493D01*
X168809521Y-52236923D01*
X168900924Y-52373717D01*
X169026283Y-52499076D01*
X169163075Y-52590477D01*
X168623505Y-53130046D01*
X168623506Y-53130048D01*
X168651218Y-53150182D01*
X168693884Y-53205512D01*
X168699863Y-53275125D01*
X168667257Y-53336920D01*
X168606419Y-53371277D01*
X168578333Y-53374500D01*
X167438389Y-53374500D01*
X167377971Y-53386518D01*
X167334743Y-53395116D01*
X167317546Y-53398537D01*
X167203716Y-53445687D01*
X167203707Y-53445692D01*
X167101268Y-53514140D01*
X167057705Y-53557703D01*
X167014142Y-53601267D01*
X167014139Y-53601270D01*
X165052880Y-55562530D01*
X163127229Y-57488181D01*
X163065906Y-57521666D01*
X163039548Y-57524500D01*
X162415954Y-57524500D01*
X162348915Y-57504815D01*
X162339842Y-57497504D01*
X162339645Y-57497768D01*
X162217335Y-57406206D01*
X162217328Y-57406202D01*
X162082482Y-57355908D01*
X162082483Y-57355908D01*
X162022883Y-57349501D01*
X162022881Y-57349500D01*
X162022873Y-57349500D01*
X162022864Y-57349500D01*
X160877129Y-57349500D01*
X160877123Y-57349501D01*
X160817516Y-57355908D01*
X160682671Y-57406202D01*
X160682664Y-57406206D01*
X160567455Y-57492452D01*
X160567452Y-57492455D01*
X160481206Y-57607664D01*
X160481202Y-57607671D01*
X160455274Y-57677190D01*
X160430909Y-57742517D01*
X160424500Y-57802127D01*
X160424500Y-57802134D01*
X160424500Y-57802135D01*
X160424500Y-58497870D01*
X160424501Y-58497876D01*
X160430908Y-58557483D01*
X160481202Y-58692328D01*
X160481206Y-58692335D01*
X160567452Y-58807544D01*
X160567455Y-58807547D01*
X160682664Y-58893793D01*
X160682671Y-58893797D01*
X160817517Y-58944091D01*
X160817516Y-58944091D01*
X160824444Y-58944835D01*
X160877127Y-58950500D01*
X162022872Y-58950499D01*
X162082483Y-58944091D01*
X162217331Y-58893796D01*
X162328110Y-58810867D01*
X162339645Y-58802232D01*
X162341439Y-58804629D01*
X162355200Y-58797115D01*
X162381019Y-58780523D01*
X162387219Y-58779631D01*
X162389596Y-58778334D01*
X162415954Y-58775500D01*
X162500500Y-58775500D01*
X162567539Y-58795185D01*
X162613294Y-58847989D01*
X162624500Y-58899500D01*
X162624500Y-59410732D01*
X162604815Y-59477771D01*
X162552011Y-59523526D01*
X162482853Y-59533470D01*
X162419297Y-59504445D01*
X162401233Y-59485043D01*
X162332186Y-59392809D01*
X162217093Y-59306649D01*
X162217086Y-59306645D01*
X162082379Y-59256403D01*
X162082372Y-59256401D01*
X162022844Y-59250000D01*
X161700000Y-59250000D01*
X161700000Y-59800000D01*
X162475000Y-59800000D01*
X162475000Y-59739434D01*
X162494685Y-59672395D01*
X162547489Y-59626640D01*
X162616647Y-59616696D01*
X162680203Y-59645721D01*
X162698262Y-59665118D01*
X162767454Y-59757546D01*
X162813643Y-59792123D01*
X162882664Y-59843793D01*
X162882669Y-59843796D01*
X162943833Y-59866608D01*
X162999766Y-59908478D01*
X163024184Y-59973942D01*
X163024500Y-59982790D01*
X163024500Y-60061611D01*
X163048535Y-60182444D01*
X163048540Y-60182461D01*
X163095685Y-60296280D01*
X163095687Y-60296283D01*
X163095688Y-60296286D01*
X163129915Y-60347509D01*
X163164142Y-60398733D01*
X163251267Y-60485858D01*
X163251269Y-60485859D01*
X163261232Y-60495822D01*
X164324205Y-61558796D01*
X164357690Y-61620119D01*
X164358141Y-61622286D01*
X164380261Y-61733489D01*
X164380264Y-61733501D01*
X164440602Y-61879172D01*
X164440609Y-61879185D01*
X164528210Y-62010288D01*
X164528213Y-62010292D01*
X164639707Y-62121786D01*
X164639711Y-62121789D01*
X164770814Y-62209390D01*
X164770827Y-62209397D01*
X164879425Y-62254379D01*
X164916503Y-62269737D01*
X165042774Y-62294854D01*
X165071153Y-62300499D01*
X165071156Y-62300500D01*
X165071158Y-62300500D01*
X165228844Y-62300500D01*
X165228845Y-62300499D01*
X165383497Y-62269737D01*
X165478048Y-62230572D01*
X165547517Y-62223104D01*
X165609996Y-62254379D01*
X165645648Y-62314468D01*
X165649500Y-62345134D01*
X165649500Y-63457650D01*
X165629815Y-63524689D01*
X165628602Y-63526541D01*
X165565609Y-63620815D01*
X165565602Y-63620828D01*
X165505264Y-63766498D01*
X165505261Y-63766508D01*
X165483141Y-63877714D01*
X165450756Y-63939625D01*
X165449206Y-63941203D01*
X165128227Y-64262182D01*
X165066906Y-64295666D01*
X165040548Y-64298500D01*
X164774862Y-64298500D01*
X164707823Y-64278815D01*
X164687181Y-64262181D01*
X164675000Y-64250000D01*
X162625000Y-64250000D01*
X162612819Y-64262181D01*
X162585891Y-64276884D01*
X162560073Y-64293477D01*
X162553872Y-64294368D01*
X162551496Y-64295666D01*
X162525138Y-64298500D01*
X162381894Y-64298500D01*
X162314855Y-64278815D01*
X162307583Y-64273767D01*
X162292106Y-64262181D01*
X162217331Y-64206204D01*
X162217330Y-64206203D01*
X162217328Y-64206202D01*
X162082482Y-64155908D01*
X162082483Y-64155908D01*
X162022883Y-64149501D01*
X162022881Y-64149500D01*
X162022873Y-64149500D01*
X162022864Y-64149500D01*
X160877129Y-64149500D01*
X160877123Y-64149501D01*
X160817516Y-64155908D01*
X160682671Y-64206202D01*
X160682664Y-64206206D01*
X160567455Y-64292452D01*
X160567452Y-64292455D01*
X160481206Y-64407664D01*
X160481202Y-64407671D01*
X160434353Y-64533283D01*
X160430909Y-64542517D01*
X160424500Y-64602127D01*
X160424500Y-64874501D01*
X160424501Y-65025500D01*
X160421950Y-65034186D01*
X160423239Y-65043147D01*
X160412261Y-65067183D01*
X160404817Y-65092539D01*
X160397974Y-65098467D01*
X160394214Y-65106703D01*
X160371982Y-65120989D01*
X160352013Y-65138294D01*
X160341497Y-65140581D01*
X160335436Y-65144477D01*
X160300501Y-65149500D01*
X160262229Y-65149500D01*
X160195190Y-65129815D01*
X160174548Y-65113181D01*
X159786819Y-64725451D01*
X159753334Y-64664128D01*
X159750500Y-64637770D01*
X159750500Y-63652155D01*
X162625000Y-63652155D01*
X162625000Y-63750000D01*
X163400000Y-63750000D01*
X163900000Y-63750000D01*
X164675000Y-63750000D01*
X164675000Y-63652172D01*
X164674999Y-63652155D01*
X164668598Y-63592627D01*
X164668596Y-63592620D01*
X164618354Y-63457913D01*
X164618350Y-63457906D01*
X164532190Y-63342812D01*
X164532187Y-63342809D01*
X164417093Y-63256649D01*
X164417086Y-63256645D01*
X164282379Y-63206403D01*
X164282372Y-63206401D01*
X164222844Y-63200000D01*
X163900000Y-63200000D01*
X163900000Y-63750000D01*
X163400000Y-63750000D01*
X163400000Y-63200000D01*
X163077155Y-63200000D01*
X163017627Y-63206401D01*
X163017620Y-63206403D01*
X162882913Y-63256645D01*
X162882906Y-63256649D01*
X162767812Y-63342809D01*
X162767809Y-63342812D01*
X162681649Y-63457906D01*
X162681645Y-63457913D01*
X162631403Y-63592620D01*
X162631401Y-63592627D01*
X162625000Y-63652155D01*
X159750500Y-63652155D01*
X159750500Y-60397844D01*
X160425000Y-60397844D01*
X160431401Y-60457372D01*
X160431403Y-60457379D01*
X160481645Y-60592086D01*
X160481649Y-60592093D01*
X160567809Y-60707187D01*
X160567812Y-60707190D01*
X160682906Y-60793350D01*
X160682913Y-60793354D01*
X160817620Y-60843596D01*
X160817627Y-60843598D01*
X160877155Y-60849999D01*
X160877172Y-60850000D01*
X161200000Y-60850000D01*
X161700000Y-60850000D01*
X162022828Y-60850000D01*
X162022844Y-60849999D01*
X162082372Y-60843598D01*
X162082379Y-60843596D01*
X162217086Y-60793354D01*
X162217093Y-60793350D01*
X162332187Y-60707190D01*
X162332190Y-60707187D01*
X162418350Y-60592093D01*
X162418354Y-60592086D01*
X162468596Y-60457379D01*
X162468598Y-60457372D01*
X162474999Y-60397844D01*
X162475000Y-60397827D01*
X162475000Y-60300000D01*
X161700000Y-60300000D01*
X161700000Y-60850000D01*
X161200000Y-60850000D01*
X161200000Y-60300000D01*
X160425000Y-60300000D01*
X160425000Y-60397844D01*
X159750500Y-60397844D01*
X159750500Y-59702155D01*
X160425000Y-59702155D01*
X160425000Y-59800000D01*
X161200000Y-59800000D01*
X161200000Y-59250000D01*
X160877155Y-59250000D01*
X160817627Y-59256401D01*
X160817620Y-59256403D01*
X160682913Y-59306645D01*
X160682906Y-59306649D01*
X160567812Y-59392809D01*
X160567809Y-59392812D01*
X160481649Y-59507906D01*
X160481645Y-59507913D01*
X160431403Y-59642620D01*
X160431401Y-59642627D01*
X160425000Y-59702155D01*
X159750500Y-59702155D01*
X159750500Y-53328664D01*
X159770185Y-53261625D01*
X159822989Y-53215870D01*
X159892147Y-53205926D01*
X159930792Y-53218178D01*
X159999299Y-53253084D01*
X160149423Y-53329577D01*
X160149425Y-53329577D01*
X160149428Y-53329579D01*
X160396507Y-53409860D01*
X160528706Y-53430797D01*
X160653098Y-53450500D01*
X160653103Y-53450500D01*
X160912902Y-53450500D01*
X161026298Y-53432539D01*
X161169493Y-53409860D01*
X161416572Y-53329579D01*
X161648051Y-53211634D01*
X161858229Y-53058931D01*
X162041931Y-52875229D01*
X162194634Y-52665051D01*
X162312579Y-52433572D01*
X162392860Y-52186493D01*
X162415539Y-52043298D01*
X162433500Y-51929902D01*
X162433500Y-51670097D01*
X162411947Y-51534021D01*
X162392860Y-51413507D01*
X162312579Y-51166428D01*
X162312577Y-51166425D01*
X162312577Y-51166423D01*
X162225645Y-50995812D01*
X162194634Y-50934949D01*
X162041931Y-50724771D01*
X161858229Y-50541069D01*
X161763502Y-50472246D01*
X161760148Y-50469427D01*
X161743144Y-50443826D01*
X161724377Y-50419488D01*
X161723990Y-50414988D01*
X161721491Y-50411225D01*
X161721027Y-50380492D01*
X161718398Y-50349874D01*
X161720506Y-50345878D01*
X161720438Y-50341363D01*
X161736661Y-50315261D01*
X161751004Y-50288079D01*
X161754936Y-50285858D01*
X161757321Y-50282022D01*
X161785081Y-50268834D01*
X161811843Y-50253722D01*
X161818504Y-50252957D01*
X161820432Y-50252042D01*
X161823288Y-50252408D01*
X161839928Y-50250500D01*
X166573920Y-50250500D01*
X166671462Y-50231096D01*
X166718913Y-50221658D01*
X166855495Y-50165084D01*
X166904729Y-50132186D01*
X166978416Y-50082952D01*
X169074549Y-47986817D01*
X169135872Y-47953333D01*
X169162230Y-47950499D01*
X170797871Y-47950499D01*
X170797872Y-47950499D01*
X170857483Y-47944091D01*
X170992331Y-47893796D01*
X171107546Y-47807546D01*
X171193796Y-47692331D01*
X171244091Y-47557483D01*
X171250500Y-47497873D01*
X171250499Y-46170097D01*
X172149500Y-46170097D01*
X172149500Y-46429902D01*
X172190140Y-46686493D01*
X172270422Y-46933576D01*
X172329999Y-47050500D01*
X172388366Y-47165051D01*
X172541069Y-47375229D01*
X172724771Y-47558931D01*
X172934949Y-47711634D01*
X173082445Y-47786787D01*
X173166423Y-47829577D01*
X173166425Y-47829577D01*
X173166428Y-47829579D01*
X173413507Y-47909860D01*
X173545706Y-47930797D01*
X173670098Y-47950500D01*
X173670103Y-47950500D01*
X173929902Y-47950500D01*
X174043298Y-47932539D01*
X174186493Y-47909860D01*
X174433572Y-47829579D01*
X174665051Y-47711634D01*
X174875229Y-47558931D01*
X175058931Y-47375229D01*
X175211634Y-47165051D01*
X175329579Y-46933572D01*
X175409860Y-46686493D01*
X175432539Y-46543298D01*
X175450500Y-46429902D01*
X175450500Y-46170097D01*
X175428947Y-46034021D01*
X175409860Y-45913507D01*
X175329579Y-45666428D01*
X175329577Y-45666425D01*
X175329577Y-45666423D01*
X175259971Y-45529815D01*
X175211634Y-45434949D01*
X175058931Y-45224771D01*
X174875229Y-45041069D01*
X174875225Y-45041066D01*
X174665054Y-44888368D01*
X174665053Y-44888367D01*
X174665051Y-44888366D01*
X174592764Y-44851534D01*
X174433576Y-44770422D01*
X174186493Y-44690140D01*
X173929902Y-44649500D01*
X173929897Y-44649500D01*
X173670103Y-44649500D01*
X173670098Y-44649500D01*
X173413506Y-44690140D01*
X173166423Y-44770422D01*
X172934945Y-44888368D01*
X172724774Y-45041066D01*
X172724768Y-45041071D01*
X172541071Y-45224768D01*
X172541066Y-45224774D01*
X172388368Y-45434945D01*
X172270422Y-45666423D01*
X172190140Y-45913506D01*
X172149500Y-46170097D01*
X171250499Y-46170097D01*
X171250499Y-45762228D01*
X171270184Y-45695190D01*
X171286813Y-45674553D01*
X172674549Y-44286819D01*
X172735872Y-44253334D01*
X172762230Y-44250500D01*
X183937770Y-44250500D01*
X183967210Y-44259144D01*
X183997197Y-44265668D01*
X184002212Y-44269422D01*
X184004809Y-44270185D01*
X184025451Y-44286819D01*
X184176451Y-44437819D01*
X184209936Y-44499142D01*
X184204952Y-44568834D01*
X184163080Y-44624767D01*
X184097616Y-44649184D01*
X184088770Y-44649500D01*
X181702129Y-44649500D01*
X181702123Y-44649501D01*
X181642516Y-44655908D01*
X181507671Y-44706202D01*
X181507664Y-44706206D01*
X181392455Y-44792452D01*
X181392452Y-44792455D01*
X181306206Y-44907664D01*
X181306202Y-44907671D01*
X181255908Y-45042517D01*
X181249501Y-45102116D01*
X181249501Y-45102123D01*
X181249500Y-45102135D01*
X181249500Y-47497870D01*
X181249501Y-47497876D01*
X181255908Y-47557483D01*
X181306202Y-47692328D01*
X181306206Y-47692335D01*
X181392452Y-47807544D01*
X181392455Y-47807547D01*
X181507664Y-47893793D01*
X181507671Y-47893797D01*
X181642517Y-47944091D01*
X181642516Y-47944091D01*
X181649444Y-47944835D01*
X181702127Y-47950500D01*
X182826079Y-47950499D01*
X182826082Y-47950500D01*
X182973918Y-47950500D01*
X182973920Y-47950499D01*
X184097872Y-47950499D01*
X184157483Y-47944091D01*
X184292331Y-47893796D01*
X184407546Y-47807546D01*
X184493796Y-47692331D01*
X184544091Y-47557483D01*
X184550500Y-47497873D01*
X184550499Y-45111228D01*
X184570184Y-45044190D01*
X184622987Y-44998435D01*
X184692146Y-44988491D01*
X184755702Y-45017516D01*
X184762180Y-45023548D01*
X185476136Y-45737504D01*
X185509621Y-45798827D01*
X185506387Y-45863501D01*
X185490139Y-45913507D01*
X185449500Y-46170097D01*
X185449500Y-46429902D01*
X185490140Y-46686493D01*
X185570422Y-46933576D01*
X185629999Y-47050500D01*
X185688366Y-47165051D01*
X185841069Y-47375229D01*
X186024771Y-47558931D01*
X186234949Y-47711634D01*
X186382445Y-47786787D01*
X186466423Y-47829577D01*
X186466425Y-47829577D01*
X186466428Y-47829579D01*
X186713507Y-47909860D01*
X186845706Y-47930797D01*
X186970098Y-47950500D01*
X186970103Y-47950500D01*
X187229902Y-47950500D01*
X187343298Y-47932539D01*
X187486493Y-47909860D01*
X187733572Y-47829579D01*
X187965051Y-47711634D01*
X188175229Y-47558931D01*
X188358931Y-47375229D01*
X188511634Y-47165051D01*
X188629579Y-46933572D01*
X188709860Y-46686493D01*
X188732539Y-46543298D01*
X188750500Y-46429902D01*
X188750500Y-46170097D01*
X188728947Y-46034021D01*
X188709860Y-45913507D01*
X188629579Y-45666428D01*
X188629577Y-45666425D01*
X188629577Y-45666423D01*
X188559971Y-45529815D01*
X188511634Y-45434949D01*
X188358931Y-45224771D01*
X188175229Y-45041069D01*
X188175225Y-45041066D01*
X187965054Y-44888368D01*
X187965053Y-44888367D01*
X187965051Y-44888366D01*
X187892764Y-44851534D01*
X187733576Y-44770422D01*
X187486493Y-44690140D01*
X187229902Y-44649500D01*
X187229897Y-44649500D01*
X186970103Y-44649500D01*
X186970098Y-44649500D01*
X186713507Y-44690139D01*
X186663501Y-44706387D01*
X186593660Y-44708381D01*
X186537504Y-44676136D01*
X184778421Y-42917052D01*
X184778414Y-42917046D01*
X184704729Y-42867812D01*
X184704729Y-42867813D01*
X184655491Y-42834913D01*
X184518917Y-42778343D01*
X184518907Y-42778340D01*
X184373920Y-42749500D01*
X184373918Y-42749500D01*
X172326082Y-42749500D01*
X172326080Y-42749500D01*
X172181092Y-42778340D01*
X172181086Y-42778342D01*
X172044508Y-42834914D01*
X172044496Y-42834921D01*
X171995269Y-42867813D01*
X171921588Y-42917044D01*
X171921580Y-42917050D01*
X170225449Y-44613181D01*
X170164126Y-44646666D01*
X170137768Y-44649500D01*
X168402129Y-44649500D01*
X168402123Y-44649501D01*
X168342516Y-44655908D01*
X168207671Y-44706202D01*
X168207664Y-44706206D01*
X168092455Y-44792452D01*
X168092452Y-44792455D01*
X168006206Y-44907664D01*
X168006202Y-44907671D01*
X167955908Y-45042517D01*
X167949501Y-45102116D01*
X167949501Y-45102123D01*
X167949500Y-45102135D01*
X167949500Y-45425500D01*
X167929815Y-45492539D01*
X167877011Y-45538294D01*
X167825500Y-45549500D01*
X162328988Y-45549500D01*
X162261949Y-45529815D01*
X162218503Y-45481795D01*
X162194634Y-45434949D01*
X162041931Y-45224771D01*
X161858229Y-45041069D01*
X161858225Y-45041066D01*
X161648054Y-44888368D01*
X161648053Y-44888367D01*
X161648051Y-44888366D01*
X161575764Y-44851534D01*
X161416576Y-44770422D01*
X161169493Y-44690140D01*
X160912902Y-44649500D01*
X160912897Y-44649500D01*
X160653103Y-44649500D01*
X160653098Y-44649500D01*
X160396506Y-44690140D01*
X160149423Y-44770422D01*
X159917945Y-44888368D01*
X159707774Y-45041066D01*
X159707768Y-45041071D01*
X159524071Y-45224768D01*
X159524066Y-45224774D01*
X159371368Y-45434945D01*
X159371366Y-45434949D01*
X159349935Y-45477011D01*
X159347497Y-45481795D01*
X159299523Y-45532591D01*
X159237012Y-45549500D01*
X158357499Y-45549500D01*
X158290460Y-45529815D01*
X158244705Y-45477011D01*
X158233499Y-45425500D01*
X158233499Y-45102129D01*
X158233498Y-45102123D01*
X158233497Y-45102116D01*
X158227091Y-45042517D01*
X158217766Y-45017516D01*
X158176797Y-44907671D01*
X158176793Y-44907664D01*
X158090547Y-44792455D01*
X158090544Y-44792452D01*
X157975335Y-44706206D01*
X157975328Y-44706202D01*
X157840482Y-44655908D01*
X157840483Y-44655908D01*
X157780883Y-44649501D01*
X157780881Y-44649500D01*
X157780873Y-44649500D01*
X157780864Y-44649500D01*
X155385129Y-44649500D01*
X155385123Y-44649501D01*
X155325516Y-44655908D01*
X155190671Y-44706202D01*
X155190664Y-44706206D01*
X155075455Y-44792452D01*
X155075452Y-44792455D01*
X154989206Y-44907664D01*
X154989202Y-44907671D01*
X154938908Y-45042517D01*
X154932501Y-45102116D01*
X154932501Y-45102123D01*
X154932500Y-45102135D01*
X150000500Y-45102135D01*
X150000500Y-38885258D01*
X156932500Y-38885258D01*
X156932500Y-39114741D01*
X156957446Y-39304215D01*
X156962452Y-39342238D01*
X156962453Y-39342240D01*
X157021842Y-39563887D01*
X157109650Y-39775876D01*
X157109657Y-39775890D01*
X157224392Y-39974617D01*
X157364081Y-40156661D01*
X157364089Y-40156670D01*
X157526330Y-40318911D01*
X157526338Y-40318918D01*
X157708382Y-40458607D01*
X157708385Y-40458608D01*
X157708388Y-40458611D01*
X157907112Y-40573344D01*
X157907117Y-40573346D01*
X157907123Y-40573349D01*
X157998480Y-40611190D01*
X158119113Y-40661158D01*
X158340762Y-40720548D01*
X158568266Y-40750500D01*
X158568273Y-40750500D01*
X158797727Y-40750500D01*
X158797734Y-40750500D01*
X159025238Y-40720548D01*
X159246887Y-40661158D01*
X159458888Y-40573344D01*
X159657612Y-40458611D01*
X159839661Y-40318919D01*
X159839665Y-40318914D01*
X159839670Y-40318911D01*
X160001911Y-40156670D01*
X160001914Y-40156665D01*
X160001919Y-40156661D01*
X160141611Y-39974612D01*
X160256344Y-39775888D01*
X160344158Y-39563887D01*
X160403548Y-39342238D01*
X160433500Y-39114734D01*
X160433500Y-38885266D01*
X160433499Y-38885258D01*
X169949500Y-38885258D01*
X169949500Y-39114741D01*
X169974446Y-39304215D01*
X169979452Y-39342238D01*
X169979453Y-39342240D01*
X170038842Y-39563887D01*
X170126650Y-39775876D01*
X170126657Y-39775890D01*
X170241392Y-39974617D01*
X170381081Y-40156661D01*
X170381089Y-40156670D01*
X170543330Y-40318911D01*
X170543338Y-40318918D01*
X170725382Y-40458607D01*
X170725385Y-40458608D01*
X170725388Y-40458611D01*
X170924112Y-40573344D01*
X170924117Y-40573346D01*
X170924123Y-40573349D01*
X171015480Y-40611190D01*
X171136113Y-40661158D01*
X171357762Y-40720548D01*
X171585266Y-40750500D01*
X171585273Y-40750500D01*
X171814727Y-40750500D01*
X171814734Y-40750500D01*
X172042238Y-40720548D01*
X172263887Y-40661158D01*
X172475888Y-40573344D01*
X172674612Y-40458611D01*
X172856661Y-40318919D01*
X172856665Y-40318914D01*
X172856670Y-40318911D01*
X173018911Y-40156670D01*
X173018914Y-40156665D01*
X173018919Y-40156661D01*
X173158611Y-39974612D01*
X173273344Y-39775888D01*
X173361158Y-39563887D01*
X173420548Y-39342238D01*
X173450500Y-39114734D01*
X173450500Y-38885266D01*
X173450499Y-38885258D01*
X183249500Y-38885258D01*
X183249500Y-39114741D01*
X183274446Y-39304215D01*
X183279452Y-39342238D01*
X183279453Y-39342240D01*
X183338842Y-39563887D01*
X183426650Y-39775876D01*
X183426657Y-39775890D01*
X183541392Y-39974617D01*
X183681081Y-40156661D01*
X183681089Y-40156670D01*
X183843330Y-40318911D01*
X183843338Y-40318918D01*
X184025382Y-40458607D01*
X184025385Y-40458608D01*
X184025388Y-40458611D01*
X184224112Y-40573344D01*
X184224117Y-40573346D01*
X184224123Y-40573349D01*
X184315480Y-40611190D01*
X184436113Y-40661158D01*
X184657762Y-40720548D01*
X184885266Y-40750500D01*
X184885273Y-40750500D01*
X185114727Y-40750500D01*
X185114734Y-40750500D01*
X185342238Y-40720548D01*
X185563887Y-40661158D01*
X185775888Y-40573344D01*
X185974612Y-40458611D01*
X186156661Y-40318919D01*
X186156665Y-40318914D01*
X186156670Y-40318911D01*
X186318911Y-40156670D01*
X186318914Y-40156665D01*
X186318919Y-40156661D01*
X186458611Y-39974612D01*
X186573344Y-39775888D01*
X186661158Y-39563887D01*
X186720548Y-39342238D01*
X186750500Y-39114734D01*
X186750500Y-38885266D01*
X186720548Y-38657762D01*
X186661158Y-38436113D01*
X186573344Y-38224112D01*
X186458611Y-38025388D01*
X186458608Y-38025385D01*
X186458607Y-38025382D01*
X186318918Y-37843338D01*
X186318911Y-37843330D01*
X186156670Y-37681089D01*
X186156661Y-37681081D01*
X185974617Y-37541392D01*
X185775890Y-37426657D01*
X185775876Y-37426650D01*
X185563887Y-37338842D01*
X185342238Y-37279452D01*
X185304215Y-37274446D01*
X185114741Y-37249500D01*
X185114734Y-37249500D01*
X184885266Y-37249500D01*
X184885258Y-37249500D01*
X184668715Y-37278009D01*
X184657762Y-37279452D01*
X184564076Y-37304554D01*
X184436112Y-37338842D01*
X184224123Y-37426650D01*
X184224109Y-37426657D01*
X184025382Y-37541392D01*
X183843338Y-37681081D01*
X183681081Y-37843338D01*
X183541392Y-38025382D01*
X183426657Y-38224109D01*
X183426650Y-38224123D01*
X183338842Y-38436112D01*
X183279453Y-38657759D01*
X183279451Y-38657770D01*
X183249500Y-38885258D01*
X173450499Y-38885258D01*
X173420548Y-38657762D01*
X173361158Y-38436113D01*
X173273344Y-38224112D01*
X173158611Y-38025388D01*
X173158608Y-38025385D01*
X173158607Y-38025382D01*
X173018918Y-37843338D01*
X173018911Y-37843330D01*
X172856670Y-37681089D01*
X172856661Y-37681081D01*
X172674617Y-37541392D01*
X172475890Y-37426657D01*
X172475876Y-37426650D01*
X172263887Y-37338842D01*
X172042238Y-37279452D01*
X172004215Y-37274446D01*
X171814741Y-37249500D01*
X171814734Y-37249500D01*
X171585266Y-37249500D01*
X171585258Y-37249500D01*
X171368715Y-37278009D01*
X171357762Y-37279452D01*
X171264076Y-37304554D01*
X171136112Y-37338842D01*
X170924123Y-37426650D01*
X170924109Y-37426657D01*
X170725382Y-37541392D01*
X170543338Y-37681081D01*
X170381081Y-37843338D01*
X170241392Y-38025382D01*
X170126657Y-38224109D01*
X170126650Y-38224123D01*
X170038842Y-38436112D01*
X169979453Y-38657759D01*
X169979451Y-38657770D01*
X169949500Y-38885258D01*
X160433499Y-38885258D01*
X160403548Y-38657762D01*
X160344158Y-38436113D01*
X160256344Y-38224112D01*
X160141611Y-38025388D01*
X160141608Y-38025385D01*
X160141607Y-38025382D01*
X160001918Y-37843338D01*
X160001911Y-37843330D01*
X159839670Y-37681089D01*
X159839661Y-37681081D01*
X159657617Y-37541392D01*
X159458890Y-37426657D01*
X159458876Y-37426650D01*
X159246887Y-37338842D01*
X159025238Y-37279452D01*
X158987215Y-37274446D01*
X158797741Y-37249500D01*
X158797734Y-37249500D01*
X158568266Y-37249500D01*
X158568258Y-37249500D01*
X158351715Y-37278009D01*
X158340762Y-37279452D01*
X158247076Y-37304554D01*
X158119112Y-37338842D01*
X157907123Y-37426650D01*
X157907109Y-37426657D01*
X157708382Y-37541392D01*
X157526338Y-37681081D01*
X157364081Y-37843338D01*
X157224392Y-38025382D01*
X157109657Y-38224109D01*
X157109650Y-38224123D01*
X157021842Y-38436112D01*
X156962453Y-38657759D01*
X156962451Y-38657770D01*
X156932500Y-38885258D01*
X150000500Y-38885258D01*
X150000500Y-29624500D01*
X150020185Y-29557461D01*
X150072989Y-29511706D01*
X150124500Y-29500500D01*
X191875500Y-29500500D01*
X191942539Y-29520185D01*
G37*
%TD.AperFunction*%
%TD*%
M02*
