%TF.GenerationSoftware,KiCad,Pcbnew,9.0.4*%
%TF.CreationDate,2026-07-05T15:25:17-07:00*%
%TF.ProjectId,BMS_Temp_Board_V1,424d535f-5465-46d7-905f-426f6172645f,rev?*%
%TF.SameCoordinates,Original*%
%TF.FileFunction,Soldermask,Bot*%
%TF.FilePolarity,Negative*%
%FSLAX46Y46*%
G04 Gerber Fmt 4.6, Leading zero omitted, Abs format (unit mm)*
G04 Created by KiCad (PCBNEW 9.0.4) date 2026-07-05 15:25:17*
%MOMM*%
%LPD*%
G01*
G04 APERTURE LIST*
G04 Aperture macros list*
%AMRoundRect*
0 Rectangle with rounded corners*
0 $1 Rounding radius*
0 $2 $3 $4 $5 $6 $7 $8 $9 X,Y pos of 4 corners*
0 Add a 4 corners polygon primitive as box body*
4,1,4,$2,$3,$4,$5,$6,$7,$8,$9,$2,$3,0*
0 Add four circle primitives for the rounded corners*
1,1,$1+$1,$2,$3*
1,1,$1+$1,$4,$5*
1,1,$1+$1,$6,$7*
1,1,$1+$1,$8,$9*
0 Add four rect primitives between the rounded corners*
20,1,$1+$1,$2,$3,$4,$5,0*
20,1,$1+$1,$4,$5,$6,$7,0*
20,1,$1+$1,$6,$7,$8,$9,0*
20,1,$1+$1,$8,$9,$2,$3,0*%
G04 Aperture macros list end*
%ADD10C,2.200000*%
%ADD11RoundRect,0.250000X0.350000X-0.350000X0.350000X0.350000X-0.350000X0.350000X-0.350000X-0.350000X0*%
%ADD12C,1.200000*%
%ADD13RoundRect,0.250000X-0.350000X0.350000X-0.350000X-0.350000X0.350000X-0.350000X0.350000X0.350000X0*%
%ADD14O,1.200000X1.900000*%
%ADD15C,1.450000*%
%ADD16C,2.850000*%
%ADD17RoundRect,0.102000X-1.312500X-1.312500X1.312500X-1.312500X1.312500X1.312500X-1.312500X1.312500X0*%
%ADD18C,2.829000*%
G04 APERTURE END LIST*
D10*
%TO.C,H1*%
X84942500Y-73170000D03*
%TD*%
%TO.C,H3*%
X141912500Y-73170000D03*
%TD*%
D11*
%TO.C,J3*%
X84692500Y-108410000D03*
D12*
X86692500Y-108410000D03*
X84692500Y-106410000D03*
X86692500Y-106410000D03*
X84692500Y-104410000D03*
X86692500Y-104410000D03*
X84692500Y-102410000D03*
X86692500Y-102410000D03*
X84692500Y-100410000D03*
X86692500Y-100410000D03*
X84692500Y-98410000D03*
X86692500Y-98410000D03*
X84692500Y-96410000D03*
X86692500Y-96410000D03*
X84692500Y-94410000D03*
X86692500Y-94410000D03*
X84692500Y-92410000D03*
X86692500Y-92410000D03*
X84692500Y-90410000D03*
X86692500Y-90410000D03*
X84692500Y-88410000D03*
X86692500Y-88410000D03*
X84692500Y-86410000D03*
X86692500Y-86410000D03*
X84692500Y-84410000D03*
X86692500Y-84410000D03*
X84692500Y-82410000D03*
X86692500Y-82410000D03*
X84692500Y-80410000D03*
X86692500Y-80410000D03*
X84692500Y-78410000D03*
X86692500Y-78410000D03*
%TD*%
D11*
%TO.C,J4*%
X84692500Y-144580000D03*
D12*
X86692500Y-144580000D03*
X84692500Y-142580000D03*
X86692500Y-142580000D03*
X84692500Y-140580000D03*
X86692500Y-140580000D03*
X84692500Y-138580000D03*
X86692500Y-138580000D03*
X84692500Y-136580000D03*
X86692500Y-136580000D03*
X84692500Y-134580000D03*
X86692500Y-134580000D03*
X84692500Y-132580000D03*
X86692500Y-132580000D03*
X84692500Y-130580000D03*
X86692500Y-130580000D03*
X84692500Y-128580000D03*
X86692500Y-128580000D03*
X84692500Y-126580000D03*
X86692500Y-126580000D03*
X84692500Y-124580000D03*
X86692500Y-124580000D03*
X84692500Y-122580000D03*
X86692500Y-122580000D03*
X84692500Y-120580000D03*
X86692500Y-120580000D03*
X84692500Y-118580000D03*
X86692500Y-118580000D03*
X84692500Y-116580000D03*
X86692500Y-116580000D03*
X84692500Y-114580000D03*
X86692500Y-114580000D03*
%TD*%
D13*
%TO.C,J5*%
X142162500Y-115025000D03*
D12*
X140162500Y-115025000D03*
X142162500Y-117025000D03*
X140162500Y-117025000D03*
X142162500Y-119025000D03*
X140162500Y-119025000D03*
X142162500Y-121025000D03*
X140162500Y-121025000D03*
X142162500Y-123025000D03*
X140162500Y-123025000D03*
X142162500Y-125025000D03*
X140162500Y-125025000D03*
X142162500Y-127025000D03*
X140162500Y-127025000D03*
X142162500Y-129025000D03*
X140162500Y-129025000D03*
X142162500Y-131025000D03*
X140162500Y-131025000D03*
X142162500Y-133025000D03*
X140162500Y-133025000D03*
X142162500Y-135025000D03*
X140162500Y-135025000D03*
X142162500Y-137025000D03*
X140162500Y-137025000D03*
X142162500Y-139025000D03*
X140162500Y-139025000D03*
X142162500Y-141025000D03*
X140162500Y-141025000D03*
X142162500Y-143025000D03*
X140162500Y-143025000D03*
X142162500Y-145025000D03*
X140162500Y-145025000D03*
%TD*%
D13*
%TO.C,J2*%
X142162500Y-78855000D03*
D12*
X140162500Y-78855000D03*
X142162500Y-80855000D03*
X140162500Y-80855000D03*
X142162500Y-82855000D03*
X140162500Y-82855000D03*
X142162500Y-84855000D03*
X140162500Y-84855000D03*
X142162500Y-86855000D03*
X140162500Y-86855000D03*
X142162500Y-88855000D03*
X140162500Y-88855000D03*
X142162500Y-90855000D03*
X140162500Y-90855000D03*
X142162500Y-92855000D03*
X140162500Y-92855000D03*
X142162500Y-94855000D03*
X140162500Y-94855000D03*
X142162500Y-96855000D03*
X140162500Y-96855000D03*
X142162500Y-98855000D03*
X140162500Y-98855000D03*
X142162500Y-100855000D03*
X140162500Y-100855000D03*
X142162500Y-102855000D03*
X140162500Y-102855000D03*
X142162500Y-104855000D03*
X140162500Y-104855000D03*
X142162500Y-106855000D03*
X140162500Y-106855000D03*
X142162500Y-108855000D03*
X140162500Y-108855000D03*
%TD*%
D14*
%TO.C,J1*%
X138080000Y-71190000D03*
D15*
X137080000Y-73890000D03*
X132080000Y-73890000D03*
D14*
X131080000Y-71190000D03*
%TD*%
D10*
%TO.C,H2*%
X84942500Y-150190000D03*
%TD*%
D16*
%TO.C,J6*%
X102927500Y-144278750D03*
X123927500Y-144278750D03*
D17*
X109427500Y-139778750D03*
D18*
X113427500Y-139778750D03*
X117427500Y-139778750D03*
X111427500Y-143778750D03*
X115427500Y-143778750D03*
X109427500Y-147778750D03*
X113427500Y-147778750D03*
X117427500Y-147778750D03*
%TD*%
D10*
%TO.C,H4*%
X141912500Y-150190000D03*
%TD*%
M02*
