%TF.GenerationSoftware,KiCad,Pcbnew,9.0.4*%
%TF.CreationDate,2026-07-05T15:25:17-07:00*%
%TF.ProjectId,BMS_Temp_Board_V1,424d535f-5465-46d7-905f-426f6172645f,rev?*%
%TF.SameCoordinates,Original*%
%TF.FileFunction,Soldermask,Top*%
%TF.FilePolarity,Negative*%
%FSLAX46Y46*%
G04 Gerber Fmt 4.6, Leading zero omitted, Abs format (unit mm)*
G04 Created by KiCad (PCBNEW 9.0.4) date 2026-07-05 15:25:17*
%MOMM*%
%LPD*%
G01*
G04 APERTURE LIST*
G04 Aperture macros list*
%AMRoundRect*
0 Rectangle with rounded corners*
0 $1 Rounding radius*
0 $2 $3 $4 $5 $6 $7 $8 $9 X,Y pos of 4 corners*
0 Add a 4 corners polygon primitive as box body*
4,1,4,$2,$3,$4,$5,$6,$7,$8,$9,$2,$3,0*
0 Add four circle primitives for the rounded corners*
1,1,$1+$1,$2,$3*
1,1,$1+$1,$4,$5*
1,1,$1+$1,$6,$7*
1,1,$1+$1,$8,$9*
0 Add four rect primitives between the rounded corners*
20,1,$1+$1,$2,$3,$4,$5,0*
20,1,$1+$1,$4,$5,$6,$7,0*
20,1,$1+$1,$6,$7,$8,$9,0*
20,1,$1+$1,$8,$9,$2,$3,0*%
G04 Aperture macros list end*
%ADD10C,0.010000*%
%ADD11RoundRect,0.225000X-0.225000X-0.250000X0.225000X-0.250000X0.225000X0.250000X-0.225000X0.250000X0*%
%ADD12RoundRect,0.150000X0.150000X-0.512500X0.150000X0.512500X-0.150000X0.512500X-0.150000X-0.512500X0*%
%ADD13RoundRect,0.200000X-0.275000X0.200000X-0.275000X-0.200000X0.275000X-0.200000X0.275000X0.200000X0*%
%ADD14RoundRect,0.102000X-0.800000X1.750000X-0.800000X-1.750000X0.800000X-1.750000X0.800000X1.750000X0*%
%ADD15RoundRect,0.162500X0.447500X0.162500X-0.447500X0.162500X-0.447500X-0.162500X0.447500X-0.162500X0*%
%ADD16RoundRect,0.225000X0.250000X-0.225000X0.250000X0.225000X-0.250000X0.225000X-0.250000X-0.225000X0*%
%ADD17RoundRect,0.218750X0.218750X0.256250X-0.218750X0.256250X-0.218750X-0.256250X0.218750X-0.256250X0*%
%ADD18RoundRect,0.150000X0.825000X0.150000X-0.825000X0.150000X-0.825000X-0.150000X0.825000X-0.150000X0*%
%ADD19R,0.355600X1.473200*%
%ADD20RoundRect,0.200000X0.200000X0.275000X-0.200000X0.275000X-0.200000X-0.275000X0.200000X-0.275000X0*%
%ADD21RoundRect,0.200000X-0.200000X-0.275000X0.200000X-0.275000X0.200000X0.275000X-0.200000X0.275000X0*%
%ADD22RoundRect,0.200000X0.275000X-0.200000X0.275000X0.200000X-0.275000X0.200000X-0.275000X-0.200000X0*%
%ADD23RoundRect,0.250000X-1.750000X-1.000000X1.750000X-1.000000X1.750000X1.000000X-1.750000X1.000000X0*%
%ADD24RoundRect,0.112500X-0.237500X0.112500X-0.237500X-0.112500X0.237500X-0.112500X0.237500X0.112500X0*%
%ADD25RoundRect,0.102000X-0.535000X1.080000X-0.535000X-1.080000X0.535000X-1.080000X0.535000X1.080000X0*%
%ADD26RoundRect,0.250000X0.350000X-0.350000X0.350000X0.350000X-0.350000X0.350000X-0.350000X-0.350000X0*%
%ADD27C,1.200000*%
%ADD28R,3.352800X5.537200*%
%ADD29RoundRect,0.250000X-0.650000X1.000000X-0.650000X-1.000000X0.650000X-1.000000X0.650000X1.000000X0*%
%ADD30R,1.346200X1.955800*%
%ADD31RoundRect,0.225000X-0.250000X0.225000X-0.250000X-0.225000X0.250000X-0.225000X0.250000X0.225000X0*%
%ADD32RoundRect,0.250000X-0.350000X0.350000X-0.350000X-0.350000X0.350000X-0.350000X0.350000X0.350000X0*%
%ADD33RoundRect,0.375000X-0.625000X-0.375000X0.625000X-0.375000X0.625000X0.375000X-0.625000X0.375000X0*%
%ADD34RoundRect,0.500000X-0.500000X-1.400000X0.500000X-1.400000X0.500000X1.400000X-0.500000X1.400000X0*%
%ADD35RoundRect,0.250000X-0.325000X-0.650000X0.325000X-0.650000X0.325000X0.650000X-0.325000X0.650000X0*%
%ADD36R,1.219200X0.457200*%
%ADD37RoundRect,0.102000X-0.750000X-0.450000X0.750000X-0.450000X0.750000X0.450000X-0.750000X0.450000X0*%
%ADD38RoundRect,0.102000X-0.450000X-0.750000X0.450000X-0.750000X0.450000X0.750000X-0.450000X0.750000X0*%
%ADD39RoundRect,0.102000X-0.450000X-0.450000X0.450000X-0.450000X0.450000X0.450000X-0.450000X0.450000X0*%
%ADD40RoundRect,0.102000X-0.495000X-0.135000X0.495000X-0.135000X0.495000X0.135000X-0.495000X0.135000X0*%
%ADD41RoundRect,0.102000X-0.135000X-0.495000X0.135000X-0.495000X0.135000X0.495000X-0.135000X0.495000X0*%
%ADD42RoundRect,0.102000X-1.625000X-1.625000X1.625000X-1.625000X1.625000X1.625000X-1.625000X1.625000X0*%
%ADD43RoundRect,0.065500X-0.366500X-0.196500X0.366500X-0.196500X0.366500X0.196500X-0.366500X0.196500X0*%
%ADD44R,0.400000X1.350000*%
%ADD45O,1.200000X1.900000*%
%ADD46R,1.200000X1.900000*%
%ADD47C,1.450000*%
%ADD48R,1.500000X1.900000*%
%ADD49RoundRect,0.102000X-1.312500X-1.312500X1.312500X-1.312500X1.312500X1.312500X-1.312500X1.312500X0*%
%ADD50C,2.829000*%
%ADD51R,1.500000X1.500000*%
%ADD52RoundRect,0.218750X-0.218750X-0.256250X0.218750X-0.256250X0.218750X0.256250X-0.218750X0.256250X0*%
G04 APERTURE END LIST*
D10*
%TO.C,U3*%
X111605000Y-123977500D02*
X112840000Y-123977500D01*
X112840000Y-126087500D01*
X101840000Y-126087500D01*
X101840000Y-123977500D01*
X103075000Y-123977500D01*
X103075000Y-118897500D01*
X111605000Y-118897500D01*
X111605000Y-123977500D01*
G36*
X111605000Y-123977500D02*
G01*
X112840000Y-123977500D01*
X112840000Y-126087500D01*
X101840000Y-126087500D01*
X101840000Y-123977500D01*
X103075000Y-123977500D01*
X103075000Y-118897500D01*
X111605000Y-118897500D01*
X111605000Y-123977500D01*
G37*
%TD*%
D11*
%TO.C,C9*%
X137285000Y-75620000D03*
X138835000Y-75620000D03*
%TD*%
D12*
%TO.C,U1*%
X134080000Y-78617500D03*
X135030000Y-78617500D03*
X135980000Y-78617500D03*
X135980000Y-76342500D03*
X135030000Y-76342500D03*
X134080000Y-76342500D03*
%TD*%
D13*
%TO.C,R21*%
X91830000Y-145635000D03*
X91830000Y-147285000D03*
%TD*%
D11*
%TO.C,C8*%
X98295000Y-109560000D03*
X99845000Y-109560000D03*
%TD*%
D14*
%TO.C,C15*%
X116020000Y-108560000D03*
X116020000Y-102960000D03*
%TD*%
D15*
%TO.C,Q2*%
X123020000Y-93700000D03*
X123020000Y-91800000D03*
X120400000Y-92750000D03*
%TD*%
D16*
%TO.C,C12*%
X100730000Y-129755000D03*
X100730000Y-128205000D03*
%TD*%
D17*
%TO.C,LED2*%
X103627500Y-135930000D03*
X102052500Y-135930000D03*
%TD*%
D11*
%TO.C,C7*%
X128435000Y-86480000D03*
X129985000Y-86480000D03*
%TD*%
D18*
%TO.C,U2*%
X122305000Y-136545000D03*
X122305000Y-135275000D03*
X122305000Y-134005000D03*
X122305000Y-132735000D03*
X117355000Y-132735000D03*
X117355000Y-134005000D03*
X117355000Y-135275000D03*
X117355000Y-136545000D03*
%TD*%
D19*
%TO.C,IC7*%
X90912503Y-96553500D03*
X91562502Y-96553500D03*
X92212500Y-96553500D03*
X92862501Y-96553500D03*
X93512500Y-96553500D03*
X94162501Y-96553500D03*
X94812500Y-96553500D03*
X95462501Y-96553500D03*
X96112500Y-96553500D03*
X96762501Y-96553500D03*
X97412500Y-96553500D03*
X98062501Y-96553500D03*
X98062501Y-90711500D03*
X97412502Y-90711500D03*
X96762501Y-90711500D03*
X96112503Y-90711500D03*
X95462501Y-90711500D03*
X94812503Y-90711500D03*
X94162504Y-90711500D03*
X93512503Y-90711500D03*
X92862504Y-90711500D03*
X92212503Y-90711500D03*
X91562504Y-90711500D03*
X90912503Y-90711500D03*
%TD*%
D20*
%TO.C,R14*%
X103730000Y-134370000D03*
X102080000Y-134370000D03*
%TD*%
D17*
%TO.C,LED3*%
X103187500Y-81000000D03*
X101612500Y-81000000D03*
%TD*%
D21*
%TO.C,R11*%
X105835000Y-98630000D03*
X107485000Y-98630000D03*
%TD*%
D13*
%TO.C,R24*%
X95640000Y-117605000D03*
X95640000Y-119255000D03*
%TD*%
D22*
%TO.C,R19*%
X99300000Y-126555000D03*
X99300000Y-124905000D03*
%TD*%
D23*
%TO.C,C17*%
X102037500Y-104850000D03*
X110037500Y-104850000D03*
%TD*%
D15*
%TO.C,Q1*%
X128090000Y-72870000D03*
X128090000Y-70970000D03*
X125470000Y-71920000D03*
%TD*%
D20*
%TO.C,R16*%
X103235000Y-82560000D03*
X101585000Y-82560000D03*
%TD*%
D19*
%TO.C,IC8*%
X90912503Y-132723500D03*
X91562502Y-132723500D03*
X92212500Y-132723500D03*
X92862501Y-132723500D03*
X93512500Y-132723500D03*
X94162501Y-132723500D03*
X94812500Y-132723500D03*
X95462501Y-132723500D03*
X96112500Y-132723500D03*
X96762501Y-132723500D03*
X97412500Y-132723500D03*
X98062501Y-132723500D03*
X98062501Y-126881500D03*
X97412502Y-126881500D03*
X96762501Y-126881500D03*
X96112503Y-126881500D03*
X95462501Y-126881500D03*
X94812503Y-126881500D03*
X94162504Y-126881500D03*
X93512503Y-126881500D03*
X92862504Y-126881500D03*
X92212503Y-126881500D03*
X91562504Y-126881500D03*
X90912503Y-126881500D03*
%TD*%
D22*
%TO.C,R18*%
X99460000Y-95165000D03*
X99460000Y-93515000D03*
%TD*%
D24*
%TO.C,D1*%
X113360000Y-133972500D03*
X113360000Y-135272500D03*
X115360000Y-134622500D03*
%TD*%
D13*
%TO.C,R23*%
X97440000Y-101905000D03*
X97440000Y-103555000D03*
%TD*%
D25*
%TO.C,U3*%
X110740000Y-111817500D03*
X109040000Y-111817500D03*
X107340000Y-111817500D03*
X105640000Y-111817500D03*
X103940000Y-111817500D03*
%TD*%
D22*
%TO.C,R4*%
X132140000Y-81945000D03*
X132140000Y-80295000D03*
%TD*%
D26*
%TO.C,J3*%
X84692500Y-108410000D03*
D27*
X86692500Y-108410000D03*
X84692500Y-106410000D03*
X86692500Y-106410000D03*
X84692500Y-104410000D03*
X86692500Y-104410000D03*
X84692500Y-102410000D03*
X86692500Y-102410000D03*
X84692500Y-100410000D03*
X86692500Y-100410000D03*
X84692500Y-98410000D03*
X86692500Y-98410000D03*
X84692500Y-96410000D03*
X86692500Y-96410000D03*
X84692500Y-94410000D03*
X86692500Y-94410000D03*
X84692500Y-92410000D03*
X86692500Y-92410000D03*
X84692500Y-90410000D03*
X86692500Y-90410000D03*
X84692500Y-88410000D03*
X86692500Y-88410000D03*
X84692500Y-86410000D03*
X86692500Y-86410000D03*
X84692500Y-84410000D03*
X86692500Y-84410000D03*
X84692500Y-82410000D03*
X86692500Y-82410000D03*
X84692500Y-80410000D03*
X86692500Y-80410000D03*
X84692500Y-78410000D03*
X86692500Y-78410000D03*
%TD*%
D28*
%TO.C,L1*%
X124856800Y-117720000D03*
X115103200Y-117720000D03*
%TD*%
D19*
%TO.C,IC9*%
X136172500Y-126881500D03*
X135522501Y-126881500D03*
X134872503Y-126881500D03*
X134222502Y-126881500D03*
X133572503Y-126881500D03*
X132922502Y-126881500D03*
X132272503Y-126881500D03*
X131622502Y-126881500D03*
X130972503Y-126881500D03*
X130322502Y-126881500D03*
X129672503Y-126881500D03*
X129022502Y-126881500D03*
X129022502Y-132723500D03*
X129672501Y-132723500D03*
X130322502Y-132723500D03*
X130972500Y-132723500D03*
X131622502Y-132723500D03*
X132272500Y-132723500D03*
X132922499Y-132723500D03*
X133572500Y-132723500D03*
X134222499Y-132723500D03*
X134872500Y-132723500D03*
X135522499Y-132723500D03*
X136172500Y-132723500D03*
%TD*%
D13*
%TO.C,R1*%
X100320000Y-74175000D03*
X100320000Y-75825000D03*
%TD*%
D29*
%TO.C,D3*%
X99760000Y-112000000D03*
X99760000Y-116000000D03*
%TD*%
D21*
%TO.C,R5*%
X128375000Y-84970000D03*
X130025000Y-84970000D03*
%TD*%
D30*
%TO.C,Q3*%
X93860000Y-107879800D03*
X91320000Y-107879800D03*
X91320000Y-117100000D03*
X93860000Y-117100000D03*
%TD*%
D26*
%TO.C,J4*%
X84692500Y-144580000D03*
D27*
X86692500Y-144580000D03*
X84692500Y-142580000D03*
X86692500Y-142580000D03*
X84692500Y-140580000D03*
X86692500Y-140580000D03*
X84692500Y-138580000D03*
X86692500Y-138580000D03*
X84692500Y-136580000D03*
X86692500Y-136580000D03*
X84692500Y-134580000D03*
X86692500Y-134580000D03*
X84692500Y-132580000D03*
X86692500Y-132580000D03*
X84692500Y-130580000D03*
X86692500Y-130580000D03*
X84692500Y-128580000D03*
X86692500Y-128580000D03*
X84692500Y-126580000D03*
X86692500Y-126580000D03*
X84692500Y-124580000D03*
X86692500Y-124580000D03*
X84692500Y-122580000D03*
X86692500Y-122580000D03*
X84692500Y-120580000D03*
X86692500Y-120580000D03*
X84692500Y-118580000D03*
X86692500Y-118580000D03*
X84692500Y-116580000D03*
X86692500Y-116580000D03*
X84692500Y-114580000D03*
X86692500Y-114580000D03*
%TD*%
D16*
%TO.C,C14*%
X100750000Y-132835000D03*
X100750000Y-131285000D03*
%TD*%
D31*
%TO.C,C11*%
X125830000Y-133825000D03*
X125830000Y-135375000D03*
%TD*%
D32*
%TO.C,J5*%
X142162500Y-115025000D03*
D27*
X140162500Y-115025000D03*
X142162500Y-117025000D03*
X140162500Y-117025000D03*
X142162500Y-119025000D03*
X140162500Y-119025000D03*
X142162500Y-121025000D03*
X140162500Y-121025000D03*
X142162500Y-123025000D03*
X140162500Y-123025000D03*
X142162500Y-125025000D03*
X140162500Y-125025000D03*
X142162500Y-127025000D03*
X140162500Y-127025000D03*
X142162500Y-129025000D03*
X140162500Y-129025000D03*
X142162500Y-131025000D03*
X140162500Y-131025000D03*
X142162500Y-133025000D03*
X140162500Y-133025000D03*
X142162500Y-135025000D03*
X140162500Y-135025000D03*
X142162500Y-137025000D03*
X140162500Y-137025000D03*
X142162500Y-139025000D03*
X140162500Y-139025000D03*
X142162500Y-141025000D03*
X140162500Y-141025000D03*
X142162500Y-143025000D03*
X140162500Y-143025000D03*
X142162500Y-145025000D03*
X140162500Y-145025000D03*
%TD*%
D16*
%TO.C,C6*%
X125360000Y-85005000D03*
X125360000Y-83455000D03*
%TD*%
D21*
%TO.C,R10*%
X108915000Y-98620000D03*
X110565000Y-98620000D03*
%TD*%
D32*
%TO.C,J2*%
X142162500Y-78855000D03*
D27*
X140162500Y-78855000D03*
X142162500Y-80855000D03*
X140162500Y-80855000D03*
X142162500Y-82855000D03*
X140162500Y-82855000D03*
X142162500Y-84855000D03*
X140162500Y-84855000D03*
X142162500Y-86855000D03*
X140162500Y-86855000D03*
X142162500Y-88855000D03*
X140162500Y-88855000D03*
X142162500Y-90855000D03*
X140162500Y-90855000D03*
X142162500Y-92855000D03*
X140162500Y-92855000D03*
X142162500Y-94855000D03*
X140162500Y-94855000D03*
X142162500Y-96855000D03*
X140162500Y-96855000D03*
X142162500Y-98855000D03*
X140162500Y-98855000D03*
X142162500Y-100855000D03*
X140162500Y-100855000D03*
X142162500Y-102855000D03*
X140162500Y-102855000D03*
X142162500Y-104855000D03*
X140162500Y-104855000D03*
X142162500Y-106855000D03*
X140162500Y-106855000D03*
X142162500Y-108855000D03*
X140162500Y-108855000D03*
%TD*%
D33*
%TO.C,IC5*%
X102770000Y-127640000D03*
X102770000Y-129940000D03*
X102770000Y-132240000D03*
D34*
X109070000Y-129940000D03*
%TD*%
D16*
%TO.C,C4*%
X132580000Y-77225000D03*
X132580000Y-75675000D03*
%TD*%
%TO.C,C1*%
X102980000Y-75695000D03*
X102980000Y-74145000D03*
%TD*%
D20*
%TO.C,R7*%
X128855000Y-74470000D03*
X127205000Y-74470000D03*
%TD*%
D35*
%TO.C,C10*%
X105225000Y-134820000D03*
X108175000Y-134820000D03*
%TD*%
D11*
%TO.C,C16*%
X92575000Y-119140000D03*
X94125000Y-119140000D03*
%TD*%
D13*
%TO.C,R3*%
X133670000Y-80275000D03*
X133670000Y-81925000D03*
%TD*%
D22*
%TO.C,R13*%
X115380000Y-100220000D03*
X115380000Y-98570000D03*
%TD*%
D36*
%TO.C,IC3*%
X111958300Y-127270000D03*
X111958300Y-129810000D03*
X118841700Y-129810000D03*
X118841700Y-127270000D03*
%TD*%
D37*
%TO.C,IC1*%
X104990000Y-71360000D03*
X104990000Y-72630000D03*
X104990000Y-73900000D03*
X104990000Y-75170000D03*
X104990000Y-76440000D03*
X104990000Y-77710000D03*
X104990000Y-78980000D03*
X104990000Y-80250000D03*
X104990000Y-81520000D03*
X104990000Y-82790000D03*
X104990000Y-84060000D03*
X104990000Y-85330000D03*
X104990000Y-86600000D03*
X104990000Y-87870000D03*
D38*
X106755000Y-89120000D03*
X108025000Y-89120000D03*
X109295000Y-89120000D03*
X110565000Y-89120000D03*
X111835000Y-89120000D03*
X113105000Y-89120000D03*
X114375000Y-89120000D03*
X115645000Y-89120000D03*
X116915000Y-89120000D03*
X118185000Y-89120000D03*
X119455000Y-89120000D03*
X120725000Y-89120000D03*
D37*
X122490000Y-87870000D03*
X122490000Y-86600000D03*
X122490000Y-85330000D03*
X122490000Y-84060000D03*
X122490000Y-82790000D03*
X122490000Y-81520000D03*
X122490000Y-80250000D03*
X122490000Y-78980000D03*
X122490000Y-77710000D03*
X122490000Y-76440000D03*
X122490000Y-75170000D03*
X122490000Y-73900000D03*
X122490000Y-72630000D03*
X122490000Y-71360000D03*
D39*
X112240000Y-79080000D03*
X110840000Y-79080000D03*
X113640000Y-79080000D03*
X110840000Y-80480000D03*
X112240000Y-80480000D03*
X113640000Y-80480000D03*
X110840000Y-77680000D03*
X112240000Y-77680000D03*
X113640000Y-77680000D03*
%TD*%
D22*
%TO.C,R17*%
X127620000Y-93615000D03*
X127620000Y-91965000D03*
%TD*%
D40*
%TO.C,IC2*%
X125720000Y-77850000D03*
X125720000Y-78350000D03*
X125720000Y-78850000D03*
X125720000Y-79350000D03*
X125720000Y-79850000D03*
X125720000Y-80350000D03*
X125720000Y-80850000D03*
D41*
X126580000Y-81710000D03*
X127080000Y-81710000D03*
X127580000Y-81710000D03*
X128080000Y-81710000D03*
X128580000Y-81710000D03*
X129080000Y-81710000D03*
X129580000Y-81710000D03*
D40*
X130440000Y-80850000D03*
X130440000Y-80350000D03*
X130440000Y-79850000D03*
X130440000Y-79350000D03*
X130440000Y-78850000D03*
X130440000Y-78350000D03*
X130440000Y-77850000D03*
D41*
X129580000Y-76990000D03*
X129080000Y-76990000D03*
X128580000Y-76990000D03*
X128080000Y-76990000D03*
X127580000Y-76990000D03*
X127080000Y-76990000D03*
X126580000Y-76990000D03*
D42*
X128080000Y-79350000D03*
%TD*%
D43*
%TO.C,IC4*%
X112575000Y-99930000D03*
X112575000Y-100430000D03*
X112575000Y-100930000D03*
X112575000Y-101430000D03*
X114045000Y-101430000D03*
X114045000Y-100930000D03*
X114045000Y-100430000D03*
X114045000Y-99930000D03*
%TD*%
D21*
%TO.C,R6*%
X128385000Y-87960000D03*
X130035000Y-87960000D03*
%TD*%
D44*
%TO.C,J1*%
X135880000Y-73890000D03*
X135230000Y-73890000D03*
X134580000Y-73890000D03*
X133930000Y-73890000D03*
X133280000Y-73890000D03*
D45*
X138080000Y-71190000D03*
D46*
X137480000Y-71190000D03*
D47*
X137080000Y-73890000D03*
D48*
X135580000Y-71190000D03*
X133580000Y-71190000D03*
D47*
X132080000Y-73890000D03*
D46*
X131680000Y-71190000D03*
D45*
X131080000Y-71190000D03*
%TD*%
D20*
%TO.C,R12*%
X116955000Y-131400000D03*
X115305000Y-131400000D03*
%TD*%
D21*
%TO.C,R15*%
X113705000Y-136680000D03*
X115355000Y-136680000D03*
%TD*%
D31*
%TO.C,C13*%
X124310000Y-133810000D03*
X124310000Y-135360000D03*
%TD*%
D19*
%TO.C,IC6*%
X136172500Y-90711500D03*
X135522501Y-90711500D03*
X134872503Y-90711500D03*
X134222502Y-90711500D03*
X133572503Y-90711500D03*
X132922502Y-90711500D03*
X132272503Y-90711500D03*
X131622502Y-90711500D03*
X130972503Y-90711500D03*
X130322502Y-90711500D03*
X129672503Y-90711500D03*
X129022502Y-90711500D03*
X129022502Y-96553500D03*
X129672501Y-96553500D03*
X130322502Y-96553500D03*
X130972500Y-96553500D03*
X131622502Y-96553500D03*
X132272500Y-96553500D03*
X132922499Y-96553500D03*
X133572500Y-96553500D03*
X134222499Y-96553500D03*
X134872500Y-96553500D03*
X135522499Y-96553500D03*
X136172500Y-96553500D03*
%TD*%
D22*
%TO.C,R8*%
X124890000Y-92945000D03*
X124890000Y-91295000D03*
%TD*%
D13*
%TO.C,R22*%
X91800000Y-148725000D03*
X91800000Y-150375000D03*
%TD*%
D49*
%TO.C,J6*%
X109427500Y-139778750D03*
D50*
X113427500Y-139778750D03*
X117427500Y-139778750D03*
X111427500Y-143778750D03*
X115427500Y-143778750D03*
X109427500Y-147778750D03*
X113427500Y-147778750D03*
X117427500Y-147778750D03*
%TD*%
D51*
%TO.C,TP1*%
X118860000Y-100810000D03*
%TD*%
D11*
%TO.C,C2*%
X101555000Y-72620000D03*
X103105000Y-72620000D03*
%TD*%
D52*
%TO.C,LED1*%
X101532500Y-84120000D03*
X103107500Y-84120000D03*
%TD*%
D11*
%TO.C,C3*%
X101575000Y-71040000D03*
X103125000Y-71040000D03*
%TD*%
D13*
%TO.C,R20*%
X127630000Y-127835000D03*
X127630000Y-129485000D03*
%TD*%
D20*
%TO.C,R2*%
X103232500Y-85660000D03*
X101582500Y-85660000D03*
%TD*%
D21*
%TO.C,R9*%
X128375000Y-83460000D03*
X130025000Y-83460000D03*
%TD*%
D31*
%TO.C,C5*%
X126890000Y-83465000D03*
X126890000Y-85015000D03*
%TD*%
M02*
