%TF.GenerationSoftware,KiCad,Pcbnew,9.0.4*%
%TF.CreationDate,2026-07-05T15:25:17-07:00*%
%TF.ProjectId,BMS_Temp_Board_V1,424d535f-5465-46d7-905f-426f6172645f,rev?*%
%TF.SameCoordinates,Original*%
%TF.FileFunction,Copper,L1,Top*%
%TF.FilePolarity,Positive*%
%FSLAX46Y46*%
G04 Gerber Fmt 4.6, Leading zero omitted, Abs format (unit mm)*
G04 Created by KiCad (PCBNEW 9.0.4) date 2026-07-05 15:25:17*
%MOMM*%
%LPD*%
G01*
G04 APERTURE LIST*
G04 Aperture macros list*
%AMRoundRect*
0 Rectangle with rounded corners*
0 $1 Rounding radius*
0 $2 $3 $4 $5 $6 $7 $8 $9 X,Y pos of 4 corners*
0 Add a 4 corners polygon primitive as box body*
4,1,4,$2,$3,$4,$5,$6,$7,$8,$9,$2,$3,0*
0 Add four circle primitives for the rounded corners*
1,1,$1+$1,$2,$3*
1,1,$1+$1,$4,$5*
1,1,$1+$1,$6,$7*
1,1,$1+$1,$8,$9*
0 Add four rect primitives between the rounded corners*
20,1,$1+$1,$2,$3,$4,$5,0*
20,1,$1+$1,$4,$5,$6,$7,0*
20,1,$1+$1,$6,$7,$8,$9,0*
20,1,$1+$1,$8,$9,$2,$3,0*%
%AMFreePoly0*
4,1,21,4.453536,5.403536,4.455000,5.400000,4.455000,-5.400000,4.453536,-5.403536,4.450000,-5.405000,2.540000,-5.405000,2.536464,-5.403536,2.535000,-5.400000,2.535000,-4.170000,-2.540000,-4.170000,-2.543536,-4.168536,-2.545000,-4.165000,-2.545000,4.165000,-2.543536,4.168536,-2.540000,4.170000,2.535000,4.170000,2.535000,5.400000,2.536464,5.403536,2.540000,5.405000,4.450000,5.405000,
4.453536,5.403536,4.453536,5.403536,$1*%
G04 Aperture macros list end*
%TA.AperFunction,SMDPad,CuDef*%
%ADD10RoundRect,0.225000X-0.225000X-0.250000X0.225000X-0.250000X0.225000X0.250000X-0.225000X0.250000X0*%
%TD*%
%TA.AperFunction,SMDPad,CuDef*%
%ADD11RoundRect,0.150000X0.150000X-0.512500X0.150000X0.512500X-0.150000X0.512500X-0.150000X-0.512500X0*%
%TD*%
%TA.AperFunction,SMDPad,CuDef*%
%ADD12RoundRect,0.200000X-0.275000X0.200000X-0.275000X-0.200000X0.275000X-0.200000X0.275000X0.200000X0*%
%TD*%
%TA.AperFunction,SMDPad,CuDef*%
%ADD13R,1.600000X3.500000*%
%TD*%
%TA.AperFunction,SMDPad,CuDef*%
%ADD14RoundRect,0.162500X0.447500X0.162500X-0.447500X0.162500X-0.447500X-0.162500X0.447500X-0.162500X0*%
%TD*%
%TA.AperFunction,SMDPad,CuDef*%
%ADD15RoundRect,0.225000X0.250000X-0.225000X0.250000X0.225000X-0.250000X0.225000X-0.250000X-0.225000X0*%
%TD*%
%TA.AperFunction,SMDPad,CuDef*%
%ADD16RoundRect,0.218750X0.218750X0.256250X-0.218750X0.256250X-0.218750X-0.256250X0.218750X-0.256250X0*%
%TD*%
%TA.AperFunction,SMDPad,CuDef*%
%ADD17RoundRect,0.150000X0.825000X0.150000X-0.825000X0.150000X-0.825000X-0.150000X0.825000X-0.150000X0*%
%TD*%
%TA.AperFunction,SMDPad,CuDef*%
%ADD18R,0.355600X1.473200*%
%TD*%
%TA.AperFunction,SMDPad,CuDef*%
%ADD19RoundRect,0.200000X0.200000X0.275000X-0.200000X0.275000X-0.200000X-0.275000X0.200000X-0.275000X0*%
%TD*%
%TA.AperFunction,SMDPad,CuDef*%
%ADD20RoundRect,0.200000X-0.200000X-0.275000X0.200000X-0.275000X0.200000X0.275000X-0.200000X0.275000X0*%
%TD*%
%TA.AperFunction,SMDPad,CuDef*%
%ADD21RoundRect,0.200000X0.275000X-0.200000X0.275000X0.200000X-0.275000X0.200000X-0.275000X-0.200000X0*%
%TD*%
%TA.AperFunction,SMDPad,CuDef*%
%ADD22RoundRect,0.250000X-1.750000X-1.000000X1.750000X-1.000000X1.750000X1.000000X-1.750000X1.000000X0*%
%TD*%
%TA.AperFunction,SMDPad,CuDef*%
%ADD23RoundRect,0.112500X-0.237500X0.112500X-0.237500X-0.112500X0.237500X-0.112500X0.237500X0.112500X0*%
%TD*%
%TA.AperFunction,SMDPad,CuDef*%
%ADD24R,1.070000X2.160000*%
%TD*%
%TA.AperFunction,SMDPad,CuDef*%
%ADD25FreePoly0,270.000000*%
%TD*%
%TA.AperFunction,ComponentPad*%
%ADD26RoundRect,0.250000X0.350000X-0.350000X0.350000X0.350000X-0.350000X0.350000X-0.350000X-0.350000X0*%
%TD*%
%TA.AperFunction,ComponentPad*%
%ADD27C,1.200000*%
%TD*%
%TA.AperFunction,SMDPad,CuDef*%
%ADD28R,3.352800X5.537200*%
%TD*%
%TA.AperFunction,SMDPad,CuDef*%
%ADD29RoundRect,0.250000X-0.650000X1.000000X-0.650000X-1.000000X0.650000X-1.000000X0.650000X1.000000X0*%
%TD*%
%TA.AperFunction,SMDPad,CuDef*%
%ADD30R,1.346200X1.955800*%
%TD*%
%TA.AperFunction,SMDPad,CuDef*%
%ADD31RoundRect,0.225000X-0.250000X0.225000X-0.250000X-0.225000X0.250000X-0.225000X0.250000X0.225000X0*%
%TD*%
%TA.AperFunction,ComponentPad*%
%ADD32RoundRect,0.250000X-0.350000X0.350000X-0.350000X-0.350000X0.350000X-0.350000X0.350000X0.350000X0*%
%TD*%
%TA.AperFunction,SMDPad,CuDef*%
%ADD33RoundRect,0.375000X-0.625000X-0.375000X0.625000X-0.375000X0.625000X0.375000X-0.625000X0.375000X0*%
%TD*%
%TA.AperFunction,SMDPad,CuDef*%
%ADD34RoundRect,0.500000X-0.500000X-1.400000X0.500000X-1.400000X0.500000X1.400000X-0.500000X1.400000X0*%
%TD*%
%TA.AperFunction,SMDPad,CuDef*%
%ADD35RoundRect,0.250000X-0.325000X-0.650000X0.325000X-0.650000X0.325000X0.650000X-0.325000X0.650000X0*%
%TD*%
%TA.AperFunction,SMDPad,CuDef*%
%ADD36R,1.219200X0.457200*%
%TD*%
%TA.AperFunction,SMDPad,CuDef*%
%ADD37R,1.500000X0.900000*%
%TD*%
%TA.AperFunction,SMDPad,CuDef*%
%ADD38R,0.900000X1.500000*%
%TD*%
%TA.AperFunction,SMDPad,CuDef*%
%ADD39R,0.900000X0.900000*%
%TD*%
%TA.AperFunction,SMDPad,CuDef*%
%ADD40R,0.990000X0.270000*%
%TD*%
%TA.AperFunction,SMDPad,CuDef*%
%ADD41R,0.270000X0.990000*%
%TD*%
%TA.AperFunction,SMDPad,CuDef*%
%ADD42R,3.250000X3.250000*%
%TD*%
%TA.AperFunction,SMDPad,CuDef*%
%ADD43RoundRect,0.040000X-0.290000X-0.120000X0.290000X-0.120000X0.290000X0.120000X-0.290000X0.120000X0*%
%TD*%
%TA.AperFunction,SMDPad,CuDef*%
%ADD44R,0.400000X1.350000*%
%TD*%
%TA.AperFunction,HeatsinkPad*%
%ADD45O,1.200000X1.900000*%
%TD*%
%TA.AperFunction,SMDPad,CuDef*%
%ADD46R,1.200000X1.900000*%
%TD*%
%TA.AperFunction,HeatsinkPad*%
%ADD47C,1.450000*%
%TD*%
%TA.AperFunction,SMDPad,CuDef*%
%ADD48R,1.500000X1.900000*%
%TD*%
%TA.AperFunction,ComponentPad*%
%ADD49R,2.625000X2.625000*%
%TD*%
%TA.AperFunction,ComponentPad*%
%ADD50C,2.625000*%
%TD*%
%TA.AperFunction,SMDPad,CuDef*%
%ADD51R,1.500000X1.500000*%
%TD*%
%TA.AperFunction,SMDPad,CuDef*%
%ADD52RoundRect,0.218750X-0.218750X-0.256250X0.218750X-0.256250X0.218750X0.256250X-0.218750X0.256250X0*%
%TD*%
%TA.AperFunction,ViaPad*%
%ADD53C,0.500000*%
%TD*%
%TA.AperFunction,ViaPad*%
%ADD54C,1.000000*%
%TD*%
%TA.AperFunction,Conductor*%
%ADD55C,0.200000*%
%TD*%
%TA.AperFunction,Conductor*%
%ADD56C,0.300000*%
%TD*%
%TA.AperFunction,Conductor*%
%ADD57C,1.000000*%
%TD*%
%TA.AperFunction,Conductor*%
%ADD58C,0.500000*%
%TD*%
G04 APERTURE END LIST*
D10*
%TO.P,C9,1*%
%TO.N,GND*%
X137285000Y-75620000D03*
%TO.P,C9,2*%
%TO.N,VBUS*%
X138835000Y-75620000D03*
%TD*%
D11*
%TO.P,U1,1,I/O1*%
%TO.N,Net-(R3-Pad1)*%
X134080000Y-78617500D03*
%TO.P,U1,2,GND*%
%TO.N,GND*%
X135030000Y-78617500D03*
%TO.P,U1,3,I/O2*%
%TO.N,Net-(R4-Pad2)*%
X135980000Y-78617500D03*
%TO.P,U1,4,I/O2*%
%TO.N,/USBM_D-*%
X135980000Y-76342500D03*
%TO.P,U1,5,VBUS*%
%TO.N,VBUS*%
X135030000Y-76342500D03*
%TO.P,U1,6,I/O1*%
%TO.N,/USBM_D+*%
X134080000Y-76342500D03*
%TD*%
D12*
%TO.P,R21,1*%
%TO.N,+12V*%
X91830000Y-145635000D03*
%TO.P,R21,2*%
%TO.N,/ORION*%
X91830000Y-147285000D03*
%TD*%
D10*
%TO.P,C8,1*%
%TO.N,GND*%
X98295000Y-109560000D03*
%TO.P,C8,2*%
%TO.N,VCC*%
X99845000Y-109560000D03*
%TD*%
D13*
%TO.P,C15,1*%
%TO.N,+12V*%
X116020000Y-108560000D03*
%TO.P,C15,2*%
%TO.N,GND*%
X116020000Y-102960000D03*
%TD*%
D14*
%TO.P,Q2,1,B*%
%TO.N,Net-(Q2-B)*%
X123020000Y-93700000D03*
%TO.P,Q2,2,E*%
%TO.N,Net-(IC2-DTR)*%
X123020000Y-91800000D03*
%TO.P,Q2,3,C*%
%TO.N,/GPIO0*%
X120400000Y-92750000D03*
%TD*%
D15*
%TO.P,C12,1*%
%TO.N,GND*%
X100730000Y-129755000D03*
%TO.P,C12,2*%
%TO.N,+5V*%
X100730000Y-128205000D03*
%TD*%
D16*
%TO.P,LED2,1,K*%
%TO.N,GND*%
X103627500Y-135930000D03*
%TO.P,LED2,2,A*%
%TO.N,/PWR_LED*%
X102052500Y-135930000D03*
%TD*%
D10*
%TO.P,C7,1*%
%TO.N,Net-(IC2-VBUS)*%
X128435000Y-86480000D03*
%TO.P,C7,2*%
%TO.N,GND*%
X129985000Y-86480000D03*
%TD*%
D17*
%TO.P,U2,1,D*%
%TO.N,/CAN_RTX*%
X122305000Y-136545000D03*
%TO.P,U2,2,GND*%
%TO.N,GND*%
X122305000Y-135275000D03*
%TO.P,U2,3,VCC*%
%TO.N,+3.3V*%
X122305000Y-134005000D03*
%TO.P,U2,4,R*%
%TO.N,/CAN_CTX*%
X122305000Y-132735000D03*
%TO.P,U2,5,Vref*%
%TO.N,unconnected-(U2-Vref-Pad5)*%
X117355000Y-132735000D03*
%TO.P,U2,6,CANL*%
%TO.N,/CAN-*%
X117355000Y-134005000D03*
%TO.P,U2,7,CANH*%
%TO.N,/CAN+*%
X117355000Y-135275000D03*
%TO.P,U2,8,Rs*%
%TO.N,Net-(U2-Rs)*%
X117355000Y-136545000D03*
%TD*%
D18*
%TO.P,IC7,1,COM*%
%TO.N,/MUX2*%
X90912503Y-96553500D03*
%TO.P,IC7,2,I7*%
%TO.N,Net-(IC7-I7)*%
X91562502Y-96553500D03*
%TO.P,IC7,3,I6*%
%TO.N,Net-(IC7-I6)*%
X92212500Y-96553500D03*
%TO.P,IC7,4,I5*%
%TO.N,Net-(IC7-I5)*%
X92862501Y-96553500D03*
%TO.P,IC7,5,I4*%
%TO.N,Net-(IC7-I4)*%
X93512500Y-96553500D03*
%TO.P,IC7,6,I3*%
%TO.N,Net-(IC7-I3)*%
X94162501Y-96553500D03*
%TO.P,IC7,7,I2*%
%TO.N,Net-(IC7-I2)*%
X94812500Y-96553500D03*
%TO.P,IC7,8,I1*%
%TO.N,Net-(IC7-I1)*%
X95462501Y-96553500D03*
%TO.P,IC7,9,I0*%
%TO.N,Net-(IC7-I0)*%
X96112500Y-96553500D03*
%TO.P,IC7,10,S0*%
%TO.N,/MUX_S0*%
X96762501Y-96553500D03*
%TO.P,IC7,11,S1*%
%TO.N,/MUX_S1*%
X97412500Y-96553500D03*
%TO.P,IC7,12,GND*%
%TO.N,GND*%
X98062501Y-96553500D03*
%TO.P,IC7,13,S3*%
%TO.N,/MUX_S3*%
X98062501Y-90711500D03*
%TO.P,IC7,14,S2*%
%TO.N,/MUX_S2*%
X97412502Y-90711500D03*
%TO.P,IC7,15,~{E}*%
%TO.N,GND*%
X96762501Y-90711500D03*
%TO.P,IC7,16,I15*%
%TO.N,Net-(IC7-I15)*%
X96112503Y-90711500D03*
%TO.P,IC7,17,I14*%
%TO.N,Net-(IC7-I14)*%
X95462501Y-90711500D03*
%TO.P,IC7,18,I13*%
%TO.N,Net-(IC7-I13)*%
X94812503Y-90711500D03*
%TO.P,IC7,19,I12*%
%TO.N,Net-(IC7-I12)*%
X94162504Y-90711500D03*
%TO.P,IC7,20,I11*%
%TO.N,Net-(IC7-I11)*%
X93512503Y-90711500D03*
%TO.P,IC7,21,I10*%
%TO.N,Net-(IC7-I10)*%
X92862504Y-90711500D03*
%TO.P,IC7,22,I9*%
%TO.N,Net-(IC7-I9)*%
X92212503Y-90711500D03*
%TO.P,IC7,23,I8*%
%TO.N,Net-(IC7-I8)*%
X91562504Y-90711500D03*
%TO.P,IC7,24,VCC*%
%TO.N,+3.3V*%
X90912503Y-90711500D03*
%TD*%
D19*
%TO.P,R14,1*%
%TO.N,+5V*%
X103730000Y-134370000D03*
%TO.P,R14,2*%
%TO.N,/PWR_LED*%
X102080000Y-134370000D03*
%TD*%
D16*
%TO.P,LED3,1,K*%
%TO.N,GND*%
X103187500Y-81000000D03*
%TO.P,LED3,2,A*%
%TO.N,Net-(LED3-A)*%
X101612500Y-81000000D03*
%TD*%
D20*
%TO.P,R11,1*%
%TO.N,GND*%
X105835000Y-98630000D03*
%TO.P,R11,2*%
%TO.N,Net-(IC4-PR1)*%
X107485000Y-98630000D03*
%TD*%
D12*
%TO.P,R24,1*%
%TO.N,Net-(Q3-Pad4)*%
X95640000Y-117605000D03*
%TO.P,R24,2*%
%TO.N,+12V*%
X95640000Y-119255000D03*
%TD*%
D21*
%TO.P,R19,1*%
%TO.N,/MUX3*%
X99300000Y-126555000D03*
%TO.P,R19,2*%
%TO.N,GND*%
X99300000Y-124905000D03*
%TD*%
D22*
%TO.P,C17,1*%
%TO.N,VCC*%
X102037500Y-104850000D03*
%TO.P,C17,2*%
%TO.N,GND*%
X110037500Y-104850000D03*
%TD*%
D14*
%TO.P,Q1,1,B*%
%TO.N,Net-(Q1-B)*%
X128090000Y-72870000D03*
%TO.P,Q1,2,E*%
%TO.N,Net-(IC2-RTS)*%
X128090000Y-70970000D03*
%TO.P,Q1,3,C*%
%TO.N,/CHIP_PU*%
X125470000Y-71920000D03*
%TD*%
D19*
%TO.P,R16,1*%
%TO.N,/SHUTDOWN_IND*%
X103235000Y-82560000D03*
%TO.P,R16,2*%
%TO.N,Net-(LED3-A)*%
X101585000Y-82560000D03*
%TD*%
D18*
%TO.P,IC8,1,COM*%
%TO.N,/MUX3*%
X90912503Y-132723500D03*
%TO.P,IC8,2,I7*%
%TO.N,Net-(IC8-I7)*%
X91562502Y-132723500D03*
%TO.P,IC8,3,I6*%
%TO.N,Net-(IC8-I6)*%
X92212500Y-132723500D03*
%TO.P,IC8,4,I5*%
%TO.N,Net-(IC8-I5)*%
X92862501Y-132723500D03*
%TO.P,IC8,5,I4*%
%TO.N,Net-(IC8-I4)*%
X93512500Y-132723500D03*
%TO.P,IC8,6,I3*%
%TO.N,Net-(IC8-I3)*%
X94162501Y-132723500D03*
%TO.P,IC8,7,I2*%
%TO.N,Net-(IC8-I2)*%
X94812500Y-132723500D03*
%TO.P,IC8,8,I1*%
%TO.N,Net-(IC8-I1)*%
X95462501Y-132723500D03*
%TO.P,IC8,9,I0*%
%TO.N,Net-(IC8-I0)*%
X96112500Y-132723500D03*
%TO.P,IC8,10,S0*%
%TO.N,/MUX_S0*%
X96762501Y-132723500D03*
%TO.P,IC8,11,S1*%
%TO.N,/MUX_S1*%
X97412500Y-132723500D03*
%TO.P,IC8,12,GND*%
%TO.N,GND*%
X98062501Y-132723500D03*
%TO.P,IC8,13,S3*%
%TO.N,/MUX_S3*%
X98062501Y-126881500D03*
%TO.P,IC8,14,S2*%
%TO.N,/MUX_S2*%
X97412502Y-126881500D03*
%TO.P,IC8,15,~{E}*%
%TO.N,GND*%
X96762501Y-126881500D03*
%TO.P,IC8,16,I15*%
%TO.N,Net-(IC8-I15)*%
X96112503Y-126881500D03*
%TO.P,IC8,17,I14*%
%TO.N,Net-(IC8-I14)*%
X95462501Y-126881500D03*
%TO.P,IC8,18,I13*%
%TO.N,Net-(IC8-I13)*%
X94812503Y-126881500D03*
%TO.P,IC8,19,I12*%
%TO.N,Net-(IC8-I12)*%
X94162504Y-126881500D03*
%TO.P,IC8,20,I11*%
%TO.N,Net-(IC8-I11)*%
X93512503Y-126881500D03*
%TO.P,IC8,21,I10*%
%TO.N,Net-(IC8-I10)*%
X92862504Y-126881500D03*
%TO.P,IC8,22,I9*%
%TO.N,Net-(IC8-I9)*%
X92212503Y-126881500D03*
%TO.P,IC8,23,I8*%
%TO.N,Net-(IC8-I8)*%
X91562504Y-126881500D03*
%TO.P,IC8,24,VCC*%
%TO.N,+3.3V*%
X90912503Y-126881500D03*
%TD*%
D21*
%TO.P,R18,1*%
%TO.N,/MUX2*%
X99460000Y-95165000D03*
%TO.P,R18,2*%
%TO.N,GND*%
X99460000Y-93515000D03*
%TD*%
D23*
%TO.P,D1,1*%
%TO.N,/CAN-*%
X113360000Y-133972500D03*
%TO.P,D1,2*%
%TO.N,/CAN+*%
X113360000Y-135272500D03*
%TO.P,D1,3*%
%TO.N,GND*%
X115360000Y-134622500D03*
%TD*%
D12*
%TO.P,R23,1*%
%TO.N,/SHUTOFF*%
X97440000Y-101905000D03*
%TO.P,R23,2*%
%TO.N,Net-(Q3-Pad1)*%
X97440000Y-103555000D03*
%TD*%
D24*
%TO.P,U3,1,VIN*%
%TO.N,+12V*%
X110740000Y-111817500D03*
%TO.P,U3,2,OUTPUT*%
%TO.N,Net-(D3-K)*%
X109040000Y-111817500D03*
%TO.P,U3,3,GROUND*%
%TO.N,GND*%
X107340000Y-111817500D03*
%TO.P,U3,4,FEEDBACK*%
%TO.N,VCC*%
X105640000Y-111817500D03*
%TO.P,U3,5,~{ON}/OFF*%
%TO.N,GND*%
X103940000Y-111817500D03*
D25*
%TO.P,U3,6,GROUND__1*%
X107340000Y-121537500D03*
%TD*%
D21*
%TO.P,R4,1*%
%TO.N,/PROG_D-*%
X132140000Y-81945000D03*
%TO.P,R4,2*%
%TO.N,Net-(R4-Pad2)*%
X132140000Y-80295000D03*
%TD*%
D26*
%TO.P,J3,1,1*%
%TO.N,+3.3V*%
X84692500Y-108410000D03*
D27*
%TO.P,J3,2,2*%
%TO.N,Net-(IC7-I0)*%
X86692500Y-108410000D03*
%TO.P,J3,3,3*%
%TO.N,+3.3V*%
X84692500Y-106410000D03*
%TO.P,J3,4,4*%
%TO.N,Net-(IC7-I1)*%
X86692500Y-106410000D03*
%TO.P,J3,5,5*%
%TO.N,+3.3V*%
X84692500Y-104410000D03*
%TO.P,J3,6,6*%
%TO.N,Net-(IC7-I2)*%
X86692500Y-104410000D03*
%TO.P,J3,7,7*%
%TO.N,+3.3V*%
X84692500Y-102410000D03*
%TO.P,J3,8,8*%
%TO.N,Net-(IC7-I3)*%
X86692500Y-102410000D03*
%TO.P,J3,9,9*%
%TO.N,+3.3V*%
X84692500Y-100410000D03*
%TO.P,J3,10,10*%
%TO.N,Net-(IC7-I4)*%
X86692500Y-100410000D03*
%TO.P,J3,11,11*%
%TO.N,+3.3V*%
X84692500Y-98410000D03*
%TO.P,J3,12,12*%
%TO.N,Net-(IC7-I5)*%
X86692500Y-98410000D03*
%TO.P,J3,13,13*%
%TO.N,+3.3V*%
X84692500Y-96410000D03*
%TO.P,J3,14,14*%
%TO.N,Net-(IC7-I6)*%
X86692500Y-96410000D03*
%TO.P,J3,15,15*%
%TO.N,+3.3V*%
X84692500Y-94410000D03*
%TO.P,J3,16,16*%
%TO.N,Net-(IC7-I7)*%
X86692500Y-94410000D03*
%TO.P,J3,17,17*%
%TO.N,+3.3V*%
X84692500Y-92410000D03*
%TO.P,J3,18,18*%
%TO.N,Net-(IC7-I8)*%
X86692500Y-92410000D03*
%TO.P,J3,19,19*%
%TO.N,+3.3V*%
X84692500Y-90410000D03*
%TO.P,J3,20,20*%
%TO.N,Net-(IC7-I9)*%
X86692500Y-90410000D03*
%TO.P,J3,21,21*%
%TO.N,+3.3V*%
X84692500Y-88410000D03*
%TO.P,J3,22,22*%
%TO.N,Net-(IC7-I10)*%
X86692500Y-88410000D03*
%TO.P,J3,23,23*%
%TO.N,+3.3V*%
X84692500Y-86410000D03*
%TO.P,J3,24,24*%
%TO.N,Net-(IC7-I11)*%
X86692500Y-86410000D03*
%TO.P,J3,25,25*%
%TO.N,+3.3V*%
X84692500Y-84410000D03*
%TO.P,J3,26,26*%
%TO.N,Net-(IC7-I12)*%
X86692500Y-84410000D03*
%TO.P,J3,27,27*%
%TO.N,+3.3V*%
X84692500Y-82410000D03*
%TO.P,J3,28,28*%
%TO.N,Net-(IC7-I13)*%
X86692500Y-82410000D03*
%TO.P,J3,29,29*%
%TO.N,+3.3V*%
X84692500Y-80410000D03*
%TO.P,J3,30,30*%
%TO.N,Net-(IC7-I14)*%
X86692500Y-80410000D03*
%TO.P,J3,31,31*%
%TO.N,+3.3V*%
X84692500Y-78410000D03*
%TO.P,J3,32,32*%
%TO.N,Net-(IC7-I15)*%
X86692500Y-78410000D03*
%TD*%
D28*
%TO.P,L1,1,1*%
%TO.N,Net-(D3-K)*%
X124856800Y-117720000D03*
%TO.P,L1,2,2*%
%TO.N,VCC*%
X115103200Y-117720000D03*
%TD*%
D18*
%TO.P,IC9,1,COM*%
%TO.N,/MUX4*%
X136172500Y-126881500D03*
%TO.P,IC9,2,I7*%
%TO.N,Net-(IC9-I7)*%
X135522501Y-126881500D03*
%TO.P,IC9,3,I6*%
%TO.N,Net-(IC9-I6)*%
X134872503Y-126881500D03*
%TO.P,IC9,4,I5*%
%TO.N,Net-(IC9-I5)*%
X134222502Y-126881500D03*
%TO.P,IC9,5,I4*%
%TO.N,Net-(IC9-I4)*%
X133572503Y-126881500D03*
%TO.P,IC9,6,I3*%
%TO.N,Net-(IC9-I3)*%
X132922502Y-126881500D03*
%TO.P,IC9,7,I2*%
%TO.N,Net-(IC9-I2)*%
X132272503Y-126881500D03*
%TO.P,IC9,8,I1*%
%TO.N,Net-(IC9-I1)*%
X131622502Y-126881500D03*
%TO.P,IC9,9,I0*%
%TO.N,Net-(IC9-I0)*%
X130972503Y-126881500D03*
%TO.P,IC9,10,S0*%
%TO.N,/MUX_S0*%
X130322502Y-126881500D03*
%TO.P,IC9,11,S1*%
%TO.N,/MUX_S1*%
X129672503Y-126881500D03*
%TO.P,IC9,12,GND*%
%TO.N,GND*%
X129022502Y-126881500D03*
%TO.P,IC9,13,S3*%
%TO.N,/MUX_S3*%
X129022502Y-132723500D03*
%TO.P,IC9,14,S2*%
%TO.N,/MUX_S2*%
X129672501Y-132723500D03*
%TO.P,IC9,15,~{E}*%
%TO.N,GND*%
X130322502Y-132723500D03*
%TO.P,IC9,16,I15*%
%TO.N,Net-(IC9-I15)*%
X130972500Y-132723500D03*
%TO.P,IC9,17,I14*%
%TO.N,Net-(IC9-I14)*%
X131622502Y-132723500D03*
%TO.P,IC9,18,I13*%
%TO.N,Net-(IC9-I13)*%
X132272500Y-132723500D03*
%TO.P,IC9,19,I12*%
%TO.N,Net-(IC9-I12)*%
X132922499Y-132723500D03*
%TO.P,IC9,20,I11*%
%TO.N,Net-(IC9-I11)*%
X133572500Y-132723500D03*
%TO.P,IC9,21,I10*%
%TO.N,Net-(IC9-I10)*%
X134222499Y-132723500D03*
%TO.P,IC9,22,I9*%
%TO.N,Net-(IC9-I9)*%
X134872500Y-132723500D03*
%TO.P,IC9,23,I8*%
%TO.N,Net-(IC9-I8)*%
X135522499Y-132723500D03*
%TO.P,IC9,24,VCC*%
%TO.N,+3.3V*%
X136172500Y-132723500D03*
%TD*%
D12*
%TO.P,R1,1*%
%TO.N,+3.3V*%
X100320000Y-74175000D03*
%TO.P,R1,2*%
%TO.N,/CHIP_PU*%
X100320000Y-75825000D03*
%TD*%
D29*
%TO.P,D3,1,K*%
%TO.N,Net-(D3-K)*%
X99760000Y-112000000D03*
%TO.P,D3,2,A*%
%TO.N,GND*%
X99760000Y-116000000D03*
%TD*%
D20*
%TO.P,R5,1*%
%TO.N,Net-(IC2-VBUS)*%
X128375000Y-84970000D03*
%TO.P,R5,2*%
%TO.N,VBUS*%
X130025000Y-84970000D03*
%TD*%
D30*
%TO.P,Q3,1,1*%
%TO.N,Net-(Q3-Pad1)*%
X93860000Y-107879800D03*
%TO.P,Q3,2,2*%
%TO.N,GND*%
X91320000Y-107879800D03*
%TO.P,Q3,3,3*%
%TO.N,/SHUTOFF_ISO*%
X91320000Y-117100000D03*
%TO.P,Q3,4,4*%
%TO.N,Net-(Q3-Pad4)*%
X93860000Y-117100000D03*
%TD*%
D26*
%TO.P,J4,1,1*%
%TO.N,+3.3V*%
X84692500Y-144580000D03*
D27*
%TO.P,J4,2,2*%
%TO.N,Net-(IC8-I0)*%
X86692500Y-144580000D03*
%TO.P,J4,3,3*%
%TO.N,+3.3V*%
X84692500Y-142580000D03*
%TO.P,J4,4,4*%
%TO.N,Net-(IC8-I1)*%
X86692500Y-142580000D03*
%TO.P,J4,5,5*%
%TO.N,+3.3V*%
X84692500Y-140580000D03*
%TO.P,J4,6,6*%
%TO.N,Net-(IC8-I2)*%
X86692500Y-140580000D03*
%TO.P,J4,7,7*%
%TO.N,+3.3V*%
X84692500Y-138580000D03*
%TO.P,J4,8,8*%
%TO.N,Net-(IC8-I3)*%
X86692500Y-138580000D03*
%TO.P,J4,9,9*%
%TO.N,+3.3V*%
X84692500Y-136580000D03*
%TO.P,J4,10,10*%
%TO.N,Net-(IC8-I4)*%
X86692500Y-136580000D03*
%TO.P,J4,11,11*%
%TO.N,+3.3V*%
X84692500Y-134580000D03*
%TO.P,J4,12,12*%
%TO.N,Net-(IC8-I5)*%
X86692500Y-134580000D03*
%TO.P,J4,13,13*%
%TO.N,+3.3V*%
X84692500Y-132580000D03*
%TO.P,J4,14,14*%
%TO.N,Net-(IC8-I6)*%
X86692500Y-132580000D03*
%TO.P,J4,15,15*%
%TO.N,+3.3V*%
X84692500Y-130580000D03*
%TO.P,J4,16,16*%
%TO.N,Net-(IC8-I7)*%
X86692500Y-130580000D03*
%TO.P,J4,17,17*%
%TO.N,+3.3V*%
X84692500Y-128580000D03*
%TO.P,J4,18,18*%
%TO.N,Net-(IC8-I8)*%
X86692500Y-128580000D03*
%TO.P,J4,19,19*%
%TO.N,+3.3V*%
X84692500Y-126580000D03*
%TO.P,J4,20,20*%
%TO.N,Net-(IC8-I9)*%
X86692500Y-126580000D03*
%TO.P,J4,21,21*%
%TO.N,+3.3V*%
X84692500Y-124580000D03*
%TO.P,J4,22,22*%
%TO.N,Net-(IC8-I10)*%
X86692500Y-124580000D03*
%TO.P,J4,23,23*%
%TO.N,+3.3V*%
X84692500Y-122580000D03*
%TO.P,J4,24,24*%
%TO.N,Net-(IC8-I11)*%
X86692500Y-122580000D03*
%TO.P,J4,25,25*%
%TO.N,+3.3V*%
X84692500Y-120580000D03*
%TO.P,J4,26,26*%
%TO.N,Net-(IC8-I12)*%
X86692500Y-120580000D03*
%TO.P,J4,27,27*%
%TO.N,+3.3V*%
X84692500Y-118580000D03*
%TO.P,J4,28,28*%
%TO.N,Net-(IC8-I13)*%
X86692500Y-118580000D03*
%TO.P,J4,29,29*%
%TO.N,+3.3V*%
X84692500Y-116580000D03*
%TO.P,J4,30,30*%
%TO.N,Net-(IC8-I14)*%
X86692500Y-116580000D03*
%TO.P,J4,31,31*%
%TO.N,+3.3V*%
X84692500Y-114580000D03*
%TO.P,J4,32,32*%
%TO.N,Net-(IC8-I15)*%
X86692500Y-114580000D03*
%TD*%
D15*
%TO.P,C14,1*%
%TO.N,GND*%
X100750000Y-132835000D03*
%TO.P,C14,2*%
%TO.N,+3.3V*%
X100750000Y-131285000D03*
%TD*%
D31*
%TO.P,C11,1*%
%TO.N,+3.3V*%
X125830000Y-133825000D03*
%TO.P,C11,2*%
%TO.N,GND*%
X125830000Y-135375000D03*
%TD*%
D32*
%TO.P,J5,1,1*%
%TO.N,+3.3V*%
X142162500Y-115025000D03*
D27*
%TO.P,J5,2,2*%
%TO.N,Net-(IC9-I0)*%
X140162500Y-115025000D03*
%TO.P,J5,3,3*%
%TO.N,+3.3V*%
X142162500Y-117025000D03*
%TO.P,J5,4,4*%
%TO.N,Net-(IC9-I1)*%
X140162500Y-117025000D03*
%TO.P,J5,5,5*%
%TO.N,+3.3V*%
X142162500Y-119025000D03*
%TO.P,J5,6,6*%
%TO.N,Net-(IC9-I2)*%
X140162500Y-119025000D03*
%TO.P,J5,7,7*%
%TO.N,+3.3V*%
X142162500Y-121025000D03*
%TO.P,J5,8,8*%
%TO.N,Net-(IC9-I3)*%
X140162500Y-121025000D03*
%TO.P,J5,9,9*%
%TO.N,+3.3V*%
X142162500Y-123025000D03*
%TO.P,J5,10,10*%
%TO.N,Net-(IC9-I4)*%
X140162500Y-123025000D03*
%TO.P,J5,11,11*%
%TO.N,+3.3V*%
X142162500Y-125025000D03*
%TO.P,J5,12,12*%
%TO.N,Net-(IC9-I5)*%
X140162500Y-125025000D03*
%TO.P,J5,13,13*%
%TO.N,+3.3V*%
X142162500Y-127025000D03*
%TO.P,J5,14,14*%
%TO.N,Net-(IC9-I6)*%
X140162500Y-127025000D03*
%TO.P,J5,15,15*%
%TO.N,+3.3V*%
X142162500Y-129025000D03*
%TO.P,J5,16,16*%
%TO.N,Net-(IC9-I7)*%
X140162500Y-129025000D03*
%TO.P,J5,17,17*%
%TO.N,+3.3V*%
X142162500Y-131025000D03*
%TO.P,J5,18,18*%
%TO.N,Net-(IC9-I8)*%
X140162500Y-131025000D03*
%TO.P,J5,19,19*%
%TO.N,+3.3V*%
X142162500Y-133025000D03*
%TO.P,J5,20,20*%
%TO.N,Net-(IC9-I9)*%
X140162500Y-133025000D03*
%TO.P,J5,21,21*%
%TO.N,+3.3V*%
X142162500Y-135025000D03*
%TO.P,J5,22,22*%
%TO.N,Net-(IC9-I10)*%
X140162500Y-135025000D03*
%TO.P,J5,23,23*%
%TO.N,+3.3V*%
X142162500Y-137025000D03*
%TO.P,J5,24,24*%
%TO.N,Net-(IC9-I11)*%
X140162500Y-137025000D03*
%TO.P,J5,25,25*%
%TO.N,+3.3V*%
X142162500Y-139025000D03*
%TO.P,J5,26,26*%
%TO.N,Net-(IC9-I12)*%
X140162500Y-139025000D03*
%TO.P,J5,27,27*%
%TO.N,+3.3V*%
X142162500Y-141025000D03*
%TO.P,J5,28,28*%
%TO.N,Net-(IC9-I13)*%
X140162500Y-141025000D03*
%TO.P,J5,29,29*%
%TO.N,+3.3V*%
X142162500Y-143025000D03*
%TO.P,J5,30,30*%
%TO.N,Net-(IC9-I14)*%
X140162500Y-143025000D03*
%TO.P,J5,31,31*%
%TO.N,+3.3V*%
X142162500Y-145025000D03*
%TO.P,J5,32,32*%
%TO.N,Net-(IC9-I15)*%
X140162500Y-145025000D03*
%TD*%
D15*
%TO.P,C6,1*%
%TO.N,GND*%
X125360000Y-85005000D03*
%TO.P,C6,2*%
%TO.N,+3.3V*%
X125360000Y-83455000D03*
%TD*%
D20*
%TO.P,R10,1*%
%TO.N,Net-(IC4-PR1)*%
X108915000Y-98620000D03*
%TO.P,R10,2*%
%TO.N,VCC*%
X110565000Y-98620000D03*
%TD*%
D32*
%TO.P,J2,1,1*%
%TO.N,+3.3V*%
X142162500Y-78855000D03*
D27*
%TO.P,J2,2,2*%
%TO.N,Net-(IC6-I0)*%
X140162500Y-78855000D03*
%TO.P,J2,3,3*%
%TO.N,+3.3V*%
X142162500Y-80855000D03*
%TO.P,J2,4,4*%
%TO.N,Net-(IC6-I1)*%
X140162500Y-80855000D03*
%TO.P,J2,5,5*%
%TO.N,+3.3V*%
X142162500Y-82855000D03*
%TO.P,J2,6,6*%
%TO.N,Net-(IC6-I2)*%
X140162500Y-82855000D03*
%TO.P,J2,7,7*%
%TO.N,+3.3V*%
X142162500Y-84855000D03*
%TO.P,J2,8,8*%
%TO.N,Net-(IC6-I3)*%
X140162500Y-84855000D03*
%TO.P,J2,9,9*%
%TO.N,+3.3V*%
X142162500Y-86855000D03*
%TO.P,J2,10,10*%
%TO.N,Net-(IC6-I4)*%
X140162500Y-86855000D03*
%TO.P,J2,11,11*%
%TO.N,+3.3V*%
X142162500Y-88855000D03*
%TO.P,J2,12,12*%
%TO.N,Net-(IC6-I5)*%
X140162500Y-88855000D03*
%TO.P,J2,13,13*%
%TO.N,+3.3V*%
X142162500Y-90855000D03*
%TO.P,J2,14,14*%
%TO.N,Net-(IC6-I6)*%
X140162500Y-90855000D03*
%TO.P,J2,15,15*%
%TO.N,+3.3V*%
X142162500Y-92855000D03*
%TO.P,J2,16,16*%
%TO.N,Net-(IC6-I7)*%
X140162500Y-92855000D03*
%TO.P,J2,17,17*%
%TO.N,+3.3V*%
X142162500Y-94855000D03*
%TO.P,J2,18,18*%
%TO.N,Net-(IC6-I8)*%
X140162500Y-94855000D03*
%TO.P,J2,19,19*%
%TO.N,+3.3V*%
X142162500Y-96855000D03*
%TO.P,J2,20,20*%
%TO.N,Net-(IC6-I9)*%
X140162500Y-96855000D03*
%TO.P,J2,21,21*%
%TO.N,+3.3V*%
X142162500Y-98855000D03*
%TO.P,J2,22,22*%
%TO.N,Net-(IC6-I10)*%
X140162500Y-98855000D03*
%TO.P,J2,23,23*%
%TO.N,+3.3V*%
X142162500Y-100855000D03*
%TO.P,J2,24,24*%
%TO.N,Net-(IC6-I11)*%
X140162500Y-100855000D03*
%TO.P,J2,25,25*%
%TO.N,+3.3V*%
X142162500Y-102855000D03*
%TO.P,J2,26,26*%
%TO.N,Net-(IC6-I12)*%
X140162500Y-102855000D03*
%TO.P,J2,27,27*%
%TO.N,+3.3V*%
X142162500Y-104855000D03*
%TO.P,J2,28,28*%
%TO.N,Net-(IC6-I13)*%
X140162500Y-104855000D03*
%TO.P,J2,29,29*%
%TO.N,+3.3V*%
X142162500Y-106855000D03*
%TO.P,J2,30,30*%
%TO.N,Net-(IC6-I14)*%
X140162500Y-106855000D03*
%TO.P,J2,31,31*%
%TO.N,+3.3V*%
X142162500Y-108855000D03*
%TO.P,J2,32,32*%
%TO.N,Net-(IC6-I15)*%
X140162500Y-108855000D03*
%TD*%
D33*
%TO.P,IC5,1,IN*%
%TO.N,+5V*%
X102770000Y-127640000D03*
%TO.P,IC5,2,GND_1*%
%TO.N,GND*%
X102770000Y-129940000D03*
%TO.P,IC5,3,OUT*%
%TO.N,+3.3V*%
X102770000Y-132240000D03*
D34*
%TO.P,IC5,4,GND_2*%
%TO.N,GND*%
X109070000Y-129940000D03*
%TD*%
D15*
%TO.P,C4,1*%
%TO.N,GND*%
X132580000Y-77225000D03*
%TO.P,C4,2*%
%TO.N,VBUS*%
X132580000Y-75675000D03*
%TD*%
%TO.P,C1,1*%
%TO.N,/CHIP_PU*%
X102980000Y-75695000D03*
%TO.P,C1,2*%
%TO.N,GND*%
X102980000Y-74145000D03*
%TD*%
D19*
%TO.P,R7,1*%
%TO.N,Net-(Q1-B)*%
X128855000Y-74470000D03*
%TO.P,R7,2*%
%TO.N,Net-(IC2-DTR)*%
X127205000Y-74470000D03*
%TD*%
D35*
%TO.P,C10,1*%
%TO.N,+5V*%
X105225000Y-134820000D03*
%TO.P,C10,2*%
%TO.N,GND*%
X108175000Y-134820000D03*
%TD*%
D10*
%TO.P,C16,1*%
%TO.N,/SHUTOFF_ISO*%
X92575000Y-119140000D03*
%TO.P,C16,2*%
%TO.N,GND*%
X94125000Y-119140000D03*
%TD*%
D12*
%TO.P,R3,1*%
%TO.N,Net-(R3-Pad1)*%
X133670000Y-80275000D03*
%TO.P,R3,2*%
%TO.N,/PROG_D+*%
X133670000Y-81925000D03*
%TD*%
D21*
%TO.P,R13,1*%
%TO.N,+5V*%
X115380000Y-100220000D03*
%TO.P,R13,2*%
%TO.N,/ST*%
X115380000Y-98570000D03*
%TD*%
D36*
%TO.P,IC3,1*%
%TO.N,/CAN_TERM*%
X111958300Y-127270000D03*
%TO.P,IC3,3*%
%TO.N,GND*%
X111958300Y-129810000D03*
%TO.P,IC3,4*%
%TO.N,/CAN-*%
X118841700Y-129810000D03*
%TO.P,IC3,6*%
%TO.N,Net-(IC3-Pad6)*%
X118841700Y-127270000D03*
%TD*%
D37*
%TO.P,IC1,1,GND_1*%
%TO.N,GND*%
X104990000Y-71360000D03*
%TO.P,IC1,2,3V3*%
%TO.N,+3.3V*%
X104990000Y-72630000D03*
%TO.P,IC1,3,EN*%
%TO.N,/CHIP_PU*%
X104990000Y-73900000D03*
%TO.P,IC1,4,IO4*%
%TO.N,unconnected-(IC1-IO4-Pad4)*%
X104990000Y-75170000D03*
%TO.P,IC1,5,IO5*%
%TO.N,unconnected-(IC1-IO5-Pad5)*%
X104990000Y-76440000D03*
%TO.P,IC1,6,IO6*%
%TO.N,/SHUTOFF*%
X104990000Y-77710000D03*
%TO.P,IC1,7,IO7*%
%TO.N,/ORION*%
X104990000Y-78980000D03*
%TO.P,IC1,8,IO15*%
%TO.N,/IO15*%
X104990000Y-80250000D03*
%TO.P,IC1,9,IO16*%
%TO.N,unconnected-(IC1-IO16-Pad9)*%
X104990000Y-81520000D03*
%TO.P,IC1,10,IO17*%
%TO.N,/SHUTDOWN_IND*%
X104990000Y-82790000D03*
%TO.P,IC1,11,IO18*%
%TO.N,/USER_LED*%
X104990000Y-84060000D03*
%TO.P,IC1,12,IO8*%
%TO.N,unconnected-(IC1-IO8-Pad12)*%
X104990000Y-85330000D03*
%TO.P,IC1,13,IO19*%
%TO.N,unconnected-(IC1-IO19-Pad13)*%
X104990000Y-86600000D03*
%TO.P,IC1,14,IO20*%
%TO.N,unconnected-(IC1-IO20-Pad14)*%
X104990000Y-87870000D03*
D38*
%TO.P,IC1,15,IO3*%
%TO.N,unconnected-(IC1-IO3-Pad15)*%
X106755000Y-89120000D03*
%TO.P,IC1,16,IO46*%
%TO.N,unconnected-(IC1-IO46-Pad16)*%
X108025000Y-89120000D03*
%TO.P,IC1,17,IO9*%
%TO.N,unconnected-(IC1-IO9-Pad17)*%
X109295000Y-89120000D03*
%TO.P,IC1,18,IO10*%
%TO.N,/MUX2*%
X110565000Y-89120000D03*
%TO.P,IC1,19,IO11*%
%TO.N,/MUX3*%
X111835000Y-89120000D03*
%TO.P,IC1,20,IO12*%
%TO.N,/MUX4*%
X113105000Y-89120000D03*
%TO.P,IC1,21,IO13*%
%TO.N,/MUX1*%
X114375000Y-89120000D03*
%TO.P,IC1,22,IO14*%
%TO.N,/MUX_S0*%
X115645000Y-89120000D03*
%TO.P,IC1,23,IO21*%
%TO.N,/MUX_S1*%
X116915000Y-89120000D03*
%TO.P,IC1,24,IO47*%
%TO.N,/MUX_S2*%
X118185000Y-89120000D03*
%TO.P,IC1,25,IO48*%
%TO.N,/MUX_S3*%
X119455000Y-89120000D03*
%TO.P,IC1,26,IO45*%
%TO.N,unconnected-(IC1-IO45-Pad26)*%
X120725000Y-89120000D03*
D37*
%TO.P,IC1,27,IO0*%
%TO.N,/GPIO0*%
X122490000Y-87870000D03*
%TO.P,IC1,28,IO35*%
%TO.N,unconnected-(IC1-IO35-Pad28)*%
X122490000Y-86600000D03*
%TO.P,IC1,29,IO36*%
%TO.N,/CAN_CTX*%
X122490000Y-85330000D03*
%TO.P,IC1,30,IO37*%
%TO.N,/CAN_RTX*%
X122490000Y-84060000D03*
%TO.P,IC1,31,IO38*%
%TO.N,/CAN_TERM*%
X122490000Y-82790000D03*
%TO.P,IC1,32,IO39*%
%TO.N,unconnected-(IC1-IO39-Pad32)*%
X122490000Y-81520000D03*
%TO.P,IC1,33,IO40*%
%TO.N,unconnected-(IC1-IO40-Pad33)*%
X122490000Y-80250000D03*
%TO.P,IC1,34,IO41*%
%TO.N,unconnected-(IC1-IO41-Pad34)*%
X122490000Y-78980000D03*
%TO.P,IC1,35,IO42*%
%TO.N,unconnected-(IC1-IO42-Pad35)*%
X122490000Y-77710000D03*
%TO.P,IC1,36,RXD0*%
%TO.N,/U0RXD*%
X122490000Y-76440000D03*
%TO.P,IC1,37,TXD0*%
%TO.N,/U0TXD*%
X122490000Y-75170000D03*
%TO.P,IC1,38,IO2*%
%TO.N,unconnected-(IC1-IO2-Pad38)*%
X122490000Y-73900000D03*
%TO.P,IC1,39,IO1*%
%TO.N,unconnected-(IC1-IO1-Pad39)*%
X122490000Y-72630000D03*
%TO.P,IC1,40,GND_2*%
%TO.N,GND*%
X122490000Y-71360000D03*
D39*
%TO.P,IC1,41,GND_3*%
X112240000Y-79080000D03*
%TO.P,IC1,42,GND_4*%
X110840000Y-79080000D03*
%TO.P,IC1,43,GND_5*%
X113640000Y-79080000D03*
%TO.P,IC1,44,GND_6*%
X110840000Y-80480000D03*
%TO.P,IC1,45,GND_7*%
X112240000Y-80480000D03*
%TO.P,IC1,46,GND_8*%
X113640000Y-80480000D03*
%TO.P,IC1,47,GND_9*%
X110840000Y-77680000D03*
%TO.P,IC1,48,GND_10*%
X112240000Y-77680000D03*
%TO.P,IC1,49,GND_11*%
X113640000Y-77680000D03*
%TD*%
D21*
%TO.P,R17,1*%
%TO.N,/MUX1*%
X127620000Y-93615000D03*
%TO.P,R17,2*%
%TO.N,GND*%
X127620000Y-91965000D03*
%TD*%
D40*
%TO.P,IC2,1,DCD*%
%TO.N,unconnected-(IC2-DCD-Pad1)*%
X125720000Y-77850000D03*
%TO.P,IC2,2,RI/CLK*%
%TO.N,unconnected-(IC2-RI{slash}CLK-Pad2)*%
X125720000Y-78350000D03*
%TO.P,IC2,3,GND*%
%TO.N,GND*%
X125720000Y-78850000D03*
%TO.P,IC2,4,D+*%
%TO.N,/PROG_D+*%
X125720000Y-79350000D03*
%TO.P,IC2,5,D-*%
%TO.N,/PROG_D-*%
X125720000Y-79850000D03*
%TO.P,IC2,6,VDD*%
%TO.N,+3.3V*%
X125720000Y-80350000D03*
%TO.P,IC2,7,VREGIN*%
X125720000Y-80850000D03*
D41*
%TO.P,IC2,8,VBUS*%
%TO.N,Net-(IC2-VBUS)*%
X126580000Y-81710000D03*
%TO.P,IC2,9,RSTB*%
%TO.N,/RSTB*%
X127080000Y-81710000D03*
%TO.P,IC2,10,NC*%
%TO.N,unconnected-(IC2-NC-Pad10)*%
X127580000Y-81710000D03*
%TO.P,IC2,11,SUSPENDB*%
%TO.N,unconnected-(IC2-SUSPENDB-Pad11)*%
X128080000Y-81710000D03*
%TO.P,IC2,12,SUSPEND*%
%TO.N,unconnected-(IC2-SUSPEND-Pad12)*%
X128580000Y-81710000D03*
%TO.P,IC2,13,CHREN*%
%TO.N,unconnected-(IC2-CHREN-Pad13)*%
X129080000Y-81710000D03*
%TO.P,IC2,14,CHR1*%
%TO.N,unconnected-(IC2-CHR1-Pad14)*%
X129580000Y-81710000D03*
D40*
%TO.P,IC2,15,CHR0*%
%TO.N,unconnected-(IC2-CHR0-Pad15)*%
X130440000Y-80850000D03*
%TO.P,IC2,16,GPIO.3/WAKEUP*%
%TO.N,unconnected-(IC2-GPIO.3{slash}WAKEUP-Pad16)*%
X130440000Y-80350000D03*
%TO.P,IC2,17,GPIO.2/RS485*%
%TO.N,unconnected-(IC2-GPIO.2{slash}RS485-Pad17)*%
X130440000Y-79850000D03*
%TO.P,IC2,18,GPIO.1/RXT*%
%TO.N,unconnected-(IC2-GPIO.1{slash}RXT-Pad18)*%
X130440000Y-79350000D03*
%TO.P,IC2,19,GPIO.0/TXT*%
%TO.N,unconnected-(IC2-GPIO.0{slash}TXT-Pad19)*%
X130440000Y-78850000D03*
%TO.P,IC2,20,GPIO.6*%
%TO.N,unconnected-(IC2-GPIO.6-Pad20)*%
X130440000Y-78350000D03*
%TO.P,IC2,21,GPIO.5*%
%TO.N,unconnected-(IC2-GPIO.5-Pad21)*%
X130440000Y-77850000D03*
D41*
%TO.P,IC2,22,GPIO.4*%
%TO.N,unconnected-(IC2-GPIO.4-Pad22)*%
X129580000Y-76990000D03*
%TO.P,IC2,23,CTS*%
%TO.N,unconnected-(IC2-CTS-Pad23)*%
X129080000Y-76990000D03*
%TO.P,IC2,24,RTS*%
%TO.N,Net-(IC2-RTS)*%
X128580000Y-76990000D03*
%TO.P,IC2,25,RXD*%
%TO.N,/U0TXD*%
X128080000Y-76990000D03*
%TO.P,IC2,26,TXD*%
%TO.N,/U0RXD*%
X127580000Y-76990000D03*
%TO.P,IC2,27,DSR*%
%TO.N,unconnected-(IC2-DSR-Pad27)*%
X127080000Y-76990000D03*
%TO.P,IC2,28,DTR*%
%TO.N,Net-(IC2-DTR)*%
X126580000Y-76990000D03*
D42*
%TO.P,IC2,29,BGND*%
%TO.N,GND*%
X128080000Y-79350000D03*
%TD*%
D43*
%TO.P,IC4,1,GND*%
%TO.N,GND*%
X112575000Y-99930000D03*
%TO.P,IC4,2,VOUT*%
%TO.N,+5V*%
X112575000Y-100430000D03*
%TO.P,IC4,3,VIN1*%
%TO.N,VCC*%
X112575000Y-100930000D03*
%TO.P,IC4,4,PR1*%
%TO.N,Net-(IC4-PR1)*%
X112575000Y-101430000D03*
%TO.P,IC4,5,MODE*%
%TO.N,VCC*%
X114045000Y-101430000D03*
%TO.P,IC4,6,VIN2*%
%TO.N,VBUS*%
X114045000Y-100930000D03*
%TO.P,IC4,7,VOUT*%
%TO.N,+5V*%
X114045000Y-100430000D03*
%TO.P,IC4,8,ST*%
%TO.N,/ST*%
X114045000Y-99930000D03*
%TD*%
D20*
%TO.P,R6,1*%
%TO.N,Net-(IC2-VBUS)*%
X128385000Y-87960000D03*
%TO.P,R6,2*%
%TO.N,GND*%
X130035000Y-87960000D03*
%TD*%
D44*
%TO.P,J1,1,VBUS*%
%TO.N,VBUS*%
X135880000Y-73890000D03*
%TO.P,J1,2,D-*%
%TO.N,/USBM_D-*%
X135230000Y-73890000D03*
%TO.P,J1,3,D+*%
%TO.N,/USBM_D+*%
X134580000Y-73890000D03*
%TO.P,J1,4,ID*%
%TO.N,unconnected-(J1-ID-Pad4)*%
X133930000Y-73890000D03*
%TO.P,J1,5,GND*%
%TO.N,GND*%
X133280000Y-73890000D03*
D45*
%TO.P,J1,6,Shield*%
%TO.N,unconnected-(J1-Shield-Pad6)_7*%
X138080000Y-71190000D03*
D46*
%TO.N,unconnected-(J1-Shield-Pad6)_1*%
X137480000Y-71190000D03*
D47*
%TO.N,unconnected-(J1-Shield-Pad6)_5*%
X137080000Y-73890000D03*
D48*
%TO.N,unconnected-(J1-Shield-Pad6)_6*%
X135580000Y-71190000D03*
%TO.N,unconnected-(J1-Shield-Pad6)*%
X133580000Y-71190000D03*
D47*
%TO.N,unconnected-(J1-Shield-Pad6)_3*%
X132080000Y-73890000D03*
D46*
%TO.N,unconnected-(J1-Shield-Pad6)_2*%
X131680000Y-71190000D03*
D45*
%TO.N,unconnected-(J1-Shield-Pad6)_4*%
X131080000Y-71190000D03*
%TD*%
D19*
%TO.P,R12,1*%
%TO.N,Net-(IC3-Pad6)*%
X116955000Y-131400000D03*
%TO.P,R12,2*%
%TO.N,/CAN+*%
X115305000Y-131400000D03*
%TD*%
D20*
%TO.P,R15,1*%
%TO.N,GND*%
X113705000Y-136680000D03*
%TO.P,R15,2*%
%TO.N,Net-(U2-Rs)*%
X115355000Y-136680000D03*
%TD*%
D31*
%TO.P,C13,1*%
%TO.N,+3.3V*%
X124310000Y-133810000D03*
%TO.P,C13,2*%
%TO.N,GND*%
X124310000Y-135360000D03*
%TD*%
D18*
%TO.P,IC6,1,COM*%
%TO.N,/MUX1*%
X136172500Y-90711500D03*
%TO.P,IC6,2,I7*%
%TO.N,Net-(IC6-I7)*%
X135522501Y-90711500D03*
%TO.P,IC6,3,I6*%
%TO.N,Net-(IC6-I6)*%
X134872503Y-90711500D03*
%TO.P,IC6,4,I5*%
%TO.N,Net-(IC6-I5)*%
X134222502Y-90711500D03*
%TO.P,IC6,5,I4*%
%TO.N,Net-(IC6-I4)*%
X133572503Y-90711500D03*
%TO.P,IC6,6,I3*%
%TO.N,Net-(IC6-I3)*%
X132922502Y-90711500D03*
%TO.P,IC6,7,I2*%
%TO.N,Net-(IC6-I2)*%
X132272503Y-90711500D03*
%TO.P,IC6,8,I1*%
%TO.N,Net-(IC6-I1)*%
X131622502Y-90711500D03*
%TO.P,IC6,9,I0*%
%TO.N,Net-(IC6-I0)*%
X130972503Y-90711500D03*
%TO.P,IC6,10,S0*%
%TO.N,/MUX_S0*%
X130322502Y-90711500D03*
%TO.P,IC6,11,S1*%
%TO.N,/MUX_S1*%
X129672503Y-90711500D03*
%TO.P,IC6,12,GND*%
%TO.N,GND*%
X129022502Y-90711500D03*
%TO.P,IC6,13,S3*%
%TO.N,/MUX_S3*%
X129022502Y-96553500D03*
%TO.P,IC6,14,S2*%
%TO.N,/MUX_S2*%
X129672501Y-96553500D03*
%TO.P,IC6,15,~{E}*%
%TO.N,GND*%
X130322502Y-96553500D03*
%TO.P,IC6,16,I15*%
%TO.N,Net-(IC6-I15)*%
X130972500Y-96553500D03*
%TO.P,IC6,17,I14*%
%TO.N,Net-(IC6-I14)*%
X131622502Y-96553500D03*
%TO.P,IC6,18,I13*%
%TO.N,Net-(IC6-I13)*%
X132272500Y-96553500D03*
%TO.P,IC6,19,I12*%
%TO.N,Net-(IC6-I12)*%
X132922499Y-96553500D03*
%TO.P,IC6,20,I11*%
%TO.N,Net-(IC6-I11)*%
X133572500Y-96553500D03*
%TO.P,IC6,21,I10*%
%TO.N,Net-(IC6-I10)*%
X134222499Y-96553500D03*
%TO.P,IC6,22,I9*%
%TO.N,Net-(IC6-I9)*%
X134872500Y-96553500D03*
%TO.P,IC6,23,I8*%
%TO.N,Net-(IC6-I8)*%
X135522499Y-96553500D03*
%TO.P,IC6,24,VCC*%
%TO.N,+3.3V*%
X136172500Y-96553500D03*
%TD*%
D21*
%TO.P,R8,1*%
%TO.N,Net-(Q2-B)*%
X124890000Y-92945000D03*
%TO.P,R8,2*%
%TO.N,Net-(IC2-RTS)*%
X124890000Y-91295000D03*
%TD*%
D12*
%TO.P,R22,1*%
%TO.N,/ORION*%
X91800000Y-148725000D03*
%TO.P,R22,2*%
%TO.N,GND*%
X91800000Y-150375000D03*
%TD*%
D49*
%TO.P,J6,1,1*%
%TO.N,+5V*%
X109427500Y-139778750D03*
D50*
%TO.P,J6,2,2*%
%TO.N,+12V*%
X113427500Y-139778750D03*
%TO.P,J6,3,3*%
%TO.N,/SHUTOFF_ISO*%
X117427500Y-139778750D03*
%TO.P,J6,4,4*%
%TO.N,/CAN-*%
X111427500Y-143778750D03*
%TO.P,J6,5,5*%
%TO.N,/CAN+*%
X115427500Y-143778750D03*
%TO.P,J6,6,6*%
%TO.N,/ORION*%
X109427500Y-147778750D03*
%TO.P,J6,7,7*%
%TO.N,/IO15*%
X113427500Y-147778750D03*
%TO.P,J6,8,8*%
%TO.N,GND*%
X117427500Y-147778750D03*
%TD*%
D51*
%TO.P,TP1,1,1*%
%TO.N,/ST*%
X118860000Y-100810000D03*
%TD*%
D10*
%TO.P,C2,1*%
%TO.N,GND*%
X101555000Y-72620000D03*
%TO.P,C2,2*%
%TO.N,+3.3V*%
X103105000Y-72620000D03*
%TD*%
D52*
%TO.P,LED1,1,K*%
%TO.N,GND*%
X101532500Y-84120000D03*
%TO.P,LED1,2,A*%
%TO.N,/USR_LED_RSTR*%
X103107500Y-84120000D03*
%TD*%
D10*
%TO.P,C3,1*%
%TO.N,GND*%
X101575000Y-71040000D03*
%TO.P,C3,2*%
%TO.N,+3.3V*%
X103125000Y-71040000D03*
%TD*%
D12*
%TO.P,R20,1*%
%TO.N,/MUX4*%
X127630000Y-127835000D03*
%TO.P,R20,2*%
%TO.N,GND*%
X127630000Y-129485000D03*
%TD*%
D19*
%TO.P,R2,1*%
%TO.N,/USER_LED*%
X103232500Y-85660000D03*
%TO.P,R2,2*%
%TO.N,/USR_LED_RSTR*%
X101582500Y-85660000D03*
%TD*%
D20*
%TO.P,R9,1*%
%TO.N,/RSTB*%
X128375000Y-83460000D03*
%TO.P,R9,2*%
%TO.N,+3.3V*%
X130025000Y-83460000D03*
%TD*%
D31*
%TO.P,C5,1*%
%TO.N,+3.3V*%
X126890000Y-83465000D03*
%TO.P,C5,2*%
%TO.N,GND*%
X126890000Y-85015000D03*
%TD*%
D53*
%TO.N,/CAN_TERM*%
X120420000Y-83330000D03*
X114020000Y-97040000D03*
D54*
%TO.N,GND*%
X104600000Y-129910000D03*
D53*
X130330000Y-97840000D03*
X110020000Y-76870000D03*
D54*
X103880000Y-113840000D03*
X108160000Y-113950000D03*
X116740000Y-100440000D03*
X110580000Y-102700000D03*
D53*
X135040000Y-79680000D03*
X109340000Y-134810000D03*
X93710000Y-149040000D03*
X124290000Y-136260000D03*
X114650000Y-79080000D03*
X104960000Y-98670000D03*
X126080000Y-85730000D03*
X129020000Y-125490000D03*
X97410000Y-110620000D03*
X130740000Y-85870000D03*
X112200000Y-99340000D03*
X110900000Y-129960000D03*
X127590000Y-91040000D03*
X110000000Y-81290000D03*
X129020000Y-89420000D03*
X100400000Y-125320000D03*
X96740000Y-89240000D03*
X127630000Y-130350000D03*
D54*
X109330000Y-132560000D03*
D53*
X131650000Y-77670000D03*
X100790000Y-71840000D03*
X137210000Y-76560000D03*
X123870000Y-77720000D03*
X102390000Y-79970000D03*
X112250000Y-81460000D03*
X114490000Y-134630000D03*
X98040000Y-97800000D03*
X89930000Y-107550000D03*
X130330000Y-134070000D03*
X101890000Y-73860000D03*
X100510000Y-133720000D03*
X112240000Y-76740000D03*
X99658909Y-129958909D03*
X104680000Y-136380000D03*
X96662503Y-125600000D03*
X106490000Y-71360000D03*
X98040000Y-134030000D03*
D54*
X98780000Y-118020000D03*
D53*
X111560000Y-78420000D03*
X123780000Y-71050000D03*
X114480000Y-81310000D03*
X125830000Y-136310000D03*
X120780000Y-135300000D03*
X132730000Y-72830000D03*
D54*
X101600000Y-121530000D03*
D53*
X112950000Y-136040000D03*
X100510000Y-83490000D03*
X130680000Y-87250000D03*
X93190001Y-119941226D03*
X99450000Y-92550000D03*
X127590000Y-85800000D03*
X100910000Y-73310000D03*
X109900000Y-79080000D03*
X114490000Y-76900000D03*
%TO.N,VCC*%
X109763238Y-98954492D03*
X105160000Y-103280000D03*
%TO.N,VBUS*%
X129240000Y-85710000D03*
X134905000Y-75340530D03*
X135850000Y-72810000D03*
X114732408Y-100952791D03*
%TO.N,+5V*%
X111770000Y-100440000D03*
X104160000Y-127100000D03*
%TO.N,Net-(IC2-DTR)*%
X123060000Y-90920000D03*
X126410000Y-74696000D03*
X125970000Y-76570000D03*
%TO.N,/ORION*%
X107230000Y-147778750D03*
X103580000Y-78980000D03*
X92710000Y-147778750D03*
%TO.N,Net-(IC2-RTS)*%
X129127387Y-75457387D03*
X124890000Y-86650000D03*
%TO.N,+3.3V*%
X99570000Y-73740000D03*
X130630000Y-82660000D03*
X90160000Y-90700000D03*
X136970000Y-132740000D03*
X124650000Y-81844822D03*
D54*
X106570000Y-72630000D03*
D53*
X120760000Y-133570000D03*
X90180000Y-126790000D03*
D54*
X104520000Y-131930000D03*
D53*
X136940000Y-96610000D03*
%TO.N,/PROG_D-*%
X124774998Y-80430000D03*
X132002482Y-81145000D03*
%TO.N,/PROG_D+*%
X123724265Y-81024265D03*
X131915499Y-82795000D03*
%TO.N,Net-(IC2-VBUS)*%
X127582774Y-84275949D03*
X126119351Y-81845822D03*
%TO.N,/CHIP_PU*%
X124070000Y-71990000D03*
X106310000Y-73870000D03*
%TO.N,/CAN_RTX*%
X118080000Y-105300000D03*
X120800000Y-87420000D03*
%TO.N,/CAN_CTX*%
X123610000Y-92760000D03*
X122550000Y-128530000D03*
%TO.N,/MUX_S3*%
X129030000Y-131570000D03*
X128840000Y-95390000D03*
X119280000Y-90520000D03*
X98001091Y-125588909D03*
X99040000Y-90270000D03*
X122960000Y-95170000D03*
%TO.N,/MUX_S2*%
X118170000Y-90550000D03*
X122150000Y-95210000D03*
X129630000Y-95220000D03*
X97870000Y-89510000D03*
X129840000Y-131540000D03*
X97224067Y-125182090D03*
%TO.N,/MUX_S1*%
X116360000Y-91250000D03*
X97606091Y-95403909D03*
X97510000Y-131330000D03*
X128570000Y-106280000D03*
%TO.N,/MUX_S0*%
X115650000Y-90750000D03*
X124290000Y-98590000D03*
X96790000Y-131380000D03*
X122180000Y-96500000D03*
X96830000Y-95330000D03*
%TO.N,/SHUTOFF*%
X103070000Y-90749000D03*
X103100000Y-92950000D03*
%TO.N,/IO15*%
X111984375Y-146335625D03*
X103401800Y-79998200D03*
D54*
%TO.N,+12V*%
X112600000Y-113200000D03*
D53*
X95810000Y-118480000D03*
D54*
X111780000Y-138310000D03*
%TO.N,Net-(D3-K)*%
X103080000Y-109280000D03*
X107690000Y-109280000D03*
X119940000Y-109280000D03*
D53*
%TO.N,/SHUTOFF_ISO*%
X115640000Y-141400000D03*
X91640000Y-115630000D03*
%TO.N,Net-(Q3-Pad1)*%
X96830000Y-104700000D03*
X95350000Y-106340000D03*
%TD*%
D55*
%TO.N,/ST*%
X114045000Y-99930000D02*
X114045000Y-99905000D01*
X116620000Y-98570000D02*
X118860000Y-100810000D01*
X114045000Y-99905000D02*
X115380000Y-98570000D01*
X115380000Y-98570000D02*
X116620000Y-98570000D01*
D56*
%TO.N,Net-(IC3-Pad6)*%
X118841700Y-127270000D02*
X116955000Y-129156700D01*
X116955000Y-129156700D02*
X116955000Y-131400000D01*
D55*
%TO.N,/CAN-*%
X117993198Y-145935000D02*
X119895000Y-144033198D01*
D56*
X117322500Y-133972500D02*
X117355000Y-134005000D01*
D55*
X112048750Y-143778750D02*
X114205000Y-145935000D01*
D56*
X113360000Y-133972500D02*
X117322500Y-133972500D01*
D55*
X119895000Y-135106802D02*
X119203198Y-134415000D01*
D56*
X118841700Y-129810000D02*
X118841700Y-133493299D01*
X118841700Y-133493299D02*
X118329999Y-134005000D01*
D55*
X119895000Y-144033198D02*
X119895000Y-135106802D01*
X119203198Y-134415000D02*
X118440000Y-134415000D01*
X118030000Y-134005000D02*
X117355000Y-134005000D01*
X114205000Y-145935000D02*
X117993198Y-145935000D01*
X118440000Y-134415000D02*
X118030000Y-134005000D01*
X117355000Y-134005000D02*
X118329999Y-134005000D01*
X111427500Y-143778750D02*
X112048750Y-143778750D01*
%TO.N,/CAN_TERM*%
X111958300Y-127270000D02*
X113125800Y-126102500D01*
X99726100Y-114449000D02*
X96739000Y-111461900D01*
X111635354Y-118681500D02*
X107520000Y-118681500D01*
X96739000Y-111461900D02*
X96739000Y-109321768D01*
X99371000Y-103479768D02*
X105810768Y-97040000D01*
X107520000Y-118681500D02*
X103287500Y-114449000D01*
X99371000Y-106689768D02*
X99371000Y-103479768D01*
X105810768Y-97040000D02*
X114020000Y-97040000D01*
X96739000Y-109321768D02*
X99371000Y-106689768D01*
X113125800Y-126102500D02*
X113125800Y-120171946D01*
X113125800Y-120171946D02*
X111635354Y-118681500D01*
X103287500Y-114449000D02*
X99726100Y-114449000D01*
X120960000Y-82790000D02*
X120420000Y-83330000D01*
X122490000Y-82790000D02*
X120960000Y-82790000D01*
D56*
%TO.N,GND*%
X104990000Y-71360000D02*
X106490000Y-71360000D01*
X135030000Y-79670000D02*
X135040000Y-79680000D01*
D55*
X130322502Y-97832502D02*
X130330000Y-97840000D01*
X105835000Y-98630000D02*
X105000000Y-98630000D01*
X96762501Y-125699998D02*
X96762501Y-126881500D01*
D56*
X133280000Y-73890000D02*
X133280000Y-73380000D01*
D55*
X127620000Y-91965000D02*
X127620000Y-91070000D01*
X129022502Y-89422502D02*
X129020000Y-89420000D01*
D57*
X110037500Y-103242500D02*
X110580000Y-102700000D01*
D55*
X105000000Y-98630000D02*
X104960000Y-98670000D01*
D56*
X101555000Y-72620000D02*
X101555000Y-72665000D01*
D57*
X109070000Y-129940000D02*
X109070000Y-132300000D01*
X103940000Y-111817500D02*
X103940000Y-113780000D01*
D56*
X112240000Y-79080000D02*
X112220000Y-79080000D01*
X101555000Y-72665000D02*
X100910000Y-73310000D01*
X110810000Y-80480000D02*
X110000000Y-81290000D01*
X110840000Y-80480000D02*
X110810000Y-80480000D01*
D58*
X104230000Y-135930000D02*
X104680000Y-136380000D01*
D55*
X129022502Y-90711500D02*
X129022502Y-89422502D01*
D56*
X113640000Y-80480000D02*
X113650000Y-80480000D01*
D57*
X116740000Y-102240000D02*
X116740000Y-100440000D01*
X107340000Y-121537500D02*
X101607500Y-121537500D01*
X102770000Y-129940000D02*
X104570000Y-129940000D01*
D55*
X130322502Y-134062502D02*
X130330000Y-134070000D01*
X130322502Y-96553500D02*
X130322502Y-97832502D01*
D56*
X130035000Y-87895000D02*
X130680000Y-87250000D01*
X129985000Y-86480000D02*
X130130000Y-86480000D01*
D57*
X107340000Y-111817500D02*
X107340000Y-113130000D01*
D55*
X96762501Y-89262501D02*
X96740000Y-89240000D01*
D57*
X109070000Y-132300000D02*
X109330000Y-132560000D01*
D55*
X127630000Y-129485000D02*
X127630000Y-130350000D01*
D57*
X99760000Y-117040000D02*
X98780000Y-118020000D01*
D56*
X124310000Y-136240000D02*
X124290000Y-136260000D01*
X112240000Y-77680000D02*
X112240000Y-76740000D01*
X122490000Y-71360000D02*
X123470000Y-71360000D01*
X123470000Y-71360000D02*
X123780000Y-71050000D01*
X90259800Y-107879800D02*
X89930000Y-107550000D01*
X130035000Y-87960000D02*
X130035000Y-87895000D01*
D55*
X130322502Y-132723500D02*
X130322502Y-134062502D01*
D56*
X125360000Y-85010000D02*
X126080000Y-85730000D01*
X102175000Y-74145000D02*
X101890000Y-73860000D01*
X132580000Y-77225000D02*
X132095000Y-77225000D01*
D55*
X129022502Y-126881500D02*
X129022502Y-125492502D01*
D56*
X101575000Y-71055000D02*
X100790000Y-71840000D01*
X92375000Y-150375000D02*
X93710000Y-149040000D01*
X113590000Y-136680000D02*
X112950000Y-136040000D01*
X132095000Y-77225000D02*
X131650000Y-77670000D01*
D58*
X109330000Y-134820000D02*
X109340000Y-134810000D01*
D56*
X110840000Y-77680000D02*
X110830000Y-77680000D01*
X137285000Y-76485000D02*
X137210000Y-76560000D01*
D58*
X108175000Y-134820000D02*
X109330000Y-134820000D01*
D55*
X96762501Y-90711500D02*
X96762501Y-89262501D01*
D56*
X110840000Y-79080000D02*
X109900000Y-79080000D01*
D55*
X99460000Y-92560000D02*
X99450000Y-92550000D01*
D56*
X125830000Y-135375000D02*
X125830000Y-136310000D01*
X125360000Y-85005000D02*
X125360000Y-85010000D01*
X101575000Y-71040000D02*
X101575000Y-71055000D01*
X101532500Y-84120000D02*
X101140000Y-84120000D01*
D55*
X99460000Y-93515000D02*
X99460000Y-92560000D01*
D56*
X94125000Y-119140000D02*
X93991227Y-119140000D01*
D57*
X116020000Y-102960000D02*
X116740000Y-102240000D01*
D55*
X98062501Y-132723500D02*
X98062501Y-134007499D01*
D56*
X135030000Y-78617500D02*
X135030000Y-79670000D01*
X111050000Y-129810000D02*
X110900000Y-129960000D01*
X93991227Y-119140000D02*
X93190001Y-119941226D01*
X133280000Y-73380000D02*
X132730000Y-72830000D01*
D57*
X104570000Y-129940000D02*
X104600000Y-129910000D01*
D55*
X112575000Y-99930000D02*
X112575000Y-99715000D01*
X100400000Y-125320000D02*
X99715000Y-125320000D01*
X98062501Y-97777499D02*
X98040000Y-97800000D01*
D56*
X112240000Y-80480000D02*
X112240000Y-81450000D01*
X112240000Y-81450000D02*
X112250000Y-81460000D01*
D57*
X110037500Y-104850000D02*
X110037500Y-103242500D01*
D56*
X102980000Y-74145000D02*
X102175000Y-74145000D01*
X111958300Y-129810000D02*
X111050000Y-129810000D01*
D55*
X129022502Y-125492502D02*
X129020000Y-125490000D01*
D56*
X91800000Y-150375000D02*
X92375000Y-150375000D01*
X127580000Y-78850000D02*
X128080000Y-79350000D01*
X113640000Y-79080000D02*
X114650000Y-79080000D01*
X125000000Y-78850000D02*
X123870000Y-77720000D01*
D58*
X103627500Y-135930000D02*
X104230000Y-135930000D01*
D56*
X110830000Y-77680000D02*
X110020000Y-76870000D01*
D58*
X100750000Y-133480000D02*
X100510000Y-133720000D01*
D56*
X115360000Y-134622500D02*
X114497500Y-134622500D01*
X130130000Y-86480000D02*
X130740000Y-85870000D01*
X126890000Y-85015000D02*
X126890000Y-85100000D01*
X103187500Y-80767500D02*
X102390000Y-79970000D01*
D55*
X127620000Y-91070000D02*
X127590000Y-91040000D01*
D58*
X100750000Y-132835000D02*
X100750000Y-133480000D01*
D57*
X103940000Y-113780000D02*
X103880000Y-113840000D01*
D56*
X113705000Y-136680000D02*
X113590000Y-136680000D01*
X125720000Y-78850000D02*
X125000000Y-78850000D01*
X122305000Y-135275000D02*
X120805000Y-135275000D01*
X98295000Y-109735000D02*
X97410000Y-110620000D01*
X100730000Y-129755000D02*
X99862818Y-129755000D01*
X113710000Y-77680000D02*
X114490000Y-76900000D01*
D55*
X98062501Y-134007499D02*
X98040000Y-134030000D01*
X98062501Y-96553500D02*
X98062501Y-97777499D01*
D56*
X91320000Y-107879800D02*
X90259800Y-107879800D01*
D55*
X96662503Y-125600000D02*
X96762501Y-125699998D01*
X99715000Y-125320000D02*
X99300000Y-124905000D01*
D56*
X124310000Y-135360000D02*
X124310000Y-136240000D01*
X126890000Y-85100000D02*
X127590000Y-85800000D01*
D57*
X107340000Y-113130000D02*
X108160000Y-113950000D01*
D56*
X113640000Y-77680000D02*
X113710000Y-77680000D01*
D57*
X99760000Y-116000000D02*
X99760000Y-117040000D01*
D56*
X101140000Y-84120000D02*
X100510000Y-83490000D01*
X125720000Y-78850000D02*
X127580000Y-78850000D01*
X120805000Y-135275000D02*
X120780000Y-135300000D01*
X99862818Y-129755000D02*
X99658909Y-129958909D01*
X112220000Y-79080000D02*
X111560000Y-78420000D01*
D55*
X112575000Y-99715000D02*
X112200000Y-99340000D01*
D56*
X103187500Y-81000000D02*
X103187500Y-80767500D01*
X98295000Y-109560000D02*
X98295000Y-109735000D01*
X114497500Y-134622500D02*
X114490000Y-134630000D01*
X137285000Y-75620000D02*
X137285000Y-76485000D01*
D57*
X101607500Y-121537500D02*
X101600000Y-121530000D01*
D56*
X113650000Y-80480000D02*
X114480000Y-81310000D01*
%TO.N,/USR_LED_RSTR*%
X103107500Y-84120000D02*
X103107500Y-84135000D01*
X103107500Y-84135000D02*
X101582500Y-85660000D01*
D58*
%TO.N,VCC*%
X99845000Y-109560000D02*
X99845000Y-107042500D01*
D55*
X111998232Y-100991000D02*
X111541768Y-100991000D01*
D58*
X103590000Y-104850000D02*
X105160000Y-103280000D01*
D55*
X112575000Y-100930000D02*
X113151644Y-100930000D01*
D57*
X105640000Y-108452500D02*
X105640000Y-111817500D01*
D55*
X112575000Y-100930000D02*
X112059232Y-100930000D01*
D57*
X110225500Y-117720000D02*
X115103200Y-117720000D01*
D55*
X110565000Y-100014232D02*
X110565000Y-98620000D01*
D57*
X105640000Y-113134500D02*
X110225500Y-117720000D01*
X105640000Y-111817500D02*
X105640000Y-113134500D01*
D55*
X113151644Y-100930000D02*
X113651644Y-101430000D01*
X112059232Y-100930000D02*
X111998232Y-100991000D01*
D58*
X109763238Y-98954492D02*
X110230508Y-98954492D01*
D55*
X113651644Y-101430000D02*
X114045000Y-101430000D01*
D58*
X110230508Y-98954492D02*
X110565000Y-98620000D01*
X102037500Y-104850000D02*
X103590000Y-104850000D01*
D57*
X102037500Y-104850000D02*
X105640000Y-108452500D01*
D58*
X99845000Y-107042500D02*
X102037500Y-104850000D01*
D55*
X111541768Y-100991000D02*
X110565000Y-100014232D01*
%TO.N,Net-(IC4-PR1)*%
X111413668Y-101430000D02*
X108915000Y-98931332D01*
X108915000Y-98620000D02*
X107495000Y-98620000D01*
X108915000Y-98931332D02*
X108915000Y-98620000D01*
X107495000Y-98620000D02*
X107485000Y-98630000D01*
X112575000Y-101430000D02*
X111413668Y-101430000D01*
D56*
%TO.N,VBUS*%
X133429000Y-77066678D02*
X133718322Y-77356000D01*
X131314000Y-83681000D02*
X131314000Y-79786822D01*
X135850000Y-72810000D02*
X137521694Y-72810000D01*
D55*
X129285000Y-85710000D02*
X130025000Y-84970000D01*
D56*
X135850000Y-72810000D02*
X135850000Y-73860000D01*
X135030000Y-75465530D02*
X134905000Y-75340530D01*
X135030000Y-76342500D02*
X135030000Y-75465530D01*
X133718322Y-77382500D02*
X133718322Y-77356000D01*
X137521694Y-72810000D02*
X138835000Y-74123306D01*
X135030000Y-77250000D02*
X135030000Y-76342500D01*
X132580000Y-75675000D02*
X133429000Y-76524000D01*
D55*
X114709617Y-100930000D02*
X114732408Y-100952791D01*
X129240000Y-85710000D02*
X129285000Y-85710000D01*
D56*
X131314000Y-79786822D02*
X133718322Y-77382500D01*
D55*
X114045000Y-100930000D02*
X114709617Y-100930000D01*
D56*
X134924000Y-77356000D02*
X135030000Y-77250000D01*
X135850000Y-73860000D02*
X135880000Y-73890000D01*
X130025000Y-84970000D02*
X131314000Y-83681000D01*
X138835000Y-74123306D02*
X138835000Y-75620000D01*
X133429000Y-76524000D02*
X133429000Y-77066678D01*
X133718322Y-77356000D02*
X134924000Y-77356000D01*
D55*
%TO.N,+5V*%
X104160000Y-127100000D02*
X103310000Y-127100000D01*
D58*
X109427500Y-139022500D02*
X109427500Y-139778750D01*
X105551000Y-129516082D02*
X105551000Y-134494000D01*
X105551000Y-129516082D02*
X105551000Y-132549000D01*
X102770000Y-127640000D02*
X103674918Y-127640000D01*
D55*
X103310000Y-127100000D02*
X102770000Y-127640000D01*
D58*
X103674918Y-127640000D02*
X105551000Y-129516082D01*
X105551000Y-134494000D02*
X105225000Y-134820000D01*
D55*
X114045000Y-100430000D02*
X114073209Y-100401791D01*
X111970000Y-100430000D02*
X111780000Y-100430000D01*
X111970000Y-100430000D02*
X112575000Y-100430000D01*
D58*
X101295000Y-127640000D02*
X100730000Y-128205000D01*
X105551000Y-132549000D02*
X103730000Y-134370000D01*
D55*
X114045000Y-100430000D02*
X112575000Y-100430000D01*
X114073209Y-100401791D02*
X115198209Y-100401791D01*
D58*
X102770000Y-127640000D02*
X101295000Y-127640000D01*
D55*
X115198209Y-100401791D02*
X115380000Y-100220000D01*
D58*
X105225000Y-134820000D02*
X109427500Y-139022500D01*
D55*
X111780000Y-100430000D02*
X111770000Y-100440000D01*
D56*
%TO.N,Net-(IC2-DTR)*%
X123020000Y-90960000D02*
X123060000Y-90920000D01*
X126410000Y-74696000D02*
X126979000Y-74696000D01*
X126580000Y-76990000D02*
X126390000Y-76990000D01*
X123020000Y-91800000D02*
X123020000Y-90960000D01*
X126979000Y-74696000D02*
X127205000Y-74470000D01*
X126390000Y-76990000D02*
X125970000Y-76570000D01*
%TO.N,Net-(Q2-B)*%
X124135000Y-93700000D02*
X124890000Y-92945000D01*
X123020000Y-93700000D02*
X124135000Y-93700000D01*
%TO.N,/GPIO0*%
X120400000Y-92750000D02*
X122490000Y-90660000D01*
X122490000Y-90660000D02*
X122490000Y-87870000D01*
%TO.N,/ORION*%
X91830000Y-147285000D02*
X92216250Y-147285000D01*
X92216250Y-147285000D02*
X92710000Y-147778750D01*
X91800000Y-147315000D02*
X91830000Y-147285000D01*
X91800000Y-148725000D02*
X91800000Y-147315000D01*
D55*
X107230000Y-147778750D02*
X109427500Y-147778750D01*
X103580000Y-78980000D02*
X104990000Y-78980000D01*
D56*
%TO.N,Net-(Q1-B)*%
X128090000Y-72870000D02*
X128090000Y-73705000D01*
X128090000Y-73705000D02*
X128855000Y-74470000D01*
%TO.N,Net-(IC2-RTS)*%
X129606000Y-74978774D02*
X129606000Y-72486000D01*
X129127387Y-75457387D02*
X129606000Y-74978774D01*
X124890000Y-91295000D02*
X124890000Y-86650000D01*
X128580000Y-76990000D02*
X128580000Y-76004774D01*
X129606000Y-72486000D02*
X128090000Y-70970000D01*
X128580000Y-76004774D02*
X129606000Y-74978774D01*
D55*
%TO.N,/CAN+*%
X119215000Y-140624657D02*
X119215000Y-140994657D01*
X119445000Y-142794657D02*
X119445000Y-142994919D01*
D56*
X113362500Y-135275000D02*
X113360000Y-135272500D01*
D55*
X113920000Y-144850000D02*
X113920000Y-144460000D01*
X113920000Y-144460000D02*
X114601250Y-143778750D01*
X118440000Y-134865000D02*
X119016802Y-134865000D01*
X119215000Y-141824657D02*
X119215000Y-142194657D01*
X117355000Y-135275000D02*
X118030000Y-135275000D01*
X119016802Y-134865000D02*
X119445000Y-135293198D01*
X119445000Y-142424657D02*
X119445000Y-142794657D01*
X118030000Y-135275000D02*
X118440000Y-134865000D01*
X114555000Y-145485000D02*
X113920000Y-144850000D01*
X119445000Y-141224657D02*
X119445000Y-141594657D01*
D56*
X117352500Y-135272500D02*
X117355000Y-135275000D01*
D55*
X119445000Y-135293198D02*
X119445000Y-140394657D01*
D56*
X112659000Y-133666894D02*
X112659000Y-134571500D01*
D55*
X119445000Y-143846802D02*
X117806802Y-145485000D01*
X119445000Y-142994919D02*
X119445000Y-143846802D01*
D56*
X114925894Y-131400000D02*
X112659000Y-133666894D01*
X115305000Y-131400000D02*
X114925894Y-131400000D01*
X113360000Y-135272500D02*
X117352500Y-135272500D01*
X112659000Y-134571500D02*
X113360000Y-135272500D01*
D55*
X114601250Y-143778750D02*
X115427500Y-143778750D01*
X117806802Y-145485000D02*
X114555000Y-145485000D01*
X119330000Y-142309657D02*
G75*
G02*
X119445043Y-142424657I0J-115043D01*
G01*
X119215000Y-140994657D02*
G75*
G03*
X119330000Y-141109700I115000J-43D01*
G01*
X119330000Y-141709657D02*
G75*
G03*
X119214957Y-141824657I0J-115043D01*
G01*
X119215000Y-142194657D02*
G75*
G03*
X119330000Y-142309700I115000J-43D01*
G01*
X119330000Y-140509657D02*
G75*
G03*
X119214957Y-140624657I0J-115043D01*
G01*
X119445000Y-141594657D02*
G75*
G02*
X119330000Y-141709700I-115000J-43D01*
G01*
X119330000Y-141109657D02*
G75*
G02*
X119445043Y-141224657I0J-115043D01*
G01*
X119445000Y-140394657D02*
G75*
G02*
X119330000Y-140509700I-115000J-43D01*
G01*
D56*
%TO.N,+3.3V*%
X103125000Y-71515000D02*
X104240000Y-72630000D01*
X130025000Y-83265000D02*
X130630000Y-82660000D01*
X100400000Y-74135000D02*
X99965000Y-74135000D01*
D57*
X102770000Y-132240000D02*
X104210000Y-132240000D01*
D55*
X136172500Y-96553500D02*
X136883500Y-96553500D01*
D56*
X104980000Y-72620000D02*
X104990000Y-72630000D01*
X125720000Y-82295000D02*
X125480000Y-82055000D01*
X126890000Y-83465000D02*
X125720000Y-82295000D01*
X124310000Y-133810000D02*
X125815000Y-133810000D01*
X125480000Y-80590000D02*
X125720000Y-80350000D01*
X124115000Y-134005000D02*
X124310000Y-133810000D01*
X125644822Y-80850000D02*
X124650000Y-81844822D01*
X122305000Y-134005000D02*
X124115000Y-134005000D01*
X104240000Y-72630000D02*
X104990000Y-72630000D01*
X103105000Y-72620000D02*
X104980000Y-72620000D01*
X125720000Y-80850000D02*
X125644822Y-80850000D01*
X125360000Y-83455000D02*
X125360000Y-82655000D01*
D55*
X90912503Y-90711500D02*
X90171500Y-90711500D01*
D56*
X130025000Y-83460000D02*
X130025000Y-83265000D01*
D57*
X104210000Y-132240000D02*
X104520000Y-131930000D01*
D58*
X104990000Y-72630000D02*
X106570000Y-72630000D01*
D56*
X122305000Y-134005000D02*
X121195000Y-134005000D01*
D55*
X136883500Y-96553500D02*
X136940000Y-96610000D01*
X90271500Y-126881500D02*
X90180000Y-126790000D01*
D56*
X125480000Y-82055000D02*
X125480000Y-80590000D01*
X125360000Y-82655000D02*
X125720000Y-82295000D01*
D58*
X100750000Y-131285000D02*
X101815000Y-131285000D01*
D56*
X103125000Y-71040000D02*
X103125000Y-71515000D01*
X99965000Y-74135000D02*
X99570000Y-73740000D01*
D58*
X101815000Y-131285000D02*
X102770000Y-132240000D01*
D55*
X90171500Y-90711500D02*
X90160000Y-90700000D01*
X136172500Y-132723500D02*
X136953500Y-132723500D01*
D56*
X121195000Y-134005000D02*
X120760000Y-133570000D01*
X125815000Y-133810000D02*
X125830000Y-133825000D01*
D55*
X136953500Y-132723500D02*
X136970000Y-132740000D01*
X90912503Y-126881500D02*
X90271500Y-126881500D01*
%TO.N,/PROG_D-*%
X132002482Y-81807482D02*
X132140000Y-81945000D01*
X125060966Y-79850000D02*
X125720000Y-79850000D01*
X124774998Y-80430000D02*
X124774998Y-80135968D01*
X132002482Y-81145000D02*
X132002482Y-81807482D01*
X124774998Y-80135968D02*
X125060966Y-79850000D01*
%TO.N,/PROG_D+*%
X123710000Y-81010000D02*
X123710000Y-80628000D01*
X131915499Y-82795000D02*
X132800000Y-82795000D01*
X123710000Y-80628000D02*
X124988000Y-79350000D01*
X132800000Y-82795000D02*
X133670000Y-81925000D01*
X124988000Y-79350000D02*
X125720000Y-79350000D01*
X123724265Y-81024265D02*
X123710000Y-81010000D01*
D56*
%TO.N,/U0TXD*%
X128080000Y-76990000D02*
X128080000Y-75949480D01*
X127426520Y-75296000D02*
X122616000Y-75296000D01*
X122616000Y-75296000D02*
X122490000Y-75170000D01*
X128080000Y-75949480D02*
X127426520Y-75296000D01*
D55*
%TO.N,/RSTB*%
X127080000Y-82442000D02*
X127144000Y-82506000D01*
X127421000Y-82506000D02*
X128375000Y-83460000D01*
X127144000Y-82506000D02*
X127421000Y-82506000D01*
X127080000Y-81710000D02*
X127080000Y-82442000D01*
%TO.N,Net-(IC2-VBUS)*%
X128385000Y-84980000D02*
X128375000Y-84970000D01*
X127680949Y-84275949D02*
X128375000Y-84970000D01*
X127582774Y-84275949D02*
X127680949Y-84275949D01*
X126119351Y-81845822D02*
X126119351Y-81810649D01*
X126220000Y-81710000D02*
X126580000Y-81710000D01*
X128385000Y-87960000D02*
X128385000Y-84980000D01*
X126119351Y-81810649D02*
X126220000Y-81710000D01*
D56*
%TO.N,/U0RXD*%
X127392000Y-75970000D02*
X122960000Y-75970000D01*
X127580000Y-76990000D02*
X127580000Y-76158000D01*
X127580000Y-76158000D02*
X127392000Y-75970000D01*
X122960000Y-75970000D02*
X122490000Y-76440000D01*
%TO.N,/PWR_LED*%
X102052500Y-134397500D02*
X102080000Y-134370000D01*
X102052500Y-135930000D02*
X102052500Y-134397500D01*
D55*
%TO.N,/MUX3*%
X111835000Y-93025000D02*
X111835000Y-89120000D01*
X109690000Y-95170000D02*
X111835000Y-93025000D01*
X98970000Y-100380000D02*
X104180000Y-95170000D01*
X96300000Y-109010000D02*
X98970000Y-106340000D01*
X93269403Y-129430000D02*
X96900000Y-129430000D01*
X99300000Y-127030000D02*
X99300000Y-126555000D01*
X96900000Y-129430000D02*
X99300000Y-127030000D01*
X99300000Y-126110000D02*
X97670000Y-124480000D01*
X99300000Y-126555000D02*
X99300000Y-126110000D01*
X97670000Y-114480000D02*
X96300000Y-113110000D01*
X104180000Y-95170000D02*
X109690000Y-95170000D01*
X90912503Y-132723500D02*
X90912503Y-131786900D01*
X97670000Y-124480000D02*
X97670000Y-114480000D01*
X90912503Y-131786900D02*
X93269403Y-129430000D01*
X96300000Y-113110000D02*
X96300000Y-109010000D01*
X98970000Y-106340000D02*
X98970000Y-100380000D01*
D56*
%TO.N,/SHUTDOWN_IND*%
X103235000Y-82560000D02*
X104760000Y-82560000D01*
X104760000Y-82560000D02*
X104990000Y-82790000D01*
%TO.N,/CHIP_PU*%
X103889000Y-74369000D02*
X104358000Y-73900000D01*
X124070000Y-71990000D02*
X125400000Y-71990000D01*
X104358000Y-73900000D02*
X104990000Y-73900000D01*
X100320000Y-75825000D02*
X102850000Y-75825000D01*
X103889000Y-74786000D02*
X103889000Y-74369000D01*
X125400000Y-71990000D02*
X125470000Y-71920000D01*
X104990000Y-73900000D02*
X106280000Y-73900000D01*
X102850000Y-75825000D02*
X102980000Y-75695000D01*
X102980000Y-75695000D02*
X103889000Y-74786000D01*
X106280000Y-73900000D02*
X106310000Y-73870000D01*
D55*
%TO.N,/MUX1*%
X114375000Y-91985000D02*
X119590000Y-97200000D01*
X124035000Y-97200000D02*
X127620000Y-93615000D01*
X134205600Y-93615000D02*
X127620000Y-93615000D01*
X136172500Y-91648100D02*
X134205600Y-93615000D01*
X119590000Y-97200000D02*
X124035000Y-97200000D01*
X136172500Y-90711500D02*
X136172500Y-91648100D01*
X114375000Y-89120000D02*
X114375000Y-91985000D01*
%TO.N,/CAN_RTX*%
X120800000Y-84890000D02*
X120800000Y-87420000D01*
X122490000Y-84060000D02*
X121630000Y-84060000D01*
X127030000Y-120742900D02*
X127030000Y-124800000D01*
X128561000Y-119211900D02*
X127030000Y-120742900D01*
X118080000Y-105300000D02*
X124480000Y-105300000D01*
X124480000Y-105300000D02*
X128561000Y-109381000D01*
X126690000Y-136229232D02*
X126058232Y-136861000D01*
X126058232Y-136861000D02*
X122621000Y-136861000D01*
X121630000Y-84060000D02*
X120800000Y-84890000D01*
X128561000Y-109381000D02*
X128561000Y-119211900D01*
X127030000Y-124800000D02*
X126690000Y-125140000D01*
X126690000Y-125140000D02*
X126690000Y-136229232D01*
X122621000Y-136861000D02*
X122305000Y-136545000D01*
D56*
%TO.N,/USER_LED*%
X103232500Y-85281810D02*
X104454310Y-84060000D01*
X103232500Y-85660000D02*
X103232500Y-85281810D01*
X104454310Y-84060000D02*
X104990000Y-84060000D01*
D55*
%TO.N,/MUX4*%
X113105000Y-89120000D02*
X113105000Y-91925000D01*
X136172500Y-126881500D02*
X136172500Y-127747901D01*
X136172500Y-127747901D02*
X134940401Y-128980000D01*
X129200000Y-108020000D02*
X129200000Y-119140000D01*
X128775000Y-128980000D02*
X127630000Y-127835000D01*
X127630000Y-120710000D02*
X127630000Y-127835000D01*
X113105000Y-91925000D02*
X129200000Y-108020000D01*
X129200000Y-119140000D02*
X127630000Y-120710000D01*
X134940401Y-128980000D02*
X128775000Y-128980000D01*
%TO.N,/CAN_CTX*%
X122490000Y-85330000D02*
X123022000Y-85330000D01*
X122550000Y-128530000D02*
X122305000Y-128775000D01*
X122305000Y-128775000D02*
X122305000Y-132735000D01*
X123931000Y-92439000D02*
X123610000Y-92760000D01*
X123022000Y-85330000D02*
X123931000Y-86239000D01*
X123931000Y-86239000D02*
X123931000Y-92439000D01*
%TO.N,/MUX2*%
X103125000Y-91500000D02*
X109720000Y-91500000D01*
X90912503Y-95616900D02*
X92439403Y-94090000D01*
X92439403Y-94090000D02*
X97070000Y-94090000D01*
X97070000Y-94090000D02*
X98145000Y-95165000D01*
X99460000Y-95165000D02*
X103125000Y-91500000D01*
X110565000Y-90655000D02*
X110565000Y-89120000D01*
X98145000Y-95165000D02*
X99460000Y-95165000D01*
X90912503Y-96553500D02*
X90912503Y-95616900D01*
X109720000Y-91500000D02*
X110565000Y-90655000D01*
D56*
%TO.N,Net-(U2-Rs)*%
X117355000Y-136545000D02*
X115490000Y-136545000D01*
X115490000Y-136545000D02*
X115355000Y-136680000D01*
%TO.N,Net-(R3-Pad1)*%
X133670000Y-79027500D02*
X134080000Y-78617500D01*
X133670000Y-80275000D02*
X133670000Y-79027500D01*
%TO.N,Net-(R4-Pad2)*%
X132140000Y-80295000D02*
X132871000Y-81026000D01*
X134543943Y-81026000D02*
X135980000Y-79589943D01*
X132871000Y-81026000D02*
X134543943Y-81026000D01*
X135980000Y-79589943D02*
X135980000Y-78617500D01*
%TO.N,/USBM_D+*%
X134080000Y-75317000D02*
X134580000Y-74817000D01*
X134580000Y-74817000D02*
X134580000Y-73890000D01*
X134080000Y-76342500D02*
X134080000Y-75317000D01*
%TO.N,/USBM_D-*%
X135230000Y-74817000D02*
X135230000Y-73890000D01*
X135980000Y-76342500D02*
X135980000Y-75567000D01*
X135980000Y-75567000D02*
X135230000Y-74817000D01*
D55*
%TO.N,Net-(IC6-I5)*%
X134222502Y-90711500D02*
X134222502Y-89845101D01*
X134222502Y-89845101D02*
X136237603Y-87830000D01*
X136237603Y-87830000D02*
X139137500Y-87830000D01*
X139137500Y-87830000D02*
X140162500Y-88855000D01*
%TO.N,Net-(IC6-I7)*%
X136010000Y-89490000D02*
X136797500Y-89490000D01*
X136797500Y-89490000D02*
X140162500Y-92855000D01*
X135522501Y-90711500D02*
X135522501Y-89977499D01*
X135522501Y-89977499D02*
X136010000Y-89490000D01*
%TO.N,Net-(IC6-I14)*%
X133895000Y-106855000D02*
X140162500Y-106855000D01*
X131622502Y-96553500D02*
X131622502Y-104582502D01*
X131622502Y-104582502D02*
X133895000Y-106855000D01*
%TO.N,Net-(IC6-I12)*%
X132922499Y-99332499D02*
X136445000Y-102855000D01*
X136445000Y-102855000D02*
X140162500Y-102855000D01*
X132922499Y-96553500D02*
X132922499Y-99332499D01*
%TO.N,Net-(IC6-I9)*%
X134872500Y-97490100D02*
X136032400Y-98650000D01*
X136032400Y-98650000D02*
X138367500Y-98650000D01*
X134872500Y-96553500D02*
X134872500Y-97490100D01*
X138367500Y-98650000D02*
X140162500Y-96855000D01*
%TO.N,/MUX_S3*%
X120730010Y-94350000D02*
X122140000Y-94350000D01*
X99040000Y-90270000D02*
X98504001Y-90270000D01*
X129030000Y-131570000D02*
X129030000Y-132716002D01*
X119280000Y-92899990D02*
X120730010Y-94350000D01*
X129022502Y-95572502D02*
X129022502Y-96553500D01*
X98001091Y-125588909D02*
X98001091Y-126820090D01*
X122140000Y-94350000D02*
X122960000Y-95170000D01*
X98504001Y-90270000D02*
X98062501Y-90711500D01*
X119280000Y-90520000D02*
X119280000Y-92899990D01*
X119455000Y-89120000D02*
X119455000Y-90345000D01*
X119455000Y-90345000D02*
X119280000Y-90520000D01*
X129030000Y-132716002D02*
X129022502Y-132723500D01*
X128840000Y-95390000D02*
X129022502Y-95572502D01*
X98001091Y-126820090D02*
X98062501Y-126881500D01*
%TO.N,Net-(IC6-I0)*%
X130972503Y-90711500D02*
X130972503Y-87736729D01*
X130972503Y-87736729D02*
X131231000Y-87478232D01*
X131231000Y-87478232D02*
X131231000Y-87469000D01*
X139845000Y-78855000D02*
X140162500Y-78855000D01*
X131231000Y-87469000D02*
X139845000Y-78855000D01*
%TO.N,Net-(IC6-I2)*%
X138195000Y-82855000D02*
X140162500Y-82855000D01*
X132272503Y-88777497D02*
X138195000Y-82855000D01*
X132272503Y-90711500D02*
X132272503Y-88777497D01*
%TO.N,Net-(IC6-I13)*%
X132272500Y-101812500D02*
X135315000Y-104855000D01*
X135315000Y-104855000D02*
X140162500Y-104855000D01*
X132272500Y-96553500D02*
X132272500Y-101812500D01*
%TO.N,Net-(IC6-I10)*%
X135800000Y-99700000D02*
X139317500Y-99700000D01*
X139317500Y-99700000D02*
X140162500Y-98855000D01*
X134222499Y-96553500D02*
X134222499Y-98122499D01*
X134222499Y-98122499D02*
X135800000Y-99700000D01*
%TO.N,/MUX_S2*%
X120850000Y-95210000D02*
X118170000Y-92530000D01*
X129630000Y-95220000D02*
X129630000Y-96510999D01*
X118185000Y-90535000D02*
X118170000Y-90550000D01*
X97870000Y-89510000D02*
X97480000Y-89900000D01*
X129672501Y-131707499D02*
X129672501Y-132723500D01*
X122150000Y-95210000D02*
X120850000Y-95210000D01*
X118170000Y-92530000D02*
X118170000Y-90550000D01*
X129840000Y-131540000D02*
X129672501Y-131707499D01*
X97412502Y-126881500D02*
X97412502Y-125370525D01*
X97480000Y-90644002D02*
X97412502Y-90711500D01*
X118185000Y-89120000D02*
X118185000Y-90535000D01*
X129630000Y-96510999D02*
X129672501Y-96553500D01*
X97412502Y-125370525D02*
X97224067Y-125182090D01*
X97480000Y-89900000D02*
X97480000Y-90644002D01*
%TO.N,Net-(IC6-I4)*%
X133572503Y-90711500D02*
X133572503Y-89327497D01*
X136045000Y-86855000D02*
X140162500Y-86855000D01*
X133572503Y-89327497D02*
X136045000Y-86855000D01*
%TO.N,Net-(IC6-I1)*%
X131622502Y-90711500D02*
X131622502Y-88137498D01*
X131622502Y-88137498D02*
X138905000Y-80855000D01*
X138905000Y-80855000D02*
X140162500Y-80855000D01*
%TO.N,/MUX_S1*%
X129672503Y-126881500D02*
X129672503Y-107382503D01*
X116360000Y-91710000D02*
X120470000Y-95820000D01*
X129329000Y-88869000D02*
X129672503Y-89212503D01*
X128321000Y-88869000D02*
X129329000Y-88869000D01*
X126720000Y-92724064D02*
X126720000Y-90470000D01*
X97510000Y-131330000D02*
X97510000Y-132626000D01*
X116915000Y-90695000D02*
X116915000Y-89120000D01*
X97510000Y-132626000D02*
X97412500Y-132723500D01*
X129672503Y-89212503D02*
X129672503Y-90711500D01*
X97412500Y-95597500D02*
X97412500Y-96553500D01*
X129672503Y-107382503D02*
X128570000Y-106280000D01*
X123624064Y-95820000D02*
X126720000Y-92724064D01*
X126720000Y-90470000D02*
X128321000Y-88869000D01*
X116360000Y-91250000D02*
X116360000Y-91710000D01*
X120470000Y-95820000D02*
X123624064Y-95820000D01*
X116360000Y-91250000D02*
X116915000Y-90695000D01*
X97606091Y-95403909D02*
X97412500Y-95597500D01*
%TO.N,Net-(IC6-I11)*%
X135635000Y-100855000D02*
X140162500Y-100855000D01*
X133572500Y-96553500D02*
X133572500Y-98792500D01*
X133572500Y-98792500D02*
X135635000Y-100855000D01*
%TO.N,Net-(IC6-I3)*%
X132922502Y-90711500D02*
X132922502Y-89097498D01*
X132922502Y-89097498D02*
X137165000Y-84855000D01*
X137165000Y-84855000D02*
X140162500Y-84855000D01*
%TO.N,Net-(IC6-I8)*%
X135522499Y-96553500D02*
X135522499Y-97490100D01*
X137067500Y-97950000D02*
X140162500Y-94855000D01*
X135522499Y-97490100D02*
X135982399Y-97950000D01*
X135982399Y-97950000D02*
X137067500Y-97950000D01*
%TO.N,Net-(IC6-I15)*%
X130972500Y-107062500D02*
X132765000Y-108855000D01*
X132765000Y-108855000D02*
X140162500Y-108855000D01*
X130972500Y-96553500D02*
X130972500Y-107062500D01*
%TO.N,/MUX_S0*%
X125230000Y-99530000D02*
X125230000Y-101300000D01*
X96790000Y-131380000D02*
X96790000Y-132696001D01*
X130322502Y-106392502D02*
X130322502Y-126881500D01*
X122180000Y-96500000D02*
X120110000Y-96500000D01*
X96830000Y-95330000D02*
X96830000Y-96486001D01*
X129230403Y-92670000D02*
X130322502Y-91577901D01*
X130322502Y-91577901D02*
X130322502Y-90711500D01*
X96830000Y-96486001D02*
X96762501Y-96553500D01*
X125230000Y-101300000D02*
X130322502Y-106392502D01*
X115650000Y-92040000D02*
X115650000Y-90750000D01*
X123530000Y-96500000D02*
X127360000Y-92670000D01*
X115645000Y-89120000D02*
X115645000Y-90745000D01*
X124290000Y-98590000D02*
X125230000Y-99530000D01*
X96790000Y-132696001D02*
X96762501Y-132723500D01*
X115645000Y-90745000D02*
X115650000Y-90750000D01*
X127360000Y-92670000D02*
X129230403Y-92670000D01*
X120110000Y-96500000D02*
X115650000Y-92040000D01*
X122180000Y-96500000D02*
X123530000Y-96500000D01*
%TO.N,Net-(IC6-I6)*%
X134872503Y-89947497D02*
X136210000Y-88610000D01*
X137917500Y-88610000D02*
X140162500Y-90855000D01*
X136210000Y-88610000D02*
X137917500Y-88610000D01*
X134872503Y-90711500D02*
X134872503Y-89947497D01*
%TO.N,Net-(IC7-I7)*%
X90252500Y-97970000D02*
X86692500Y-94410000D01*
X91562502Y-97667498D02*
X91260000Y-97970000D01*
X91260000Y-97970000D02*
X90252500Y-97970000D01*
X91562502Y-96553500D02*
X91562502Y-97667498D01*
%TO.N,Net-(IC7-I15)*%
X93630000Y-78410000D02*
X86692500Y-78410000D01*
X96112503Y-80892503D02*
X93630000Y-78410000D01*
X96112503Y-90711500D02*
X96112503Y-80892503D01*
%TO.N,Net-(IC7-I8)*%
X89832500Y-89270000D02*
X86692500Y-92410000D01*
X91562504Y-89845101D02*
X90987403Y-89270000D01*
X90987403Y-89270000D02*
X89832500Y-89270000D01*
X91562504Y-90711500D02*
X91562504Y-89845101D01*
%TO.N,Net-(IC7-I5)*%
X87732500Y-99450000D02*
X86692500Y-98410000D01*
X91770000Y-99450000D02*
X87732500Y-99450000D01*
X92862501Y-96553500D02*
X92862501Y-98357499D01*
X92862501Y-98357499D02*
X91770000Y-99450000D01*
%TO.N,Net-(IC7-I10)*%
X87602500Y-87500000D02*
X86692500Y-88410000D01*
X91670000Y-87500000D02*
X87602500Y-87500000D01*
X92862504Y-88692504D02*
X91670000Y-87500000D01*
X92862504Y-90711500D02*
X92862504Y-88692504D01*
%TO.N,Net-(IC7-I1)*%
X95462501Y-96553500D02*
X95462501Y-104187499D01*
X95462501Y-104187499D02*
X93240000Y-106410000D01*
X93240000Y-106410000D02*
X86692500Y-106410000D01*
%TO.N,Net-(IC7-I11)*%
X93512503Y-87952503D02*
X91970000Y-86410000D01*
X91970000Y-86410000D02*
X86692500Y-86410000D01*
X93512503Y-90711500D02*
X93512503Y-87952503D01*
%TO.N,Net-(IC7-I2)*%
X94812500Y-96553500D02*
X94812500Y-102447500D01*
X92850000Y-104410000D02*
X86692500Y-104410000D01*
X94812500Y-102447500D02*
X92850000Y-104410000D01*
%TO.N,Net-(IC7-I4)*%
X93512500Y-99057500D02*
X92160000Y-100410000D01*
X92160000Y-100410000D02*
X86692500Y-100410000D01*
X93512500Y-96553500D02*
X93512500Y-99057500D01*
%TO.N,Net-(IC7-I13)*%
X94812503Y-85262503D02*
X91960000Y-82410000D01*
X94812503Y-90711500D02*
X94812503Y-85262503D01*
X91960000Y-82410000D02*
X86692500Y-82410000D01*
%TO.N,Net-(IC7-I12)*%
X94162504Y-90711500D02*
X94162504Y-86632504D01*
X91940000Y-84410000D02*
X86692500Y-84410000D01*
X94162504Y-86632504D02*
X91940000Y-84410000D01*
%TO.N,Net-(IC7-I6)*%
X92212500Y-97937500D02*
X91690000Y-98460000D01*
X91690000Y-98460000D02*
X88742500Y-98460000D01*
X88742500Y-98460000D02*
X86692500Y-96410000D01*
X92212500Y-96553500D02*
X92212500Y-97937500D01*
%TO.N,Net-(IC7-I3)*%
X94162501Y-100767499D02*
X92520000Y-102410000D01*
X94162501Y-96553500D02*
X94162501Y-100767499D01*
X92520000Y-102410000D02*
X86692500Y-102410000D01*
%TO.N,Net-(IC7-I14)*%
X92960000Y-80410000D02*
X86692500Y-80410000D01*
X95462501Y-90711500D02*
X95462501Y-82912501D01*
X95462501Y-82912501D02*
X92960000Y-80410000D01*
%TO.N,Net-(IC7-I9)*%
X92212503Y-90711500D02*
X92212503Y-89774900D01*
X92212503Y-89774900D02*
X90877603Y-88440000D01*
X88662500Y-88440000D02*
X86692500Y-90410000D01*
X90877603Y-88440000D02*
X88662500Y-88440000D01*
%TO.N,Net-(IC7-I0)*%
X96112500Y-96553500D02*
X96112500Y-107787500D01*
X94570000Y-109330000D02*
X87612500Y-109330000D01*
X87612500Y-109330000D02*
X86692500Y-108410000D01*
X96112500Y-107787500D02*
X94570000Y-109330000D01*
%TO.N,Net-(IC8-I2)*%
X94812500Y-132723500D02*
X94812500Y-138157500D01*
X94812500Y-138157500D02*
X92390000Y-140580000D01*
X92390000Y-140580000D02*
X86692500Y-140580000D01*
%TO.N,Net-(IC8-I13)*%
X94812503Y-126881500D02*
X94812503Y-122792503D01*
X90600000Y-118580000D02*
X86692500Y-118580000D01*
X94812503Y-122792503D02*
X90600000Y-118580000D01*
%TO.N,Net-(IC8-I10)*%
X91000000Y-123660000D02*
X87612500Y-123660000D01*
X92862504Y-126881500D02*
X92862504Y-125522504D01*
X92862504Y-125522504D02*
X91000000Y-123660000D01*
X87612500Y-123660000D02*
X86692500Y-124580000D01*
%TO.N,Net-(IC8-I8)*%
X91157403Y-125610000D02*
X89662500Y-125610000D01*
X91562504Y-126881500D02*
X91562504Y-126015101D01*
X89662500Y-125610000D02*
X86692500Y-128580000D01*
X91562504Y-126015101D02*
X91157403Y-125610000D01*
%TO.N,Net-(IC8-I12)*%
X91610000Y-120580000D02*
X86692500Y-120580000D01*
X94162504Y-123132504D02*
X91610000Y-120580000D01*
X94162504Y-126881500D02*
X94162504Y-123132504D01*
%TO.N,Net-(IC8-I7)*%
X91180000Y-133880000D02*
X89992500Y-133880000D01*
X89992500Y-133880000D02*
X86692500Y-130580000D01*
X91562502Y-133497498D02*
X91180000Y-133880000D01*
X91562502Y-132723500D02*
X91562502Y-133497498D01*
%TO.N,Net-(IC8-I5)*%
X92862501Y-133807499D02*
X91180000Y-135490000D01*
X91180000Y-135490000D02*
X87602500Y-135490000D01*
X87602500Y-135490000D02*
X86692500Y-134580000D01*
X92862501Y-132723500D02*
X92862501Y-133807499D01*
%TO.N,Net-(IC8-I0)*%
X96112500Y-132723500D02*
X96112500Y-142237500D01*
X96112500Y-142237500D02*
X93770000Y-144580000D01*
X93770000Y-144580000D02*
X86692500Y-144580000D01*
%TO.N,Net-(IC8-I4)*%
X93512500Y-134457500D02*
X91390000Y-136580000D01*
X93512500Y-132723500D02*
X93512500Y-134457500D01*
X91390000Y-136580000D02*
X86692500Y-136580000D01*
%TO.N,Net-(IC8-I6)*%
X88682500Y-134570000D02*
X86692500Y-132580000D01*
X92212500Y-132723500D02*
X92212500Y-133589902D01*
X91232402Y-134570000D02*
X88682500Y-134570000D01*
X92212500Y-133589902D02*
X91232402Y-134570000D01*
%TO.N,Net-(IC8-I9)*%
X92212503Y-126881500D02*
X92212503Y-126015099D01*
X91107404Y-124910000D02*
X88362500Y-124910000D01*
X92212503Y-126015099D02*
X91107404Y-124910000D01*
X88362500Y-124910000D02*
X86692500Y-126580000D01*
%TO.N,Net-(IC8-I1)*%
X95462501Y-132723500D02*
X95462501Y-140237499D01*
X93120000Y-142580000D02*
X86692500Y-142580000D01*
X95462501Y-140237499D02*
X93120000Y-142580000D01*
%TO.N,Net-(IC8-I15)*%
X89002500Y-112270000D02*
X93940000Y-112270000D01*
X97110000Y-115440000D02*
X97110000Y-124170000D01*
X86692500Y-114580000D02*
X89002500Y-112270000D01*
X93940000Y-112270000D02*
X97110000Y-115440000D01*
X97110000Y-124170000D02*
X96112503Y-125167497D01*
X96112503Y-125167497D02*
X96112503Y-126881500D01*
%TO.N,Net-(IC8-I3)*%
X94162501Y-136147499D02*
X91730000Y-138580000D01*
X91730000Y-138580000D02*
X86692500Y-138580000D01*
X94162501Y-132723500D02*
X94162501Y-136147499D01*
%TO.N,Net-(IC8-I14)*%
X94190000Y-114350000D02*
X88922500Y-114350000D01*
X88922500Y-114350000D02*
X86692500Y-116580000D01*
X95462501Y-126881500D02*
X95462501Y-125117499D01*
X96510000Y-124070000D02*
X96510000Y-116670000D01*
X95462501Y-125117499D02*
X96510000Y-124070000D01*
X96510000Y-116670000D02*
X94190000Y-114350000D01*
%TO.N,Net-(IC8-I11)*%
X91470000Y-122580000D02*
X86692500Y-122580000D01*
X93512503Y-126881500D02*
X93512503Y-124622503D01*
X93512503Y-124622503D02*
X91470000Y-122580000D01*
%TO.N,Net-(IC9-I3)*%
X132922502Y-123337498D02*
X135235000Y-121025000D01*
X135235000Y-121025000D02*
X140162500Y-121025000D01*
X132922502Y-126881500D02*
X132922502Y-123337498D01*
%TO.N,Net-(IC9-I0)*%
X133675000Y-115025000D02*
X140162500Y-115025000D01*
X130972503Y-117727497D02*
X133675000Y-115025000D01*
X130972503Y-126881500D02*
X130972503Y-117727497D01*
%TO.N,Net-(IC9-I8)*%
X137137500Y-134050000D02*
X140162500Y-131025000D01*
X135522499Y-133660100D02*
X135912399Y-134050000D01*
X135912399Y-134050000D02*
X137137500Y-134050000D01*
X135522499Y-132723500D02*
X135522499Y-133660100D01*
%TO.N,Net-(IC9-I15)*%
X130972500Y-142142500D02*
X133855000Y-145025000D01*
X133855000Y-145025000D02*
X140162500Y-145025000D01*
X130972500Y-132723500D02*
X130972500Y-142142500D01*
%TO.N,Net-(IC9-I13)*%
X132272500Y-138952500D02*
X134345000Y-141025000D01*
X132272500Y-132723500D02*
X132272500Y-138952500D01*
X134345000Y-141025000D02*
X140162500Y-141025000D01*
%TO.N,Net-(IC9-I7)*%
X135693700Y-125843900D02*
X136981400Y-125843900D01*
X136981400Y-125843900D02*
X140162500Y-129025000D01*
X135522501Y-126881500D02*
X135522501Y-126015099D01*
X135522501Y-126015099D02*
X135693700Y-125843900D01*
%TO.N,Net-(IC9-I4)*%
X133572503Y-125207497D02*
X135755000Y-123025000D01*
X133572503Y-126881500D02*
X133572503Y-125207497D01*
X135755000Y-123025000D02*
X140162500Y-123025000D01*
%TO.N,Net-(IC9-I12)*%
X132922499Y-137132499D02*
X134815000Y-139025000D01*
X132922499Y-132723500D02*
X132922499Y-137132499D01*
X134815000Y-139025000D02*
X140162500Y-139025000D01*
%TO.N,Net-(IC9-I14)*%
X134015000Y-143025000D02*
X140162500Y-143025000D01*
X131622502Y-140632502D02*
X134015000Y-143025000D01*
X131622502Y-132723500D02*
X131622502Y-140632502D01*
%TO.N,Net-(IC9-I10)*%
X134222499Y-132723500D02*
X134222499Y-134382499D01*
X134222499Y-134382499D02*
X135370000Y-135530000D01*
X139657500Y-135530000D02*
X140162500Y-135025000D01*
X135370000Y-135530000D02*
X139657500Y-135530000D01*
%TO.N,Net-(IC9-I2)*%
X132272503Y-121677497D02*
X134925000Y-119025000D01*
X132272503Y-126881500D02*
X132272503Y-121677497D01*
X134925000Y-119025000D02*
X140162500Y-119025000D01*
%TO.N,Net-(IC9-I11)*%
X133572500Y-132723500D02*
X133572500Y-135452500D01*
X133572500Y-135452500D02*
X135145000Y-137025000D01*
X135145000Y-137025000D02*
X140162500Y-137025000D01*
%TO.N,Net-(IC9-I6)*%
X134872503Y-126881500D02*
X134872503Y-126015098D01*
X134872503Y-126015098D02*
X135737601Y-125150000D01*
X138287500Y-125150000D02*
X140162500Y-127025000D01*
X135737601Y-125150000D02*
X138287500Y-125150000D01*
%TO.N,Net-(IC9-I1)*%
X131622502Y-126881500D02*
X131622502Y-119767498D01*
X134365000Y-117025000D02*
X140162500Y-117025000D01*
X131622502Y-119767498D02*
X134365000Y-117025000D01*
%TO.N,Net-(IC9-I9)*%
X134872500Y-132723500D02*
X134872500Y-133912500D01*
X138547500Y-134640000D02*
X140162500Y-133025000D01*
X135600000Y-134640000D02*
X138547500Y-134640000D01*
X134872500Y-133912500D02*
X135600000Y-134640000D01*
%TO.N,Net-(IC9-I5)*%
X139487500Y-124350000D02*
X140162500Y-125025000D01*
X135790000Y-124350000D02*
X139487500Y-124350000D01*
X134222502Y-126881500D02*
X134222502Y-125917498D01*
X134222502Y-125917498D02*
X135790000Y-124350000D01*
%TO.N,/SHUTOFF*%
X103100000Y-94370000D02*
X103100000Y-92950000D01*
X101280000Y-77710000D02*
X104990000Y-77710000D01*
X103070000Y-90749000D02*
X98720000Y-86399000D01*
X98720000Y-80270000D02*
X101280000Y-77710000D01*
X97440000Y-100030000D02*
X103100000Y-94370000D01*
X98720000Y-86399000D02*
X98720000Y-80270000D01*
X97440000Y-101905000D02*
X97440000Y-100030000D01*
%TO.N,/IO15*%
X103653600Y-80250000D02*
X104990000Y-80250000D01*
X111984375Y-146335625D02*
X113427500Y-147778750D01*
X103401800Y-79998200D02*
X103653600Y-80250000D01*
D56*
%TO.N,Net-(LED3-A)*%
X101612500Y-81000000D02*
X101612500Y-82532500D01*
X101612500Y-82532500D02*
X101585000Y-82560000D01*
D58*
%TO.N,+12V*%
X112600000Y-113200000D02*
X112122500Y-113200000D01*
D56*
X111764000Y-141442250D02*
X113427500Y-139778750D01*
X95640000Y-118650000D02*
X95810000Y-118480000D01*
D58*
X112600000Y-111980000D02*
X116020000Y-108560000D01*
X113427500Y-139778750D02*
X113248750Y-139778750D01*
D56*
X91830000Y-145635000D02*
X98988896Y-145635000D01*
X103181646Y-141442250D02*
X111764000Y-141442250D01*
D58*
X112600000Y-113200000D02*
X112600000Y-111980000D01*
X112122500Y-113200000D02*
X110740000Y-111817500D01*
X113248750Y-139778750D02*
X111780000Y-138310000D01*
D56*
X95640000Y-119255000D02*
X95640000Y-118650000D01*
X98988896Y-145635000D02*
X103181646Y-141442250D01*
D57*
%TO.N,Net-(D3-K)*%
X125750000Y-109280000D02*
X127240000Y-110770000D01*
X107690000Y-109280000D02*
X109040000Y-110630000D01*
X109040000Y-110630000D02*
X109040000Y-111817500D01*
X127240000Y-115336800D02*
X124856800Y-117720000D01*
X100360000Y-112000000D02*
X103080000Y-109280000D01*
X99760000Y-112000000D02*
X100360000Y-112000000D01*
X119940000Y-109280000D02*
X125750000Y-109280000D01*
X127240000Y-110770000D02*
X127240000Y-115336800D01*
D56*
%TO.N,/SHUTOFF_ISO*%
X117261250Y-139778750D02*
X115640000Y-141400000D01*
X91300000Y-115630000D02*
X91140000Y-115790000D01*
X91640000Y-115630000D02*
X91300000Y-115630000D01*
X92575000Y-118355000D02*
X91320000Y-117100000D01*
X91140000Y-116920000D02*
X91320000Y-117100000D01*
X91140000Y-115790000D02*
X91140000Y-116920000D01*
X92575000Y-119140000D02*
X92575000Y-118355000D01*
X117427500Y-139778750D02*
X117261250Y-139778750D01*
D55*
%TO.N,Net-(Q3-Pad1)*%
X93860000Y-107879800D02*
X93860000Y-107830000D01*
X96830000Y-104165000D02*
X97440000Y-103555000D01*
X96830000Y-104700000D02*
X96830000Y-104165000D01*
X93860000Y-107830000D02*
X95350000Y-106340000D01*
D56*
%TO.N,Net-(Q3-Pad4)*%
X95135000Y-117100000D02*
X95640000Y-117605000D01*
X93860000Y-117100000D02*
X95135000Y-117100000D01*
%TD*%
M02*
