M48
; DRILL file {KiCad 9.0.4} date 2026-07-05T15:25:17-0700
; FORMAT={-:-/ absolute / inch / decimal}
; #@! TF.CreationDate,2026-07-05T15:25:17-07:00
; #@! TF.GenerationSoftware,Kicad,Pcbnew,9.0.4
; #@! TF.FileFunction,Plated,1,4,PTH
FMAT,2
INCH
; #@! TA.AperFunction,Plated,PTH,ViaDrill
T1C0.0118
; #@! TA.AperFunction,Plated,PTH,ViaDrill
T2C0.0197
; #@! TA.AperFunction,Plated,PTH,ComponentDrill
T3C0.0236
; #@! TA.AperFunction,Plated,PTH,ComponentDrill
T4C0.0295
; #@! TA.AperFunction,Plated,PTH,ComponentDrill
T5C0.0335
; #@! TA.AperFunction,Plated,PTH,ComponentDrill
T6C0.0689
%
G90
G05
T1
X3.5406Y-4.2343
X3.5496Y-3.5709
X3.5504Y-4.9917
X3.6079Y-4.5524
X3.65Y-5.8181
X3.6689Y-4.7221
X3.6894Y-5.8677
X3.7539Y-4.1866
X3.772Y-4.6646
X3.8056Y-4.9449
X3.8087Y-3.5134
X3.8106Y-5.1724
X3.8122Y-3.7531
X3.8122Y-4.122
X3.8277Y-4.9284
X3.835Y-4.3551
X3.839Y-5.1705
X3.8428Y-3.7561
X3.8531Y-3.524
X3.8583Y-4.9444
X3.8598Y-3.8504
X3.8598Y-5.2768
X3.8992Y-3.5539
X3.9154Y-3.6437
X3.9201Y-2.9031
X3.9236Y-5.1165
X3.9528Y-4.9339
X3.9571Y-3.287
X3.9571Y-5.2646
X3.9681Y-2.8283
X3.9728Y-2.8862
X4.0114Y-2.9079
X4.0311Y-3.1484
X4.0579Y-3.5728
X4.0591Y-3.6594
X4.0709Y-3.1495
X4.078Y-3.1094
X4.1008Y-5.0039
X4.1213Y-5.3693
X4.1323Y-3.8846
X4.1402Y-4.0661
X4.1854Y-2.9083
X4.1925Y-2.8094
X4.2217Y-5.8181
X4.3047Y-5.3075
X4.3214Y-3.8958
X4.3268Y-3.1134
X4.3307Y-3.2004
X4.3315Y-3.0264
X4.3661Y-5.1165
X4.3921Y-3.0874
X4.4004Y-3.9543
X4.4088Y-5.7612
X4.4173Y-3.911
X4.4189Y-3.0213
X4.4193Y-3.2071
X4.4469Y-5.3559
X4.489Y-3.8205
X4.5071Y-3.2012
X4.5075Y-3.0276
X4.5075Y-5.3004
X4.5138Y-3.1134
X4.517Y-3.9745
X4.5528Y-5.5669
X4.5531Y-3.5728
X4.5811Y-3.5925
X4.6488Y-4.1457
X4.6524Y-3.565
X4.6961Y-3.5638
X4.7409Y-3.2807
X4.7543Y-5.2587
X4.7551Y-5.3268
X4.7559Y-3.4417
X4.8091Y-3.7484
X4.8102Y-3.7992
X4.8248Y-5.0602
X4.8409Y-3.7469
X4.8449Y-3.5795
X4.8665Y-3.652
X4.871Y-3.1899
X4.8732Y-2.7972
X4.8768Y-3.0598
X4.8846Y-2.8343
X4.8933Y-3.8815
X4.8933Y-5.3646
X4.9075Y-3.2222
X4.9124Y-3.1665
X4.9169Y-3.4114
X4.9539Y-5.3665
X4.9594Y-3.0146
X4.9638Y-3.3752
X4.9653Y-3.2223
X4.9768Y-2.9408
X5.0229Y-3.318
X5.0232Y-3.378
X5.0232Y-3.5843
X5.0248Y-5.1319
X5.0618Y-4.1843
X5.0724Y-3.7555
X5.0795Y-3.5205
X5.0795Y-4.9406
X5.0799Y-5.1799
X5.0838Y-2.9708
X5.0882Y-3.3744
X5.1035Y-3.7488
X5.1118Y-5.1787
X5.1311Y-3.852
X5.1311Y-5.2783
X5.1429Y-3.2543
X5.1449Y-3.435
X5.1472Y-3.3807
X5.1831Y-3.0579
X5.1935Y-3.2596
X5.1969Y-3.1947
X5.2256Y-2.8673
X5.3112Y-2.9662
X5.3165Y-3.137
X5.3484Y-2.8665
X5.3913Y-3.8035
X5.3925Y-5.226
X5.402Y-3.0142
T2
X3.889Y-4.6465
X4.0Y-4.7846
X4.0583Y-4.3024
X4.0898Y-4.4819
X4.115Y-5.1941
X4.1181Y-5.1146
X4.1957Y-2.8594
X4.2398Y-4.3024
X4.2583Y-4.4862
X4.3043Y-5.2189
X4.3535Y-4.0433
X4.4008Y-5.4453
X4.4331Y-4.4567
X4.5961Y-3.9543
X4.722Y-4.3024
T4
X3.3344Y-3.087
X3.3344Y-3.1657
X3.3344Y-3.2445
X3.3344Y-3.3232
X3.3344Y-3.402
X3.3344Y-3.4807
X3.3344Y-3.5594
X3.3344Y-3.6382
X3.3344Y-3.7169
X3.3344Y-3.7957
X3.3344Y-3.8744
X3.3344Y-3.9531
X3.3344Y-4.0319
X3.3344Y-4.1106
X3.3344Y-4.1894
X3.3344Y-4.2681
X3.3344Y-4.511
X3.3344Y-4.5898
X3.3344Y-4.6685
X3.3344Y-4.7472
X3.3344Y-4.826
X3.3344Y-4.9047
X3.3344Y-4.9835
X3.3344Y-5.0622
X3.3344Y-5.1409
X3.3344Y-5.2197
X3.3344Y-5.2984
X3.3344Y-5.3772
X3.3344Y-5.4559
X3.3344Y-5.5346
X3.3344Y-5.6134
X3.3344Y-5.6921
X3.4131Y-3.087
X3.4131Y-3.1657
X3.4131Y-3.2445
X3.4131Y-3.3232
X3.4131Y-3.402
X3.4131Y-3.4807
X3.4131Y-3.5594
X3.4131Y-3.6382
X3.4131Y-3.7169
X3.4131Y-3.7957
X3.4131Y-3.8744
X3.4131Y-3.9531
X3.4131Y-4.0319
X3.4131Y-4.1106
X3.4131Y-4.1894
X3.4131Y-4.2681
X3.4131Y-4.511
X3.4131Y-4.5898
X3.4131Y-4.6685
X3.4131Y-4.7472
X3.4131Y-4.826
X3.4131Y-4.9047
X3.4131Y-4.9835
X3.4131Y-5.0622
X3.4131Y-5.1409
X3.4131Y-5.2197
X3.4131Y-5.2984
X3.4131Y-5.3772
X3.4131Y-5.4559
X3.4131Y-5.5346
X3.4131Y-5.6134
X3.4131Y-5.6921
X5.5182Y-3.1045
X5.5182Y-3.1833
X5.5182Y-3.262
X5.5182Y-3.3407
X5.5182Y-3.4195
X5.5182Y-3.4982
X5.5182Y-3.577
X5.5182Y-3.6557
X5.5182Y-3.7344
X5.5182Y-3.8132
X5.5182Y-3.8919
X5.5182Y-3.9707
X5.5182Y-4.0494
X5.5182Y-4.1281
X5.5182Y-4.2069
X5.5182Y-4.2856
X5.5182Y-4.5285
X5.5182Y-4.6073
X5.5182Y-4.686
X5.5182Y-4.7648
X5.5182Y-4.8435
X5.5182Y-4.9222
X5.5182Y-5.001
X5.5182Y-5.0797
X5.5182Y-5.1585
X5.5182Y-5.2372
X5.5182Y-5.3159
X5.5182Y-5.3947
X5.5182Y-5.4734
X5.5182Y-5.5522
X5.5182Y-5.6309
X5.5182Y-5.7096
X5.5969Y-3.1045
X5.5969Y-3.1833
X5.5969Y-3.262
X5.5969Y-3.3407
X5.5969Y-3.4195
X5.5969Y-3.4982
X5.5969Y-3.577
X5.5969Y-3.6557
X5.5969Y-3.7344
X5.5969Y-3.8132
X5.5969Y-3.8919
X5.5969Y-3.9707
X5.5969Y-4.0494
X5.5969Y-4.1281
X5.5969Y-4.2069
X5.5969Y-4.2856
X5.5969Y-4.5285
X5.5969Y-4.6073
X5.5969Y-4.686
X5.5969Y-4.7648
X5.5969Y-4.8435
X5.5969Y-4.9222
X5.5969Y-5.001
X5.5969Y-5.0797
X5.5969Y-5.1585
X5.5969Y-5.2372
X5.5969Y-5.3159
X5.5969Y-5.3947
X5.5969Y-5.4734
X5.5969Y-5.5522
X5.5969Y-5.6309
X5.5969Y-5.7096
T5
X5.2Y-2.9091
X5.3969Y-2.9091
T6
X4.3082Y-5.5031
X4.3082Y-5.8181
X4.3869Y-5.6606
X4.4656Y-5.5031
X4.4656Y-5.8181
X4.5444Y-5.6606
X4.6231Y-5.5031
X4.6231Y-5.8181
T3
G00X5.1606Y-2.8165
M15
G01X5.1606Y-2.789
M16
G05
G00X5.4362Y-2.789
M15
G01X5.4362Y-2.8165
M16
G05
M30
