M48
; DRILL file {KiCad 9.0.8} date 2026-03-29T12:43:46-0700
; FORMAT={-:-/ absolute / metric / decimal}
; #@! TF.CreationDate,2026-03-29T12:43:46-07:00
; #@! TF.GenerationSoftware,Kicad,Pcbnew,9.0.8
; #@! TF.FileFunction,Plated,1,2,PTH
FMAT,2
METRIC
; #@! TA.AperFunction,Plated,PTH,ViaDrill
T1C0.300
; #@! TA.AperFunction,Plated,PTH,ComponentDrill
T2C0.760
; #@! TA.AperFunction,Plated,PTH,ComponentDrill
T3C1.600
; #@! TA.AperFunction,Plated,PTH,ComponentDrill
T4C1.850
%
G90
G05
T1
X68.834Y-122.682
X69.342Y-119.38
X75.438Y-111.633
X77.089Y-117.983
X78.232Y-112.522
X78.486Y-82.804
X80.137Y-99.187
X83.185Y-115.062
X84.201Y-121.031
X85.344Y-118.364
X85.725Y-103.251
X86.233Y-117.602
X86.995Y-82.55
X87.122Y-115.189
X89.789Y-95.377
X89.789Y-129.159
X89.916Y-112.776
X91.059Y-107.442
X91.186Y-118.999
X91.313Y-112.176
X92.075Y-96.393
X93.726Y-100.203
X93.98Y-106.299
X94.615Y-115.824
X95.567Y-111.823
X95.948Y-113.855
X96.901Y-124.587
X97.282Y-115.04
X97.816Y-117.247
X98.806Y-110.236
X102.743Y-118.999
X105.156Y-111.633
T2
X66.92Y-136.129
X69.46Y-133.589
X72.0Y-136.129
X80.82Y-136.129
X83.36Y-133.589
X85.9Y-136.129
X95.347Y-136.214
X97.887Y-133.674
X100.427Y-136.214
X109.474Y-136.271
X112.014Y-133.731
X114.554Y-136.271
T3
X69.472Y-127.144
X79.2Y-103.7
X83.185Y-93.599
X83.373Y-127.144
X83.7Y-86.4
X97.9Y-127.229
X112.141Y-126.746
T4
X66.845Y-92.2
X66.845Y-96.2
X66.845Y-100.2
X70.845Y-94.2
X70.845Y-98.2
X74.845Y-92.2
X74.845Y-96.2
X74.845Y-100.2
M30
