%TF.GenerationSoftware,KiCad,Pcbnew,9.0.8*%
%TF.CreationDate,2026-03-29T12:43:41-07:00*%
%TF.ProjectId,BSPD_V1.2_EV,42535044-5f56-4312-9e32-5f45562e6b69,rev?*%
%TF.SameCoordinates,Original*%
%TF.FileFunction,Legend,Top*%
%TF.FilePolarity,Positive*%
%FSLAX46Y46*%
G04 Gerber Fmt 4.6, Leading zero omitted, Abs format (unit mm)*
G04 Created by KiCad (PCBNEW 9.0.8) date 2026-03-29 12:43:41*
%MOMM*%
%LPD*%
G01*
G04 APERTURE LIST*
%ADD10C,0.254000*%
%ADD11C,0.150000*%
%ADD12C,0.200000*%
%ADD13C,0.120000*%
%ADD14C,0.100000*%
G04 APERTURE END LIST*
D10*
X63934284Y-76074318D02*
X63934284Y-74804318D01*
X65083332Y-75227651D02*
X65083332Y-76255746D01*
X65083332Y-76255746D02*
X65022856Y-76376699D01*
X65022856Y-76376699D02*
X64962380Y-76437175D01*
X64962380Y-76437175D02*
X64841427Y-76497651D01*
X64841427Y-76497651D02*
X64659999Y-76497651D01*
X64659999Y-76497651D02*
X64539046Y-76437175D01*
X65083332Y-76013842D02*
X64962380Y-76074318D01*
X64962380Y-76074318D02*
X64720475Y-76074318D01*
X64720475Y-76074318D02*
X64599523Y-76013842D01*
X64599523Y-76013842D02*
X64539046Y-75953365D01*
X64539046Y-75953365D02*
X64478570Y-75832413D01*
X64478570Y-75832413D02*
X64478570Y-75469556D01*
X64478570Y-75469556D02*
X64539046Y-75348603D01*
X64539046Y-75348603D02*
X64599523Y-75288127D01*
X64599523Y-75288127D02*
X64720475Y-75227651D01*
X64720475Y-75227651D02*
X64962380Y-75227651D01*
X64962380Y-75227651D02*
X65083332Y-75288127D01*
X65688094Y-75227651D02*
X65688094Y-76074318D01*
X65688094Y-75348603D02*
X65748571Y-75288127D01*
X65748571Y-75288127D02*
X65869523Y-75227651D01*
X65869523Y-75227651D02*
X66050952Y-75227651D01*
X66050952Y-75227651D02*
X66171904Y-75288127D01*
X66171904Y-75288127D02*
X66232380Y-75409080D01*
X66232380Y-75409080D02*
X66232380Y-76074318D01*
X66837142Y-76074318D02*
X66837142Y-75227651D01*
X66837142Y-74804318D02*
X66776666Y-74864794D01*
X66776666Y-74864794D02*
X66837142Y-74925270D01*
X66837142Y-74925270D02*
X66897619Y-74864794D01*
X66897619Y-74864794D02*
X66837142Y-74804318D01*
X66837142Y-74804318D02*
X66837142Y-74925270D01*
X67260476Y-75227651D02*
X67744285Y-75227651D01*
X67441904Y-74804318D02*
X67441904Y-75892889D01*
X67441904Y-75892889D02*
X67502381Y-76013842D01*
X67502381Y-76013842D02*
X67623333Y-76074318D01*
X67623333Y-76074318D02*
X67744285Y-76074318D01*
X68167618Y-76074318D02*
X68167618Y-75227651D01*
X68167618Y-74804318D02*
X68107142Y-74864794D01*
X68107142Y-74864794D02*
X68167618Y-74925270D01*
X68167618Y-74925270D02*
X68228095Y-74864794D01*
X68228095Y-74864794D02*
X68167618Y-74804318D01*
X68167618Y-74804318D02*
X68167618Y-74925270D01*
X68953809Y-76074318D02*
X68832857Y-76013842D01*
X68832857Y-76013842D02*
X68772380Y-75953365D01*
X68772380Y-75953365D02*
X68711904Y-75832413D01*
X68711904Y-75832413D02*
X68711904Y-75469556D01*
X68711904Y-75469556D02*
X68772380Y-75348603D01*
X68772380Y-75348603D02*
X68832857Y-75288127D01*
X68832857Y-75288127D02*
X68953809Y-75227651D01*
X68953809Y-75227651D02*
X69135238Y-75227651D01*
X69135238Y-75227651D02*
X69256190Y-75288127D01*
X69256190Y-75288127D02*
X69316666Y-75348603D01*
X69316666Y-75348603D02*
X69377142Y-75469556D01*
X69377142Y-75469556D02*
X69377142Y-75832413D01*
X69377142Y-75832413D02*
X69316666Y-75953365D01*
X69316666Y-75953365D02*
X69256190Y-76013842D01*
X69256190Y-76013842D02*
X69135238Y-76074318D01*
X69135238Y-76074318D02*
X68953809Y-76074318D01*
X69921428Y-75227651D02*
X69921428Y-76074318D01*
X69921428Y-75348603D02*
X69981905Y-75288127D01*
X69981905Y-75288127D02*
X70102857Y-75227651D01*
X70102857Y-75227651D02*
X70284286Y-75227651D01*
X70284286Y-75227651D02*
X70405238Y-75288127D01*
X70405238Y-75288127D02*
X70465714Y-75409080D01*
X70465714Y-75409080D02*
X70465714Y-76074318D01*
D11*
X93352142Y-99955819D02*
X93018809Y-99479628D01*
X92780714Y-99955819D02*
X92780714Y-98955819D01*
X92780714Y-98955819D02*
X93161666Y-98955819D01*
X93161666Y-98955819D02*
X93256904Y-99003438D01*
X93256904Y-99003438D02*
X93304523Y-99051057D01*
X93304523Y-99051057D02*
X93352142Y-99146295D01*
X93352142Y-99146295D02*
X93352142Y-99289152D01*
X93352142Y-99289152D02*
X93304523Y-99384390D01*
X93304523Y-99384390D02*
X93256904Y-99432009D01*
X93256904Y-99432009D02*
X93161666Y-99479628D01*
X93161666Y-99479628D02*
X92780714Y-99479628D01*
X93733095Y-99051057D02*
X93780714Y-99003438D01*
X93780714Y-99003438D02*
X93875952Y-98955819D01*
X93875952Y-98955819D02*
X94114047Y-98955819D01*
X94114047Y-98955819D02*
X94209285Y-99003438D01*
X94209285Y-99003438D02*
X94256904Y-99051057D01*
X94256904Y-99051057D02*
X94304523Y-99146295D01*
X94304523Y-99146295D02*
X94304523Y-99241533D01*
X94304523Y-99241533D02*
X94256904Y-99384390D01*
X94256904Y-99384390D02*
X93685476Y-99955819D01*
X93685476Y-99955819D02*
X94304523Y-99955819D01*
X94923571Y-98955819D02*
X95018809Y-98955819D01*
X95018809Y-98955819D02*
X95114047Y-99003438D01*
X95114047Y-99003438D02*
X95161666Y-99051057D01*
X95161666Y-99051057D02*
X95209285Y-99146295D01*
X95209285Y-99146295D02*
X95256904Y-99336771D01*
X95256904Y-99336771D02*
X95256904Y-99574866D01*
X95256904Y-99574866D02*
X95209285Y-99765342D01*
X95209285Y-99765342D02*
X95161666Y-99860580D01*
X95161666Y-99860580D02*
X95114047Y-99908200D01*
X95114047Y-99908200D02*
X95018809Y-99955819D01*
X95018809Y-99955819D02*
X94923571Y-99955819D01*
X94923571Y-99955819D02*
X94828333Y-99908200D01*
X94828333Y-99908200D02*
X94780714Y-99860580D01*
X94780714Y-99860580D02*
X94733095Y-99765342D01*
X94733095Y-99765342D02*
X94685476Y-99574866D01*
X94685476Y-99574866D02*
X94685476Y-99336771D01*
X94685476Y-99336771D02*
X94733095Y-99146295D01*
X94733095Y-99146295D02*
X94780714Y-99051057D01*
X94780714Y-99051057D02*
X94828333Y-99003438D01*
X94828333Y-99003438D02*
X94923571Y-98955819D01*
D10*
X81464794Y-104667618D02*
X81404318Y-104788571D01*
X81404318Y-104788571D02*
X81404318Y-104969999D01*
X81404318Y-104969999D02*
X81464794Y-105151428D01*
X81464794Y-105151428D02*
X81585746Y-105272380D01*
X81585746Y-105272380D02*
X81706699Y-105332857D01*
X81706699Y-105332857D02*
X81948603Y-105393333D01*
X81948603Y-105393333D02*
X82130032Y-105393333D01*
X82130032Y-105393333D02*
X82371937Y-105332857D01*
X82371937Y-105332857D02*
X82492889Y-105272380D01*
X82492889Y-105272380D02*
X82613842Y-105151428D01*
X82613842Y-105151428D02*
X82674318Y-104969999D01*
X82674318Y-104969999D02*
X82674318Y-104849047D01*
X82674318Y-104849047D02*
X82613842Y-104667618D01*
X82613842Y-104667618D02*
X82553365Y-104607142D01*
X82553365Y-104607142D02*
X82130032Y-104607142D01*
X82130032Y-104607142D02*
X82130032Y-104849047D01*
X82674318Y-104062857D02*
X81404318Y-104062857D01*
X81404318Y-104062857D02*
X82674318Y-103337142D01*
X82674318Y-103337142D02*
X81404318Y-103337142D01*
X82674318Y-102732381D02*
X81404318Y-102732381D01*
X81404318Y-102732381D02*
X81404318Y-102430000D01*
X81404318Y-102430000D02*
X81464794Y-102248571D01*
X81464794Y-102248571D02*
X81585746Y-102127619D01*
X81585746Y-102127619D02*
X81706699Y-102067142D01*
X81706699Y-102067142D02*
X81948603Y-102006666D01*
X81948603Y-102006666D02*
X82130032Y-102006666D01*
X82130032Y-102006666D02*
X82371937Y-102067142D01*
X82371937Y-102067142D02*
X82492889Y-102127619D01*
X82492889Y-102127619D02*
X82613842Y-102248571D01*
X82613842Y-102248571D02*
X82674318Y-102430000D01*
X82674318Y-102430000D02*
X82674318Y-102732381D01*
X87045618Y-104762318D02*
X87045618Y-103492318D01*
X87045618Y-103492318D02*
X87347999Y-103492318D01*
X87347999Y-103492318D02*
X87529428Y-103552794D01*
X87529428Y-103552794D02*
X87650380Y-103673746D01*
X87650380Y-103673746D02*
X87710857Y-103794699D01*
X87710857Y-103794699D02*
X87771333Y-104036603D01*
X87771333Y-104036603D02*
X87771333Y-104218032D01*
X87771333Y-104218032D02*
X87710857Y-104459937D01*
X87710857Y-104459937D02*
X87650380Y-104580889D01*
X87650380Y-104580889D02*
X87529428Y-104701842D01*
X87529428Y-104701842D02*
X87347999Y-104762318D01*
X87347999Y-104762318D02*
X87045618Y-104762318D01*
X88859904Y-103492318D02*
X88617999Y-103492318D01*
X88617999Y-103492318D02*
X88497047Y-103552794D01*
X88497047Y-103552794D02*
X88436571Y-103613270D01*
X88436571Y-103613270D02*
X88315618Y-103794699D01*
X88315618Y-103794699D02*
X88255142Y-104036603D01*
X88255142Y-104036603D02*
X88255142Y-104520413D01*
X88255142Y-104520413D02*
X88315618Y-104641365D01*
X88315618Y-104641365D02*
X88376095Y-104701842D01*
X88376095Y-104701842D02*
X88497047Y-104762318D01*
X88497047Y-104762318D02*
X88738952Y-104762318D01*
X88738952Y-104762318D02*
X88859904Y-104701842D01*
X88859904Y-104701842D02*
X88920380Y-104641365D01*
X88920380Y-104641365D02*
X88980857Y-104520413D01*
X88980857Y-104520413D02*
X88980857Y-104218032D01*
X88980857Y-104218032D02*
X88920380Y-104097080D01*
X88920380Y-104097080D02*
X88859904Y-104036603D01*
X88859904Y-104036603D02*
X88738952Y-103976127D01*
X88738952Y-103976127D02*
X88497047Y-103976127D01*
X88497047Y-103976127D02*
X88376095Y-104036603D01*
X88376095Y-104036603D02*
X88315618Y-104097080D01*
X88315618Y-104097080D02*
X88255142Y-104218032D01*
D11*
X99357333Y-113674819D02*
X99024000Y-113198628D01*
X98785905Y-113674819D02*
X98785905Y-112674819D01*
X98785905Y-112674819D02*
X99166857Y-112674819D01*
X99166857Y-112674819D02*
X99262095Y-112722438D01*
X99262095Y-112722438D02*
X99309714Y-112770057D01*
X99309714Y-112770057D02*
X99357333Y-112865295D01*
X99357333Y-112865295D02*
X99357333Y-113008152D01*
X99357333Y-113008152D02*
X99309714Y-113103390D01*
X99309714Y-113103390D02*
X99262095Y-113151009D01*
X99262095Y-113151009D02*
X99166857Y-113198628D01*
X99166857Y-113198628D02*
X98785905Y-113198628D01*
X100262095Y-112674819D02*
X99785905Y-112674819D01*
X99785905Y-112674819D02*
X99738286Y-113151009D01*
X99738286Y-113151009D02*
X99785905Y-113103390D01*
X99785905Y-113103390D02*
X99881143Y-113055771D01*
X99881143Y-113055771D02*
X100119238Y-113055771D01*
X100119238Y-113055771D02*
X100214476Y-113103390D01*
X100214476Y-113103390D02*
X100262095Y-113151009D01*
X100262095Y-113151009D02*
X100309714Y-113246247D01*
X100309714Y-113246247D02*
X100309714Y-113484342D01*
X100309714Y-113484342D02*
X100262095Y-113579580D01*
X100262095Y-113579580D02*
X100214476Y-113627200D01*
X100214476Y-113627200D02*
X100119238Y-113674819D01*
X100119238Y-113674819D02*
X99881143Y-113674819D01*
X99881143Y-113674819D02*
X99785905Y-113627200D01*
X99785905Y-113627200D02*
X99738286Y-113579580D01*
D10*
X66650809Y-142911080D02*
X66832237Y-142971556D01*
X66832237Y-142971556D02*
X66892714Y-143032032D01*
X66892714Y-143032032D02*
X66953190Y-143152984D01*
X66953190Y-143152984D02*
X66953190Y-143334413D01*
X66953190Y-143334413D02*
X66892714Y-143455365D01*
X66892714Y-143455365D02*
X66832237Y-143515842D01*
X66832237Y-143515842D02*
X66711285Y-143576318D01*
X66711285Y-143576318D02*
X66227475Y-143576318D01*
X66227475Y-143576318D02*
X66227475Y-142306318D01*
X66227475Y-142306318D02*
X66650809Y-142306318D01*
X66650809Y-142306318D02*
X66771761Y-142366794D01*
X66771761Y-142366794D02*
X66832237Y-142427270D01*
X66832237Y-142427270D02*
X66892714Y-142548222D01*
X66892714Y-142548222D02*
X66892714Y-142669175D01*
X66892714Y-142669175D02*
X66832237Y-142790127D01*
X66832237Y-142790127D02*
X66771761Y-142850603D01*
X66771761Y-142850603D02*
X66650809Y-142911080D01*
X66650809Y-142911080D02*
X66227475Y-142911080D01*
X67436999Y-143515842D02*
X67618428Y-143576318D01*
X67618428Y-143576318D02*
X67920809Y-143576318D01*
X67920809Y-143576318D02*
X68041761Y-143515842D01*
X68041761Y-143515842D02*
X68102237Y-143455365D01*
X68102237Y-143455365D02*
X68162714Y-143334413D01*
X68162714Y-143334413D02*
X68162714Y-143213461D01*
X68162714Y-143213461D02*
X68102237Y-143092508D01*
X68102237Y-143092508D02*
X68041761Y-143032032D01*
X68041761Y-143032032D02*
X67920809Y-142971556D01*
X67920809Y-142971556D02*
X67678904Y-142911080D01*
X67678904Y-142911080D02*
X67557952Y-142850603D01*
X67557952Y-142850603D02*
X67497475Y-142790127D01*
X67497475Y-142790127D02*
X67436999Y-142669175D01*
X67436999Y-142669175D02*
X67436999Y-142548222D01*
X67436999Y-142548222D02*
X67497475Y-142427270D01*
X67497475Y-142427270D02*
X67557952Y-142366794D01*
X67557952Y-142366794D02*
X67678904Y-142306318D01*
X67678904Y-142306318D02*
X67981285Y-142306318D01*
X67981285Y-142306318D02*
X68162714Y-142366794D01*
X68706999Y-142911080D02*
X69130333Y-142911080D01*
X69311761Y-143576318D02*
X68706999Y-143576318D01*
X68706999Y-143576318D02*
X68706999Y-142306318D01*
X68706999Y-142306318D02*
X69311761Y-142306318D01*
X71428428Y-143576318D02*
X70823666Y-143576318D01*
X70823666Y-143576318D02*
X70823666Y-142306318D01*
X72033190Y-143576318D02*
X71912238Y-143515842D01*
X71912238Y-143515842D02*
X71851761Y-143455365D01*
X71851761Y-143455365D02*
X71791285Y-143334413D01*
X71791285Y-143334413D02*
X71791285Y-142971556D01*
X71791285Y-142971556D02*
X71851761Y-142850603D01*
X71851761Y-142850603D02*
X71912238Y-142790127D01*
X71912238Y-142790127D02*
X72033190Y-142729651D01*
X72033190Y-142729651D02*
X72214619Y-142729651D01*
X72214619Y-142729651D02*
X72335571Y-142790127D01*
X72335571Y-142790127D02*
X72396047Y-142850603D01*
X72396047Y-142850603D02*
X72456523Y-142971556D01*
X72456523Y-142971556D02*
X72456523Y-143334413D01*
X72456523Y-143334413D02*
X72396047Y-143455365D01*
X72396047Y-143455365D02*
X72335571Y-143515842D01*
X72335571Y-143515842D02*
X72214619Y-143576318D01*
X72214619Y-143576318D02*
X72033190Y-143576318D01*
X72879857Y-142729651D02*
X73121762Y-143576318D01*
X73121762Y-143576318D02*
X73363667Y-142971556D01*
X73363667Y-142971556D02*
X73605571Y-143576318D01*
X73605571Y-143576318D02*
X73847476Y-142729651D01*
X102498318Y-122527381D02*
X101228318Y-122527381D01*
X101228318Y-122527381D02*
X101228318Y-122225000D01*
X101228318Y-122225000D02*
X101288794Y-122043571D01*
X101288794Y-122043571D02*
X101409746Y-121922619D01*
X101409746Y-121922619D02*
X101530699Y-121862142D01*
X101530699Y-121862142D02*
X101772603Y-121801666D01*
X101772603Y-121801666D02*
X101954032Y-121801666D01*
X101954032Y-121801666D02*
X102195937Y-121862142D01*
X102195937Y-121862142D02*
X102316889Y-121922619D01*
X102316889Y-121922619D02*
X102437842Y-122043571D01*
X102437842Y-122043571D02*
X102498318Y-122225000D01*
X102498318Y-122225000D02*
X102498318Y-122527381D01*
X101651651Y-120713095D02*
X102498318Y-120713095D01*
X101167842Y-121015476D02*
X102074984Y-121317857D01*
X102074984Y-121317857D02*
X102074984Y-120531666D01*
X87045618Y-99812318D02*
X87045618Y-98542318D01*
X87045618Y-98542318D02*
X87347999Y-98542318D01*
X87347999Y-98542318D02*
X87529428Y-98602794D01*
X87529428Y-98602794D02*
X87650380Y-98723746D01*
X87650380Y-98723746D02*
X87710857Y-98844699D01*
X87710857Y-98844699D02*
X87771333Y-99086603D01*
X87771333Y-99086603D02*
X87771333Y-99268032D01*
X87771333Y-99268032D02*
X87710857Y-99509937D01*
X87710857Y-99509937D02*
X87650380Y-99630889D01*
X87650380Y-99630889D02*
X87529428Y-99751842D01*
X87529428Y-99751842D02*
X87347999Y-99812318D01*
X87347999Y-99812318D02*
X87045618Y-99812318D01*
X88920380Y-98542318D02*
X88315618Y-98542318D01*
X88315618Y-98542318D02*
X88255142Y-99147080D01*
X88255142Y-99147080D02*
X88315618Y-99086603D01*
X88315618Y-99086603D02*
X88436571Y-99026127D01*
X88436571Y-99026127D02*
X88738952Y-99026127D01*
X88738952Y-99026127D02*
X88859904Y-99086603D01*
X88859904Y-99086603D02*
X88920380Y-99147080D01*
X88920380Y-99147080D02*
X88980857Y-99268032D01*
X88980857Y-99268032D02*
X88980857Y-99570413D01*
X88980857Y-99570413D02*
X88920380Y-99691365D01*
X88920380Y-99691365D02*
X88859904Y-99751842D01*
X88859904Y-99751842D02*
X88738952Y-99812318D01*
X88738952Y-99812318D02*
X88436571Y-99812318D01*
X88436571Y-99812318D02*
X88315618Y-99751842D01*
X88315618Y-99751842D02*
X88255142Y-99691365D01*
X84579047Y-77095270D02*
X84458095Y-77034794D01*
X84458095Y-77034794D02*
X84337142Y-76913842D01*
X84337142Y-76913842D02*
X84155714Y-76732413D01*
X84155714Y-76732413D02*
X84034761Y-76671937D01*
X84034761Y-76671937D02*
X83913809Y-76671937D01*
X83974285Y-76974318D02*
X83853333Y-76913842D01*
X83853333Y-76913842D02*
X83732380Y-76792889D01*
X83732380Y-76792889D02*
X83671904Y-76550984D01*
X83671904Y-76550984D02*
X83671904Y-76127651D01*
X83671904Y-76127651D02*
X83732380Y-75885746D01*
X83732380Y-75885746D02*
X83853333Y-75764794D01*
X83853333Y-75764794D02*
X83974285Y-75704318D01*
X83974285Y-75704318D02*
X84216190Y-75704318D01*
X84216190Y-75704318D02*
X84337142Y-75764794D01*
X84337142Y-75764794D02*
X84458095Y-75885746D01*
X84458095Y-75885746D02*
X84518571Y-76127651D01*
X84518571Y-76127651D02*
X84518571Y-76550984D01*
X84518571Y-76550984D02*
X84458095Y-76792889D01*
X84458095Y-76792889D02*
X84337142Y-76913842D01*
X84337142Y-76913842D02*
X84216190Y-76974318D01*
X84216190Y-76974318D02*
X83974285Y-76974318D01*
X85728095Y-76974318D02*
X85002380Y-76974318D01*
X85365237Y-76974318D02*
X85365237Y-75704318D01*
X85365237Y-75704318D02*
X85244285Y-75885746D01*
X85244285Y-75885746D02*
X85123333Y-76006699D01*
X85123333Y-76006699D02*
X85002380Y-76067175D01*
X96357618Y-97345318D02*
X96357618Y-96075318D01*
X96357618Y-96075318D02*
X96659999Y-96075318D01*
X96659999Y-96075318D02*
X96841428Y-96135794D01*
X96841428Y-96135794D02*
X96962380Y-96256746D01*
X96962380Y-96256746D02*
X97022857Y-96377699D01*
X97022857Y-96377699D02*
X97083333Y-96619603D01*
X97083333Y-96619603D02*
X97083333Y-96801032D01*
X97083333Y-96801032D02*
X97022857Y-97042937D01*
X97022857Y-97042937D02*
X96962380Y-97163889D01*
X96962380Y-97163889D02*
X96841428Y-97284842D01*
X96841428Y-97284842D02*
X96659999Y-97345318D01*
X96659999Y-97345318D02*
X96357618Y-97345318D01*
X97506666Y-96075318D02*
X98292857Y-96075318D01*
X98292857Y-96075318D02*
X97869523Y-96559127D01*
X97869523Y-96559127D02*
X98050952Y-96559127D01*
X98050952Y-96559127D02*
X98171904Y-96619603D01*
X98171904Y-96619603D02*
X98232380Y-96680080D01*
X98232380Y-96680080D02*
X98292857Y-96801032D01*
X98292857Y-96801032D02*
X98292857Y-97103413D01*
X98292857Y-97103413D02*
X98232380Y-97224365D01*
X98232380Y-97224365D02*
X98171904Y-97284842D01*
X98171904Y-97284842D02*
X98050952Y-97345318D01*
X98050952Y-97345318D02*
X97688095Y-97345318D01*
X97688095Y-97345318D02*
X97567142Y-97284842D01*
X97567142Y-97284842D02*
X97506666Y-97224365D01*
X75109080Y-129165428D02*
X75169556Y-128984000D01*
X75169556Y-128984000D02*
X75230032Y-128923523D01*
X75230032Y-128923523D02*
X75350984Y-128863047D01*
X75350984Y-128863047D02*
X75532413Y-128863047D01*
X75532413Y-128863047D02*
X75653365Y-128923523D01*
X75653365Y-128923523D02*
X75713842Y-128984000D01*
X75713842Y-128984000D02*
X75774318Y-129104952D01*
X75774318Y-129104952D02*
X75774318Y-129588762D01*
X75774318Y-129588762D02*
X74504318Y-129588762D01*
X74504318Y-129588762D02*
X74504318Y-129165428D01*
X74504318Y-129165428D02*
X74564794Y-129044476D01*
X74564794Y-129044476D02*
X74625270Y-128984000D01*
X74625270Y-128984000D02*
X74746222Y-128923523D01*
X74746222Y-128923523D02*
X74867175Y-128923523D01*
X74867175Y-128923523D02*
X74988127Y-128984000D01*
X74988127Y-128984000D02*
X75048603Y-129044476D01*
X75048603Y-129044476D02*
X75109080Y-129165428D01*
X75109080Y-129165428D02*
X75109080Y-129588762D01*
X75713842Y-128379238D02*
X75774318Y-128197809D01*
X75774318Y-128197809D02*
X75774318Y-127895428D01*
X75774318Y-127895428D02*
X75713842Y-127774476D01*
X75713842Y-127774476D02*
X75653365Y-127714000D01*
X75653365Y-127714000D02*
X75532413Y-127653523D01*
X75532413Y-127653523D02*
X75411461Y-127653523D01*
X75411461Y-127653523D02*
X75290508Y-127714000D01*
X75290508Y-127714000D02*
X75230032Y-127774476D01*
X75230032Y-127774476D02*
X75169556Y-127895428D01*
X75169556Y-127895428D02*
X75109080Y-128137333D01*
X75109080Y-128137333D02*
X75048603Y-128258285D01*
X75048603Y-128258285D02*
X74988127Y-128318762D01*
X74988127Y-128318762D02*
X74867175Y-128379238D01*
X74867175Y-128379238D02*
X74746222Y-128379238D01*
X74746222Y-128379238D02*
X74625270Y-128318762D01*
X74625270Y-128318762D02*
X74564794Y-128258285D01*
X74564794Y-128258285D02*
X74504318Y-128137333D01*
X74504318Y-128137333D02*
X74504318Y-127834952D01*
X74504318Y-127834952D02*
X74564794Y-127653523D01*
X75109080Y-127109238D02*
X75109080Y-126685904D01*
X75774318Y-126504476D02*
X75774318Y-127109238D01*
X75774318Y-127109238D02*
X74504318Y-127109238D01*
X74504318Y-127109238D02*
X74504318Y-126504476D01*
X75895270Y-126262571D02*
X75895270Y-125294951D01*
X75774318Y-124387809D02*
X75774318Y-124992571D01*
X75774318Y-124992571D02*
X74504318Y-124992571D01*
X89319318Y-128039476D02*
X88049318Y-128039476D01*
X88049318Y-128039476D02*
X88049318Y-127555666D01*
X88049318Y-127555666D02*
X88109794Y-127434714D01*
X88109794Y-127434714D02*
X88170270Y-127374237D01*
X88170270Y-127374237D02*
X88291222Y-127313761D01*
X88291222Y-127313761D02*
X88472651Y-127313761D01*
X88472651Y-127313761D02*
X88593603Y-127374237D01*
X88593603Y-127374237D02*
X88654080Y-127434714D01*
X88654080Y-127434714D02*
X88714556Y-127555666D01*
X88714556Y-127555666D02*
X88714556Y-128039476D01*
X89440270Y-127071857D02*
X89440270Y-126104237D01*
X89319318Y-125197095D02*
X89319318Y-125801857D01*
X89319318Y-125801857D02*
X88049318Y-125801857D01*
D11*
X104281142Y-117557819D02*
X103947809Y-117081628D01*
X103709714Y-117557819D02*
X103709714Y-116557819D01*
X103709714Y-116557819D02*
X104090666Y-116557819D01*
X104090666Y-116557819D02*
X104185904Y-116605438D01*
X104185904Y-116605438D02*
X104233523Y-116653057D01*
X104233523Y-116653057D02*
X104281142Y-116748295D01*
X104281142Y-116748295D02*
X104281142Y-116891152D01*
X104281142Y-116891152D02*
X104233523Y-116986390D01*
X104233523Y-116986390D02*
X104185904Y-117034009D01*
X104185904Y-117034009D02*
X104090666Y-117081628D01*
X104090666Y-117081628D02*
X103709714Y-117081628D01*
X105233523Y-117557819D02*
X104662095Y-117557819D01*
X104947809Y-117557819D02*
X104947809Y-116557819D01*
X104947809Y-116557819D02*
X104852571Y-116700676D01*
X104852571Y-116700676D02*
X104757333Y-116795914D01*
X104757333Y-116795914D02*
X104662095Y-116843533D01*
X105804952Y-116986390D02*
X105709714Y-116938771D01*
X105709714Y-116938771D02*
X105662095Y-116891152D01*
X105662095Y-116891152D02*
X105614476Y-116795914D01*
X105614476Y-116795914D02*
X105614476Y-116748295D01*
X105614476Y-116748295D02*
X105662095Y-116653057D01*
X105662095Y-116653057D02*
X105709714Y-116605438D01*
X105709714Y-116605438D02*
X105804952Y-116557819D01*
X105804952Y-116557819D02*
X105995428Y-116557819D01*
X105995428Y-116557819D02*
X106090666Y-116605438D01*
X106090666Y-116605438D02*
X106138285Y-116653057D01*
X106138285Y-116653057D02*
X106185904Y-116748295D01*
X106185904Y-116748295D02*
X106185904Y-116795914D01*
X106185904Y-116795914D02*
X106138285Y-116891152D01*
X106138285Y-116891152D02*
X106090666Y-116938771D01*
X106090666Y-116938771D02*
X105995428Y-116986390D01*
X105995428Y-116986390D02*
X105804952Y-116986390D01*
X105804952Y-116986390D02*
X105709714Y-117034009D01*
X105709714Y-117034009D02*
X105662095Y-117081628D01*
X105662095Y-117081628D02*
X105614476Y-117176866D01*
X105614476Y-117176866D02*
X105614476Y-117367342D01*
X105614476Y-117367342D02*
X105662095Y-117462580D01*
X105662095Y-117462580D02*
X105709714Y-117510200D01*
X105709714Y-117510200D02*
X105804952Y-117557819D01*
X105804952Y-117557819D02*
X105995428Y-117557819D01*
X105995428Y-117557819D02*
X106090666Y-117510200D01*
X106090666Y-117510200D02*
X106138285Y-117462580D01*
X106138285Y-117462580D02*
X106185904Y-117367342D01*
X106185904Y-117367342D02*
X106185904Y-117176866D01*
X106185904Y-117176866D02*
X106138285Y-117081628D01*
X106138285Y-117081628D02*
X106090666Y-117034009D01*
X106090666Y-117034009D02*
X105995428Y-116986390D01*
X98653580Y-121356666D02*
X98701200Y-121404285D01*
X98701200Y-121404285D02*
X98748819Y-121547142D01*
X98748819Y-121547142D02*
X98748819Y-121642380D01*
X98748819Y-121642380D02*
X98701200Y-121785237D01*
X98701200Y-121785237D02*
X98605961Y-121880475D01*
X98605961Y-121880475D02*
X98510723Y-121928094D01*
X98510723Y-121928094D02*
X98320247Y-121975713D01*
X98320247Y-121975713D02*
X98177390Y-121975713D01*
X98177390Y-121975713D02*
X97986914Y-121928094D01*
X97986914Y-121928094D02*
X97891676Y-121880475D01*
X97891676Y-121880475D02*
X97796438Y-121785237D01*
X97796438Y-121785237D02*
X97748819Y-121642380D01*
X97748819Y-121642380D02*
X97748819Y-121547142D01*
X97748819Y-121547142D02*
X97796438Y-121404285D01*
X97796438Y-121404285D02*
X97844057Y-121356666D01*
X97748819Y-120499523D02*
X97748819Y-120689999D01*
X97748819Y-120689999D02*
X97796438Y-120785237D01*
X97796438Y-120785237D02*
X97844057Y-120832856D01*
X97844057Y-120832856D02*
X97986914Y-120928094D01*
X97986914Y-120928094D02*
X98177390Y-120975713D01*
X98177390Y-120975713D02*
X98558342Y-120975713D01*
X98558342Y-120975713D02*
X98653580Y-120928094D01*
X98653580Y-120928094D02*
X98701200Y-120880475D01*
X98701200Y-120880475D02*
X98748819Y-120785237D01*
X98748819Y-120785237D02*
X98748819Y-120594761D01*
X98748819Y-120594761D02*
X98701200Y-120499523D01*
X98701200Y-120499523D02*
X98653580Y-120451904D01*
X98653580Y-120451904D02*
X98558342Y-120404285D01*
X98558342Y-120404285D02*
X98320247Y-120404285D01*
X98320247Y-120404285D02*
X98225009Y-120451904D01*
X98225009Y-120451904D02*
X98177390Y-120499523D01*
X98177390Y-120499523D02*
X98129771Y-120594761D01*
X98129771Y-120594761D02*
X98129771Y-120785237D01*
X98129771Y-120785237D02*
X98177390Y-120880475D01*
X98177390Y-120880475D02*
X98225009Y-120928094D01*
X98225009Y-120928094D02*
X98320247Y-120975713D01*
D10*
X71760237Y-115474318D02*
X71760237Y-114204318D01*
X73090714Y-115353365D02*
X73030238Y-115413842D01*
X73030238Y-115413842D02*
X72848809Y-115474318D01*
X72848809Y-115474318D02*
X72727857Y-115474318D01*
X72727857Y-115474318D02*
X72546428Y-115413842D01*
X72546428Y-115413842D02*
X72425476Y-115292889D01*
X72425476Y-115292889D02*
X72364999Y-115171937D01*
X72364999Y-115171937D02*
X72304523Y-114930032D01*
X72304523Y-114930032D02*
X72304523Y-114748603D01*
X72304523Y-114748603D02*
X72364999Y-114506699D01*
X72364999Y-114506699D02*
X72425476Y-114385746D01*
X72425476Y-114385746D02*
X72546428Y-114264794D01*
X72546428Y-114264794D02*
X72727857Y-114204318D01*
X72727857Y-114204318D02*
X72848809Y-114204318D01*
X72848809Y-114204318D02*
X73030238Y-114264794D01*
X73030238Y-114264794D02*
X73090714Y-114325270D01*
X74179285Y-114627651D02*
X74179285Y-115474318D01*
X73876904Y-114143842D02*
X73574523Y-115050984D01*
X73574523Y-115050984D02*
X74360714Y-115050984D01*
X117922318Y-128100666D02*
X116652318Y-128100666D01*
X116652318Y-128100666D02*
X116652318Y-127616856D01*
X116652318Y-127616856D02*
X116712794Y-127495904D01*
X116712794Y-127495904D02*
X116773270Y-127435427D01*
X116773270Y-127435427D02*
X116894222Y-127374951D01*
X116894222Y-127374951D02*
X117075651Y-127374951D01*
X117075651Y-127374951D02*
X117196603Y-127435427D01*
X117196603Y-127435427D02*
X117257080Y-127495904D01*
X117257080Y-127495904D02*
X117317556Y-127616856D01*
X117317556Y-127616856D02*
X117317556Y-128100666D01*
X118043270Y-127133047D02*
X118043270Y-126165427D01*
X117922318Y-125863047D02*
X116652318Y-125863047D01*
X117257080Y-125863047D02*
X117257080Y-125137332D01*
X117922318Y-125137332D02*
X116652318Y-125137332D01*
X107429904Y-143830318D02*
X107429904Y-142560318D01*
X107429904Y-142560318D02*
X107913714Y-142560318D01*
X107913714Y-142560318D02*
X108034666Y-142620794D01*
X108034666Y-142620794D02*
X108095143Y-142681270D01*
X108095143Y-142681270D02*
X108155619Y-142802222D01*
X108155619Y-142802222D02*
X108155619Y-142983651D01*
X108155619Y-142983651D02*
X108095143Y-143104603D01*
X108095143Y-143104603D02*
X108034666Y-143165080D01*
X108034666Y-143165080D02*
X107913714Y-143225556D01*
X107913714Y-143225556D02*
X107429904Y-143225556D01*
X108881333Y-143830318D02*
X108760381Y-143769842D01*
X108760381Y-143769842D02*
X108699904Y-143709365D01*
X108699904Y-143709365D02*
X108639428Y-143588413D01*
X108639428Y-143588413D02*
X108639428Y-143225556D01*
X108639428Y-143225556D02*
X108699904Y-143104603D01*
X108699904Y-143104603D02*
X108760381Y-143044127D01*
X108760381Y-143044127D02*
X108881333Y-142983651D01*
X108881333Y-142983651D02*
X109062762Y-142983651D01*
X109062762Y-142983651D02*
X109183714Y-143044127D01*
X109183714Y-143044127D02*
X109244190Y-143104603D01*
X109244190Y-143104603D02*
X109304666Y-143225556D01*
X109304666Y-143225556D02*
X109304666Y-143588413D01*
X109304666Y-143588413D02*
X109244190Y-143709365D01*
X109244190Y-143709365D02*
X109183714Y-143769842D01*
X109183714Y-143769842D02*
X109062762Y-143830318D01*
X109062762Y-143830318D02*
X108881333Y-143830318D01*
X109728000Y-142983651D02*
X109969905Y-143830318D01*
X109969905Y-143830318D02*
X110211810Y-143225556D01*
X110211810Y-143225556D02*
X110453714Y-143830318D01*
X110453714Y-143830318D02*
X110695619Y-142983651D01*
X111663238Y-143769842D02*
X111542286Y-143830318D01*
X111542286Y-143830318D02*
X111300381Y-143830318D01*
X111300381Y-143830318D02*
X111179428Y-143769842D01*
X111179428Y-143769842D02*
X111118952Y-143648889D01*
X111118952Y-143648889D02*
X111118952Y-143165080D01*
X111118952Y-143165080D02*
X111179428Y-143044127D01*
X111179428Y-143044127D02*
X111300381Y-142983651D01*
X111300381Y-142983651D02*
X111542286Y-142983651D01*
X111542286Y-142983651D02*
X111663238Y-143044127D01*
X111663238Y-143044127D02*
X111723714Y-143165080D01*
X111723714Y-143165080D02*
X111723714Y-143286032D01*
X111723714Y-143286032D02*
X111118952Y-143406984D01*
X112267999Y-143830318D02*
X112267999Y-142983651D01*
X112267999Y-143225556D02*
X112328476Y-143104603D01*
X112328476Y-143104603D02*
X112388952Y-143044127D01*
X112388952Y-143044127D02*
X112509904Y-142983651D01*
X112509904Y-142983651D02*
X112630857Y-142983651D01*
X114626570Y-142560318D02*
X114021808Y-142560318D01*
X114021808Y-142560318D02*
X113961332Y-143165080D01*
X113961332Y-143165080D02*
X114021808Y-143104603D01*
X114021808Y-143104603D02*
X114142761Y-143044127D01*
X114142761Y-143044127D02*
X114445142Y-143044127D01*
X114445142Y-143044127D02*
X114566094Y-143104603D01*
X114566094Y-143104603D02*
X114626570Y-143165080D01*
X114626570Y-143165080D02*
X114687047Y-143286032D01*
X114687047Y-143286032D02*
X114687047Y-143588413D01*
X114687047Y-143588413D02*
X114626570Y-143709365D01*
X114626570Y-143709365D02*
X114566094Y-143769842D01*
X114566094Y-143769842D02*
X114445142Y-143830318D01*
X114445142Y-143830318D02*
X114142761Y-143830318D01*
X114142761Y-143830318D02*
X114021808Y-143769842D01*
X114021808Y-143769842D02*
X113961332Y-143709365D01*
X115231332Y-143830318D02*
X115231332Y-142560318D01*
X115352285Y-143346508D02*
X115715142Y-143830318D01*
X115715142Y-142983651D02*
X115231332Y-143467461D01*
X116138475Y-142560318D02*
X116440856Y-143830318D01*
X116440856Y-143830318D02*
X116682761Y-142923175D01*
X116682761Y-142923175D02*
X116924666Y-143830318D01*
X116924666Y-143830318D02*
X117227047Y-142560318D01*
X78049728Y-96623332D02*
X78956871Y-96623332D01*
X78956871Y-96623332D02*
X79138299Y-96683809D01*
X79138299Y-96683809D02*
X79259252Y-96804761D01*
X79259252Y-96804761D02*
X79319728Y-96986190D01*
X79319728Y-96986190D02*
X79319728Y-97107142D01*
X79319728Y-95353332D02*
X79319728Y-96079047D01*
X79319728Y-95716190D02*
X78049728Y-95716190D01*
X78049728Y-95716190D02*
X78231156Y-95837142D01*
X78231156Y-95837142D02*
X78352109Y-95958094D01*
X78352109Y-95958094D02*
X78412585Y-96079047D01*
X81818237Y-107889318D02*
X81818237Y-106619318D01*
X83148714Y-107768365D02*
X83088238Y-107828842D01*
X83088238Y-107828842D02*
X82906809Y-107889318D01*
X82906809Y-107889318D02*
X82785857Y-107889318D01*
X82785857Y-107889318D02*
X82604428Y-107828842D01*
X82604428Y-107828842D02*
X82483476Y-107707889D01*
X82483476Y-107707889D02*
X82422999Y-107586937D01*
X82422999Y-107586937D02*
X82362523Y-107345032D01*
X82362523Y-107345032D02*
X82362523Y-107163603D01*
X82362523Y-107163603D02*
X82422999Y-106921699D01*
X82422999Y-106921699D02*
X82483476Y-106800746D01*
X82483476Y-106800746D02*
X82604428Y-106679794D01*
X82604428Y-106679794D02*
X82785857Y-106619318D01*
X82785857Y-106619318D02*
X82906809Y-106619318D01*
X82906809Y-106619318D02*
X83088238Y-106679794D01*
X83088238Y-106679794D02*
X83148714Y-106740270D01*
X84237285Y-106619318D02*
X83995380Y-106619318D01*
X83995380Y-106619318D02*
X83874428Y-106679794D01*
X83874428Y-106679794D02*
X83813952Y-106740270D01*
X83813952Y-106740270D02*
X83692999Y-106921699D01*
X83692999Y-106921699D02*
X83632523Y-107163603D01*
X83632523Y-107163603D02*
X83632523Y-107647413D01*
X83632523Y-107647413D02*
X83692999Y-107768365D01*
X83692999Y-107768365D02*
X83753476Y-107828842D01*
X83753476Y-107828842D02*
X83874428Y-107889318D01*
X83874428Y-107889318D02*
X84116333Y-107889318D01*
X84116333Y-107889318D02*
X84237285Y-107828842D01*
X84237285Y-107828842D02*
X84297761Y-107768365D01*
X84297761Y-107768365D02*
X84358238Y-107647413D01*
X84358238Y-107647413D02*
X84358238Y-107345032D01*
X84358238Y-107345032D02*
X84297761Y-107224080D01*
X84297761Y-107224080D02*
X84237285Y-107163603D01*
X84237285Y-107163603D02*
X84116333Y-107103127D01*
X84116333Y-107103127D02*
X83874428Y-107103127D01*
X83874428Y-107103127D02*
X83753476Y-107163603D01*
X83753476Y-107163603D02*
X83692999Y-107224080D01*
X83692999Y-107224080D02*
X83632523Y-107345032D01*
D11*
X66529580Y-113666666D02*
X66577200Y-113714285D01*
X66577200Y-113714285D02*
X66624819Y-113857142D01*
X66624819Y-113857142D02*
X66624819Y-113952380D01*
X66624819Y-113952380D02*
X66577200Y-114095237D01*
X66577200Y-114095237D02*
X66481961Y-114190475D01*
X66481961Y-114190475D02*
X66386723Y-114238094D01*
X66386723Y-114238094D02*
X66196247Y-114285713D01*
X66196247Y-114285713D02*
X66053390Y-114285713D01*
X66053390Y-114285713D02*
X65862914Y-114238094D01*
X65862914Y-114238094D02*
X65767676Y-114190475D01*
X65767676Y-114190475D02*
X65672438Y-114095237D01*
X65672438Y-114095237D02*
X65624819Y-113952380D01*
X65624819Y-113952380D02*
X65624819Y-113857142D01*
X65624819Y-113857142D02*
X65672438Y-113714285D01*
X65672438Y-113714285D02*
X65720057Y-113666666D01*
X65958152Y-112809523D02*
X66624819Y-112809523D01*
X65577200Y-113047618D02*
X66291485Y-113285713D01*
X66291485Y-113285713D02*
X66291485Y-112666666D01*
X81084819Y-93166666D02*
X80608628Y-93499999D01*
X81084819Y-93738094D02*
X80084819Y-93738094D01*
X80084819Y-93738094D02*
X80084819Y-93357142D01*
X80084819Y-93357142D02*
X80132438Y-93261904D01*
X80132438Y-93261904D02*
X80180057Y-93214285D01*
X80180057Y-93214285D02*
X80275295Y-93166666D01*
X80275295Y-93166666D02*
X80418152Y-93166666D01*
X80418152Y-93166666D02*
X80513390Y-93214285D01*
X80513390Y-93214285D02*
X80561009Y-93261904D01*
X80561009Y-93261904D02*
X80608628Y-93357142D01*
X80608628Y-93357142D02*
X80608628Y-93738094D01*
X80513390Y-92595237D02*
X80465771Y-92690475D01*
X80465771Y-92690475D02*
X80418152Y-92738094D01*
X80418152Y-92738094D02*
X80322914Y-92785713D01*
X80322914Y-92785713D02*
X80275295Y-92785713D01*
X80275295Y-92785713D02*
X80180057Y-92738094D01*
X80180057Y-92738094D02*
X80132438Y-92690475D01*
X80132438Y-92690475D02*
X80084819Y-92595237D01*
X80084819Y-92595237D02*
X80084819Y-92404761D01*
X80084819Y-92404761D02*
X80132438Y-92309523D01*
X80132438Y-92309523D02*
X80180057Y-92261904D01*
X80180057Y-92261904D02*
X80275295Y-92214285D01*
X80275295Y-92214285D02*
X80322914Y-92214285D01*
X80322914Y-92214285D02*
X80418152Y-92261904D01*
X80418152Y-92261904D02*
X80465771Y-92309523D01*
X80465771Y-92309523D02*
X80513390Y-92404761D01*
X80513390Y-92404761D02*
X80513390Y-92595237D01*
X80513390Y-92595237D02*
X80561009Y-92690475D01*
X80561009Y-92690475D02*
X80608628Y-92738094D01*
X80608628Y-92738094D02*
X80703866Y-92785713D01*
X80703866Y-92785713D02*
X80894342Y-92785713D01*
X80894342Y-92785713D02*
X80989580Y-92738094D01*
X80989580Y-92738094D02*
X81037200Y-92690475D01*
X81037200Y-92690475D02*
X81084819Y-92595237D01*
X81084819Y-92595237D02*
X81084819Y-92404761D01*
X81084819Y-92404761D02*
X81037200Y-92309523D01*
X81037200Y-92309523D02*
X80989580Y-92261904D01*
X80989580Y-92261904D02*
X80894342Y-92214285D01*
X80894342Y-92214285D02*
X80703866Y-92214285D01*
X80703866Y-92214285D02*
X80608628Y-92261904D01*
X80608628Y-92261904D02*
X80561009Y-92309523D01*
X80561009Y-92309523D02*
X80513390Y-92404761D01*
D10*
X82469485Y-84274318D02*
X82469485Y-83004318D01*
X82469485Y-83609080D02*
X83195200Y-83609080D01*
X83195200Y-84274318D02*
X83195200Y-83004318D01*
X83799961Y-83609080D02*
X84223295Y-83609080D01*
X84404723Y-84274318D02*
X83799961Y-84274318D01*
X83799961Y-84274318D02*
X83799961Y-83004318D01*
X83799961Y-83004318D02*
X84404723Y-83004318D01*
X84888533Y-84213842D02*
X85069962Y-84274318D01*
X85069962Y-84274318D02*
X85372343Y-84274318D01*
X85372343Y-84274318D02*
X85493295Y-84213842D01*
X85493295Y-84213842D02*
X85553771Y-84153365D01*
X85553771Y-84153365D02*
X85614248Y-84032413D01*
X85614248Y-84032413D02*
X85614248Y-83911461D01*
X85614248Y-83911461D02*
X85553771Y-83790508D01*
X85553771Y-83790508D02*
X85493295Y-83730032D01*
X85493295Y-83730032D02*
X85372343Y-83669556D01*
X85372343Y-83669556D02*
X85130438Y-83609080D01*
X85130438Y-83609080D02*
X85009486Y-83548603D01*
X85009486Y-83548603D02*
X84949009Y-83488127D01*
X84949009Y-83488127D02*
X84888533Y-83367175D01*
X84888533Y-83367175D02*
X84888533Y-83246222D01*
X84888533Y-83246222D02*
X84949009Y-83125270D01*
X84949009Y-83125270D02*
X85009486Y-83064794D01*
X85009486Y-83064794D02*
X85130438Y-83004318D01*
X85130438Y-83004318D02*
X85432819Y-83004318D01*
X85432819Y-83004318D02*
X85614248Y-83064794D01*
X96397618Y-102245318D02*
X96397618Y-100975318D01*
X96397618Y-100975318D02*
X96699999Y-100975318D01*
X96699999Y-100975318D02*
X96881428Y-101035794D01*
X96881428Y-101035794D02*
X97002380Y-101156746D01*
X97002380Y-101156746D02*
X97062857Y-101277699D01*
X97062857Y-101277699D02*
X97123333Y-101519603D01*
X97123333Y-101519603D02*
X97123333Y-101701032D01*
X97123333Y-101701032D02*
X97062857Y-101942937D01*
X97062857Y-101942937D02*
X97002380Y-102063889D01*
X97002380Y-102063889D02*
X96881428Y-102184842D01*
X96881428Y-102184842D02*
X96699999Y-102245318D01*
X96699999Y-102245318D02*
X96397618Y-102245318D01*
X97607142Y-101096270D02*
X97667618Y-101035794D01*
X97667618Y-101035794D02*
X97788571Y-100975318D01*
X97788571Y-100975318D02*
X98090952Y-100975318D01*
X98090952Y-100975318D02*
X98211904Y-101035794D01*
X98211904Y-101035794D02*
X98272380Y-101096270D01*
X98272380Y-101096270D02*
X98332857Y-101217222D01*
X98332857Y-101217222D02*
X98332857Y-101338175D01*
X98332857Y-101338175D02*
X98272380Y-101519603D01*
X98272380Y-101519603D02*
X97546666Y-102245318D01*
X97546666Y-102245318D02*
X98332857Y-102245318D01*
D11*
X107608819Y-122532857D02*
X107132628Y-122866190D01*
X107608819Y-123104285D02*
X106608819Y-123104285D01*
X106608819Y-123104285D02*
X106608819Y-122723333D01*
X106608819Y-122723333D02*
X106656438Y-122628095D01*
X106656438Y-122628095D02*
X106704057Y-122580476D01*
X106704057Y-122580476D02*
X106799295Y-122532857D01*
X106799295Y-122532857D02*
X106942152Y-122532857D01*
X106942152Y-122532857D02*
X107037390Y-122580476D01*
X107037390Y-122580476D02*
X107085009Y-122628095D01*
X107085009Y-122628095D02*
X107132628Y-122723333D01*
X107132628Y-122723333D02*
X107132628Y-123104285D01*
X107608819Y-121580476D02*
X107608819Y-122151904D01*
X107608819Y-121866190D02*
X106608819Y-121866190D01*
X106608819Y-121866190D02*
X106751676Y-121961428D01*
X106751676Y-121961428D02*
X106846914Y-122056666D01*
X106846914Y-122056666D02*
X106894533Y-122151904D01*
X107608819Y-121104285D02*
X107608819Y-120913809D01*
X107608819Y-120913809D02*
X107561200Y-120818571D01*
X107561200Y-120818571D02*
X107513580Y-120770952D01*
X107513580Y-120770952D02*
X107370723Y-120675714D01*
X107370723Y-120675714D02*
X107180247Y-120628095D01*
X107180247Y-120628095D02*
X106799295Y-120628095D01*
X106799295Y-120628095D02*
X106704057Y-120675714D01*
X106704057Y-120675714D02*
X106656438Y-120723333D01*
X106656438Y-120723333D02*
X106608819Y-120818571D01*
X106608819Y-120818571D02*
X106608819Y-121009047D01*
X106608819Y-121009047D02*
X106656438Y-121104285D01*
X106656438Y-121104285D02*
X106704057Y-121151904D01*
X106704057Y-121151904D02*
X106799295Y-121199523D01*
X106799295Y-121199523D02*
X107037390Y-121199523D01*
X107037390Y-121199523D02*
X107132628Y-121151904D01*
X107132628Y-121151904D02*
X107180247Y-121104285D01*
X107180247Y-121104285D02*
X107227866Y-121009047D01*
X107227866Y-121009047D02*
X107227866Y-120818571D01*
X107227866Y-120818571D02*
X107180247Y-120723333D01*
X107180247Y-120723333D02*
X107132628Y-120675714D01*
X107132628Y-120675714D02*
X107037390Y-120628095D01*
X109608819Y-115156666D02*
X109132628Y-115489999D01*
X109608819Y-115728094D02*
X108608819Y-115728094D01*
X108608819Y-115728094D02*
X108608819Y-115347142D01*
X108608819Y-115347142D02*
X108656438Y-115251904D01*
X108656438Y-115251904D02*
X108704057Y-115204285D01*
X108704057Y-115204285D02*
X108799295Y-115156666D01*
X108799295Y-115156666D02*
X108942152Y-115156666D01*
X108942152Y-115156666D02*
X109037390Y-115204285D01*
X109037390Y-115204285D02*
X109085009Y-115251904D01*
X109085009Y-115251904D02*
X109132628Y-115347142D01*
X109132628Y-115347142D02*
X109132628Y-115728094D01*
X108942152Y-114299523D02*
X109608819Y-114299523D01*
X108561200Y-114537618D02*
X109275485Y-114775713D01*
X109275485Y-114775713D02*
X109275485Y-114156666D01*
D10*
X88912318Y-79066762D02*
X87642318Y-79066762D01*
X88791365Y-77736285D02*
X88851842Y-77796761D01*
X88851842Y-77796761D02*
X88912318Y-77978190D01*
X88912318Y-77978190D02*
X88912318Y-78099142D01*
X88912318Y-78099142D02*
X88851842Y-78280571D01*
X88851842Y-78280571D02*
X88730889Y-78401523D01*
X88730889Y-78401523D02*
X88609937Y-78462000D01*
X88609937Y-78462000D02*
X88368032Y-78522476D01*
X88368032Y-78522476D02*
X88186603Y-78522476D01*
X88186603Y-78522476D02*
X87944699Y-78462000D01*
X87944699Y-78462000D02*
X87823746Y-78401523D01*
X87823746Y-78401523D02*
X87702794Y-78280571D01*
X87702794Y-78280571D02*
X87642318Y-78099142D01*
X87642318Y-78099142D02*
X87642318Y-77978190D01*
X87642318Y-77978190D02*
X87702794Y-77796761D01*
X87702794Y-77796761D02*
X87763270Y-77736285D01*
X87642318Y-76587238D02*
X87642318Y-77192000D01*
X87642318Y-77192000D02*
X88247080Y-77252476D01*
X88247080Y-77252476D02*
X88186603Y-77192000D01*
X88186603Y-77192000D02*
X88126127Y-77071047D01*
X88126127Y-77071047D02*
X88126127Y-76768666D01*
X88126127Y-76768666D02*
X88186603Y-76647714D01*
X88186603Y-76647714D02*
X88247080Y-76587238D01*
X88247080Y-76587238D02*
X88368032Y-76526761D01*
X88368032Y-76526761D02*
X88670413Y-76526761D01*
X88670413Y-76526761D02*
X88791365Y-76587238D01*
X88791365Y-76587238D02*
X88851842Y-76647714D01*
X88851842Y-76647714D02*
X88912318Y-76768666D01*
X88912318Y-76768666D02*
X88912318Y-77071047D01*
X88912318Y-77071047D02*
X88851842Y-77192000D01*
X88851842Y-77192000D02*
X88791365Y-77252476D01*
D11*
X82796142Y-115389819D02*
X82462809Y-114913628D01*
X82224714Y-115389819D02*
X82224714Y-114389819D01*
X82224714Y-114389819D02*
X82605666Y-114389819D01*
X82605666Y-114389819D02*
X82700904Y-114437438D01*
X82700904Y-114437438D02*
X82748523Y-114485057D01*
X82748523Y-114485057D02*
X82796142Y-114580295D01*
X82796142Y-114580295D02*
X82796142Y-114723152D01*
X82796142Y-114723152D02*
X82748523Y-114818390D01*
X82748523Y-114818390D02*
X82700904Y-114866009D01*
X82700904Y-114866009D02*
X82605666Y-114913628D01*
X82605666Y-114913628D02*
X82224714Y-114913628D01*
X83748523Y-115389819D02*
X83177095Y-115389819D01*
X83462809Y-115389819D02*
X83462809Y-114389819D01*
X83462809Y-114389819D02*
X83367571Y-114532676D01*
X83367571Y-114532676D02*
X83272333Y-114627914D01*
X83272333Y-114627914D02*
X83177095Y-114675533D01*
X84700904Y-115389819D02*
X84129476Y-115389819D01*
X84415190Y-115389819D02*
X84415190Y-114389819D01*
X84415190Y-114389819D02*
X84319952Y-114532676D01*
X84319952Y-114532676D02*
X84224714Y-114627914D01*
X84224714Y-114627914D02*
X84129476Y-114675533D01*
X92417819Y-102190857D02*
X91941628Y-102524190D01*
X92417819Y-102762285D02*
X91417819Y-102762285D01*
X91417819Y-102762285D02*
X91417819Y-102381333D01*
X91417819Y-102381333D02*
X91465438Y-102286095D01*
X91465438Y-102286095D02*
X91513057Y-102238476D01*
X91513057Y-102238476D02*
X91608295Y-102190857D01*
X91608295Y-102190857D02*
X91751152Y-102190857D01*
X91751152Y-102190857D02*
X91846390Y-102238476D01*
X91846390Y-102238476D02*
X91894009Y-102286095D01*
X91894009Y-102286095D02*
X91941628Y-102381333D01*
X91941628Y-102381333D02*
X91941628Y-102762285D01*
X91513057Y-101809904D02*
X91465438Y-101762285D01*
X91465438Y-101762285D02*
X91417819Y-101667047D01*
X91417819Y-101667047D02*
X91417819Y-101428952D01*
X91417819Y-101428952D02*
X91465438Y-101333714D01*
X91465438Y-101333714D02*
X91513057Y-101286095D01*
X91513057Y-101286095D02*
X91608295Y-101238476D01*
X91608295Y-101238476D02*
X91703533Y-101238476D01*
X91703533Y-101238476D02*
X91846390Y-101286095D01*
X91846390Y-101286095D02*
X92417819Y-101857523D01*
X92417819Y-101857523D02*
X92417819Y-101238476D01*
X91417819Y-100905142D02*
X91417819Y-100286095D01*
X91417819Y-100286095D02*
X91798771Y-100619428D01*
X91798771Y-100619428D02*
X91798771Y-100476571D01*
X91798771Y-100476571D02*
X91846390Y-100381333D01*
X91846390Y-100381333D02*
X91894009Y-100333714D01*
X91894009Y-100333714D02*
X91989247Y-100286095D01*
X91989247Y-100286095D02*
X92227342Y-100286095D01*
X92227342Y-100286095D02*
X92322580Y-100333714D01*
X92322580Y-100333714D02*
X92370200Y-100381333D01*
X92370200Y-100381333D02*
X92417819Y-100476571D01*
X92417819Y-100476571D02*
X92417819Y-100762285D01*
X92417819Y-100762285D02*
X92370200Y-100857523D01*
X92370200Y-100857523D02*
X92322580Y-100905142D01*
D10*
X93274318Y-127391857D02*
X92004318Y-127391857D01*
X92609080Y-127391857D02*
X92609080Y-126666142D01*
X93274318Y-126666142D02*
X92004318Y-126666142D01*
X92609080Y-125638047D02*
X92669556Y-125456619D01*
X92669556Y-125456619D02*
X92730032Y-125396142D01*
X92730032Y-125396142D02*
X92850984Y-125335666D01*
X92850984Y-125335666D02*
X93032413Y-125335666D01*
X93032413Y-125335666D02*
X93153365Y-125396142D01*
X93153365Y-125396142D02*
X93213842Y-125456619D01*
X93213842Y-125456619D02*
X93274318Y-125577571D01*
X93274318Y-125577571D02*
X93274318Y-126061381D01*
X93274318Y-126061381D02*
X92004318Y-126061381D01*
X92004318Y-126061381D02*
X92004318Y-125638047D01*
X92004318Y-125638047D02*
X92064794Y-125517095D01*
X92064794Y-125517095D02*
X92125270Y-125456619D01*
X92125270Y-125456619D02*
X92246222Y-125396142D01*
X92246222Y-125396142D02*
X92367175Y-125396142D01*
X92367175Y-125396142D02*
X92488127Y-125456619D01*
X92488127Y-125456619D02*
X92548603Y-125517095D01*
X92548603Y-125517095D02*
X92609080Y-125638047D01*
X92609080Y-125638047D02*
X92609080Y-126061381D01*
X80995761Y-143576318D02*
X80995761Y-142306318D01*
X80995761Y-142306318D02*
X81479571Y-142306318D01*
X81479571Y-142306318D02*
X81600523Y-142366794D01*
X81600523Y-142366794D02*
X81661000Y-142427270D01*
X81661000Y-142427270D02*
X81721476Y-142548222D01*
X81721476Y-142548222D02*
X81721476Y-142729651D01*
X81721476Y-142729651D02*
X81661000Y-142850603D01*
X81661000Y-142850603D02*
X81600523Y-142911080D01*
X81600523Y-142911080D02*
X81479571Y-142971556D01*
X81479571Y-142971556D02*
X80995761Y-142971556D01*
X83838142Y-143576318D02*
X83233380Y-143576318D01*
X83233380Y-143576318D02*
X83233380Y-142306318D01*
X84442904Y-143576318D02*
X84321952Y-143515842D01*
X84321952Y-143515842D02*
X84261475Y-143455365D01*
X84261475Y-143455365D02*
X84200999Y-143334413D01*
X84200999Y-143334413D02*
X84200999Y-142971556D01*
X84200999Y-142971556D02*
X84261475Y-142850603D01*
X84261475Y-142850603D02*
X84321952Y-142790127D01*
X84321952Y-142790127D02*
X84442904Y-142729651D01*
X84442904Y-142729651D02*
X84624333Y-142729651D01*
X84624333Y-142729651D02*
X84745285Y-142790127D01*
X84745285Y-142790127D02*
X84805761Y-142850603D01*
X84805761Y-142850603D02*
X84866237Y-142971556D01*
X84866237Y-142971556D02*
X84866237Y-143334413D01*
X84866237Y-143334413D02*
X84805761Y-143455365D01*
X84805761Y-143455365D02*
X84745285Y-143515842D01*
X84745285Y-143515842D02*
X84624333Y-143576318D01*
X84624333Y-143576318D02*
X84442904Y-143576318D01*
X85289571Y-142729651D02*
X85531476Y-143576318D01*
X85531476Y-143576318D02*
X85773381Y-142971556D01*
X85773381Y-142971556D02*
X86015285Y-143576318D01*
X86015285Y-143576318D02*
X86257190Y-142729651D01*
D11*
X76557142Y-80024819D02*
X76223809Y-79548628D01*
X75985714Y-80024819D02*
X75985714Y-79024819D01*
X75985714Y-79024819D02*
X76366666Y-79024819D01*
X76366666Y-79024819D02*
X76461904Y-79072438D01*
X76461904Y-79072438D02*
X76509523Y-79120057D01*
X76509523Y-79120057D02*
X76557142Y-79215295D01*
X76557142Y-79215295D02*
X76557142Y-79358152D01*
X76557142Y-79358152D02*
X76509523Y-79453390D01*
X76509523Y-79453390D02*
X76461904Y-79501009D01*
X76461904Y-79501009D02*
X76366666Y-79548628D01*
X76366666Y-79548628D02*
X75985714Y-79548628D01*
X77509523Y-80024819D02*
X76938095Y-80024819D01*
X77223809Y-80024819D02*
X77223809Y-79024819D01*
X77223809Y-79024819D02*
X77128571Y-79167676D01*
X77128571Y-79167676D02*
X77033333Y-79262914D01*
X77033333Y-79262914D02*
X76938095Y-79310533D01*
X78128571Y-79024819D02*
X78223809Y-79024819D01*
X78223809Y-79024819D02*
X78319047Y-79072438D01*
X78319047Y-79072438D02*
X78366666Y-79120057D01*
X78366666Y-79120057D02*
X78414285Y-79215295D01*
X78414285Y-79215295D02*
X78461904Y-79405771D01*
X78461904Y-79405771D02*
X78461904Y-79643866D01*
X78461904Y-79643866D02*
X78414285Y-79834342D01*
X78414285Y-79834342D02*
X78366666Y-79929580D01*
X78366666Y-79929580D02*
X78319047Y-79977200D01*
X78319047Y-79977200D02*
X78223809Y-80024819D01*
X78223809Y-80024819D02*
X78128571Y-80024819D01*
X78128571Y-80024819D02*
X78033333Y-79977200D01*
X78033333Y-79977200D02*
X77985714Y-79929580D01*
X77985714Y-79929580D02*
X77938095Y-79834342D01*
X77938095Y-79834342D02*
X77890476Y-79643866D01*
X77890476Y-79643866D02*
X77890476Y-79405771D01*
X77890476Y-79405771D02*
X77938095Y-79215295D01*
X77938095Y-79215295D02*
X77985714Y-79120057D01*
X77985714Y-79120057D02*
X78033333Y-79072438D01*
X78033333Y-79072438D02*
X78128571Y-79024819D01*
X111535580Y-74492666D02*
X111583200Y-74540285D01*
X111583200Y-74540285D02*
X111630819Y-74683142D01*
X111630819Y-74683142D02*
X111630819Y-74778380D01*
X111630819Y-74778380D02*
X111583200Y-74921237D01*
X111583200Y-74921237D02*
X111487961Y-75016475D01*
X111487961Y-75016475D02*
X111392723Y-75064094D01*
X111392723Y-75064094D02*
X111202247Y-75111713D01*
X111202247Y-75111713D02*
X111059390Y-75111713D01*
X111059390Y-75111713D02*
X110868914Y-75064094D01*
X110868914Y-75064094D02*
X110773676Y-75016475D01*
X110773676Y-75016475D02*
X110678438Y-74921237D01*
X110678438Y-74921237D02*
X110630819Y-74778380D01*
X110630819Y-74778380D02*
X110630819Y-74683142D01*
X110630819Y-74683142D02*
X110678438Y-74540285D01*
X110678438Y-74540285D02*
X110726057Y-74492666D01*
X111059390Y-73921237D02*
X111011771Y-74016475D01*
X111011771Y-74016475D02*
X110964152Y-74064094D01*
X110964152Y-74064094D02*
X110868914Y-74111713D01*
X110868914Y-74111713D02*
X110821295Y-74111713D01*
X110821295Y-74111713D02*
X110726057Y-74064094D01*
X110726057Y-74064094D02*
X110678438Y-74016475D01*
X110678438Y-74016475D02*
X110630819Y-73921237D01*
X110630819Y-73921237D02*
X110630819Y-73730761D01*
X110630819Y-73730761D02*
X110678438Y-73635523D01*
X110678438Y-73635523D02*
X110726057Y-73587904D01*
X110726057Y-73587904D02*
X110821295Y-73540285D01*
X110821295Y-73540285D02*
X110868914Y-73540285D01*
X110868914Y-73540285D02*
X110964152Y-73587904D01*
X110964152Y-73587904D02*
X111011771Y-73635523D01*
X111011771Y-73635523D02*
X111059390Y-73730761D01*
X111059390Y-73730761D02*
X111059390Y-73921237D01*
X111059390Y-73921237D02*
X111107009Y-74016475D01*
X111107009Y-74016475D02*
X111154628Y-74064094D01*
X111154628Y-74064094D02*
X111249866Y-74111713D01*
X111249866Y-74111713D02*
X111440342Y-74111713D01*
X111440342Y-74111713D02*
X111535580Y-74064094D01*
X111535580Y-74064094D02*
X111583200Y-74016475D01*
X111583200Y-74016475D02*
X111630819Y-73921237D01*
X111630819Y-73921237D02*
X111630819Y-73730761D01*
X111630819Y-73730761D02*
X111583200Y-73635523D01*
X111583200Y-73635523D02*
X111535580Y-73587904D01*
X111535580Y-73587904D02*
X111440342Y-73540285D01*
X111440342Y-73540285D02*
X111249866Y-73540285D01*
X111249866Y-73540285D02*
X111154628Y-73587904D01*
X111154628Y-73587904D02*
X111107009Y-73635523D01*
X111107009Y-73635523D02*
X111059390Y-73730761D01*
X89185580Y-109894666D02*
X89233200Y-109942285D01*
X89233200Y-109942285D02*
X89280819Y-110085142D01*
X89280819Y-110085142D02*
X89280819Y-110180380D01*
X89280819Y-110180380D02*
X89233200Y-110323237D01*
X89233200Y-110323237D02*
X89137961Y-110418475D01*
X89137961Y-110418475D02*
X89042723Y-110466094D01*
X89042723Y-110466094D02*
X88852247Y-110513713D01*
X88852247Y-110513713D02*
X88709390Y-110513713D01*
X88709390Y-110513713D02*
X88518914Y-110466094D01*
X88518914Y-110466094D02*
X88423676Y-110418475D01*
X88423676Y-110418475D02*
X88328438Y-110323237D01*
X88328438Y-110323237D02*
X88280819Y-110180380D01*
X88280819Y-110180380D02*
X88280819Y-110085142D01*
X88280819Y-110085142D02*
X88328438Y-109942285D01*
X88328438Y-109942285D02*
X88376057Y-109894666D01*
X88280819Y-108989904D02*
X88280819Y-109466094D01*
X88280819Y-109466094D02*
X88757009Y-109513713D01*
X88757009Y-109513713D02*
X88709390Y-109466094D01*
X88709390Y-109466094D02*
X88661771Y-109370856D01*
X88661771Y-109370856D02*
X88661771Y-109132761D01*
X88661771Y-109132761D02*
X88709390Y-109037523D01*
X88709390Y-109037523D02*
X88757009Y-108989904D01*
X88757009Y-108989904D02*
X88852247Y-108942285D01*
X88852247Y-108942285D02*
X89090342Y-108942285D01*
X89090342Y-108942285D02*
X89185580Y-108989904D01*
X89185580Y-108989904D02*
X89233200Y-109037523D01*
X89233200Y-109037523D02*
X89280819Y-109132761D01*
X89280819Y-109132761D02*
X89280819Y-109370856D01*
X89280819Y-109370856D02*
X89233200Y-109466094D01*
X89233200Y-109466094D02*
X89185580Y-109513713D01*
D10*
X101841080Y-93556094D02*
X101841080Y-93979428D01*
X102506318Y-93979428D02*
X101236318Y-93979428D01*
X101236318Y-93979428D02*
X101236318Y-93374666D01*
X102506318Y-92346571D02*
X101841080Y-92346571D01*
X101841080Y-92346571D02*
X101720127Y-92407047D01*
X101720127Y-92407047D02*
X101659651Y-92527999D01*
X101659651Y-92527999D02*
X101659651Y-92769904D01*
X101659651Y-92769904D02*
X101720127Y-92890857D01*
X102445842Y-92346571D02*
X102506318Y-92467523D01*
X102506318Y-92467523D02*
X102506318Y-92769904D01*
X102506318Y-92769904D02*
X102445842Y-92890857D01*
X102445842Y-92890857D02*
X102324889Y-92951333D01*
X102324889Y-92951333D02*
X102203937Y-92951333D01*
X102203937Y-92951333D02*
X102082984Y-92890857D01*
X102082984Y-92890857D02*
X102022508Y-92769904D01*
X102022508Y-92769904D02*
X102022508Y-92467523D01*
X102022508Y-92467523D02*
X101962032Y-92346571D01*
X101659651Y-91197523D02*
X102506318Y-91197523D01*
X101659651Y-91741809D02*
X102324889Y-91741809D01*
X102324889Y-91741809D02*
X102445842Y-91681332D01*
X102445842Y-91681332D02*
X102506318Y-91560380D01*
X102506318Y-91560380D02*
X102506318Y-91378951D01*
X102506318Y-91378951D02*
X102445842Y-91257999D01*
X102445842Y-91257999D02*
X102385365Y-91197523D01*
X102506318Y-90411332D02*
X102445842Y-90532284D01*
X102445842Y-90532284D02*
X102324889Y-90592761D01*
X102324889Y-90592761D02*
X101236318Y-90592761D01*
X101659651Y-90108951D02*
X101659651Y-89625142D01*
X101236318Y-89927523D02*
X102324889Y-89927523D01*
X102324889Y-89927523D02*
X102445842Y-89867046D01*
X102445842Y-89867046D02*
X102506318Y-89746094D01*
X102506318Y-89746094D02*
X102506318Y-89625142D01*
X74387857Y-75736318D02*
X74387857Y-74466318D01*
X74387857Y-74466318D02*
X74811191Y-75373461D01*
X74811191Y-75373461D02*
X75234524Y-74466318D01*
X75234524Y-74466318D02*
X75234524Y-75736318D01*
X76383572Y-75736318D02*
X76383572Y-75071080D01*
X76383572Y-75071080D02*
X76323096Y-74950127D01*
X76323096Y-74950127D02*
X76202144Y-74889651D01*
X76202144Y-74889651D02*
X75960239Y-74889651D01*
X75960239Y-74889651D02*
X75839286Y-74950127D01*
X76383572Y-75675842D02*
X76262620Y-75736318D01*
X76262620Y-75736318D02*
X75960239Y-75736318D01*
X75960239Y-75736318D02*
X75839286Y-75675842D01*
X75839286Y-75675842D02*
X75778810Y-75554889D01*
X75778810Y-75554889D02*
X75778810Y-75433937D01*
X75778810Y-75433937D02*
X75839286Y-75312984D01*
X75839286Y-75312984D02*
X75960239Y-75252508D01*
X75960239Y-75252508D02*
X76262620Y-75252508D01*
X76262620Y-75252508D02*
X76383572Y-75192032D01*
X76927858Y-75675842D02*
X77048811Y-75736318D01*
X77048811Y-75736318D02*
X77290715Y-75736318D01*
X77290715Y-75736318D02*
X77411668Y-75675842D01*
X77411668Y-75675842D02*
X77472144Y-75554889D01*
X77472144Y-75554889D02*
X77472144Y-75494413D01*
X77472144Y-75494413D02*
X77411668Y-75373461D01*
X77411668Y-75373461D02*
X77290715Y-75312984D01*
X77290715Y-75312984D02*
X77109287Y-75312984D01*
X77109287Y-75312984D02*
X76988334Y-75252508D01*
X76988334Y-75252508D02*
X76927858Y-75131556D01*
X76927858Y-75131556D02*
X76927858Y-75071080D01*
X76927858Y-75071080D02*
X76988334Y-74950127D01*
X76988334Y-74950127D02*
X77109287Y-74889651D01*
X77109287Y-74889651D02*
X77290715Y-74889651D01*
X77290715Y-74889651D02*
X77411668Y-74950127D01*
X77835001Y-74889651D02*
X78318810Y-74889651D01*
X78016429Y-74466318D02*
X78016429Y-75554889D01*
X78016429Y-75554889D02*
X78076906Y-75675842D01*
X78076906Y-75675842D02*
X78197858Y-75736318D01*
X78197858Y-75736318D02*
X78318810Y-75736318D01*
X79225953Y-75675842D02*
X79105001Y-75736318D01*
X79105001Y-75736318D02*
X78863096Y-75736318D01*
X78863096Y-75736318D02*
X78742143Y-75675842D01*
X78742143Y-75675842D02*
X78681667Y-75554889D01*
X78681667Y-75554889D02*
X78681667Y-75071080D01*
X78681667Y-75071080D02*
X78742143Y-74950127D01*
X78742143Y-74950127D02*
X78863096Y-74889651D01*
X78863096Y-74889651D02*
X79105001Y-74889651D01*
X79105001Y-74889651D02*
X79225953Y-74950127D01*
X79225953Y-74950127D02*
X79286429Y-75071080D01*
X79286429Y-75071080D02*
X79286429Y-75192032D01*
X79286429Y-75192032D02*
X78681667Y-75312984D01*
X79830714Y-75736318D02*
X79830714Y-74889651D01*
X79830714Y-75131556D02*
X79891191Y-75010603D01*
X79891191Y-75010603D02*
X79951667Y-74950127D01*
X79951667Y-74950127D02*
X80072619Y-74889651D01*
X80072619Y-74889651D02*
X80193572Y-74889651D01*
X91542809Y-143449318D02*
X91542809Y-142179318D01*
X91542809Y-142784080D02*
X92268524Y-142784080D01*
X92268524Y-143449318D02*
X92268524Y-142179318D01*
X93357095Y-143388842D02*
X93236143Y-143449318D01*
X93236143Y-143449318D02*
X92994238Y-143449318D01*
X92994238Y-143449318D02*
X92873285Y-143388842D01*
X92873285Y-143388842D02*
X92812809Y-143267889D01*
X92812809Y-143267889D02*
X92812809Y-142784080D01*
X92812809Y-142784080D02*
X92873285Y-142663127D01*
X92873285Y-142663127D02*
X92994238Y-142602651D01*
X92994238Y-142602651D02*
X93236143Y-142602651D01*
X93236143Y-142602651D02*
X93357095Y-142663127D01*
X93357095Y-142663127D02*
X93417571Y-142784080D01*
X93417571Y-142784080D02*
X93417571Y-142905032D01*
X93417571Y-142905032D02*
X92812809Y-143025984D01*
X94506142Y-143449318D02*
X94506142Y-142784080D01*
X94506142Y-142784080D02*
X94445666Y-142663127D01*
X94445666Y-142663127D02*
X94324714Y-142602651D01*
X94324714Y-142602651D02*
X94082809Y-142602651D01*
X94082809Y-142602651D02*
X93961856Y-142663127D01*
X94506142Y-143388842D02*
X94385190Y-143449318D01*
X94385190Y-143449318D02*
X94082809Y-143449318D01*
X94082809Y-143449318D02*
X93961856Y-143388842D01*
X93961856Y-143388842D02*
X93901380Y-143267889D01*
X93901380Y-143267889D02*
X93901380Y-143146937D01*
X93901380Y-143146937D02*
X93961856Y-143025984D01*
X93961856Y-143025984D02*
X94082809Y-142965508D01*
X94082809Y-142965508D02*
X94385190Y-142965508D01*
X94385190Y-142965508D02*
X94506142Y-142905032D01*
X94989952Y-142602651D02*
X95292333Y-143449318D01*
X95292333Y-143449318D02*
X95594714Y-142602651D01*
X95957571Y-142602651D02*
X96259952Y-143449318D01*
X96562333Y-142602651D02*
X96259952Y-143449318D01*
X96259952Y-143449318D02*
X96139000Y-143751699D01*
X96139000Y-143751699D02*
X96078523Y-143812175D01*
X96078523Y-143812175D02*
X95957571Y-143872651D01*
X98437095Y-142784080D02*
X98618523Y-142844556D01*
X98618523Y-142844556D02*
X98679000Y-142905032D01*
X98679000Y-142905032D02*
X98739476Y-143025984D01*
X98739476Y-143025984D02*
X98739476Y-143207413D01*
X98739476Y-143207413D02*
X98679000Y-143328365D01*
X98679000Y-143328365D02*
X98618523Y-143388842D01*
X98618523Y-143388842D02*
X98497571Y-143449318D01*
X98497571Y-143449318D02*
X98013761Y-143449318D01*
X98013761Y-143449318D02*
X98013761Y-142179318D01*
X98013761Y-142179318D02*
X98437095Y-142179318D01*
X98437095Y-142179318D02*
X98558047Y-142239794D01*
X98558047Y-142239794D02*
X98618523Y-142300270D01*
X98618523Y-142300270D02*
X98679000Y-142421222D01*
X98679000Y-142421222D02*
X98679000Y-142542175D01*
X98679000Y-142542175D02*
X98618523Y-142663127D01*
X98618523Y-142663127D02*
X98558047Y-142723603D01*
X98558047Y-142723603D02*
X98437095Y-142784080D01*
X98437095Y-142784080D02*
X98013761Y-142784080D01*
X99283761Y-143449318D02*
X99283761Y-142602651D01*
X99283761Y-142844556D02*
X99344238Y-142723603D01*
X99344238Y-142723603D02*
X99404714Y-142663127D01*
X99404714Y-142663127D02*
X99525666Y-142602651D01*
X99525666Y-142602651D02*
X99646619Y-142602651D01*
X100614237Y-143449318D02*
X100614237Y-142784080D01*
X100614237Y-142784080D02*
X100553761Y-142663127D01*
X100553761Y-142663127D02*
X100432809Y-142602651D01*
X100432809Y-142602651D02*
X100190904Y-142602651D01*
X100190904Y-142602651D02*
X100069951Y-142663127D01*
X100614237Y-143388842D02*
X100493285Y-143449318D01*
X100493285Y-143449318D02*
X100190904Y-143449318D01*
X100190904Y-143449318D02*
X100069951Y-143388842D01*
X100069951Y-143388842D02*
X100009475Y-143267889D01*
X100009475Y-143267889D02*
X100009475Y-143146937D01*
X100009475Y-143146937D02*
X100069951Y-143025984D01*
X100069951Y-143025984D02*
X100190904Y-142965508D01*
X100190904Y-142965508D02*
X100493285Y-142965508D01*
X100493285Y-142965508D02*
X100614237Y-142905032D01*
X101218999Y-143449318D02*
X101218999Y-142179318D01*
X101339952Y-142965508D02*
X101702809Y-143449318D01*
X101702809Y-142602651D02*
X101218999Y-143086461D01*
X102247094Y-143449318D02*
X102247094Y-142602651D01*
X102247094Y-142179318D02*
X102186618Y-142239794D01*
X102186618Y-142239794D02*
X102247094Y-142300270D01*
X102247094Y-142300270D02*
X102307571Y-142239794D01*
X102307571Y-142239794D02*
X102247094Y-142179318D01*
X102247094Y-142179318D02*
X102247094Y-142300270D01*
X102851856Y-142602651D02*
X102851856Y-143449318D01*
X102851856Y-142723603D02*
X102912333Y-142663127D01*
X102912333Y-142663127D02*
X103033285Y-142602651D01*
X103033285Y-142602651D02*
X103214714Y-142602651D01*
X103214714Y-142602651D02*
X103335666Y-142663127D01*
X103335666Y-142663127D02*
X103396142Y-142784080D01*
X103396142Y-142784080D02*
X103396142Y-143449318D01*
X104545190Y-142602651D02*
X104545190Y-143630746D01*
X104545190Y-143630746D02*
X104484714Y-143751699D01*
X104484714Y-143751699D02*
X104424238Y-143812175D01*
X104424238Y-143812175D02*
X104303285Y-143872651D01*
X104303285Y-143872651D02*
X104121857Y-143872651D01*
X104121857Y-143872651D02*
X104000904Y-143812175D01*
X104545190Y-143388842D02*
X104424238Y-143449318D01*
X104424238Y-143449318D02*
X104182333Y-143449318D01*
X104182333Y-143449318D02*
X104061381Y-143388842D01*
X104061381Y-143388842D02*
X104000904Y-143328365D01*
X104000904Y-143328365D02*
X103940428Y-143207413D01*
X103940428Y-143207413D02*
X103940428Y-142844556D01*
X103940428Y-142844556D02*
X104000904Y-142723603D01*
X104000904Y-142723603D02*
X104061381Y-142663127D01*
X104061381Y-142663127D02*
X104182333Y-142602651D01*
X104182333Y-142602651D02*
X104424238Y-142602651D01*
X104424238Y-142602651D02*
X104545190Y-142663127D01*
X93194618Y-87387318D02*
X93194618Y-86117318D01*
X93194618Y-86117318D02*
X93496999Y-86117318D01*
X93496999Y-86117318D02*
X93678428Y-86177794D01*
X93678428Y-86177794D02*
X93799380Y-86298746D01*
X93799380Y-86298746D02*
X93859857Y-86419699D01*
X93859857Y-86419699D02*
X93920333Y-86661603D01*
X93920333Y-86661603D02*
X93920333Y-86843032D01*
X93920333Y-86843032D02*
X93859857Y-87084937D01*
X93859857Y-87084937D02*
X93799380Y-87205889D01*
X93799380Y-87205889D02*
X93678428Y-87326842D01*
X93678428Y-87326842D02*
X93496999Y-87387318D01*
X93496999Y-87387318D02*
X93194618Y-87387318D01*
X94343666Y-86117318D02*
X95190333Y-86117318D01*
X95190333Y-86117318D02*
X94646047Y-87387318D01*
D11*
X104913580Y-111256666D02*
X104961200Y-111304285D01*
X104961200Y-111304285D02*
X105008819Y-111447142D01*
X105008819Y-111447142D02*
X105008819Y-111542380D01*
X105008819Y-111542380D02*
X104961200Y-111685237D01*
X104961200Y-111685237D02*
X104865961Y-111780475D01*
X104865961Y-111780475D02*
X104770723Y-111828094D01*
X104770723Y-111828094D02*
X104580247Y-111875713D01*
X104580247Y-111875713D02*
X104437390Y-111875713D01*
X104437390Y-111875713D02*
X104246914Y-111828094D01*
X104246914Y-111828094D02*
X104151676Y-111780475D01*
X104151676Y-111780475D02*
X104056438Y-111685237D01*
X104056438Y-111685237D02*
X104008819Y-111542380D01*
X104008819Y-111542380D02*
X104008819Y-111447142D01*
X104008819Y-111447142D02*
X104056438Y-111304285D01*
X104056438Y-111304285D02*
X104104057Y-111256666D01*
X104008819Y-110923332D02*
X104008819Y-110304285D01*
X104008819Y-110304285D02*
X104389771Y-110637618D01*
X104389771Y-110637618D02*
X104389771Y-110494761D01*
X104389771Y-110494761D02*
X104437390Y-110399523D01*
X104437390Y-110399523D02*
X104485009Y-110351904D01*
X104485009Y-110351904D02*
X104580247Y-110304285D01*
X104580247Y-110304285D02*
X104818342Y-110304285D01*
X104818342Y-110304285D02*
X104913580Y-110351904D01*
X104913580Y-110351904D02*
X104961200Y-110399523D01*
X104961200Y-110399523D02*
X105008819Y-110494761D01*
X105008819Y-110494761D02*
X105008819Y-110780475D01*
X105008819Y-110780475D02*
X104961200Y-110875713D01*
X104961200Y-110875713D02*
X104913580Y-110923332D01*
X106713580Y-107756666D02*
X106761200Y-107804285D01*
X106761200Y-107804285D02*
X106808819Y-107947142D01*
X106808819Y-107947142D02*
X106808819Y-108042380D01*
X106808819Y-108042380D02*
X106761200Y-108185237D01*
X106761200Y-108185237D02*
X106665961Y-108280475D01*
X106665961Y-108280475D02*
X106570723Y-108328094D01*
X106570723Y-108328094D02*
X106380247Y-108375713D01*
X106380247Y-108375713D02*
X106237390Y-108375713D01*
X106237390Y-108375713D02*
X106046914Y-108328094D01*
X106046914Y-108328094D02*
X105951676Y-108280475D01*
X105951676Y-108280475D02*
X105856438Y-108185237D01*
X105856438Y-108185237D02*
X105808819Y-108042380D01*
X105808819Y-108042380D02*
X105808819Y-107947142D01*
X105808819Y-107947142D02*
X105856438Y-107804285D01*
X105856438Y-107804285D02*
X105904057Y-107756666D01*
X105904057Y-107375713D02*
X105856438Y-107328094D01*
X105856438Y-107328094D02*
X105808819Y-107232856D01*
X105808819Y-107232856D02*
X105808819Y-106994761D01*
X105808819Y-106994761D02*
X105856438Y-106899523D01*
X105856438Y-106899523D02*
X105904057Y-106851904D01*
X105904057Y-106851904D02*
X105999295Y-106804285D01*
X105999295Y-106804285D02*
X106094533Y-106804285D01*
X106094533Y-106804285D02*
X106237390Y-106851904D01*
X106237390Y-106851904D02*
X106808819Y-107423332D01*
X106808819Y-107423332D02*
X106808819Y-106804285D01*
X109008819Y-111256666D02*
X108532628Y-111589999D01*
X109008819Y-111828094D02*
X108008819Y-111828094D01*
X108008819Y-111828094D02*
X108008819Y-111447142D01*
X108008819Y-111447142D02*
X108056438Y-111351904D01*
X108056438Y-111351904D02*
X108104057Y-111304285D01*
X108104057Y-111304285D02*
X108199295Y-111256666D01*
X108199295Y-111256666D02*
X108342152Y-111256666D01*
X108342152Y-111256666D02*
X108437390Y-111304285D01*
X108437390Y-111304285D02*
X108485009Y-111351904D01*
X108485009Y-111351904D02*
X108532628Y-111447142D01*
X108532628Y-111447142D02*
X108532628Y-111828094D01*
X108008819Y-110923332D02*
X108008819Y-110304285D01*
X108008819Y-110304285D02*
X108389771Y-110637618D01*
X108389771Y-110637618D02*
X108389771Y-110494761D01*
X108389771Y-110494761D02*
X108437390Y-110399523D01*
X108437390Y-110399523D02*
X108485009Y-110351904D01*
X108485009Y-110351904D02*
X108580247Y-110304285D01*
X108580247Y-110304285D02*
X108818342Y-110304285D01*
X108818342Y-110304285D02*
X108913580Y-110351904D01*
X108913580Y-110351904D02*
X108961200Y-110399523D01*
X108961200Y-110399523D02*
X109008819Y-110494761D01*
X109008819Y-110494761D02*
X109008819Y-110780475D01*
X109008819Y-110780475D02*
X108961200Y-110875713D01*
X108961200Y-110875713D02*
X108913580Y-110923332D01*
X103208819Y-107856666D02*
X102732628Y-108189999D01*
X103208819Y-108428094D02*
X102208819Y-108428094D01*
X102208819Y-108428094D02*
X102208819Y-108047142D01*
X102208819Y-108047142D02*
X102256438Y-107951904D01*
X102256438Y-107951904D02*
X102304057Y-107904285D01*
X102304057Y-107904285D02*
X102399295Y-107856666D01*
X102399295Y-107856666D02*
X102542152Y-107856666D01*
X102542152Y-107856666D02*
X102637390Y-107904285D01*
X102637390Y-107904285D02*
X102685009Y-107951904D01*
X102685009Y-107951904D02*
X102732628Y-108047142D01*
X102732628Y-108047142D02*
X102732628Y-108428094D01*
X102208819Y-106999523D02*
X102208819Y-107189999D01*
X102208819Y-107189999D02*
X102256438Y-107285237D01*
X102256438Y-107285237D02*
X102304057Y-107332856D01*
X102304057Y-107332856D02*
X102446914Y-107428094D01*
X102446914Y-107428094D02*
X102637390Y-107475713D01*
X102637390Y-107475713D02*
X103018342Y-107475713D01*
X103018342Y-107475713D02*
X103113580Y-107428094D01*
X103113580Y-107428094D02*
X103161200Y-107380475D01*
X103161200Y-107380475D02*
X103208819Y-107285237D01*
X103208819Y-107285237D02*
X103208819Y-107094761D01*
X103208819Y-107094761D02*
X103161200Y-106999523D01*
X103161200Y-106999523D02*
X103113580Y-106951904D01*
X103113580Y-106951904D02*
X103018342Y-106904285D01*
X103018342Y-106904285D02*
X102780247Y-106904285D01*
X102780247Y-106904285D02*
X102685009Y-106951904D01*
X102685009Y-106951904D02*
X102637390Y-106999523D01*
X102637390Y-106999523D02*
X102589771Y-107094761D01*
X102589771Y-107094761D02*
X102589771Y-107285237D01*
X102589771Y-107285237D02*
X102637390Y-107380475D01*
X102637390Y-107380475D02*
X102685009Y-107428094D01*
X102685009Y-107428094D02*
X102780247Y-107475713D01*
D10*
X65725318Y-125397381D02*
X64455318Y-125397381D01*
X65060080Y-125397381D02*
X65060080Y-124671666D01*
X65725318Y-124671666D02*
X64455318Y-124671666D01*
X65060080Y-123643571D02*
X65120556Y-123462143D01*
X65120556Y-123462143D02*
X65181032Y-123401666D01*
X65181032Y-123401666D02*
X65301984Y-123341190D01*
X65301984Y-123341190D02*
X65483413Y-123341190D01*
X65483413Y-123341190D02*
X65604365Y-123401666D01*
X65604365Y-123401666D02*
X65664842Y-123462143D01*
X65664842Y-123462143D02*
X65725318Y-123583095D01*
X65725318Y-123583095D02*
X65725318Y-124066905D01*
X65725318Y-124066905D02*
X64455318Y-124066905D01*
X64455318Y-124066905D02*
X64455318Y-123643571D01*
X64455318Y-123643571D02*
X64515794Y-123522619D01*
X64515794Y-123522619D02*
X64576270Y-123462143D01*
X64576270Y-123462143D02*
X64697222Y-123401666D01*
X64697222Y-123401666D02*
X64818175Y-123401666D01*
X64818175Y-123401666D02*
X64939127Y-123462143D01*
X64939127Y-123462143D02*
X64999603Y-123522619D01*
X64999603Y-123522619D02*
X65060080Y-123643571D01*
X65060080Y-123643571D02*
X65060080Y-124066905D01*
X65846270Y-123099286D02*
X65846270Y-122131666D01*
X64455318Y-121587381D02*
X64455318Y-121466428D01*
X64455318Y-121466428D02*
X64515794Y-121345476D01*
X64515794Y-121345476D02*
X64576270Y-121285000D01*
X64576270Y-121285000D02*
X64697222Y-121224524D01*
X64697222Y-121224524D02*
X64939127Y-121164047D01*
X64939127Y-121164047D02*
X65241508Y-121164047D01*
X65241508Y-121164047D02*
X65483413Y-121224524D01*
X65483413Y-121224524D02*
X65604365Y-121285000D01*
X65604365Y-121285000D02*
X65664842Y-121345476D01*
X65664842Y-121345476D02*
X65725318Y-121466428D01*
X65725318Y-121466428D02*
X65725318Y-121587381D01*
X65725318Y-121587381D02*
X65664842Y-121708333D01*
X65664842Y-121708333D02*
X65604365Y-121768809D01*
X65604365Y-121768809D02*
X65483413Y-121829286D01*
X65483413Y-121829286D02*
X65241508Y-121889762D01*
X65241508Y-121889762D02*
X64939127Y-121889762D01*
X64939127Y-121889762D02*
X64697222Y-121829286D01*
X64697222Y-121829286D02*
X64576270Y-121768809D01*
X64576270Y-121768809D02*
X64515794Y-121708333D01*
X64515794Y-121708333D02*
X64455318Y-121587381D01*
X65604365Y-120619762D02*
X65664842Y-120559285D01*
X65664842Y-120559285D02*
X65725318Y-120619762D01*
X65725318Y-120619762D02*
X65664842Y-120680238D01*
X65664842Y-120680238D02*
X65604365Y-120619762D01*
X65604365Y-120619762D02*
X65725318Y-120619762D01*
X64576270Y-120075476D02*
X64515794Y-120015000D01*
X64515794Y-120015000D02*
X64455318Y-119894047D01*
X64455318Y-119894047D02*
X64455318Y-119591666D01*
X64455318Y-119591666D02*
X64515794Y-119470714D01*
X64515794Y-119470714D02*
X64576270Y-119410238D01*
X64576270Y-119410238D02*
X64697222Y-119349761D01*
X64697222Y-119349761D02*
X64818175Y-119349761D01*
X64818175Y-119349761D02*
X64999603Y-119410238D01*
X64999603Y-119410238D02*
X65725318Y-120135952D01*
X65725318Y-120135952D02*
X65725318Y-119349761D01*
X64455318Y-118200714D02*
X64455318Y-118805476D01*
X64455318Y-118805476D02*
X65060080Y-118865952D01*
X65060080Y-118865952D02*
X64999603Y-118805476D01*
X64999603Y-118805476D02*
X64939127Y-118684523D01*
X64939127Y-118684523D02*
X64939127Y-118382142D01*
X64939127Y-118382142D02*
X64999603Y-118261190D01*
X64999603Y-118261190D02*
X65060080Y-118200714D01*
X65060080Y-118200714D02*
X65181032Y-118140237D01*
X65181032Y-118140237D02*
X65483413Y-118140237D01*
X65483413Y-118140237D02*
X65604365Y-118200714D01*
X65604365Y-118200714D02*
X65664842Y-118261190D01*
X65664842Y-118261190D02*
X65725318Y-118382142D01*
X65725318Y-118382142D02*
X65725318Y-118684523D01*
X65725318Y-118684523D02*
X65664842Y-118805476D01*
X65664842Y-118805476D02*
X65604365Y-118865952D01*
X65664842Y-117656428D02*
X65725318Y-117535475D01*
X65725318Y-117535475D02*
X65725318Y-117293571D01*
X65725318Y-117293571D02*
X65664842Y-117172618D01*
X65664842Y-117172618D02*
X65543889Y-117112142D01*
X65543889Y-117112142D02*
X65483413Y-117112142D01*
X65483413Y-117112142D02*
X65362461Y-117172618D01*
X65362461Y-117172618D02*
X65301984Y-117293571D01*
X65301984Y-117293571D02*
X65301984Y-117474999D01*
X65301984Y-117474999D02*
X65241508Y-117595952D01*
X65241508Y-117595952D02*
X65120556Y-117656428D01*
X65120556Y-117656428D02*
X65060080Y-117656428D01*
X65060080Y-117656428D02*
X64939127Y-117595952D01*
X64939127Y-117595952D02*
X64878651Y-117474999D01*
X64878651Y-117474999D02*
X64878651Y-117293571D01*
X64878651Y-117293571D02*
X64939127Y-117172618D01*
D11*
X106205333Y-88140580D02*
X106157714Y-88188200D01*
X106157714Y-88188200D02*
X106014857Y-88235819D01*
X106014857Y-88235819D02*
X105919619Y-88235819D01*
X105919619Y-88235819D02*
X105776762Y-88188200D01*
X105776762Y-88188200D02*
X105681524Y-88092961D01*
X105681524Y-88092961D02*
X105633905Y-87997723D01*
X105633905Y-87997723D02*
X105586286Y-87807247D01*
X105586286Y-87807247D02*
X105586286Y-87664390D01*
X105586286Y-87664390D02*
X105633905Y-87473914D01*
X105633905Y-87473914D02*
X105681524Y-87378676D01*
X105681524Y-87378676D02*
X105776762Y-87283438D01*
X105776762Y-87283438D02*
X105919619Y-87235819D01*
X105919619Y-87235819D02*
X106014857Y-87235819D01*
X106014857Y-87235819D02*
X106157714Y-87283438D01*
X106157714Y-87283438D02*
X106205333Y-87331057D01*
X106538667Y-87235819D02*
X107205333Y-87235819D01*
X107205333Y-87235819D02*
X106776762Y-88235819D01*
D10*
X82111819Y-90808080D02*
X82293247Y-90868556D01*
X82293247Y-90868556D02*
X82353724Y-90929032D01*
X82353724Y-90929032D02*
X82414200Y-91049984D01*
X82414200Y-91049984D02*
X82414200Y-91231413D01*
X82414200Y-91231413D02*
X82353724Y-91352365D01*
X82353724Y-91352365D02*
X82293247Y-91412842D01*
X82293247Y-91412842D02*
X82172295Y-91473318D01*
X82172295Y-91473318D02*
X81688485Y-91473318D01*
X81688485Y-91473318D02*
X81688485Y-90203318D01*
X81688485Y-90203318D02*
X82111819Y-90203318D01*
X82111819Y-90203318D02*
X82232771Y-90263794D01*
X82232771Y-90263794D02*
X82293247Y-90324270D01*
X82293247Y-90324270D02*
X82353724Y-90445222D01*
X82353724Y-90445222D02*
X82353724Y-90566175D01*
X82353724Y-90566175D02*
X82293247Y-90687127D01*
X82293247Y-90687127D02*
X82232771Y-90747603D01*
X82232771Y-90747603D02*
X82111819Y-90808080D01*
X82111819Y-90808080D02*
X81688485Y-90808080D01*
X82898009Y-91412842D02*
X83079438Y-91473318D01*
X83079438Y-91473318D02*
X83381819Y-91473318D01*
X83381819Y-91473318D02*
X83502771Y-91412842D01*
X83502771Y-91412842D02*
X83563247Y-91352365D01*
X83563247Y-91352365D02*
X83623724Y-91231413D01*
X83623724Y-91231413D02*
X83623724Y-91110461D01*
X83623724Y-91110461D02*
X83563247Y-90989508D01*
X83563247Y-90989508D02*
X83502771Y-90929032D01*
X83502771Y-90929032D02*
X83381819Y-90868556D01*
X83381819Y-90868556D02*
X83139914Y-90808080D01*
X83139914Y-90808080D02*
X83018962Y-90747603D01*
X83018962Y-90747603D02*
X82958485Y-90687127D01*
X82958485Y-90687127D02*
X82898009Y-90566175D01*
X82898009Y-90566175D02*
X82898009Y-90445222D01*
X82898009Y-90445222D02*
X82958485Y-90324270D01*
X82958485Y-90324270D02*
X83018962Y-90263794D01*
X83018962Y-90263794D02*
X83139914Y-90203318D01*
X83139914Y-90203318D02*
X83442295Y-90203318D01*
X83442295Y-90203318D02*
X83623724Y-90263794D01*
X84168009Y-90808080D02*
X84591343Y-90808080D01*
X84772771Y-91473318D02*
X84168009Y-91473318D01*
X84168009Y-91473318D02*
X84168009Y-90203318D01*
X84168009Y-90203318D02*
X84772771Y-90203318D01*
D11*
X100552142Y-97395819D02*
X100218809Y-96919628D01*
X99980714Y-97395819D02*
X99980714Y-96395819D01*
X99980714Y-96395819D02*
X100361666Y-96395819D01*
X100361666Y-96395819D02*
X100456904Y-96443438D01*
X100456904Y-96443438D02*
X100504523Y-96491057D01*
X100504523Y-96491057D02*
X100552142Y-96586295D01*
X100552142Y-96586295D02*
X100552142Y-96729152D01*
X100552142Y-96729152D02*
X100504523Y-96824390D01*
X100504523Y-96824390D02*
X100456904Y-96872009D01*
X100456904Y-96872009D02*
X100361666Y-96919628D01*
X100361666Y-96919628D02*
X99980714Y-96919628D01*
X100933095Y-96491057D02*
X100980714Y-96443438D01*
X100980714Y-96443438D02*
X101075952Y-96395819D01*
X101075952Y-96395819D02*
X101314047Y-96395819D01*
X101314047Y-96395819D02*
X101409285Y-96443438D01*
X101409285Y-96443438D02*
X101456904Y-96491057D01*
X101456904Y-96491057D02*
X101504523Y-96586295D01*
X101504523Y-96586295D02*
X101504523Y-96681533D01*
X101504523Y-96681533D02*
X101456904Y-96824390D01*
X101456904Y-96824390D02*
X100885476Y-97395819D01*
X100885476Y-97395819D02*
X101504523Y-97395819D01*
X102456904Y-97395819D02*
X101885476Y-97395819D01*
X102171190Y-97395819D02*
X102171190Y-96395819D01*
X102171190Y-96395819D02*
X102075952Y-96538676D01*
X102075952Y-96538676D02*
X101980714Y-96633914D01*
X101980714Y-96633914D02*
X101885476Y-96681533D01*
X78324819Y-86566666D02*
X77848628Y-86899999D01*
X78324819Y-87138094D02*
X77324819Y-87138094D01*
X77324819Y-87138094D02*
X77324819Y-86757142D01*
X77324819Y-86757142D02*
X77372438Y-86661904D01*
X77372438Y-86661904D02*
X77420057Y-86614285D01*
X77420057Y-86614285D02*
X77515295Y-86566666D01*
X77515295Y-86566666D02*
X77658152Y-86566666D01*
X77658152Y-86566666D02*
X77753390Y-86614285D01*
X77753390Y-86614285D02*
X77801009Y-86661904D01*
X77801009Y-86661904D02*
X77848628Y-86757142D01*
X77848628Y-86757142D02*
X77848628Y-87138094D01*
X77324819Y-86233332D02*
X77324819Y-85566666D01*
X77324819Y-85566666D02*
X78324819Y-85995237D01*
D10*
X98484237Y-118464318D02*
X98484237Y-117194318D01*
X99814714Y-118343365D02*
X99754238Y-118403842D01*
X99754238Y-118403842D02*
X99572809Y-118464318D01*
X99572809Y-118464318D02*
X99451857Y-118464318D01*
X99451857Y-118464318D02*
X99270428Y-118403842D01*
X99270428Y-118403842D02*
X99149476Y-118282889D01*
X99149476Y-118282889D02*
X99088999Y-118161937D01*
X99088999Y-118161937D02*
X99028523Y-117920032D01*
X99028523Y-117920032D02*
X99028523Y-117738603D01*
X99028523Y-117738603D02*
X99088999Y-117496699D01*
X99088999Y-117496699D02*
X99149476Y-117375746D01*
X99149476Y-117375746D02*
X99270428Y-117254794D01*
X99270428Y-117254794D02*
X99451857Y-117194318D01*
X99451857Y-117194318D02*
X99572809Y-117194318D01*
X99572809Y-117194318D02*
X99754238Y-117254794D01*
X99754238Y-117254794D02*
X99814714Y-117315270D01*
X100238047Y-117194318D02*
X101024238Y-117194318D01*
X101024238Y-117194318D02*
X100600904Y-117678127D01*
X100600904Y-117678127D02*
X100782333Y-117678127D01*
X100782333Y-117678127D02*
X100903285Y-117738603D01*
X100903285Y-117738603D02*
X100963761Y-117799080D01*
X100963761Y-117799080D02*
X101024238Y-117920032D01*
X101024238Y-117920032D02*
X101024238Y-118222413D01*
X101024238Y-118222413D02*
X100963761Y-118343365D01*
X100963761Y-118343365D02*
X100903285Y-118403842D01*
X100903285Y-118403842D02*
X100782333Y-118464318D01*
X100782333Y-118464318D02*
X100419476Y-118464318D01*
X100419476Y-118464318D02*
X100298523Y-118403842D01*
X100298523Y-118403842D02*
X100238047Y-118343365D01*
X94237318Y-117293762D02*
X92967318Y-117293762D01*
X94116365Y-115963285D02*
X94176842Y-116023761D01*
X94176842Y-116023761D02*
X94237318Y-116205190D01*
X94237318Y-116205190D02*
X94237318Y-116326142D01*
X94237318Y-116326142D02*
X94176842Y-116507571D01*
X94176842Y-116507571D02*
X94055889Y-116628523D01*
X94055889Y-116628523D02*
X93934937Y-116689000D01*
X93934937Y-116689000D02*
X93693032Y-116749476D01*
X93693032Y-116749476D02*
X93511603Y-116749476D01*
X93511603Y-116749476D02*
X93269699Y-116689000D01*
X93269699Y-116689000D02*
X93148746Y-116628523D01*
X93148746Y-116628523D02*
X93027794Y-116507571D01*
X93027794Y-116507571D02*
X92967318Y-116326142D01*
X92967318Y-116326142D02*
X92967318Y-116205190D01*
X92967318Y-116205190D02*
X93027794Y-116023761D01*
X93027794Y-116023761D02*
X93088270Y-115963285D01*
X93088270Y-115479476D02*
X93027794Y-115419000D01*
X93027794Y-115419000D02*
X92967318Y-115298047D01*
X92967318Y-115298047D02*
X92967318Y-114995666D01*
X92967318Y-114995666D02*
X93027794Y-114874714D01*
X93027794Y-114874714D02*
X93088270Y-114814238D01*
X93088270Y-114814238D02*
X93209222Y-114753761D01*
X93209222Y-114753761D02*
X93330175Y-114753761D01*
X93330175Y-114753761D02*
X93511603Y-114814238D01*
X93511603Y-114814238D02*
X94237318Y-115539952D01*
X94237318Y-115539952D02*
X94237318Y-114753761D01*
D11*
X65933333Y-80024819D02*
X65600000Y-79548628D01*
X65361905Y-80024819D02*
X65361905Y-79024819D01*
X65361905Y-79024819D02*
X65742857Y-79024819D01*
X65742857Y-79024819D02*
X65838095Y-79072438D01*
X65838095Y-79072438D02*
X65885714Y-79120057D01*
X65885714Y-79120057D02*
X65933333Y-79215295D01*
X65933333Y-79215295D02*
X65933333Y-79358152D01*
X65933333Y-79358152D02*
X65885714Y-79453390D01*
X65885714Y-79453390D02*
X65838095Y-79501009D01*
X65838095Y-79501009D02*
X65742857Y-79548628D01*
X65742857Y-79548628D02*
X65361905Y-79548628D01*
X66409524Y-80024819D02*
X66600000Y-80024819D01*
X66600000Y-80024819D02*
X66695238Y-79977200D01*
X66695238Y-79977200D02*
X66742857Y-79929580D01*
X66742857Y-79929580D02*
X66838095Y-79786723D01*
X66838095Y-79786723D02*
X66885714Y-79596247D01*
X66885714Y-79596247D02*
X66885714Y-79215295D01*
X66885714Y-79215295D02*
X66838095Y-79120057D01*
X66838095Y-79120057D02*
X66790476Y-79072438D01*
X66790476Y-79072438D02*
X66695238Y-79024819D01*
X66695238Y-79024819D02*
X66504762Y-79024819D01*
X66504762Y-79024819D02*
X66409524Y-79072438D01*
X66409524Y-79072438D02*
X66361905Y-79120057D01*
X66361905Y-79120057D02*
X66314286Y-79215295D01*
X66314286Y-79215295D02*
X66314286Y-79453390D01*
X66314286Y-79453390D02*
X66361905Y-79548628D01*
X66361905Y-79548628D02*
X66409524Y-79596247D01*
X66409524Y-79596247D02*
X66504762Y-79643866D01*
X66504762Y-79643866D02*
X66695238Y-79643866D01*
X66695238Y-79643866D02*
X66790476Y-79596247D01*
X66790476Y-79596247D02*
X66838095Y-79548628D01*
X66838095Y-79548628D02*
X66885714Y-79453390D01*
D12*
%TO.C,Ignition*%
X65250000Y-78325000D02*
X67575000Y-78325000D01*
X67575000Y-76675000D02*
X65250000Y-76675000D01*
X67575000Y-78325000D02*
X67575000Y-76675000D01*
D13*
%TO.C,R20*%
X94232258Y-98593500D02*
X93757742Y-98593500D01*
X94232258Y-97548500D02*
X93757742Y-97548500D01*
D10*
%TO.C,BLACK_TP1*%
X80790000Y-103700000D02*
G75*
G02*
X77610000Y-103700000I-1590000J0D01*
G01*
X77610000Y-103700000D02*
G75*
G02*
X80790000Y-103700000I1590000J0D01*
G01*
D12*
%TO.C,D6*%
X89053000Y-102948000D02*
X87383000Y-102948000D01*
X88583000Y-102148000D02*
X87383000Y-102148000D01*
D13*
%TO.C,R5*%
X99761258Y-112312500D02*
X99286742Y-112312500D01*
X99761258Y-111267500D02*
X99286742Y-111267500D01*
D12*
%TO.C,VR6*%
X75000000Y-136129000D02*
G75*
G02*
X74900000Y-136129000I-50000J0D01*
G01*
X75000000Y-136129000D02*
G75*
G02*
X74900000Y-136129000I-50000J0D01*
G01*
X74900000Y-136129000D02*
G75*
G02*
X75000000Y-136129000I50000J0D01*
G01*
X75000000Y-136129000D02*
X75000000Y-136129000D01*
X74900000Y-136129000D02*
X74900000Y-136129000D01*
X74900000Y-136129000D02*
X74900000Y-136129000D01*
%TO.C,D4*%
X103824000Y-122190000D02*
X103824000Y-120990000D01*
X103024000Y-122660000D02*
X103024000Y-120990000D01*
%TO.C,D5*%
X89053000Y-101148000D02*
X87383000Y-101148000D01*
X88583000Y-100348000D02*
X87383000Y-100348000D01*
%TO.C,Q1*%
X84925000Y-80850000D02*
X84475000Y-80850000D01*
X84925000Y-77950000D02*
X84925000Y-80850000D01*
X84475000Y-80850000D02*
X84475000Y-77950000D01*
X84475000Y-77950000D02*
X84925000Y-77950000D01*
X83075000Y-77900000D02*
X84125000Y-77900000D01*
%TO.C,D3*%
X98365000Y-98571000D02*
X96695000Y-98571000D01*
X97895000Y-97771000D02*
X96695000Y-97771000D01*
%TO.C,BSE_L*%
X73925000Y-128654000D02*
X73925000Y-126329000D01*
X72275000Y-128654000D02*
X73925000Y-128654000D01*
X72275000Y-126329000D02*
X72275000Y-128654000D01*
%TO.C,P_L*%
X87570000Y-128584000D02*
X87570000Y-126259000D01*
X85920000Y-128584000D02*
X87570000Y-128584000D01*
X85920000Y-126259000D02*
X85920000Y-128584000D01*
D13*
%TO.C,R18*%
X105161258Y-119037500D02*
X104686742Y-119037500D01*
X105161258Y-117992500D02*
X104686742Y-117992500D01*
%TO.C,C6*%
X100234000Y-121330580D02*
X100234000Y-121049420D01*
X99214000Y-121330580D02*
X99214000Y-121049420D01*
D12*
%TO.C,IC4*%
X76475000Y-117425000D02*
X75200000Y-117425000D01*
X74850000Y-117400000D02*
X71150000Y-117400000D01*
X74850000Y-112400000D02*
X74850000Y-117400000D01*
X71150000Y-117400000D02*
X71150000Y-112400000D01*
X71150000Y-112400000D02*
X74850000Y-112400000D01*
%TO.C,P_H*%
X116166000Y-128221000D02*
X116166000Y-125896000D01*
X114516000Y-128221000D02*
X116166000Y-128221000D01*
X114516000Y-125896000D02*
X114516000Y-128221000D01*
%TO.C,VR3*%
X117554000Y-136271000D02*
G75*
G02*
X117454000Y-136271000I-50000J0D01*
G01*
X117554000Y-136271000D02*
G75*
G02*
X117454000Y-136271000I-50000J0D01*
G01*
X117454000Y-136271000D02*
G75*
G02*
X117554000Y-136271000I50000J0D01*
G01*
X117554000Y-136271000D02*
X117554000Y-136271000D01*
X117454000Y-136271000D02*
X117454000Y-136271000D01*
X117454000Y-136271000D02*
X117454000Y-136271000D01*
D10*
%TO.C,RED_TP4*%
X99490000Y-127229000D02*
G75*
G02*
X96310000Y-127229000I-1590000J0D01*
G01*
X96310000Y-127229000D02*
G75*
G02*
X99490000Y-127229000I1590000J0D01*
G01*
D12*
%TO.C,J1*%
X77454590Y-92178000D02*
G75*
G02*
X77180230Y-92178000I-137180J0D01*
G01*
X77180230Y-92178000D02*
G75*
G02*
X77454590Y-92178000I137180J0D01*
G01*
%TO.C,IC6*%
X83358000Y-111432000D02*
X82758000Y-111432000D01*
X83358000Y-108532000D02*
X83358000Y-111432000D01*
X82758000Y-111432000D02*
X82758000Y-108532000D01*
X82758000Y-108532000D02*
X83358000Y-108532000D01*
X81208000Y-108482000D02*
X82408000Y-108482000D01*
D13*
%TO.C,C4*%
X68110000Y-113640580D02*
X68110000Y-113359420D01*
X67090000Y-113640580D02*
X67090000Y-113359420D01*
%TO.C,R8*%
X79722500Y-92762742D02*
X79722500Y-93237258D01*
X78677500Y-92762742D02*
X78677500Y-93237258D01*
D10*
%TO.C,WHITE_TP2*%
X85290000Y-86400000D02*
G75*
G02*
X82110000Y-86400000I-1590000J0D01*
G01*
X82110000Y-86400000D02*
G75*
G02*
X85290000Y-86400000I1590000J0D01*
G01*
D12*
%TO.C,D2*%
X98405000Y-100511000D02*
X96735000Y-100511000D01*
X97935000Y-99711000D02*
X96735000Y-99711000D01*
D13*
%TO.C,R19*%
X106246500Y-121652742D02*
X106246500Y-122127258D01*
X105201500Y-121652742D02*
X105201500Y-122127258D01*
%TO.C,R4*%
X108246500Y-114752742D02*
X108246500Y-115227258D01*
X107201500Y-114752742D02*
X107201500Y-115227258D01*
D14*
%TO.C,IC5*%
X107879000Y-80391000D02*
G75*
G02*
X107779000Y-80391000I-50000J0D01*
G01*
X107779000Y-80391000D02*
G75*
G02*
X107879000Y-80391000I50000J0D01*
G01*
X107879000Y-80391000D02*
X107879000Y-80391000D01*
X107779000Y-80391000D02*
X107779000Y-80391000D01*
D12*
X100921000Y-82951000D02*
X100921000Y-72751000D01*
X100921000Y-72751000D02*
X100679000Y-72751000D01*
X100679000Y-82951000D02*
X100921000Y-82951000D01*
D13*
%TO.C,R11*%
X83201742Y-113933500D02*
X83676258Y-113933500D01*
X83201742Y-112888500D02*
X83676258Y-112888500D01*
%TO.C,R23*%
X91055500Y-101310742D02*
X91055500Y-101785258D01*
X90010500Y-101310742D02*
X90010500Y-101785258D01*
D12*
%TO.C,HB*%
X95397500Y-127969000D02*
X95397500Y-125644000D01*
X93747500Y-127969000D02*
X95397500Y-127969000D01*
X93747500Y-125644000D02*
X93747500Y-127969000D01*
%TO.C,VR5*%
X88900000Y-136129000D02*
G75*
G02*
X88800000Y-136129000I-50000J0D01*
G01*
X88900000Y-136129000D02*
G75*
G02*
X88800000Y-136129000I-50000J0D01*
G01*
X88800000Y-136129000D02*
G75*
G02*
X88900000Y-136129000I50000J0D01*
G01*
X88900000Y-136129000D02*
X88900000Y-136129000D01*
X88800000Y-136129000D02*
X88800000Y-136129000D01*
X88800000Y-136129000D02*
X88800000Y-136129000D01*
D10*
%TO.C,RED_TP6*%
X71062500Y-127144000D02*
G75*
G02*
X67882500Y-127144000I-1590000J0D01*
G01*
X67882500Y-127144000D02*
G75*
G02*
X71062500Y-127144000I1590000J0D01*
G01*
D13*
%TO.C,R10*%
X76962742Y-81522500D02*
X77437258Y-81522500D01*
X76962742Y-80477500D02*
X77437258Y-80477500D01*
%TO.C,C8*%
X110256000Y-74185420D02*
X110256000Y-74466580D01*
X109236000Y-74185420D02*
X109236000Y-74466580D01*
%TO.C,C5*%
X87906000Y-109587420D02*
X87906000Y-109868580D01*
X86886000Y-109587420D02*
X86886000Y-109868580D01*
D12*
%TO.C,Fault*%
X100757000Y-92963000D02*
X100757000Y-90638000D01*
X100757000Y-90638000D02*
X99107000Y-90638000D01*
X99107000Y-90638000D02*
X99107000Y-92963000D01*
%TO.C,Master*%
X77950000Y-76264000D02*
X75625000Y-76264000D01*
X75625000Y-77914000D02*
X77950000Y-77914000D01*
X75625000Y-76264000D02*
X75625000Y-77914000D01*
%TO.C,VR4*%
X103427500Y-136214000D02*
G75*
G02*
X103327500Y-136214000I-50000J0D01*
G01*
X103427500Y-136214000D02*
G75*
G02*
X103327500Y-136214000I-50000J0D01*
G01*
X103327500Y-136214000D02*
G75*
G02*
X103427500Y-136214000I50000J0D01*
G01*
X103427500Y-136214000D02*
X103427500Y-136214000D01*
X103327500Y-136214000D02*
X103327500Y-136214000D01*
X103327500Y-136214000D02*
X103327500Y-136214000D01*
%TO.C,D7*%
X95882000Y-94563000D02*
X92382000Y-94563000D01*
X95882000Y-88063000D02*
X95882000Y-94563000D01*
X92382000Y-94563000D02*
X92382000Y-88063000D01*
X92382000Y-88063000D02*
X95882000Y-88063000D01*
X90157000Y-88188000D02*
X91807000Y-88188000D01*
D13*
%TO.C,C3*%
X103634000Y-110949420D02*
X103634000Y-111230580D01*
X102614000Y-110949420D02*
X102614000Y-111230580D01*
%TO.C,C2*%
X105434000Y-107449420D02*
X105434000Y-107730580D01*
X104414000Y-107449420D02*
X104414000Y-107730580D01*
%TO.C,R3*%
X107646500Y-110852742D02*
X107646500Y-111327258D01*
X106601500Y-110852742D02*
X106601500Y-111327258D01*
D10*
%TO.C,RED_TP3*%
X113731000Y-126746000D02*
G75*
G02*
X110551000Y-126746000I-1590000J0D01*
G01*
X110551000Y-126746000D02*
G75*
G02*
X113731000Y-126746000I1590000J0D01*
G01*
D13*
%TO.C,R6*%
X101846500Y-107452742D02*
X101846500Y-107927258D01*
X100801500Y-107452742D02*
X100801500Y-107927258D01*
D12*
%TO.C,HB_0.25s*%
X67881000Y-122762000D02*
X67881000Y-120437000D01*
X66231000Y-122762000D02*
X67881000Y-122762000D01*
X66231000Y-120437000D02*
X66231000Y-122762000D01*
D10*
%TO.C,RED_TP5*%
X84962500Y-127144000D02*
G75*
G02*
X81782500Y-127144000I-1590000J0D01*
G01*
X81782500Y-127144000D02*
G75*
G02*
X84962500Y-127144000I1590000J0D01*
G01*
D13*
%TO.C,C7*%
X106126580Y-86861000D02*
X105845420Y-86861000D01*
X106126580Y-85841000D02*
X105845420Y-85841000D01*
D10*
%TO.C,WHITE_TP1*%
X84775000Y-93599000D02*
G75*
G02*
X81595000Y-93599000I-1590000J0D01*
G01*
X81595000Y-93599000D02*
G75*
G02*
X84775000Y-93599000I1590000J0D01*
G01*
D13*
%TO.C,R21*%
X100957742Y-98893500D02*
X101432258Y-98893500D01*
X100957742Y-97848500D02*
X101432258Y-97848500D01*
%TO.C,R7*%
X79822500Y-86637258D02*
X79822500Y-86162742D01*
X78777500Y-86637258D02*
X78777500Y-86162742D01*
D12*
%TO.C,IC3*%
X99799000Y-116715000D02*
X99449000Y-116715000D01*
X99799000Y-114665000D02*
X99799000Y-116715000D01*
X99449000Y-116715000D02*
X99449000Y-114665000D01*
X99449000Y-114665000D02*
X99799000Y-114665000D01*
X98349000Y-114590000D02*
X99099000Y-114590000D01*
D10*
%TO.C,IC2*%
X92188000Y-114154000D02*
G75*
G02*
X91938000Y-114154000I-125000J0D01*
G01*
X91938000Y-114154000D02*
G75*
G02*
X92188000Y-114154000I125000J0D01*
G01*
D13*
%TO.C,R9*%
X65862742Y-81522500D02*
X66337258Y-81522500D01*
X65862742Y-80477500D02*
X66337258Y-80477500D01*
%TD*%
M02*
