%TF.GenerationSoftware,KiCad,Pcbnew,9.0.8*%
%TF.CreationDate,2026-03-28T18:46:55-07:00*%
%TF.ProjectId,Voltage_Indicator,566f6c74-6167-4655-9f49-6e6469636174,rev?*%
%TF.SameCoordinates,Original*%
%TF.FileFunction,Copper,L2,Bot*%
%TF.FilePolarity,Positive*%
%FSLAX46Y46*%
G04 Gerber Fmt 4.6, Leading zero omitted, Abs format (unit mm)*
G04 Created by KiCad (PCBNEW 9.0.8) date 2026-03-28 18:46:55*
%MOMM*%
%LPD*%
G01*
G04 APERTURE LIST*
%TA.AperFunction,ComponentPad*%
%ADD10C,1.980000*%
%TD*%
%TA.AperFunction,ComponentPad*%
%ADD11C,2.540000*%
%TD*%
%TA.AperFunction,ComponentPad*%
%ADD12R,1.371600X1.371600*%
%TD*%
%TA.AperFunction,ComponentPad*%
%ADD13C,1.371600*%
%TD*%
%TA.AperFunction,ViaPad*%
%ADD14C,0.600000*%
%TD*%
%TA.AperFunction,Conductor*%
%ADD15C,0.200000*%
%TD*%
G04 APERTURE END LIST*
D10*
%TO.P,J1,P01_1,P01*%
%TO.N,/HV-*%
X139573000Y-104267000D03*
%TO.P,J1,P01_2*%
%TO.N,N/C*%
X142113000Y-104267000D03*
%TO.P,J1,P01_3*%
X144653000Y-104267000D03*
%TO.P,J1,P01_4*%
X147193000Y-104267000D03*
%TO.P,J1,P01_5*%
X139573000Y-101727000D03*
%TO.P,J1,P01_6*%
X142113000Y-101727000D03*
%TO.P,J1,P01_7*%
X144653000Y-101727000D03*
%TO.P,J1,P01_8*%
X147193000Y-101727000D03*
%TO.P,J1,P02_1,P02*%
%TO.N,/HV+*%
X139573000Y-97917000D03*
%TO.P,J1,P02_2*%
%TO.N,N/C*%
X142113000Y-97917000D03*
%TO.P,J1,P02_3*%
X144653000Y-97917000D03*
%TO.P,J1,P02_4*%
X147193000Y-97917000D03*
%TO.P,J1,P02_5*%
X139573000Y-95377000D03*
%TO.P,J1,P02_6*%
X142113000Y-95377000D03*
%TO.P,J1,P02_7*%
X144653000Y-95377000D03*
%TO.P,J1,P02_8*%
X147193000Y-95377000D03*
%TD*%
D11*
%TO.P,U2,1,1*%
%TO.N,/12V Master*%
X142498350Y-77025500D03*
%TO.P,U2,2,2*%
%TO.N,GND*%
X142498350Y-72834500D03*
%TD*%
D12*
%TO.P,CR1,1*%
%TO.N,GND*%
X153765250Y-109855000D03*
D13*
%TO.P,CR1,2*%
%TO.N,Net-(CR1-Pad2)*%
X156305250Y-109855000D03*
%TD*%
D14*
%TO.N,/HV-*%
X152032000Y-98946000D03*
X151649594Y-95492406D03*
%TO.N,+5V*%
X152273000Y-97409000D03*
X159639000Y-108331000D03*
X171326201Y-86871201D03*
%TO.N,GND*%
X174498000Y-86360000D03*
X168243000Y-107029000D03*
X167386000Y-85598000D03*
%TD*%
D15*
%TO.N,+5V*%
X159639000Y-108331000D02*
X159639000Y-104775000D01*
X171326201Y-93087799D02*
X159639000Y-104775000D01*
X171326201Y-86871201D02*
X171326201Y-93087799D01*
X159639000Y-104775000D02*
X152273000Y-97409000D01*
%TD*%
%TA.AperFunction,Conductor*%
%TO.N,GND*%
G36*
X176735992Y-67416098D02*
G01*
X176781878Y-67468787D01*
X176793212Y-67521179D01*
X176568766Y-114002697D01*
X176548758Y-114069640D01*
X176495733Y-114115140D01*
X176444455Y-114126098D01*
X135997026Y-114024312D01*
X135930036Y-114004458D01*
X135884414Y-113951539D01*
X135873338Y-113899976D01*
X135882703Y-110469173D01*
X139857500Y-110469173D01*
X139857500Y-110764826D01*
X139857501Y-110764843D01*
X139896090Y-111057959D01*
X139896091Y-111057964D01*
X139896092Y-111057970D01*
X139896093Y-111057972D01*
X139972616Y-111343564D01*
X140085760Y-111616716D01*
X140085764Y-111616726D01*
X140233595Y-111872777D01*
X140413584Y-112107344D01*
X140413590Y-112107351D01*
X140622648Y-112316409D01*
X140622655Y-112316415D01*
X140857222Y-112496404D01*
X141113273Y-112644235D01*
X141113274Y-112644235D01*
X141113277Y-112644237D01*
X141295384Y-112719668D01*
X141386435Y-112757383D01*
X141386436Y-112757383D01*
X141386438Y-112757384D01*
X141672030Y-112833908D01*
X141965167Y-112872500D01*
X141965174Y-112872500D01*
X142260826Y-112872500D01*
X142260833Y-112872500D01*
X142553970Y-112833908D01*
X142839562Y-112757384D01*
X143112723Y-112644237D01*
X143368778Y-112496404D01*
X143603346Y-112316414D01*
X143812414Y-112107346D01*
X143992404Y-111872778D01*
X144140237Y-111616723D01*
X144253384Y-111343562D01*
X144310417Y-111130711D01*
X171631500Y-111130711D01*
X171631500Y-111373288D01*
X171663161Y-111613785D01*
X171725947Y-111848104D01*
X171818773Y-112072205D01*
X171818777Y-112072214D01*
X171840974Y-112110661D01*
X171940064Y-112282289D01*
X171940066Y-112282292D01*
X171940067Y-112282293D01*
X172087733Y-112474736D01*
X172087739Y-112474743D01*
X172259256Y-112646260D01*
X172259262Y-112646265D01*
X172451711Y-112793936D01*
X172661788Y-112915224D01*
X172885900Y-113008054D01*
X173120211Y-113070838D01*
X173300586Y-113094584D01*
X173360711Y-113102500D01*
X173360712Y-113102500D01*
X173603289Y-113102500D01*
X173651388Y-113096167D01*
X173843789Y-113070838D01*
X174078100Y-113008054D01*
X174302212Y-112915224D01*
X174512289Y-112793936D01*
X174704738Y-112646265D01*
X174876265Y-112474738D01*
X175023936Y-112282289D01*
X175145224Y-112072212D01*
X175238054Y-111848100D01*
X175300838Y-111613789D01*
X175332500Y-111373288D01*
X175332500Y-111130712D01*
X175300838Y-110890211D01*
X175238054Y-110655900D01*
X175145224Y-110431788D01*
X175023936Y-110221711D01*
X174876265Y-110029262D01*
X174876260Y-110029256D01*
X174704743Y-109857739D01*
X174704736Y-109857733D01*
X174512293Y-109710067D01*
X174512292Y-109710066D01*
X174512289Y-109710064D01*
X174302212Y-109588776D01*
X174302205Y-109588773D01*
X174078104Y-109495947D01*
X173843785Y-109433161D01*
X173603289Y-109401500D01*
X173603288Y-109401500D01*
X173360712Y-109401500D01*
X173360711Y-109401500D01*
X173120214Y-109433161D01*
X172885895Y-109495947D01*
X172661794Y-109588773D01*
X172661785Y-109588777D01*
X172451706Y-109710067D01*
X172259263Y-109857733D01*
X172259256Y-109857739D01*
X172087739Y-110029256D01*
X172087733Y-110029263D01*
X171940067Y-110221706D01*
X171818777Y-110431785D01*
X171818773Y-110431794D01*
X171725947Y-110655895D01*
X171663161Y-110890214D01*
X171631500Y-111130711D01*
X144310417Y-111130711D01*
X144329908Y-111057970D01*
X144368500Y-110764833D01*
X144368500Y-110469167D01*
X144329908Y-110176030D01*
X144253384Y-109890438D01*
X144140237Y-109617277D01*
X144123780Y-109588773D01*
X143992404Y-109361222D01*
X143863735Y-109193537D01*
X143812415Y-109126655D01*
X143812409Y-109126648D01*
X143807116Y-109121355D01*
X152579450Y-109121355D01*
X152579450Y-109605000D01*
X153410988Y-109605000D01*
X153362876Y-109688331D01*
X153333450Y-109798152D01*
X153333450Y-109911848D01*
X153362876Y-110021669D01*
X153410988Y-110105000D01*
X152579450Y-110105000D01*
X152579450Y-110588644D01*
X152585851Y-110648172D01*
X152585853Y-110648179D01*
X152636095Y-110782886D01*
X152636099Y-110782893D01*
X152722259Y-110897987D01*
X152722262Y-110897990D01*
X152837356Y-110984150D01*
X152837363Y-110984154D01*
X152972070Y-111034396D01*
X152972077Y-111034398D01*
X153031605Y-111040799D01*
X153031622Y-111040800D01*
X153515250Y-111040800D01*
X153515250Y-110209262D01*
X153598581Y-110257374D01*
X153708402Y-110286800D01*
X153822098Y-110286800D01*
X153931919Y-110257374D01*
X154015250Y-110209262D01*
X154015250Y-111040800D01*
X154498878Y-111040800D01*
X154498894Y-111040799D01*
X154558422Y-111034398D01*
X154558429Y-111034396D01*
X154693136Y-110984154D01*
X154693143Y-110984150D01*
X154808237Y-110897990D01*
X154808240Y-110897987D01*
X154894400Y-110782893D01*
X154894404Y-110782886D01*
X154944646Y-110648179D01*
X154944648Y-110648172D01*
X154951049Y-110588644D01*
X154951050Y-110588627D01*
X154951050Y-110309051D01*
X154970735Y-110242012D01*
X155023539Y-110196257D01*
X155092697Y-110186313D01*
X155156253Y-110215338D01*
X155192980Y-110270731D01*
X155205863Y-110310381D01*
X155290635Y-110476757D01*
X155400391Y-110627822D01*
X155532428Y-110759859D01*
X155683493Y-110869615D01*
X155849869Y-110954387D01*
X156027457Y-111012089D01*
X156211886Y-111041300D01*
X156211887Y-111041300D01*
X156398613Y-111041300D01*
X156398614Y-111041300D01*
X156583043Y-111012089D01*
X156760631Y-110954387D01*
X156927007Y-110869615D01*
X157078072Y-110759859D01*
X157210109Y-110627822D01*
X157319865Y-110476757D01*
X157404637Y-110310381D01*
X157462339Y-110132793D01*
X157491550Y-109948364D01*
X157491550Y-109761636D01*
X157462339Y-109577207D01*
X157404637Y-109399619D01*
X157319865Y-109233243D01*
X157210109Y-109082178D01*
X157078072Y-108950141D01*
X156927007Y-108840385D01*
X156760631Y-108755613D01*
X156583043Y-108697911D01*
X156583041Y-108697910D01*
X156583039Y-108697910D01*
X156442185Y-108675601D01*
X156398614Y-108668700D01*
X156211886Y-108668700D01*
X156169133Y-108675471D01*
X156027460Y-108697910D01*
X155849866Y-108755614D01*
X155683492Y-108840385D01*
X155532426Y-108950142D01*
X155400392Y-109082176D01*
X155290635Y-109233242D01*
X155205865Y-109399614D01*
X155205864Y-109399616D01*
X155205863Y-109399619D01*
X155194965Y-109433162D01*
X155192981Y-109439267D01*
X155153543Y-109496942D01*
X155089184Y-109524140D01*
X155020338Y-109512225D01*
X154968862Y-109464981D01*
X154951050Y-109400948D01*
X154951050Y-109121372D01*
X154951049Y-109121355D01*
X154944648Y-109061827D01*
X154944646Y-109061820D01*
X154894404Y-108927113D01*
X154894400Y-108927106D01*
X154808240Y-108812012D01*
X154808237Y-108812009D01*
X154693143Y-108725849D01*
X154693136Y-108725845D01*
X154558429Y-108675603D01*
X154558422Y-108675601D01*
X154498894Y-108669200D01*
X154015250Y-108669200D01*
X154015250Y-109500737D01*
X153931919Y-109452626D01*
X153822098Y-109423200D01*
X153708402Y-109423200D01*
X153598581Y-109452626D01*
X153515250Y-109500737D01*
X153515250Y-108669200D01*
X153031605Y-108669200D01*
X152972077Y-108675601D01*
X152972070Y-108675603D01*
X152837363Y-108725845D01*
X152837356Y-108725849D01*
X152722262Y-108812009D01*
X152722259Y-108812012D01*
X152636099Y-108927106D01*
X152636095Y-108927113D01*
X152585853Y-109061820D01*
X152585851Y-109061827D01*
X152579450Y-109121355D01*
X143807116Y-109121355D01*
X143603351Y-108917590D01*
X143603344Y-108917584D01*
X143368777Y-108737595D01*
X143112726Y-108589764D01*
X143112716Y-108589760D01*
X142839564Y-108476616D01*
X142686516Y-108435607D01*
X142553970Y-108400092D01*
X142553964Y-108400091D01*
X142553959Y-108400090D01*
X142260843Y-108361501D01*
X142260838Y-108361500D01*
X142260833Y-108361500D01*
X141965167Y-108361500D01*
X141965161Y-108361500D01*
X141965156Y-108361501D01*
X141672040Y-108400090D01*
X141672033Y-108400091D01*
X141672030Y-108400092D01*
X141635635Y-108409844D01*
X141386435Y-108476616D01*
X141113283Y-108589760D01*
X141113273Y-108589764D01*
X140857222Y-108737595D01*
X140622655Y-108917584D01*
X140622648Y-108917590D01*
X140413590Y-109126648D01*
X140413584Y-109126655D01*
X140233595Y-109361222D01*
X140085764Y-109617273D01*
X140085760Y-109617283D01*
X139972616Y-109890435D01*
X139896093Y-110176027D01*
X139896090Y-110176040D01*
X139857501Y-110469156D01*
X139857500Y-110469173D01*
X135882703Y-110469173D01*
X135906887Y-101609695D01*
X138082500Y-101609695D01*
X138082500Y-101844304D01*
X138119201Y-102076027D01*
X138191697Y-102299150D01*
X138298212Y-102508195D01*
X138436104Y-102697989D01*
X138436108Y-102697994D01*
X138602005Y-102863891D01*
X138602010Y-102863895D01*
X138647137Y-102896682D01*
X138689803Y-102952012D01*
X138695782Y-103021625D01*
X138663176Y-103083420D01*
X138647137Y-103097318D01*
X138602010Y-103130104D01*
X138602005Y-103130108D01*
X138436108Y-103296005D01*
X138436104Y-103296010D01*
X138298212Y-103485804D01*
X138191697Y-103694849D01*
X138119201Y-103917972D01*
X138082500Y-104149695D01*
X138082500Y-104384304D01*
X138119201Y-104616027D01*
X138191697Y-104839150D01*
X138191699Y-104839153D01*
X138285748Y-105023735D01*
X138298212Y-105048195D01*
X138436104Y-105237989D01*
X138436108Y-105237994D01*
X138602005Y-105403891D01*
X138602010Y-105403895D01*
X138767558Y-105524171D01*
X138791808Y-105541790D01*
X139000847Y-105648301D01*
X139000849Y-105648302D01*
X139112410Y-105684550D01*
X139223974Y-105720799D01*
X139455695Y-105757500D01*
X139455696Y-105757500D01*
X139690304Y-105757500D01*
X139690305Y-105757500D01*
X139922026Y-105720799D01*
X140145153Y-105648301D01*
X140354192Y-105541790D01*
X140543996Y-105403890D01*
X140709890Y-105237996D01*
X140742681Y-105192863D01*
X140798011Y-105150196D01*
X140867624Y-105144216D01*
X140929419Y-105176822D01*
X140943319Y-105192863D01*
X140976106Y-105237992D01*
X141142005Y-105403891D01*
X141142010Y-105403895D01*
X141307558Y-105524171D01*
X141331808Y-105541790D01*
X141540847Y-105648301D01*
X141540849Y-105648302D01*
X141652410Y-105684550D01*
X141763974Y-105720799D01*
X141995695Y-105757500D01*
X141995696Y-105757500D01*
X142230304Y-105757500D01*
X142230305Y-105757500D01*
X142462026Y-105720799D01*
X142685153Y-105648301D01*
X142894192Y-105541790D01*
X143083996Y-105403890D01*
X143249890Y-105237996D01*
X143282681Y-105192863D01*
X143338011Y-105150196D01*
X143407624Y-105144216D01*
X143469419Y-105176822D01*
X143483319Y-105192863D01*
X143516106Y-105237992D01*
X143682005Y-105403891D01*
X143682010Y-105403895D01*
X143847558Y-105524171D01*
X143871808Y-105541790D01*
X144080847Y-105648301D01*
X144080849Y-105648302D01*
X144192410Y-105684550D01*
X144303974Y-105720799D01*
X144535695Y-105757500D01*
X144535696Y-105757500D01*
X144770304Y-105757500D01*
X144770305Y-105757500D01*
X145002026Y-105720799D01*
X145225153Y-105648301D01*
X145434192Y-105541790D01*
X145623996Y-105403890D01*
X145789890Y-105237996D01*
X145822681Y-105192863D01*
X145878011Y-105150196D01*
X145947624Y-105144216D01*
X146009419Y-105176822D01*
X146023319Y-105192863D01*
X146056106Y-105237992D01*
X146222005Y-105403891D01*
X146222010Y-105403895D01*
X146387558Y-105524171D01*
X146411808Y-105541790D01*
X146620847Y-105648301D01*
X146620849Y-105648302D01*
X146732410Y-105684550D01*
X146843974Y-105720799D01*
X147075695Y-105757500D01*
X147075696Y-105757500D01*
X147310304Y-105757500D01*
X147310305Y-105757500D01*
X147542026Y-105720799D01*
X147765153Y-105648301D01*
X147974192Y-105541790D01*
X148163996Y-105403890D01*
X148329890Y-105237996D01*
X148467790Y-105048192D01*
X148574301Y-104839153D01*
X148646799Y-104616026D01*
X148683500Y-104384305D01*
X148683500Y-104149695D01*
X148646799Y-103917974D01*
X148574301Y-103694847D01*
X148467790Y-103485808D01*
X148450171Y-103461558D01*
X148329895Y-103296010D01*
X148329891Y-103296005D01*
X148163992Y-103130106D01*
X148118863Y-103097319D01*
X148076196Y-103041989D01*
X148070216Y-102972376D01*
X148102822Y-102910581D01*
X148118863Y-102896681D01*
X148163992Y-102863893D01*
X148163992Y-102863892D01*
X148163996Y-102863890D01*
X148329890Y-102697996D01*
X148467790Y-102508192D01*
X148574301Y-102299153D01*
X148646799Y-102076026D01*
X148683500Y-101844305D01*
X148683500Y-101609695D01*
X148646799Y-101377974D01*
X148574301Y-101154847D01*
X148467790Y-100945808D01*
X148450171Y-100921558D01*
X148329895Y-100756010D01*
X148329891Y-100756005D01*
X148163994Y-100590108D01*
X148163989Y-100590104D01*
X147974195Y-100452212D01*
X147974194Y-100452211D01*
X147974192Y-100452210D01*
X147869672Y-100398954D01*
X147765150Y-100345697D01*
X147542027Y-100273201D01*
X147426165Y-100254850D01*
X147310305Y-100236500D01*
X147075695Y-100236500D01*
X146998454Y-100248733D01*
X146843972Y-100273201D01*
X146620849Y-100345697D01*
X146411804Y-100452212D01*
X146222010Y-100590104D01*
X146222005Y-100590108D01*
X146056108Y-100756005D01*
X146056104Y-100756010D01*
X146023318Y-100801137D01*
X145967988Y-100843803D01*
X145898375Y-100849782D01*
X145836580Y-100817176D01*
X145822682Y-100801137D01*
X145789895Y-100756010D01*
X145789891Y-100756005D01*
X145623994Y-100590108D01*
X145623989Y-100590104D01*
X145434195Y-100452212D01*
X145434194Y-100452211D01*
X145434192Y-100452210D01*
X145329672Y-100398954D01*
X145225150Y-100345697D01*
X145002027Y-100273201D01*
X144886165Y-100254850D01*
X144770305Y-100236500D01*
X144535695Y-100236500D01*
X144458454Y-100248733D01*
X144303972Y-100273201D01*
X144080849Y-100345697D01*
X143871804Y-100452212D01*
X143682010Y-100590104D01*
X143682005Y-100590108D01*
X143516108Y-100756005D01*
X143516104Y-100756010D01*
X143483318Y-100801137D01*
X143427988Y-100843803D01*
X143358375Y-100849782D01*
X143296580Y-100817176D01*
X143282682Y-100801137D01*
X143249895Y-100756010D01*
X143249891Y-100756005D01*
X143083994Y-100590108D01*
X143083989Y-100590104D01*
X142894195Y-100452212D01*
X142894194Y-100452211D01*
X142894192Y-100452210D01*
X142789672Y-100398954D01*
X142685150Y-100345697D01*
X142462027Y-100273201D01*
X142346165Y-100254850D01*
X142230305Y-100236500D01*
X141995695Y-100236500D01*
X141918454Y-100248733D01*
X141763972Y-100273201D01*
X141540849Y-100345697D01*
X141331804Y-100452212D01*
X141142010Y-100590104D01*
X141142005Y-100590108D01*
X140976108Y-100756005D01*
X140976104Y-100756010D01*
X140943318Y-100801137D01*
X140887988Y-100843803D01*
X140818375Y-100849782D01*
X140756580Y-100817176D01*
X140742682Y-100801137D01*
X140709895Y-100756010D01*
X140709891Y-100756005D01*
X140543994Y-100590108D01*
X140543989Y-100590104D01*
X140354195Y-100452212D01*
X140354194Y-100452211D01*
X140354192Y-100452210D01*
X140249672Y-100398954D01*
X140145150Y-100345697D01*
X139922027Y-100273201D01*
X139806165Y-100254850D01*
X139690305Y-100236500D01*
X139455695Y-100236500D01*
X139378454Y-100248733D01*
X139223972Y-100273201D01*
X139000849Y-100345697D01*
X138791804Y-100452212D01*
X138602010Y-100590104D01*
X138602005Y-100590108D01*
X138436108Y-100756005D01*
X138436104Y-100756010D01*
X138298212Y-100945804D01*
X138191697Y-101154849D01*
X138119201Y-101377972D01*
X138082500Y-101609695D01*
X135906887Y-101609695D01*
X135924220Y-95259695D01*
X138082500Y-95259695D01*
X138082500Y-95494304D01*
X138119201Y-95726027D01*
X138191697Y-95949150D01*
X138244954Y-96053672D01*
X138275792Y-96114195D01*
X138298212Y-96158195D01*
X138436104Y-96347989D01*
X138436108Y-96347994D01*
X138602005Y-96513891D01*
X138602010Y-96513895D01*
X138647137Y-96546682D01*
X138689803Y-96602012D01*
X138695782Y-96671625D01*
X138663176Y-96733420D01*
X138647137Y-96747318D01*
X138602010Y-96780104D01*
X138602005Y-96780108D01*
X138436108Y-96946005D01*
X138436104Y-96946010D01*
X138298212Y-97135804D01*
X138191697Y-97344849D01*
X138119201Y-97567972D01*
X138119201Y-97567974D01*
X138082500Y-97799695D01*
X138082500Y-98034305D01*
X138095818Y-98118394D01*
X138119201Y-98266027D01*
X138191697Y-98489150D01*
X138298212Y-98698195D01*
X138436104Y-98887989D01*
X138436108Y-98887994D01*
X138602005Y-99053891D01*
X138602010Y-99053895D01*
X138767558Y-99174171D01*
X138791808Y-99191790D01*
X139000847Y-99298301D01*
X139000849Y-99298302D01*
X139083548Y-99325172D01*
X139223974Y-99370799D01*
X139455695Y-99407500D01*
X139455696Y-99407500D01*
X139690304Y-99407500D01*
X139690305Y-99407500D01*
X139922026Y-99370799D01*
X140145153Y-99298301D01*
X140354192Y-99191790D01*
X140543996Y-99053890D01*
X140709890Y-98887996D01*
X140742681Y-98842863D01*
X140798011Y-98800196D01*
X140867624Y-98794216D01*
X140929419Y-98826822D01*
X140943319Y-98842863D01*
X140976106Y-98887992D01*
X141142005Y-99053891D01*
X141142010Y-99053895D01*
X141307558Y-99174171D01*
X141331808Y-99191790D01*
X141540847Y-99298301D01*
X141540849Y-99298302D01*
X141623548Y-99325172D01*
X141763974Y-99370799D01*
X141995695Y-99407500D01*
X141995696Y-99407500D01*
X142230304Y-99407500D01*
X142230305Y-99407500D01*
X142462026Y-99370799D01*
X142685153Y-99298301D01*
X142894192Y-99191790D01*
X143083996Y-99053890D01*
X143249890Y-98887996D01*
X143282681Y-98842863D01*
X143338011Y-98800196D01*
X143407624Y-98794216D01*
X143469419Y-98826822D01*
X143483319Y-98842863D01*
X143516106Y-98887992D01*
X143682005Y-99053891D01*
X143682010Y-99053895D01*
X143847558Y-99174171D01*
X143871808Y-99191790D01*
X144080847Y-99298301D01*
X144080849Y-99298302D01*
X144163548Y-99325172D01*
X144303974Y-99370799D01*
X144535695Y-99407500D01*
X144535696Y-99407500D01*
X144770304Y-99407500D01*
X144770305Y-99407500D01*
X145002026Y-99370799D01*
X145225153Y-99298301D01*
X145434192Y-99191790D01*
X145623996Y-99053890D01*
X145789890Y-98887996D01*
X145822681Y-98842863D01*
X145878011Y-98800196D01*
X145947624Y-98794216D01*
X146009419Y-98826822D01*
X146023319Y-98842863D01*
X146056106Y-98887992D01*
X146222005Y-99053891D01*
X146222010Y-99053895D01*
X146387558Y-99174171D01*
X146411808Y-99191790D01*
X146620847Y-99298301D01*
X146620849Y-99298302D01*
X146703548Y-99325172D01*
X146843974Y-99370799D01*
X147075695Y-99407500D01*
X147075696Y-99407500D01*
X147310304Y-99407500D01*
X147310305Y-99407500D01*
X147542026Y-99370799D01*
X147765153Y-99298301D01*
X147974192Y-99191790D01*
X148163996Y-99053890D01*
X148329890Y-98887996D01*
X148345033Y-98867153D01*
X151231500Y-98867153D01*
X151231500Y-99024846D01*
X151262261Y-99179489D01*
X151262264Y-99179501D01*
X151322602Y-99325172D01*
X151322609Y-99325185D01*
X151410210Y-99456288D01*
X151410213Y-99456292D01*
X151521707Y-99567786D01*
X151521711Y-99567789D01*
X151652814Y-99655390D01*
X151652827Y-99655397D01*
X151798498Y-99715735D01*
X151798503Y-99715737D01*
X151953153Y-99746499D01*
X151953156Y-99746500D01*
X151953158Y-99746500D01*
X152110844Y-99746500D01*
X152110845Y-99746499D01*
X152265497Y-99715737D01*
X152411179Y-99655394D01*
X152542289Y-99567789D01*
X152653789Y-99456289D01*
X152741394Y-99325179D01*
X152801737Y-99179497D01*
X152821603Y-99079626D01*
X152853988Y-99017715D01*
X152914703Y-98983141D01*
X152984473Y-98986880D01*
X153030901Y-99016136D01*
X159002181Y-104987416D01*
X159035666Y-105048739D01*
X159038500Y-105075097D01*
X159038500Y-107751234D01*
X159018815Y-107818273D01*
X159017602Y-107820125D01*
X158929609Y-107951814D01*
X158929602Y-107951827D01*
X158869264Y-108097498D01*
X158869261Y-108097510D01*
X158838500Y-108252153D01*
X158838500Y-108409846D01*
X158869261Y-108564489D01*
X158869264Y-108564501D01*
X158929602Y-108710172D01*
X158929609Y-108710185D01*
X159017210Y-108841288D01*
X159017213Y-108841292D01*
X159128707Y-108952786D01*
X159128711Y-108952789D01*
X159259814Y-109040390D01*
X159259827Y-109040397D01*
X159360692Y-109082176D01*
X159405503Y-109100737D01*
X159535766Y-109126648D01*
X159560153Y-109131499D01*
X159560156Y-109131500D01*
X159560158Y-109131500D01*
X159717844Y-109131500D01*
X159717845Y-109131499D01*
X159872497Y-109100737D01*
X160018179Y-109040394D01*
X160149289Y-108952789D01*
X160260789Y-108841289D01*
X160348394Y-108710179D01*
X160408737Y-108564497D01*
X160439500Y-108409842D01*
X160439500Y-108252158D01*
X160439500Y-108252155D01*
X160439499Y-108252153D01*
X160408738Y-108097510D01*
X160408737Y-108097503D01*
X160408735Y-108097498D01*
X160348397Y-107951827D01*
X160348390Y-107951814D01*
X160260398Y-107820125D01*
X160239520Y-107753447D01*
X160239500Y-107751234D01*
X160239500Y-105075096D01*
X160259185Y-105008057D01*
X160275814Y-104987420D01*
X171694914Y-93568320D01*
X171694917Y-93568319D01*
X171806721Y-93456515D01*
X171856840Y-93369703D01*
X171885778Y-93319584D01*
X171926701Y-93166856D01*
X171926701Y-93008742D01*
X171926701Y-87450966D01*
X171946386Y-87383927D01*
X171947599Y-87382075D01*
X171984008Y-87327586D01*
X172035595Y-87250380D01*
X172095938Y-87104698D01*
X172126701Y-86950043D01*
X172126701Y-86792359D01*
X172126701Y-86792356D01*
X172126700Y-86792354D01*
X172095939Y-86637711D01*
X172095938Y-86637704D01*
X172095936Y-86637699D01*
X172035598Y-86492028D01*
X172035591Y-86492015D01*
X171947990Y-86360912D01*
X171947987Y-86360908D01*
X171836493Y-86249414D01*
X171836489Y-86249411D01*
X171705386Y-86161810D01*
X171705373Y-86161803D01*
X171559702Y-86101465D01*
X171559690Y-86101462D01*
X171405046Y-86070701D01*
X171405043Y-86070701D01*
X171247359Y-86070701D01*
X171247356Y-86070701D01*
X171092711Y-86101462D01*
X171092699Y-86101465D01*
X170947028Y-86161803D01*
X170947015Y-86161810D01*
X170815912Y-86249411D01*
X170815908Y-86249414D01*
X170704414Y-86360908D01*
X170704411Y-86360912D01*
X170616810Y-86492015D01*
X170616803Y-86492028D01*
X170556465Y-86637699D01*
X170556462Y-86637711D01*
X170525701Y-86792354D01*
X170525701Y-86950047D01*
X170556462Y-87104690D01*
X170556465Y-87104702D01*
X170616803Y-87250373D01*
X170616810Y-87250386D01*
X170704803Y-87382075D01*
X170725681Y-87448752D01*
X170725701Y-87450966D01*
X170725701Y-92787702D01*
X170706016Y-92854741D01*
X170689382Y-92875383D01*
X159726681Y-103838084D01*
X159665358Y-103871569D01*
X159595666Y-103866585D01*
X159551319Y-103838084D01*
X153107574Y-97394339D01*
X153074089Y-97333016D01*
X153073638Y-97330849D01*
X153042738Y-97175510D01*
X153042737Y-97175503D01*
X152986520Y-97039782D01*
X152982397Y-97029827D01*
X152982390Y-97029814D01*
X152894789Y-96898711D01*
X152894786Y-96898707D01*
X152783292Y-96787213D01*
X152783288Y-96787210D01*
X152652185Y-96699609D01*
X152652172Y-96699602D01*
X152506501Y-96639264D01*
X152506489Y-96639261D01*
X152351845Y-96608500D01*
X152351842Y-96608500D01*
X152194158Y-96608500D01*
X152194155Y-96608500D01*
X152039510Y-96639261D01*
X152039498Y-96639264D01*
X151893827Y-96699602D01*
X151893814Y-96699609D01*
X151762711Y-96787210D01*
X151762707Y-96787213D01*
X151651213Y-96898707D01*
X151651210Y-96898711D01*
X151563609Y-97029814D01*
X151563602Y-97029827D01*
X151503264Y-97175498D01*
X151503261Y-97175510D01*
X151472500Y-97330153D01*
X151472500Y-97487846D01*
X151503261Y-97642489D01*
X151503264Y-97642501D01*
X151563602Y-97788172D01*
X151563609Y-97788185D01*
X151651210Y-97919288D01*
X151651213Y-97919292D01*
X151744834Y-98012913D01*
X151778319Y-98074236D01*
X151773335Y-98143928D01*
X151731463Y-98199861D01*
X151704607Y-98215155D01*
X151652821Y-98236606D01*
X151652814Y-98236609D01*
X151521711Y-98324210D01*
X151521707Y-98324213D01*
X151410213Y-98435707D01*
X151410210Y-98435711D01*
X151322609Y-98566814D01*
X151322602Y-98566827D01*
X151262264Y-98712498D01*
X151262261Y-98712510D01*
X151231500Y-98867153D01*
X148345033Y-98867153D01*
X148467790Y-98698192D01*
X148574301Y-98489153D01*
X148646799Y-98266026D01*
X148683500Y-98034305D01*
X148683500Y-97799695D01*
X148646799Y-97567974D01*
X148574301Y-97344847D01*
X148467790Y-97135808D01*
X148450171Y-97111558D01*
X148329895Y-96946010D01*
X148329891Y-96946005D01*
X148163992Y-96780106D01*
X148118863Y-96747319D01*
X148076196Y-96691989D01*
X148070216Y-96622376D01*
X148102822Y-96560581D01*
X148118863Y-96546681D01*
X148163992Y-96513893D01*
X148163992Y-96513892D01*
X148163996Y-96513890D01*
X148329890Y-96347996D01*
X148467790Y-96158192D01*
X148574301Y-95949153D01*
X148646799Y-95726026D01*
X148683500Y-95494305D01*
X148683500Y-95413559D01*
X150849094Y-95413559D01*
X150849094Y-95571252D01*
X150879855Y-95725895D01*
X150879858Y-95725907D01*
X150940196Y-95871578D01*
X150940203Y-95871591D01*
X151027804Y-96002694D01*
X151027807Y-96002698D01*
X151139301Y-96114192D01*
X151139305Y-96114195D01*
X151270408Y-96201796D01*
X151270421Y-96201803D01*
X151411396Y-96260196D01*
X151416097Y-96262143D01*
X151530966Y-96284992D01*
X151570747Y-96292905D01*
X151570750Y-96292906D01*
X151570752Y-96292906D01*
X151728438Y-96292906D01*
X151728439Y-96292905D01*
X151883091Y-96262143D01*
X152028773Y-96201800D01*
X152159883Y-96114195D01*
X152271383Y-96002695D01*
X152358988Y-95871585D01*
X152419331Y-95725903D01*
X152450094Y-95571248D01*
X152450094Y-95413564D01*
X152450094Y-95413561D01*
X152450093Y-95413559D01*
X152419332Y-95258916D01*
X152419331Y-95258909D01*
X152419329Y-95258904D01*
X152358991Y-95113233D01*
X152358984Y-95113220D01*
X152271383Y-94982117D01*
X152271380Y-94982113D01*
X152159886Y-94870619D01*
X152159882Y-94870616D01*
X152028779Y-94783015D01*
X152028766Y-94783008D01*
X151883095Y-94722670D01*
X151883083Y-94722667D01*
X151728439Y-94691906D01*
X151728436Y-94691906D01*
X151570752Y-94691906D01*
X151570749Y-94691906D01*
X151416104Y-94722667D01*
X151416092Y-94722670D01*
X151270421Y-94783008D01*
X151270408Y-94783015D01*
X151139305Y-94870616D01*
X151139301Y-94870619D01*
X151027807Y-94982113D01*
X151027804Y-94982117D01*
X150940203Y-95113220D01*
X150940196Y-95113233D01*
X150879858Y-95258904D01*
X150879855Y-95258916D01*
X150849094Y-95413559D01*
X148683500Y-95413559D01*
X148683500Y-95259695D01*
X148646799Y-95027974D01*
X148574301Y-94804847D01*
X148467790Y-94595808D01*
X148450171Y-94571558D01*
X148329895Y-94406010D01*
X148329891Y-94406005D01*
X148163994Y-94240108D01*
X148163989Y-94240104D01*
X147974195Y-94102212D01*
X147974194Y-94102211D01*
X147974192Y-94102210D01*
X147869672Y-94048954D01*
X147765150Y-93995697D01*
X147542027Y-93923201D01*
X147426165Y-93904850D01*
X147310305Y-93886500D01*
X147075695Y-93886500D01*
X146998454Y-93898733D01*
X146843972Y-93923201D01*
X146620849Y-93995697D01*
X146411804Y-94102212D01*
X146222010Y-94240104D01*
X146222005Y-94240108D01*
X146056108Y-94406005D01*
X146056104Y-94406010D01*
X146023318Y-94451137D01*
X145967988Y-94493803D01*
X145898375Y-94499782D01*
X145836580Y-94467176D01*
X145822682Y-94451137D01*
X145789895Y-94406010D01*
X145789891Y-94406005D01*
X145623994Y-94240108D01*
X145623989Y-94240104D01*
X145434195Y-94102212D01*
X145434194Y-94102211D01*
X145434192Y-94102210D01*
X145329672Y-94048954D01*
X145225150Y-93995697D01*
X145002027Y-93923201D01*
X144886165Y-93904850D01*
X144770305Y-93886500D01*
X144535695Y-93886500D01*
X144458454Y-93898733D01*
X144303972Y-93923201D01*
X144080849Y-93995697D01*
X143871804Y-94102212D01*
X143682010Y-94240104D01*
X143682005Y-94240108D01*
X143516108Y-94406005D01*
X143516104Y-94406010D01*
X143483318Y-94451137D01*
X143427988Y-94493803D01*
X143358375Y-94499782D01*
X143296580Y-94467176D01*
X143282682Y-94451137D01*
X143249895Y-94406010D01*
X143249891Y-94406005D01*
X143083994Y-94240108D01*
X143083989Y-94240104D01*
X142894195Y-94102212D01*
X142894194Y-94102211D01*
X142894192Y-94102210D01*
X142789672Y-94048954D01*
X142685150Y-93995697D01*
X142462027Y-93923201D01*
X142346165Y-93904850D01*
X142230305Y-93886500D01*
X141995695Y-93886500D01*
X141918454Y-93898733D01*
X141763972Y-93923201D01*
X141540849Y-93995697D01*
X141331804Y-94102212D01*
X141142010Y-94240104D01*
X141142005Y-94240108D01*
X140976108Y-94406005D01*
X140976104Y-94406010D01*
X140943318Y-94451137D01*
X140887988Y-94493803D01*
X140818375Y-94499782D01*
X140756580Y-94467176D01*
X140742682Y-94451137D01*
X140709895Y-94406010D01*
X140709891Y-94406005D01*
X140543994Y-94240108D01*
X140543989Y-94240104D01*
X140354195Y-94102212D01*
X140354194Y-94102211D01*
X140354192Y-94102210D01*
X140249672Y-94048954D01*
X140145150Y-93995697D01*
X139922027Y-93923201D01*
X139806165Y-93904850D01*
X139690305Y-93886500D01*
X139455695Y-93886500D01*
X139378454Y-93898733D01*
X139223972Y-93923201D01*
X139000849Y-93995697D01*
X138791804Y-94102212D01*
X138602010Y-94240104D01*
X138602005Y-94240108D01*
X138436108Y-94406005D01*
X138436104Y-94406010D01*
X138298212Y-94595804D01*
X138191697Y-94804849D01*
X138119201Y-95027972D01*
X138082500Y-95259695D01*
X135924220Y-95259695D01*
X135941637Y-88879173D01*
X139857500Y-88879173D01*
X139857500Y-89174826D01*
X139857501Y-89174843D01*
X139896090Y-89467959D01*
X139896091Y-89467964D01*
X139896092Y-89467970D01*
X139896093Y-89467972D01*
X139972616Y-89753564D01*
X140085760Y-90026716D01*
X140085764Y-90026726D01*
X140233595Y-90282777D01*
X140413584Y-90517344D01*
X140413590Y-90517351D01*
X140622648Y-90726409D01*
X140622655Y-90726415D01*
X140857222Y-90906404D01*
X141113273Y-91054235D01*
X141113274Y-91054235D01*
X141113277Y-91054237D01*
X141295384Y-91129668D01*
X141386435Y-91167383D01*
X141386436Y-91167383D01*
X141386438Y-91167384D01*
X141672030Y-91243908D01*
X141965167Y-91282500D01*
X141965174Y-91282500D01*
X142260826Y-91282500D01*
X142260833Y-91282500D01*
X142553970Y-91243908D01*
X142839562Y-91167384D01*
X143112723Y-91054237D01*
X143368778Y-90906404D01*
X143603346Y-90726414D01*
X143812414Y-90517346D01*
X143992404Y-90282778D01*
X144140237Y-90026723D01*
X144253384Y-89753562D01*
X144329908Y-89467970D01*
X144368500Y-89174833D01*
X144368500Y-88879167D01*
X144329908Y-88586030D01*
X144253384Y-88300438D01*
X144140237Y-88027277D01*
X143992404Y-87771222D01*
X143812414Y-87536654D01*
X143812409Y-87536648D01*
X143603351Y-87327590D01*
X143603344Y-87327584D01*
X143368777Y-87147595D01*
X143112726Y-86999764D01*
X143112716Y-86999760D01*
X142839564Y-86886616D01*
X142686516Y-86845607D01*
X142553970Y-86810092D01*
X142553964Y-86810091D01*
X142553959Y-86810090D01*
X142260843Y-86771501D01*
X142260838Y-86771500D01*
X142260833Y-86771500D01*
X141965167Y-86771500D01*
X141965161Y-86771500D01*
X141965156Y-86771501D01*
X141672040Y-86810090D01*
X141672033Y-86810091D01*
X141672030Y-86810092D01*
X141616007Y-86825103D01*
X141386435Y-86886616D01*
X141113283Y-86999760D01*
X141113273Y-86999764D01*
X140857222Y-87147595D01*
X140622655Y-87327584D01*
X140622648Y-87327590D01*
X140413590Y-87536648D01*
X140413584Y-87536655D01*
X140233595Y-87771222D01*
X140085764Y-88027273D01*
X140085760Y-88027283D01*
X139972616Y-88300435D01*
X139896093Y-88586027D01*
X139896090Y-88586040D01*
X139857501Y-88879156D01*
X139857500Y-88879173D01*
X135941637Y-88879173D01*
X135974310Y-76909447D01*
X140727850Y-76909447D01*
X140727850Y-77141552D01*
X140758144Y-77371648D01*
X140818212Y-77595828D01*
X140907027Y-77810245D01*
X140907035Y-77810262D01*
X141023070Y-78011243D01*
X141023071Y-78011245D01*
X141164359Y-78195375D01*
X141164365Y-78195382D01*
X141328467Y-78359484D01*
X141328474Y-78359490D01*
X141512604Y-78500778D01*
X141512606Y-78500779D01*
X141713587Y-78616814D01*
X141713590Y-78616815D01*
X141713598Y-78616820D01*
X141928020Y-78705637D01*
X142152201Y-78765706D01*
X142382305Y-78796000D01*
X142382312Y-78796000D01*
X142614388Y-78796000D01*
X142614395Y-78796000D01*
X142844499Y-78765706D01*
X143068680Y-78705637D01*
X143283102Y-78616820D01*
X143484098Y-78500776D01*
X143668227Y-78359489D01*
X143832339Y-78195377D01*
X143973626Y-78011248D01*
X144089670Y-77810252D01*
X144178487Y-77595830D01*
X144238556Y-77371649D01*
X144268850Y-77141545D01*
X144268850Y-76909455D01*
X144238556Y-76679351D01*
X144178487Y-76455170D01*
X144089670Y-76240748D01*
X144089664Y-76240737D01*
X143973629Y-76039756D01*
X143973628Y-76039754D01*
X143832340Y-75855624D01*
X143832334Y-75855617D01*
X143668232Y-75691515D01*
X143668225Y-75691509D01*
X143484095Y-75550221D01*
X143484093Y-75550220D01*
X143283112Y-75434185D01*
X143283104Y-75434181D01*
X143283102Y-75434180D01*
X143068680Y-75345363D01*
X143068681Y-75345363D01*
X143068678Y-75345362D01*
X142926553Y-75307280D01*
X142844499Y-75285294D01*
X142815736Y-75281507D01*
X142614402Y-75255000D01*
X142614395Y-75255000D01*
X142382305Y-75255000D01*
X142382297Y-75255000D01*
X142152201Y-75285294D01*
X141928021Y-75345362D01*
X141713604Y-75434177D01*
X141713587Y-75434185D01*
X141512606Y-75550220D01*
X141512604Y-75550221D01*
X141328474Y-75691509D01*
X141328467Y-75691515D01*
X141164365Y-75855617D01*
X141164359Y-75855624D01*
X141023071Y-76039754D01*
X141023070Y-76039756D01*
X140907035Y-76240737D01*
X140907027Y-76240754D01*
X140818212Y-76455171D01*
X140758144Y-76679351D01*
X140727850Y-76909447D01*
X135974310Y-76909447D01*
X135985750Y-72718494D01*
X140728350Y-72718494D01*
X140728350Y-72950505D01*
X140728351Y-72950522D01*
X140758633Y-73180540D01*
X140758636Y-73180553D01*
X140818686Y-73404667D01*
X140907474Y-73619021D01*
X140907482Y-73619038D01*
X141023486Y-73819961D01*
X141023492Y-73819969D01*
X141082467Y-73896827D01*
X141715803Y-73263492D01*
X141807819Y-73401204D01*
X141931646Y-73525031D01*
X142069356Y-73617046D01*
X141436021Y-74250381D01*
X141512880Y-74309357D01*
X141512888Y-74309363D01*
X141713811Y-74425367D01*
X141713828Y-74425375D01*
X141928182Y-74514163D01*
X142152296Y-74574213D01*
X142152309Y-74574216D01*
X142382327Y-74604498D01*
X142382345Y-74604500D01*
X142614355Y-74604500D01*
X142614372Y-74604498D01*
X142844390Y-74574216D01*
X142844403Y-74574213D01*
X143068517Y-74514163D01*
X143282871Y-74425375D01*
X143282888Y-74425367D01*
X143483825Y-74309355D01*
X143560677Y-74250383D01*
X143560677Y-74250380D01*
X142927342Y-73617046D01*
X143065054Y-73525031D01*
X143188881Y-73401204D01*
X143280896Y-73263493D01*
X143914230Y-73896827D01*
X143914233Y-73896827D01*
X143973205Y-73819975D01*
X144089217Y-73619038D01*
X144089225Y-73619021D01*
X144178013Y-73404667D01*
X144238063Y-73180553D01*
X144238066Y-73180540D01*
X144268348Y-72950522D01*
X144268350Y-72950505D01*
X144268350Y-72718494D01*
X144268348Y-72718477D01*
X144238066Y-72488459D01*
X144238063Y-72488446D01*
X144178013Y-72264332D01*
X144089225Y-72049978D01*
X144089217Y-72049961D01*
X143973213Y-71849038D01*
X143973207Y-71849030D01*
X143914231Y-71772171D01*
X143280896Y-72405506D01*
X143188881Y-72267796D01*
X143065054Y-72143969D01*
X142927342Y-72051953D01*
X143560677Y-71418617D01*
X143483819Y-71359642D01*
X143483811Y-71359636D01*
X143282888Y-71243632D01*
X143282871Y-71243624D01*
X143068517Y-71154836D01*
X142844403Y-71094786D01*
X142844390Y-71094783D01*
X142614372Y-71064501D01*
X142614355Y-71064500D01*
X142382345Y-71064500D01*
X142382327Y-71064501D01*
X142152309Y-71094783D01*
X142152296Y-71094786D01*
X141928182Y-71154836D01*
X141713828Y-71243624D01*
X141713811Y-71243632D01*
X141512891Y-71359634D01*
X141512883Y-71359640D01*
X141436021Y-71418616D01*
X141436021Y-71418617D01*
X142069357Y-72051953D01*
X141931646Y-72143969D01*
X141807819Y-72267796D01*
X141715803Y-72405506D01*
X141082467Y-71772171D01*
X141082466Y-71772171D01*
X141023490Y-71849033D01*
X141023484Y-71849041D01*
X140907482Y-72049961D01*
X140907474Y-72049978D01*
X140818686Y-72264332D01*
X140758636Y-72488446D01*
X140758633Y-72488459D01*
X140728351Y-72718477D01*
X140728350Y-72718494D01*
X135985750Y-72718494D01*
X135993218Y-69982711D01*
X171631500Y-69982711D01*
X171631500Y-70225288D01*
X171663161Y-70465785D01*
X171725947Y-70700104D01*
X171818773Y-70924205D01*
X171818776Y-70924212D01*
X171940064Y-71134289D01*
X171940066Y-71134292D01*
X171940067Y-71134293D01*
X172087733Y-71326736D01*
X172087739Y-71326743D01*
X172259256Y-71498260D01*
X172259262Y-71498265D01*
X172451711Y-71645936D01*
X172661788Y-71767224D01*
X172885900Y-71860054D01*
X173120211Y-71922838D01*
X173292349Y-71945500D01*
X173360711Y-71954500D01*
X173360712Y-71954500D01*
X173603289Y-71954500D01*
X173671651Y-71945500D01*
X173843789Y-71922838D01*
X174078100Y-71860054D01*
X174302212Y-71767224D01*
X174512289Y-71645936D01*
X174704738Y-71498265D01*
X174876265Y-71326738D01*
X175023936Y-71134289D01*
X175145224Y-70924212D01*
X175238054Y-70700100D01*
X175300838Y-70465789D01*
X175332500Y-70225288D01*
X175332500Y-69982712D01*
X175300838Y-69742211D01*
X175238054Y-69507900D01*
X175145224Y-69283788D01*
X175023936Y-69073711D01*
X174876265Y-68881262D01*
X174876260Y-68881256D01*
X174704743Y-68709739D01*
X174704736Y-68709733D01*
X174512293Y-68562067D01*
X174512292Y-68562066D01*
X174512289Y-68562064D01*
X174302212Y-68440776D01*
X174302205Y-68440773D01*
X174078104Y-68347947D01*
X173843785Y-68285161D01*
X173603289Y-68253500D01*
X173603288Y-68253500D01*
X173360712Y-68253500D01*
X173360711Y-68253500D01*
X173120214Y-68285161D01*
X172885895Y-68347947D01*
X172661794Y-68440773D01*
X172661785Y-68440777D01*
X172451706Y-68562067D01*
X172259263Y-68709733D01*
X172259256Y-68709739D01*
X172087739Y-68881256D01*
X172087733Y-68881263D01*
X171940067Y-69073706D01*
X171818777Y-69283785D01*
X171818773Y-69283794D01*
X171725947Y-69507895D01*
X171663161Y-69742214D01*
X171631500Y-69982711D01*
X135993218Y-69982711D01*
X135999663Y-67621414D01*
X136019531Y-67554430D01*
X136072460Y-67508819D01*
X136123353Y-67497754D01*
X176668906Y-67396580D01*
X176735992Y-67416098D01*
G37*
%TD.AperFunction*%
%TD*%
M02*
