%TF.GenerationSoftware,KiCad,Pcbnew,9.0.8*%
%TF.CreationDate,2026-03-29T12:32:58-07:00*%
%TF.ProjectId,Voltage_Indicator,566f6c74-6167-4655-9f49-6e6469636174,rev?*%
%TF.SameCoordinates,Original*%
%TF.FileFunction,Profile,NP*%
%FSLAX46Y46*%
G04 Gerber Fmt 4.6, Leading zero omitted, Abs format (unit mm)*
G04 Created by KiCad (PCBNEW 9.0.8) date 2026-03-29 12:32:58*
%MOMM*%
%LPD*%
G01*
G04 APERTURE LIST*
%TA.AperFunction,Profile*%
%ADD10C,0.050000*%
%TD*%
G04 APERTURE END LIST*
D10*
X135250327Y-65511305D02*
X135005702Y-117616430D01*
X135250327Y-65511305D02*
G75*
G02*
X136250316Y-64516016I999973J-4695D01*
G01*
X136002576Y-118621120D02*
G75*
G02*
X135005686Y-117616430I3124J1000020D01*
G01*
X136002576Y-118621120D02*
X174778914Y-118741919D01*
X155845000Y-64516000D02*
X136250316Y-64516000D01*
X156845000Y-62849000D02*
X156845000Y-63516000D01*
X156845000Y-62849000D02*
G75*
G02*
X157845000Y-61849000I1000000J0D01*
G01*
X156845000Y-63516000D02*
G75*
G02*
X155845000Y-64516000I-1000000J0D01*
G01*
X175781929Y-117756007D02*
G75*
G02*
X174778914Y-118741924I-999929J14107D01*
G01*
X175781929Y-117756007D02*
X175894901Y-109735041D01*
X175895000Y-96807214D02*
G75*
G02*
X176187886Y-96100100I1000000J14D01*
G01*
X175895000Y-109720958D02*
G75*
G02*
X175894901Y-109735041I-1011800J58D01*
G01*
X175895000Y-109720958D02*
X175895000Y-96807214D01*
X176187893Y-96100107D02*
X177634107Y-94653893D01*
X177634107Y-94653893D02*
G75*
G02*
X178341214Y-94361010I707093J-707107D01*
G01*
X178341214Y-94361000D02*
X184928000Y-94361000D01*
X184928000Y-61849000D02*
X157845000Y-61849000D01*
X184928000Y-61849000D02*
G75*
G02*
X185928000Y-62849000I0J-1000000D01*
G01*
X185928000Y-93361000D02*
G75*
G02*
X184928000Y-94361000I-1000000J0D01*
G01*
X185928000Y-93361000D02*
X185928000Y-62849000D01*
M02*
