%TF.GenerationSoftware,KiCad,Pcbnew,9.0.4*%
%TF.CreationDate,2026-02-21T13:05:31-07:00*%
%TF.ProjectId,Voltage_Indicator,566f6c74-6167-4655-9f49-6e6469636174,rev?*%
%TF.SameCoordinates,Original*%
%TF.FileFunction,Copper,L2,Bot*%
%TF.FilePolarity,Positive*%
%FSLAX46Y46*%
G04 Gerber Fmt 4.6, Leading zero omitted, Abs format (unit mm)*
G04 Created by KiCad (PCBNEW 9.0.4) date 2026-02-21 13:05:31*
%MOMM*%
%LPD*%
G01*
G04 APERTURE LIST*
%TA.AperFunction,ComponentPad*%
%ADD10C,1.980000*%
%TD*%
%TA.AperFunction,ComponentPad*%
%ADD11C,2.400000*%
%TD*%
%TA.AperFunction,ComponentPad*%
%ADD12C,1.303000*%
%TD*%
%TA.AperFunction,ComponentPad*%
%ADD13C,2.540000*%
%TD*%
%TA.AperFunction,ComponentPad*%
%ADD14R,1.371600X1.371600*%
%TD*%
%TA.AperFunction,ComponentPad*%
%ADD15C,1.371600*%
%TD*%
%TA.AperFunction,ViaPad*%
%ADD16C,0.600000*%
%TD*%
%TA.AperFunction,Conductor*%
%ADD17C,0.200000*%
%TD*%
G04 APERTURE END LIST*
D10*
%TO.P,J1,P01_1,P01*%
%TO.N,/HV+*%
X145460000Y-106800000D03*
%TO.P,J1,P01_2*%
%TO.N,N/C*%
X148000000Y-106800000D03*
%TO.P,J1,P01_3*%
X150540000Y-106800000D03*
%TO.P,J1,P01_4*%
X153080000Y-106800000D03*
%TO.P,J1,P01_5*%
X145460000Y-104260000D03*
%TO.P,J1,P01_6*%
X148000000Y-104260000D03*
%TO.P,J1,P01_7*%
X150540000Y-104260000D03*
%TO.P,J1,P01_8*%
X153080000Y-104260000D03*
%TO.P,J1,P02_1,P02*%
%TO.N,/HV-*%
X145460000Y-100450000D03*
%TO.P,J1,P02_2*%
%TO.N,N/C*%
X148000000Y-100450000D03*
%TO.P,J1,P02_3*%
X150540000Y-100450000D03*
%TO.P,J1,P02_4*%
X153080000Y-100450000D03*
%TO.P,J1,P02_5*%
X145460000Y-97910000D03*
%TO.P,J1,P02_6*%
X148000000Y-97910000D03*
%TO.P,J1,P02_7*%
X150540000Y-97910000D03*
%TO.P,J1,P02_8*%
X153080000Y-97910000D03*
%TD*%
D11*
%TO.P,RED_TP1,1,1*%
%TO.N,/V_LOW_REF*%
X195500000Y-112000000D03*
%TD*%
D12*
%TO.P,VR1,1,CCW*%
%TO.N,+5V*%
X185766600Y-113895000D03*
%TO.P,VR1,2,Wiper*%
%TO.N,/V_LOW_REF*%
X183226600Y-111355000D03*
%TO.P,VR1,3,CW*%
%TO.N,GND*%
X180686600Y-113895000D03*
%TD*%
D13*
%TO.P,U2,1,1*%
%TO.N,/12V Master*%
X153260200Y-80295500D03*
%TO.P,U2,2,2*%
%TO.N,GND*%
X153260200Y-76104500D03*
%TD*%
D14*
%TO.P,CR1,1*%
%TO.N,GND*%
X192799350Y-86810000D03*
D15*
%TO.P,CR1,2*%
%TO.N,Net-(CR1-Pad2)*%
X195339350Y-86810000D03*
%TD*%
D16*
%TO.N,/V_IND*%
X185900000Y-100300000D03*
X180200000Y-98900000D03*
%TO.N,GND*%
X179800000Y-95500000D03*
X190200000Y-105500000D03*
X186100000Y-86900000D03*
X180000000Y-103600000D03*
%TD*%
D17*
%TO.N,/V_IND*%
X184500000Y-98900000D02*
X185900000Y-100300000D01*
X180200000Y-98900000D02*
X184500000Y-98900000D01*
%TD*%
%TA.AperFunction,Conductor*%
%TO.N,GND*%
G36*
X204041487Y-67416038D02*
G01*
X204087321Y-67468774D01*
X204098604Y-67520665D01*
X204000380Y-125178434D01*
X203980581Y-125245440D01*
X203927699Y-125291105D01*
X203876193Y-125302223D01*
X136123813Y-125200186D01*
X136056804Y-125180400D01*
X136011128Y-125127528D01*
X136000000Y-125076186D01*
X136000000Y-122993713D01*
X136649500Y-122993713D01*
X136649500Y-123206286D01*
X136682753Y-123416239D01*
X136748444Y-123618414D01*
X136844951Y-123807820D01*
X136969890Y-123979786D01*
X137120213Y-124130109D01*
X137292179Y-124255048D01*
X137292181Y-124255049D01*
X137292184Y-124255051D01*
X137481588Y-124351557D01*
X137683757Y-124417246D01*
X137893713Y-124450500D01*
X137893714Y-124450500D01*
X138106286Y-124450500D01*
X138106287Y-124450500D01*
X138316243Y-124417246D01*
X138518412Y-124351557D01*
X138707816Y-124255051D01*
X138729789Y-124239086D01*
X138879786Y-124130109D01*
X138879788Y-124130106D01*
X138879792Y-124130104D01*
X139030104Y-123979792D01*
X139030106Y-123979788D01*
X139030109Y-123979786D01*
X139155048Y-123807820D01*
X139155047Y-123807820D01*
X139155051Y-123807816D01*
X139251557Y-123618412D01*
X139317246Y-123416243D01*
X139350500Y-123206287D01*
X139350500Y-122993713D01*
X199049500Y-122993713D01*
X199049500Y-123206286D01*
X199082753Y-123416239D01*
X199148444Y-123618414D01*
X199244951Y-123807820D01*
X199369890Y-123979786D01*
X199520213Y-124130109D01*
X199692179Y-124255048D01*
X199692181Y-124255049D01*
X199692184Y-124255051D01*
X199881588Y-124351557D01*
X200083757Y-124417246D01*
X200293713Y-124450500D01*
X200293714Y-124450500D01*
X200506286Y-124450500D01*
X200506287Y-124450500D01*
X200716243Y-124417246D01*
X200918412Y-124351557D01*
X201107816Y-124255051D01*
X201129789Y-124239086D01*
X201279786Y-124130109D01*
X201279788Y-124130106D01*
X201279792Y-124130104D01*
X201430104Y-123979792D01*
X201430106Y-123979788D01*
X201430109Y-123979786D01*
X201555048Y-123807820D01*
X201555047Y-123807820D01*
X201555051Y-123807816D01*
X201651557Y-123618412D01*
X201717246Y-123416243D01*
X201750500Y-123206287D01*
X201750500Y-122993713D01*
X201717246Y-122783757D01*
X201651557Y-122581588D01*
X201555051Y-122392184D01*
X201555049Y-122392181D01*
X201555048Y-122392179D01*
X201430109Y-122220213D01*
X201279786Y-122069890D01*
X201107820Y-121944951D01*
X200918414Y-121848444D01*
X200918413Y-121848443D01*
X200918412Y-121848443D01*
X200716243Y-121782754D01*
X200716241Y-121782753D01*
X200716240Y-121782753D01*
X200554957Y-121757208D01*
X200506287Y-121749500D01*
X200293713Y-121749500D01*
X200245042Y-121757208D01*
X200083760Y-121782753D01*
X199881585Y-121848444D01*
X199692179Y-121944951D01*
X199520213Y-122069890D01*
X199369890Y-122220213D01*
X199244951Y-122392179D01*
X199148444Y-122581585D01*
X199082753Y-122783760D01*
X199049500Y-122993713D01*
X139350500Y-122993713D01*
X139317246Y-122783757D01*
X139251557Y-122581588D01*
X139155051Y-122392184D01*
X139155049Y-122392181D01*
X139155048Y-122392179D01*
X139030109Y-122220213D01*
X138879786Y-122069890D01*
X138707820Y-121944951D01*
X138518414Y-121848444D01*
X138518413Y-121848443D01*
X138518412Y-121848443D01*
X138316243Y-121782754D01*
X138316241Y-121782753D01*
X138316240Y-121782753D01*
X138154957Y-121757208D01*
X138106287Y-121749500D01*
X137893713Y-121749500D01*
X137845042Y-121757208D01*
X137683760Y-121782753D01*
X137481585Y-121848444D01*
X137292179Y-121944951D01*
X137120213Y-122069890D01*
X136969890Y-122220213D01*
X136844951Y-122392179D01*
X136748444Y-122581585D01*
X136682753Y-122783760D01*
X136649500Y-122993713D01*
X136000000Y-122993713D01*
X136000000Y-113002173D01*
X145744500Y-113002173D01*
X145744500Y-113297826D01*
X145744501Y-113297843D01*
X145783090Y-113590959D01*
X145783091Y-113590964D01*
X145783092Y-113590970D01*
X145812440Y-113700498D01*
X145859616Y-113876564D01*
X145972760Y-114149716D01*
X145972764Y-114149726D01*
X146120595Y-114405777D01*
X146300584Y-114640344D01*
X146300590Y-114640351D01*
X146509648Y-114849409D01*
X146509655Y-114849415D01*
X146744222Y-115029404D01*
X147000273Y-115177235D01*
X147000274Y-115177235D01*
X147000277Y-115177237D01*
X147182384Y-115252668D01*
X147273435Y-115290383D01*
X147273436Y-115290383D01*
X147273438Y-115290384D01*
X147559030Y-115366908D01*
X147852167Y-115405500D01*
X147852174Y-115405500D01*
X148147826Y-115405500D01*
X148147833Y-115405500D01*
X148440970Y-115366908D01*
X148726562Y-115290384D01*
X148999723Y-115177237D01*
X149255778Y-115029404D01*
X149490346Y-114849414D01*
X149490351Y-114849409D01*
X149606541Y-114733220D01*
X149699409Y-114640351D01*
X149699414Y-114640346D01*
X149879404Y-114405778D01*
X150027237Y-114149723D01*
X150140384Y-113876562D01*
X150159728Y-113804370D01*
X179535100Y-113804370D01*
X179535100Y-113985629D01*
X179563452Y-114164640D01*
X179619464Y-114337025D01*
X179701750Y-114498520D01*
X179713437Y-114514606D01*
X179713438Y-114514606D01*
X180306600Y-113921445D01*
X180306600Y-113945028D01*
X180332496Y-114041675D01*
X180382524Y-114128325D01*
X180453275Y-114199076D01*
X180539925Y-114249104D01*
X180636572Y-114275000D01*
X180660153Y-114275000D01*
X180066991Y-114868160D01*
X180066992Y-114868161D01*
X180083078Y-114879848D01*
X180244574Y-114962135D01*
X180416959Y-115018147D01*
X180416958Y-115018147D01*
X180595971Y-115046500D01*
X180777229Y-115046500D01*
X180956240Y-115018147D01*
X181128625Y-114962135D01*
X181290114Y-114879853D01*
X181306207Y-114868160D01*
X180713048Y-114275000D01*
X180736628Y-114275000D01*
X180833275Y-114249104D01*
X180919925Y-114199076D01*
X180990676Y-114128325D01*
X181040704Y-114041675D01*
X181066600Y-113945028D01*
X181066600Y-113921446D01*
X181659760Y-114514606D01*
X181671453Y-114498514D01*
X181753735Y-114337025D01*
X181809747Y-114164640D01*
X181838100Y-113985629D01*
X181838100Y-113804370D01*
X181838094Y-113804330D01*
X184614600Y-113804330D01*
X184614600Y-113985669D01*
X184642965Y-114164757D01*
X184642966Y-114164761D01*
X184699000Y-114337214D01*
X184781321Y-114498779D01*
X184887904Y-114645477D01*
X185016123Y-114773696D01*
X185162821Y-114880279D01*
X185324386Y-114962600D01*
X185496839Y-115018634D01*
X185564000Y-115029271D01*
X185675931Y-115047000D01*
X185675936Y-115047000D01*
X185857269Y-115047000D01*
X185968361Y-115029404D01*
X186036361Y-115018634D01*
X186208814Y-114962600D01*
X186370379Y-114880279D01*
X186517077Y-114773696D01*
X186645296Y-114645477D01*
X186751879Y-114498779D01*
X186834200Y-114337214D01*
X186890234Y-114164761D01*
X186909729Y-114041675D01*
X186918600Y-113985669D01*
X186918600Y-113804330D01*
X186890234Y-113625242D01*
X186890234Y-113625239D01*
X186834200Y-113452786D01*
X186751879Y-113291221D01*
X186645296Y-113144523D01*
X186517077Y-113016304D01*
X186370379Y-112909721D01*
X186208814Y-112827400D01*
X186036361Y-112771366D01*
X186036359Y-112771365D01*
X186036357Y-112771365D01*
X185857269Y-112743000D01*
X185857264Y-112743000D01*
X185675936Y-112743000D01*
X185675931Y-112743000D01*
X185496842Y-112771365D01*
X185324383Y-112827401D01*
X185162820Y-112909721D01*
X185111822Y-112946774D01*
X185016123Y-113016304D01*
X185016121Y-113016306D01*
X185016120Y-113016306D01*
X184887906Y-113144520D01*
X184887906Y-113144521D01*
X184887904Y-113144523D01*
X184842131Y-113207523D01*
X184781321Y-113291220D01*
X184699001Y-113452783D01*
X184642965Y-113625242D01*
X184614600Y-113804330D01*
X181838094Y-113804330D01*
X181809747Y-113625359D01*
X181753735Y-113452974D01*
X181671448Y-113291478D01*
X181659761Y-113275392D01*
X181659760Y-113275391D01*
X181066600Y-113868551D01*
X181066600Y-113844972D01*
X181040704Y-113748325D01*
X180990676Y-113661675D01*
X180919925Y-113590924D01*
X180833275Y-113540896D01*
X180736628Y-113515000D01*
X180713047Y-113515000D01*
X181306206Y-112921838D01*
X181306206Y-112921837D01*
X181290120Y-112910150D01*
X181128625Y-112827864D01*
X180956240Y-112771852D01*
X180956241Y-112771852D01*
X180777229Y-112743500D01*
X180595971Y-112743500D01*
X180416959Y-112771852D01*
X180244574Y-112827864D01*
X180083084Y-112910147D01*
X180066992Y-112921837D01*
X180066992Y-112921838D01*
X180660154Y-113515000D01*
X180636572Y-113515000D01*
X180539925Y-113540896D01*
X180453275Y-113590924D01*
X180382524Y-113661675D01*
X180332496Y-113748325D01*
X180306600Y-113844972D01*
X180306600Y-113868553D01*
X179713438Y-113275392D01*
X179713437Y-113275392D01*
X179701747Y-113291484D01*
X179619464Y-113452974D01*
X179563452Y-113625359D01*
X179535100Y-113804370D01*
X150159728Y-113804370D01*
X150216908Y-113590970D01*
X150255500Y-113297833D01*
X150255500Y-113002167D01*
X150216908Y-112709030D01*
X150140384Y-112423438D01*
X150027237Y-112150277D01*
X150004824Y-112111457D01*
X149879404Y-111894222D01*
X149699415Y-111659655D01*
X149699409Y-111659648D01*
X149490351Y-111450590D01*
X149490344Y-111450584D01*
X149369477Y-111357840D01*
X149255777Y-111270595D01*
X149244926Y-111264330D01*
X182074600Y-111264330D01*
X182074600Y-111445669D01*
X182102965Y-111624757D01*
X182102966Y-111624761D01*
X182159000Y-111797214D01*
X182241321Y-111958779D01*
X182347904Y-112105477D01*
X182476123Y-112233696D01*
X182622821Y-112340279D01*
X182784386Y-112422600D01*
X182956839Y-112478634D01*
X183024000Y-112489271D01*
X183135931Y-112507000D01*
X183135936Y-112507000D01*
X183317269Y-112507000D01*
X183416762Y-112491241D01*
X183496361Y-112478634D01*
X183668814Y-112422600D01*
X183830379Y-112340279D01*
X183977077Y-112233696D01*
X184105296Y-112105477D01*
X184211879Y-111958779D01*
X184247663Y-111888549D01*
X193799500Y-111888549D01*
X193799500Y-112111450D01*
X193799501Y-112111466D01*
X193828594Y-112332452D01*
X193828595Y-112332457D01*
X193828596Y-112332463D01*
X193875363Y-112507000D01*
X193886290Y-112547780D01*
X193886293Y-112547790D01*
X193953080Y-112709027D01*
X193971595Y-112753726D01*
X194083052Y-112946774D01*
X194083057Y-112946780D01*
X194083058Y-112946782D01*
X194218751Y-113123622D01*
X194218757Y-113123629D01*
X194376370Y-113281242D01*
X194376376Y-113281247D01*
X194553226Y-113416948D01*
X194746274Y-113528405D01*
X194776430Y-113540896D01*
X194897208Y-113590924D01*
X194952219Y-113613710D01*
X195167537Y-113671404D01*
X195388543Y-113700500D01*
X195388550Y-113700500D01*
X195611450Y-113700500D01*
X195611457Y-113700500D01*
X195832463Y-113671404D01*
X196047781Y-113613710D01*
X196253726Y-113528405D01*
X196446774Y-113416948D01*
X196623624Y-113281247D01*
X196781247Y-113123624D01*
X196916948Y-112946774D01*
X197028405Y-112753726D01*
X197113710Y-112547781D01*
X197171404Y-112332463D01*
X197200500Y-112111457D01*
X197200500Y-111888543D01*
X197171404Y-111667537D01*
X197113710Y-111452219D01*
X197028405Y-111246274D01*
X196916948Y-111053226D01*
X196824767Y-110933093D01*
X196781248Y-110876377D01*
X196781242Y-110876370D01*
X196623629Y-110718757D01*
X196623622Y-110718751D01*
X196446782Y-110583058D01*
X196446780Y-110583057D01*
X196446774Y-110583052D01*
X196253726Y-110471595D01*
X196253722Y-110471593D01*
X196047790Y-110386293D01*
X196047783Y-110386291D01*
X196047781Y-110386290D01*
X195832463Y-110328596D01*
X195832457Y-110328595D01*
X195832452Y-110328594D01*
X195611466Y-110299501D01*
X195611463Y-110299500D01*
X195611457Y-110299500D01*
X195388543Y-110299500D01*
X195388537Y-110299500D01*
X195388533Y-110299501D01*
X195167547Y-110328594D01*
X195167540Y-110328595D01*
X195167537Y-110328596D01*
X195014056Y-110369721D01*
X194952219Y-110386290D01*
X194952209Y-110386293D01*
X194746277Y-110471593D01*
X194746273Y-110471595D01*
X194553226Y-110583052D01*
X194553217Y-110583058D01*
X194376377Y-110718751D01*
X194376370Y-110718757D01*
X194218757Y-110876370D01*
X194218751Y-110876377D01*
X194083058Y-111053217D01*
X194083052Y-111053226D01*
X193971595Y-111246273D01*
X193971593Y-111246277D01*
X193886293Y-111452209D01*
X193886290Y-111452219D01*
X193828597Y-111667534D01*
X193828594Y-111667547D01*
X193799501Y-111888533D01*
X193799500Y-111888549D01*
X184247663Y-111888549D01*
X184294200Y-111797214D01*
X184350234Y-111624761D01*
X184362841Y-111545162D01*
X184378600Y-111445669D01*
X184378600Y-111264330D01*
X184350234Y-111085242D01*
X184350234Y-111085239D01*
X184294200Y-110912786D01*
X184211879Y-110751221D01*
X184105296Y-110604523D01*
X183977077Y-110476304D01*
X183830379Y-110369721D01*
X183668814Y-110287400D01*
X183496361Y-110231366D01*
X183496359Y-110231365D01*
X183496357Y-110231365D01*
X183317269Y-110203000D01*
X183317264Y-110203000D01*
X183135936Y-110203000D01*
X183135931Y-110203000D01*
X182956842Y-110231365D01*
X182784383Y-110287401D01*
X182622820Y-110369721D01*
X182539123Y-110430531D01*
X182476123Y-110476304D01*
X182476121Y-110476306D01*
X182476120Y-110476306D01*
X182347906Y-110604520D01*
X182347906Y-110604521D01*
X182347904Y-110604523D01*
X182302131Y-110667523D01*
X182241321Y-110751220D01*
X182159001Y-110912783D01*
X182102965Y-111085242D01*
X182074600Y-111264330D01*
X149244926Y-111264330D01*
X148999726Y-111122764D01*
X148999716Y-111122760D01*
X148726564Y-111009616D01*
X148573516Y-110968607D01*
X148440970Y-110933092D01*
X148440964Y-110933091D01*
X148440959Y-110933090D01*
X148147843Y-110894501D01*
X148147838Y-110894500D01*
X148147833Y-110894500D01*
X147852167Y-110894500D01*
X147852161Y-110894500D01*
X147852156Y-110894501D01*
X147559040Y-110933090D01*
X147559033Y-110933091D01*
X147559030Y-110933092D01*
X147503007Y-110948103D01*
X147273435Y-111009616D01*
X147000283Y-111122760D01*
X147000273Y-111122764D01*
X146744222Y-111270595D01*
X146509655Y-111450584D01*
X146509648Y-111450590D01*
X146300590Y-111659648D01*
X146300584Y-111659655D01*
X146120595Y-111894222D01*
X145972764Y-112150273D01*
X145972760Y-112150283D01*
X145859616Y-112423435D01*
X145783093Y-112709027D01*
X145783090Y-112709040D01*
X145744501Y-113002156D01*
X145744500Y-113002173D01*
X136000000Y-113002173D01*
X136000000Y-104142695D01*
X143969500Y-104142695D01*
X143969500Y-104377304D01*
X144006201Y-104609027D01*
X144078697Y-104832150D01*
X144185212Y-105041195D01*
X144323104Y-105230989D01*
X144323108Y-105230994D01*
X144489005Y-105396891D01*
X144489010Y-105396895D01*
X144534137Y-105429682D01*
X144576803Y-105485012D01*
X144582782Y-105554625D01*
X144550176Y-105616420D01*
X144534137Y-105630318D01*
X144489010Y-105663104D01*
X144489005Y-105663108D01*
X144323108Y-105829005D01*
X144323104Y-105829010D01*
X144185212Y-106018804D01*
X144078697Y-106227849D01*
X144006201Y-106450972D01*
X143969500Y-106682695D01*
X143969500Y-106917304D01*
X144006201Y-107149027D01*
X144078697Y-107372150D01*
X144185212Y-107581195D01*
X144323104Y-107770989D01*
X144323108Y-107770994D01*
X144489005Y-107936891D01*
X144489010Y-107936895D01*
X144654558Y-108057171D01*
X144678808Y-108074790D01*
X144887847Y-108181301D01*
X144887849Y-108181302D01*
X144999410Y-108217550D01*
X145110974Y-108253799D01*
X145342695Y-108290500D01*
X145342696Y-108290500D01*
X145577304Y-108290500D01*
X145577305Y-108290500D01*
X145809026Y-108253799D01*
X146032153Y-108181301D01*
X146241192Y-108074790D01*
X146430996Y-107936890D01*
X146596890Y-107770996D01*
X146629681Y-107725863D01*
X146685011Y-107683196D01*
X146754624Y-107677216D01*
X146816419Y-107709822D01*
X146830319Y-107725863D01*
X146863106Y-107770992D01*
X147029005Y-107936891D01*
X147029010Y-107936895D01*
X147194558Y-108057171D01*
X147218808Y-108074790D01*
X147427847Y-108181301D01*
X147427849Y-108181302D01*
X147539410Y-108217550D01*
X147650974Y-108253799D01*
X147882695Y-108290500D01*
X147882696Y-108290500D01*
X148117304Y-108290500D01*
X148117305Y-108290500D01*
X148349026Y-108253799D01*
X148572153Y-108181301D01*
X148781192Y-108074790D01*
X148970996Y-107936890D01*
X149136890Y-107770996D01*
X149169681Y-107725863D01*
X149225011Y-107683196D01*
X149294624Y-107677216D01*
X149356419Y-107709822D01*
X149370319Y-107725863D01*
X149403106Y-107770992D01*
X149569005Y-107936891D01*
X149569010Y-107936895D01*
X149734558Y-108057171D01*
X149758808Y-108074790D01*
X149967847Y-108181301D01*
X149967849Y-108181302D01*
X150079410Y-108217550D01*
X150190974Y-108253799D01*
X150422695Y-108290500D01*
X150422696Y-108290500D01*
X150657304Y-108290500D01*
X150657305Y-108290500D01*
X150889026Y-108253799D01*
X151112153Y-108181301D01*
X151321192Y-108074790D01*
X151510996Y-107936890D01*
X151676890Y-107770996D01*
X151709681Y-107725863D01*
X151765011Y-107683196D01*
X151834624Y-107677216D01*
X151896419Y-107709822D01*
X151910319Y-107725863D01*
X151943106Y-107770992D01*
X152109005Y-107936891D01*
X152109010Y-107936895D01*
X152274558Y-108057171D01*
X152298808Y-108074790D01*
X152507847Y-108181301D01*
X152507849Y-108181302D01*
X152619410Y-108217550D01*
X152730974Y-108253799D01*
X152962695Y-108290500D01*
X152962696Y-108290500D01*
X153197304Y-108290500D01*
X153197305Y-108290500D01*
X153429026Y-108253799D01*
X153652153Y-108181301D01*
X153861192Y-108074790D01*
X154050996Y-107936890D01*
X154216890Y-107770996D01*
X154354790Y-107581192D01*
X154461301Y-107372153D01*
X154533799Y-107149026D01*
X154570500Y-106917305D01*
X154570500Y-106682695D01*
X154533799Y-106450974D01*
X154461301Y-106227847D01*
X154354790Y-106018808D01*
X154337171Y-105994558D01*
X154216895Y-105829010D01*
X154216891Y-105829005D01*
X154050992Y-105663106D01*
X154005863Y-105630319D01*
X153963196Y-105574989D01*
X153957216Y-105505376D01*
X153989822Y-105443581D01*
X154005863Y-105429681D01*
X154050992Y-105396893D01*
X154050992Y-105396892D01*
X154050996Y-105396890D01*
X154216890Y-105230996D01*
X154354790Y-105041192D01*
X154461301Y-104832153D01*
X154533799Y-104609026D01*
X154570500Y-104377305D01*
X154570500Y-104142695D01*
X154533799Y-103910974D01*
X154461301Y-103687847D01*
X154354790Y-103478808D01*
X154337171Y-103454558D01*
X154216895Y-103289010D01*
X154216891Y-103289005D01*
X154050994Y-103123108D01*
X154050989Y-103123104D01*
X153861195Y-102985212D01*
X153861194Y-102985211D01*
X153861192Y-102985210D01*
X153756672Y-102931954D01*
X153652150Y-102878697D01*
X153429027Y-102806201D01*
X153313165Y-102787850D01*
X153197305Y-102769500D01*
X152962695Y-102769500D01*
X152885454Y-102781733D01*
X152730972Y-102806201D01*
X152507849Y-102878697D01*
X152298804Y-102985212D01*
X152109010Y-103123104D01*
X152109005Y-103123108D01*
X151943108Y-103289005D01*
X151943104Y-103289010D01*
X151910318Y-103334137D01*
X151854988Y-103376803D01*
X151785375Y-103382782D01*
X151723580Y-103350176D01*
X151709682Y-103334137D01*
X151676895Y-103289010D01*
X151676891Y-103289005D01*
X151510994Y-103123108D01*
X151510989Y-103123104D01*
X151321195Y-102985212D01*
X151321194Y-102985211D01*
X151321192Y-102985210D01*
X151216672Y-102931954D01*
X151112150Y-102878697D01*
X150889027Y-102806201D01*
X150773165Y-102787850D01*
X150657305Y-102769500D01*
X150422695Y-102769500D01*
X150345454Y-102781733D01*
X150190972Y-102806201D01*
X149967849Y-102878697D01*
X149758804Y-102985212D01*
X149569010Y-103123104D01*
X149569005Y-103123108D01*
X149403108Y-103289005D01*
X149403104Y-103289010D01*
X149370318Y-103334137D01*
X149314988Y-103376803D01*
X149245375Y-103382782D01*
X149183580Y-103350176D01*
X149169682Y-103334137D01*
X149136895Y-103289010D01*
X149136891Y-103289005D01*
X148970994Y-103123108D01*
X148970989Y-103123104D01*
X148781195Y-102985212D01*
X148781194Y-102985211D01*
X148781192Y-102985210D01*
X148676672Y-102931954D01*
X148572150Y-102878697D01*
X148349027Y-102806201D01*
X148233165Y-102787850D01*
X148117305Y-102769500D01*
X147882695Y-102769500D01*
X147805454Y-102781733D01*
X147650972Y-102806201D01*
X147427849Y-102878697D01*
X147218804Y-102985212D01*
X147029010Y-103123104D01*
X147029005Y-103123108D01*
X146863108Y-103289005D01*
X146863104Y-103289010D01*
X146830318Y-103334137D01*
X146774988Y-103376803D01*
X146705375Y-103382782D01*
X146643580Y-103350176D01*
X146629682Y-103334137D01*
X146596895Y-103289010D01*
X146596891Y-103289005D01*
X146430994Y-103123108D01*
X146430989Y-103123104D01*
X146241195Y-102985212D01*
X146241194Y-102985211D01*
X146241192Y-102985210D01*
X146136672Y-102931954D01*
X146032150Y-102878697D01*
X145809027Y-102806201D01*
X145693165Y-102787850D01*
X145577305Y-102769500D01*
X145342695Y-102769500D01*
X145265454Y-102781733D01*
X145110972Y-102806201D01*
X144887849Y-102878697D01*
X144678804Y-102985212D01*
X144489010Y-103123104D01*
X144489005Y-103123108D01*
X144323108Y-103289005D01*
X144323104Y-103289010D01*
X144185212Y-103478804D01*
X144078697Y-103687849D01*
X144006201Y-103910972D01*
X143969500Y-104142695D01*
X136000000Y-104142695D01*
X136000000Y-97792695D01*
X143969500Y-97792695D01*
X143969500Y-98027304D01*
X144006201Y-98259027D01*
X144078697Y-98482150D01*
X144107334Y-98538352D01*
X144172630Y-98666503D01*
X144185212Y-98691195D01*
X144323104Y-98880989D01*
X144323108Y-98880994D01*
X144489005Y-99046891D01*
X144489010Y-99046895D01*
X144534137Y-99079682D01*
X144576803Y-99135012D01*
X144582782Y-99204625D01*
X144550176Y-99266420D01*
X144534137Y-99280318D01*
X144489010Y-99313104D01*
X144489005Y-99313108D01*
X144323108Y-99479005D01*
X144323104Y-99479010D01*
X144185212Y-99668804D01*
X144078697Y-99877849D01*
X144006201Y-100100972D01*
X143969500Y-100332695D01*
X143969500Y-100567304D01*
X144006201Y-100799027D01*
X144078697Y-101022150D01*
X144185212Y-101231195D01*
X144323104Y-101420989D01*
X144323108Y-101420994D01*
X144489005Y-101586891D01*
X144489010Y-101586895D01*
X144654558Y-101707171D01*
X144678808Y-101724790D01*
X144887847Y-101831301D01*
X144887849Y-101831302D01*
X144999410Y-101867550D01*
X145110974Y-101903799D01*
X145342695Y-101940500D01*
X145342696Y-101940500D01*
X145577304Y-101940500D01*
X145577305Y-101940500D01*
X145809026Y-101903799D01*
X146032153Y-101831301D01*
X146241192Y-101724790D01*
X146430996Y-101586890D01*
X146596890Y-101420996D01*
X146629681Y-101375863D01*
X146685011Y-101333196D01*
X146754624Y-101327216D01*
X146816419Y-101359822D01*
X146830319Y-101375863D01*
X146863106Y-101420992D01*
X147029005Y-101586891D01*
X147029010Y-101586895D01*
X147194558Y-101707171D01*
X147218808Y-101724790D01*
X147427847Y-101831301D01*
X147427849Y-101831302D01*
X147539410Y-101867550D01*
X147650974Y-101903799D01*
X147882695Y-101940500D01*
X147882696Y-101940500D01*
X148117304Y-101940500D01*
X148117305Y-101940500D01*
X148349026Y-101903799D01*
X148572153Y-101831301D01*
X148781192Y-101724790D01*
X148970996Y-101586890D01*
X149136890Y-101420996D01*
X149169681Y-101375863D01*
X149225011Y-101333196D01*
X149294624Y-101327216D01*
X149356419Y-101359822D01*
X149370319Y-101375863D01*
X149403106Y-101420992D01*
X149569005Y-101586891D01*
X149569010Y-101586895D01*
X149734558Y-101707171D01*
X149758808Y-101724790D01*
X149967847Y-101831301D01*
X149967849Y-101831302D01*
X150079410Y-101867550D01*
X150190974Y-101903799D01*
X150422695Y-101940500D01*
X150422696Y-101940500D01*
X150657304Y-101940500D01*
X150657305Y-101940500D01*
X150889026Y-101903799D01*
X151112153Y-101831301D01*
X151321192Y-101724790D01*
X151510996Y-101586890D01*
X151676890Y-101420996D01*
X151709681Y-101375863D01*
X151765011Y-101333196D01*
X151834624Y-101327216D01*
X151896419Y-101359822D01*
X151910319Y-101375863D01*
X151943106Y-101420992D01*
X152109005Y-101586891D01*
X152109010Y-101586895D01*
X152274558Y-101707171D01*
X152298808Y-101724790D01*
X152507847Y-101831301D01*
X152507849Y-101831302D01*
X152619410Y-101867550D01*
X152730974Y-101903799D01*
X152962695Y-101940500D01*
X152962696Y-101940500D01*
X153197304Y-101940500D01*
X153197305Y-101940500D01*
X153429026Y-101903799D01*
X153652153Y-101831301D01*
X153861192Y-101724790D01*
X154050996Y-101586890D01*
X154216890Y-101420996D01*
X154354790Y-101231192D01*
X154461301Y-101022153D01*
X154533799Y-100799026D01*
X154570500Y-100567305D01*
X154570500Y-100332695D01*
X154533799Y-100100974D01*
X154461301Y-99877847D01*
X154354790Y-99668808D01*
X154311626Y-99609397D01*
X154216895Y-99479010D01*
X154216891Y-99479005D01*
X154050992Y-99313106D01*
X154005863Y-99280319D01*
X153963196Y-99224989D01*
X153957216Y-99155376D01*
X153989822Y-99093581D01*
X154005863Y-99079681D01*
X154050992Y-99046893D01*
X154050992Y-99046892D01*
X154050996Y-99046890D01*
X154216890Y-98880996D01*
X154216892Y-98880992D01*
X154216895Y-98880990D01*
X154260369Y-98821153D01*
X179399500Y-98821153D01*
X179399500Y-98978846D01*
X179430261Y-99133489D01*
X179430264Y-99133501D01*
X179490602Y-99279172D01*
X179490609Y-99279185D01*
X179578210Y-99410288D01*
X179578213Y-99410292D01*
X179689707Y-99521786D01*
X179689711Y-99521789D01*
X179820814Y-99609390D01*
X179820827Y-99609397D01*
X179964260Y-99668808D01*
X179966503Y-99669737D01*
X180121153Y-99700499D01*
X180121156Y-99700500D01*
X180121158Y-99700500D01*
X180278844Y-99700500D01*
X180278845Y-99700499D01*
X180433497Y-99669737D01*
X180579179Y-99609394D01*
X180642921Y-99566803D01*
X180710875Y-99521398D01*
X180777553Y-99500520D01*
X180779766Y-99500500D01*
X184199903Y-99500500D01*
X184266942Y-99520185D01*
X184287584Y-99536819D01*
X185065425Y-100314660D01*
X185098910Y-100375983D01*
X185099361Y-100378149D01*
X185130261Y-100533491D01*
X185130264Y-100533501D01*
X185190602Y-100679172D01*
X185190609Y-100679185D01*
X185278210Y-100810288D01*
X185278213Y-100810292D01*
X185389707Y-100921786D01*
X185389711Y-100921789D01*
X185520814Y-101009390D01*
X185520827Y-101009397D01*
X185666498Y-101069735D01*
X185666503Y-101069737D01*
X185821153Y-101100499D01*
X185821156Y-101100500D01*
X185821158Y-101100500D01*
X185978844Y-101100500D01*
X185978845Y-101100499D01*
X186133497Y-101069737D01*
X186279179Y-101009394D01*
X186410289Y-100921789D01*
X186521789Y-100810289D01*
X186609394Y-100679179D01*
X186669737Y-100533497D01*
X186700500Y-100378842D01*
X186700500Y-100221158D01*
X186700500Y-100221155D01*
X186700499Y-100221153D01*
X186669737Y-100066503D01*
X186669735Y-100066498D01*
X186609397Y-99920827D01*
X186609390Y-99920814D01*
X186521789Y-99789711D01*
X186521786Y-99789707D01*
X186410292Y-99678213D01*
X186410288Y-99678210D01*
X186279185Y-99590609D01*
X186279172Y-99590602D01*
X186133501Y-99530264D01*
X186133491Y-99530261D01*
X185978149Y-99499361D01*
X185916238Y-99466976D01*
X185914660Y-99465425D01*
X184987590Y-98538355D01*
X184987588Y-98538352D01*
X184868717Y-98419481D01*
X184868712Y-98419477D01*
X184757859Y-98355477D01*
X184757857Y-98355475D01*
X184731788Y-98340424D01*
X184731787Y-98340423D01*
X184670693Y-98324053D01*
X184579057Y-98299499D01*
X184420943Y-98299499D01*
X184413347Y-98299499D01*
X184413331Y-98299500D01*
X180779766Y-98299500D01*
X180712727Y-98279815D01*
X180710875Y-98278602D01*
X180579185Y-98190609D01*
X180579172Y-98190602D01*
X180433501Y-98130264D01*
X180433489Y-98130261D01*
X180278845Y-98099500D01*
X180278842Y-98099500D01*
X180121158Y-98099500D01*
X180121155Y-98099500D01*
X179966510Y-98130261D01*
X179966498Y-98130264D01*
X179820827Y-98190602D01*
X179820814Y-98190609D01*
X179689711Y-98278210D01*
X179689707Y-98278213D01*
X179578213Y-98389707D01*
X179578210Y-98389711D01*
X179490609Y-98520814D01*
X179490602Y-98520827D01*
X179430264Y-98666498D01*
X179430261Y-98666510D01*
X179399500Y-98821153D01*
X154260369Y-98821153D01*
X154317745Y-98742181D01*
X154331681Y-98722998D01*
X154354790Y-98691192D01*
X154461301Y-98482153D01*
X154533799Y-98259026D01*
X154570500Y-98027305D01*
X154570500Y-97792695D01*
X154533799Y-97560974D01*
X154461301Y-97337847D01*
X154354790Y-97128808D01*
X154337171Y-97104558D01*
X154216895Y-96939010D01*
X154216891Y-96939005D01*
X154050994Y-96773108D01*
X154050989Y-96773104D01*
X153861195Y-96635212D01*
X153861194Y-96635211D01*
X153861192Y-96635210D01*
X153756672Y-96581954D01*
X153652150Y-96528697D01*
X153429027Y-96456201D01*
X153313165Y-96437850D01*
X153197305Y-96419500D01*
X152962695Y-96419500D01*
X152885454Y-96431733D01*
X152730972Y-96456201D01*
X152507849Y-96528697D01*
X152298804Y-96635212D01*
X152109010Y-96773104D01*
X152109005Y-96773108D01*
X151943108Y-96939005D01*
X151943104Y-96939010D01*
X151910318Y-96984137D01*
X151854988Y-97026803D01*
X151785375Y-97032782D01*
X151723580Y-97000176D01*
X151709682Y-96984137D01*
X151676895Y-96939010D01*
X151676891Y-96939005D01*
X151510994Y-96773108D01*
X151510989Y-96773104D01*
X151321195Y-96635212D01*
X151321194Y-96635211D01*
X151321192Y-96635210D01*
X151216672Y-96581954D01*
X151112150Y-96528697D01*
X150889027Y-96456201D01*
X150773165Y-96437850D01*
X150657305Y-96419500D01*
X150422695Y-96419500D01*
X150345454Y-96431733D01*
X150190972Y-96456201D01*
X149967849Y-96528697D01*
X149758804Y-96635212D01*
X149569010Y-96773104D01*
X149569005Y-96773108D01*
X149403108Y-96939005D01*
X149403104Y-96939010D01*
X149370318Y-96984137D01*
X149314988Y-97026803D01*
X149245375Y-97032782D01*
X149183580Y-97000176D01*
X149169682Y-96984137D01*
X149136895Y-96939010D01*
X149136891Y-96939005D01*
X148970994Y-96773108D01*
X148970989Y-96773104D01*
X148781195Y-96635212D01*
X148781194Y-96635211D01*
X148781192Y-96635210D01*
X148676672Y-96581954D01*
X148572150Y-96528697D01*
X148349027Y-96456201D01*
X148233165Y-96437850D01*
X148117305Y-96419500D01*
X147882695Y-96419500D01*
X147805454Y-96431733D01*
X147650972Y-96456201D01*
X147427849Y-96528697D01*
X147218804Y-96635212D01*
X147029010Y-96773104D01*
X147029005Y-96773108D01*
X146863108Y-96939005D01*
X146863104Y-96939010D01*
X146830318Y-96984137D01*
X146774988Y-97026803D01*
X146705375Y-97032782D01*
X146643580Y-97000176D01*
X146629682Y-96984137D01*
X146596895Y-96939010D01*
X146596891Y-96939005D01*
X146430994Y-96773108D01*
X146430989Y-96773104D01*
X146241195Y-96635212D01*
X146241194Y-96635211D01*
X146241192Y-96635210D01*
X146136672Y-96581954D01*
X146032150Y-96528697D01*
X145809027Y-96456201D01*
X145693165Y-96437850D01*
X145577305Y-96419500D01*
X145342695Y-96419500D01*
X145265454Y-96431733D01*
X145110972Y-96456201D01*
X144887849Y-96528697D01*
X144678804Y-96635212D01*
X144489010Y-96773104D01*
X144489005Y-96773108D01*
X144323108Y-96939005D01*
X144323104Y-96939010D01*
X144185212Y-97128804D01*
X144078697Y-97337849D01*
X144006201Y-97560972D01*
X143969500Y-97792695D01*
X136000000Y-97792695D01*
X136000000Y-91412173D01*
X145744500Y-91412173D01*
X145744500Y-91707826D01*
X145744501Y-91707843D01*
X145783090Y-92000959D01*
X145783091Y-92000964D01*
X145783092Y-92000970D01*
X145783093Y-92000972D01*
X145859616Y-92286564D01*
X145972760Y-92559716D01*
X145972764Y-92559726D01*
X146120595Y-92815777D01*
X146300584Y-93050344D01*
X146300590Y-93050351D01*
X146509648Y-93259409D01*
X146509655Y-93259415D01*
X146744222Y-93439404D01*
X147000273Y-93587235D01*
X147000274Y-93587235D01*
X147000277Y-93587237D01*
X147182384Y-93662668D01*
X147273435Y-93700383D01*
X147273436Y-93700383D01*
X147273438Y-93700384D01*
X147559030Y-93776908D01*
X147852167Y-93815500D01*
X147852174Y-93815500D01*
X148147826Y-93815500D01*
X148147833Y-93815500D01*
X148440970Y-93776908D01*
X148726562Y-93700384D01*
X148999723Y-93587237D01*
X149255778Y-93439404D01*
X149490346Y-93259414D01*
X149699414Y-93050346D01*
X149879404Y-92815778D01*
X150027237Y-92559723D01*
X150140384Y-92286562D01*
X150216908Y-92000970D01*
X150255500Y-91707833D01*
X150255500Y-91412167D01*
X150216908Y-91119030D01*
X150140384Y-90833438D01*
X150027237Y-90560277D01*
X149879404Y-90304222D01*
X149699414Y-90069654D01*
X149699409Y-90069648D01*
X149490351Y-89860590D01*
X149490344Y-89860584D01*
X149255777Y-89680595D01*
X148999726Y-89532764D01*
X148999716Y-89532760D01*
X148726564Y-89419616D01*
X148573516Y-89378607D01*
X148440970Y-89343092D01*
X148440964Y-89343091D01*
X148440959Y-89343090D01*
X148147843Y-89304501D01*
X148147838Y-89304500D01*
X148147833Y-89304500D01*
X147852167Y-89304500D01*
X147852161Y-89304500D01*
X147852156Y-89304501D01*
X147559040Y-89343090D01*
X147559033Y-89343091D01*
X147559030Y-89343092D01*
X147503007Y-89358103D01*
X147273435Y-89419616D01*
X147000283Y-89532760D01*
X147000273Y-89532764D01*
X146744222Y-89680595D01*
X146509655Y-89860584D01*
X146509648Y-89860590D01*
X146300590Y-90069648D01*
X146300584Y-90069655D01*
X146120595Y-90304222D01*
X145972764Y-90560273D01*
X145972760Y-90560283D01*
X145859616Y-90833435D01*
X145783093Y-91119027D01*
X145783090Y-91119040D01*
X145744501Y-91412156D01*
X145744500Y-91412173D01*
X136000000Y-91412173D01*
X136000000Y-86076355D01*
X191613550Y-86076355D01*
X191613550Y-86560000D01*
X192445088Y-86560000D01*
X192396976Y-86643331D01*
X192367550Y-86753152D01*
X192367550Y-86866848D01*
X192396976Y-86976669D01*
X192445088Y-87060000D01*
X191613550Y-87060000D01*
X191613550Y-87543644D01*
X191619951Y-87603172D01*
X191619953Y-87603179D01*
X191670195Y-87737886D01*
X191670199Y-87737893D01*
X191756359Y-87852987D01*
X191756362Y-87852990D01*
X191871456Y-87939150D01*
X191871463Y-87939154D01*
X192006170Y-87989396D01*
X192006177Y-87989398D01*
X192065705Y-87995799D01*
X192065722Y-87995800D01*
X192549350Y-87995800D01*
X192549350Y-87164262D01*
X192632681Y-87212374D01*
X192742502Y-87241800D01*
X192856198Y-87241800D01*
X192966019Y-87212374D01*
X193049350Y-87164262D01*
X193049350Y-87995800D01*
X193532978Y-87995800D01*
X193532994Y-87995799D01*
X193592522Y-87989398D01*
X193592529Y-87989396D01*
X193727236Y-87939154D01*
X193727243Y-87939150D01*
X193842337Y-87852990D01*
X193842340Y-87852987D01*
X193928500Y-87737893D01*
X193928504Y-87737886D01*
X193978746Y-87603179D01*
X193978748Y-87603172D01*
X193985149Y-87543644D01*
X193985150Y-87543627D01*
X193985150Y-87264051D01*
X194004835Y-87197012D01*
X194057639Y-87151257D01*
X194126797Y-87141313D01*
X194190353Y-87170338D01*
X194227080Y-87225731D01*
X194239963Y-87265381D01*
X194324735Y-87431757D01*
X194434491Y-87582822D01*
X194566528Y-87714859D01*
X194717593Y-87824615D01*
X194883969Y-87909387D01*
X195061557Y-87967089D01*
X195245986Y-87996300D01*
X195245987Y-87996300D01*
X195432713Y-87996300D01*
X195432714Y-87996300D01*
X195617143Y-87967089D01*
X195794731Y-87909387D01*
X195961107Y-87824615D01*
X196112172Y-87714859D01*
X196244209Y-87582822D01*
X196353965Y-87431757D01*
X196438737Y-87265381D01*
X196496439Y-87087793D01*
X196525650Y-86903364D01*
X196525650Y-86716636D01*
X196496439Y-86532207D01*
X196438737Y-86354619D01*
X196353965Y-86188243D01*
X196244209Y-86037178D01*
X196112172Y-85905141D01*
X195961107Y-85795385D01*
X195794731Y-85710613D01*
X195617143Y-85652911D01*
X195617141Y-85652910D01*
X195617139Y-85652910D01*
X195476285Y-85630601D01*
X195432714Y-85623700D01*
X195245986Y-85623700D01*
X195203233Y-85630471D01*
X195061560Y-85652910D01*
X194883966Y-85710614D01*
X194717592Y-85795385D01*
X194566526Y-85905142D01*
X194434492Y-86037176D01*
X194324735Y-86188242D01*
X194239965Y-86354614D01*
X194239964Y-86354616D01*
X194239963Y-86354619D01*
X194239532Y-86355948D01*
X194227081Y-86394267D01*
X194187643Y-86451942D01*
X194123284Y-86479140D01*
X194054438Y-86467225D01*
X194002962Y-86419981D01*
X193985150Y-86355948D01*
X193985150Y-86076372D01*
X193985149Y-86076355D01*
X193978748Y-86016827D01*
X193978746Y-86016820D01*
X193928504Y-85882113D01*
X193928500Y-85882106D01*
X193842340Y-85767012D01*
X193842337Y-85767009D01*
X193727243Y-85680849D01*
X193727236Y-85680845D01*
X193592529Y-85630603D01*
X193592522Y-85630601D01*
X193532994Y-85624200D01*
X193049350Y-85624200D01*
X193049350Y-86455737D01*
X192966019Y-86407626D01*
X192856198Y-86378200D01*
X192742502Y-86378200D01*
X192632681Y-86407626D01*
X192549350Y-86455737D01*
X192549350Y-85624200D01*
X192065705Y-85624200D01*
X192006177Y-85630601D01*
X192006170Y-85630603D01*
X191871463Y-85680845D01*
X191871456Y-85680849D01*
X191756362Y-85767009D01*
X191756359Y-85767012D01*
X191670199Y-85882106D01*
X191670195Y-85882113D01*
X191619953Y-86016820D01*
X191619951Y-86016827D01*
X191613550Y-86076355D01*
X136000000Y-86076355D01*
X136000000Y-80179447D01*
X151489700Y-80179447D01*
X151489700Y-80411552D01*
X151519994Y-80641648D01*
X151580062Y-80865828D01*
X151668877Y-81080245D01*
X151668885Y-81080262D01*
X151784920Y-81281243D01*
X151784921Y-81281245D01*
X151926209Y-81465375D01*
X151926215Y-81465382D01*
X152090317Y-81629484D01*
X152090324Y-81629490D01*
X152274454Y-81770778D01*
X152274456Y-81770779D01*
X152475437Y-81886814D01*
X152475440Y-81886815D01*
X152475448Y-81886820D01*
X152689870Y-81975637D01*
X152914051Y-82035706D01*
X153144155Y-82066000D01*
X153144162Y-82066000D01*
X153376238Y-82066000D01*
X153376245Y-82066000D01*
X153606349Y-82035706D01*
X153830530Y-81975637D01*
X154044952Y-81886820D01*
X154245948Y-81770776D01*
X154430077Y-81629489D01*
X154594189Y-81465377D01*
X154735476Y-81281248D01*
X154851520Y-81080252D01*
X154940337Y-80865830D01*
X155000406Y-80641649D01*
X155030700Y-80411545D01*
X155030700Y-80179455D01*
X155000406Y-79949351D01*
X154940337Y-79725170D01*
X154851520Y-79510748D01*
X154851514Y-79510737D01*
X154735479Y-79309756D01*
X154735478Y-79309754D01*
X154594190Y-79125624D01*
X154594184Y-79125617D01*
X154430082Y-78961515D01*
X154430075Y-78961509D01*
X154245945Y-78820221D01*
X154245943Y-78820220D01*
X154044962Y-78704185D01*
X154044954Y-78704181D01*
X154044952Y-78704180D01*
X153830530Y-78615363D01*
X153830531Y-78615363D01*
X153830528Y-78615362D01*
X153688403Y-78577280D01*
X153606349Y-78555294D01*
X153577586Y-78551507D01*
X153376252Y-78525000D01*
X153376245Y-78525000D01*
X153144155Y-78525000D01*
X153144147Y-78525000D01*
X152914051Y-78555294D01*
X152689871Y-78615362D01*
X152475454Y-78704177D01*
X152475437Y-78704185D01*
X152274456Y-78820220D01*
X152274454Y-78820221D01*
X152090324Y-78961509D01*
X152090317Y-78961515D01*
X151926215Y-79125617D01*
X151926209Y-79125624D01*
X151784921Y-79309754D01*
X151784920Y-79309756D01*
X151668885Y-79510737D01*
X151668877Y-79510754D01*
X151580062Y-79725171D01*
X151519994Y-79949351D01*
X151489700Y-80179447D01*
X136000000Y-80179447D01*
X136000000Y-75988494D01*
X151490200Y-75988494D01*
X151490200Y-76220505D01*
X151490201Y-76220522D01*
X151520483Y-76450540D01*
X151520486Y-76450553D01*
X151580536Y-76674667D01*
X151669324Y-76889021D01*
X151669332Y-76889038D01*
X151785336Y-77089961D01*
X151785342Y-77089969D01*
X151844317Y-77166827D01*
X152477653Y-76533492D01*
X152569669Y-76671204D01*
X152693496Y-76795031D01*
X152831206Y-76887046D01*
X152197871Y-77520381D01*
X152274730Y-77579357D01*
X152274738Y-77579363D01*
X152475661Y-77695367D01*
X152475678Y-77695375D01*
X152690032Y-77784163D01*
X152914146Y-77844213D01*
X152914159Y-77844216D01*
X153144177Y-77874498D01*
X153144195Y-77874500D01*
X153376205Y-77874500D01*
X153376222Y-77874498D01*
X153606240Y-77844216D01*
X153606253Y-77844213D01*
X153830367Y-77784163D01*
X154044721Y-77695375D01*
X154044738Y-77695367D01*
X154245675Y-77579355D01*
X154322527Y-77520383D01*
X154322527Y-77520380D01*
X153689192Y-76887046D01*
X153826904Y-76795031D01*
X153950731Y-76671204D01*
X154042746Y-76533493D01*
X154676080Y-77166827D01*
X154676083Y-77166827D01*
X154735055Y-77089975D01*
X154851067Y-76889038D01*
X154851075Y-76889021D01*
X154939863Y-76674667D01*
X154999913Y-76450553D01*
X154999916Y-76450540D01*
X155030198Y-76220522D01*
X155030200Y-76220505D01*
X155030200Y-75988494D01*
X155030198Y-75988477D01*
X154999916Y-75758459D01*
X154999913Y-75758446D01*
X154939863Y-75534332D01*
X154851075Y-75319978D01*
X154851067Y-75319961D01*
X154735063Y-75119038D01*
X154735057Y-75119030D01*
X154676081Y-75042171D01*
X154042746Y-75675506D01*
X153950731Y-75537796D01*
X153826904Y-75413969D01*
X153689192Y-75321953D01*
X154322527Y-74688617D01*
X154245669Y-74629642D01*
X154245661Y-74629636D01*
X154044738Y-74513632D01*
X154044721Y-74513624D01*
X153830367Y-74424836D01*
X153606253Y-74364786D01*
X153606240Y-74364783D01*
X153376222Y-74334501D01*
X153376205Y-74334500D01*
X153144195Y-74334500D01*
X153144177Y-74334501D01*
X152914159Y-74364783D01*
X152914146Y-74364786D01*
X152690032Y-74424836D01*
X152475678Y-74513624D01*
X152475661Y-74513632D01*
X152274741Y-74629634D01*
X152274733Y-74629640D01*
X152197871Y-74688616D01*
X152197871Y-74688617D01*
X152831207Y-75321953D01*
X152693496Y-75413969D01*
X152569669Y-75537796D01*
X152477653Y-75675506D01*
X151844317Y-75042171D01*
X151844316Y-75042171D01*
X151785340Y-75119033D01*
X151785334Y-75119041D01*
X151669332Y-75319961D01*
X151669324Y-75319978D01*
X151580536Y-75534332D01*
X151520486Y-75758446D01*
X151520483Y-75758459D01*
X151490201Y-75988477D01*
X151490200Y-75988494D01*
X136000000Y-75988494D01*
X136000000Y-67621876D01*
X136019685Y-67554837D01*
X136072489Y-67509082D01*
X136123810Y-67497876D01*
X137274957Y-67496156D01*
X137342026Y-67515741D01*
X137387859Y-67568476D01*
X137397906Y-67637620D01*
X137368976Y-67701219D01*
X137313463Y-67738085D01*
X137281588Y-67748443D01*
X137281582Y-67748445D01*
X137092179Y-67844951D01*
X136920213Y-67969890D01*
X136769890Y-68120213D01*
X136644951Y-68292179D01*
X136548444Y-68481585D01*
X136482753Y-68683760D01*
X136449500Y-68893713D01*
X136449500Y-69106286D01*
X136482753Y-69316239D01*
X136548444Y-69518414D01*
X136644951Y-69707820D01*
X136769890Y-69879786D01*
X136920213Y-70030109D01*
X137092179Y-70155048D01*
X137092181Y-70155049D01*
X137092184Y-70155051D01*
X137281588Y-70251557D01*
X137483757Y-70317246D01*
X137693713Y-70350500D01*
X137693714Y-70350500D01*
X137906286Y-70350500D01*
X137906287Y-70350500D01*
X138116243Y-70317246D01*
X138318412Y-70251557D01*
X138507816Y-70155051D01*
X138529789Y-70139086D01*
X138679786Y-70030109D01*
X138679788Y-70030106D01*
X138679792Y-70030104D01*
X138830104Y-69879792D01*
X138830106Y-69879788D01*
X138830109Y-69879786D01*
X138955048Y-69707820D01*
X138955047Y-69707820D01*
X138955051Y-69707816D01*
X139051557Y-69518412D01*
X139117246Y-69316243D01*
X139150500Y-69106287D01*
X139150500Y-68893713D01*
X198849500Y-68893713D01*
X198849500Y-69106286D01*
X198882753Y-69316239D01*
X198948444Y-69518414D01*
X199044951Y-69707820D01*
X199169890Y-69879786D01*
X199320213Y-70030109D01*
X199492179Y-70155048D01*
X199492181Y-70155049D01*
X199492184Y-70155051D01*
X199681588Y-70251557D01*
X199883757Y-70317246D01*
X200093713Y-70350500D01*
X200093714Y-70350500D01*
X200306286Y-70350500D01*
X200306287Y-70350500D01*
X200516243Y-70317246D01*
X200718412Y-70251557D01*
X200907816Y-70155051D01*
X200929789Y-70139086D01*
X201079786Y-70030109D01*
X201079788Y-70030106D01*
X201079792Y-70030104D01*
X201230104Y-69879792D01*
X201230106Y-69879788D01*
X201230109Y-69879786D01*
X201355048Y-69707820D01*
X201355047Y-69707820D01*
X201355051Y-69707816D01*
X201451557Y-69518412D01*
X201517246Y-69316243D01*
X201550500Y-69106287D01*
X201550500Y-68893713D01*
X201517246Y-68683757D01*
X201451557Y-68481588D01*
X201355051Y-68292184D01*
X201355049Y-68292181D01*
X201355048Y-68292179D01*
X201230109Y-68120213D01*
X201079786Y-67969890D01*
X200907820Y-67844951D01*
X200718414Y-67748444D01*
X200718413Y-67748443D01*
X200718412Y-67748443D01*
X200516243Y-67682754D01*
X200516241Y-67682753D01*
X200516240Y-67682753D01*
X200309023Y-67649933D01*
X200309020Y-67649933D01*
X200306287Y-67649500D01*
X200093713Y-67649500D01*
X200088902Y-67650261D01*
X200088893Y-67650262D01*
X199883760Y-67682753D01*
X199681585Y-67748444D01*
X199492179Y-67844951D01*
X199320213Y-67969890D01*
X199169890Y-68120213D01*
X199044951Y-68292179D01*
X198948444Y-68481585D01*
X198882753Y-68683760D01*
X198849500Y-68893713D01*
X139150500Y-68893713D01*
X139117246Y-68683757D01*
X139051557Y-68481588D01*
X138955051Y-68292184D01*
X138955049Y-68292181D01*
X138955048Y-68292179D01*
X138830109Y-68120213D01*
X138679786Y-67969890D01*
X138507820Y-67844951D01*
X138318416Y-67748444D01*
X138303464Y-67743586D01*
X138281729Y-67736524D01*
X138224056Y-67697087D01*
X138196858Y-67632728D01*
X138208773Y-67563882D01*
X138256017Y-67512406D01*
X138319863Y-67494594D01*
X203974422Y-67396454D01*
X204041487Y-67416038D01*
G37*
%TD.AperFunction*%
%TD*%
M02*
