%TF.GenerationSoftware,KiCad,Pcbnew,9.0.4*%
%TF.CreationDate,2026-02-21T13:05:31-07:00*%
%TF.ProjectId,Voltage_Indicator,566f6c74-6167-4655-9f49-6e6469636174,rev?*%
%TF.SameCoordinates,Original*%
%TF.FileFunction,Legend,Top*%
%TF.FilePolarity,Positive*%
%FSLAX46Y46*%
G04 Gerber Fmt 4.6, Leading zero omitted, Abs format (unit mm)*
G04 Created by KiCad (PCBNEW 9.0.4) date 2026-02-21 13:05:31*
%MOMM*%
%LPD*%
G01*
G04 APERTURE LIST*
%ADD10C,0.150000*%
%ADD11C,0.254000*%
%ADD12C,0.200000*%
%ADD13C,0.120000*%
%ADD14C,0.152400*%
%ADD15C,0.127000*%
G04 APERTURE END LIST*
D10*
X157405819Y-91008333D02*
X158120104Y-91008333D01*
X158120104Y-91008333D02*
X158262961Y-91055952D01*
X158262961Y-91055952D02*
X158358200Y-91151190D01*
X158358200Y-91151190D02*
X158405819Y-91294047D01*
X158405819Y-91294047D02*
X158405819Y-91389285D01*
X158405819Y-90008333D02*
X158405819Y-90579761D01*
X158405819Y-90294047D02*
X157405819Y-90294047D01*
X157405819Y-90294047D02*
X157548676Y-90389285D01*
X157548676Y-90389285D02*
X157643914Y-90484523D01*
X157643914Y-90484523D02*
X157691533Y-90579761D01*
X169418133Y-121384819D02*
X169084800Y-120908628D01*
X168846705Y-121384819D02*
X168846705Y-120384819D01*
X168846705Y-120384819D02*
X169227657Y-120384819D01*
X169227657Y-120384819D02*
X169322895Y-120432438D01*
X169322895Y-120432438D02*
X169370514Y-120480057D01*
X169370514Y-120480057D02*
X169418133Y-120575295D01*
X169418133Y-120575295D02*
X169418133Y-120718152D01*
X169418133Y-120718152D02*
X169370514Y-120813390D01*
X169370514Y-120813390D02*
X169322895Y-120861009D01*
X169322895Y-120861009D02*
X169227657Y-120908628D01*
X169227657Y-120908628D02*
X168846705Y-120908628D01*
X170322895Y-120384819D02*
X169846705Y-120384819D01*
X169846705Y-120384819D02*
X169799086Y-120861009D01*
X169799086Y-120861009D02*
X169846705Y-120813390D01*
X169846705Y-120813390D02*
X169941943Y-120765771D01*
X169941943Y-120765771D02*
X170180038Y-120765771D01*
X170180038Y-120765771D02*
X170275276Y-120813390D01*
X170275276Y-120813390D02*
X170322895Y-120861009D01*
X170322895Y-120861009D02*
X170370514Y-120956247D01*
X170370514Y-120956247D02*
X170370514Y-121194342D01*
X170370514Y-121194342D02*
X170322895Y-121289580D01*
X170322895Y-121289580D02*
X170275276Y-121337200D01*
X170275276Y-121337200D02*
X170180038Y-121384819D01*
X170180038Y-121384819D02*
X169941943Y-121384819D01*
X169941943Y-121384819D02*
X169846705Y-121337200D01*
X169846705Y-121337200D02*
X169799086Y-121289580D01*
X165203233Y-111734819D02*
X164869900Y-111258628D01*
X164631805Y-111734819D02*
X164631805Y-110734819D01*
X164631805Y-110734819D02*
X165012757Y-110734819D01*
X165012757Y-110734819D02*
X165107995Y-110782438D01*
X165107995Y-110782438D02*
X165155614Y-110830057D01*
X165155614Y-110830057D02*
X165203233Y-110925295D01*
X165203233Y-110925295D02*
X165203233Y-111068152D01*
X165203233Y-111068152D02*
X165155614Y-111163390D01*
X165155614Y-111163390D02*
X165107995Y-111211009D01*
X165107995Y-111211009D02*
X165012757Y-111258628D01*
X165012757Y-111258628D02*
X164631805Y-111258628D01*
X166060376Y-111068152D02*
X166060376Y-111734819D01*
X165822281Y-110687200D02*
X165584186Y-111401485D01*
X165584186Y-111401485D02*
X166203233Y-111401485D01*
X169118133Y-109474819D02*
X168784800Y-108998628D01*
X168546705Y-109474819D02*
X168546705Y-108474819D01*
X168546705Y-108474819D02*
X168927657Y-108474819D01*
X168927657Y-108474819D02*
X169022895Y-108522438D01*
X169022895Y-108522438D02*
X169070514Y-108570057D01*
X169070514Y-108570057D02*
X169118133Y-108665295D01*
X169118133Y-108665295D02*
X169118133Y-108808152D01*
X169118133Y-108808152D02*
X169070514Y-108903390D01*
X169070514Y-108903390D02*
X169022895Y-108951009D01*
X169022895Y-108951009D02*
X168927657Y-108998628D01*
X168927657Y-108998628D02*
X168546705Y-108998628D01*
X169451467Y-108474819D02*
X170070514Y-108474819D01*
X170070514Y-108474819D02*
X169737181Y-108855771D01*
X169737181Y-108855771D02*
X169880038Y-108855771D01*
X169880038Y-108855771D02*
X169975276Y-108903390D01*
X169975276Y-108903390D02*
X170022895Y-108951009D01*
X170022895Y-108951009D02*
X170070514Y-109046247D01*
X170070514Y-109046247D02*
X170070514Y-109284342D01*
X170070514Y-109284342D02*
X170022895Y-109379580D01*
X170022895Y-109379580D02*
X169975276Y-109427200D01*
X169975276Y-109427200D02*
X169880038Y-109474819D01*
X169880038Y-109474819D02*
X169594324Y-109474819D01*
X169594324Y-109474819D02*
X169499086Y-109427200D01*
X169499086Y-109427200D02*
X169451467Y-109379580D01*
X165603233Y-99334819D02*
X165269900Y-98858628D01*
X165031805Y-99334819D02*
X165031805Y-98334819D01*
X165031805Y-98334819D02*
X165412757Y-98334819D01*
X165412757Y-98334819D02*
X165507995Y-98382438D01*
X165507995Y-98382438D02*
X165555614Y-98430057D01*
X165555614Y-98430057D02*
X165603233Y-98525295D01*
X165603233Y-98525295D02*
X165603233Y-98668152D01*
X165603233Y-98668152D02*
X165555614Y-98763390D01*
X165555614Y-98763390D02*
X165507995Y-98811009D01*
X165507995Y-98811009D02*
X165412757Y-98858628D01*
X165412757Y-98858628D02*
X165031805Y-98858628D01*
X166555614Y-99334819D02*
X165984186Y-99334819D01*
X166269900Y-99334819D02*
X166269900Y-98334819D01*
X166269900Y-98334819D02*
X166174662Y-98477676D01*
X166174662Y-98477676D02*
X166079424Y-98572914D01*
X166079424Y-98572914D02*
X165984186Y-98620533D01*
X165912233Y-84854819D02*
X165578900Y-84378628D01*
X165340805Y-84854819D02*
X165340805Y-83854819D01*
X165340805Y-83854819D02*
X165721757Y-83854819D01*
X165721757Y-83854819D02*
X165816995Y-83902438D01*
X165816995Y-83902438D02*
X165864614Y-83950057D01*
X165864614Y-83950057D02*
X165912233Y-84045295D01*
X165912233Y-84045295D02*
X165912233Y-84188152D01*
X165912233Y-84188152D02*
X165864614Y-84283390D01*
X165864614Y-84283390D02*
X165816995Y-84331009D01*
X165816995Y-84331009D02*
X165721757Y-84378628D01*
X165721757Y-84378628D02*
X165340805Y-84378628D01*
X166769376Y-83854819D02*
X166578900Y-83854819D01*
X166578900Y-83854819D02*
X166483662Y-83902438D01*
X166483662Y-83902438D02*
X166436043Y-83950057D01*
X166436043Y-83950057D02*
X166340805Y-84092914D01*
X166340805Y-84092914D02*
X166293186Y-84283390D01*
X166293186Y-84283390D02*
X166293186Y-84664342D01*
X166293186Y-84664342D02*
X166340805Y-84759580D01*
X166340805Y-84759580D02*
X166388424Y-84807200D01*
X166388424Y-84807200D02*
X166483662Y-84854819D01*
X166483662Y-84854819D02*
X166674138Y-84854819D01*
X166674138Y-84854819D02*
X166769376Y-84807200D01*
X166769376Y-84807200D02*
X166816995Y-84759580D01*
X166816995Y-84759580D02*
X166864614Y-84664342D01*
X166864614Y-84664342D02*
X166864614Y-84426247D01*
X166864614Y-84426247D02*
X166816995Y-84331009D01*
X166816995Y-84331009D02*
X166769376Y-84283390D01*
X166769376Y-84283390D02*
X166674138Y-84235771D01*
X166674138Y-84235771D02*
X166483662Y-84235771D01*
X166483662Y-84235771D02*
X166388424Y-84283390D01*
X166388424Y-84283390D02*
X166340805Y-84331009D01*
X166340805Y-84331009D02*
X166293186Y-84426247D01*
X180672433Y-70369580D02*
X180624814Y-70417200D01*
X180624814Y-70417200D02*
X180481957Y-70464819D01*
X180481957Y-70464819D02*
X180386719Y-70464819D01*
X180386719Y-70464819D02*
X180243862Y-70417200D01*
X180243862Y-70417200D02*
X180148624Y-70321961D01*
X180148624Y-70321961D02*
X180101005Y-70226723D01*
X180101005Y-70226723D02*
X180053386Y-70036247D01*
X180053386Y-70036247D02*
X180053386Y-69893390D01*
X180053386Y-69893390D02*
X180101005Y-69702914D01*
X180101005Y-69702914D02*
X180148624Y-69607676D01*
X180148624Y-69607676D02*
X180243862Y-69512438D01*
X180243862Y-69512438D02*
X180386719Y-69464819D01*
X180386719Y-69464819D02*
X180481957Y-69464819D01*
X180481957Y-69464819D02*
X180624814Y-69512438D01*
X180624814Y-69512438D02*
X180672433Y-69560057D01*
X181672433Y-70464819D02*
X181339100Y-69988628D01*
X181101005Y-70464819D02*
X181101005Y-69464819D01*
X181101005Y-69464819D02*
X181481957Y-69464819D01*
X181481957Y-69464819D02*
X181577195Y-69512438D01*
X181577195Y-69512438D02*
X181624814Y-69560057D01*
X181624814Y-69560057D02*
X181672433Y-69655295D01*
X181672433Y-69655295D02*
X181672433Y-69798152D01*
X181672433Y-69798152D02*
X181624814Y-69893390D01*
X181624814Y-69893390D02*
X181577195Y-69941009D01*
X181577195Y-69941009D02*
X181481957Y-69988628D01*
X181481957Y-69988628D02*
X181101005Y-69988628D01*
X182053386Y-69560057D02*
X182101005Y-69512438D01*
X182101005Y-69512438D02*
X182196243Y-69464819D01*
X182196243Y-69464819D02*
X182434338Y-69464819D01*
X182434338Y-69464819D02*
X182529576Y-69512438D01*
X182529576Y-69512438D02*
X182577195Y-69560057D01*
X182577195Y-69560057D02*
X182624814Y-69655295D01*
X182624814Y-69655295D02*
X182624814Y-69750533D01*
X182624814Y-69750533D02*
X182577195Y-69893390D01*
X182577195Y-69893390D02*
X182005767Y-70464819D01*
X182005767Y-70464819D02*
X182624814Y-70464819D01*
X177529100Y-86299019D02*
X177529100Y-86537114D01*
X177291005Y-86441876D02*
X177529100Y-86537114D01*
X177529100Y-86537114D02*
X177767195Y-86441876D01*
X177386243Y-86727590D02*
X177529100Y-86537114D01*
X177529100Y-86537114D02*
X177671957Y-86727590D01*
X177529100Y-86299019D02*
X177529100Y-86537114D01*
X177291005Y-86441876D02*
X177529100Y-86537114D01*
X177529100Y-86537114D02*
X177767195Y-86441876D01*
X177386243Y-86727590D02*
X177529100Y-86537114D01*
X177529100Y-86537114D02*
X177671957Y-86727590D01*
X185593919Y-101576666D02*
X185117728Y-101909999D01*
X185593919Y-102148094D02*
X184593919Y-102148094D01*
X184593919Y-102148094D02*
X184593919Y-101767142D01*
X184593919Y-101767142D02*
X184641538Y-101671904D01*
X184641538Y-101671904D02*
X184689157Y-101624285D01*
X184689157Y-101624285D02*
X184784395Y-101576666D01*
X184784395Y-101576666D02*
X184927252Y-101576666D01*
X184927252Y-101576666D02*
X185022490Y-101624285D01*
X185022490Y-101624285D02*
X185070109Y-101671904D01*
X185070109Y-101671904D02*
X185117728Y-101767142D01*
X185117728Y-101767142D02*
X185117728Y-102148094D01*
X184593919Y-101243332D02*
X184593919Y-100576666D01*
X184593919Y-100576666D02*
X185593919Y-101005237D01*
D11*
X191931904Y-109574318D02*
X191931904Y-108304318D01*
X191931904Y-108304318D02*
X192355238Y-109211461D01*
X192355238Y-109211461D02*
X192778571Y-108304318D01*
X192778571Y-108304318D02*
X192778571Y-109574318D01*
X193867143Y-109513842D02*
X193746191Y-109574318D01*
X193746191Y-109574318D02*
X193504286Y-109574318D01*
X193504286Y-109574318D02*
X193383333Y-109513842D01*
X193383333Y-109513842D02*
X193322857Y-109392889D01*
X193322857Y-109392889D02*
X193322857Y-108909080D01*
X193322857Y-108909080D02*
X193383333Y-108788127D01*
X193383333Y-108788127D02*
X193504286Y-108727651D01*
X193504286Y-108727651D02*
X193746191Y-108727651D01*
X193746191Y-108727651D02*
X193867143Y-108788127D01*
X193867143Y-108788127D02*
X193927619Y-108909080D01*
X193927619Y-108909080D02*
X193927619Y-109030032D01*
X193927619Y-109030032D02*
X193322857Y-109150984D01*
X195016190Y-109574318D02*
X195016190Y-108909080D01*
X195016190Y-108909080D02*
X194955714Y-108788127D01*
X194955714Y-108788127D02*
X194834762Y-108727651D01*
X194834762Y-108727651D02*
X194592857Y-108727651D01*
X194592857Y-108727651D02*
X194471904Y-108788127D01*
X195016190Y-109513842D02*
X194895238Y-109574318D01*
X194895238Y-109574318D02*
X194592857Y-109574318D01*
X194592857Y-109574318D02*
X194471904Y-109513842D01*
X194471904Y-109513842D02*
X194411428Y-109392889D01*
X194411428Y-109392889D02*
X194411428Y-109271937D01*
X194411428Y-109271937D02*
X194471904Y-109150984D01*
X194471904Y-109150984D02*
X194592857Y-109090508D01*
X194592857Y-109090508D02*
X194895238Y-109090508D01*
X194895238Y-109090508D02*
X195016190Y-109030032D01*
X195560476Y-109513842D02*
X195681429Y-109574318D01*
X195681429Y-109574318D02*
X195923333Y-109574318D01*
X195923333Y-109574318D02*
X196044286Y-109513842D01*
X196044286Y-109513842D02*
X196104762Y-109392889D01*
X196104762Y-109392889D02*
X196104762Y-109332413D01*
X196104762Y-109332413D02*
X196044286Y-109211461D01*
X196044286Y-109211461D02*
X195923333Y-109150984D01*
X195923333Y-109150984D02*
X195741905Y-109150984D01*
X195741905Y-109150984D02*
X195620952Y-109090508D01*
X195620952Y-109090508D02*
X195560476Y-108969556D01*
X195560476Y-108969556D02*
X195560476Y-108909080D01*
X195560476Y-108909080D02*
X195620952Y-108788127D01*
X195620952Y-108788127D02*
X195741905Y-108727651D01*
X195741905Y-108727651D02*
X195923333Y-108727651D01*
X195923333Y-108727651D02*
X196044286Y-108788127D01*
X197193333Y-108727651D02*
X197193333Y-109574318D01*
X196649047Y-108727651D02*
X196649047Y-109392889D01*
X196649047Y-109392889D02*
X196709524Y-109513842D01*
X196709524Y-109513842D02*
X196830476Y-109574318D01*
X196830476Y-109574318D02*
X197011905Y-109574318D01*
X197011905Y-109574318D02*
X197132857Y-109513842D01*
X197132857Y-109513842D02*
X197193333Y-109453365D01*
X197798095Y-109574318D02*
X197798095Y-108727651D01*
X197798095Y-108969556D02*
X197858572Y-108848603D01*
X197858572Y-108848603D02*
X197919048Y-108788127D01*
X197919048Y-108788127D02*
X198040000Y-108727651D01*
X198040000Y-108727651D02*
X198160953Y-108727651D01*
X199068095Y-109513842D02*
X198947143Y-109574318D01*
X198947143Y-109574318D02*
X198705238Y-109574318D01*
X198705238Y-109574318D02*
X198584285Y-109513842D01*
X198584285Y-109513842D02*
X198523809Y-109392889D01*
X198523809Y-109392889D02*
X198523809Y-108909080D01*
X198523809Y-108909080D02*
X198584285Y-108788127D01*
X198584285Y-108788127D02*
X198705238Y-108727651D01*
X198705238Y-108727651D02*
X198947143Y-108727651D01*
X198947143Y-108727651D02*
X199068095Y-108788127D01*
X199068095Y-108788127D02*
X199128571Y-108909080D01*
X199128571Y-108909080D02*
X199128571Y-109030032D01*
X199128571Y-109030032D02*
X198523809Y-109150984D01*
X179658504Y-108469318D02*
X179658504Y-107199318D01*
X179658504Y-107199318D02*
X180081838Y-108106461D01*
X180081838Y-108106461D02*
X180505171Y-107199318D01*
X180505171Y-107199318D02*
X180505171Y-108469318D01*
X181593743Y-108408842D02*
X181472791Y-108469318D01*
X181472791Y-108469318D02*
X181230886Y-108469318D01*
X181230886Y-108469318D02*
X181109933Y-108408842D01*
X181109933Y-108408842D02*
X181049457Y-108287889D01*
X181049457Y-108287889D02*
X181049457Y-107804080D01*
X181049457Y-107804080D02*
X181109933Y-107683127D01*
X181109933Y-107683127D02*
X181230886Y-107622651D01*
X181230886Y-107622651D02*
X181472791Y-107622651D01*
X181472791Y-107622651D02*
X181593743Y-107683127D01*
X181593743Y-107683127D02*
X181654219Y-107804080D01*
X181654219Y-107804080D02*
X181654219Y-107925032D01*
X181654219Y-107925032D02*
X181049457Y-108045984D01*
X182742790Y-108469318D02*
X182742790Y-107804080D01*
X182742790Y-107804080D02*
X182682314Y-107683127D01*
X182682314Y-107683127D02*
X182561362Y-107622651D01*
X182561362Y-107622651D02*
X182319457Y-107622651D01*
X182319457Y-107622651D02*
X182198504Y-107683127D01*
X182742790Y-108408842D02*
X182621838Y-108469318D01*
X182621838Y-108469318D02*
X182319457Y-108469318D01*
X182319457Y-108469318D02*
X182198504Y-108408842D01*
X182198504Y-108408842D02*
X182138028Y-108287889D01*
X182138028Y-108287889D02*
X182138028Y-108166937D01*
X182138028Y-108166937D02*
X182198504Y-108045984D01*
X182198504Y-108045984D02*
X182319457Y-107985508D01*
X182319457Y-107985508D02*
X182621838Y-107985508D01*
X182621838Y-107985508D02*
X182742790Y-107925032D01*
X183287076Y-108408842D02*
X183408029Y-108469318D01*
X183408029Y-108469318D02*
X183649933Y-108469318D01*
X183649933Y-108469318D02*
X183770886Y-108408842D01*
X183770886Y-108408842D02*
X183831362Y-108287889D01*
X183831362Y-108287889D02*
X183831362Y-108227413D01*
X183831362Y-108227413D02*
X183770886Y-108106461D01*
X183770886Y-108106461D02*
X183649933Y-108045984D01*
X183649933Y-108045984D02*
X183468505Y-108045984D01*
X183468505Y-108045984D02*
X183347552Y-107985508D01*
X183347552Y-107985508D02*
X183287076Y-107864556D01*
X183287076Y-107864556D02*
X183287076Y-107804080D01*
X183287076Y-107804080D02*
X183347552Y-107683127D01*
X183347552Y-107683127D02*
X183468505Y-107622651D01*
X183468505Y-107622651D02*
X183649933Y-107622651D01*
X183649933Y-107622651D02*
X183770886Y-107683127D01*
X184919933Y-107622651D02*
X184919933Y-108469318D01*
X184375647Y-107622651D02*
X184375647Y-108287889D01*
X184375647Y-108287889D02*
X184436124Y-108408842D01*
X184436124Y-108408842D02*
X184557076Y-108469318D01*
X184557076Y-108469318D02*
X184738505Y-108469318D01*
X184738505Y-108469318D02*
X184859457Y-108408842D01*
X184859457Y-108408842D02*
X184919933Y-108348365D01*
X185524695Y-108469318D02*
X185524695Y-107622651D01*
X185524695Y-107864556D02*
X185585172Y-107743603D01*
X185585172Y-107743603D02*
X185645648Y-107683127D01*
X185645648Y-107683127D02*
X185766600Y-107622651D01*
X185766600Y-107622651D02*
X185887553Y-107622651D01*
X186794695Y-108408842D02*
X186673743Y-108469318D01*
X186673743Y-108469318D02*
X186431838Y-108469318D01*
X186431838Y-108469318D02*
X186310885Y-108408842D01*
X186310885Y-108408842D02*
X186250409Y-108287889D01*
X186250409Y-108287889D02*
X186250409Y-107804080D01*
X186250409Y-107804080D02*
X186310885Y-107683127D01*
X186310885Y-107683127D02*
X186431838Y-107622651D01*
X186431838Y-107622651D02*
X186673743Y-107622651D01*
X186673743Y-107622651D02*
X186794695Y-107683127D01*
X186794695Y-107683127D02*
X186855171Y-107804080D01*
X186855171Y-107804080D02*
X186855171Y-107925032D01*
X186855171Y-107925032D02*
X186250409Y-108045984D01*
D10*
X168803233Y-92554819D02*
X168469900Y-92078628D01*
X168231805Y-92554819D02*
X168231805Y-91554819D01*
X168231805Y-91554819D02*
X168612757Y-91554819D01*
X168612757Y-91554819D02*
X168707995Y-91602438D01*
X168707995Y-91602438D02*
X168755614Y-91650057D01*
X168755614Y-91650057D02*
X168803233Y-91745295D01*
X168803233Y-91745295D02*
X168803233Y-91888152D01*
X168803233Y-91888152D02*
X168755614Y-91983390D01*
X168755614Y-91983390D02*
X168707995Y-92031009D01*
X168707995Y-92031009D02*
X168612757Y-92078628D01*
X168612757Y-92078628D02*
X168231805Y-92078628D01*
X169184186Y-91650057D02*
X169231805Y-91602438D01*
X169231805Y-91602438D02*
X169327043Y-91554819D01*
X169327043Y-91554819D02*
X169565138Y-91554819D01*
X169565138Y-91554819D02*
X169660376Y-91602438D01*
X169660376Y-91602438D02*
X169707995Y-91650057D01*
X169707995Y-91650057D02*
X169755614Y-91745295D01*
X169755614Y-91745295D02*
X169755614Y-91840533D01*
X169755614Y-91840533D02*
X169707995Y-91983390D01*
X169707995Y-91983390D02*
X169136567Y-92554819D01*
X169136567Y-92554819D02*
X169755614Y-92554819D01*
X194727433Y-90814819D02*
X194394100Y-90338628D01*
X194156005Y-90814819D02*
X194156005Y-89814819D01*
X194156005Y-89814819D02*
X194536957Y-89814819D01*
X194536957Y-89814819D02*
X194632195Y-89862438D01*
X194632195Y-89862438D02*
X194679814Y-89910057D01*
X194679814Y-89910057D02*
X194727433Y-90005295D01*
X194727433Y-90005295D02*
X194727433Y-90148152D01*
X194727433Y-90148152D02*
X194679814Y-90243390D01*
X194679814Y-90243390D02*
X194632195Y-90291009D01*
X194632195Y-90291009D02*
X194536957Y-90338628D01*
X194536957Y-90338628D02*
X194156005Y-90338628D01*
X195298862Y-90243390D02*
X195203624Y-90195771D01*
X195203624Y-90195771D02*
X195156005Y-90148152D01*
X195156005Y-90148152D02*
X195108386Y-90052914D01*
X195108386Y-90052914D02*
X195108386Y-90005295D01*
X195108386Y-90005295D02*
X195156005Y-89910057D01*
X195156005Y-89910057D02*
X195203624Y-89862438D01*
X195203624Y-89862438D02*
X195298862Y-89814819D01*
X195298862Y-89814819D02*
X195489338Y-89814819D01*
X195489338Y-89814819D02*
X195584576Y-89862438D01*
X195584576Y-89862438D02*
X195632195Y-89910057D01*
X195632195Y-89910057D02*
X195679814Y-90005295D01*
X195679814Y-90005295D02*
X195679814Y-90052914D01*
X195679814Y-90052914D02*
X195632195Y-90148152D01*
X195632195Y-90148152D02*
X195584576Y-90195771D01*
X195584576Y-90195771D02*
X195489338Y-90243390D01*
X195489338Y-90243390D02*
X195298862Y-90243390D01*
X195298862Y-90243390D02*
X195203624Y-90291009D01*
X195203624Y-90291009D02*
X195156005Y-90338628D01*
X195156005Y-90338628D02*
X195108386Y-90433866D01*
X195108386Y-90433866D02*
X195108386Y-90624342D01*
X195108386Y-90624342D02*
X195156005Y-90719580D01*
X195156005Y-90719580D02*
X195203624Y-90767200D01*
X195203624Y-90767200D02*
X195298862Y-90814819D01*
X195298862Y-90814819D02*
X195489338Y-90814819D01*
X195489338Y-90814819D02*
X195584576Y-90767200D01*
X195584576Y-90767200D02*
X195632195Y-90719580D01*
X195632195Y-90719580D02*
X195679814Y-90624342D01*
X195679814Y-90624342D02*
X195679814Y-90433866D01*
X195679814Y-90433866D02*
X195632195Y-90338628D01*
X195632195Y-90338628D02*
X195584576Y-90291009D01*
X195584576Y-90291009D02*
X195489338Y-90243390D01*
X179372433Y-92969580D02*
X179324814Y-93017200D01*
X179324814Y-93017200D02*
X179181957Y-93064819D01*
X179181957Y-93064819D02*
X179086719Y-93064819D01*
X179086719Y-93064819D02*
X178943862Y-93017200D01*
X178943862Y-93017200D02*
X178848624Y-92921961D01*
X178848624Y-92921961D02*
X178801005Y-92826723D01*
X178801005Y-92826723D02*
X178753386Y-92636247D01*
X178753386Y-92636247D02*
X178753386Y-92493390D01*
X178753386Y-92493390D02*
X178801005Y-92302914D01*
X178801005Y-92302914D02*
X178848624Y-92207676D01*
X178848624Y-92207676D02*
X178943862Y-92112438D01*
X178943862Y-92112438D02*
X179086719Y-92064819D01*
X179086719Y-92064819D02*
X179181957Y-92064819D01*
X179181957Y-92064819D02*
X179324814Y-92112438D01*
X179324814Y-92112438D02*
X179372433Y-92160057D01*
X179753386Y-92160057D02*
X179801005Y-92112438D01*
X179801005Y-92112438D02*
X179896243Y-92064819D01*
X179896243Y-92064819D02*
X180134338Y-92064819D01*
X180134338Y-92064819D02*
X180229576Y-92112438D01*
X180229576Y-92112438D02*
X180277195Y-92160057D01*
X180277195Y-92160057D02*
X180324814Y-92255295D01*
X180324814Y-92255295D02*
X180324814Y-92350533D01*
X180324814Y-92350533D02*
X180277195Y-92493390D01*
X180277195Y-92493390D02*
X179705767Y-93064819D01*
X179705767Y-93064819D02*
X180324814Y-93064819D01*
X155503669Y-78961904D02*
X156313192Y-78961904D01*
X156313192Y-78961904D02*
X156408430Y-78914285D01*
X156408430Y-78914285D02*
X156456050Y-78866666D01*
X156456050Y-78866666D02*
X156503669Y-78771428D01*
X156503669Y-78771428D02*
X156503669Y-78580952D01*
X156503669Y-78580952D02*
X156456050Y-78485714D01*
X156456050Y-78485714D02*
X156408430Y-78438095D01*
X156408430Y-78438095D02*
X156313192Y-78390476D01*
X156313192Y-78390476D02*
X155503669Y-78390476D01*
X155598907Y-77961904D02*
X155551288Y-77914285D01*
X155551288Y-77914285D02*
X155503669Y-77819047D01*
X155503669Y-77819047D02*
X155503669Y-77580952D01*
X155503669Y-77580952D02*
X155551288Y-77485714D01*
X155551288Y-77485714D02*
X155598907Y-77438095D01*
X155598907Y-77438095D02*
X155694145Y-77390476D01*
X155694145Y-77390476D02*
X155789383Y-77390476D01*
X155789383Y-77390476D02*
X155932240Y-77438095D01*
X155932240Y-77438095D02*
X156503669Y-78009523D01*
X156503669Y-78009523D02*
X156503669Y-77390476D01*
X154654819Y-82613285D02*
X154654819Y-83184713D01*
X154654819Y-82898999D02*
X153654819Y-82898999D01*
X153654819Y-82898999D02*
X153797676Y-82994237D01*
X153797676Y-82994237D02*
X153892914Y-83089475D01*
X153892914Y-83089475D02*
X153940533Y-83184713D01*
X180398680Y-95176666D02*
X180446300Y-95224285D01*
X180446300Y-95224285D02*
X180493919Y-95367142D01*
X180493919Y-95367142D02*
X180493919Y-95462380D01*
X180493919Y-95462380D02*
X180446300Y-95605237D01*
X180446300Y-95605237D02*
X180351061Y-95700475D01*
X180351061Y-95700475D02*
X180255823Y-95748094D01*
X180255823Y-95748094D02*
X180065347Y-95795713D01*
X180065347Y-95795713D02*
X179922490Y-95795713D01*
X179922490Y-95795713D02*
X179732014Y-95748094D01*
X179732014Y-95748094D02*
X179636776Y-95700475D01*
X179636776Y-95700475D02*
X179541538Y-95605237D01*
X179541538Y-95605237D02*
X179493919Y-95462380D01*
X179493919Y-95462380D02*
X179493919Y-95367142D01*
X179493919Y-95367142D02*
X179541538Y-95224285D01*
X179541538Y-95224285D02*
X179589157Y-95176666D01*
X179827252Y-94319523D02*
X180493919Y-94319523D01*
X179446300Y-94557618D02*
X180160585Y-94795713D01*
X180160585Y-94795713D02*
X180160585Y-94176666D01*
X196001005Y-101864819D02*
X196001005Y-100864819D01*
X196572433Y-101864819D02*
X196143862Y-101293390D01*
X196572433Y-100864819D02*
X196001005Y-101436247D01*
X197524814Y-101864819D02*
X196953386Y-101864819D01*
X197239100Y-101864819D02*
X197239100Y-100864819D01*
X197239100Y-100864819D02*
X197143862Y-101007676D01*
X197143862Y-101007676D02*
X197048624Y-101102914D01*
X197048624Y-101102914D02*
X196953386Y-101150533D01*
X191824200Y-94616419D02*
X191824200Y-94854514D01*
X191586105Y-94759276D02*
X191824200Y-94854514D01*
X191824200Y-94854514D02*
X192062295Y-94759276D01*
X191681343Y-95044990D02*
X191824200Y-94854514D01*
X191824200Y-94854514D02*
X191967057Y-95044990D01*
X191824200Y-94616419D02*
X191824200Y-94854514D01*
X191586105Y-94759276D02*
X191824200Y-94854514D01*
X191824200Y-94854514D02*
X192062295Y-94759276D01*
X191681343Y-95044990D02*
X191824200Y-94854514D01*
X191824200Y-94854514D02*
X191967057Y-95044990D01*
X193402683Y-83369580D02*
X193355064Y-83417200D01*
X193355064Y-83417200D02*
X193212207Y-83464819D01*
X193212207Y-83464819D02*
X193116969Y-83464819D01*
X193116969Y-83464819D02*
X192974112Y-83417200D01*
X192974112Y-83417200D02*
X192878874Y-83321961D01*
X192878874Y-83321961D02*
X192831255Y-83226723D01*
X192831255Y-83226723D02*
X192783636Y-83036247D01*
X192783636Y-83036247D02*
X192783636Y-82893390D01*
X192783636Y-82893390D02*
X192831255Y-82702914D01*
X192831255Y-82702914D02*
X192878874Y-82607676D01*
X192878874Y-82607676D02*
X192974112Y-82512438D01*
X192974112Y-82512438D02*
X193116969Y-82464819D01*
X193116969Y-82464819D02*
X193212207Y-82464819D01*
X193212207Y-82464819D02*
X193355064Y-82512438D01*
X193355064Y-82512438D02*
X193402683Y-82560057D01*
X194402683Y-83464819D02*
X194069350Y-82988628D01*
X193831255Y-83464819D02*
X193831255Y-82464819D01*
X193831255Y-82464819D02*
X194212207Y-82464819D01*
X194212207Y-82464819D02*
X194307445Y-82512438D01*
X194307445Y-82512438D02*
X194355064Y-82560057D01*
X194355064Y-82560057D02*
X194402683Y-82655295D01*
X194402683Y-82655295D02*
X194402683Y-82798152D01*
X194402683Y-82798152D02*
X194355064Y-82893390D01*
X194355064Y-82893390D02*
X194307445Y-82941009D01*
X194307445Y-82941009D02*
X194212207Y-82988628D01*
X194212207Y-82988628D02*
X193831255Y-82988628D01*
X195355064Y-83464819D02*
X194783636Y-83464819D01*
X195069350Y-83464819D02*
X195069350Y-82464819D01*
X195069350Y-82464819D02*
X194974112Y-82607676D01*
X194974112Y-82607676D02*
X194878874Y-82702914D01*
X194878874Y-82702914D02*
X194783636Y-82750533D01*
X180550045Y-98064819D02*
X180550045Y-98874342D01*
X180550045Y-98874342D02*
X180597664Y-98969580D01*
X180597664Y-98969580D02*
X180645283Y-99017200D01*
X180645283Y-99017200D02*
X180740521Y-99064819D01*
X180740521Y-99064819D02*
X180930997Y-99064819D01*
X180930997Y-99064819D02*
X181026235Y-99017200D01*
X181026235Y-99017200D02*
X181073854Y-98969580D01*
X181073854Y-98969580D02*
X181121473Y-98874342D01*
X181121473Y-98874342D02*
X181121473Y-98064819D01*
X182121473Y-99064819D02*
X181550045Y-99064819D01*
X181835759Y-99064819D02*
X181835759Y-98064819D01*
X181835759Y-98064819D02*
X181740521Y-98207676D01*
X181740521Y-98207676D02*
X181645283Y-98302914D01*
X181645283Y-98302914D02*
X181550045Y-98350533D01*
X179730800Y-98214661D02*
X179730800Y-98452756D01*
X179492705Y-98357518D02*
X179730800Y-98452756D01*
X179730800Y-98452756D02*
X179968895Y-98357518D01*
X179587943Y-98643232D02*
X179730800Y-98452756D01*
X179730800Y-98452756D02*
X179873657Y-98643232D01*
X179730800Y-98214661D02*
X179730800Y-98452756D01*
X179492705Y-98357518D02*
X179730800Y-98452756D01*
X179730800Y-98452756D02*
X179968895Y-98357518D01*
X179587943Y-98643232D02*
X179730800Y-98452756D01*
X179730800Y-98452756D02*
X179873657Y-98643232D01*
X183072433Y-92969580D02*
X183024814Y-93017200D01*
X183024814Y-93017200D02*
X182881957Y-93064819D01*
X182881957Y-93064819D02*
X182786719Y-93064819D01*
X182786719Y-93064819D02*
X182643862Y-93017200D01*
X182643862Y-93017200D02*
X182548624Y-92921961D01*
X182548624Y-92921961D02*
X182501005Y-92826723D01*
X182501005Y-92826723D02*
X182453386Y-92636247D01*
X182453386Y-92636247D02*
X182453386Y-92493390D01*
X182453386Y-92493390D02*
X182501005Y-92302914D01*
X182501005Y-92302914D02*
X182548624Y-92207676D01*
X182548624Y-92207676D02*
X182643862Y-92112438D01*
X182643862Y-92112438D02*
X182786719Y-92064819D01*
X182786719Y-92064819D02*
X182881957Y-92064819D01*
X182881957Y-92064819D02*
X183024814Y-92112438D01*
X183024814Y-92112438D02*
X183072433Y-92160057D01*
X184024814Y-93064819D02*
X183453386Y-93064819D01*
X183739100Y-93064819D02*
X183739100Y-92064819D01*
X183739100Y-92064819D02*
X183643862Y-92207676D01*
X183643862Y-92207676D02*
X183548624Y-92302914D01*
X183548624Y-92302914D02*
X183453386Y-92350533D01*
X186098680Y-95176666D02*
X186146300Y-95224285D01*
X186146300Y-95224285D02*
X186193919Y-95367142D01*
X186193919Y-95367142D02*
X186193919Y-95462380D01*
X186193919Y-95462380D02*
X186146300Y-95605237D01*
X186146300Y-95605237D02*
X186051061Y-95700475D01*
X186051061Y-95700475D02*
X185955823Y-95748094D01*
X185955823Y-95748094D02*
X185765347Y-95795713D01*
X185765347Y-95795713D02*
X185622490Y-95795713D01*
X185622490Y-95795713D02*
X185432014Y-95748094D01*
X185432014Y-95748094D02*
X185336776Y-95700475D01*
X185336776Y-95700475D02*
X185241538Y-95605237D01*
X185241538Y-95605237D02*
X185193919Y-95462380D01*
X185193919Y-95462380D02*
X185193919Y-95367142D01*
X185193919Y-95367142D02*
X185241538Y-95224285D01*
X185241538Y-95224285D02*
X185289157Y-95176666D01*
X185193919Y-94843332D02*
X185193919Y-94224285D01*
X185193919Y-94224285D02*
X185574871Y-94557618D01*
X185574871Y-94557618D02*
X185574871Y-94414761D01*
X185574871Y-94414761D02*
X185622490Y-94319523D01*
X185622490Y-94319523D02*
X185670109Y-94271904D01*
X185670109Y-94271904D02*
X185765347Y-94224285D01*
X185765347Y-94224285D02*
X186003442Y-94224285D01*
X186003442Y-94224285D02*
X186098680Y-94271904D01*
X186098680Y-94271904D02*
X186146300Y-94319523D01*
X186146300Y-94319523D02*
X186193919Y-94414761D01*
X186193919Y-94414761D02*
X186193919Y-94700475D01*
X186193919Y-94700475D02*
X186146300Y-94795713D01*
X186146300Y-94795713D02*
X186098680Y-94843332D01*
D12*
%TO.C,J1*%
X153520000Y-87750000D02*
X153520000Y-96405000D01*
X141650000Y-87750000D02*
X153520000Y-87750000D01*
X153520000Y-116960000D02*
X153520000Y-108305000D01*
X153520000Y-116960000D02*
X141650000Y-116960000D01*
X141650000Y-116960000D02*
X141650000Y-87750000D01*
X154963000Y-106800000D02*
G75*
G02*
X154763000Y-106800000I-100000J0D01*
G01*
X154763000Y-106800000D02*
G75*
G02*
X154963000Y-106800000I100000J0D01*
G01*
D13*
%TO.C,R5*%
X170311864Y-120010000D02*
X168857736Y-120010000D01*
X170311864Y-118190000D02*
X168857736Y-118190000D01*
%TO.C,R4*%
X164642836Y-112190000D02*
X166096964Y-112190000D01*
X164642836Y-114010000D02*
X166096964Y-114010000D01*
%TO.C,R3*%
X170011864Y-108110000D02*
X168557736Y-108110000D01*
X170011864Y-106290000D02*
X168557736Y-106290000D01*
%TO.C,R1*%
X165042836Y-99790000D02*
X166496964Y-99790000D01*
X165042836Y-101610000D02*
X166496964Y-101610000D01*
D14*
%TO.C,CR2*%
X176068600Y-80506249D02*
X176068600Y-82881800D01*
X176068600Y-82881800D02*
X180361200Y-82881800D01*
X178329200Y-83364400D02*
X178329200Y-84990000D01*
X179269000Y-83364400D02*
X179269000Y-84990000D01*
X180361200Y-82881800D02*
X180361200Y-84634400D01*
X180361200Y-84634400D02*
X182317000Y-84634400D01*
X182317000Y-82881800D02*
X186609600Y-82881800D01*
X182317000Y-84634400D02*
X182317000Y-82881800D01*
X183409200Y-83364400D02*
X183409200Y-84990000D01*
X184349000Y-83364400D02*
X184349000Y-84990000D01*
X186609600Y-82881800D02*
X186609600Y-80506249D01*
D11*
%TO.C,RED_TP1*%
X197090000Y-112000000D02*
G75*
G02*
X193910000Y-112000000I-1590000J0D01*
G01*
X193910000Y-112000000D02*
G75*
G02*
X197090000Y-112000000I1590000J0D01*
G01*
D12*
%TO.C,VR1*%
X188666600Y-113895000D02*
X188666600Y-113895000D01*
X188666600Y-113895000D02*
X188666600Y-113895000D01*
X188766600Y-113895000D02*
X188766600Y-113895000D01*
X188666600Y-113895000D02*
G75*
G02*
X188766600Y-113895000I50000J0D01*
G01*
X188766600Y-113895000D02*
G75*
G02*
X188666600Y-113895000I-50000J0D01*
G01*
X188766600Y-113895000D02*
G75*
G02*
X188666600Y-113895000I-50000J0D01*
G01*
D13*
%TO.C,C2*%
X179679680Y-90600000D02*
X179398520Y-90600000D01*
X179679680Y-91620000D02*
X179398520Y-91620000D01*
D15*
%TO.C,U2*%
X142008000Y-83572100D02*
X152295000Y-83572100D01*
X152295000Y-72827900D02*
X142008000Y-72827900D01*
X152295000Y-74567800D02*
X152295000Y-72827900D01*
X152295000Y-81832200D02*
X154784200Y-81832200D01*
X152295000Y-83572100D02*
X152295000Y-81832200D01*
X154784200Y-74567800D02*
X152295000Y-74567800D01*
X154784200Y-81832200D02*
X154784200Y-74567800D01*
D13*
%TO.C,C4*%
X180929100Y-95150580D02*
X180929100Y-94869420D01*
X181949100Y-95150580D02*
X181949100Y-94869420D01*
D14*
%TO.C,K1*%
X193233900Y-96203000D02*
X193233900Y-96818835D01*
X193233900Y-98381165D02*
X193233900Y-104438835D01*
X193233900Y-106001165D02*
X193233900Y-106617000D01*
X193233900Y-106617000D02*
X200244300Y-106617000D01*
X200244300Y-96203000D02*
X193233900Y-96203000D01*
X200244300Y-96818835D02*
X200244300Y-96203000D01*
X200244300Y-104438835D02*
X200244300Y-98381165D01*
X200244300Y-106617000D02*
X200244300Y-106001165D01*
%TO.C,CR1*%
X190068850Y-86175000D02*
X190068850Y-87445000D01*
X190068850Y-86810000D02*
X190830850Y-86175000D01*
X190068850Y-86810000D02*
X190830850Y-86302000D01*
X190068850Y-86810000D02*
X190830850Y-86429000D01*
X190068850Y-86810000D02*
X190830850Y-86556000D01*
X190068850Y-86810000D02*
X190830850Y-86683000D01*
X190068850Y-86810000D02*
X190830850Y-86937000D01*
X190068850Y-86810000D02*
X190830850Y-87064000D01*
X190068850Y-86810000D02*
X190830850Y-87191000D01*
X190068850Y-86810000D02*
X190830850Y-87318000D01*
X190068850Y-86810000D02*
X190830850Y-87445000D01*
X190830850Y-86175000D02*
X190830850Y-87445000D01*
X191084850Y-86810000D02*
X189814850Y-86810000D01*
X196799850Y-86810000D02*
G75*
G02*
X191338850Y-86810000I-2730500J0D01*
G01*
X191338850Y-86810000D02*
G75*
G02*
X196799850Y-86810000I2730500J0D01*
G01*
%TO.C,U1*%
X180359450Y-102935221D02*
X182264450Y-102935221D01*
X182264450Y-99734821D02*
X180359450Y-99734821D01*
D13*
%TO.C,C1*%
X183379680Y-90600000D02*
X183098520Y-90600000D01*
X183379680Y-91620000D02*
X183098520Y-91620000D01*
%TO.C,C3*%
X183529100Y-95150580D02*
X183529100Y-94869420D01*
X184549100Y-95150580D02*
X184549100Y-94869420D01*
%TD*%
M02*
