M48
; DRILL file {KiCad 9.0.8} date 2026-03-28T18:05:22-0700
; FORMAT={-:-/ absolute / metric / decimal}
; #@! TF.CreationDate,2026-03-28T18:05:22-07:00
; #@! TF.GenerationSoftware,Kicad,Pcbnew,9.0.8
; #@! TF.FileFunction,Plated,1,2,PTH
FMAT,2
METRIC
; #@! TA.AperFunction,Plated,PTH,ViaDrill
T1C0.300
; #@! TA.AperFunction,Plated,PTH,ComponentDrill
T2C0.864
; #@! TA.AperFunction,Plated,PTH,ComponentDrill
T3C1.320
; #@! TA.AperFunction,Plated,PTH,ComponentDrill
T4C1.778
%
G90
G05
T1
X151.65Y-95.492
X152.032Y-98.946
X152.273Y-97.409
X159.639Y-108.331
X167.386Y-85.598
X168.243Y-107.029
X171.326Y-86.871
X174.498Y-86.36
T2
X153.765Y-109.855
X156.305Y-109.855
T3
X139.573Y-95.377
X139.573Y-97.917
X139.573Y-101.727
X139.573Y-104.267
X142.113Y-95.377
X142.113Y-97.917
X142.113Y-101.727
X142.113Y-104.267
X144.653Y-95.377
X144.653Y-97.917
X144.653Y-101.727
X144.653Y-104.267
X147.193Y-95.377
X147.193Y-97.917
X147.193Y-101.727
X147.193Y-104.267
T4
X142.498Y-72.834
X142.498Y-77.025
M30
