%TF.GenerationSoftware,KiCad,Pcbnew,9.0.8*%
%TF.CreationDate,2026-03-28T18:46:55-07:00*%
%TF.ProjectId,Voltage_Indicator,566f6c74-6167-4655-9f49-6e6469636174,rev?*%
%TF.SameCoordinates,Original*%
%TF.FileFunction,Soldermask,Top*%
%TF.FilePolarity,Negative*%
%FSLAX46Y46*%
G04 Gerber Fmt 4.6, Leading zero omitted, Abs format (unit mm)*
G04 Created by KiCad (PCBNEW 9.0.8) date 2026-03-28 18:46:55*
%MOMM*%
%LPD*%
G01*
G04 APERTURE LIST*
G04 Aperture macros list*
%AMRoundRect*
0 Rectangle with rounded corners*
0 $1 Rounding radius*
0 $2 $3 $4 $5 $6 $7 $8 $9 X,Y pos of 4 corners*
0 Add a 4 corners polygon primitive as box body*
4,1,4,$2,$3,$4,$5,$6,$7,$8,$9,$2,$3,0*
0 Add four circle primitives for the rounded corners*
1,1,$1+$1,$2,$3*
1,1,$1+$1,$4,$5*
1,1,$1+$1,$6,$7*
1,1,$1+$1,$8,$9*
0 Add four rect primitives between the rounded corners*
20,1,$1+$1,$2,$3,$4,$5,0*
20,1,$1+$1,$4,$5,$6,$7,0*
20,1,$1+$1,$6,$7,$8,$9,0*
20,1,$1+$1,$8,$9,$2,$3,0*%
G04 Aperture macros list end*
%ADD10RoundRect,0.200000X-0.275000X0.200000X-0.275000X-0.200000X0.275000X-0.200000X0.275000X0.200000X0*%
%ADD11RoundRect,0.225000X-0.250000X0.225000X-0.250000X-0.225000X0.250000X-0.225000X0.250000X0.225000X0*%
%ADD12C,3.200000*%
%ADD13R,3.500000X1.600000*%
%ADD14R,9.750000X12.200000*%
%ADD15C,4.010000*%
%ADD16C,2.184000*%
%ADD17RoundRect,0.225000X0.250000X-0.225000X0.250000X0.225000X-0.250000X0.225000X-0.250000X-0.225000X0*%
%ADD18R,1.651000X0.431800*%
%ADD19C,2.744000*%
%ADD20RoundRect,0.200000X0.275000X-0.200000X0.275000X0.200000X-0.275000X0.200000X-0.275000X-0.200000X0*%
%ADD21R,1.371600X1.371600*%
%ADD22C,1.371600*%
%ADD23RoundRect,0.225000X-0.225000X-0.250000X0.225000X-0.250000X0.225000X0.250000X-0.225000X0.250000X0*%
%ADD24R,1.200000X0.600000*%
G04 APERTURE END LIST*
D10*
%TO.C,R8*%
X167640000Y-110046000D03*
X167640000Y-111696000D03*
%TD*%
%TO.C,R2*%
X170053000Y-103569000D03*
X170053000Y-105219000D03*
%TD*%
D11*
%TO.C,C6*%
X172593000Y-87858000D03*
X172593000Y-89408000D03*
%TD*%
D12*
%TO.C,REF\u002A\u002A*%
X173482000Y-111252000D03*
%TD*%
D13*
%TO.C,CR2*%
X163576000Y-78486000D03*
D14*
X153301000Y-75946000D03*
D13*
X163576000Y-73406000D03*
%TD*%
D15*
%TO.C,J1*%
X142113000Y-89027000D03*
X142113000Y-110617000D03*
D16*
X139573000Y-104267000D03*
X142113000Y-104267000D03*
X144653000Y-104267000D03*
X147193000Y-104267000D03*
X139573000Y-101727000D03*
X142113000Y-101727000D03*
X144653000Y-101727000D03*
X147193000Y-101727000D03*
X139573000Y-97917000D03*
X142113000Y-97917000D03*
X144653000Y-97917000D03*
X147193000Y-97917000D03*
X139573000Y-95377000D03*
X142113000Y-95377000D03*
X144653000Y-95377000D03*
X147193000Y-95377000D03*
%TD*%
D17*
%TO.C,C5*%
X153670000Y-98946000D03*
X153670000Y-97396000D03*
%TD*%
D18*
%TO.C,U3*%
X159994600Y-87820000D03*
X159994600Y-96270000D03*
X159994600Y-96920002D03*
X159994600Y-97570000D03*
X159994600Y-98219999D03*
X159994600Y-98870000D03*
X169697400Y-98870000D03*
X169697400Y-98219999D03*
X169697400Y-93019999D03*
X169697400Y-92370001D03*
X169697400Y-91719999D03*
X169697400Y-91070001D03*
X169697400Y-90420000D03*
X169697400Y-89770001D03*
X169697400Y-87820000D03*
%TD*%
D11*
%TO.C,C2*%
X168910000Y-77457000D03*
X168910000Y-79007000D03*
%TD*%
D19*
%TO.C,U2*%
X142498350Y-77025500D03*
X142498350Y-72834500D03*
%TD*%
D11*
%TO.C,C7*%
X174879000Y-87858000D03*
X174879000Y-89408000D03*
%TD*%
D10*
%TO.C,R1*%
X166370000Y-102045000D03*
X166370000Y-103695000D03*
%TD*%
D20*
%TO.C,R3*%
X163449000Y-103568000D03*
X163449000Y-101918000D03*
%TD*%
D17*
%TO.C,C1*%
X156845000Y-98959000D03*
X156845000Y-97409000D03*
%TD*%
D21*
%TO.C,CR1*%
X153765250Y-109855000D03*
D22*
X156305250Y-109855000D03*
%TD*%
D12*
%TO.C,REF\u002A\u002A*%
X173482000Y-70104000D03*
%TD*%
D23*
%TO.C,C4*%
X154537221Y-95492406D03*
X156087221Y-95492406D03*
%TD*%
D10*
%TO.C,R4*%
X161036000Y-104585000D03*
X161036000Y-106235000D03*
%TD*%
D23*
%TO.C,C9*%
X163944000Y-110363000D03*
X165494000Y-110363000D03*
%TD*%
D17*
%TO.C,C8*%
X161671000Y-110630000D03*
X161671000Y-109080000D03*
%TD*%
D24*
%TO.C,IC1*%
X166096000Y-108011000D03*
X166096000Y-107061000D03*
X166096000Y-106111000D03*
X163596000Y-106111000D03*
X163596000Y-108011000D03*
%TD*%
D17*
%TO.C,C3*%
X169037000Y-74943000D03*
X169037000Y-73393000D03*
%TD*%
M02*
