%TF.GenerationSoftware,KiCad,Pcbnew,9.0.4*%
%TF.CreationDate,2026-02-21T13:05:31-07:00*%
%TF.ProjectId,Voltage_Indicator,566f6c74-6167-4655-9f49-6e6469636174,rev?*%
%TF.SameCoordinates,Original*%
%TF.FileFunction,Soldermask,Top*%
%TF.FilePolarity,Negative*%
%FSLAX46Y46*%
G04 Gerber Fmt 4.6, Leading zero omitted, Abs format (unit mm)*
G04 Created by KiCad (PCBNEW 9.0.4) date 2026-02-21 13:05:31*
%MOMM*%
%LPD*%
G01*
G04 APERTURE LIST*
G04 Aperture macros list*
%AMRoundRect*
0 Rectangle with rounded corners*
0 $1 Rounding radius*
0 $2 $3 $4 $5 $6 $7 $8 $9 X,Y pos of 4 corners*
0 Add a 4 corners polygon primitive as box body*
4,1,4,$2,$3,$4,$5,$6,$7,$8,$9,$2,$3,0*
0 Add four circle primitives for the rounded corners*
1,1,$1+$1,$2,$3*
1,1,$1+$1,$4,$5*
1,1,$1+$1,$6,$7*
1,1,$1+$1,$8,$9*
0 Add four rect primitives between the rounded corners*
20,1,$1+$1,$2,$3,$4,$5,0*
20,1,$1+$1,$4,$5,$6,$7,0*
20,1,$1+$1,$6,$7,$8,$9,0*
20,1,$1+$1,$8,$9,$2,$3,0*%
G04 Aperture macros list end*
%ADD10C,4.010000*%
%ADD11C,2.184000*%
%ADD12RoundRect,0.250000X0.312500X0.625000X-0.312500X0.625000X-0.312500X-0.625000X0.312500X-0.625000X0*%
%ADD13RoundRect,0.250000X-0.312500X-0.625000X0.312500X-0.625000X0.312500X0.625000X-0.312500X0.625000X0*%
%ADD14R,0.558800X0.609600*%
%ADD15R,0.990600X2.997200*%
%ADD16R,10.337800X8.712200*%
%ADD17RoundRect,0.100000X0.100000X-0.130000X0.100000X0.130000X-0.100000X0.130000X-0.100000X-0.130000X0*%
%ADD18C,2.400000*%
%ADD19C,2.200000*%
%ADD20C,1.303000*%
%ADD21RoundRect,0.100000X-0.130000X-0.100000X0.130000X-0.100000X0.130000X0.100000X-0.130000X0.100000X0*%
%ADD22RoundRect,0.225000X0.225000X0.250000X-0.225000X0.250000X-0.225000X-0.250000X0.225000X-0.250000X0*%
%ADD23C,2.744000*%
%ADD24RoundRect,0.225000X0.250000X-0.225000X0.250000X0.225000X-0.250000X0.225000X-0.250000X-0.225000X0*%
%ADD25R,1.701800X1.295400*%
%ADD26R,1.371600X1.371600*%
%ADD27C,1.371600*%
%ADD28R,1.003300X0.457200*%
G04 APERTURE END LIST*
D10*
%TO.C,J1*%
X148000000Y-91560000D03*
X148000000Y-113150000D03*
D11*
X145460000Y-106800000D03*
X148000000Y-106800000D03*
X150540000Y-106800000D03*
X153080000Y-106800000D03*
X145460000Y-104260000D03*
X148000000Y-104260000D03*
X150540000Y-104260000D03*
X153080000Y-104260000D03*
X145460000Y-100450000D03*
X148000000Y-100450000D03*
X150540000Y-100450000D03*
X153080000Y-100450000D03*
X145460000Y-97910000D03*
X148000000Y-97910000D03*
X150540000Y-97910000D03*
X153080000Y-97910000D03*
%TD*%
D12*
%TO.C,R5*%
X171047300Y-119100000D03*
X168122300Y-119100000D03*
%TD*%
D13*
%TO.C,R4*%
X163907400Y-113100000D03*
X166832400Y-113100000D03*
%TD*%
D12*
%TO.C,R3*%
X170747300Y-107200000D03*
X167822300Y-107200000D03*
%TD*%
D13*
%TO.C,R1*%
X164307400Y-100700000D03*
X167232400Y-100700000D03*
%TD*%
D14*
%TO.C,R6*%
X166539800Y-85800000D03*
X165600000Y-85800000D03*
%TD*%
D15*
%TO.C,CR2*%
X178799100Y-86844200D03*
X183879100Y-86844200D03*
D16*
X181339100Y-75833300D03*
%TD*%
D17*
%TO.C,R7*%
X186639100Y-101830000D03*
X186639100Y-101190000D03*
%TD*%
D18*
%TO.C,RED_TP1*%
X195500000Y-112000000D03*
%TD*%
D19*
%TO.C,REF\u002A\u002A*%
X200400000Y-123100000D03*
%TD*%
%TO.C,REF\u002A\u002A*%
X138000000Y-123100000D03*
%TD*%
D20*
%TO.C,VR1*%
X185766600Y-113895000D03*
X183226600Y-111355000D03*
X180686600Y-113895000D03*
%TD*%
D14*
%TO.C,R2*%
X168500000Y-93500000D03*
X169439800Y-93500000D03*
%TD*%
D21*
%TO.C,R8*%
X194574100Y-91410000D03*
X195214100Y-91410000D03*
%TD*%
D22*
%TO.C,C2*%
X180314100Y-91110000D03*
X178764100Y-91110000D03*
%TD*%
D23*
%TO.C,U2*%
X153260200Y-80295500D03*
X153260200Y-76104500D03*
%TD*%
D19*
%TO.C,REF\u002A\u002A*%
X200200000Y-69000000D03*
%TD*%
%TO.C,REF\u002A\u002A*%
X137800000Y-69000000D03*
%TD*%
D24*
%TO.C,C4*%
X181439100Y-95785000D03*
X181439100Y-94235000D03*
%TD*%
D25*
%TO.C,K1*%
X192078200Y-97600000D03*
X192078200Y-105220000D03*
X201400000Y-105220000D03*
X201400000Y-97600000D03*
%TD*%
D26*
%TO.C,CR1*%
X192799350Y-86810000D03*
D27*
X195339350Y-86810000D03*
%TD*%
D28*
%TO.C,U1*%
X179984800Y-100360042D03*
X179984800Y-101010028D03*
X179984800Y-101660014D03*
X179984800Y-102310000D03*
X182639100Y-102310000D03*
X182639100Y-101660014D03*
X182639100Y-101010028D03*
X182639100Y-100360042D03*
%TD*%
D22*
%TO.C,C1*%
X184014100Y-91110000D03*
X182464100Y-91110000D03*
%TD*%
D24*
%TO.C,C3*%
X184039100Y-95785000D03*
X184039100Y-94235000D03*
%TD*%
M02*
