%TF.GenerationSoftware,KiCad,Pcbnew,9.0.4*%
%TF.CreationDate,2026-02-21T13:05:31-07:00*%
%TF.ProjectId,Voltage_Indicator,566f6c74-6167-4655-9f49-6e6469636174,rev?*%
%TF.SameCoordinates,Original*%
%TF.FileFunction,Copper,L1,Top*%
%TF.FilePolarity,Positive*%
%FSLAX46Y46*%
G04 Gerber Fmt 4.6, Leading zero omitted, Abs format (unit mm)*
G04 Created by KiCad (PCBNEW 9.0.4) date 2026-02-21 13:05:31*
%MOMM*%
%LPD*%
G01*
G04 APERTURE LIST*
G04 Aperture macros list*
%AMRoundRect*
0 Rectangle with rounded corners*
0 $1 Rounding radius*
0 $2 $3 $4 $5 $6 $7 $8 $9 X,Y pos of 4 corners*
0 Add a 4 corners polygon primitive as box body*
4,1,4,$2,$3,$4,$5,$6,$7,$8,$9,$2,$3,0*
0 Add four circle primitives for the rounded corners*
1,1,$1+$1,$2,$3*
1,1,$1+$1,$4,$5*
1,1,$1+$1,$6,$7*
1,1,$1+$1,$8,$9*
0 Add four rect primitives between the rounded corners*
20,1,$1+$1,$2,$3,$4,$5,0*
20,1,$1+$1,$4,$5,$6,$7,0*
20,1,$1+$1,$6,$7,$8,$9,0*
20,1,$1+$1,$8,$9,$2,$3,0*%
G04 Aperture macros list end*
%TA.AperFunction,NonConductor*%
%ADD10C,0.200000*%
%TD*%
%TA.AperFunction,ComponentPad*%
%ADD11C,1.980000*%
%TD*%
%TA.AperFunction,SMDPad,CuDef*%
%ADD12RoundRect,0.250000X0.312500X0.625000X-0.312500X0.625000X-0.312500X-0.625000X0.312500X-0.625000X0*%
%TD*%
%TA.AperFunction,SMDPad,CuDef*%
%ADD13RoundRect,0.250000X-0.312500X-0.625000X0.312500X-0.625000X0.312500X0.625000X-0.312500X0.625000X0*%
%TD*%
%TA.AperFunction,SMDPad,CuDef*%
%ADD14R,0.558800X0.609600*%
%TD*%
%TA.AperFunction,SMDPad,CuDef*%
%ADD15R,0.990600X2.997200*%
%TD*%
%TA.AperFunction,SMDPad,CuDef*%
%ADD16R,10.337800X8.712200*%
%TD*%
%TA.AperFunction,SMDPad,CuDef*%
%ADD17RoundRect,0.100000X0.100000X-0.130000X0.100000X0.130000X-0.100000X0.130000X-0.100000X-0.130000X0*%
%TD*%
%TA.AperFunction,ComponentPad*%
%ADD18C,2.400000*%
%TD*%
%TA.AperFunction,ComponentPad*%
%ADD19C,1.303000*%
%TD*%
%TA.AperFunction,SMDPad,CuDef*%
%ADD20RoundRect,0.100000X-0.130000X-0.100000X0.130000X-0.100000X0.130000X0.100000X-0.130000X0.100000X0*%
%TD*%
%TA.AperFunction,SMDPad,CuDef*%
%ADD21RoundRect,0.225000X0.225000X0.250000X-0.225000X0.250000X-0.225000X-0.250000X0.225000X-0.250000X0*%
%TD*%
%TA.AperFunction,ComponentPad*%
%ADD22C,2.540000*%
%TD*%
%TA.AperFunction,SMDPad,CuDef*%
%ADD23RoundRect,0.225000X0.250000X-0.225000X0.250000X0.225000X-0.250000X0.225000X-0.250000X-0.225000X0*%
%TD*%
%TA.AperFunction,SMDPad,CuDef*%
%ADD24R,1.701800X1.295400*%
%TD*%
%TA.AperFunction,ComponentPad*%
%ADD25R,1.371600X1.371600*%
%TD*%
%TA.AperFunction,ComponentPad*%
%ADD26C,1.371600*%
%TD*%
%TA.AperFunction,SMDPad,CuDef*%
%ADD27R,1.003300X0.457200*%
%TD*%
%TA.AperFunction,ViaPad*%
%ADD28C,0.600000*%
%TD*%
%TA.AperFunction,Conductor*%
%ADD29C,0.500000*%
%TD*%
%TA.AperFunction,Conductor*%
%ADD30C,0.300000*%
%TD*%
%TA.AperFunction,Conductor*%
%ADD31C,0.200000*%
%TD*%
G04 APERTURE END LIST*
D10*
X136000000Y-67400000D02*
X204100000Y-67400000D01*
X204100000Y-125400000D01*
X136000000Y-125400000D01*
X136000000Y-67400000D01*
D11*
%TO.P,J1,P01_1,P01*%
%TO.N,/HV+*%
X145460000Y-106800000D03*
%TO.P,J1,P01_2*%
%TO.N,N/C*%
X148000000Y-106800000D03*
%TO.P,J1,P01_3*%
X150540000Y-106800000D03*
%TO.P,J1,P01_4*%
X153080000Y-106800000D03*
%TO.P,J1,P01_5*%
X145460000Y-104260000D03*
%TO.P,J1,P01_6*%
X148000000Y-104260000D03*
%TO.P,J1,P01_7*%
X150540000Y-104260000D03*
%TO.P,J1,P01_8*%
X153080000Y-104260000D03*
%TO.P,J1,P02_1,P02*%
%TO.N,/HV-*%
X145460000Y-100450000D03*
%TO.P,J1,P02_2*%
%TO.N,N/C*%
X148000000Y-100450000D03*
%TO.P,J1,P02_3*%
X150540000Y-100450000D03*
%TO.P,J1,P02_4*%
X153080000Y-100450000D03*
%TO.P,J1,P02_5*%
X145460000Y-97910000D03*
%TO.P,J1,P02_6*%
X148000000Y-97910000D03*
%TO.P,J1,P02_7*%
X150540000Y-97910000D03*
%TO.P,J1,P02_8*%
X153080000Y-97910000D03*
%TD*%
D12*
%TO.P,R5,1*%
%TO.N,/V_DIV*%
X171047300Y-119100000D03*
%TO.P,R5,2*%
%TO.N,Net-(R4-Pad1)*%
X168122300Y-119100000D03*
%TD*%
D13*
%TO.P,R4,1*%
%TO.N,Net-(R4-Pad1)*%
X163907400Y-113100000D03*
%TO.P,R4,2*%
%TO.N,Net-(R3-Pad1)*%
X166832400Y-113100000D03*
%TD*%
D12*
%TO.P,R3,1*%
%TO.N,Net-(R3-Pad1)*%
X170747300Y-107200000D03*
%TO.P,R3,2*%
%TO.N,Net-(R1-Pad2)*%
X167822300Y-107200000D03*
%TD*%
D13*
%TO.P,R1,1*%
%TO.N,/HV+*%
X164307400Y-100700000D03*
%TO.P,R1,2*%
%TO.N,Net-(R1-Pad2)*%
X167232400Y-100700000D03*
%TD*%
D14*
%TO.P,R6,1*%
%TO.N,Net-(R2-Pad2)*%
X166539800Y-85800000D03*
%TO.P,R6,2*%
%TO.N,/HV-*%
X165600000Y-85800000D03*
%TD*%
D15*
%TO.P,CR2,1,INPUT*%
%TO.N,/12V Master*%
X178799100Y-86844200D03*
%TO.P,CR2,2,GROUND*%
%TO.N,GND*%
X183879100Y-86844200D03*
D16*
%TO.P,CR2,3,OUTPUT*%
%TO.N,+5V*%
X181339100Y-75833300D03*
%TD*%
D17*
%TO.P,R7,1*%
%TO.N,Net-(K1-Pad1)*%
X186639100Y-101830000D03*
%TO.P,R7,2*%
%TO.N,/V_IND*%
X186639100Y-101190000D03*
%TD*%
D18*
%TO.P,RED_TP1,1,1*%
%TO.N,/V_LOW_REF*%
X195500000Y-112000000D03*
%TD*%
D19*
%TO.P,VR1,1,CCW*%
%TO.N,+5V*%
X185766600Y-113895000D03*
%TO.P,VR1,2,Wiper*%
%TO.N,/V_LOW_REF*%
X183226600Y-111355000D03*
%TO.P,VR1,3,CW*%
%TO.N,GND*%
X180686600Y-113895000D03*
%TD*%
D14*
%TO.P,R2,1*%
%TO.N,/V_DIV*%
X168500000Y-93500000D03*
%TO.P,R2,2*%
%TO.N,Net-(R2-Pad2)*%
X169439800Y-93500000D03*
%TD*%
D20*
%TO.P,R8,1*%
%TO.N,+5V*%
X194574100Y-91410000D03*
%TO.P,R8,2*%
%TO.N,Net-(CR1-Pad2)*%
X195214100Y-91410000D03*
%TD*%
D21*
%TO.P,C2,1*%
%TO.N,GND*%
X180314100Y-91110000D03*
%TO.P,C2,2*%
%TO.N,/12V Master*%
X178764100Y-91110000D03*
%TD*%
D22*
%TO.P,U2,1,1*%
%TO.N,/12V Master*%
X153260200Y-80295500D03*
%TO.P,U2,2,2*%
%TO.N,GND*%
X153260200Y-76104500D03*
%TD*%
D23*
%TO.P,C4,1*%
%TO.N,GND*%
X181439100Y-95785000D03*
%TO.P,C4,2*%
%TO.N,+5V*%
X181439100Y-94235000D03*
%TD*%
D24*
%TO.P,K1,1,1*%
%TO.N,Net-(K1-Pad1)*%
X192078200Y-97600000D03*
%TO.P,K1,2,2*%
%TO.N,GND*%
X192078200Y-105220000D03*
%TO.P,K1,3,3*%
X201400000Y-105220000D03*
%TO.P,K1,4,4*%
%TO.N,+5V*%
X201400000Y-97600000D03*
%TD*%
D25*
%TO.P,CR1,1*%
%TO.N,GND*%
X192799350Y-86810000D03*
D26*
%TO.P,CR1,2*%
%TO.N,Net-(CR1-Pad2)*%
X195339350Y-86810000D03*
%TD*%
D27*
%TO.P,U1,1,OUT1*%
%TO.N,/V_IND*%
X179984800Y-100360042D03*
%TO.P,U1,2,IN1-*%
%TO.N,/V_LOW_REF*%
X179984800Y-101010028D03*
%TO.P,U1,3,IN1+*%
%TO.N,/V_DIV*%
X179984800Y-101660014D03*
%TO.P,U1,4,GND*%
%TO.N,GND*%
X179984800Y-102310000D03*
%TO.P,U1,5,IN2+*%
%TO.N,unconnected-(U1-IN2+-Pad5)*%
X182639100Y-102310000D03*
%TO.P,U1,6,IN2-*%
%TO.N,unconnected-(U1-IN2--Pad6)*%
X182639100Y-101660014D03*
%TO.P,U1,7,OUT2*%
%TO.N,unconnected-(U1-OUT2-Pad7)*%
X182639100Y-101010028D03*
%TO.P,U1,8,V+*%
%TO.N,+5V*%
X182639100Y-100360042D03*
%TD*%
D21*
%TO.P,C1,1*%
%TO.N,+5V*%
X184014100Y-91110000D03*
%TO.P,C1,2*%
%TO.N,GND*%
X182464100Y-91110000D03*
%TD*%
D23*
%TO.P,C3,1*%
%TO.N,GND*%
X184039100Y-95785000D03*
%TO.P,C3,2*%
%TO.N,+5V*%
X184039100Y-94235000D03*
%TD*%
D28*
%TO.N,/V_IND*%
X185900000Y-100300000D03*
X180200000Y-98900000D03*
%TO.N,GND*%
X179800000Y-95500000D03*
X190200000Y-105500000D03*
X186100000Y-86900000D03*
X180000000Y-103600000D03*
%TD*%
D29*
%TO.N,/HV+*%
X143900000Y-109800000D02*
X155207400Y-109800000D01*
X143400000Y-109300000D02*
X143900000Y-109800000D01*
X143400000Y-107500000D02*
X143400000Y-109300000D01*
X155207400Y-109800000D02*
X164307400Y-100700000D01*
X144100000Y-106800000D02*
X143400000Y-107500000D01*
X145460000Y-106800000D02*
X144100000Y-106800000D01*
%TO.N,/HV-*%
X163900000Y-85800000D02*
X165600000Y-85800000D01*
X154600000Y-95100000D02*
X163900000Y-85800000D01*
X142800000Y-96100000D02*
X143800000Y-95100000D01*
X143800000Y-95100000D02*
X154600000Y-95100000D01*
X142800000Y-97790000D02*
X142800000Y-96100000D01*
X145460000Y-100450000D02*
X142800000Y-97790000D01*
D30*
%TO.N,/V_DIV*%
X174400000Y-110100000D02*
X172900000Y-111600000D01*
X172900000Y-117247300D02*
X171047300Y-119100000D01*
X174400000Y-103320028D02*
X174400000Y-110100000D01*
X176060014Y-101660014D02*
X174400000Y-103320028D01*
X172900000Y-111600000D02*
X172900000Y-117247300D01*
D29*
%TO.N,Net-(R4-Pad1)*%
X163907400Y-114885100D02*
X168122300Y-119100000D01*
X163907400Y-113100000D02*
X163907400Y-114885100D01*
D30*
%TO.N,Net-(R3-Pad1)*%
X170747300Y-107200000D02*
X170747300Y-109185100D01*
X170747300Y-109185100D02*
X166832400Y-113100000D01*
D29*
%TO.N,Net-(R1-Pad2)*%
X168900000Y-102367600D02*
X167232400Y-100700000D01*
X168900000Y-106122300D02*
X168900000Y-102367600D01*
X167822300Y-107200000D02*
X168900000Y-106122300D01*
D30*
%TO.N,/V_DIV*%
X176060014Y-101660014D02*
X179984800Y-101660014D01*
X171695200Y-97300000D02*
X171700000Y-97300000D01*
X168500000Y-94104800D02*
X171695200Y-97300000D01*
X171700000Y-97300000D02*
X176060014Y-101660014D01*
X168500000Y-93500000D02*
X168500000Y-94104800D01*
D31*
%TO.N,Net-(K1-Pad1)*%
X187848200Y-101830000D02*
X192078200Y-97600000D01*
X186639100Y-101830000D02*
X187848200Y-101830000D01*
%TO.N,/V_IND*%
X186639100Y-101039100D02*
X185900000Y-100300000D01*
X179984800Y-99115200D02*
X180200000Y-98900000D01*
X186639100Y-101190000D02*
X186639100Y-101039100D01*
X179984800Y-100360042D02*
X179984800Y-99115200D01*
%TO.N,Net-(CR1-Pad2)*%
X195339350Y-91284750D02*
X195214100Y-91410000D01*
X195339350Y-86810000D02*
X195339350Y-91284750D01*
%TO.N,+5V*%
X194010000Y-91110000D02*
X184014100Y-91110000D01*
X181439100Y-94235000D02*
X184039100Y-94235000D01*
X201400000Y-97600000D02*
X200349100Y-97600000D01*
X194574100Y-91410000D02*
X194310000Y-91410000D01*
X194310000Y-91410000D02*
X194010000Y-91110000D01*
X184014100Y-91110000D02*
X181339100Y-88435000D01*
X184039100Y-91135000D02*
X184014100Y-91110000D01*
X185766600Y-102805278D02*
X183321364Y-100360042D01*
X183321364Y-100360042D02*
X182639100Y-100360042D01*
X184039100Y-94235000D02*
X184900000Y-95095900D01*
X184900000Y-95095900D02*
X184900000Y-98781406D01*
X184900000Y-98781406D02*
X183321364Y-100360042D01*
X200349100Y-97600000D02*
X194574100Y-91825000D01*
X184039100Y-94235000D02*
X184039100Y-91135000D01*
X194574100Y-91825000D02*
X194574100Y-91410000D01*
X181339100Y-88435000D02*
X181339100Y-75833300D01*
X185766600Y-113895000D02*
X185766600Y-102805278D01*
%TO.N,GND*%
X186044200Y-86844200D02*
X186100000Y-86900000D01*
X179800000Y-91624100D02*
X179800000Y-95500000D01*
X192078200Y-105220000D02*
X190480000Y-105220000D01*
X192799350Y-86810000D02*
X186190000Y-86810000D01*
X192078200Y-105220000D02*
X201400000Y-105220000D01*
X179984800Y-103584800D02*
X180000000Y-103600000D01*
X181439100Y-95785000D02*
X180085000Y-95785000D01*
X180314100Y-91110000D02*
X179800000Y-91624100D01*
X190480000Y-105220000D02*
X190200000Y-105500000D01*
X186190000Y-86810000D02*
X186100000Y-86900000D01*
X183879100Y-86844200D02*
X186044200Y-86844200D01*
X180085000Y-95785000D02*
X179800000Y-95500000D01*
X192765150Y-86844200D02*
X192799350Y-86810000D01*
X182464100Y-91110000D02*
X180314100Y-91110000D01*
X179984800Y-102310000D02*
X179984800Y-103584800D01*
X181439100Y-95785000D02*
X184039100Y-95785000D01*
%TO.N,/V_LOW_REF*%
X181400000Y-109528400D02*
X181400000Y-101100000D01*
X183226600Y-115426600D02*
X183800000Y-116000000D01*
X194400000Y-116000000D02*
X194400000Y-115900000D01*
X183226600Y-111355000D02*
X181400000Y-109528400D01*
X183226600Y-111355000D02*
X183226600Y-115426600D01*
X195500000Y-114800000D02*
X195500000Y-112000000D01*
X194400000Y-115900000D02*
X195500000Y-114800000D01*
X181400000Y-101100000D02*
X181310028Y-101010028D01*
X183800000Y-116000000D02*
X194400000Y-116000000D01*
X181310028Y-101010028D02*
X179984800Y-101010028D01*
D30*
%TO.N,Net-(R2-Pad2)*%
X166539800Y-86939800D02*
X169900000Y-90300000D01*
X169900000Y-93039800D02*
X169439800Y-93500000D01*
X166539800Y-85800000D02*
X166539800Y-86939800D01*
X169900000Y-90300000D02*
X169900000Y-93039800D01*
D31*
%TO.N,/12V Master*%
X178764100Y-86879200D02*
X178799100Y-86844200D01*
X178764100Y-91110000D02*
X178764100Y-86879200D01*
D30*
X178799100Y-86844200D02*
X170454900Y-78500000D01*
X155055700Y-78500000D02*
X153260200Y-80295500D01*
X170454900Y-78500000D02*
X155055700Y-78500000D01*
%TD*%
%TA.AperFunction,Conductor*%
%TO.N,GND*%
G36*
X199025585Y-68004047D02*
G01*
X199038130Y-68002970D01*
X199058475Y-68013704D01*
X199080544Y-68020185D01*
X199088787Y-68029698D01*
X199099925Y-68035575D01*
X199111237Y-68055607D01*
X199126299Y-68072989D01*
X199128090Y-68085450D01*
X199134282Y-68096414D01*
X199132969Y-68119377D01*
X199136243Y-68142147D01*
X199130917Y-68155268D01*
X199130294Y-68166169D01*
X199113823Y-68197385D01*
X199044951Y-68292179D01*
X198948444Y-68481585D01*
X198882753Y-68683760D01*
X198849500Y-68893713D01*
X198849500Y-69106286D01*
X198882753Y-69316239D01*
X198948444Y-69518414D01*
X199044951Y-69707820D01*
X199169890Y-69879786D01*
X199320213Y-70030109D01*
X199492179Y-70155048D01*
X199492181Y-70155049D01*
X199492184Y-70155051D01*
X199681588Y-70251557D01*
X199883757Y-70317246D01*
X200093713Y-70350500D01*
X200093714Y-70350500D01*
X200306286Y-70350500D01*
X200306287Y-70350500D01*
X200516243Y-70317246D01*
X200718412Y-70251557D01*
X200907816Y-70155051D01*
X200929789Y-70139086D01*
X201079786Y-70030109D01*
X201079788Y-70030106D01*
X201079792Y-70030104D01*
X201230104Y-69879792D01*
X201230106Y-69879788D01*
X201230109Y-69879786D01*
X201355048Y-69707820D01*
X201355047Y-69707820D01*
X201355051Y-69707816D01*
X201451557Y-69518412D01*
X201517246Y-69316243D01*
X201550500Y-69106287D01*
X201550500Y-68893713D01*
X201517246Y-68683757D01*
X201451557Y-68481588D01*
X201355051Y-68292184D01*
X201355049Y-68292181D01*
X201355048Y-68292179D01*
X201286177Y-68197385D01*
X201262697Y-68131578D01*
X201278523Y-68063525D01*
X201328629Y-68014830D01*
X201386495Y-68000500D01*
X203375500Y-68000500D01*
X203442539Y-68020185D01*
X203488294Y-68072989D01*
X203499500Y-68124500D01*
X203499500Y-124675500D01*
X203479815Y-124742539D01*
X203427011Y-124788294D01*
X203375500Y-124799500D01*
X136724500Y-124799500D01*
X136657461Y-124779815D01*
X136611706Y-124727011D01*
X136600500Y-124675500D01*
X136600500Y-123844555D01*
X136620185Y-123777516D01*
X136672989Y-123731761D01*
X136742147Y-123721817D01*
X136805703Y-123750842D01*
X136834985Y-123788261D01*
X136844949Y-123807817D01*
X136969890Y-123979786D01*
X137120213Y-124130109D01*
X137292179Y-124255048D01*
X137292181Y-124255049D01*
X137292184Y-124255051D01*
X137481588Y-124351557D01*
X137683757Y-124417246D01*
X137893713Y-124450500D01*
X137893714Y-124450500D01*
X138106286Y-124450500D01*
X138106287Y-124450500D01*
X138316243Y-124417246D01*
X138518412Y-124351557D01*
X138707816Y-124255051D01*
X138729789Y-124239086D01*
X138879786Y-124130109D01*
X138879788Y-124130106D01*
X138879792Y-124130104D01*
X139030104Y-123979792D01*
X139030106Y-123979788D01*
X139030109Y-123979786D01*
X139155048Y-123807820D01*
X139155050Y-123807817D01*
X139155051Y-123807816D01*
X139251557Y-123618412D01*
X139317246Y-123416243D01*
X139350500Y-123206287D01*
X139350500Y-122993713D01*
X199049500Y-122993713D01*
X199049500Y-123206286D01*
X199082753Y-123416239D01*
X199148444Y-123618414D01*
X199244951Y-123807820D01*
X199369890Y-123979786D01*
X199520213Y-124130109D01*
X199692179Y-124255048D01*
X199692181Y-124255049D01*
X199692184Y-124255051D01*
X199881588Y-124351557D01*
X200083757Y-124417246D01*
X200293713Y-124450500D01*
X200293714Y-124450500D01*
X200506286Y-124450500D01*
X200506287Y-124450500D01*
X200716243Y-124417246D01*
X200918412Y-124351557D01*
X201107816Y-124255051D01*
X201129789Y-124239086D01*
X201279786Y-124130109D01*
X201279788Y-124130106D01*
X201279792Y-124130104D01*
X201430104Y-123979792D01*
X201430106Y-123979788D01*
X201430109Y-123979786D01*
X201555048Y-123807820D01*
X201555050Y-123807817D01*
X201555051Y-123807816D01*
X201651557Y-123618412D01*
X201717246Y-123416243D01*
X201750500Y-123206287D01*
X201750500Y-122993713D01*
X201717246Y-122783757D01*
X201651557Y-122581588D01*
X201555051Y-122392184D01*
X201555049Y-122392181D01*
X201555048Y-122392179D01*
X201430109Y-122220213D01*
X201279786Y-122069890D01*
X201107820Y-121944951D01*
X200918414Y-121848444D01*
X200918413Y-121848443D01*
X200918412Y-121848443D01*
X200716243Y-121782754D01*
X200716241Y-121782753D01*
X200716240Y-121782753D01*
X200554957Y-121757208D01*
X200506287Y-121749500D01*
X200293713Y-121749500D01*
X200245042Y-121757208D01*
X200083760Y-121782753D01*
X199881585Y-121848444D01*
X199692179Y-121944951D01*
X199520213Y-122069890D01*
X199369890Y-122220213D01*
X199244951Y-122392179D01*
X199148444Y-122581585D01*
X199082753Y-122783760D01*
X199049500Y-122993713D01*
X139350500Y-122993713D01*
X139317246Y-122783757D01*
X139251557Y-122581588D01*
X139155051Y-122392184D01*
X139155049Y-122392181D01*
X139155048Y-122392179D01*
X139030109Y-122220213D01*
X138879786Y-122069890D01*
X138707820Y-121944951D01*
X138518414Y-121848444D01*
X138518413Y-121848443D01*
X138518412Y-121848443D01*
X138316243Y-121782754D01*
X138316241Y-121782753D01*
X138316240Y-121782753D01*
X138154957Y-121757208D01*
X138106287Y-121749500D01*
X137893713Y-121749500D01*
X137845042Y-121757208D01*
X137683760Y-121782753D01*
X137481585Y-121848444D01*
X137292179Y-121944951D01*
X137120213Y-122069890D01*
X136969890Y-122220213D01*
X136844949Y-122392182D01*
X136834984Y-122411740D01*
X136787009Y-122462536D01*
X136719188Y-122479330D01*
X136653053Y-122456792D01*
X136609602Y-122402076D01*
X136600500Y-122355444D01*
X136600500Y-113002173D01*
X145744500Y-113002173D01*
X145744500Y-113297826D01*
X145744501Y-113297843D01*
X145783090Y-113590959D01*
X145783091Y-113590964D01*
X145783092Y-113590970D01*
X145805535Y-113674727D01*
X145859616Y-113876564D01*
X145972760Y-114149716D01*
X145972764Y-114149726D01*
X146120595Y-114405777D01*
X146300584Y-114640344D01*
X146300590Y-114640351D01*
X146509648Y-114849409D01*
X146509655Y-114849415D01*
X146744222Y-115029404D01*
X147000273Y-115177235D01*
X147000274Y-115177235D01*
X147000277Y-115177237D01*
X147153220Y-115240588D01*
X147273435Y-115290383D01*
X147273436Y-115290383D01*
X147273438Y-115290384D01*
X147559030Y-115366908D01*
X147852167Y-115405500D01*
X147852174Y-115405500D01*
X148147826Y-115405500D01*
X148147833Y-115405500D01*
X148440970Y-115366908D01*
X148726562Y-115290384D01*
X148999723Y-115177237D01*
X149255778Y-115029404D01*
X149490346Y-114849414D01*
X149699414Y-114640346D01*
X149879404Y-114405778D01*
X150027237Y-114149723D01*
X150140384Y-113876562D01*
X150216908Y-113590970D01*
X150255500Y-113297833D01*
X150255500Y-113002167D01*
X150216908Y-112709030D01*
X150140798Y-112424983D01*
X162844400Y-112424983D01*
X162844400Y-113775001D01*
X162844401Y-113775018D01*
X162854900Y-113877796D01*
X162854901Y-113877799D01*
X162910085Y-114044331D01*
X162910087Y-114044336D01*
X163002189Y-114193657D01*
X163120581Y-114312049D01*
X163154066Y-114373372D01*
X163156900Y-114399730D01*
X163156900Y-114959018D01*
X163156900Y-114959020D01*
X163156899Y-114959020D01*
X163185740Y-115104007D01*
X163185743Y-115104017D01*
X163242312Y-115240588D01*
X163242320Y-115240602D01*
X163268991Y-115280517D01*
X163268992Y-115280520D01*
X163324446Y-115363514D01*
X163324452Y-115363521D01*
X167022981Y-119062049D01*
X167056466Y-119123372D01*
X167059300Y-119149730D01*
X167059300Y-119775001D01*
X167059301Y-119775019D01*
X167069800Y-119877796D01*
X167069801Y-119877799D01*
X167124985Y-120044331D01*
X167124986Y-120044334D01*
X167217088Y-120193656D01*
X167341144Y-120317712D01*
X167490466Y-120409814D01*
X167657003Y-120464999D01*
X167759791Y-120475500D01*
X168484808Y-120475499D01*
X168484816Y-120475498D01*
X168484819Y-120475498D01*
X168541102Y-120469748D01*
X168587597Y-120464999D01*
X168754134Y-120409814D01*
X168903456Y-120317712D01*
X169027512Y-120193656D01*
X169119614Y-120044334D01*
X169174799Y-119877797D01*
X169185300Y-119775009D01*
X169185299Y-118424992D01*
X169174799Y-118322203D01*
X169119614Y-118155666D01*
X169027512Y-118006344D01*
X168903456Y-117882288D01*
X168754134Y-117790186D01*
X168587597Y-117735001D01*
X168587595Y-117735000D01*
X168484816Y-117724500D01*
X168484809Y-117724500D01*
X167859530Y-117724500D01*
X167792491Y-117704815D01*
X167771849Y-117688181D01*
X164694219Y-114610551D01*
X164679515Y-114583623D01*
X164662923Y-114557805D01*
X164662031Y-114551604D01*
X164660734Y-114549228D01*
X164657900Y-114522870D01*
X164657900Y-114399730D01*
X164677585Y-114332691D01*
X164694219Y-114312049D01*
X164731268Y-114275000D01*
X164812612Y-114193656D01*
X164904714Y-114044334D01*
X164959899Y-113877797D01*
X164970400Y-113775009D01*
X164970399Y-112424992D01*
X164970398Y-112424983D01*
X165769400Y-112424983D01*
X165769400Y-113775001D01*
X165769401Y-113775018D01*
X165779900Y-113877796D01*
X165779901Y-113877799D01*
X165815646Y-113985669D01*
X165835086Y-114044334D01*
X165927188Y-114193656D01*
X166051244Y-114317712D01*
X166200566Y-114409814D01*
X166367103Y-114464999D01*
X166469891Y-114475500D01*
X167194908Y-114475499D01*
X167194916Y-114475498D01*
X167194919Y-114475498D01*
X167251202Y-114469748D01*
X167297697Y-114464999D01*
X167464234Y-114409814D01*
X167613556Y-114317712D01*
X167737612Y-114193656D01*
X167829714Y-114044334D01*
X167884899Y-113877797D01*
X167895400Y-113775009D01*
X167895399Y-113008306D01*
X167915083Y-112941268D01*
X167931713Y-112920631D01*
X171252577Y-109599769D01*
X171323765Y-109493227D01*
X171372801Y-109374843D01*
X171397800Y-109249169D01*
X171397800Y-109121031D01*
X171397800Y-108567507D01*
X171417485Y-108500468D01*
X171456703Y-108461968D01*
X171528456Y-108417712D01*
X171652512Y-108293656D01*
X171744614Y-108144334D01*
X171799799Y-107977797D01*
X171810300Y-107875009D01*
X171810299Y-106524992D01*
X171799799Y-106422203D01*
X171744614Y-106255666D01*
X171652512Y-106106344D01*
X171528456Y-105982288D01*
X171379134Y-105890186D01*
X171212597Y-105835001D01*
X171212595Y-105835000D01*
X171109810Y-105824500D01*
X170384798Y-105824500D01*
X170384780Y-105824501D01*
X170282003Y-105835000D01*
X170282000Y-105835001D01*
X170115468Y-105890185D01*
X170115463Y-105890187D01*
X169966142Y-105982289D01*
X169862181Y-106086251D01*
X169800858Y-106119736D01*
X169731166Y-106114752D01*
X169675233Y-106072880D01*
X169650816Y-106007416D01*
X169650500Y-105998570D01*
X169650500Y-102293681D01*
X169650499Y-102293680D01*
X169640956Y-102245701D01*
X169621659Y-102148688D01*
X169585662Y-102061784D01*
X169565084Y-102012105D01*
X169493548Y-101905044D01*
X169482952Y-101889185D01*
X168331718Y-100737950D01*
X168298233Y-100676627D01*
X168295399Y-100650269D01*
X168295399Y-100024998D01*
X168295398Y-100024981D01*
X168284899Y-99922203D01*
X168284898Y-99922200D01*
X168273932Y-99889106D01*
X168229714Y-99755666D01*
X168137612Y-99606344D01*
X168013556Y-99482288D01*
X167920788Y-99425069D01*
X167864236Y-99390187D01*
X167864231Y-99390185D01*
X167862762Y-99389698D01*
X167697697Y-99335001D01*
X167697695Y-99335000D01*
X167594910Y-99324500D01*
X166869898Y-99324500D01*
X166869880Y-99324501D01*
X166767103Y-99335000D01*
X166767100Y-99335001D01*
X166600568Y-99390185D01*
X166600563Y-99390187D01*
X166451242Y-99482289D01*
X166327189Y-99606342D01*
X166235087Y-99755663D01*
X166235085Y-99755668D01*
X166207249Y-99839670D01*
X166179901Y-99922203D01*
X166179901Y-99922204D01*
X166179900Y-99922204D01*
X166169400Y-100024983D01*
X166169400Y-101375001D01*
X166169401Y-101375018D01*
X166179900Y-101477796D01*
X166179901Y-101477799D01*
X166231547Y-101633655D01*
X166235086Y-101644334D01*
X166327188Y-101793656D01*
X166451244Y-101917712D01*
X166600566Y-102009814D01*
X166767103Y-102064999D01*
X166869891Y-102075500D01*
X167495169Y-102075499D01*
X167562208Y-102095183D01*
X167582850Y-102111818D01*
X168113181Y-102642148D01*
X168146666Y-102703471D01*
X168149500Y-102729829D01*
X168149500Y-105700500D01*
X168129815Y-105767539D01*
X168077011Y-105813294D01*
X168025500Y-105824500D01*
X167459798Y-105824500D01*
X167459780Y-105824501D01*
X167357003Y-105835000D01*
X167357000Y-105835001D01*
X167190468Y-105890185D01*
X167190463Y-105890187D01*
X167041142Y-105982289D01*
X166917089Y-106106342D01*
X166824987Y-106255663D01*
X166824985Y-106255668D01*
X166806632Y-106311054D01*
X166769801Y-106422203D01*
X166769801Y-106422204D01*
X166769800Y-106422204D01*
X166759300Y-106524983D01*
X166759300Y-107875001D01*
X166759301Y-107875018D01*
X166769800Y-107977796D01*
X166769801Y-107977799D01*
X166801940Y-108074787D01*
X166824986Y-108144334D01*
X166917088Y-108293656D01*
X167041144Y-108417712D01*
X167190466Y-108509814D01*
X167357003Y-108564999D01*
X167459791Y-108575500D01*
X168184808Y-108575499D01*
X168184816Y-108575498D01*
X168184819Y-108575498D01*
X168263045Y-108567507D01*
X168287597Y-108564999D01*
X168454134Y-108509814D01*
X168603456Y-108417712D01*
X168727512Y-108293656D01*
X168819614Y-108144334D01*
X168874799Y-107977797D01*
X168885300Y-107875009D01*
X168885299Y-107249729D01*
X168904983Y-107182691D01*
X168921618Y-107162049D01*
X169472619Y-106611049D01*
X169533942Y-106577564D01*
X169603634Y-106582548D01*
X169659567Y-106624420D01*
X169683984Y-106689884D01*
X169684300Y-106698730D01*
X169684300Y-107875001D01*
X169684301Y-107875018D01*
X169694800Y-107977796D01*
X169694801Y-107977799D01*
X169726940Y-108074787D01*
X169749986Y-108144334D01*
X169842088Y-108293656D01*
X169966144Y-108417712D01*
X170037896Y-108461968D01*
X170084621Y-108513915D01*
X170096800Y-108567507D01*
X170096800Y-108864291D01*
X170077115Y-108931330D01*
X170060481Y-108951972D01*
X167320994Y-111691458D01*
X167259671Y-111724943D01*
X167220714Y-111727135D01*
X167194925Y-111724501D01*
X167194914Y-111724500D01*
X167194909Y-111724500D01*
X167194902Y-111724500D01*
X166469898Y-111724500D01*
X166469880Y-111724501D01*
X166367103Y-111735000D01*
X166367100Y-111735001D01*
X166200568Y-111790185D01*
X166200563Y-111790187D01*
X166051242Y-111882289D01*
X165927189Y-112006342D01*
X165835087Y-112155663D01*
X165835086Y-112155666D01*
X165779901Y-112322203D01*
X165779901Y-112322204D01*
X165779900Y-112322204D01*
X165769400Y-112424983D01*
X164970398Y-112424983D01*
X164961745Y-112340279D01*
X164959899Y-112322203D01*
X164959898Y-112322200D01*
X164954372Y-112305524D01*
X164904714Y-112155666D01*
X164812612Y-112006344D01*
X164688556Y-111882288D01*
X164550632Y-111797216D01*
X164539236Y-111790187D01*
X164539231Y-111790185D01*
X164537762Y-111789698D01*
X164372697Y-111735001D01*
X164372695Y-111735000D01*
X164269910Y-111724500D01*
X163544898Y-111724500D01*
X163544880Y-111724501D01*
X163442103Y-111735000D01*
X163442100Y-111735001D01*
X163275568Y-111790185D01*
X163275563Y-111790187D01*
X163126242Y-111882289D01*
X163002189Y-112006342D01*
X162910087Y-112155663D01*
X162910086Y-112155666D01*
X162854901Y-112322203D01*
X162854901Y-112322204D01*
X162854900Y-112322204D01*
X162844400Y-112424983D01*
X150140798Y-112424983D01*
X150140384Y-112423438D01*
X150027237Y-112150277D01*
X150004824Y-112111457D01*
X149879404Y-111894222D01*
X149699415Y-111659655D01*
X149699409Y-111659648D01*
X149490351Y-111450590D01*
X149490344Y-111450584D01*
X149255777Y-111270595D01*
X148999726Y-111122764D01*
X148999716Y-111122760D01*
X148726564Y-111009616D01*
X148573516Y-110968607D01*
X148440970Y-110933092D01*
X148440964Y-110933091D01*
X148440959Y-110933090D01*
X148147843Y-110894501D01*
X148147838Y-110894500D01*
X148147833Y-110894500D01*
X147852167Y-110894500D01*
X147852161Y-110894500D01*
X147852156Y-110894501D01*
X147559040Y-110933090D01*
X147559033Y-110933091D01*
X147559030Y-110933092D01*
X147503007Y-110948103D01*
X147273435Y-111009616D01*
X147000283Y-111122760D01*
X147000273Y-111122764D01*
X146744222Y-111270595D01*
X146509655Y-111450584D01*
X146509648Y-111450590D01*
X146300590Y-111659648D01*
X146300584Y-111659655D01*
X146120595Y-111894222D01*
X145972764Y-112150273D01*
X145972760Y-112150283D01*
X145859616Y-112423435D01*
X145783093Y-112709027D01*
X145783090Y-112709040D01*
X145744501Y-113002156D01*
X145744500Y-113002173D01*
X136600500Y-113002173D01*
X136600500Y-109373920D01*
X142649499Y-109373920D01*
X142678340Y-109518907D01*
X142678343Y-109518917D01*
X142734913Y-109655490D01*
X142734914Y-109655491D01*
X142734916Y-109655495D01*
X142754852Y-109685331D01*
X142805795Y-109761575D01*
X142817051Y-109778420D01*
X142817052Y-109778421D01*
X143421584Y-110382952D01*
X143421586Y-110382954D01*
X143451058Y-110402645D01*
X143495270Y-110432186D01*
X143544505Y-110465084D01*
X143544506Y-110465084D01*
X143544507Y-110465085D01*
X143544509Y-110465086D01*
X143681082Y-110521656D01*
X143681087Y-110521658D01*
X143681091Y-110521658D01*
X143681092Y-110521659D01*
X143826079Y-110550500D01*
X143826082Y-110550500D01*
X155281320Y-110550500D01*
X155378862Y-110531096D01*
X155426313Y-110521658D01*
X155562895Y-110465084D01*
X155612129Y-110432186D01*
X155612134Y-110432183D01*
X155648137Y-110408127D01*
X155685816Y-110382952D01*
X163956948Y-102111817D01*
X164018271Y-102078333D01*
X164044629Y-102075499D01*
X164669902Y-102075499D01*
X164669908Y-102075499D01*
X164772697Y-102064999D01*
X164939234Y-102009814D01*
X165088556Y-101917712D01*
X165212612Y-101793656D01*
X165304714Y-101644334D01*
X165359899Y-101477797D01*
X165370400Y-101375009D01*
X165370399Y-100024992D01*
X165370293Y-100023959D01*
X165359899Y-99922203D01*
X165359898Y-99922200D01*
X165348932Y-99889106D01*
X165304714Y-99755666D01*
X165212612Y-99606344D01*
X165088556Y-99482288D01*
X164995788Y-99425069D01*
X164939236Y-99390187D01*
X164939231Y-99390185D01*
X164937762Y-99389698D01*
X164772697Y-99335001D01*
X164772695Y-99335000D01*
X164669910Y-99324500D01*
X163944898Y-99324500D01*
X163944880Y-99324501D01*
X163842103Y-99335000D01*
X163842100Y-99335001D01*
X163675568Y-99390185D01*
X163675563Y-99390187D01*
X163526242Y-99482289D01*
X163402189Y-99606342D01*
X163310087Y-99755663D01*
X163310085Y-99755668D01*
X163282249Y-99839670D01*
X163254901Y-99922203D01*
X163254901Y-99922204D01*
X163254900Y-99922204D01*
X163244400Y-100024983D01*
X163244400Y-100650270D01*
X163224715Y-100717309D01*
X163208081Y-100737951D01*
X154932851Y-109013181D01*
X154871528Y-109046666D01*
X154845170Y-109049500D01*
X144274500Y-109049500D01*
X144207461Y-109029815D01*
X144161706Y-108977011D01*
X144150500Y-108925500D01*
X144150500Y-107897748D01*
X144170185Y-107830709D01*
X144222989Y-107784954D01*
X144292147Y-107775010D01*
X144355703Y-107804035D01*
X144362181Y-107810067D01*
X144489005Y-107936891D01*
X144489010Y-107936895D01*
X144654558Y-108057171D01*
X144678808Y-108074790D01*
X144887847Y-108181301D01*
X144887849Y-108181302D01*
X144999410Y-108217550D01*
X145110974Y-108253799D01*
X145342695Y-108290500D01*
X145342696Y-108290500D01*
X145577304Y-108290500D01*
X145577305Y-108290500D01*
X145809026Y-108253799D01*
X146032153Y-108181301D01*
X146241192Y-108074790D01*
X146430996Y-107936890D01*
X146596890Y-107770996D01*
X146629681Y-107725863D01*
X146685011Y-107683196D01*
X146754624Y-107677216D01*
X146816419Y-107709822D01*
X146830319Y-107725863D01*
X146863106Y-107770992D01*
X147029005Y-107936891D01*
X147029010Y-107936895D01*
X147194558Y-108057171D01*
X147218808Y-108074790D01*
X147427847Y-108181301D01*
X147427849Y-108181302D01*
X147539410Y-108217550D01*
X147650974Y-108253799D01*
X147882695Y-108290500D01*
X147882696Y-108290500D01*
X148117304Y-108290500D01*
X148117305Y-108290500D01*
X148349026Y-108253799D01*
X148572153Y-108181301D01*
X148781192Y-108074790D01*
X148970996Y-107936890D01*
X149136890Y-107770996D01*
X149169681Y-107725863D01*
X149225011Y-107683196D01*
X149294624Y-107677216D01*
X149356419Y-107709822D01*
X149370319Y-107725863D01*
X149403106Y-107770992D01*
X149569005Y-107936891D01*
X149569010Y-107936895D01*
X149734558Y-108057171D01*
X149758808Y-108074790D01*
X149967847Y-108181301D01*
X149967849Y-108181302D01*
X150079410Y-108217550D01*
X150190974Y-108253799D01*
X150422695Y-108290500D01*
X150422696Y-108290500D01*
X150657304Y-108290500D01*
X150657305Y-108290500D01*
X150889026Y-108253799D01*
X151112153Y-108181301D01*
X151321192Y-108074790D01*
X151510996Y-107936890D01*
X151676890Y-107770996D01*
X151709681Y-107725863D01*
X151765011Y-107683196D01*
X151834624Y-107677216D01*
X151896419Y-107709822D01*
X151910319Y-107725863D01*
X151943106Y-107770992D01*
X152109005Y-107936891D01*
X152109010Y-107936895D01*
X152274558Y-108057171D01*
X152298808Y-108074790D01*
X152507847Y-108181301D01*
X152507849Y-108181302D01*
X152619410Y-108217550D01*
X152730974Y-108253799D01*
X152962695Y-108290500D01*
X152962696Y-108290500D01*
X153197304Y-108290500D01*
X153197305Y-108290500D01*
X153429026Y-108253799D01*
X153652153Y-108181301D01*
X153861192Y-108074790D01*
X154050996Y-107936890D01*
X154216890Y-107770996D01*
X154354790Y-107581192D01*
X154461301Y-107372153D01*
X154533799Y-107149026D01*
X154570500Y-106917305D01*
X154570500Y-106682695D01*
X154533799Y-106450974D01*
X154497550Y-106339410D01*
X154461302Y-106227849D01*
X154445185Y-106196218D01*
X154354790Y-106018808D01*
X154323014Y-105975072D01*
X154216895Y-105829010D01*
X154216891Y-105829005D01*
X154050992Y-105663106D01*
X154005863Y-105630319D01*
X153963196Y-105574989D01*
X153957216Y-105505376D01*
X153989822Y-105443581D01*
X154005863Y-105429681D01*
X154050992Y-105396893D01*
X154050992Y-105396892D01*
X154050996Y-105396890D01*
X154216890Y-105230996D01*
X154354790Y-105041192D01*
X154461301Y-104832153D01*
X154533799Y-104609026D01*
X154570500Y-104377305D01*
X154570500Y-104142695D01*
X154533799Y-103910974D01*
X154461301Y-103687847D01*
X154354790Y-103478808D01*
X154337171Y-103454558D01*
X154216895Y-103289010D01*
X154216891Y-103289005D01*
X154050994Y-103123108D01*
X154050989Y-103123104D01*
X153861194Y-102985211D01*
X153652150Y-102878697D01*
X153429027Y-102806201D01*
X153313165Y-102787850D01*
X153197305Y-102769500D01*
X152962695Y-102769500D01*
X152890523Y-102780931D01*
X152730972Y-102806201D01*
X152507849Y-102878697D01*
X152298806Y-102985211D01*
X152109010Y-103123104D01*
X152109005Y-103123108D01*
X151943108Y-103289005D01*
X151943104Y-103289010D01*
X151910318Y-103334137D01*
X151854988Y-103376803D01*
X151785375Y-103382782D01*
X151723580Y-103350176D01*
X151709682Y-103334137D01*
X151676895Y-103289010D01*
X151676891Y-103289005D01*
X151510994Y-103123108D01*
X151510989Y-103123104D01*
X151321194Y-102985211D01*
X151112150Y-102878697D01*
X150889027Y-102806201D01*
X150773165Y-102787850D01*
X150657305Y-102769500D01*
X150422695Y-102769500D01*
X150350523Y-102780931D01*
X150190972Y-102806201D01*
X149967849Y-102878697D01*
X149758806Y-102985211D01*
X149569010Y-103123104D01*
X149569005Y-103123108D01*
X149403108Y-103289005D01*
X149403104Y-103289010D01*
X149370318Y-103334137D01*
X149314988Y-103376803D01*
X149245375Y-103382782D01*
X149183580Y-103350176D01*
X149169682Y-103334137D01*
X149136895Y-103289010D01*
X149136891Y-103289005D01*
X148970994Y-103123108D01*
X148970989Y-103123104D01*
X148781194Y-102985211D01*
X148572150Y-102878697D01*
X148349027Y-102806201D01*
X148233165Y-102787850D01*
X148117305Y-102769500D01*
X147882695Y-102769500D01*
X147810523Y-102780931D01*
X147650972Y-102806201D01*
X147427849Y-102878697D01*
X147218806Y-102985211D01*
X147029010Y-103123104D01*
X147029005Y-103123108D01*
X146863108Y-103289005D01*
X146863104Y-103289010D01*
X146830318Y-103334137D01*
X146774988Y-103376803D01*
X146705375Y-103382782D01*
X146643580Y-103350176D01*
X146629682Y-103334137D01*
X146596895Y-103289010D01*
X146596891Y-103289005D01*
X146430994Y-103123108D01*
X146430989Y-103123104D01*
X146241194Y-102985211D01*
X146032150Y-102878697D01*
X145809027Y-102806201D01*
X145693165Y-102787850D01*
X145577305Y-102769500D01*
X145342695Y-102769500D01*
X145270523Y-102780931D01*
X145110972Y-102806201D01*
X144887849Y-102878697D01*
X144678806Y-102985211D01*
X144489010Y-103123104D01*
X144489005Y-103123108D01*
X144323108Y-103289005D01*
X144323104Y-103289010D01*
X144185212Y-103478804D01*
X144078697Y-103687849D01*
X144006201Y-103910972D01*
X143969500Y-104142695D01*
X143969500Y-104377304D01*
X144006201Y-104609027D01*
X144078697Y-104832150D01*
X144185212Y-105041195D01*
X144323104Y-105230989D01*
X144323108Y-105230994D01*
X144489005Y-105396891D01*
X144489010Y-105396895D01*
X144534137Y-105429682D01*
X144576803Y-105485012D01*
X144582782Y-105554625D01*
X144550176Y-105616420D01*
X144534137Y-105630318D01*
X144489010Y-105663104D01*
X144489005Y-105663108D01*
X144323110Y-105829003D01*
X144278659Y-105890186D01*
X144200046Y-105998386D01*
X144144719Y-106041051D01*
X144099730Y-106049500D01*
X144026080Y-106049500D01*
X143881092Y-106078340D01*
X143881082Y-106078343D01*
X143744511Y-106134912D01*
X143744498Y-106134919D01*
X143621584Y-106217048D01*
X143621580Y-106217051D01*
X142817050Y-107021580D01*
X142817044Y-107021588D01*
X142767812Y-107095268D01*
X142767813Y-107095269D01*
X142734921Y-107144496D01*
X142734914Y-107144508D01*
X142678342Y-107281086D01*
X142678340Y-107281092D01*
X142649500Y-107426079D01*
X142649500Y-107426082D01*
X142649500Y-109373918D01*
X142649500Y-109373920D01*
X142649499Y-109373920D01*
X136600500Y-109373920D01*
X136600500Y-97863920D01*
X142049499Y-97863920D01*
X142078340Y-98008907D01*
X142078343Y-98008917D01*
X142134914Y-98145492D01*
X142134915Y-98145494D01*
X142134916Y-98145495D01*
X142165055Y-98190602D01*
X142165057Y-98190604D01*
X142165058Y-98190607D01*
X142217046Y-98268414D01*
X142217052Y-98268421D01*
X143967460Y-100018828D01*
X144000945Y-100080151D01*
X144002252Y-100125907D01*
X143969500Y-100332695D01*
X143969500Y-100567304D01*
X144006201Y-100799027D01*
X144078697Y-101022150D01*
X144131954Y-101126672D01*
X144165842Y-101193181D01*
X144185212Y-101231195D01*
X144323104Y-101420989D01*
X144323108Y-101420994D01*
X144489005Y-101586891D01*
X144489010Y-101586895D01*
X144568065Y-101644331D01*
X144678808Y-101724790D01*
X144813392Y-101793364D01*
X144887849Y-101831302D01*
X144999410Y-101867550D01*
X145110974Y-101903799D01*
X145342695Y-101940500D01*
X145342696Y-101940500D01*
X145577304Y-101940500D01*
X145577305Y-101940500D01*
X145809026Y-101903799D01*
X146032153Y-101831301D01*
X146241192Y-101724790D01*
X146430996Y-101586890D01*
X146596890Y-101420996D01*
X146629681Y-101375863D01*
X146685011Y-101333196D01*
X146754624Y-101327216D01*
X146816419Y-101359822D01*
X146830319Y-101375863D01*
X146863106Y-101420992D01*
X147029005Y-101586891D01*
X147029010Y-101586895D01*
X147108065Y-101644331D01*
X147218808Y-101724790D01*
X147353392Y-101793364D01*
X147427849Y-101831302D01*
X147539410Y-101867550D01*
X147650974Y-101903799D01*
X147882695Y-101940500D01*
X147882696Y-101940500D01*
X148117304Y-101940500D01*
X148117305Y-101940500D01*
X148349026Y-101903799D01*
X148572153Y-101831301D01*
X148781192Y-101724790D01*
X148970996Y-101586890D01*
X149136890Y-101420996D01*
X149169681Y-101375863D01*
X149225011Y-101333196D01*
X149294624Y-101327216D01*
X149356419Y-101359822D01*
X149370319Y-101375863D01*
X149403106Y-101420992D01*
X149569005Y-101586891D01*
X149569010Y-101586895D01*
X149648065Y-101644331D01*
X149758808Y-101724790D01*
X149893392Y-101793364D01*
X149967849Y-101831302D01*
X150079410Y-101867550D01*
X150190974Y-101903799D01*
X150422695Y-101940500D01*
X150422696Y-101940500D01*
X150657304Y-101940500D01*
X150657305Y-101940500D01*
X150889026Y-101903799D01*
X151112153Y-101831301D01*
X151321192Y-101724790D01*
X151510996Y-101586890D01*
X151676890Y-101420996D01*
X151709681Y-101375863D01*
X151765011Y-101333196D01*
X151834624Y-101327216D01*
X151896419Y-101359822D01*
X151910319Y-101375863D01*
X151943106Y-101420992D01*
X152109005Y-101586891D01*
X152109010Y-101586895D01*
X152188065Y-101644331D01*
X152298808Y-101724790D01*
X152433392Y-101793364D01*
X152507849Y-101831302D01*
X152619410Y-101867550D01*
X152730974Y-101903799D01*
X152962695Y-101940500D01*
X152962696Y-101940500D01*
X153197304Y-101940500D01*
X153197305Y-101940500D01*
X153429026Y-101903799D01*
X153652153Y-101831301D01*
X153861192Y-101724790D01*
X154050996Y-101586890D01*
X154216890Y-101420996D01*
X154354790Y-101231192D01*
X154461301Y-101022153D01*
X154533799Y-100799026D01*
X154570500Y-100567305D01*
X154570500Y-100332695D01*
X154533799Y-100100974D01*
X154497550Y-99989410D01*
X154461302Y-99877849D01*
X154408336Y-99773898D01*
X154354790Y-99668808D01*
X154315750Y-99615074D01*
X154216895Y-99479010D01*
X154216891Y-99479005D01*
X154050992Y-99313106D01*
X154005863Y-99280319D01*
X153963196Y-99224989D01*
X153957216Y-99155376D01*
X153989822Y-99093581D01*
X154005863Y-99079681D01*
X154050992Y-99046893D01*
X154050992Y-99046892D01*
X154050996Y-99046890D01*
X154216890Y-98880996D01*
X154354790Y-98691192D01*
X154461301Y-98482153D01*
X154533799Y-98259026D01*
X154570500Y-98027305D01*
X154570500Y-97792695D01*
X154533799Y-97560974D01*
X154461301Y-97337847D01*
X154354790Y-97128808D01*
X154337171Y-97104558D01*
X154216895Y-96939010D01*
X154216891Y-96939005D01*
X154050994Y-96773108D01*
X154050989Y-96773104D01*
X153861195Y-96635212D01*
X153861194Y-96635211D01*
X153861192Y-96635210D01*
X153756672Y-96581954D01*
X153652150Y-96528697D01*
X153429027Y-96456201D01*
X153313165Y-96437850D01*
X153197305Y-96419500D01*
X152962695Y-96419500D01*
X152885454Y-96431733D01*
X152730972Y-96456201D01*
X152507849Y-96528697D01*
X152298804Y-96635212D01*
X152109010Y-96773104D01*
X152109005Y-96773108D01*
X151943108Y-96939005D01*
X151943104Y-96939010D01*
X151910318Y-96984137D01*
X151854988Y-97026803D01*
X151785375Y-97032782D01*
X151723580Y-97000176D01*
X151709682Y-96984137D01*
X151676895Y-96939010D01*
X151676891Y-96939005D01*
X151510994Y-96773108D01*
X151510989Y-96773104D01*
X151321195Y-96635212D01*
X151321194Y-96635211D01*
X151321192Y-96635210D01*
X151216672Y-96581954D01*
X151112150Y-96528697D01*
X150889027Y-96456201D01*
X150773165Y-96437850D01*
X150657305Y-96419500D01*
X150422695Y-96419500D01*
X150345454Y-96431733D01*
X150190972Y-96456201D01*
X149967849Y-96528697D01*
X149758804Y-96635212D01*
X149569010Y-96773104D01*
X149569005Y-96773108D01*
X149403108Y-96939005D01*
X149403104Y-96939010D01*
X149370318Y-96984137D01*
X149314988Y-97026803D01*
X149245375Y-97032782D01*
X149183580Y-97000176D01*
X149169682Y-96984137D01*
X149136895Y-96939010D01*
X149136891Y-96939005D01*
X148970994Y-96773108D01*
X148970989Y-96773104D01*
X148781195Y-96635212D01*
X148781194Y-96635211D01*
X148781192Y-96635210D01*
X148676672Y-96581954D01*
X148572150Y-96528697D01*
X148349027Y-96456201D01*
X148233165Y-96437850D01*
X148117305Y-96419500D01*
X147882695Y-96419500D01*
X147805454Y-96431733D01*
X147650972Y-96456201D01*
X147427849Y-96528697D01*
X147218804Y-96635212D01*
X147029010Y-96773104D01*
X147029005Y-96773108D01*
X146863108Y-96939005D01*
X146863104Y-96939010D01*
X146830318Y-96984137D01*
X146774988Y-97026803D01*
X146705375Y-97032782D01*
X146643580Y-97000176D01*
X146629682Y-96984137D01*
X146596895Y-96939010D01*
X146596891Y-96939005D01*
X146430994Y-96773108D01*
X146430989Y-96773104D01*
X146241195Y-96635212D01*
X146241194Y-96635211D01*
X146241192Y-96635210D01*
X146136672Y-96581954D01*
X146032150Y-96528697D01*
X145809027Y-96456201D01*
X145693165Y-96437850D01*
X145577305Y-96419500D01*
X145342695Y-96419500D01*
X145265454Y-96431733D01*
X145110972Y-96456201D01*
X144887849Y-96528697D01*
X144678804Y-96635212D01*
X144489010Y-96773104D01*
X144489005Y-96773108D01*
X144323108Y-96939005D01*
X144323104Y-96939010D01*
X144185212Y-97128804D01*
X144078697Y-97337849D01*
X144006201Y-97560972D01*
X143993154Y-97643349D01*
X143963225Y-97706484D01*
X143903913Y-97743415D01*
X143834051Y-97742417D01*
X143783000Y-97711632D01*
X143586819Y-97515451D01*
X143553334Y-97454128D01*
X143550500Y-97427770D01*
X143550500Y-96462229D01*
X143570185Y-96395190D01*
X143586819Y-96374548D01*
X144074548Y-95886819D01*
X144135871Y-95853334D01*
X144162229Y-95850500D01*
X154673920Y-95850500D01*
X154771462Y-95831096D01*
X154818913Y-95821658D01*
X154955495Y-95765084D01*
X155004729Y-95732186D01*
X155078416Y-95682952D01*
X164174548Y-86586818D01*
X164235871Y-86553334D01*
X164262229Y-86550500D01*
X165061002Y-86550500D01*
X165104335Y-86558318D01*
X165213117Y-86598891D01*
X165272727Y-86605300D01*
X165765300Y-86605299D01*
X165832339Y-86624983D01*
X165878094Y-86677787D01*
X165889300Y-86729299D01*
X165889300Y-87003871D01*
X165904830Y-87081942D01*
X165904830Y-87081943D01*
X165914296Y-87129537D01*
X165914298Y-87129542D01*
X165914299Y-87129544D01*
X165963335Y-87247927D01*
X165974999Y-87265383D01*
X166034526Y-87354473D01*
X166034527Y-87354474D01*
X169213181Y-90533127D01*
X169246666Y-90594450D01*
X169249500Y-90620808D01*
X169249500Y-92570700D01*
X169229815Y-92637739D01*
X169177011Y-92683494D01*
X169148240Y-92692597D01*
X169136962Y-92694700D01*
X169112528Y-92694701D01*
X169052917Y-92701109D01*
X169003189Y-92719656D01*
X168992640Y-92721624D01*
X168968124Y-92719135D01*
X168943539Y-92720893D01*
X168926569Y-92715910D01*
X168886886Y-92701110D01*
X168886885Y-92701109D01*
X168886883Y-92701109D01*
X168827273Y-92694700D01*
X168827263Y-92694700D01*
X168172729Y-92694700D01*
X168172723Y-92694701D01*
X168113116Y-92701108D01*
X167978271Y-92751402D01*
X167978264Y-92751406D01*
X167863055Y-92837652D01*
X167863052Y-92837655D01*
X167776806Y-92952864D01*
X167776802Y-92952871D01*
X167726510Y-93087713D01*
X167726509Y-93087717D01*
X167720100Y-93147327D01*
X167720100Y-93147335D01*
X167720100Y-93147336D01*
X167720100Y-93852670D01*
X167720101Y-93852676D01*
X167726508Y-93912283D01*
X167776802Y-94047128D01*
X167776803Y-94047129D01*
X167776804Y-94047131D01*
X167815756Y-94099164D01*
X167825966Y-94112803D01*
X167830808Y-94123662D01*
X167836574Y-94129637D01*
X167848316Y-94162921D01*
X167862114Y-94232283D01*
X167865358Y-94248593D01*
X167865359Y-94248595D01*
X167865359Y-94248597D01*
X167874496Y-94294537D01*
X167874498Y-94294542D01*
X167922936Y-94411480D01*
X167923535Y-94412927D01*
X167993106Y-94517049D01*
X167994726Y-94519473D01*
X167994727Y-94519474D01*
X170414259Y-96939004D01*
X171189924Y-97714669D01*
X171280531Y-97805276D01*
X171293874Y-97814191D01*
X171301720Y-97821706D01*
X171302048Y-97822278D01*
X171303630Y-97823576D01*
X175052386Y-101572332D01*
X175085871Y-101633655D01*
X175080887Y-101703347D01*
X175052386Y-101747694D01*
X173894724Y-102905356D01*
X173841368Y-102985211D01*
X173823535Y-103011899D01*
X173774499Y-103130283D01*
X173774497Y-103130289D01*
X173749500Y-103255956D01*
X173749500Y-109779191D01*
X173729815Y-109846230D01*
X173713181Y-109866872D01*
X172394727Y-111185325D01*
X172394726Y-111185326D01*
X172337753Y-111270595D01*
X172323533Y-111291876D01*
X172274499Y-111410255D01*
X172274497Y-111410261D01*
X172249500Y-111535928D01*
X172249500Y-116926491D01*
X172229815Y-116993530D01*
X172213181Y-117014172D01*
X171535894Y-117691458D01*
X171474571Y-117724943D01*
X171435614Y-117727135D01*
X171409825Y-117724501D01*
X171409814Y-117724500D01*
X171409809Y-117724500D01*
X171409802Y-117724500D01*
X170684798Y-117724500D01*
X170684780Y-117724501D01*
X170582003Y-117735000D01*
X170582000Y-117735001D01*
X170415468Y-117790185D01*
X170415463Y-117790187D01*
X170266142Y-117882289D01*
X170142089Y-118006342D01*
X170049987Y-118155663D01*
X170049986Y-118155666D01*
X169994801Y-118322203D01*
X169994801Y-118322204D01*
X169994800Y-118322204D01*
X169984300Y-118424983D01*
X169984300Y-119775001D01*
X169984301Y-119775018D01*
X169994800Y-119877796D01*
X169994801Y-119877799D01*
X170049985Y-120044331D01*
X170049986Y-120044334D01*
X170142088Y-120193656D01*
X170266144Y-120317712D01*
X170415466Y-120409814D01*
X170582003Y-120464999D01*
X170684791Y-120475500D01*
X171409808Y-120475499D01*
X171409816Y-120475498D01*
X171409819Y-120475498D01*
X171466102Y-120469748D01*
X171512597Y-120464999D01*
X171679134Y-120409814D01*
X171828456Y-120317712D01*
X171952512Y-120193656D01*
X172044614Y-120044334D01*
X172099799Y-119877797D01*
X172110300Y-119775009D01*
X172110299Y-119008306D01*
X172129983Y-118941268D01*
X172146613Y-118920631D01*
X173405276Y-117661970D01*
X173476465Y-117555427D01*
X173525501Y-117437044D01*
X173550500Y-117311369D01*
X173550500Y-113804370D01*
X179535100Y-113804370D01*
X179535100Y-113985629D01*
X179563452Y-114164640D01*
X179619464Y-114337025D01*
X179701750Y-114498520D01*
X179713437Y-114514606D01*
X179713438Y-114514606D01*
X180306600Y-113921445D01*
X180306600Y-113945028D01*
X180332496Y-114041675D01*
X180382524Y-114128325D01*
X180453275Y-114199076D01*
X180539925Y-114249104D01*
X180636572Y-114275000D01*
X180660153Y-114275000D01*
X180066991Y-114868160D01*
X180066992Y-114868161D01*
X180083078Y-114879848D01*
X180244574Y-114962135D01*
X180416959Y-115018147D01*
X180416958Y-115018147D01*
X180595971Y-115046500D01*
X180777229Y-115046500D01*
X180956240Y-115018147D01*
X181128625Y-114962135D01*
X181290114Y-114879853D01*
X181306207Y-114868160D01*
X180713048Y-114275000D01*
X180736628Y-114275000D01*
X180833275Y-114249104D01*
X180919925Y-114199076D01*
X180990676Y-114128325D01*
X181040704Y-114041675D01*
X181066600Y-113945028D01*
X181066600Y-113921446D01*
X181659760Y-114514606D01*
X181671453Y-114498514D01*
X181753735Y-114337025D01*
X181809747Y-114164640D01*
X181838100Y-113985629D01*
X181838100Y-113804370D01*
X181809747Y-113625359D01*
X181753735Y-113452974D01*
X181671448Y-113291478D01*
X181659761Y-113275392D01*
X181659760Y-113275391D01*
X181066600Y-113868551D01*
X181066600Y-113844972D01*
X181040704Y-113748325D01*
X180990676Y-113661675D01*
X180919925Y-113590924D01*
X180833275Y-113540896D01*
X180736628Y-113515000D01*
X180713047Y-113515000D01*
X181306206Y-112921838D01*
X181306206Y-112921837D01*
X181290120Y-112910150D01*
X181128625Y-112827864D01*
X180956240Y-112771852D01*
X180956241Y-112771852D01*
X180777229Y-112743500D01*
X180595971Y-112743500D01*
X180416959Y-112771852D01*
X180244574Y-112827864D01*
X180083084Y-112910147D01*
X180066992Y-112921837D01*
X180066992Y-112921838D01*
X180660154Y-113515000D01*
X180636572Y-113515000D01*
X180539925Y-113540896D01*
X180453275Y-113590924D01*
X180382524Y-113661675D01*
X180332496Y-113748325D01*
X180306600Y-113844972D01*
X180306600Y-113868553D01*
X179713438Y-113275392D01*
X179713437Y-113275392D01*
X179701747Y-113291484D01*
X179619464Y-113452974D01*
X179563452Y-113625359D01*
X179535100Y-113804370D01*
X173550500Y-113804370D01*
X173550500Y-111920808D01*
X173570185Y-111853769D01*
X173586819Y-111833127D01*
X174905271Y-110514675D01*
X174905276Y-110514670D01*
X174940870Y-110461398D01*
X174976464Y-110408129D01*
X174986893Y-110382952D01*
X175025501Y-110289744D01*
X175037113Y-110231366D01*
X175050500Y-110164069D01*
X175050500Y-103640836D01*
X175070185Y-103573797D01*
X175086819Y-103553155D01*
X176293141Y-102346833D01*
X176354464Y-102313348D01*
X176380822Y-102310514D01*
X178859150Y-102310514D01*
X178926189Y-102330199D01*
X178971944Y-102383003D01*
X178983150Y-102434514D01*
X178983150Y-102586444D01*
X178989551Y-102645972D01*
X178989553Y-102645979D01*
X179039795Y-102780686D01*
X179039799Y-102780693D01*
X179125959Y-102895787D01*
X179125962Y-102895790D01*
X179241056Y-102981950D01*
X179241063Y-102981954D01*
X179375770Y-103032196D01*
X179375777Y-103032198D01*
X179435305Y-103038599D01*
X179435322Y-103038600D01*
X179756200Y-103038600D01*
X179756200Y-102513113D01*
X179758750Y-102504427D01*
X179757462Y-102495466D01*
X179768440Y-102471425D01*
X179775885Y-102446074D01*
X179782725Y-102440146D01*
X179786487Y-102431910D01*
X179808721Y-102417620D01*
X179828689Y-102400319D01*
X179839203Y-102398031D01*
X179845265Y-102394136D01*
X179880195Y-102389113D01*
X180089401Y-102389113D01*
X180156439Y-102408798D01*
X180202194Y-102461602D01*
X180213400Y-102513113D01*
X180213400Y-103038600D01*
X180534278Y-103038600D01*
X180534294Y-103038599D01*
X180593822Y-103032198D01*
X180593830Y-103032196D01*
X180632165Y-103017898D01*
X180701856Y-103012912D01*
X180763180Y-103046397D01*
X180796666Y-103107719D01*
X180799500Y-103134079D01*
X180799500Y-109441730D01*
X180799499Y-109441748D01*
X180799499Y-109607454D01*
X180799498Y-109607454D01*
X180840423Y-109760185D01*
X180840425Y-109760189D01*
X180841225Y-109761575D01*
X180841228Y-109761579D01*
X180919477Y-109897112D01*
X180919481Y-109897117D01*
X181038349Y-110015985D01*
X181038355Y-110015990D01*
X182058924Y-111036559D01*
X182092409Y-111097882D01*
X182093716Y-111143638D01*
X182074600Y-111264330D01*
X182074600Y-111445669D01*
X182102965Y-111624757D01*
X182102966Y-111624761D01*
X182159000Y-111797214D01*
X182241321Y-111958779D01*
X182347904Y-112105477D01*
X182476123Y-112233696D01*
X182574987Y-112305525D01*
X182617651Y-112360854D01*
X182626100Y-112405842D01*
X182626100Y-115339930D01*
X182626099Y-115339948D01*
X182626099Y-115505654D01*
X182626098Y-115505654D01*
X182667023Y-115658387D01*
X182667024Y-115658388D01*
X182672697Y-115668213D01*
X182672699Y-115668216D01*
X182746077Y-115795312D01*
X182746081Y-115795317D01*
X182864949Y-115914185D01*
X182864955Y-115914190D01*
X183315139Y-116364374D01*
X183315149Y-116364385D01*
X183319479Y-116368715D01*
X183319480Y-116368716D01*
X183431284Y-116480520D01*
X183518095Y-116530639D01*
X183518097Y-116530641D01*
X183556151Y-116552611D01*
X183568215Y-116559577D01*
X183720943Y-116600500D01*
X183720945Y-116600500D01*
X194479055Y-116600500D01*
X194479057Y-116600500D01*
X194631784Y-116559577D01*
X194768716Y-116480520D01*
X194880520Y-116368716D01*
X194959577Y-116231784D01*
X194966397Y-116206329D01*
X194998489Y-116150744D01*
X195868713Y-115280521D01*
X195868716Y-115280520D01*
X195980520Y-115168716D01*
X196030639Y-115081904D01*
X196059577Y-115031785D01*
X196100501Y-114879057D01*
X196100501Y-114720943D01*
X196100501Y-114713348D01*
X196100500Y-114713330D01*
X196100500Y-113674727D01*
X196120185Y-113607688D01*
X196172989Y-113561933D01*
X196177048Y-113560166D01*
X196253717Y-113528409D01*
X196253718Y-113528407D01*
X196253726Y-113528405D01*
X196446774Y-113416948D01*
X196623624Y-113281247D01*
X196781247Y-113123624D01*
X196916948Y-112946774D01*
X197028405Y-112753726D01*
X197113710Y-112547781D01*
X197171404Y-112332463D01*
X197200500Y-112111457D01*
X197200500Y-111888543D01*
X197171404Y-111667537D01*
X197113710Y-111452219D01*
X197096330Y-111410261D01*
X197038479Y-111270595D01*
X197028405Y-111246274D01*
X196916948Y-111053226D01*
X196824767Y-110933093D01*
X196781248Y-110876377D01*
X196781242Y-110876370D01*
X196623629Y-110718757D01*
X196623622Y-110718751D01*
X196446782Y-110583058D01*
X196446780Y-110583057D01*
X196446774Y-110583052D01*
X196253726Y-110471595D01*
X196253722Y-110471593D01*
X196047790Y-110386293D01*
X196047783Y-110386291D01*
X196047781Y-110386290D01*
X195832463Y-110328596D01*
X195832457Y-110328595D01*
X195832452Y-110328594D01*
X195611466Y-110299501D01*
X195611463Y-110299500D01*
X195611457Y-110299500D01*
X195388543Y-110299500D01*
X195388537Y-110299500D01*
X195388533Y-110299501D01*
X195167547Y-110328594D01*
X195167540Y-110328595D01*
X195167537Y-110328596D01*
X195014056Y-110369721D01*
X194952219Y-110386290D01*
X194952209Y-110386293D01*
X194746277Y-110471593D01*
X194746273Y-110471595D01*
X194553226Y-110583052D01*
X194553217Y-110583058D01*
X194376377Y-110718751D01*
X194376370Y-110718757D01*
X194218757Y-110876370D01*
X194218751Y-110876377D01*
X194083058Y-111053217D01*
X194083052Y-111053226D01*
X193971595Y-111246273D01*
X193971593Y-111246277D01*
X193886293Y-111452209D01*
X193886290Y-111452219D01*
X193828597Y-111667534D01*
X193828594Y-111667547D01*
X193799501Y-111888533D01*
X193799500Y-111888549D01*
X193799500Y-112111450D01*
X193799501Y-112111466D01*
X193828594Y-112332452D01*
X193828595Y-112332457D01*
X193828596Y-112332463D01*
X193848258Y-112405842D01*
X193886290Y-112547780D01*
X193886293Y-112547790D01*
X193953080Y-112709027D01*
X193971595Y-112753726D01*
X194083052Y-112946774D01*
X194083057Y-112946780D01*
X194083058Y-112946782D01*
X194218751Y-113123622D01*
X194218757Y-113123629D01*
X194376370Y-113281242D01*
X194376376Y-113281247D01*
X194553226Y-113416948D01*
X194746274Y-113528405D01*
X194746277Y-113528406D01*
X194746282Y-113528409D01*
X194822952Y-113560166D01*
X194877356Y-113604006D01*
X194899421Y-113670300D01*
X194899500Y-113674727D01*
X194899500Y-114499903D01*
X194879815Y-114566942D01*
X194863181Y-114587584D01*
X194087584Y-115363181D01*
X194026261Y-115396666D01*
X193999903Y-115399500D01*
X184100097Y-115399500D01*
X184033058Y-115379815D01*
X184012416Y-115363181D01*
X183863419Y-115214184D01*
X183829934Y-115152861D01*
X183827100Y-115126503D01*
X183827100Y-112405842D01*
X183846785Y-112338803D01*
X183878212Y-112305525D01*
X183977077Y-112233696D01*
X184105296Y-112105477D01*
X184211879Y-111958779D01*
X184294200Y-111797214D01*
X184350234Y-111624761D01*
X184364304Y-111535928D01*
X184378600Y-111445669D01*
X184378600Y-111264330D01*
X184350234Y-111085242D01*
X184350234Y-111085239D01*
X184294200Y-110912786D01*
X184211879Y-110751221D01*
X184105296Y-110604523D01*
X183977077Y-110476304D01*
X183830379Y-110369721D01*
X183668814Y-110287400D01*
X183496361Y-110231366D01*
X183496359Y-110231365D01*
X183496357Y-110231365D01*
X183317269Y-110203000D01*
X183317264Y-110203000D01*
X183135936Y-110203000D01*
X183135931Y-110203000D01*
X183015238Y-110222116D01*
X182945945Y-110213161D01*
X182908159Y-110187324D01*
X182036819Y-109315984D01*
X182003334Y-109254661D01*
X182000500Y-109228303D01*
X182000500Y-103163099D01*
X182020185Y-103096060D01*
X182072989Y-103050305D01*
X182124495Y-103039099D01*
X183188622Y-103039099D01*
X183248233Y-103032691D01*
X183383081Y-102982396D01*
X183498296Y-102896146D01*
X183584546Y-102780931D01*
X183634841Y-102646083D01*
X183641250Y-102586473D01*
X183641249Y-102033528D01*
X183641247Y-102033509D01*
X183637458Y-101998259D01*
X183636798Y-101981438D01*
X183636937Y-101976596D01*
X183641250Y-101936487D01*
X183641249Y-101826705D01*
X183641300Y-101824958D01*
X183651572Y-101793364D01*
X183660933Y-101761485D01*
X183662332Y-101760272D01*
X183662905Y-101758512D01*
X183688623Y-101737490D01*
X183713737Y-101715730D01*
X183715569Y-101715466D01*
X183717003Y-101714295D01*
X183750013Y-101710513D01*
X183782895Y-101705786D01*
X183784578Y-101706554D01*
X183786419Y-101706344D01*
X183816233Y-101721010D01*
X183846451Y-101734810D01*
X183848876Y-101737068D01*
X183849113Y-101737185D01*
X183849255Y-101737421D01*
X183852930Y-101740843D01*
X185129781Y-103017694D01*
X185163266Y-103079017D01*
X185166100Y-103105375D01*
X185166100Y-112844158D01*
X185146415Y-112911197D01*
X185114987Y-112944474D01*
X185016123Y-113016304D01*
X185016121Y-113016306D01*
X185016120Y-113016306D01*
X184887906Y-113144520D01*
X184887906Y-113144521D01*
X184887904Y-113144523D01*
X184842131Y-113207523D01*
X184781321Y-113291220D01*
X184699001Y-113452783D01*
X184642965Y-113625242D01*
X184614600Y-113804330D01*
X184614600Y-113985669D01*
X184642965Y-114164757D01*
X184642966Y-114164761D01*
X184699000Y-114337214D01*
X184781321Y-114498779D01*
X184887904Y-114645477D01*
X185016123Y-114773696D01*
X185162821Y-114880279D01*
X185324386Y-114962600D01*
X185496839Y-115018634D01*
X185564000Y-115029271D01*
X185675931Y-115047000D01*
X185675936Y-115047000D01*
X185857269Y-115047000D01*
X185968361Y-115029404D01*
X186036361Y-115018634D01*
X186208814Y-114962600D01*
X186370379Y-114880279D01*
X186517077Y-114773696D01*
X186645296Y-114645477D01*
X186751879Y-114498779D01*
X186834200Y-114337214D01*
X186890234Y-114164761D01*
X186902841Y-114085162D01*
X186918600Y-113985669D01*
X186918600Y-113804330D01*
X186890234Y-113625242D01*
X186890234Y-113625239D01*
X186834200Y-113452786D01*
X186751879Y-113291221D01*
X186645296Y-113144523D01*
X186517077Y-113016304D01*
X186418212Y-112944474D01*
X186375549Y-112889146D01*
X186367100Y-112844158D01*
X186367100Y-105915544D01*
X190727300Y-105915544D01*
X190733701Y-105975072D01*
X190733703Y-105975079D01*
X190783945Y-106109786D01*
X190783949Y-106109793D01*
X190870109Y-106224887D01*
X190870112Y-106224890D01*
X190985206Y-106311050D01*
X190985213Y-106311054D01*
X191119920Y-106361296D01*
X191119927Y-106361298D01*
X191179455Y-106367699D01*
X191179472Y-106367700D01*
X191828200Y-106367700D01*
X192328200Y-106367700D01*
X192976928Y-106367700D01*
X192976944Y-106367699D01*
X193036472Y-106361298D01*
X193036479Y-106361296D01*
X193171186Y-106311054D01*
X193171193Y-106311050D01*
X193286287Y-106224890D01*
X193286290Y-106224887D01*
X193372450Y-106109793D01*
X193372454Y-106109786D01*
X193422696Y-105975079D01*
X193422698Y-105975072D01*
X193429099Y-105915544D01*
X200049100Y-105915544D01*
X200055501Y-105975072D01*
X200055503Y-105975079D01*
X200105745Y-106109786D01*
X200105749Y-106109793D01*
X200191909Y-106224887D01*
X200191912Y-106224890D01*
X200307006Y-106311050D01*
X200307013Y-106311054D01*
X200441720Y-106361296D01*
X200441727Y-106361298D01*
X200501255Y-106367699D01*
X200501272Y-106367700D01*
X201150000Y-106367700D01*
X201650000Y-106367700D01*
X202298728Y-106367700D01*
X202298744Y-106367699D01*
X202358272Y-106361298D01*
X202358279Y-106361296D01*
X202492986Y-106311054D01*
X202492993Y-106311050D01*
X202608087Y-106224890D01*
X202608090Y-106224887D01*
X202694250Y-106109793D01*
X202694254Y-106109786D01*
X202744496Y-105975079D01*
X202744498Y-105975072D01*
X202750899Y-105915544D01*
X202750900Y-105915527D01*
X202750900Y-105470000D01*
X201650000Y-105470000D01*
X201650000Y-106367700D01*
X201150000Y-106367700D01*
X201150000Y-105470000D01*
X200049100Y-105470000D01*
X200049100Y-105915544D01*
X193429099Y-105915544D01*
X193429100Y-105915527D01*
X193429100Y-105470000D01*
X192328200Y-105470000D01*
X192328200Y-106367700D01*
X191828200Y-106367700D01*
X191828200Y-105470000D01*
X190727300Y-105470000D01*
X190727300Y-105915544D01*
X186367100Y-105915544D01*
X186367100Y-104524455D01*
X190727300Y-104524455D01*
X190727300Y-104970000D01*
X191828200Y-104970000D01*
X192328200Y-104970000D01*
X193429100Y-104970000D01*
X193429100Y-104524472D01*
X193429099Y-104524455D01*
X200049100Y-104524455D01*
X200049100Y-104970000D01*
X201150000Y-104970000D01*
X201650000Y-104970000D01*
X202750900Y-104970000D01*
X202750900Y-104524472D01*
X202750899Y-104524455D01*
X202744498Y-104464927D01*
X202744496Y-104464920D01*
X202694254Y-104330213D01*
X202694250Y-104330206D01*
X202608090Y-104215112D01*
X202608087Y-104215109D01*
X202492993Y-104128949D01*
X202492986Y-104128945D01*
X202358279Y-104078703D01*
X202358272Y-104078701D01*
X202298744Y-104072300D01*
X201650000Y-104072300D01*
X201650000Y-104970000D01*
X201150000Y-104970000D01*
X201150000Y-104072300D01*
X200501255Y-104072300D01*
X200441727Y-104078701D01*
X200441720Y-104078703D01*
X200307013Y-104128945D01*
X200307006Y-104128949D01*
X200191912Y-104215109D01*
X200191909Y-104215112D01*
X200105749Y-104330206D01*
X200105745Y-104330213D01*
X200055503Y-104464920D01*
X200055501Y-104464927D01*
X200049100Y-104524455D01*
X193429099Y-104524455D01*
X193422698Y-104464927D01*
X193422696Y-104464920D01*
X193372454Y-104330213D01*
X193372450Y-104330206D01*
X193286290Y-104215112D01*
X193286287Y-104215109D01*
X193171193Y-104128949D01*
X193171186Y-104128945D01*
X193036479Y-104078703D01*
X193036472Y-104078701D01*
X192976944Y-104072300D01*
X192328200Y-104072300D01*
X192328200Y-104970000D01*
X191828200Y-104970000D01*
X191828200Y-104072300D01*
X191179455Y-104072300D01*
X191119927Y-104078701D01*
X191119920Y-104078703D01*
X190985213Y-104128945D01*
X190985206Y-104128949D01*
X190870112Y-104215109D01*
X190870109Y-104215112D01*
X190783949Y-104330206D01*
X190783945Y-104330213D01*
X190733703Y-104464920D01*
X190733701Y-104464927D01*
X190727300Y-104524455D01*
X186367100Y-104524455D01*
X186367100Y-102896407D01*
X186367100Y-102884338D01*
X186367101Y-102884335D01*
X186367101Y-102726221D01*
X186360574Y-102701864D01*
X186360098Y-102687658D01*
X186365409Y-102667035D01*
X186365916Y-102645745D01*
X186373949Y-102633875D01*
X186377524Y-102619996D01*
X186393142Y-102605517D01*
X186405078Y-102587883D01*
X186418252Y-102582241D01*
X186428764Y-102572497D01*
X186449729Y-102568761D01*
X186469306Y-102560378D01*
X186495669Y-102560536D01*
X186495689Y-102560235D01*
X186497074Y-102560325D01*
X186497550Y-102560241D01*
X186497880Y-102560378D01*
X186499731Y-102560499D01*
X186499739Y-102560500D01*
X186778460Y-102560499D01*
X186778463Y-102560499D01*
X186895853Y-102545046D01*
X186895857Y-102545044D01*
X186895862Y-102545044D01*
X187041936Y-102484538D01*
X187041937Y-102484538D01*
X187041937Y-102484537D01*
X187041941Y-102484536D01*
X187078969Y-102456123D01*
X187144136Y-102430930D01*
X187154454Y-102430500D01*
X187761531Y-102430500D01*
X187761547Y-102430501D01*
X187769143Y-102430501D01*
X187927254Y-102430501D01*
X187927257Y-102430501D01*
X188079985Y-102389577D01*
X188130104Y-102360639D01*
X188216916Y-102310520D01*
X188328720Y-102198716D01*
X188328720Y-102198714D01*
X188338928Y-102188507D01*
X188338930Y-102188504D01*
X191742916Y-98784518D01*
X191804239Y-98751033D01*
X191830597Y-98748199D01*
X192976971Y-98748199D01*
X192976972Y-98748199D01*
X193036583Y-98741791D01*
X193171431Y-98691496D01*
X193286646Y-98605246D01*
X193372896Y-98490031D01*
X193423191Y-98355183D01*
X193429600Y-98295573D01*
X193429599Y-96904428D01*
X193423191Y-96844817D01*
X193405267Y-96796761D01*
X193372897Y-96709971D01*
X193372893Y-96709964D01*
X193286647Y-96594755D01*
X193286644Y-96594752D01*
X193171435Y-96508506D01*
X193171428Y-96508502D01*
X193036582Y-96458208D01*
X193036583Y-96458208D01*
X192976983Y-96451801D01*
X192976981Y-96451800D01*
X192976973Y-96451800D01*
X192976964Y-96451800D01*
X191179429Y-96451800D01*
X191179423Y-96451801D01*
X191119816Y-96458208D01*
X190984971Y-96508502D01*
X190984964Y-96508506D01*
X190869755Y-96594752D01*
X190869752Y-96594755D01*
X190783506Y-96709964D01*
X190783502Y-96709971D01*
X190733208Y-96844817D01*
X190726801Y-96904416D01*
X190726801Y-96904423D01*
X190726800Y-96904435D01*
X190726800Y-98050802D01*
X190707115Y-98117841D01*
X190690481Y-98138483D01*
X187635784Y-101193181D01*
X187608856Y-101207884D01*
X187583038Y-101224477D01*
X187576837Y-101225368D01*
X187574461Y-101226666D01*
X187548103Y-101229500D01*
X187463599Y-101229500D01*
X187396560Y-101209815D01*
X187350805Y-101157011D01*
X187339599Y-101105500D01*
X187339599Y-101020636D01*
X187324146Y-100903246D01*
X187324144Y-100903241D01*
X187324144Y-100903238D01*
X187263636Y-100757159D01*
X187167382Y-100631718D01*
X187167380Y-100631717D01*
X187167380Y-100631716D01*
X187041941Y-100535464D01*
X187041938Y-100535462D01*
X186967008Y-100504425D01*
X186926780Y-100477545D01*
X186734574Y-100285339D01*
X186701089Y-100224016D01*
X186700638Y-100221849D01*
X186673132Y-100083570D01*
X186669737Y-100066503D01*
X186652115Y-100023959D01*
X186609397Y-99920827D01*
X186609390Y-99920814D01*
X186521789Y-99789711D01*
X186521786Y-99789707D01*
X186410292Y-99678213D01*
X186410288Y-99678210D01*
X186279185Y-99590609D01*
X186279172Y-99590602D01*
X186133501Y-99530264D01*
X186133489Y-99530261D01*
X185978845Y-99499500D01*
X185978842Y-99499500D01*
X185821158Y-99499500D01*
X185821155Y-99499500D01*
X185666510Y-99530261D01*
X185666498Y-99530264D01*
X185520827Y-99590602D01*
X185520814Y-99590609D01*
X185389711Y-99678210D01*
X185389707Y-99678213D01*
X185278213Y-99789707D01*
X185278210Y-99789711D01*
X185190609Y-99920814D01*
X185190602Y-99920827D01*
X185130264Y-100066498D01*
X185130261Y-100066510D01*
X185099500Y-100221153D01*
X185099500Y-100378846D01*
X185130261Y-100533489D01*
X185130264Y-100533501D01*
X185190602Y-100679172D01*
X185190609Y-100679185D01*
X185278210Y-100810288D01*
X185278213Y-100810292D01*
X185389707Y-100921786D01*
X185389711Y-100921789D01*
X185520814Y-101009390D01*
X185520827Y-101009397D01*
X185666498Y-101069735D01*
X185666503Y-101069737D01*
X185731147Y-101082595D01*
X185821849Y-101100638D01*
X185838605Y-101109402D01*
X185857085Y-101113423D01*
X185882123Y-101132167D01*
X185883760Y-101133023D01*
X185885339Y-101134574D01*
X185902281Y-101151516D01*
X185935766Y-101212839D01*
X185938600Y-101239196D01*
X185938600Y-101359362D01*
X185954055Y-101476763D01*
X185954363Y-101477912D01*
X185954363Y-101479101D01*
X185955116Y-101484821D01*
X185954363Y-101484920D01*
X185954365Y-101535081D01*
X185955117Y-101535180D01*
X185954365Y-101540884D01*
X185954366Y-101542079D01*
X185954056Y-101543234D01*
X185938600Y-101660638D01*
X185938600Y-101828681D01*
X185918915Y-101895720D01*
X185866111Y-101941475D01*
X185796953Y-101951419D01*
X185733397Y-101922394D01*
X185726919Y-101916362D01*
X184258279Y-100447722D01*
X184224794Y-100386399D01*
X184229778Y-100316707D01*
X184258275Y-100272365D01*
X185258506Y-99272133D01*
X185258511Y-99272130D01*
X185268714Y-99261926D01*
X185268716Y-99261926D01*
X185380520Y-99150122D01*
X185459577Y-99013190D01*
X185500500Y-98860463D01*
X185500500Y-95016843D01*
X185459577Y-94864116D01*
X185404492Y-94768705D01*
X185380524Y-94727190D01*
X185380521Y-94727186D01*
X185380520Y-94727184D01*
X185268716Y-94615380D01*
X185268715Y-94615379D01*
X185264385Y-94611049D01*
X185264374Y-94611039D01*
X185050918Y-94397583D01*
X185017433Y-94336260D01*
X185014599Y-94309902D01*
X185014599Y-93961662D01*
X185014598Y-93961644D01*
X185004449Y-93862292D01*
X185004448Y-93862289D01*
X184976156Y-93776909D01*
X184951103Y-93701303D01*
X184951099Y-93701297D01*
X184951098Y-93701294D01*
X184862070Y-93556959D01*
X184862069Y-93556958D01*
X184862068Y-93556956D01*
X184742144Y-93437032D01*
X184742143Y-93437031D01*
X184742142Y-93437030D01*
X184698502Y-93410112D01*
X184651778Y-93358163D01*
X184639600Y-93304574D01*
X184639600Y-92034546D01*
X184659285Y-91967507D01*
X184686696Y-91937274D01*
X184692132Y-91932975D01*
X184692144Y-91932968D01*
X184812068Y-91813044D01*
X184838987Y-91769402D01*
X184890935Y-91722678D01*
X184944525Y-91710500D01*
X193709903Y-91710500D01*
X193739343Y-91719144D01*
X193769330Y-91725668D01*
X193774345Y-91729422D01*
X193776942Y-91730185D01*
X193797584Y-91746819D01*
X193825139Y-91774374D01*
X193825149Y-91774385D01*
X193829479Y-91778715D01*
X193829480Y-91778716D01*
X193941284Y-91890520D01*
X193941286Y-91890521D01*
X193941291Y-91890526D01*
X193944004Y-91892608D01*
X193945711Y-91894946D01*
X193947031Y-91896266D01*
X193946825Y-91896471D01*
X193955228Y-91907981D01*
X193970100Y-91919872D01*
X193981033Y-91943324D01*
X193985205Y-91949037D01*
X193986019Y-91951372D01*
X193987275Y-91955099D01*
X194014523Y-92056785D01*
X194025241Y-92075349D01*
X194031413Y-92086039D01*
X194031414Y-92086042D01*
X194093577Y-92193712D01*
X194093581Y-92193717D01*
X194212449Y-92312585D01*
X194212455Y-92312590D01*
X199868578Y-97968713D01*
X199868580Y-97968716D01*
X199980384Y-98080520D01*
X199999106Y-98091329D01*
X200009620Y-98101232D01*
X200020270Y-98119421D01*
X200034815Y-98134675D01*
X200038786Y-98151043D01*
X200044924Y-98161526D01*
X200044398Y-98174178D01*
X200048600Y-98191495D01*
X200048600Y-98295569D01*
X200048601Y-98295576D01*
X200055008Y-98355183D01*
X200105302Y-98490028D01*
X200105306Y-98490035D01*
X200191552Y-98605244D01*
X200191555Y-98605247D01*
X200306764Y-98691493D01*
X200306771Y-98691497D01*
X200441617Y-98741791D01*
X200441616Y-98741791D01*
X200448544Y-98742535D01*
X200501227Y-98748200D01*
X202298772Y-98748199D01*
X202358383Y-98741791D01*
X202493231Y-98691496D01*
X202608446Y-98605246D01*
X202694696Y-98490031D01*
X202744991Y-98355183D01*
X202751400Y-98295573D01*
X202751399Y-96904428D01*
X202744991Y-96844817D01*
X202727067Y-96796761D01*
X202694697Y-96709971D01*
X202694693Y-96709964D01*
X202608447Y-96594755D01*
X202608444Y-96594752D01*
X202493235Y-96508506D01*
X202493228Y-96508502D01*
X202358382Y-96458208D01*
X202358383Y-96458208D01*
X202298783Y-96451801D01*
X202298781Y-96451800D01*
X202298773Y-96451800D01*
X202298764Y-96451800D01*
X200501229Y-96451800D01*
X200501223Y-96451801D01*
X200441616Y-96458208D01*
X200306772Y-96508502D01*
X200306769Y-96508503D01*
X200306769Y-96508504D01*
X200278443Y-96529707D01*
X200212981Y-96554123D01*
X200144708Y-96539271D01*
X200116455Y-96518120D01*
X195738961Y-92140626D01*
X195705476Y-92079303D01*
X195710460Y-92009611D01*
X195751156Y-91954569D01*
X195772382Y-91938282D01*
X195868636Y-91812841D01*
X195929144Y-91666762D01*
X195944600Y-91549361D01*
X195944599Y-91270640D01*
X195940911Y-91242623D01*
X195939850Y-91226439D01*
X195939850Y-87903239D01*
X195959535Y-87836200D01*
X195990962Y-87802923D01*
X196112172Y-87714859D01*
X196244209Y-87582822D01*
X196353965Y-87431757D01*
X196438737Y-87265381D01*
X196496439Y-87087793D01*
X196525650Y-86903364D01*
X196525650Y-86716636D01*
X196496439Y-86532207D01*
X196438737Y-86354619D01*
X196353965Y-86188243D01*
X196244209Y-86037178D01*
X196112172Y-85905141D01*
X195961107Y-85795385D01*
X195794731Y-85710613D01*
X195617143Y-85652911D01*
X195617141Y-85652910D01*
X195617139Y-85652910D01*
X195476285Y-85630601D01*
X195432714Y-85623700D01*
X195245986Y-85623700D01*
X195203233Y-85630471D01*
X195061560Y-85652910D01*
X194883966Y-85710614D01*
X194717592Y-85795385D01*
X194566526Y-85905142D01*
X194434492Y-86037176D01*
X194324735Y-86188242D01*
X194239965Y-86354614D01*
X194239964Y-86354616D01*
X194239963Y-86354619D01*
X194239532Y-86355948D01*
X194227081Y-86394267D01*
X194187643Y-86451942D01*
X194123284Y-86479140D01*
X194054438Y-86467225D01*
X194002962Y-86419981D01*
X193985150Y-86355948D01*
X193985150Y-86076372D01*
X193985149Y-86076355D01*
X193978748Y-86016827D01*
X193978746Y-86016820D01*
X193928504Y-85882113D01*
X193928500Y-85882106D01*
X193842340Y-85767012D01*
X193842337Y-85767009D01*
X193727243Y-85680849D01*
X193727236Y-85680845D01*
X193592529Y-85630603D01*
X193592522Y-85630601D01*
X193532994Y-85624200D01*
X193049350Y-85624200D01*
X193049350Y-86455737D01*
X192966019Y-86407626D01*
X192856198Y-86378200D01*
X192742502Y-86378200D01*
X192632681Y-86407626D01*
X192549350Y-86455737D01*
X192549350Y-85624200D01*
X192065705Y-85624200D01*
X192006177Y-85630601D01*
X192006170Y-85630603D01*
X191871463Y-85680845D01*
X191871456Y-85680849D01*
X191756362Y-85767009D01*
X191756359Y-85767012D01*
X191670199Y-85882106D01*
X191670195Y-85882113D01*
X191619953Y-86016820D01*
X191619951Y-86016827D01*
X191613550Y-86076355D01*
X191613550Y-86560000D01*
X192445088Y-86560000D01*
X192396976Y-86643331D01*
X192367550Y-86753152D01*
X192367550Y-86866848D01*
X192396976Y-86976669D01*
X192445088Y-87060000D01*
X191613550Y-87060000D01*
X191613550Y-87543644D01*
X191619951Y-87603172D01*
X191619953Y-87603179D01*
X191670195Y-87737886D01*
X191670199Y-87737893D01*
X191756359Y-87852987D01*
X191756362Y-87852990D01*
X191871456Y-87939150D01*
X191871463Y-87939154D01*
X192006170Y-87989396D01*
X192006177Y-87989398D01*
X192065705Y-87995799D01*
X192065722Y-87995800D01*
X192549350Y-87995800D01*
X192549350Y-87164262D01*
X192632681Y-87212374D01*
X192742502Y-87241800D01*
X192856198Y-87241800D01*
X192966019Y-87212374D01*
X193049350Y-87164262D01*
X193049350Y-87995800D01*
X193532978Y-87995800D01*
X193532994Y-87995799D01*
X193592522Y-87989398D01*
X193592529Y-87989396D01*
X193727236Y-87939154D01*
X193727243Y-87939150D01*
X193842337Y-87852990D01*
X193842340Y-87852987D01*
X193928500Y-87737893D01*
X193928504Y-87737886D01*
X193978746Y-87603179D01*
X193978748Y-87603172D01*
X193985149Y-87543644D01*
X193985150Y-87543627D01*
X193985150Y-87264051D01*
X194004835Y-87197012D01*
X194057639Y-87151257D01*
X194126797Y-87141313D01*
X194190353Y-87170338D01*
X194227080Y-87225731D01*
X194239963Y-87265381D01*
X194324735Y-87431757D01*
X194434491Y-87582822D01*
X194566528Y-87714859D01*
X194687736Y-87802922D01*
X194730401Y-87858251D01*
X194738850Y-87903239D01*
X194738850Y-90585500D01*
X194736299Y-90594185D01*
X194737588Y-90603147D01*
X194726609Y-90627187D01*
X194719165Y-90652539D01*
X194712324Y-90658466D01*
X194708563Y-90666703D01*
X194686328Y-90680992D01*
X194666361Y-90698294D01*
X194655846Y-90700581D01*
X194649785Y-90704477D01*
X194614850Y-90709500D01*
X194510098Y-90709500D01*
X194443059Y-90689815D01*
X194422417Y-90673181D01*
X194378717Y-90629481D01*
X194378709Y-90629475D01*
X194258853Y-90560277D01*
X194258850Y-90560276D01*
X194243681Y-90551518D01*
X194241785Y-90550423D01*
X194089057Y-90509499D01*
X193930943Y-90509499D01*
X193923347Y-90509499D01*
X193923331Y-90509500D01*
X184944525Y-90509500D01*
X184877486Y-90489815D01*
X184838987Y-90450598D01*
X184812068Y-90406956D01*
X184692144Y-90287032D01*
X184692140Y-90287029D01*
X184547805Y-90198001D01*
X184547799Y-90197998D01*
X184547797Y-90197997D01*
X184463292Y-90169995D01*
X184386809Y-90144651D01*
X184287452Y-90134500D01*
X184287445Y-90134500D01*
X183939197Y-90134500D01*
X183872158Y-90114815D01*
X183851516Y-90098181D01*
X182143979Y-88390644D01*
X182883800Y-88390644D01*
X182890201Y-88450172D01*
X182890203Y-88450179D01*
X182940445Y-88584886D01*
X182940449Y-88584893D01*
X183026609Y-88699987D01*
X183026612Y-88699990D01*
X183141706Y-88786150D01*
X183141713Y-88786154D01*
X183276420Y-88836396D01*
X183276427Y-88836398D01*
X183335955Y-88842799D01*
X183335972Y-88842800D01*
X183629100Y-88842800D01*
X184129100Y-88842800D01*
X184422228Y-88842800D01*
X184422244Y-88842799D01*
X184481772Y-88836398D01*
X184481779Y-88836396D01*
X184616486Y-88786154D01*
X184616493Y-88786150D01*
X184731587Y-88699990D01*
X184731590Y-88699987D01*
X184817750Y-88584893D01*
X184817754Y-88584886D01*
X184867996Y-88450179D01*
X184867998Y-88450172D01*
X184874399Y-88390644D01*
X184874400Y-88390627D01*
X184874400Y-87094200D01*
X184129100Y-87094200D01*
X184129100Y-88842800D01*
X183629100Y-88842800D01*
X183629100Y-87094200D01*
X182883800Y-87094200D01*
X182883800Y-88390644D01*
X182143979Y-88390644D01*
X181975919Y-88222584D01*
X181942434Y-88161261D01*
X181939600Y-88134903D01*
X181939600Y-85297755D01*
X182883800Y-85297755D01*
X182883800Y-86594200D01*
X183629100Y-86594200D01*
X184129100Y-86594200D01*
X184874400Y-86594200D01*
X184874400Y-85297772D01*
X184874399Y-85297755D01*
X184867998Y-85238227D01*
X184867996Y-85238220D01*
X184817754Y-85103513D01*
X184817750Y-85103506D01*
X184731590Y-84988412D01*
X184731587Y-84988409D01*
X184616493Y-84902249D01*
X184616486Y-84902245D01*
X184481779Y-84852003D01*
X184481772Y-84852001D01*
X184422244Y-84845600D01*
X184129100Y-84845600D01*
X184129100Y-86594200D01*
X183629100Y-86594200D01*
X183629100Y-84845600D01*
X183335955Y-84845600D01*
X183276427Y-84852001D01*
X183276420Y-84852003D01*
X183141713Y-84902245D01*
X183141706Y-84902249D01*
X183026612Y-84988409D01*
X183026609Y-84988412D01*
X182940449Y-85103506D01*
X182940445Y-85103513D01*
X182890203Y-85238220D01*
X182890201Y-85238227D01*
X182883800Y-85297755D01*
X181939600Y-85297755D01*
X181939600Y-80813899D01*
X181959285Y-80746860D01*
X182012089Y-80701105D01*
X182063600Y-80689899D01*
X186555871Y-80689899D01*
X186555872Y-80689899D01*
X186615483Y-80683491D01*
X186750331Y-80633196D01*
X186865546Y-80546946D01*
X186951796Y-80431731D01*
X187002091Y-80296883D01*
X187008500Y-80237273D01*
X187008499Y-71429328D01*
X187002091Y-71369717D01*
X186951796Y-71234869D01*
X186951795Y-71234868D01*
X186951793Y-71234864D01*
X186865547Y-71119655D01*
X186865544Y-71119652D01*
X186750335Y-71033406D01*
X186750328Y-71033402D01*
X186615482Y-70983108D01*
X186615483Y-70983108D01*
X186555883Y-70976701D01*
X186555881Y-70976700D01*
X186555873Y-70976700D01*
X186555864Y-70976700D01*
X176122329Y-70976700D01*
X176122323Y-70976701D01*
X176062716Y-70983108D01*
X175927871Y-71033402D01*
X175927864Y-71033406D01*
X175812655Y-71119652D01*
X175812652Y-71119655D01*
X175726406Y-71234864D01*
X175726402Y-71234871D01*
X175676108Y-71369717D01*
X175669701Y-71429316D01*
X175669701Y-71429323D01*
X175669700Y-71429335D01*
X175669700Y-80237270D01*
X175669701Y-80237276D01*
X175676108Y-80296883D01*
X175726402Y-80431728D01*
X175726406Y-80431735D01*
X175812652Y-80546944D01*
X175812655Y-80546947D01*
X175927864Y-80633193D01*
X175927871Y-80633197D01*
X176062717Y-80683491D01*
X176062716Y-80683491D01*
X176069644Y-80684235D01*
X176122327Y-80689900D01*
X180614600Y-80689899D01*
X180681639Y-80709584D01*
X180727394Y-80762388D01*
X180738600Y-80813899D01*
X180738600Y-88348330D01*
X180738599Y-88348348D01*
X180738599Y-88514054D01*
X180738598Y-88514054D01*
X180779523Y-88666785D01*
X180798900Y-88700346D01*
X180838686Y-88769259D01*
X180858579Y-88803715D01*
X180977449Y-88922585D01*
X180977455Y-88922590D01*
X182030847Y-89975982D01*
X182064332Y-90037305D01*
X182059348Y-90106997D01*
X182017476Y-90162930D01*
X181982172Y-90181368D01*
X181930622Y-90198450D01*
X181930607Y-90198457D01*
X181786371Y-90287424D01*
X181786367Y-90287427D01*
X181666527Y-90407267D01*
X181666524Y-90407271D01*
X181577557Y-90551507D01*
X181577552Y-90551518D01*
X181524244Y-90712393D01*
X181514100Y-90811677D01*
X181514100Y-90860000D01*
X182340100Y-90860000D01*
X182407139Y-90879685D01*
X182452894Y-90932489D01*
X182464100Y-90984000D01*
X182464100Y-91110000D01*
X182590100Y-91110000D01*
X182657139Y-91129685D01*
X182702894Y-91182489D01*
X182714100Y-91234000D01*
X182714100Y-92084999D01*
X182737408Y-92084999D01*
X182737422Y-92084998D01*
X182836707Y-92074855D01*
X182997581Y-92021547D01*
X182997592Y-92021542D01*
X183141831Y-91932573D01*
X183151059Y-91923345D01*
X183212379Y-91889856D01*
X183282071Y-91894835D01*
X183311015Y-91910257D01*
X183319254Y-91916166D01*
X183336056Y-91932968D01*
X183383372Y-91962153D01*
X183386869Y-91964661D01*
X183405821Y-91988930D01*
X183426421Y-92011832D01*
X183427535Y-92016735D01*
X183429873Y-92019729D01*
X183431001Y-92031989D01*
X183438600Y-92065424D01*
X183438600Y-93304574D01*
X183418915Y-93371613D01*
X183379698Y-93410112D01*
X183336057Y-93437030D01*
X183216130Y-93556958D01*
X183204635Y-93575596D01*
X183152688Y-93622321D01*
X183099096Y-93634500D01*
X182379104Y-93634500D01*
X182312065Y-93614815D01*
X182273565Y-93575596D01*
X182262068Y-93556956D01*
X182142144Y-93437032D01*
X182142140Y-93437029D01*
X181997805Y-93348001D01*
X181997799Y-93347998D01*
X181997797Y-93347997D01*
X181997580Y-93347925D01*
X181836809Y-93294651D01*
X181737446Y-93284500D01*
X181140762Y-93284500D01*
X181140744Y-93284501D01*
X181041392Y-93294650D01*
X181041389Y-93294651D01*
X180880405Y-93347996D01*
X180880394Y-93348001D01*
X180736059Y-93437029D01*
X180736055Y-93437032D01*
X180616132Y-93556955D01*
X180616129Y-93556959D01*
X180527101Y-93701294D01*
X180527096Y-93701305D01*
X180473751Y-93862290D01*
X180463600Y-93961647D01*
X180463600Y-94508337D01*
X180463601Y-94508355D01*
X180473750Y-94607707D01*
X180473751Y-94607710D01*
X180527096Y-94768694D01*
X180527101Y-94768705D01*
X180616129Y-94913040D01*
X180616132Y-94913044D01*
X180625760Y-94922672D01*
X180659245Y-94983995D01*
X180654261Y-95053687D01*
X180625763Y-95098031D01*
X180616528Y-95107265D01*
X180616524Y-95107271D01*
X180527557Y-95251507D01*
X180527552Y-95251518D01*
X180474244Y-95412393D01*
X180464100Y-95511677D01*
X180464100Y-95535000D01*
X182414099Y-95535000D01*
X182414099Y-95511692D01*
X182414098Y-95511677D01*
X182403955Y-95412392D01*
X182350647Y-95251518D01*
X182350642Y-95251507D01*
X182261675Y-95107271D01*
X182261672Y-95107267D01*
X182252439Y-95098034D01*
X182252085Y-95097386D01*
X182251441Y-95097025D01*
X182235353Y-95066745D01*
X182218954Y-95036711D01*
X182219006Y-95035975D01*
X182218660Y-95035323D01*
X182221493Y-95001198D01*
X182223938Y-94967019D01*
X182224401Y-94966181D01*
X182224442Y-94965693D01*
X182225980Y-94963329D01*
X182241710Y-94934912D01*
X182246669Y-94928442D01*
X182262068Y-94913044D01*
X182276867Y-94889050D01*
X182280694Y-94884059D01*
X182304022Y-94867008D01*
X182325512Y-94847679D01*
X182332705Y-94846044D01*
X182337103Y-94842830D01*
X182350348Y-94842034D01*
X182379104Y-94835500D01*
X183099096Y-94835500D01*
X183166135Y-94855185D01*
X183204635Y-94894404D01*
X183216131Y-94913043D01*
X183225760Y-94922672D01*
X183259245Y-94983995D01*
X183254261Y-95053687D01*
X183225763Y-95098031D01*
X183216528Y-95107265D01*
X183216524Y-95107271D01*
X183127557Y-95251507D01*
X183127552Y-95251518D01*
X183074244Y-95412393D01*
X183064100Y-95511677D01*
X183064100Y-95535000D01*
X183915100Y-95535000D01*
X183982139Y-95554685D01*
X184027894Y-95607489D01*
X184039100Y-95659000D01*
X184039100Y-95785000D01*
X184165100Y-95785000D01*
X184232139Y-95804685D01*
X184277894Y-95857489D01*
X184289100Y-95909000D01*
X184289100Y-96756546D01*
X184296666Y-96770403D01*
X184299500Y-96796761D01*
X184299500Y-98481308D01*
X184279815Y-98548347D01*
X184263181Y-98568989D01*
X183237546Y-99594623D01*
X183176223Y-99628108D01*
X183149865Y-99630942D01*
X182089579Y-99630942D01*
X182089573Y-99630943D01*
X182029966Y-99637350D01*
X181895121Y-99687644D01*
X181895114Y-99687648D01*
X181779905Y-99773894D01*
X181779902Y-99773897D01*
X181693656Y-99889106D01*
X181693652Y-99889113D01*
X181643358Y-100023959D01*
X181638784Y-100066510D01*
X181636951Y-100083565D01*
X181636950Y-100083577D01*
X181636950Y-100314342D01*
X181617265Y-100381381D01*
X181564461Y-100427136D01*
X181495303Y-100437080D01*
X181480857Y-100434117D01*
X181416551Y-100416886D01*
X181389085Y-100409527D01*
X181230971Y-100409527D01*
X181223375Y-100409527D01*
X181223359Y-100409528D01*
X181110950Y-100409528D01*
X181043911Y-100389843D01*
X180998156Y-100337039D01*
X180986950Y-100285529D01*
X180986949Y-100083572D01*
X180986948Y-100083565D01*
X180986947Y-100083558D01*
X180980541Y-100023959D01*
X180978627Y-100018828D01*
X180930247Y-99889113D01*
X180930243Y-99889106D01*
X180843997Y-99773898D01*
X180843998Y-99773898D01*
X180843996Y-99773896D01*
X180737911Y-99694481D01*
X180696042Y-99638549D01*
X180691058Y-99568857D01*
X180724541Y-99507536D01*
X180821789Y-99410289D01*
X180909394Y-99279179D01*
X180912311Y-99272138D01*
X180944568Y-99194260D01*
X180969737Y-99133497D01*
X181000500Y-98978842D01*
X181000500Y-98821158D01*
X181000500Y-98821155D01*
X181000499Y-98821153D01*
X180986551Y-98751033D01*
X180969737Y-98666503D01*
X180920796Y-98548347D01*
X180909397Y-98520827D01*
X180909390Y-98520814D01*
X180821789Y-98389711D01*
X180821786Y-98389707D01*
X180710292Y-98278213D01*
X180710288Y-98278210D01*
X180579185Y-98190609D01*
X180579172Y-98190602D01*
X180433501Y-98130264D01*
X180433489Y-98130261D01*
X180278845Y-98099500D01*
X180278842Y-98099500D01*
X180121158Y-98099500D01*
X180121155Y-98099500D01*
X179966510Y-98130261D01*
X179966498Y-98130264D01*
X179820827Y-98190602D01*
X179820814Y-98190609D01*
X179689711Y-98278210D01*
X179689707Y-98278213D01*
X179578213Y-98389707D01*
X179578210Y-98389711D01*
X179490609Y-98520814D01*
X179490602Y-98520827D01*
X179430264Y-98666498D01*
X179430261Y-98666510D01*
X179399500Y-98821153D01*
X179399500Y-98963086D01*
X179399254Y-98970886D01*
X179398475Y-98983234D01*
X179384299Y-99036143D01*
X179384299Y-99194257D01*
X179384300Y-99194260D01*
X179384300Y-99208155D01*
X179384300Y-99548035D01*
X179364615Y-99615074D01*
X179311811Y-99660829D01*
X179303634Y-99664217D01*
X179240819Y-99687645D01*
X179240814Y-99687648D01*
X179125605Y-99773894D01*
X179125602Y-99773897D01*
X179039356Y-99889106D01*
X179039352Y-99889113D01*
X178989060Y-100023955D01*
X178989059Y-100023959D01*
X178982650Y-100083569D01*
X178982650Y-100083576D01*
X178982650Y-100083577D01*
X178982650Y-100636509D01*
X178982651Y-100636522D01*
X178986441Y-100671780D01*
X178987120Y-100687814D01*
X178987001Y-100693071D01*
X178982650Y-100733555D01*
X178982650Y-100886916D01*
X178982619Y-100888297D01*
X178972429Y-100920322D01*
X178962965Y-100952553D01*
X178961872Y-100953499D01*
X178961434Y-100954878D01*
X178935537Y-100976319D01*
X178910161Y-100998308D01*
X178908558Y-100998656D01*
X178907617Y-100999436D01*
X178901669Y-101000155D01*
X178858650Y-101009514D01*
X176380822Y-101009514D01*
X176313783Y-100989829D01*
X176293141Y-100973195D01*
X172114672Y-96794725D01*
X172114666Y-96794720D01*
X172110351Y-96791837D01*
X172091562Y-96776417D01*
X171386464Y-96071319D01*
X171373467Y-96058322D01*
X180464101Y-96058322D01*
X180474244Y-96157607D01*
X180527552Y-96318481D01*
X180527557Y-96318492D01*
X180616524Y-96462728D01*
X180616527Y-96462732D01*
X180736367Y-96582572D01*
X180736371Y-96582575D01*
X180880607Y-96671542D01*
X180880618Y-96671547D01*
X181041493Y-96724855D01*
X181140783Y-96734999D01*
X181689100Y-96734999D01*
X181737408Y-96734999D01*
X181737422Y-96734998D01*
X181836707Y-96724855D01*
X181997581Y-96671547D01*
X181997592Y-96671542D01*
X182141828Y-96582575D01*
X182141832Y-96582572D01*
X182261672Y-96462732D01*
X182261675Y-96462728D01*
X182350642Y-96318492D01*
X182350647Y-96318481D01*
X182403955Y-96157606D01*
X182414099Y-96058322D01*
X183064101Y-96058322D01*
X183074244Y-96157607D01*
X183127552Y-96318481D01*
X183127557Y-96318492D01*
X183216524Y-96462728D01*
X183216527Y-96462732D01*
X183336367Y-96582572D01*
X183336371Y-96582575D01*
X183480607Y-96671542D01*
X183480618Y-96671547D01*
X183641493Y-96724855D01*
X183740783Y-96734999D01*
X183789099Y-96734998D01*
X183789100Y-96734998D01*
X183789100Y-96035000D01*
X183064101Y-96035000D01*
X183064101Y-96058322D01*
X182414099Y-96058322D01*
X182414100Y-96058309D01*
X182414100Y-96035000D01*
X181689100Y-96035000D01*
X181689100Y-96734999D01*
X181140783Y-96734999D01*
X181189099Y-96734998D01*
X181189100Y-96734998D01*
X181189100Y-96035000D01*
X180464101Y-96035000D01*
X180464101Y-96058322D01*
X171373467Y-96058322D01*
X170850145Y-95535000D01*
X169808238Y-94493092D01*
X169774753Y-94431769D01*
X169779737Y-94362077D01*
X169821609Y-94306144D01*
X169852584Y-94289230D01*
X169961531Y-94248596D01*
X170076746Y-94162346D01*
X170162996Y-94047131D01*
X170213291Y-93912283D01*
X170219700Y-93852673D01*
X170219699Y-93691408D01*
X170239383Y-93624369D01*
X170256013Y-93603732D01*
X170405277Y-93454469D01*
X170476465Y-93347927D01*
X170525501Y-93229544D01*
X170535277Y-93180392D01*
X170541855Y-93147329D01*
X170541855Y-93147326D01*
X170550500Y-93103869D01*
X170550500Y-90235928D01*
X170525502Y-90110261D01*
X170525501Y-90110260D01*
X170525501Y-90110256D01*
X170476465Y-89991873D01*
X170476464Y-89991870D01*
X170405277Y-89885331D01*
X170405271Y-89885324D01*
X167226619Y-86706672D01*
X167211915Y-86679744D01*
X167195323Y-86653926D01*
X167194431Y-86647725D01*
X167193134Y-86645349D01*
X167190300Y-86618991D01*
X167190300Y-86485512D01*
X167209985Y-86418473D01*
X167215033Y-86411201D01*
X167227710Y-86394267D01*
X167262996Y-86347131D01*
X167313291Y-86212283D01*
X167319700Y-86152673D01*
X167319699Y-85447328D01*
X167313291Y-85387717D01*
X167279737Y-85297755D01*
X167262997Y-85252871D01*
X167262993Y-85252864D01*
X167176747Y-85137655D01*
X167176744Y-85137652D01*
X167061535Y-85051406D01*
X167061528Y-85051402D01*
X166926686Y-85001110D01*
X166926685Y-85001109D01*
X166926683Y-85001109D01*
X166867073Y-84994700D01*
X166867063Y-84994700D01*
X166212529Y-84994700D01*
X166212523Y-84994701D01*
X166152917Y-85001108D01*
X166113231Y-85015910D01*
X166043539Y-85020893D01*
X166026569Y-85015910D01*
X165986886Y-85001110D01*
X165986885Y-85001109D01*
X165986883Y-85001109D01*
X165927273Y-84994700D01*
X165927263Y-84994700D01*
X165272729Y-84994700D01*
X165272723Y-84994701D01*
X165213116Y-85001108D01*
X165104335Y-85041682D01*
X165061002Y-85049500D01*
X163826080Y-85049500D01*
X163681092Y-85078340D01*
X163681082Y-85078343D01*
X163544511Y-85134912D01*
X163544504Y-85134916D01*
X163514885Y-85154707D01*
X163485265Y-85174499D01*
X163485264Y-85174500D01*
X163421581Y-85217050D01*
X163421580Y-85217051D01*
X154325451Y-94313181D01*
X154264128Y-94346666D01*
X154237770Y-94349500D01*
X143726076Y-94349500D01*
X143697242Y-94355234D01*
X143697243Y-94355235D01*
X143581093Y-94378339D01*
X143581083Y-94378342D01*
X143501081Y-94411479D01*
X143501082Y-94411480D01*
X143501080Y-94411481D01*
X143444505Y-94434916D01*
X143396811Y-94466784D01*
X143396810Y-94466785D01*
X143321582Y-94517049D01*
X142217049Y-95621582D01*
X142217049Y-95621583D01*
X142194402Y-95655477D01*
X142134914Y-95744508D01*
X142078343Y-95881082D01*
X142078340Y-95881092D01*
X142049500Y-96026079D01*
X142049500Y-96026082D01*
X142049500Y-97863918D01*
X142049500Y-97863920D01*
X142049499Y-97863920D01*
X136600500Y-97863920D01*
X136600500Y-91412173D01*
X145744500Y-91412173D01*
X145744500Y-91707826D01*
X145744501Y-91707843D01*
X145783090Y-92000959D01*
X145783091Y-92000964D01*
X145783092Y-92000970D01*
X145805742Y-92085500D01*
X145859616Y-92286564D01*
X145972760Y-92559716D01*
X145972764Y-92559726D01*
X146120595Y-92815777D01*
X146300584Y-93050344D01*
X146300590Y-93050351D01*
X146509648Y-93259409D01*
X146509655Y-93259415D01*
X146744222Y-93439404D01*
X147000273Y-93587235D01*
X147000274Y-93587235D01*
X147000277Y-93587237D01*
X147182384Y-93662668D01*
X147273435Y-93700383D01*
X147273436Y-93700383D01*
X147273438Y-93700384D01*
X147559030Y-93776908D01*
X147852167Y-93815500D01*
X147852174Y-93815500D01*
X148147826Y-93815500D01*
X148147833Y-93815500D01*
X148440970Y-93776908D01*
X148726562Y-93700384D01*
X148999723Y-93587237D01*
X149255778Y-93439404D01*
X149490346Y-93259414D01*
X149699414Y-93050346D01*
X149879404Y-92815778D01*
X150027237Y-92559723D01*
X150140384Y-92286562D01*
X150216908Y-92000970D01*
X150255500Y-91707833D01*
X150255500Y-91412167D01*
X150216908Y-91119030D01*
X150140384Y-90833438D01*
X150131370Y-90811677D01*
X150027237Y-90560277D01*
X150027235Y-90560273D01*
X149879404Y-90304222D01*
X149699415Y-90069655D01*
X149699409Y-90069648D01*
X149490351Y-89860590D01*
X149490344Y-89860584D01*
X149255777Y-89680595D01*
X148999726Y-89532764D01*
X148999716Y-89532760D01*
X148726564Y-89419616D01*
X148573516Y-89378607D01*
X148440970Y-89343092D01*
X148440964Y-89343091D01*
X148440959Y-89343090D01*
X148147843Y-89304501D01*
X148147838Y-89304500D01*
X148147833Y-89304500D01*
X147852167Y-89304500D01*
X147852161Y-89304500D01*
X147852156Y-89304501D01*
X147559040Y-89343090D01*
X147559033Y-89343091D01*
X147559030Y-89343092D01*
X147503007Y-89358103D01*
X147273435Y-89419616D01*
X147000283Y-89532760D01*
X147000273Y-89532764D01*
X146744222Y-89680595D01*
X146509655Y-89860584D01*
X146509648Y-89860590D01*
X146300590Y-90069648D01*
X146300584Y-90069655D01*
X146120595Y-90304222D01*
X145972764Y-90560273D01*
X145972763Y-90560277D01*
X145859616Y-90833435D01*
X145783093Y-91119027D01*
X145783090Y-91119040D01*
X145744501Y-91412156D01*
X145744500Y-91412173D01*
X136600500Y-91412173D01*
X136600500Y-80179447D01*
X151489700Y-80179447D01*
X151489700Y-80411552D01*
X151519994Y-80641648D01*
X151580062Y-80865828D01*
X151668877Y-81080245D01*
X151668885Y-81080262D01*
X151784920Y-81281243D01*
X151784921Y-81281245D01*
X151926209Y-81465375D01*
X151926215Y-81465382D01*
X152090317Y-81629484D01*
X152090324Y-81629490D01*
X152274454Y-81770778D01*
X152274456Y-81770779D01*
X152475437Y-81886814D01*
X152475440Y-81886815D01*
X152475448Y-81886820D01*
X152689870Y-81975637D01*
X152914051Y-82035706D01*
X153144155Y-82066000D01*
X153144162Y-82066000D01*
X153376238Y-82066000D01*
X153376245Y-82066000D01*
X153606349Y-82035706D01*
X153830530Y-81975637D01*
X154044952Y-81886820D01*
X154245948Y-81770776D01*
X154430077Y-81629489D01*
X154594189Y-81465377D01*
X154735476Y-81281248D01*
X154851520Y-81080252D01*
X154940337Y-80865830D01*
X155000406Y-80641649D01*
X155030700Y-80411545D01*
X155030700Y-80179455D01*
X155000406Y-79949351D01*
X154940337Y-79725170D01*
X154916434Y-79667464D01*
X154908965Y-79597995D01*
X154940240Y-79535515D01*
X154943282Y-79532362D01*
X155288827Y-79186819D01*
X155350150Y-79153334D01*
X155376508Y-79150500D01*
X170134092Y-79150500D01*
X170201131Y-79170185D01*
X170221773Y-79186819D01*
X177766981Y-86732027D01*
X177800466Y-86793350D01*
X177803300Y-86819708D01*
X177803300Y-88390670D01*
X177803301Y-88390676D01*
X177809708Y-88450283D01*
X177860002Y-88585128D01*
X177860006Y-88585135D01*
X177946252Y-88700344D01*
X177946255Y-88700347D01*
X178061464Y-88786593D01*
X178061466Y-88786594D01*
X178061469Y-88786596D01*
X178082930Y-88794600D01*
X178138865Y-88836469D01*
X178163284Y-88901933D01*
X178163600Y-88910783D01*
X178163600Y-90169995D01*
X178143915Y-90237034D01*
X178104700Y-90275532D01*
X178086054Y-90287033D01*
X177966129Y-90406959D01*
X177877101Y-90551294D01*
X177877096Y-90551305D01*
X177823751Y-90712290D01*
X177813600Y-90811647D01*
X177813600Y-91408337D01*
X177813601Y-91408355D01*
X177823750Y-91507707D01*
X177823751Y-91507710D01*
X177877096Y-91668694D01*
X177877101Y-91668705D01*
X177966129Y-91813040D01*
X177966132Y-91813044D01*
X178086055Y-91932967D01*
X178086059Y-91932970D01*
X178230394Y-92021998D01*
X178230397Y-92021999D01*
X178230403Y-92022003D01*
X178391392Y-92075349D01*
X178490755Y-92085500D01*
X179037444Y-92085499D01*
X179037452Y-92085498D01*
X179037455Y-92085498D01*
X179098100Y-92079303D01*
X179136808Y-92075349D01*
X179297797Y-92022003D01*
X179442144Y-91932968D01*
X179451768Y-91923343D01*
X179513087Y-91889856D01*
X179582779Y-91894835D01*
X179627134Y-91923339D01*
X179636367Y-91932572D01*
X179636371Y-91932575D01*
X179780607Y-92021542D01*
X179780618Y-92021547D01*
X179941493Y-92074855D01*
X180040783Y-92084999D01*
X180564100Y-92084999D01*
X180587408Y-92084999D01*
X180587422Y-92084998D01*
X180686707Y-92074855D01*
X180847581Y-92021547D01*
X180847592Y-92021542D01*
X180991828Y-91932575D01*
X180991832Y-91932572D01*
X181111672Y-91812732D01*
X181111675Y-91812728D01*
X181200642Y-91668492D01*
X181200647Y-91668481D01*
X181253955Y-91507606D01*
X181264099Y-91408322D01*
X181514101Y-91408322D01*
X181524244Y-91507607D01*
X181577552Y-91668481D01*
X181577557Y-91668492D01*
X181666524Y-91812728D01*
X181666527Y-91812732D01*
X181786367Y-91932572D01*
X181786371Y-91932575D01*
X181930607Y-92021542D01*
X181930618Y-92021547D01*
X182091493Y-92074855D01*
X182190783Y-92084999D01*
X182214100Y-92084998D01*
X182214100Y-91360000D01*
X181514101Y-91360000D01*
X181514101Y-91408322D01*
X181264099Y-91408322D01*
X181264100Y-91408309D01*
X181264100Y-91360000D01*
X180564100Y-91360000D01*
X180564100Y-92084999D01*
X180040783Y-92084999D01*
X180064100Y-92084998D01*
X180064100Y-90860000D01*
X180564100Y-90860000D01*
X181264099Y-90860000D01*
X181264099Y-90811692D01*
X181264098Y-90811677D01*
X181253955Y-90712392D01*
X181200647Y-90551518D01*
X181200642Y-90551507D01*
X181111675Y-90407271D01*
X181111672Y-90407267D01*
X180991832Y-90287427D01*
X180991828Y-90287424D01*
X180847592Y-90198457D01*
X180847581Y-90198452D01*
X180686706Y-90145144D01*
X180587422Y-90135000D01*
X180564100Y-90135000D01*
X180564100Y-90860000D01*
X180064100Y-90860000D01*
X180064100Y-90134999D01*
X180040793Y-90135000D01*
X180040774Y-90135001D01*
X179941492Y-90145144D01*
X179780618Y-90198452D01*
X179780607Y-90198457D01*
X179636371Y-90287424D01*
X179636364Y-90287430D01*
X179627128Y-90296665D01*
X179626484Y-90297016D01*
X179626126Y-90297656D01*
X179595852Y-90313740D01*
X179565803Y-90330146D01*
X179565072Y-90330093D01*
X179564424Y-90330438D01*
X179530264Y-90327601D01*
X179496111Y-90325157D01*
X179495280Y-90324697D01*
X179494794Y-90324657D01*
X179492438Y-90323124D01*
X179464013Y-90307389D01*
X179457535Y-90302423D01*
X179442144Y-90287032D01*
X179418154Y-90272234D01*
X179413160Y-90268406D01*
X179396103Y-90245071D01*
X179376777Y-90223582D01*
X179375143Y-90216394D01*
X179371930Y-90211998D01*
X179371134Y-90198752D01*
X179364600Y-90169995D01*
X179364600Y-88936891D01*
X179384285Y-88869852D01*
X179437089Y-88824097D01*
X179445256Y-88820713D01*
X179536731Y-88786596D01*
X179651946Y-88700346D01*
X179738196Y-88585131D01*
X179788491Y-88450283D01*
X179794900Y-88390673D01*
X179794899Y-85297728D01*
X179788491Y-85238117D01*
X179780633Y-85217049D01*
X179738197Y-85103271D01*
X179738193Y-85103264D01*
X179651947Y-84988055D01*
X179651944Y-84988052D01*
X179536735Y-84901806D01*
X179536728Y-84901802D01*
X179401882Y-84851508D01*
X179401883Y-84851508D01*
X179342283Y-84845101D01*
X179342281Y-84845100D01*
X179342273Y-84845100D01*
X179342264Y-84845100D01*
X178255929Y-84845100D01*
X178255923Y-84845101D01*
X178196316Y-84851508D01*
X178061471Y-84901802D01*
X178061468Y-84901804D01*
X177984600Y-84959348D01*
X177919136Y-84983765D01*
X177850863Y-84968913D01*
X177822608Y-84947762D01*
X170869574Y-77994727D01*
X170869573Y-77994726D01*
X170869569Y-77994723D01*
X170763027Y-77923535D01*
X170644644Y-77874499D01*
X170644638Y-77874497D01*
X170518971Y-77849500D01*
X170518969Y-77849500D01*
X154991631Y-77849500D01*
X154991629Y-77849500D01*
X154865961Y-77874497D01*
X154865955Y-77874499D01*
X154747570Y-77923535D01*
X154641031Y-77994722D01*
X154641024Y-77994728D01*
X154023367Y-78612385D01*
X153962044Y-78645870D01*
X153892352Y-78640886D01*
X153888255Y-78639273D01*
X153830530Y-78615363D01*
X153830531Y-78615363D01*
X153830528Y-78615362D01*
X153688403Y-78577280D01*
X153606349Y-78555294D01*
X153577586Y-78551507D01*
X153376252Y-78525000D01*
X153376245Y-78525000D01*
X153144155Y-78525000D01*
X153144147Y-78525000D01*
X152914051Y-78555294D01*
X152689871Y-78615362D01*
X152475454Y-78704177D01*
X152475437Y-78704185D01*
X152274456Y-78820220D01*
X152274454Y-78820221D01*
X152090324Y-78961509D01*
X152090317Y-78961515D01*
X151926215Y-79125617D01*
X151926209Y-79125624D01*
X151784921Y-79309754D01*
X151784920Y-79309756D01*
X151668885Y-79510737D01*
X151668877Y-79510754D01*
X151580062Y-79725171D01*
X151519994Y-79949351D01*
X151489700Y-80179447D01*
X136600500Y-80179447D01*
X136600500Y-75988494D01*
X151490200Y-75988494D01*
X151490200Y-76220505D01*
X151490201Y-76220522D01*
X151520483Y-76450540D01*
X151520486Y-76450553D01*
X151580536Y-76674667D01*
X151669324Y-76889021D01*
X151669332Y-76889038D01*
X151785336Y-77089961D01*
X151785342Y-77089969D01*
X151844317Y-77166827D01*
X152477653Y-76533492D01*
X152569669Y-76671204D01*
X152693496Y-76795031D01*
X152831206Y-76887046D01*
X152197871Y-77520381D01*
X152274730Y-77579357D01*
X152274738Y-77579363D01*
X152475661Y-77695367D01*
X152475678Y-77695375D01*
X152690032Y-77784163D01*
X152914146Y-77844213D01*
X152914159Y-77844216D01*
X153144177Y-77874498D01*
X153144195Y-77874500D01*
X153376205Y-77874500D01*
X153376222Y-77874498D01*
X153606240Y-77844216D01*
X153606253Y-77844213D01*
X153830367Y-77784163D01*
X154044721Y-77695375D01*
X154044738Y-77695367D01*
X154245675Y-77579355D01*
X154322527Y-77520383D01*
X154322527Y-77520380D01*
X153689192Y-76887046D01*
X153826904Y-76795031D01*
X153950731Y-76671204D01*
X154042746Y-76533493D01*
X154676080Y-77166827D01*
X154676083Y-77166827D01*
X154735055Y-77089975D01*
X154851067Y-76889038D01*
X154851075Y-76889021D01*
X154939863Y-76674667D01*
X154999913Y-76450553D01*
X154999916Y-76450540D01*
X155030198Y-76220522D01*
X155030200Y-76220505D01*
X155030200Y-75988494D01*
X155030198Y-75988477D01*
X154999916Y-75758459D01*
X154999913Y-75758446D01*
X154939863Y-75534332D01*
X154851075Y-75319978D01*
X154851067Y-75319961D01*
X154735063Y-75119038D01*
X154735057Y-75119030D01*
X154676081Y-75042171D01*
X154042746Y-75675506D01*
X153950731Y-75537796D01*
X153826904Y-75413969D01*
X153689192Y-75321953D01*
X154322527Y-74688617D01*
X154245669Y-74629642D01*
X154245661Y-74629636D01*
X154044738Y-74513632D01*
X154044721Y-74513624D01*
X153830367Y-74424836D01*
X153606253Y-74364786D01*
X153606240Y-74364783D01*
X153376222Y-74334501D01*
X153376205Y-74334500D01*
X153144195Y-74334500D01*
X153144177Y-74334501D01*
X152914159Y-74364783D01*
X152914146Y-74364786D01*
X152690032Y-74424836D01*
X152475678Y-74513624D01*
X152475661Y-74513632D01*
X152274741Y-74629634D01*
X152274733Y-74629640D01*
X152197871Y-74688616D01*
X152197871Y-74688617D01*
X152831207Y-75321953D01*
X152693496Y-75413969D01*
X152569669Y-75537796D01*
X152477653Y-75675506D01*
X151844317Y-75042171D01*
X151844316Y-75042171D01*
X151785340Y-75119033D01*
X151785334Y-75119041D01*
X151669332Y-75319961D01*
X151669324Y-75319978D01*
X151580536Y-75534332D01*
X151520486Y-75758446D01*
X151520483Y-75758459D01*
X151490201Y-75988477D01*
X151490200Y-75988494D01*
X136600500Y-75988494D01*
X136600500Y-70009758D01*
X136620185Y-69942719D01*
X136672989Y-69896964D01*
X136742147Y-69887020D01*
X136805703Y-69916045D01*
X136812181Y-69922077D01*
X136920213Y-70030109D01*
X137092179Y-70155048D01*
X137092181Y-70155049D01*
X137092184Y-70155051D01*
X137281588Y-70251557D01*
X137483757Y-70317246D01*
X137693713Y-70350500D01*
X137693714Y-70350500D01*
X137906286Y-70350500D01*
X137906287Y-70350500D01*
X138116243Y-70317246D01*
X138318412Y-70251557D01*
X138507816Y-70155051D01*
X138529789Y-70139086D01*
X138679786Y-70030109D01*
X138679788Y-70030106D01*
X138679792Y-70030104D01*
X138830104Y-69879792D01*
X138830106Y-69879788D01*
X138830109Y-69879786D01*
X138955048Y-69707820D01*
X138955047Y-69707820D01*
X138955051Y-69707816D01*
X139051557Y-69518412D01*
X139117246Y-69316243D01*
X139150500Y-69106287D01*
X139150500Y-68893713D01*
X139117246Y-68683757D01*
X139051557Y-68481588D01*
X138955051Y-68292184D01*
X138955049Y-68292181D01*
X138955048Y-68292179D01*
X138886177Y-68197385D01*
X138862697Y-68131578D01*
X138878523Y-68063525D01*
X138928629Y-68014830D01*
X138986495Y-68000500D01*
X199013505Y-68000500D01*
X199025585Y-68004047D01*
G37*
%TD.AperFunction*%
%TD*%
M02*
