%TF.GenerationSoftware,KiCad,Pcbnew,9.0.8*%
%TF.CreationDate,2026-03-28T21:38:23-07:00*%
%TF.ProjectId,Shutdown_Circuit,53687574-646f-4776-9e5f-436972637569,rev?*%
%TF.SameCoordinates,Original*%
%TF.FileFunction,Copper,L1,Top*%
%TF.FilePolarity,Positive*%
%FSLAX46Y46*%
G04 Gerber Fmt 4.6, Leading zero omitted, Abs format (unit mm)*
G04 Created by KiCad (PCBNEW 9.0.8) date 2026-03-28 21:38:23*
%MOMM*%
%LPD*%
G01*
G04 APERTURE LIST*
G04 Aperture macros list*
%AMRoundRect*
0 Rectangle with rounded corners*
0 $1 Rounding radius*
0 $2 $3 $4 $5 $6 $7 $8 $9 X,Y pos of 4 corners*
0 Add a 4 corners polygon primitive as box body*
4,1,4,$2,$3,$4,$5,$6,$7,$8,$9,$2,$3,0*
0 Add four circle primitives for the rounded corners*
1,1,$1+$1,$2,$3*
1,1,$1+$1,$4,$5*
1,1,$1+$1,$6,$7*
1,1,$1+$1,$8,$9*
0 Add four rect primitives between the rounded corners*
20,1,$1+$1,$2,$3,$4,$5,0*
20,1,$1+$1,$4,$5,$6,$7,0*
20,1,$1+$1,$6,$7,$8,$9,0*
20,1,$1+$1,$8,$9,$2,$3,0*%
G04 Aperture macros list end*
%TA.AperFunction,SMDPad,CuDef*%
%ADD10R,0.640000X0.420000*%
%TD*%
%TA.AperFunction,SMDPad,CuDef*%
%ADD11R,1.000000X1.000000*%
%TD*%
%TA.AperFunction,ComponentPad*%
%ADD12R,1.950000X1.950000*%
%TD*%
%TA.AperFunction,ComponentPad*%
%ADD13C,1.950000*%
%TD*%
%TA.AperFunction,SMDPad,CuDef*%
%ADD14RoundRect,0.200000X0.275000X-0.200000X0.275000X0.200000X-0.275000X0.200000X-0.275000X-0.200000X0*%
%TD*%
%TA.AperFunction,SMDPad,CuDef*%
%ADD15R,0.420000X0.640000*%
%TD*%
%TA.AperFunction,SMDPad,CuDef*%
%ADD16RoundRect,0.200000X-0.200000X-0.275000X0.200000X-0.275000X0.200000X0.275000X-0.200000X0.275000X0*%
%TD*%
%TA.AperFunction,SMDPad,CuDef*%
%ADD17RoundRect,0.200000X0.200000X0.275000X-0.200000X0.275000X-0.200000X-0.275000X0.200000X-0.275000X0*%
%TD*%
%TA.AperFunction,SMDPad,CuDef*%
%ADD18RoundRect,0.200000X-0.275000X0.200000X-0.275000X-0.200000X0.275000X-0.200000X0.275000X0.200000X0*%
%TD*%
%TA.AperFunction,SMDPad,CuDef*%
%ADD19RoundRect,0.218750X-0.256250X0.218750X-0.256250X-0.218750X0.256250X-0.218750X0.256250X0.218750X0*%
%TD*%
%TA.AperFunction,SMDPad,CuDef*%
%ADD20RoundRect,0.218750X0.218750X0.256250X-0.218750X0.256250X-0.218750X-0.256250X0.218750X-0.256250X0*%
%TD*%
%TA.AperFunction,SMDPad,CuDef*%
%ADD21RoundRect,0.218750X0.256250X-0.218750X0.256250X0.218750X-0.256250X0.218750X-0.256250X-0.218750X0*%
%TD*%
%TA.AperFunction,ComponentPad*%
%ADD22C,2.700000*%
%TD*%
%TA.AperFunction,Conductor*%
%ADD23C,0.250000*%
%TD*%
G04 APERTURE END LIST*
D10*
%TO.P,D2,1,K*%
%TO.N,+12V*%
X118931000Y-54236000D03*
%TO.P,D2,2,A*%
%TO.N,GND*%
X120431000Y-54236000D03*
%TD*%
D11*
%TO.P,Q3,1,G*%
%TO.N,/IMD KILL SIGNAL*%
X126179000Y-91501000D03*
%TO.P,Q3,2,D*%
%TO.N,Net-(D6-K)*%
X124079000Y-90551000D03*
%TO.P,Q3,3,S*%
%TO.N,GND*%
X126179000Y-89601000D03*
%TD*%
%TO.P,Q1,1,G*%
%TO.N,/BSPD KILL SIGNAL*%
X133545000Y-89723000D03*
%TO.P,Q1,2,D*%
%TO.N,Net-(D5-K)*%
X131445000Y-88773000D03*
%TO.P,Q1,3,S*%
%TO.N,GND*%
X133545000Y-87823000D03*
%TD*%
%TO.P,Q2,1,G*%
%TO.N,/BMS KILL SIGNAL*%
X122877000Y-65593000D03*
%TO.P,Q2,2,D*%
%TO.N,Net-(D4-K)*%
X120777000Y-64643000D03*
%TO.P,Q2,3,S*%
%TO.N,GND*%
X122877000Y-63693000D03*
%TD*%
D12*
%TO.P,K1,1,COIL_1*%
%TO.N,+12V*%
X115986000Y-92008000D03*
D13*
%TO.P,K1,2,COM_1*%
X95666000Y-92008000D03*
%TO.P,K1,3,NO_1*%
%TO.N,Net-(K1-NO_1)*%
X90586000Y-92008000D03*
%TO.P,K1,4,NO_2*%
%TO.N,unconnected-(K1-NO_2-Pad4)*%
X90586000Y-99608000D03*
%TO.P,K1,5,COM_2*%
%TO.N,unconnected-(K1-COM_2-Pad5)*%
X95666000Y-99608000D03*
%TO.P,K1,6,COIL_2*%
%TO.N,Net-(K1-COIL_2)*%
X115986000Y-99608000D03*
%TD*%
D14*
%TO.P,R6,1*%
%TO.N,Net-(D6-A)*%
X120523000Y-82867000D03*
%TO.P,R6,2*%
%TO.N,Net-(K3-COIL_2)*%
X120523000Y-81217000D03*
%TD*%
D12*
%TO.P,K3,1,COIL_1*%
%TO.N,+12V*%
X114427000Y-76320000D03*
D13*
%TO.P,K3,2,COM_1*%
%TO.N,Net-(K2-NO_1)*%
X94107000Y-76320000D03*
%TO.P,K3,3,NO_1*%
%TO.N,/RELAYS_OUT*%
X89027000Y-76320000D03*
%TO.P,K3,4,NO_2*%
%TO.N,unconnected-(K3-NO_2-Pad4)*%
X89027000Y-83920000D03*
%TO.P,K3,5,COM_2*%
%TO.N,unconnected-(K3-COM_2-Pad5)*%
X94107000Y-83920000D03*
%TO.P,K3,6,COIL_2*%
%TO.N,Net-(K3-COIL_2)*%
X114427000Y-83920000D03*
%TD*%
D15*
%TO.P,D1,1,K*%
%TO.N,+12V*%
X122682000Y-94500000D03*
%TO.P,D1,2,A*%
%TO.N,GND*%
X122682000Y-96000000D03*
%TD*%
D16*
%TO.P,R8,1*%
%TO.N,AIR SIGNAL*%
X129223000Y-56515000D03*
%TO.P,R8,2*%
%TO.N,Net-(D8-A)*%
X130873000Y-56515000D03*
%TD*%
D17*
%TO.P,R5,1*%
%TO.N,Net-(D4-A)*%
X120078000Y-57785000D03*
%TO.P,R5,2*%
%TO.N,Net-(K2-COIL_2)*%
X118428000Y-57785000D03*
%TD*%
D12*
%TO.P,K2,1,COIL_1*%
%TO.N,+12V*%
X112903000Y-56889000D03*
D13*
%TO.P,K2,2,COM_1*%
%TO.N,Net-(K1-NO_1)*%
X92583000Y-56889000D03*
%TO.P,K2,3,NO_1*%
%TO.N,Net-(K2-NO_1)*%
X87503000Y-56889000D03*
%TO.P,K2,4,NO_2*%
%TO.N,unconnected-(K2-NO_2-Pad4)*%
X87503000Y-64489000D03*
%TO.P,K2,5,COM_2*%
%TO.N,unconnected-(K2-COM_2-Pad5)*%
X92583000Y-64489000D03*
%TO.P,K2,6,COIL_2*%
%TO.N,Net-(K2-COIL_2)*%
X112903000Y-64489000D03*
%TD*%
D18*
%TO.P,R4,1*%
%TO.N,Net-(D5-A)*%
X129540000Y-93409000D03*
%TO.P,R4,2*%
%TO.N,Net-(K1-COIL_2)*%
X129540000Y-95059000D03*
%TD*%
D19*
%TO.P,D6,1,K*%
%TO.N,Net-(D6-K)*%
X120777000Y-85217000D03*
%TO.P,D6,2,A*%
%TO.N,Net-(D6-A)*%
X120777000Y-86792000D03*
%TD*%
D20*
%TO.P,D8,1,K*%
%TO.N,GND*%
X135177500Y-56500000D03*
%TO.P,D8,2,A*%
%TO.N,Net-(D8-A)*%
X133602500Y-56500000D03*
%TD*%
D21*
%TO.P,D5,1,K*%
%TO.N,Net-(D5-K)*%
X134620000Y-96037500D03*
%TO.P,D5,2,A*%
%TO.N,Net-(D5-A)*%
X134620000Y-94462500D03*
%TD*%
%TO.P,D4,1,K*%
%TO.N,Net-(D4-K)*%
X123999000Y-58833500D03*
%TO.P,D4,2,A*%
%TO.N,Net-(D4-A)*%
X123999000Y-57258500D03*
%TD*%
D15*
%TO.P,D3,1,K*%
%TO.N,+12V*%
X124460000Y-81165000D03*
%TO.P,D3,2,A*%
%TO.N,GND*%
X124460000Y-82665000D03*
%TD*%
D22*
%TO.P,J2,1,Pin_1*%
%TO.N,+12V*%
X127854590Y-75500000D03*
%TO.P,J2,2,Pin_2*%
%TO.N,/RELAYS_OUT*%
X127854590Y-71500000D03*
%TO.P,J2,3,Pin_3*%
%TO.N,/BMS KILL SIGNAL*%
X127854590Y-67500000D03*
%TO.P,J2,4,Pin_4*%
%TO.N,AIR SIGNAL*%
X131854590Y-73500000D03*
%TO.P,J2,5,Pin_5*%
X131854590Y-69500000D03*
%TO.P,J2,6,Pin_6*%
%TO.N,/IMD KILL SIGNAL*%
X135854590Y-75500000D03*
%TO.P,J2,7,Pin_7*%
%TO.N,/BSPD KILL SIGNAL*%
X135854590Y-71500000D03*
%TO.P,J2,8,Pin_8*%
%TO.N,GND*%
X135854590Y-67500000D03*
%TD*%
D23*
%TO.N,Net-(K1-COIL_2)*%
X129540000Y-95059000D02*
X125091000Y-99508000D01*
X125091000Y-99508000D02*
X115986000Y-99508000D01*
%TO.N,Net-(D8-A)*%
X133602500Y-56500000D02*
X130888000Y-56500000D01*
X130888000Y-56500000D02*
X130873000Y-56515000D01*
%TO.N,Net-(K2-COIL_2)*%
X118428000Y-57785000D02*
X118428000Y-58864000D01*
X118428000Y-58864000D02*
X112903000Y-64389000D01*
%TO.N,/BMS KILL SIGNAL*%
X125947590Y-65593000D02*
X122877000Y-65593000D01*
X127854590Y-67500000D02*
X125947590Y-65593000D01*
%TO.N,Net-(K3-COIL_2)*%
X114427000Y-83920000D02*
X117130000Y-81217000D01*
X117130000Y-81217000D02*
X120523000Y-81217000D01*
%TO.N,AIR SIGNAL*%
X131854590Y-69500000D02*
X130504590Y-68150000D01*
X129223000Y-56515000D02*
X130504590Y-57796590D01*
X129223000Y-56515000D02*
X129234590Y-56515000D01*
X131854590Y-73500000D02*
X131854590Y-69500000D01*
X130504590Y-57796590D02*
X130504590Y-68150000D01*
%TO.N,Net-(D5-A)*%
X130593500Y-94462500D02*
X129540000Y-93409000D01*
X134620000Y-94462500D02*
X130593500Y-94462500D01*
%TO.N,+12V*%
X115556000Y-54236000D02*
X112903000Y-56889000D01*
X122682000Y-94500000D02*
X118478000Y-94500000D01*
X121885410Y-76320000D02*
X124460000Y-78894590D01*
X118478000Y-94500000D02*
X115986000Y-92008000D01*
X110363000Y-59429000D02*
X110363000Y-72256000D01*
X124460000Y-81165000D02*
X124460000Y-78894590D01*
X112903000Y-56889000D02*
X110363000Y-59429000D01*
X110363000Y-72256000D02*
X114427000Y-76320000D01*
X114427000Y-76320000D02*
X121885410Y-76320000D01*
X124460000Y-78894590D02*
X127854590Y-75500000D01*
X118931000Y-54236000D02*
X115556000Y-54236000D01*
X95986000Y-92008000D02*
X115986000Y-92008000D01*
%TO.N,Net-(D4-A)*%
X120078000Y-57785000D02*
X123472500Y-57785000D01*
X123472500Y-57785000D02*
X123999000Y-57258500D01*
%TO.N,Net-(D6-A)*%
X119507000Y-83883000D02*
X119507000Y-85522000D01*
X120523000Y-82867000D02*
X119507000Y-83883000D01*
X120746000Y-86792000D02*
X120777000Y-86792000D01*
X119507000Y-85522000D02*
X120777000Y-86792000D01*
%TO.N,Net-(K2-NO_1)*%
X87903000Y-56889000D02*
X85725000Y-59067000D01*
X85725000Y-59067000D02*
X85725000Y-70151000D01*
X85725000Y-70151000D02*
X91894000Y-76320000D01*
X91894000Y-76320000D02*
X94427000Y-76320000D01*
%TO.N,/IMD KILL SIGNAL*%
X135854590Y-75500000D02*
X133200000Y-75500000D01*
X127218000Y-81482000D02*
X133200000Y-75500000D01*
X127218000Y-90462000D02*
X127218000Y-81482000D01*
X126179000Y-91501000D02*
X127218000Y-90462000D01*
%TO.N,/BSPD KILL SIGNAL*%
X137922000Y-81788000D02*
X137922000Y-73567410D01*
X137922000Y-85346000D02*
X137922000Y-81788000D01*
X133545000Y-89723000D02*
X137922000Y-85346000D01*
X137922000Y-73567410D02*
X135854590Y-71500000D01*
%TO.N,Net-(D4-K)*%
X120777000Y-64643000D02*
X120777000Y-62055500D01*
X120777000Y-62055500D02*
X123999000Y-58833500D01*
%TO.N,Net-(D5-K)*%
X134620000Y-96037500D02*
X135229500Y-96037500D01*
X131445000Y-89233000D02*
X131445000Y-88773000D01*
X135763000Y-93551000D02*
X131445000Y-89233000D01*
X135229500Y-96037500D02*
X135763000Y-95504000D01*
X135763000Y-95504000D02*
X135763000Y-93551000D01*
%TO.N,Net-(D6-K)*%
X124079000Y-88519000D02*
X124079000Y-90551000D01*
X120777000Y-85217000D02*
X124079000Y-88519000D01*
%TD*%
%TA.AperFunction,Conductor*%
%TO.N,GND*%
G36*
X138626751Y-51201345D02*
G01*
X138673111Y-51253619D01*
X138684915Y-51305514D01*
X139063814Y-102835903D01*
X139063345Y-102847622D01*
X139060070Y-102885057D01*
X139034618Y-102950126D01*
X138978027Y-102991105D01*
X138937755Y-102998244D01*
X87244996Y-103503797D01*
X87177767Y-103484769D01*
X87131498Y-103432415D01*
X87119803Y-103382021D01*
X87050336Y-99491870D01*
X89110500Y-99491870D01*
X89110500Y-99724129D01*
X89146831Y-99953514D01*
X89218601Y-100174400D01*
X89324039Y-100381331D01*
X89460551Y-100569224D01*
X89624776Y-100733449D01*
X89812669Y-100869961D01*
X89910436Y-100919776D01*
X90019599Y-100975398D01*
X90019601Y-100975398D01*
X90019604Y-100975400D01*
X90240486Y-101047169D01*
X90358668Y-101065886D01*
X90469871Y-101083500D01*
X90469876Y-101083500D01*
X90702129Y-101083500D01*
X90803502Y-101067443D01*
X90931514Y-101047169D01*
X91152396Y-100975400D01*
X91359331Y-100869961D01*
X91547224Y-100733449D01*
X91711449Y-100569224D01*
X91847961Y-100381331D01*
X91953400Y-100174396D01*
X92025169Y-99953514D01*
X92045443Y-99825502D01*
X92061500Y-99724129D01*
X92061500Y-99491870D01*
X94190500Y-99491870D01*
X94190500Y-99724129D01*
X94226831Y-99953514D01*
X94298601Y-100174400D01*
X94404039Y-100381331D01*
X94540551Y-100569224D01*
X94704776Y-100733449D01*
X94892669Y-100869961D01*
X94990436Y-100919776D01*
X95099599Y-100975398D01*
X95099601Y-100975398D01*
X95099604Y-100975400D01*
X95320486Y-101047169D01*
X95438668Y-101065886D01*
X95549871Y-101083500D01*
X95549876Y-101083500D01*
X95782129Y-101083500D01*
X95883502Y-101067443D01*
X96011514Y-101047169D01*
X96232396Y-100975400D01*
X96439331Y-100869961D01*
X96627224Y-100733449D01*
X96791449Y-100569224D01*
X96927961Y-100381331D01*
X97033400Y-100174396D01*
X97105169Y-99953514D01*
X97125443Y-99825502D01*
X97141500Y-99724129D01*
X97141500Y-99491870D01*
X97122232Y-99370222D01*
X97105169Y-99262486D01*
X97033400Y-99041604D01*
X97033398Y-99041601D01*
X97033398Y-99041599D01*
X96942302Y-98862815D01*
X96927961Y-98834669D01*
X96791449Y-98646776D01*
X96627224Y-98482551D01*
X96439331Y-98346039D01*
X96232400Y-98240601D01*
X96011514Y-98168831D01*
X95782129Y-98132500D01*
X95782124Y-98132500D01*
X95549876Y-98132500D01*
X95549871Y-98132500D01*
X95320485Y-98168831D01*
X95099599Y-98240601D01*
X94892668Y-98346039D01*
X94704773Y-98482553D01*
X94540553Y-98646773D01*
X94404039Y-98834668D01*
X94298601Y-99041599D01*
X94226831Y-99262485D01*
X94190500Y-99491870D01*
X92061500Y-99491870D01*
X92042232Y-99370222D01*
X92025169Y-99262486D01*
X91953400Y-99041604D01*
X91953398Y-99041601D01*
X91953398Y-99041599D01*
X91862302Y-98862815D01*
X91847961Y-98834669D01*
X91711449Y-98646776D01*
X91547224Y-98482551D01*
X91359331Y-98346039D01*
X91152400Y-98240601D01*
X90931514Y-98168831D01*
X90702129Y-98132500D01*
X90702124Y-98132500D01*
X90469876Y-98132500D01*
X90469871Y-98132500D01*
X90240485Y-98168831D01*
X90019599Y-98240601D01*
X89812668Y-98346039D01*
X89624773Y-98482553D01*
X89460553Y-98646773D01*
X89324039Y-98834668D01*
X89218601Y-99041599D01*
X89146831Y-99262485D01*
X89110500Y-99491870D01*
X87050336Y-99491870D01*
X86994550Y-96367844D01*
X121972000Y-96367844D01*
X121978401Y-96427372D01*
X121978403Y-96427379D01*
X122028645Y-96562086D01*
X122028649Y-96562093D01*
X122114809Y-96677187D01*
X122114812Y-96677190D01*
X122229906Y-96763350D01*
X122229913Y-96763354D01*
X122364620Y-96813596D01*
X122364627Y-96813598D01*
X122424155Y-96819999D01*
X122424172Y-96820000D01*
X122472000Y-96820000D01*
X122892000Y-96820000D01*
X122939828Y-96820000D01*
X122939844Y-96819999D01*
X122999372Y-96813598D01*
X122999379Y-96813596D01*
X123134086Y-96763354D01*
X123134093Y-96763350D01*
X123249187Y-96677190D01*
X123249190Y-96677187D01*
X123335350Y-96562093D01*
X123335354Y-96562086D01*
X123385596Y-96427379D01*
X123385598Y-96427372D01*
X123391999Y-96367844D01*
X123392000Y-96367827D01*
X123392000Y-96210000D01*
X122892000Y-96210000D01*
X122892000Y-96820000D01*
X122472000Y-96820000D01*
X122472000Y-96210000D01*
X121972000Y-96210000D01*
X121972000Y-96367844D01*
X86994550Y-96367844D01*
X86914623Y-91891870D01*
X89110500Y-91891870D01*
X89110500Y-92124129D01*
X89146831Y-92353514D01*
X89218601Y-92574400D01*
X89285650Y-92705989D01*
X89324039Y-92781331D01*
X89460551Y-92969224D01*
X89624776Y-93133449D01*
X89812669Y-93269961D01*
X89896782Y-93312819D01*
X90019599Y-93375398D01*
X90019601Y-93375398D01*
X90019604Y-93375400D01*
X90240486Y-93447169D01*
X90358668Y-93465886D01*
X90469871Y-93483500D01*
X90469876Y-93483500D01*
X90702129Y-93483500D01*
X90803502Y-93467443D01*
X90931514Y-93447169D01*
X91152396Y-93375400D01*
X91359331Y-93269961D01*
X91547224Y-93133449D01*
X91711449Y-92969224D01*
X91847961Y-92781331D01*
X91953400Y-92574396D01*
X92025169Y-92353514D01*
X92045443Y-92225502D01*
X92061500Y-92124129D01*
X92061500Y-91891870D01*
X94190500Y-91891870D01*
X94190500Y-92124129D01*
X94226831Y-92353514D01*
X94298601Y-92574400D01*
X94365650Y-92705989D01*
X94404039Y-92781331D01*
X94540551Y-92969224D01*
X94704776Y-93133449D01*
X94892669Y-93269961D01*
X94976782Y-93312819D01*
X95099599Y-93375398D01*
X95099601Y-93375398D01*
X95099604Y-93375400D01*
X95320486Y-93447169D01*
X95438668Y-93465886D01*
X95549871Y-93483500D01*
X95549876Y-93483500D01*
X95782129Y-93483500D01*
X95883502Y-93467443D01*
X96011514Y-93447169D01*
X96232396Y-93375400D01*
X96439331Y-93269961D01*
X96627224Y-93133449D01*
X96791449Y-92969224D01*
X96927961Y-92781331D01*
X96968787Y-92701204D01*
X97016761Y-92650409D01*
X97079272Y-92633500D01*
X114386501Y-92633500D01*
X114453540Y-92653185D01*
X114499295Y-92705989D01*
X114510501Y-92757500D01*
X114510501Y-93030876D01*
X114516908Y-93090483D01*
X114567202Y-93225328D01*
X114567206Y-93225335D01*
X114653452Y-93340544D01*
X114653455Y-93340547D01*
X114768664Y-93426793D01*
X114768671Y-93426797D01*
X114903517Y-93477091D01*
X114903516Y-93477091D01*
X114910444Y-93477835D01*
X114963127Y-93483500D01*
X116525547Y-93483499D01*
X116592586Y-93503184D01*
X116613228Y-93519818D01*
X117989016Y-94895606D01*
X117989045Y-94895637D01*
X118079263Y-94985855D01*
X118079267Y-94985858D01*
X118181707Y-95054307D01*
X118181713Y-95054310D01*
X118181714Y-95054311D01*
X118295548Y-95101463D01*
X118308581Y-95104055D01*
X118314646Y-95105262D01*
X118314659Y-95105264D01*
X118314673Y-95105267D01*
X118416391Y-95125499D01*
X118416392Y-95125500D01*
X118416393Y-95125500D01*
X118416394Y-95125500D01*
X122013423Y-95125500D01*
X122017825Y-95126792D01*
X122022309Y-95125819D01*
X122051039Y-95136545D01*
X122080462Y-95145185D01*
X122084665Y-95149099D01*
X122087765Y-95150257D01*
X122112711Y-95175218D01*
X122113375Y-95176104D01*
X122113400Y-95176138D01*
X122137796Y-95241611D01*
X122122922Y-95309879D01*
X122113376Y-95324728D01*
X122028646Y-95437911D01*
X122028645Y-95437913D01*
X121978403Y-95572620D01*
X121978401Y-95572627D01*
X121972000Y-95632155D01*
X121972000Y-95790000D01*
X123392000Y-95790000D01*
X123392000Y-95632172D01*
X123391999Y-95632155D01*
X123385598Y-95572627D01*
X123385596Y-95572620D01*
X123335354Y-95437913D01*
X123335353Y-95437911D01*
X123250623Y-95324727D01*
X123226206Y-95259263D01*
X123241057Y-95190990D01*
X123250615Y-95176117D01*
X123335796Y-95062331D01*
X123386091Y-94927483D01*
X123392500Y-94867873D01*
X123392499Y-94132128D01*
X123386091Y-94072517D01*
X123335796Y-93937669D01*
X123335795Y-93937668D01*
X123335793Y-93937664D01*
X123249547Y-93822455D01*
X123249544Y-93822452D01*
X123134335Y-93736206D01*
X123134328Y-93736202D01*
X122999486Y-93685910D01*
X122999485Y-93685909D01*
X122999483Y-93685909D01*
X122939873Y-93679500D01*
X122939863Y-93679500D01*
X122424129Y-93679500D01*
X122424123Y-93679501D01*
X122364516Y-93685908D01*
X122229671Y-93736202D01*
X122229664Y-93736206D01*
X122114457Y-93822451D01*
X122114452Y-93822455D01*
X122112692Y-93824808D01*
X122110337Y-93826570D01*
X122108180Y-93828728D01*
X122107869Y-93828417D01*
X122056760Y-93866681D01*
X122013423Y-93874500D01*
X118788452Y-93874500D01*
X118721413Y-93854815D01*
X118700771Y-93838181D01*
X117497818Y-92635228D01*
X117464333Y-92573905D01*
X117461499Y-92547547D01*
X117461499Y-90985129D01*
X117461498Y-90985123D01*
X117461497Y-90985116D01*
X117455091Y-90925517D01*
X117439066Y-90882553D01*
X117404797Y-90790671D01*
X117404793Y-90790664D01*
X117318547Y-90675455D01*
X117318544Y-90675452D01*
X117203335Y-90589206D01*
X117203328Y-90589202D01*
X117068482Y-90538908D01*
X117068483Y-90538908D01*
X117008883Y-90532501D01*
X117008881Y-90532500D01*
X117008873Y-90532500D01*
X117008864Y-90532500D01*
X114963129Y-90532500D01*
X114963123Y-90532501D01*
X114903516Y-90538908D01*
X114768671Y-90589202D01*
X114768664Y-90589206D01*
X114653455Y-90675452D01*
X114653452Y-90675455D01*
X114567206Y-90790664D01*
X114567202Y-90790671D01*
X114516908Y-90925517D01*
X114510501Y-90985116D01*
X114510501Y-90985123D01*
X114510500Y-90985135D01*
X114510500Y-91258500D01*
X114490815Y-91325539D01*
X114438011Y-91371294D01*
X114386500Y-91382500D01*
X97079272Y-91382500D01*
X97012233Y-91362815D01*
X96968787Y-91314795D01*
X96957853Y-91293335D01*
X96927961Y-91234669D01*
X96791449Y-91046776D01*
X96627224Y-90882551D01*
X96439331Y-90746039D01*
X96403394Y-90727728D01*
X96232400Y-90640601D01*
X96011514Y-90568831D01*
X95782129Y-90532500D01*
X95782124Y-90532500D01*
X95549876Y-90532500D01*
X95549871Y-90532500D01*
X95320485Y-90568831D01*
X95099599Y-90640601D01*
X94892668Y-90746039D01*
X94704773Y-90882553D01*
X94540553Y-91046773D01*
X94404039Y-91234668D01*
X94298601Y-91441599D01*
X94226831Y-91662485D01*
X94190500Y-91891870D01*
X92061500Y-91891870D01*
X92042232Y-91770222D01*
X92025169Y-91662486D01*
X91953400Y-91441604D01*
X91953398Y-91441601D01*
X91953398Y-91441599D01*
X91877849Y-91293328D01*
X91847961Y-91234669D01*
X91711449Y-91046776D01*
X91547224Y-90882551D01*
X91359331Y-90746039D01*
X91323394Y-90727728D01*
X91152400Y-90640601D01*
X90931514Y-90568831D01*
X90702129Y-90532500D01*
X90702124Y-90532500D01*
X90469876Y-90532500D01*
X90469871Y-90532500D01*
X90240485Y-90568831D01*
X90019599Y-90640601D01*
X89812668Y-90746039D01*
X89624773Y-90882553D01*
X89460553Y-91046773D01*
X89324039Y-91234668D01*
X89218601Y-91441599D01*
X89146831Y-91662485D01*
X89110500Y-91891870D01*
X86914623Y-91891870D01*
X86868000Y-89281000D01*
X83713262Y-84485799D01*
X83692862Y-84418976D01*
X83692857Y-84418297D01*
X83690466Y-83803870D01*
X87551500Y-83803870D01*
X87551500Y-84036129D01*
X87587831Y-84265514D01*
X87659601Y-84486400D01*
X87764465Y-84692204D01*
X87765039Y-84693331D01*
X87901551Y-84881224D01*
X88065776Y-85045449D01*
X88253669Y-85181961D01*
X88351436Y-85231776D01*
X88460599Y-85287398D01*
X88460601Y-85287398D01*
X88460604Y-85287400D01*
X88681486Y-85359169D01*
X88799668Y-85377886D01*
X88910871Y-85395500D01*
X88910876Y-85395500D01*
X89143129Y-85395500D01*
X89244502Y-85379443D01*
X89372514Y-85359169D01*
X89593396Y-85287400D01*
X89800331Y-85181961D01*
X89988224Y-85045449D01*
X90152449Y-84881224D01*
X90288961Y-84693331D01*
X90394400Y-84486396D01*
X90466169Y-84265514D01*
X90491469Y-84105771D01*
X90502500Y-84036129D01*
X90502500Y-83803870D01*
X92631500Y-83803870D01*
X92631500Y-84036129D01*
X92667831Y-84265514D01*
X92739601Y-84486400D01*
X92844465Y-84692204D01*
X92845039Y-84693331D01*
X92981551Y-84881224D01*
X93145776Y-85045449D01*
X93333669Y-85181961D01*
X93431436Y-85231776D01*
X93540599Y-85287398D01*
X93540601Y-85287398D01*
X93540604Y-85287400D01*
X93761486Y-85359169D01*
X93879668Y-85377886D01*
X93990871Y-85395500D01*
X93990876Y-85395500D01*
X94223129Y-85395500D01*
X94324502Y-85379443D01*
X94452514Y-85359169D01*
X94673396Y-85287400D01*
X94880331Y-85181961D01*
X95068224Y-85045449D01*
X95232449Y-84881224D01*
X95368961Y-84693331D01*
X95474400Y-84486396D01*
X95546169Y-84265514D01*
X95571469Y-84105771D01*
X95582500Y-84036129D01*
X95582500Y-83803870D01*
X95563232Y-83682222D01*
X95546169Y-83574486D01*
X95474400Y-83353604D01*
X95474398Y-83353601D01*
X95474398Y-83353599D01*
X95368960Y-83146668D01*
X95327778Y-83089986D01*
X95232449Y-82958776D01*
X95068224Y-82794551D01*
X94880331Y-82658039D01*
X94673400Y-82552601D01*
X94452514Y-82480831D01*
X94223129Y-82444500D01*
X94223124Y-82444500D01*
X93990876Y-82444500D01*
X93990871Y-82444500D01*
X93761485Y-82480831D01*
X93540599Y-82552601D01*
X93333668Y-82658039D01*
X93145773Y-82794553D01*
X92981553Y-82958773D01*
X92845039Y-83146668D01*
X92739601Y-83353599D01*
X92667831Y-83574485D01*
X92631500Y-83803870D01*
X90502500Y-83803870D01*
X90483232Y-83682222D01*
X90466169Y-83574486D01*
X90394400Y-83353604D01*
X90394398Y-83353601D01*
X90394398Y-83353599D01*
X90288960Y-83146668D01*
X90247778Y-83089986D01*
X90152449Y-82958776D01*
X89988224Y-82794551D01*
X89800331Y-82658039D01*
X89593400Y-82552601D01*
X89372514Y-82480831D01*
X89143129Y-82444500D01*
X89143124Y-82444500D01*
X88910876Y-82444500D01*
X88910871Y-82444500D01*
X88681485Y-82480831D01*
X88460599Y-82552601D01*
X88253668Y-82658039D01*
X88065773Y-82794553D01*
X87901553Y-82958773D01*
X87765039Y-83146668D01*
X87659601Y-83353599D01*
X87587831Y-83574485D01*
X87551500Y-83803870D01*
X83690466Y-83803870D01*
X83593974Y-59005389D01*
X85099500Y-59005389D01*
X85099500Y-59005394D01*
X85099500Y-70212606D01*
X85112361Y-70277263D01*
X85120903Y-70320210D01*
X85123537Y-70333453D01*
X85170685Y-70447280D01*
X85170687Y-70447283D01*
X85170688Y-70447286D01*
X85204915Y-70498509D01*
X85239142Y-70549733D01*
X85326267Y-70636858D01*
X85326269Y-70636859D01*
X85336232Y-70646822D01*
X89337596Y-74648186D01*
X89371081Y-74709509D01*
X89366097Y-74779201D01*
X89324225Y-74835134D01*
X89258761Y-74859551D01*
X89230518Y-74858341D01*
X89143124Y-74844500D01*
X88910876Y-74844500D01*
X88910871Y-74844500D01*
X88681485Y-74880831D01*
X88460599Y-74952601D01*
X88253668Y-75058039D01*
X88065773Y-75194553D01*
X87901553Y-75358773D01*
X87765039Y-75546668D01*
X87659601Y-75753599D01*
X87587831Y-75974485D01*
X87551500Y-76203870D01*
X87551500Y-76436129D01*
X87587831Y-76665514D01*
X87659601Y-76886400D01*
X87738850Y-77041932D01*
X87765039Y-77093331D01*
X87901551Y-77281224D01*
X88065776Y-77445449D01*
X88253669Y-77581961D01*
X88351436Y-77631776D01*
X88460599Y-77687398D01*
X88460601Y-77687398D01*
X88460604Y-77687400D01*
X88681486Y-77759169D01*
X88799668Y-77777886D01*
X88910871Y-77795500D01*
X88910876Y-77795500D01*
X89143129Y-77795500D01*
X89244502Y-77779443D01*
X89372514Y-77759169D01*
X89593396Y-77687400D01*
X89800331Y-77581961D01*
X89988224Y-77445449D01*
X90152449Y-77281224D01*
X90288961Y-77093331D01*
X90394400Y-76886396D01*
X90466169Y-76665514D01*
X90487586Y-76530289D01*
X90502500Y-76436129D01*
X90502500Y-76203870D01*
X90488659Y-76116483D01*
X90497613Y-76047190D01*
X90542610Y-75993738D01*
X90609361Y-75973098D01*
X90676675Y-75991823D01*
X90698813Y-76009404D01*
X91495262Y-76805854D01*
X91495265Y-76805857D01*
X91563411Y-76851390D01*
X91597714Y-76874311D01*
X91711548Y-76921463D01*
X91832388Y-76945499D01*
X91832392Y-76945500D01*
X91832393Y-76945500D01*
X91832394Y-76945500D01*
X92693728Y-76945500D01*
X92760767Y-76965185D01*
X92804212Y-77013203D01*
X92845039Y-77093331D01*
X92981551Y-77281224D01*
X93145776Y-77445449D01*
X93333669Y-77581961D01*
X93431436Y-77631776D01*
X93540599Y-77687398D01*
X93540601Y-77687398D01*
X93540604Y-77687400D01*
X93761486Y-77759169D01*
X93879668Y-77777886D01*
X93990871Y-77795500D01*
X93990876Y-77795500D01*
X94223129Y-77795500D01*
X94324502Y-77779443D01*
X94452514Y-77759169D01*
X94673396Y-77687400D01*
X94880331Y-77581961D01*
X95068224Y-77445449D01*
X95232449Y-77281224D01*
X95368961Y-77093331D01*
X95474400Y-76886396D01*
X95546169Y-76665514D01*
X95567586Y-76530289D01*
X95582500Y-76436129D01*
X95582500Y-76203870D01*
X95551699Y-76009404D01*
X95546169Y-75974486D01*
X95474400Y-75753604D01*
X95474398Y-75753601D01*
X95474398Y-75753599D01*
X95406981Y-75621288D01*
X95368961Y-75546669D01*
X95232449Y-75358776D01*
X95068224Y-75194551D01*
X94880331Y-75058039D01*
X94848727Y-75041936D01*
X94673400Y-74952601D01*
X94452514Y-74880831D01*
X94223129Y-74844500D01*
X94223124Y-74844500D01*
X93990876Y-74844500D01*
X93990871Y-74844500D01*
X93761485Y-74880831D01*
X93540599Y-74952601D01*
X93333668Y-75058039D01*
X93145773Y-75194553D01*
X92981553Y-75358773D01*
X92845039Y-75546668D01*
X92832896Y-75570500D01*
X92806651Y-75622011D01*
X92804213Y-75626795D01*
X92756239Y-75677591D01*
X92693728Y-75694500D01*
X92204453Y-75694500D01*
X92137414Y-75674815D01*
X92116772Y-75658181D01*
X86386819Y-69928228D01*
X86353334Y-69866905D01*
X86350500Y-69840547D01*
X86350500Y-65718842D01*
X86370185Y-65651803D01*
X86422989Y-65606048D01*
X86492147Y-65596104D01*
X86547383Y-65618522D01*
X86729669Y-65750961D01*
X86811961Y-65792891D01*
X86936599Y-65856398D01*
X86936601Y-65856398D01*
X86936604Y-65856400D01*
X87157486Y-65928169D01*
X87275668Y-65946886D01*
X87386871Y-65964500D01*
X87386876Y-65964500D01*
X87619129Y-65964500D01*
X87720502Y-65948443D01*
X87848514Y-65928169D01*
X88069396Y-65856400D01*
X88276331Y-65750961D01*
X88464224Y-65614449D01*
X88628449Y-65450224D01*
X88764961Y-65262331D01*
X88870400Y-65055396D01*
X88942169Y-64834514D01*
X88975781Y-64622293D01*
X88978500Y-64605129D01*
X88978500Y-64372870D01*
X91107500Y-64372870D01*
X91107500Y-64605129D01*
X91143831Y-64834514D01*
X91215601Y-65055400D01*
X91315002Y-65250483D01*
X91321039Y-65262331D01*
X91457551Y-65450224D01*
X91621776Y-65614449D01*
X91809669Y-65750961D01*
X91891961Y-65792891D01*
X92016599Y-65856398D01*
X92016601Y-65856398D01*
X92016604Y-65856400D01*
X92237486Y-65928169D01*
X92355668Y-65946886D01*
X92466871Y-65964500D01*
X92466876Y-65964500D01*
X92699129Y-65964500D01*
X92800502Y-65948443D01*
X92928514Y-65928169D01*
X93149396Y-65856400D01*
X93356331Y-65750961D01*
X93544224Y-65614449D01*
X93708449Y-65450224D01*
X93844961Y-65262331D01*
X93950400Y-65055396D01*
X94022169Y-64834514D01*
X94055781Y-64622293D01*
X94058500Y-64605129D01*
X94058500Y-64372870D01*
X94037586Y-64240827D01*
X94022169Y-64143486D01*
X93950400Y-63922604D01*
X93950398Y-63922601D01*
X93950398Y-63922599D01*
X93844960Y-63715668D01*
X93823197Y-63685714D01*
X93708449Y-63527776D01*
X93544224Y-63363551D01*
X93356331Y-63227039D01*
X93149400Y-63121601D01*
X92928514Y-63049831D01*
X92699129Y-63013500D01*
X92699124Y-63013500D01*
X92466876Y-63013500D01*
X92466871Y-63013500D01*
X92237485Y-63049831D01*
X92016599Y-63121601D01*
X91809668Y-63227039D01*
X91621773Y-63363553D01*
X91457553Y-63527773D01*
X91321039Y-63715668D01*
X91215601Y-63922599D01*
X91143831Y-64143485D01*
X91107500Y-64372870D01*
X88978500Y-64372870D01*
X88957586Y-64240827D01*
X88942169Y-64143486D01*
X88870400Y-63922604D01*
X88870398Y-63922601D01*
X88870398Y-63922599D01*
X88764960Y-63715668D01*
X88743197Y-63685714D01*
X88628449Y-63527776D01*
X88464224Y-63363551D01*
X88276331Y-63227039D01*
X88069400Y-63121601D01*
X87848514Y-63049831D01*
X87619129Y-63013500D01*
X87619124Y-63013500D01*
X87386876Y-63013500D01*
X87386871Y-63013500D01*
X87157485Y-63049831D01*
X86936599Y-63121601D01*
X86729665Y-63227041D01*
X86547385Y-63359475D01*
X86481579Y-63382955D01*
X86413525Y-63367129D01*
X86364830Y-63317024D01*
X86350500Y-63259157D01*
X86350500Y-59377451D01*
X86353453Y-59367394D01*
X109737500Y-59367394D01*
X109737500Y-59376080D01*
X109737500Y-72317611D01*
X109761535Y-72438444D01*
X109761540Y-72438461D01*
X109808685Y-72552281D01*
X109808687Y-72552285D01*
X109808688Y-72552286D01*
X109832092Y-72587311D01*
X109877142Y-72654733D01*
X109964267Y-72741858D01*
X109964270Y-72741860D01*
X109972027Y-72749617D01*
X112915181Y-75692771D01*
X112948666Y-75754094D01*
X112951500Y-75780452D01*
X112951500Y-77342870D01*
X112951501Y-77342876D01*
X112957908Y-77402483D01*
X113008202Y-77537328D01*
X113008206Y-77537335D01*
X113094452Y-77652544D01*
X113094455Y-77652547D01*
X113209664Y-77738793D01*
X113209671Y-77738797D01*
X113344517Y-77789091D01*
X113344516Y-77789091D01*
X113351444Y-77789835D01*
X113404127Y-77795500D01*
X115449872Y-77795499D01*
X115509483Y-77789091D01*
X115644331Y-77738796D01*
X115759546Y-77652546D01*
X115845796Y-77537331D01*
X115896091Y-77402483D01*
X115902500Y-77342873D01*
X115902500Y-77069500D01*
X115922185Y-77002461D01*
X115974989Y-76956706D01*
X116026500Y-76945500D01*
X121574958Y-76945500D01*
X121641997Y-76965185D01*
X121662639Y-76981819D01*
X123798181Y-79117361D01*
X123831666Y-79178684D01*
X123834500Y-79205042D01*
X123834500Y-80523598D01*
X123814815Y-80590637D01*
X123809768Y-80597907D01*
X123806205Y-80602665D01*
X123806204Y-80602669D01*
X123758287Y-80731142D01*
X123755909Y-80737517D01*
X123749500Y-80797127D01*
X123749500Y-80797134D01*
X123749500Y-80797135D01*
X123749500Y-81532870D01*
X123749501Y-81532876D01*
X123755908Y-81592483D01*
X123806202Y-81727328D01*
X123806206Y-81727335D01*
X123891375Y-81841105D01*
X123915793Y-81906569D01*
X123900942Y-81974842D01*
X123891376Y-81989727D01*
X123806647Y-82102910D01*
X123806645Y-82102913D01*
X123756403Y-82237620D01*
X123756401Y-82237627D01*
X123750000Y-82297155D01*
X123750000Y-82455000D01*
X125170000Y-82455000D01*
X125170000Y-82297172D01*
X125169999Y-82297155D01*
X125163598Y-82237627D01*
X125163596Y-82237620D01*
X125113354Y-82102913D01*
X125113353Y-82102911D01*
X125028623Y-81989727D01*
X125004206Y-81924263D01*
X125019057Y-81855990D01*
X125028615Y-81841117D01*
X125113796Y-81727331D01*
X125164091Y-81592483D01*
X125170500Y-81532873D01*
X125170499Y-80797128D01*
X125164091Y-80737517D01*
X125161713Y-80731142D01*
X125113796Y-80602669D01*
X125113794Y-80602665D01*
X125110232Y-80597907D01*
X125085816Y-80532442D01*
X125085500Y-80523598D01*
X125085500Y-79205041D01*
X125105185Y-79138002D01*
X125121814Y-79117365D01*
X127005193Y-77233985D01*
X127066514Y-77200502D01*
X127136206Y-77205486D01*
X127140254Y-77207079D01*
X127258490Y-77256054D01*
X127492801Y-77318838D01*
X127673176Y-77342584D01*
X127733301Y-77350500D01*
X127733302Y-77350500D01*
X127975879Y-77350500D01*
X128033819Y-77342872D01*
X128216379Y-77318838D01*
X128450690Y-77256054D01*
X128674802Y-77163224D01*
X128884879Y-77041936D01*
X129077328Y-76894265D01*
X129248855Y-76722738D01*
X129396526Y-76530289D01*
X129517814Y-76320212D01*
X129610644Y-76096100D01*
X129673428Y-75861789D01*
X129705090Y-75621288D01*
X129705090Y-75378712D01*
X129702465Y-75358776D01*
X129688942Y-75256052D01*
X129673428Y-75138211D01*
X129610644Y-74903900D01*
X129609526Y-74901202D01*
X129535604Y-74722738D01*
X129517814Y-74679788D01*
X129396526Y-74469711D01*
X129248855Y-74277262D01*
X129248850Y-74277256D01*
X129077333Y-74105739D01*
X129077326Y-74105733D01*
X128884883Y-73958067D01*
X128884882Y-73958066D01*
X128884879Y-73958064D01*
X128674802Y-73836776D01*
X128674795Y-73836773D01*
X128450694Y-73743947D01*
X128216375Y-73681161D01*
X127975879Y-73649500D01*
X127975878Y-73649500D01*
X127733302Y-73649500D01*
X127733301Y-73649500D01*
X127492804Y-73681161D01*
X127258485Y-73743947D01*
X127034384Y-73836773D01*
X127034375Y-73836777D01*
X126824296Y-73958067D01*
X126631853Y-74105733D01*
X126631846Y-74105739D01*
X126460329Y-74277256D01*
X126460323Y-74277263D01*
X126312657Y-74469706D01*
X126191367Y-74679785D01*
X126191363Y-74679794D01*
X126098537Y-74903895D01*
X126035751Y-75138214D01*
X126004090Y-75378711D01*
X126004090Y-75621288D01*
X126026559Y-75791964D01*
X126035752Y-75861789D01*
X126098536Y-76096100D01*
X126147481Y-76214264D01*
X126154950Y-76283733D01*
X126123675Y-76346212D01*
X126120601Y-76349397D01*
X124547680Y-77922318D01*
X124486357Y-77955803D01*
X124416665Y-77950819D01*
X124372318Y-77922318D01*
X122378722Y-75928722D01*
X122371270Y-75921270D01*
X122371268Y-75921267D01*
X122284143Y-75834142D01*
X122227486Y-75796285D01*
X122181696Y-75765688D01*
X122181697Y-75765688D01*
X122181695Y-75765687D01*
X122142232Y-75749342D01*
X122101202Y-75732347D01*
X122067862Y-75718537D01*
X122007439Y-75706518D01*
X122002716Y-75705578D01*
X122002714Y-75705578D01*
X121947020Y-75694500D01*
X121947017Y-75694500D01*
X121947016Y-75694500D01*
X116026499Y-75694500D01*
X115959460Y-75674815D01*
X115913705Y-75622011D01*
X115902499Y-75570500D01*
X115902499Y-75297129D01*
X115902498Y-75297123D01*
X115896091Y-75237516D01*
X115845797Y-75102671D01*
X115845793Y-75102664D01*
X115759547Y-74987455D01*
X115759544Y-74987452D01*
X115644335Y-74901206D01*
X115644328Y-74901202D01*
X115509482Y-74850908D01*
X115509483Y-74850908D01*
X115449883Y-74844501D01*
X115449881Y-74844500D01*
X115449873Y-74844500D01*
X115449865Y-74844500D01*
X113887452Y-74844500D01*
X113820413Y-74824815D01*
X113799771Y-74808181D01*
X111024819Y-72033229D01*
X110991334Y-71971906D01*
X110988500Y-71945548D01*
X110988500Y-71378711D01*
X126004090Y-71378711D01*
X126004090Y-71621288D01*
X126035751Y-71861785D01*
X126098537Y-72096104D01*
X126173576Y-72277263D01*
X126191366Y-72320212D01*
X126312654Y-72530289D01*
X126312656Y-72530292D01*
X126312657Y-72530293D01*
X126460323Y-72722736D01*
X126460329Y-72722743D01*
X126631846Y-72894260D01*
X126631853Y-72894266D01*
X126744911Y-72981018D01*
X126824301Y-73041936D01*
X127034378Y-73163224D01*
X127258490Y-73256054D01*
X127492801Y-73318838D01*
X127673176Y-73342584D01*
X127733301Y-73350500D01*
X127733302Y-73350500D01*
X127975879Y-73350500D01*
X128023978Y-73344167D01*
X128216379Y-73318838D01*
X128450690Y-73256054D01*
X128674802Y-73163224D01*
X128884879Y-73041936D01*
X129077328Y-72894265D01*
X129248855Y-72722738D01*
X129396526Y-72530289D01*
X129517814Y-72320212D01*
X129610644Y-72096100D01*
X129673428Y-71861789D01*
X129705090Y-71621288D01*
X129705090Y-71378712D01*
X129673428Y-71138211D01*
X129610644Y-70903900D01*
X129606653Y-70894266D01*
X129535604Y-70722738D01*
X129517814Y-70679788D01*
X129396526Y-70469711D01*
X129248855Y-70277262D01*
X129248850Y-70277256D01*
X129077333Y-70105739D01*
X129077326Y-70105733D01*
X128884883Y-69958067D01*
X128884882Y-69958066D01*
X128884879Y-69958064D01*
X128674802Y-69836776D01*
X128674795Y-69836773D01*
X128450694Y-69743947D01*
X128216375Y-69681161D01*
X127975879Y-69649500D01*
X127975878Y-69649500D01*
X127733302Y-69649500D01*
X127733301Y-69649500D01*
X127492804Y-69681161D01*
X127258485Y-69743947D01*
X127034384Y-69836773D01*
X127034375Y-69836777D01*
X126824296Y-69958067D01*
X126631853Y-70105733D01*
X126631846Y-70105739D01*
X126460329Y-70277256D01*
X126460323Y-70277263D01*
X126312657Y-70469706D01*
X126191367Y-70679785D01*
X126191363Y-70679794D01*
X126098537Y-70903895D01*
X126035751Y-71138214D01*
X126004090Y-71378711D01*
X110988500Y-71378711D01*
X110988500Y-64372870D01*
X111427500Y-64372870D01*
X111427500Y-64605129D01*
X111463831Y-64834514D01*
X111535601Y-65055400D01*
X111635002Y-65250483D01*
X111641039Y-65262331D01*
X111777551Y-65450224D01*
X111941776Y-65614449D01*
X112129669Y-65750961D01*
X112211961Y-65792891D01*
X112336599Y-65856398D01*
X112336601Y-65856398D01*
X112336604Y-65856400D01*
X112557486Y-65928169D01*
X112675668Y-65946886D01*
X112786871Y-65964500D01*
X112786876Y-65964500D01*
X113019129Y-65964500D01*
X113120502Y-65948443D01*
X113248514Y-65928169D01*
X113469396Y-65856400D01*
X113676331Y-65750961D01*
X113864224Y-65614449D01*
X114028449Y-65450224D01*
X114164961Y-65262331D01*
X114270400Y-65055396D01*
X114342169Y-64834514D01*
X114375781Y-64622293D01*
X114378500Y-64605129D01*
X114378500Y-64372870D01*
X114342169Y-64143485D01*
X114326459Y-64095135D01*
X114289854Y-63982479D01*
X114287860Y-63912642D01*
X114320103Y-63856485D01*
X118826729Y-59349860D01*
X118826733Y-59349858D01*
X118913858Y-59262733D01*
X118982311Y-59160286D01*
X118982312Y-59160285D01*
X119029463Y-59046451D01*
X119053500Y-58925607D01*
X119053500Y-58802393D01*
X119053500Y-58676519D01*
X119062143Y-58647082D01*
X119068667Y-58617093D01*
X119072422Y-58612075D01*
X119073185Y-58609480D01*
X119089813Y-58588843D01*
X119165321Y-58513335D01*
X119226640Y-58479853D01*
X119296332Y-58484837D01*
X119340680Y-58513338D01*
X119442811Y-58615469D01*
X119442813Y-58615470D01*
X119442815Y-58615472D01*
X119588394Y-58703478D01*
X119750804Y-58754086D01*
X119821384Y-58760500D01*
X119821387Y-58760500D01*
X120334613Y-58760500D01*
X120334616Y-58760500D01*
X120405196Y-58754086D01*
X120567606Y-58703478D01*
X120713185Y-58615472D01*
X120833472Y-58495185D01*
X120848486Y-58470349D01*
X120900014Y-58423162D01*
X120954602Y-58410500D01*
X122902157Y-58410500D01*
X122969196Y-58430185D01*
X123014951Y-58482989D01*
X123025515Y-58547103D01*
X123023500Y-58566819D01*
X123023500Y-58873047D01*
X123003815Y-58940086D01*
X122987181Y-58960728D01*
X120291144Y-61656764D01*
X120291138Y-61656772D01*
X120222690Y-61759208D01*
X120222688Y-61759213D01*
X120194373Y-61827573D01*
X120175538Y-61873043D01*
X120175538Y-61873045D01*
X120151500Y-61993896D01*
X120151500Y-63569533D01*
X120131815Y-63636572D01*
X120079011Y-63682327D01*
X120070836Y-63685714D01*
X120034665Y-63699205D01*
X119919455Y-63785452D01*
X119919452Y-63785455D01*
X119833206Y-63900664D01*
X119833202Y-63900671D01*
X119782908Y-64035517D01*
X119776501Y-64095116D01*
X119776500Y-64095135D01*
X119776500Y-65190870D01*
X119776501Y-65190876D01*
X119782908Y-65250483D01*
X119833202Y-65385328D01*
X119833206Y-65385335D01*
X119919452Y-65500544D01*
X119919455Y-65500547D01*
X120034664Y-65586793D01*
X120034671Y-65586797D01*
X120169517Y-65637091D01*
X120169516Y-65637091D01*
X120176444Y-65637835D01*
X120229127Y-65643500D01*
X121324872Y-65643499D01*
X121384483Y-65637091D01*
X121519331Y-65586796D01*
X121634546Y-65500546D01*
X121653233Y-65475582D01*
X121709166Y-65433711D01*
X121778858Y-65428727D01*
X121840181Y-65462212D01*
X121873666Y-65523535D01*
X121876500Y-65549893D01*
X121876500Y-66140870D01*
X121876501Y-66140876D01*
X121882908Y-66200483D01*
X121933202Y-66335328D01*
X121933206Y-66335335D01*
X122019452Y-66450544D01*
X122019455Y-66450547D01*
X122134664Y-66536793D01*
X122134671Y-66536797D01*
X122269517Y-66587091D01*
X122269516Y-66587091D01*
X122276444Y-66587835D01*
X122329127Y-66593500D01*
X123424872Y-66593499D01*
X123484483Y-66587091D01*
X123619331Y-66536796D01*
X123734546Y-66450546D01*
X123820796Y-66335331D01*
X123834285Y-66299166D01*
X123876157Y-66243233D01*
X123941621Y-66218816D01*
X123950467Y-66218500D01*
X125637138Y-66218500D01*
X125704177Y-66238185D01*
X125724819Y-66254819D01*
X126120601Y-66650601D01*
X126154086Y-66711924D01*
X126149102Y-66781616D01*
X126147481Y-66785735D01*
X126098537Y-66903895D01*
X126035751Y-67138214D01*
X126004090Y-67378711D01*
X126004090Y-67621288D01*
X126035751Y-67861785D01*
X126098537Y-68096104D01*
X126173576Y-68277263D01*
X126191366Y-68320212D01*
X126312654Y-68530289D01*
X126312656Y-68530292D01*
X126312657Y-68530293D01*
X126460323Y-68722736D01*
X126460329Y-68722743D01*
X126631846Y-68894260D01*
X126631853Y-68894266D01*
X126713712Y-68957078D01*
X126824301Y-69041936D01*
X127034378Y-69163224D01*
X127258490Y-69256054D01*
X127492801Y-69318838D01*
X127673176Y-69342584D01*
X127733301Y-69350500D01*
X127733302Y-69350500D01*
X127975879Y-69350500D01*
X128023978Y-69344167D01*
X128216379Y-69318838D01*
X128450690Y-69256054D01*
X128674802Y-69163224D01*
X128884879Y-69041936D01*
X129077328Y-68894265D01*
X129248855Y-68722738D01*
X129396526Y-68530289D01*
X129517814Y-68320212D01*
X129610644Y-68096100D01*
X129635316Y-68004023D01*
X129671680Y-67944365D01*
X129734527Y-67913836D01*
X129803903Y-67922131D01*
X129857780Y-67966616D01*
X129879055Y-68033168D01*
X129879090Y-68036119D01*
X129879090Y-68211606D01*
X129900692Y-68320212D01*
X129900693Y-68320215D01*
X129900692Y-68320215D01*
X129903125Y-68332445D01*
X129903126Y-68332448D01*
X129903127Y-68332451D01*
X129950278Y-68446286D01*
X129965931Y-68469711D01*
X130018732Y-68548733D01*
X130105857Y-68635858D01*
X130105860Y-68635860D01*
X130113914Y-68643914D01*
X130120601Y-68650601D01*
X130154086Y-68711924D01*
X130149102Y-68781616D01*
X130147481Y-68785735D01*
X130098537Y-68903895D01*
X130035751Y-69138214D01*
X130004090Y-69378711D01*
X130004090Y-69621288D01*
X130035751Y-69861785D01*
X130098537Y-70096104D01*
X130173576Y-70277263D01*
X130191366Y-70320212D01*
X130312654Y-70530289D01*
X130312656Y-70530292D01*
X130312657Y-70530293D01*
X130460323Y-70722736D01*
X130460329Y-70722743D01*
X130631846Y-70894260D01*
X130631853Y-70894266D01*
X130744911Y-70981018D01*
X130824301Y-71041936D01*
X131034378Y-71163224D01*
X131034383Y-71163226D01*
X131034389Y-71163229D01*
X131152542Y-71212169D01*
X131206946Y-71256009D01*
X131229011Y-71322303D01*
X131229090Y-71326730D01*
X131229090Y-71673268D01*
X131209405Y-71740307D01*
X131156601Y-71786062D01*
X131152544Y-71787829D01*
X131034377Y-71836776D01*
X131034370Y-71836779D01*
X130824296Y-71958067D01*
X130631853Y-72105733D01*
X130631846Y-72105739D01*
X130460329Y-72277256D01*
X130460323Y-72277263D01*
X130312657Y-72469706D01*
X130191367Y-72679785D01*
X130191363Y-72679794D01*
X130098537Y-72903895D01*
X130035751Y-73138214D01*
X130004090Y-73378711D01*
X130004090Y-73621288D01*
X130035751Y-73861785D01*
X130098537Y-74096104D01*
X130173576Y-74277263D01*
X130191366Y-74320212D01*
X130312654Y-74530289D01*
X130312656Y-74530292D01*
X130312657Y-74530293D01*
X130460323Y-74722736D01*
X130460329Y-74722743D01*
X130631846Y-74894260D01*
X130631853Y-74894266D01*
X130707876Y-74952600D01*
X130824301Y-75041936D01*
X131034378Y-75163224D01*
X131258490Y-75256054D01*
X131492801Y-75318838D01*
X131673176Y-75342584D01*
X131733301Y-75350500D01*
X131733302Y-75350500D01*
X131975879Y-75350500D01*
X132016247Y-75345185D01*
X132176885Y-75324037D01*
X132245919Y-75334803D01*
X132298175Y-75381183D01*
X132317060Y-75448451D01*
X132296579Y-75515252D01*
X132280750Y-75534657D01*
X126819269Y-80996140D01*
X126732144Y-81083264D01*
X126732138Y-81083272D01*
X126697914Y-81134489D01*
X126697915Y-81134490D01*
X126663691Y-81185708D01*
X126663689Y-81185712D01*
X126663688Y-81185714D01*
X126643817Y-81233689D01*
X126616538Y-81299545D01*
X126616535Y-81299555D01*
X126592500Y-81420389D01*
X126592500Y-88477000D01*
X126572815Y-88544039D01*
X126520011Y-88589794D01*
X126468500Y-88601000D01*
X126429000Y-88601000D01*
X126429000Y-89477000D01*
X126409315Y-89544039D01*
X126356511Y-89589794D01*
X126305000Y-89601000D01*
X126179000Y-89601000D01*
X126179000Y-89727000D01*
X126159315Y-89794039D01*
X126106511Y-89839794D01*
X126055000Y-89851000D01*
X125154070Y-89851000D01*
X125147648Y-89854506D01*
X125077956Y-89849516D01*
X125022032Y-89807649D01*
X124936546Y-89693454D01*
X124917557Y-89679239D01*
X124821334Y-89607205D01*
X124785164Y-89593714D01*
X124729231Y-89551841D01*
X124704816Y-89486376D01*
X124704500Y-89477533D01*
X124704500Y-89053155D01*
X125179000Y-89053155D01*
X125179000Y-89351000D01*
X125929000Y-89351000D01*
X125929000Y-88601000D01*
X125631155Y-88601000D01*
X125571627Y-88607401D01*
X125571620Y-88607403D01*
X125436913Y-88657645D01*
X125436906Y-88657649D01*
X125321812Y-88743809D01*
X125321809Y-88743812D01*
X125235649Y-88858906D01*
X125235645Y-88858913D01*
X125185403Y-88993620D01*
X125185401Y-88993627D01*
X125179000Y-89053155D01*
X124704500Y-89053155D01*
X124704500Y-88457393D01*
X124704499Y-88457389D01*
X124680464Y-88336555D01*
X124680463Y-88336548D01*
X124633311Y-88222714D01*
X124633310Y-88222713D01*
X124633307Y-88222707D01*
X124564858Y-88120267D01*
X124564855Y-88120263D01*
X124474637Y-88030045D01*
X124474606Y-88030016D01*
X121788819Y-85344229D01*
X121755334Y-85282906D01*
X121752500Y-85256548D01*
X121752500Y-84950331D01*
X121752499Y-84950318D01*
X121742436Y-84851816D01*
X121736909Y-84835137D01*
X121689549Y-84692213D01*
X121689545Y-84692207D01*
X121689544Y-84692204D01*
X121601283Y-84549112D01*
X121601280Y-84549108D01*
X121482391Y-84430219D01*
X121482387Y-84430216D01*
X121339295Y-84341955D01*
X121339289Y-84341952D01*
X121339287Y-84341951D01*
X121179685Y-84289064D01*
X121179683Y-84289063D01*
X121081181Y-84279000D01*
X121081174Y-84279000D01*
X120472826Y-84279000D01*
X120472818Y-84279000D01*
X120374316Y-84289063D01*
X120374312Y-84289064D01*
X120295503Y-84315179D01*
X120267043Y-84316157D01*
X120238853Y-84320211D01*
X120232572Y-84317342D01*
X120225675Y-84317580D01*
X120201206Y-84303018D01*
X120175297Y-84291186D01*
X120171564Y-84285377D01*
X120165633Y-84281848D01*
X120152919Y-84256365D01*
X120137523Y-84232408D01*
X120136128Y-84222710D01*
X120134441Y-84219328D01*
X120132500Y-84197473D01*
X120132500Y-84193452D01*
X120152185Y-84126413D01*
X120168819Y-84105771D01*
X120470771Y-83803819D01*
X120532094Y-83770334D01*
X120558452Y-83767500D01*
X120854613Y-83767500D01*
X120854616Y-83767500D01*
X120925196Y-83761086D01*
X121087606Y-83710478D01*
X121233185Y-83622472D01*
X121353472Y-83502185D01*
X121441478Y-83356606D01*
X121492086Y-83194196D01*
X121498500Y-83123616D01*
X121498500Y-83032844D01*
X123750000Y-83032844D01*
X123756401Y-83092372D01*
X123756403Y-83092379D01*
X123806645Y-83227086D01*
X123806649Y-83227093D01*
X123892809Y-83342187D01*
X123892812Y-83342190D01*
X124007906Y-83428350D01*
X124007913Y-83428354D01*
X124142620Y-83478596D01*
X124142627Y-83478598D01*
X124202155Y-83484999D01*
X124202172Y-83485000D01*
X124250000Y-83485000D01*
X124670000Y-83485000D01*
X124717828Y-83485000D01*
X124717844Y-83484999D01*
X124777372Y-83478598D01*
X124777379Y-83478596D01*
X124912086Y-83428354D01*
X124912093Y-83428350D01*
X125027187Y-83342190D01*
X125027190Y-83342187D01*
X125113350Y-83227093D01*
X125113354Y-83227086D01*
X125163596Y-83092379D01*
X125163598Y-83092372D01*
X125169999Y-83032844D01*
X125170000Y-83032827D01*
X125170000Y-82875000D01*
X124670000Y-82875000D01*
X124670000Y-83485000D01*
X124250000Y-83485000D01*
X124250000Y-82875000D01*
X123750000Y-82875000D01*
X123750000Y-83032844D01*
X121498500Y-83032844D01*
X121498500Y-82610384D01*
X121492086Y-82539804D01*
X121441478Y-82377394D01*
X121353472Y-82231815D01*
X121353470Y-82231813D01*
X121353469Y-82231811D01*
X121251339Y-82129681D01*
X121217854Y-82068358D01*
X121222838Y-81998666D01*
X121251339Y-81954319D01*
X121353468Y-81852189D01*
X121353469Y-81852188D01*
X121353472Y-81852185D01*
X121441478Y-81706606D01*
X121492086Y-81544196D01*
X121498500Y-81473616D01*
X121498500Y-80960384D01*
X121492086Y-80889804D01*
X121441478Y-80727394D01*
X121353472Y-80581815D01*
X121353470Y-80581813D01*
X121353469Y-80581811D01*
X121233188Y-80461530D01*
X121087606Y-80373522D01*
X120925196Y-80322914D01*
X120925194Y-80322913D01*
X120925192Y-80322913D01*
X120875778Y-80318423D01*
X120854616Y-80316500D01*
X120191384Y-80316500D01*
X120172145Y-80318248D01*
X120120807Y-80322913D01*
X119958393Y-80373522D01*
X119812811Y-80461530D01*
X119812810Y-80461531D01*
X119719161Y-80555181D01*
X119657838Y-80588666D01*
X119631480Y-80591500D01*
X117191606Y-80591500D01*
X117068393Y-80591500D01*
X117012242Y-80602669D01*
X117012241Y-80602668D01*
X116947555Y-80615535D01*
X116947545Y-80615538D01*
X116833716Y-80662687D01*
X116833707Y-80662692D01*
X116731268Y-80731140D01*
X116705055Y-80757354D01*
X116644142Y-80818267D01*
X116644139Y-80818270D01*
X114984039Y-82478369D01*
X114922716Y-82511854D01*
X114858041Y-82508619D01*
X114772521Y-82480832D01*
X114772514Y-82480831D01*
X114543129Y-82444500D01*
X114543124Y-82444500D01*
X114310876Y-82444500D01*
X114310871Y-82444500D01*
X114081485Y-82480831D01*
X113860599Y-82552601D01*
X113653668Y-82658039D01*
X113465773Y-82794553D01*
X113301553Y-82958773D01*
X113165039Y-83146668D01*
X113059601Y-83353599D01*
X112987831Y-83574485D01*
X112951500Y-83803870D01*
X112951500Y-84036129D01*
X112987831Y-84265514D01*
X113059601Y-84486400D01*
X113164465Y-84692204D01*
X113165039Y-84693331D01*
X113301551Y-84881224D01*
X113465776Y-85045449D01*
X113653669Y-85181961D01*
X113751436Y-85231776D01*
X113860599Y-85287398D01*
X113860601Y-85287398D01*
X113860604Y-85287400D01*
X114081486Y-85359169D01*
X114199668Y-85377886D01*
X114310871Y-85395500D01*
X114310876Y-85395500D01*
X114543129Y-85395500D01*
X114644502Y-85379443D01*
X114772514Y-85359169D01*
X114993396Y-85287400D01*
X115200331Y-85181961D01*
X115388224Y-85045449D01*
X115552449Y-84881224D01*
X115688961Y-84693331D01*
X115794400Y-84486396D01*
X115866169Y-84265514D01*
X115891469Y-84105771D01*
X115902500Y-84036129D01*
X115902500Y-83803870D01*
X115866169Y-83574485D01*
X115838379Y-83488959D01*
X115836384Y-83419118D01*
X115868627Y-83362961D01*
X117352771Y-81878819D01*
X117414094Y-81845334D01*
X117440452Y-81842500D01*
X119631480Y-81842500D01*
X119660920Y-81851144D01*
X119690907Y-81857668D01*
X119695922Y-81861422D01*
X119698519Y-81862185D01*
X119719161Y-81878819D01*
X119794661Y-81954319D01*
X119828146Y-82015642D01*
X119823162Y-82085334D01*
X119794661Y-82129681D01*
X119692531Y-82231810D01*
X119692530Y-82231811D01*
X119604522Y-82377393D01*
X119553913Y-82539807D01*
X119547500Y-82610386D01*
X119547500Y-82906547D01*
X119527815Y-82973586D01*
X119511181Y-82994228D01*
X119021144Y-83484264D01*
X119021138Y-83484272D01*
X118952690Y-83586708D01*
X118952689Y-83586710D01*
X118926229Y-83650590D01*
X118926230Y-83650591D01*
X118905536Y-83700549D01*
X118905535Y-83700555D01*
X118881500Y-83821389D01*
X118881500Y-85583611D01*
X118905535Y-85704444D01*
X118905540Y-85704461D01*
X118952685Y-85818281D01*
X118952687Y-85818284D01*
X118952688Y-85818286D01*
X118976552Y-85854000D01*
X119021142Y-85920733D01*
X119108267Y-86007858D01*
X119108270Y-86007860D01*
X119116011Y-86015601D01*
X119765181Y-86664771D01*
X119798666Y-86726094D01*
X119801500Y-86752452D01*
X119801500Y-87058681D01*
X119811563Y-87157183D01*
X119864450Y-87316784D01*
X119864455Y-87316795D01*
X119952716Y-87459887D01*
X119952719Y-87459891D01*
X120071608Y-87578780D01*
X120071612Y-87578783D01*
X120214704Y-87667044D01*
X120214707Y-87667045D01*
X120214713Y-87667049D01*
X120374315Y-87719936D01*
X120472826Y-87730000D01*
X120472831Y-87730000D01*
X121081169Y-87730000D01*
X121081174Y-87730000D01*
X121179685Y-87719936D01*
X121339287Y-87667049D01*
X121482391Y-87578781D01*
X121601281Y-87459891D01*
X121689549Y-87316787D01*
X121701641Y-87280294D01*
X121741414Y-87222850D01*
X121805930Y-87196027D01*
X121874706Y-87208342D01*
X121907028Y-87231618D01*
X123417181Y-88741771D01*
X123450666Y-88803094D01*
X123453500Y-88829452D01*
X123453500Y-89477533D01*
X123433815Y-89544572D01*
X123381011Y-89590327D01*
X123372836Y-89593714D01*
X123336665Y-89607205D01*
X123221455Y-89693452D01*
X123221452Y-89693455D01*
X123135206Y-89808664D01*
X123135202Y-89808671D01*
X123084908Y-89943517D01*
X123078501Y-90003116D01*
X123078500Y-90003135D01*
X123078500Y-91098870D01*
X123078501Y-91098876D01*
X123084908Y-91158483D01*
X123135202Y-91293328D01*
X123135206Y-91293335D01*
X123221452Y-91408544D01*
X123221455Y-91408547D01*
X123336664Y-91494793D01*
X123336671Y-91494797D01*
X123471517Y-91545091D01*
X123471516Y-91545091D01*
X123478444Y-91545835D01*
X123531127Y-91551500D01*
X124626872Y-91551499D01*
X124686483Y-91545091D01*
X124821331Y-91494796D01*
X124936546Y-91408546D01*
X124955233Y-91383582D01*
X125011166Y-91341711D01*
X125080858Y-91336727D01*
X125142181Y-91370212D01*
X125175666Y-91431535D01*
X125178500Y-91457893D01*
X125178500Y-92048870D01*
X125178501Y-92048876D01*
X125184908Y-92108483D01*
X125235202Y-92243328D01*
X125235206Y-92243335D01*
X125321452Y-92358544D01*
X125321455Y-92358547D01*
X125436664Y-92444793D01*
X125436671Y-92444797D01*
X125571517Y-92495091D01*
X125571516Y-92495091D01*
X125578444Y-92495835D01*
X125631127Y-92501500D01*
X126726872Y-92501499D01*
X126786483Y-92495091D01*
X126921331Y-92444796D01*
X127036546Y-92358546D01*
X127122796Y-92243331D01*
X127173091Y-92108483D01*
X127179500Y-92048873D01*
X127179499Y-91436450D01*
X127199183Y-91369412D01*
X127215813Y-91348775D01*
X127616729Y-90947860D01*
X127616733Y-90947858D01*
X127703858Y-90860733D01*
X127772311Y-90758286D01*
X127772312Y-90758285D01*
X127819463Y-90644451D01*
X127819662Y-90643454D01*
X127832174Y-90580546D01*
X127843500Y-90523607D01*
X127843500Y-90400393D01*
X127843500Y-87275155D01*
X132545000Y-87275155D01*
X132545000Y-87573000D01*
X133295000Y-87573000D01*
X133295000Y-86823000D01*
X132997155Y-86823000D01*
X132937627Y-86829401D01*
X132937620Y-86829403D01*
X132802913Y-86879645D01*
X132802906Y-86879649D01*
X132687812Y-86965809D01*
X132687809Y-86965812D01*
X132601649Y-87080906D01*
X132601645Y-87080913D01*
X132551403Y-87215620D01*
X132551401Y-87215627D01*
X132545000Y-87275155D01*
X127843500Y-87275155D01*
X127843500Y-81792452D01*
X127863185Y-81725413D01*
X127879819Y-81704771D01*
X128194402Y-81390188D01*
X130679090Y-81390188D01*
X130679090Y-81609811D01*
X130679091Y-81609828D01*
X130707757Y-81827573D01*
X130764604Y-82039729D01*
X130846576Y-82237627D01*
X130848655Y-82242645D01*
X130958474Y-82432855D01*
X130958479Y-82432861D01*
X130958480Y-82432863D01*
X131092178Y-82607102D01*
X131092184Y-82607109D01*
X131247480Y-82762405D01*
X131247487Y-82762411D01*
X131371567Y-82857621D01*
X131421735Y-82896116D01*
X131611945Y-83005935D01*
X131713404Y-83047960D01*
X131814860Y-83089985D01*
X131814861Y-83089985D01*
X131814863Y-83089986D01*
X132027015Y-83146832D01*
X132244772Y-83175500D01*
X132244779Y-83175500D01*
X132464401Y-83175500D01*
X132464408Y-83175500D01*
X132682165Y-83146832D01*
X132894317Y-83089986D01*
X133097235Y-83005935D01*
X133287445Y-82896116D01*
X133461694Y-82762410D01*
X133617000Y-82607104D01*
X133750706Y-82432855D01*
X133860525Y-82242645D01*
X133944576Y-82039727D01*
X134001422Y-81827575D01*
X134030090Y-81609818D01*
X134030090Y-81390182D01*
X134001422Y-81172425D01*
X133944576Y-80960273D01*
X133860525Y-80757355D01*
X133750706Y-80567145D01*
X133617000Y-80392896D01*
X133616995Y-80392890D01*
X133461699Y-80237594D01*
X133461692Y-80237588D01*
X133287453Y-80103890D01*
X133287451Y-80103889D01*
X133287445Y-80103884D01*
X133097235Y-79994065D01*
X133097231Y-79994063D01*
X132894319Y-79910014D01*
X132682163Y-79853167D01*
X132464418Y-79824501D01*
X132464413Y-79824500D01*
X132464408Y-79824500D01*
X132244772Y-79824500D01*
X132244766Y-79824500D01*
X132244761Y-79824501D01*
X132027016Y-79853167D01*
X131814860Y-79910014D01*
X131611948Y-79994063D01*
X131611944Y-79994065D01*
X131421735Y-80103884D01*
X131421726Y-80103890D01*
X131247487Y-80237588D01*
X131247480Y-80237594D01*
X131092184Y-80392890D01*
X131092178Y-80392897D01*
X130958480Y-80567136D01*
X130958474Y-80567145D01*
X130848655Y-80757354D01*
X130848653Y-80757358D01*
X130764604Y-80960270D01*
X130707757Y-81172426D01*
X130679091Y-81390171D01*
X130679090Y-81390188D01*
X128194402Y-81390188D01*
X128286148Y-81298442D01*
X133422772Y-76161819D01*
X133484095Y-76128334D01*
X133510453Y-76125500D01*
X134027860Y-76125500D01*
X134094899Y-76145185D01*
X134140654Y-76197989D01*
X134142421Y-76202048D01*
X134191360Y-76320200D01*
X134191363Y-76320205D01*
X134191366Y-76320212D01*
X134312654Y-76530289D01*
X134312656Y-76530292D01*
X134312657Y-76530293D01*
X134460323Y-76722736D01*
X134460329Y-76722743D01*
X134631846Y-76894260D01*
X134631853Y-76894266D01*
X134698623Y-76945500D01*
X134824301Y-77041936D01*
X135034378Y-77163224D01*
X135258490Y-77256054D01*
X135492801Y-77318838D01*
X135673176Y-77342584D01*
X135733301Y-77350500D01*
X135733302Y-77350500D01*
X135975879Y-77350500D01*
X136033819Y-77342872D01*
X136216379Y-77318838D01*
X136450690Y-77256054D01*
X136674802Y-77163224D01*
X136884879Y-77041936D01*
X137077328Y-76894265D01*
X137077333Y-76894260D01*
X137084819Y-76886775D01*
X137146142Y-76853290D01*
X137215834Y-76858274D01*
X137271767Y-76900146D01*
X137296184Y-76965610D01*
X137296500Y-76974456D01*
X137296500Y-85035547D01*
X137276815Y-85102586D01*
X137260181Y-85123228D01*
X134756681Y-87626728D01*
X134695358Y-87660213D01*
X134625666Y-87655229D01*
X134569733Y-87613357D01*
X134545316Y-87547893D01*
X134545000Y-87539047D01*
X134545000Y-87275172D01*
X134544999Y-87275155D01*
X134538598Y-87215627D01*
X134538596Y-87215620D01*
X134488354Y-87080913D01*
X134488350Y-87080906D01*
X134402190Y-86965812D01*
X134402187Y-86965809D01*
X134287093Y-86879649D01*
X134287086Y-86879645D01*
X134152379Y-86829403D01*
X134152372Y-86829401D01*
X134092844Y-86823000D01*
X133795000Y-86823000D01*
X133795000Y-87699000D01*
X133775315Y-87766039D01*
X133722511Y-87811794D01*
X133671000Y-87823000D01*
X133545000Y-87823000D01*
X133545000Y-87949000D01*
X133525315Y-88016039D01*
X133472511Y-88061794D01*
X133421000Y-88073000D01*
X132520070Y-88073000D01*
X132513648Y-88076506D01*
X132443956Y-88071516D01*
X132388032Y-88029649D01*
X132302546Y-87915454D01*
X132279709Y-87898358D01*
X132187335Y-87829206D01*
X132187328Y-87829202D01*
X132052482Y-87778908D01*
X132052483Y-87778908D01*
X131992883Y-87772501D01*
X131992881Y-87772500D01*
X131992873Y-87772500D01*
X131992864Y-87772500D01*
X130897129Y-87772500D01*
X130897123Y-87772501D01*
X130837516Y-87778908D01*
X130702671Y-87829202D01*
X130702664Y-87829206D01*
X130587455Y-87915452D01*
X130587452Y-87915455D01*
X130501206Y-88030664D01*
X130501202Y-88030671D01*
X130450908Y-88165517D01*
X130444501Y-88225116D01*
X130444500Y-88225135D01*
X130444500Y-89320870D01*
X130444501Y-89320876D01*
X130450908Y-89380483D01*
X130501202Y-89515328D01*
X130501206Y-89515335D01*
X130587452Y-89630544D01*
X130587455Y-89630547D01*
X130702664Y-89716793D01*
X130702671Y-89716797D01*
X130730027Y-89727000D01*
X130837517Y-89767091D01*
X130897127Y-89773500D01*
X131049546Y-89773499D01*
X131116586Y-89793183D01*
X131137228Y-89809818D01*
X134640229Y-93312819D01*
X134673714Y-93374142D01*
X134668730Y-93443834D01*
X134626858Y-93499767D01*
X134561394Y-93524184D01*
X134552548Y-93524500D01*
X134315818Y-93524500D01*
X134217316Y-93534563D01*
X134217315Y-93534564D01*
X134138219Y-93560773D01*
X134057715Y-93587450D01*
X134057704Y-93587455D01*
X133914612Y-93675716D01*
X133914608Y-93675719D01*
X133790612Y-93799716D01*
X133788528Y-93797632D01*
X133742416Y-93830286D01*
X133702168Y-93837000D01*
X130903952Y-93837000D01*
X130836913Y-93817315D01*
X130816271Y-93800681D01*
X130551819Y-93536229D01*
X130518334Y-93474906D01*
X130515500Y-93448548D01*
X130515500Y-93152386D01*
X130513779Y-93133446D01*
X130509086Y-93081804D01*
X130458478Y-92919394D01*
X130370472Y-92773815D01*
X130370470Y-92773813D01*
X130370469Y-92773811D01*
X130250188Y-92653530D01*
X130249617Y-92653185D01*
X130104606Y-92565522D01*
X129942196Y-92514914D01*
X129942194Y-92514913D01*
X129942192Y-92514913D01*
X129892778Y-92510423D01*
X129871616Y-92508500D01*
X129208384Y-92508500D01*
X129189145Y-92510248D01*
X129137807Y-92514913D01*
X128975393Y-92565522D01*
X128829811Y-92653530D01*
X128709530Y-92773811D01*
X128621522Y-92919393D01*
X128570913Y-93081807D01*
X128564500Y-93152386D01*
X128564500Y-93665613D01*
X128570913Y-93736192D01*
X128570913Y-93736194D01*
X128570914Y-93736196D01*
X128621522Y-93898606D01*
X128645133Y-93937664D01*
X128709530Y-94044188D01*
X128811661Y-94146319D01*
X128845146Y-94207642D01*
X128840162Y-94277334D01*
X128811661Y-94321681D01*
X128709531Y-94423810D01*
X128709530Y-94423811D01*
X128621522Y-94569393D01*
X128570913Y-94731807D01*
X128564500Y-94802386D01*
X128564500Y-95098548D01*
X128544815Y-95165587D01*
X128528181Y-95186229D01*
X124868229Y-98846181D01*
X124806906Y-98879666D01*
X124780548Y-98882500D01*
X117345894Y-98882500D01*
X117278855Y-98862815D01*
X117245576Y-98831386D01*
X117227909Y-98807069D01*
X117111449Y-98646776D01*
X116947224Y-98482551D01*
X116759331Y-98346039D01*
X116552400Y-98240601D01*
X116331514Y-98168831D01*
X116102129Y-98132500D01*
X116102124Y-98132500D01*
X115869876Y-98132500D01*
X115869871Y-98132500D01*
X115640485Y-98168831D01*
X115419599Y-98240601D01*
X115212668Y-98346039D01*
X115024773Y-98482553D01*
X114860553Y-98646773D01*
X114724039Y-98834668D01*
X114618601Y-99041599D01*
X114546831Y-99262485D01*
X114510500Y-99491870D01*
X114510500Y-99724129D01*
X114546831Y-99953514D01*
X114618601Y-100174400D01*
X114724039Y-100381331D01*
X114860551Y-100569224D01*
X115024776Y-100733449D01*
X115212669Y-100869961D01*
X115310436Y-100919776D01*
X115419599Y-100975398D01*
X115419601Y-100975398D01*
X115419604Y-100975400D01*
X115640486Y-101047169D01*
X115758668Y-101065886D01*
X115869871Y-101083500D01*
X115869876Y-101083500D01*
X116102129Y-101083500D01*
X116203502Y-101067443D01*
X116331514Y-101047169D01*
X116552396Y-100975400D01*
X116759331Y-100869961D01*
X116947224Y-100733449D01*
X117111449Y-100569224D01*
X117247961Y-100381331D01*
X117339740Y-100201204D01*
X117387715Y-100150409D01*
X117450225Y-100133500D01*
X125152607Y-100133500D01*
X125213029Y-100121481D01*
X125273452Y-100109463D01*
X125306792Y-100095652D01*
X125387286Y-100062312D01*
X125438509Y-100028084D01*
X125489733Y-99993858D01*
X125576858Y-99906733D01*
X125576859Y-99906731D01*
X125583925Y-99899665D01*
X125583927Y-99899661D01*
X129487771Y-95995819D01*
X129549094Y-95962334D01*
X129575452Y-95959500D01*
X129871613Y-95959500D01*
X129871616Y-95959500D01*
X129942196Y-95953086D01*
X130104606Y-95902478D01*
X130250185Y-95814472D01*
X130370472Y-95694185D01*
X130458478Y-95548606D01*
X130509086Y-95386196D01*
X130515500Y-95315616D01*
X130515500Y-95212000D01*
X130535185Y-95144961D01*
X130587989Y-95099206D01*
X130639500Y-95088000D01*
X133702168Y-95088000D01*
X133731762Y-95096690D01*
X133761885Y-95103327D01*
X133765883Y-95106708D01*
X133769207Y-95107685D01*
X133790083Y-95124553D01*
X133795439Y-95129938D01*
X133795719Y-95130391D01*
X133827881Y-95162553D01*
X133844530Y-95193237D01*
X133861132Y-95223642D01*
X133861119Y-95223813D01*
X133861202Y-95223965D01*
X133858628Y-95258654D01*
X133856148Y-95293334D01*
X133856042Y-95293497D01*
X133856032Y-95293643D01*
X133855467Y-95294393D01*
X133827647Y-95337681D01*
X133795719Y-95369608D01*
X133795716Y-95369612D01*
X133707455Y-95512704D01*
X133707451Y-95512713D01*
X133654564Y-95672315D01*
X133654564Y-95672316D01*
X133654563Y-95672316D01*
X133644500Y-95770818D01*
X133644500Y-96304181D01*
X133654563Y-96402683D01*
X133707450Y-96562284D01*
X133707455Y-96562295D01*
X133795716Y-96705387D01*
X133795719Y-96705391D01*
X133914608Y-96824280D01*
X133914612Y-96824283D01*
X134057704Y-96912544D01*
X134057707Y-96912545D01*
X134057713Y-96912549D01*
X134217315Y-96965436D01*
X134315826Y-96975500D01*
X134315831Y-96975500D01*
X134924169Y-96975500D01*
X134924174Y-96975500D01*
X135022685Y-96965436D01*
X135182287Y-96912549D01*
X135325391Y-96824281D01*
X135444281Y-96705391D01*
X135492129Y-96627816D01*
X135499625Y-96620042D01*
X135502516Y-96613402D01*
X135528768Y-96589818D01*
X135577009Y-96557584D01*
X135628233Y-96523358D01*
X135715358Y-96436233D01*
X135715359Y-96436231D01*
X135722425Y-96429165D01*
X135722428Y-96429161D01*
X136161729Y-95989860D01*
X136161733Y-95989858D01*
X136248858Y-95902733D01*
X136317311Y-95800286D01*
X136317312Y-95800285D01*
X136317313Y-95800282D01*
X136317315Y-95800279D01*
X136329517Y-95770818D01*
X136364463Y-95686451D01*
X136388500Y-95565607D01*
X136388500Y-95442393D01*
X136388500Y-93489394D01*
X136387327Y-93483499D01*
X136364463Y-93368549D01*
X136323626Y-93269960D01*
X136317314Y-93254720D01*
X136317307Y-93254707D01*
X136248858Y-93152267D01*
X136248855Y-93152263D01*
X136158637Y-93062045D01*
X136158606Y-93062016D01*
X134029835Y-90933245D01*
X133996350Y-90871922D01*
X134001334Y-90802230D01*
X134043206Y-90746297D01*
X134104262Y-90722274D01*
X134152483Y-90717091D01*
X134287331Y-90666796D01*
X134402546Y-90580546D01*
X134488796Y-90465331D01*
X134539091Y-90330483D01*
X134545500Y-90270873D01*
X134545499Y-89658450D01*
X134565183Y-89591412D01*
X134581813Y-89570775D01*
X138320729Y-85831860D01*
X138320733Y-85831858D01*
X138407858Y-85744733D01*
X138476311Y-85642286D01*
X138476312Y-85642285D01*
X138476313Y-85642282D01*
X138476315Y-85642279D01*
X138476315Y-85642277D01*
X138523461Y-85528455D01*
X138523463Y-85528451D01*
X138526480Y-85513286D01*
X138547500Y-85407606D01*
X138547500Y-81726394D01*
X138547500Y-73505804D01*
X138523463Y-73384958D01*
X138476311Y-73271124D01*
X138476310Y-73271123D01*
X138476307Y-73271117D01*
X138407858Y-73168677D01*
X138407855Y-73168673D01*
X138317637Y-73078455D01*
X138317606Y-73078426D01*
X137588578Y-72349398D01*
X137555093Y-72288075D01*
X137560077Y-72218383D01*
X137561698Y-72214264D01*
X137569929Y-72194393D01*
X137610644Y-72096100D01*
X137673428Y-71861789D01*
X137705090Y-71621288D01*
X137705090Y-71378712D01*
X137673428Y-71138211D01*
X137610644Y-70903900D01*
X137606653Y-70894266D01*
X137535604Y-70722738D01*
X137517814Y-70679788D01*
X137396526Y-70469711D01*
X137248855Y-70277262D01*
X137248850Y-70277256D01*
X137077333Y-70105739D01*
X137077326Y-70105733D01*
X136884883Y-69958067D01*
X136884882Y-69958066D01*
X136884879Y-69958064D01*
X136674802Y-69836776D01*
X136674795Y-69836773D01*
X136450694Y-69743947D01*
X136216375Y-69681161D01*
X135975879Y-69649500D01*
X135975878Y-69649500D01*
X135733302Y-69649500D01*
X135733301Y-69649500D01*
X135492804Y-69681161D01*
X135258485Y-69743947D01*
X135034384Y-69836773D01*
X135034375Y-69836777D01*
X134824296Y-69958067D01*
X134631853Y-70105733D01*
X134631846Y-70105739D01*
X134460329Y-70277256D01*
X134460323Y-70277263D01*
X134312657Y-70469706D01*
X134191367Y-70679785D01*
X134191363Y-70679794D01*
X134098537Y-70903895D01*
X134035751Y-71138214D01*
X134004090Y-71378711D01*
X134004090Y-71621288D01*
X134035751Y-71861785D01*
X134098537Y-72096104D01*
X134173576Y-72277263D01*
X134191366Y-72320212D01*
X134312654Y-72530289D01*
X134312656Y-72530292D01*
X134312657Y-72530293D01*
X134460323Y-72722736D01*
X134460329Y-72722743D01*
X134631846Y-72894260D01*
X134631853Y-72894266D01*
X134744911Y-72981018D01*
X134824301Y-73041936D01*
X135034378Y-73163224D01*
X135258490Y-73256054D01*
X135492801Y-73318838D01*
X135673176Y-73342584D01*
X135733301Y-73350500D01*
X135733302Y-73350500D01*
X135975879Y-73350500D01*
X136023978Y-73344167D01*
X136216379Y-73318838D01*
X136450690Y-73256054D01*
X136568854Y-73207107D01*
X136638323Y-73199639D01*
X136700802Y-73230914D01*
X136703988Y-73233988D01*
X137260181Y-73790181D01*
X137274884Y-73817108D01*
X137291477Y-73842927D01*
X137292368Y-73849127D01*
X137293666Y-73851504D01*
X137296500Y-73877862D01*
X137296500Y-74025544D01*
X137276815Y-74092583D01*
X137224011Y-74138338D01*
X137154853Y-74148282D01*
X137091297Y-74119257D01*
X137084819Y-74113225D01*
X137077333Y-74105739D01*
X137077326Y-74105733D01*
X136884883Y-73958067D01*
X136884882Y-73958066D01*
X136884879Y-73958064D01*
X136674802Y-73836776D01*
X136674795Y-73836773D01*
X136450694Y-73743947D01*
X136216375Y-73681161D01*
X135975879Y-73649500D01*
X135975878Y-73649500D01*
X135733302Y-73649500D01*
X135733301Y-73649500D01*
X135492804Y-73681161D01*
X135258485Y-73743947D01*
X135034384Y-73836773D01*
X135034375Y-73836777D01*
X134824296Y-73958067D01*
X134631853Y-74105733D01*
X134631846Y-74105739D01*
X134460329Y-74277256D01*
X134460323Y-74277263D01*
X134312657Y-74469706D01*
X134191367Y-74679785D01*
X134191360Y-74679799D01*
X134142421Y-74797952D01*
X134098581Y-74852356D01*
X134032287Y-74874421D01*
X134027860Y-74874500D01*
X133383851Y-74874500D01*
X133316812Y-74854815D01*
X133271057Y-74802011D01*
X133261113Y-74732853D01*
X133285475Y-74675014D01*
X133306061Y-74648186D01*
X133396526Y-74530289D01*
X133517814Y-74320212D01*
X133610644Y-74096100D01*
X133673428Y-73861789D01*
X133705090Y-73621288D01*
X133705090Y-73378712D01*
X133673428Y-73138211D01*
X133610644Y-72903900D01*
X133606653Y-72894266D01*
X133535604Y-72722738D01*
X133517814Y-72679788D01*
X133396526Y-72469711D01*
X133279813Y-72317607D01*
X133248856Y-72277263D01*
X133248850Y-72277256D01*
X133077333Y-72105739D01*
X133077326Y-72105733D01*
X132884883Y-71958067D01*
X132884882Y-71958066D01*
X132884879Y-71958064D01*
X132801122Y-71909707D01*
X132674809Y-71836779D01*
X132674802Y-71836776D01*
X132556636Y-71787829D01*
X132502233Y-71743987D01*
X132480169Y-71677693D01*
X132480090Y-71673268D01*
X132480090Y-71326730D01*
X132499775Y-71259691D01*
X132552579Y-71213936D01*
X132556638Y-71212169D01*
X132674790Y-71163229D01*
X132674790Y-71163228D01*
X132674802Y-71163224D01*
X132884879Y-71041936D01*
X133077328Y-70894265D01*
X133248855Y-70722738D01*
X133396526Y-70530289D01*
X133517814Y-70320212D01*
X133610644Y-70096100D01*
X133673428Y-69861789D01*
X133705090Y-69621288D01*
X133705090Y-69378712D01*
X133673428Y-69138211D01*
X133610644Y-68903900D01*
X133606653Y-68894266D01*
X133598785Y-68875269D01*
X133517814Y-68679788D01*
X133396526Y-68469711D01*
X133248855Y-68277262D01*
X133248850Y-68277256D01*
X133077333Y-68105739D01*
X133077326Y-68105733D01*
X132884883Y-67958067D01*
X132884882Y-67958066D01*
X132884879Y-67958064D01*
X132674802Y-67836776D01*
X132674795Y-67836773D01*
X132450694Y-67743947D01*
X132216375Y-67681161D01*
X131975879Y-67649500D01*
X131975878Y-67649500D01*
X131733302Y-67649500D01*
X131733301Y-67649500D01*
X131492802Y-67681161D01*
X131286183Y-67736525D01*
X131261188Y-67735929D01*
X131236443Y-67739488D01*
X131226862Y-67735112D01*
X131216333Y-67734862D01*
X131195629Y-67720849D01*
X131172887Y-67710463D01*
X131167192Y-67701601D01*
X131158471Y-67695699D01*
X131148629Y-67672718D01*
X131135113Y-67651685D01*
X131132833Y-67635829D01*
X131130967Y-67631471D01*
X131130090Y-67616750D01*
X131130090Y-67378751D01*
X134004590Y-67378751D01*
X134004590Y-67621248D01*
X134004591Y-67621264D01*
X134036243Y-67861687D01*
X134099011Y-68095939D01*
X134191810Y-68319978D01*
X134191817Y-68319992D01*
X134313071Y-68530010D01*
X134381651Y-68619384D01*
X135046087Y-67954947D01*
X135136095Y-68089653D01*
X135264937Y-68218495D01*
X135399640Y-68308501D01*
X134735204Y-68972936D01*
X134735204Y-68972937D01*
X134824579Y-69041517D01*
X134824586Y-69041522D01*
X135034597Y-69162772D01*
X135034611Y-69162779D01*
X135258650Y-69255578D01*
X135492902Y-69318346D01*
X135733325Y-69349998D01*
X135733342Y-69350000D01*
X135975838Y-69350000D01*
X135975854Y-69349998D01*
X136216277Y-69318346D01*
X136450529Y-69255578D01*
X136674568Y-69162779D01*
X136674582Y-69162772D01*
X136884606Y-69041515D01*
X136973974Y-68972939D01*
X136973974Y-68972936D01*
X136309538Y-68308501D01*
X136444243Y-68218495D01*
X136573085Y-68089653D01*
X136663091Y-67954948D01*
X137327526Y-68619384D01*
X137327529Y-68619384D01*
X137396105Y-68530016D01*
X137517362Y-68319992D01*
X137517369Y-68319978D01*
X137610168Y-68095939D01*
X137672936Y-67861687D01*
X137704588Y-67621264D01*
X137704590Y-67621248D01*
X137704590Y-67378751D01*
X137704588Y-67378735D01*
X137672936Y-67138312D01*
X137610168Y-66904060D01*
X137517369Y-66680021D01*
X137517362Y-66680007D01*
X137396112Y-66469996D01*
X137396107Y-66469989D01*
X137327527Y-66380614D01*
X137327526Y-66380614D01*
X136663091Y-67045050D01*
X136573085Y-66910347D01*
X136444243Y-66781505D01*
X136309537Y-66691497D01*
X136973974Y-66027061D01*
X136884600Y-65958481D01*
X136674582Y-65837227D01*
X136674568Y-65837220D01*
X136450529Y-65744421D01*
X136216277Y-65681653D01*
X135975854Y-65650001D01*
X135975838Y-65650000D01*
X135733342Y-65650000D01*
X135733325Y-65650001D01*
X135492902Y-65681653D01*
X135258650Y-65744421D01*
X135034611Y-65837220D01*
X135034596Y-65837227D01*
X134824580Y-65958480D01*
X134735204Y-66027060D01*
X134735204Y-66027061D01*
X135399641Y-66691498D01*
X135264937Y-66781505D01*
X135136095Y-66910347D01*
X135046088Y-67045051D01*
X134381651Y-66380614D01*
X134381650Y-66380614D01*
X134313070Y-66469990D01*
X134191817Y-66680006D01*
X134191810Y-66680021D01*
X134099011Y-66904060D01*
X134036243Y-67138312D01*
X134004591Y-67378735D01*
X134004590Y-67378751D01*
X131130090Y-67378751D01*
X131130090Y-62923776D01*
X131149775Y-62856737D01*
X131202579Y-62810982D01*
X131271737Y-62801038D01*
X131329576Y-62825400D01*
X131421735Y-62896116D01*
X131611945Y-63005935D01*
X131630209Y-63013500D01*
X131814860Y-63089985D01*
X131814861Y-63089985D01*
X131814863Y-63089986D01*
X132027015Y-63146832D01*
X132244772Y-63175500D01*
X132244779Y-63175500D01*
X132464401Y-63175500D01*
X132464408Y-63175500D01*
X132682165Y-63146832D01*
X132894317Y-63089986D01*
X133097235Y-63005935D01*
X133287445Y-62896116D01*
X133461694Y-62762410D01*
X133617000Y-62607104D01*
X133750706Y-62432855D01*
X133860525Y-62242645D01*
X133944576Y-62039727D01*
X134001422Y-61827575D01*
X134030090Y-61609818D01*
X134030090Y-61390182D01*
X134001422Y-61172425D01*
X133944576Y-60960273D01*
X133860525Y-60757355D01*
X133750706Y-60567145D01*
X133617000Y-60392896D01*
X133616995Y-60392890D01*
X133461699Y-60237594D01*
X133461692Y-60237588D01*
X133287453Y-60103890D01*
X133287451Y-60103889D01*
X133287445Y-60103884D01*
X133097235Y-59994065D01*
X133097231Y-59994063D01*
X132894319Y-59910014D01*
X132682163Y-59853167D01*
X132464418Y-59824501D01*
X132464413Y-59824500D01*
X132464408Y-59824500D01*
X132244772Y-59824500D01*
X132244766Y-59824500D01*
X132244761Y-59824501D01*
X132027016Y-59853167D01*
X131814860Y-59910014D01*
X131611948Y-59994063D01*
X131611944Y-59994065D01*
X131421735Y-60103884D01*
X131421725Y-60103890D01*
X131329576Y-60174599D01*
X131264407Y-60199793D01*
X131195962Y-60185754D01*
X131145972Y-60136940D01*
X131130090Y-60076223D01*
X131130090Y-57734987D01*
X131130090Y-57734984D01*
X131127784Y-57723393D01*
X131108942Y-57628664D01*
X131115170Y-57559074D01*
X131158034Y-57503897D01*
X131194547Y-57488012D01*
X131193932Y-57486037D01*
X131200191Y-57484086D01*
X131200196Y-57484086D01*
X131362606Y-57433478D01*
X131508185Y-57345472D01*
X131628472Y-57225185D01*
X131652554Y-57185349D01*
X131704082Y-57138162D01*
X131758670Y-57125500D01*
X132697235Y-57125500D01*
X132764274Y-57145185D01*
X132802772Y-57184401D01*
X132815719Y-57205391D01*
X132815720Y-57205392D01*
X132934608Y-57324280D01*
X132934612Y-57324283D01*
X133077704Y-57412544D01*
X133077707Y-57412545D01*
X133077713Y-57412549D01*
X133237315Y-57465436D01*
X133335826Y-57475500D01*
X133335831Y-57475500D01*
X133869169Y-57475500D01*
X133869174Y-57475500D01*
X133967685Y-57465436D01*
X134127287Y-57412549D01*
X134270391Y-57324281D01*
X134302672Y-57292000D01*
X134363995Y-57258515D01*
X134433687Y-57263499D01*
X134478034Y-57292000D01*
X134509919Y-57323885D01*
X134652922Y-57412091D01*
X134652927Y-57412093D01*
X134812416Y-57464942D01*
X134910856Y-57474999D01*
X135427500Y-57474999D01*
X135444136Y-57474999D01*
X135444152Y-57474998D01*
X135542583Y-57464943D01*
X135702072Y-57412093D01*
X135702077Y-57412091D01*
X135845080Y-57323885D01*
X135963885Y-57205080D01*
X136052091Y-57062077D01*
X136052093Y-57062072D01*
X136104942Y-56902583D01*
X136114999Y-56804150D01*
X136115000Y-56804137D01*
X136115000Y-56750000D01*
X135427500Y-56750000D01*
X135427500Y-57474999D01*
X134910856Y-57474999D01*
X134927500Y-57474998D01*
X134927500Y-56250000D01*
X135427500Y-56250000D01*
X136114999Y-56250000D01*
X136114999Y-56195864D01*
X136114998Y-56195847D01*
X136104943Y-56097416D01*
X136052093Y-55937927D01*
X136052091Y-55937922D01*
X135963885Y-55794919D01*
X135845080Y-55676114D01*
X135702077Y-55587908D01*
X135702072Y-55587906D01*
X135542583Y-55535057D01*
X135444150Y-55525000D01*
X135427500Y-55525000D01*
X135427500Y-56250000D01*
X134927500Y-56250000D01*
X134927500Y-55524999D01*
X134910856Y-55525000D01*
X134812415Y-55535057D01*
X134652927Y-55587906D01*
X134652922Y-55587908D01*
X134509919Y-55676114D01*
X134478033Y-55708000D01*
X134416709Y-55741485D01*
X134347018Y-55736499D01*
X134302673Y-55708000D01*
X134270392Y-55675719D01*
X134270387Y-55675716D01*
X134127295Y-55587455D01*
X134127289Y-55587452D01*
X134127287Y-55587451D01*
X133967685Y-55534564D01*
X133967683Y-55534563D01*
X133869181Y-55524500D01*
X133869174Y-55524500D01*
X133335826Y-55524500D01*
X133335818Y-55524500D01*
X133237316Y-55534563D01*
X133237315Y-55534564D01*
X133171262Y-55556452D01*
X133077715Y-55587450D01*
X133077704Y-55587455D01*
X132934612Y-55675716D01*
X132934608Y-55675719D01*
X132815720Y-55794607D01*
X132815719Y-55794609D01*
X132802772Y-55815598D01*
X132750826Y-55862321D01*
X132697235Y-55874500D01*
X131740535Y-55874500D01*
X131673496Y-55854815D01*
X131634418Y-55814650D01*
X131628474Y-55804818D01*
X131628473Y-55804817D01*
X131628472Y-55804815D01*
X131508185Y-55684528D01*
X131362606Y-55596522D01*
X131200196Y-55545914D01*
X131200194Y-55545913D01*
X131200192Y-55545913D01*
X131150778Y-55541423D01*
X131129616Y-55539500D01*
X130616384Y-55539500D01*
X130597145Y-55541248D01*
X130545807Y-55545913D01*
X130383393Y-55596522D01*
X130237811Y-55684530D01*
X130237810Y-55684531D01*
X130135681Y-55786661D01*
X130074358Y-55820146D01*
X130004666Y-55815162D01*
X129960319Y-55786661D01*
X129858188Y-55684530D01*
X129844266Y-55676114D01*
X129712606Y-55596522D01*
X129550196Y-55545914D01*
X129550194Y-55545913D01*
X129550192Y-55545913D01*
X129500778Y-55541423D01*
X129479616Y-55539500D01*
X128966384Y-55539500D01*
X128947145Y-55541248D01*
X128895807Y-55545913D01*
X128733393Y-55596522D01*
X128587811Y-55684530D01*
X128467530Y-55804811D01*
X128379522Y-55950393D01*
X128328913Y-56112807D01*
X128322500Y-56183386D01*
X128322500Y-56846613D01*
X128328913Y-56917192D01*
X128328913Y-56917194D01*
X128328914Y-56917196D01*
X128365778Y-57035500D01*
X128379522Y-57079606D01*
X128467530Y-57225188D01*
X128587811Y-57345469D01*
X128587813Y-57345470D01*
X128587815Y-57345472D01*
X128733394Y-57433478D01*
X128895804Y-57484086D01*
X128966384Y-57490500D01*
X129262548Y-57490500D01*
X129329587Y-57510185D01*
X129350229Y-57526819D01*
X129842771Y-58019361D01*
X129876256Y-58080684D01*
X129879090Y-58107042D01*
X129879090Y-66963880D01*
X129859405Y-67030919D01*
X129806601Y-67076674D01*
X129737443Y-67086618D01*
X129673887Y-67057593D01*
X129636113Y-66998815D01*
X129635315Y-66995974D01*
X129610644Y-66903900D01*
X129517814Y-66679788D01*
X129396526Y-66469711D01*
X129293411Y-66335328D01*
X129248856Y-66277263D01*
X129248850Y-66277256D01*
X129077333Y-66105739D01*
X129077326Y-66105733D01*
X128884883Y-65958067D01*
X128884882Y-65958066D01*
X128884879Y-65958064D01*
X128674802Y-65836776D01*
X128645402Y-65824598D01*
X128450694Y-65743947D01*
X128216375Y-65681161D01*
X127975879Y-65649500D01*
X127975878Y-65649500D01*
X127733302Y-65649500D01*
X127733301Y-65649500D01*
X127492804Y-65681161D01*
X127258485Y-65743947D01*
X127140325Y-65792891D01*
X127070855Y-65800360D01*
X127008376Y-65769085D01*
X127005191Y-65766011D01*
X126440740Y-65201560D01*
X126433450Y-65194270D01*
X126433448Y-65194267D01*
X126346323Y-65107142D01*
X126295099Y-65072915D01*
X126243876Y-65038688D01*
X126243873Y-65038686D01*
X126243870Y-65038685D01*
X126170193Y-65008168D01*
X126170191Y-65008167D01*
X126163382Y-65005347D01*
X126130042Y-64991537D01*
X126069619Y-64979518D01*
X126064896Y-64978578D01*
X126064894Y-64978578D01*
X126009200Y-64967500D01*
X126009197Y-64967500D01*
X126009196Y-64967500D01*
X123950467Y-64967500D01*
X123883428Y-64947815D01*
X123847166Y-64912092D01*
X123839270Y-64900200D01*
X123820796Y-64850669D01*
X123734546Y-64735454D01*
X123725263Y-64728505D01*
X123713796Y-64711235D01*
X123706973Y-64689224D01*
X123695931Y-64669001D01*
X123696826Y-64656484D01*
X123693111Y-64644498D01*
X123699271Y-64622293D01*
X123700915Y-64599309D01*
X123709243Y-64586350D01*
X123711790Y-64577171D01*
X123719658Y-64570143D01*
X123729416Y-64554962D01*
X123734190Y-64550187D01*
X123820350Y-64435093D01*
X123820354Y-64435086D01*
X123870596Y-64300379D01*
X123870598Y-64300372D01*
X123876999Y-64240844D01*
X123877000Y-64240827D01*
X123877000Y-63943000D01*
X121852070Y-63943000D01*
X121845648Y-63946506D01*
X121775956Y-63941516D01*
X121720032Y-63899649D01*
X121687718Y-63856483D01*
X121634546Y-63785454D01*
X121615557Y-63771239D01*
X121519334Y-63699205D01*
X121483164Y-63685714D01*
X121427231Y-63643841D01*
X121402816Y-63578376D01*
X121402500Y-63569533D01*
X121402500Y-63145155D01*
X121877000Y-63145155D01*
X121877000Y-63443000D01*
X122627000Y-63443000D01*
X123127000Y-63443000D01*
X123877000Y-63443000D01*
X123877000Y-63145172D01*
X123876999Y-63145155D01*
X123870598Y-63085627D01*
X123870596Y-63085620D01*
X123820354Y-62950913D01*
X123820350Y-62950906D01*
X123734190Y-62835812D01*
X123734187Y-62835809D01*
X123619093Y-62749649D01*
X123619086Y-62749645D01*
X123484379Y-62699403D01*
X123484372Y-62699401D01*
X123424844Y-62693000D01*
X123127000Y-62693000D01*
X123127000Y-63443000D01*
X122627000Y-63443000D01*
X122627000Y-62693000D01*
X122329155Y-62693000D01*
X122269627Y-62699401D01*
X122269620Y-62699403D01*
X122134913Y-62749645D01*
X122134906Y-62749649D01*
X122019812Y-62835809D01*
X122019809Y-62835812D01*
X121933649Y-62950906D01*
X121933645Y-62950913D01*
X121883403Y-63085620D01*
X121883401Y-63085627D01*
X121877000Y-63145155D01*
X121402500Y-63145155D01*
X121402500Y-62365952D01*
X121422185Y-62298913D01*
X121438819Y-62278271D01*
X123909271Y-59807819D01*
X123970594Y-59774334D01*
X123996952Y-59771500D01*
X124303169Y-59771500D01*
X124303174Y-59771500D01*
X124401685Y-59761436D01*
X124561287Y-59708549D01*
X124704391Y-59620281D01*
X124823281Y-59501391D01*
X124911549Y-59358287D01*
X124964436Y-59198685D01*
X124974500Y-59100174D01*
X124974500Y-58566826D01*
X124964436Y-58468315D01*
X124911549Y-58308713D01*
X124911545Y-58308707D01*
X124911544Y-58308704D01*
X124823283Y-58165612D01*
X124823280Y-58165608D01*
X124791353Y-58133681D01*
X124757868Y-58072358D01*
X124762852Y-58002666D01*
X124791353Y-57958319D01*
X124823281Y-57926391D01*
X124911549Y-57783287D01*
X124964436Y-57623685D01*
X124974500Y-57525174D01*
X124974500Y-56991826D01*
X124964436Y-56893315D01*
X124911549Y-56733713D01*
X124911545Y-56733707D01*
X124911544Y-56733704D01*
X124823283Y-56590612D01*
X124823280Y-56590608D01*
X124704391Y-56471719D01*
X124704387Y-56471716D01*
X124561295Y-56383455D01*
X124561289Y-56383452D01*
X124561287Y-56383451D01*
X124401685Y-56330564D01*
X124401683Y-56330563D01*
X124303181Y-56320500D01*
X124303174Y-56320500D01*
X123694826Y-56320500D01*
X123694818Y-56320500D01*
X123596316Y-56330563D01*
X123596315Y-56330564D01*
X123539315Y-56349452D01*
X123436715Y-56383450D01*
X123436704Y-56383455D01*
X123293612Y-56471716D01*
X123293608Y-56471719D01*
X123174719Y-56590608D01*
X123174716Y-56590612D01*
X123086455Y-56733704D01*
X123086450Y-56733715D01*
X123063115Y-56804137D01*
X123033564Y-56893315D01*
X123033564Y-56893316D01*
X123033563Y-56893316D01*
X123023500Y-56991818D01*
X123023500Y-57035500D01*
X123003815Y-57102539D01*
X122951011Y-57148294D01*
X122899500Y-57159500D01*
X120954602Y-57159500D01*
X120887563Y-57139815D01*
X120848486Y-57099651D01*
X120833471Y-57074814D01*
X120833468Y-57074810D01*
X120713188Y-56954530D01*
X120651430Y-56917196D01*
X120567606Y-56866522D01*
X120405196Y-56815914D01*
X120405194Y-56815913D01*
X120405192Y-56815913D01*
X120355778Y-56811423D01*
X120334616Y-56809500D01*
X119821384Y-56809500D01*
X119802145Y-56811248D01*
X119750807Y-56815913D01*
X119588393Y-56866522D01*
X119442811Y-56954530D01*
X119442810Y-56954531D01*
X119340681Y-57056661D01*
X119279358Y-57090146D01*
X119209666Y-57085162D01*
X119165319Y-57056661D01*
X119063188Y-56954530D01*
X119001430Y-56917196D01*
X118917606Y-56866522D01*
X118755196Y-56815914D01*
X118755194Y-56815913D01*
X118755192Y-56815913D01*
X118705778Y-56811423D01*
X118684616Y-56809500D01*
X118171384Y-56809500D01*
X118152145Y-56811248D01*
X118100807Y-56815913D01*
X117938393Y-56866522D01*
X117792811Y-56954530D01*
X117672530Y-57074811D01*
X117584522Y-57220393D01*
X117533913Y-57382807D01*
X117527500Y-57453386D01*
X117527500Y-58116613D01*
X117533913Y-58187192D01*
X117533913Y-58187194D01*
X117533914Y-58187196D01*
X117584522Y-58349606D01*
X117666272Y-58484837D01*
X117672530Y-58495188D01*
X117704694Y-58527352D01*
X117738179Y-58588675D01*
X117733195Y-58658367D01*
X117704694Y-58702714D01*
X113384562Y-63022846D01*
X113323239Y-63056331D01*
X113258563Y-63053096D01*
X113248514Y-63049831D01*
X113248511Y-63049830D01*
X113019129Y-63013500D01*
X113019124Y-63013500D01*
X112786876Y-63013500D01*
X112786871Y-63013500D01*
X112557485Y-63049831D01*
X112336599Y-63121601D01*
X112129668Y-63227039D01*
X111941773Y-63363553D01*
X111777553Y-63527773D01*
X111641039Y-63715668D01*
X111535601Y-63922599D01*
X111463831Y-64143485D01*
X111427500Y-64372870D01*
X110988500Y-64372870D01*
X110988500Y-59739451D01*
X111008185Y-59672412D01*
X111024814Y-59651775D01*
X112275771Y-58400817D01*
X112337094Y-58367333D01*
X112363452Y-58364499D01*
X113925871Y-58364499D01*
X113925872Y-58364499D01*
X113985483Y-58358091D01*
X114120331Y-58307796D01*
X114235546Y-58221546D01*
X114321796Y-58106331D01*
X114372091Y-57971483D01*
X114378500Y-57911873D01*
X114378499Y-56349451D01*
X114398184Y-56282413D01*
X114414813Y-56261776D01*
X115778772Y-54897819D01*
X115840095Y-54864334D01*
X115866453Y-54861500D01*
X118289599Y-54861500D01*
X118356638Y-54881185D01*
X118363912Y-54886235D01*
X118368667Y-54889795D01*
X118368671Y-54889797D01*
X118413618Y-54906561D01*
X118503517Y-54940091D01*
X118563127Y-54946500D01*
X119298872Y-54946499D01*
X119358483Y-54940091D01*
X119493331Y-54889796D01*
X119607107Y-54804622D01*
X119672568Y-54780206D01*
X119740841Y-54795057D01*
X119755727Y-54804623D01*
X119868911Y-54889353D01*
X119868913Y-54889354D01*
X120003620Y-54939596D01*
X120003627Y-54939598D01*
X120063155Y-54945999D01*
X120063172Y-54946000D01*
X120221000Y-54946000D01*
X120641000Y-54946000D01*
X120798828Y-54946000D01*
X120798844Y-54945999D01*
X120858372Y-54939598D01*
X120858379Y-54939596D01*
X120993086Y-54889354D01*
X120993093Y-54889350D01*
X121108187Y-54803190D01*
X121108190Y-54803187D01*
X121194350Y-54688093D01*
X121194354Y-54688086D01*
X121244596Y-54553379D01*
X121244598Y-54553372D01*
X121250999Y-54493844D01*
X121251000Y-54493827D01*
X121251000Y-54446000D01*
X120641000Y-54446000D01*
X120641000Y-54946000D01*
X120221000Y-54946000D01*
X120221000Y-54026000D01*
X120641000Y-54026000D01*
X121251000Y-54026000D01*
X121251000Y-53978172D01*
X121250999Y-53978155D01*
X121244598Y-53918627D01*
X121244596Y-53918620D01*
X121194354Y-53783913D01*
X121194350Y-53783906D01*
X121108190Y-53668812D01*
X121108187Y-53668809D01*
X120993093Y-53582649D01*
X120993086Y-53582645D01*
X120858379Y-53532403D01*
X120858372Y-53532401D01*
X120798844Y-53526000D01*
X120641000Y-53526000D01*
X120641000Y-54026000D01*
X120221000Y-54026000D01*
X120221000Y-53526000D01*
X120063155Y-53526000D01*
X120003627Y-53532401D01*
X120003620Y-53532403D01*
X119868913Y-53582645D01*
X119868910Y-53582647D01*
X119755727Y-53667376D01*
X119690262Y-53691793D01*
X119621989Y-53676941D01*
X119607105Y-53667375D01*
X119493335Y-53582206D01*
X119493328Y-53582202D01*
X119358486Y-53531910D01*
X119358485Y-53531909D01*
X119358483Y-53531909D01*
X119298873Y-53525500D01*
X119298863Y-53525500D01*
X118563129Y-53525500D01*
X118563123Y-53525501D01*
X118503516Y-53531908D01*
X118368671Y-53582202D01*
X118368667Y-53582204D01*
X118363912Y-53585765D01*
X118298448Y-53610184D01*
X118289599Y-53610500D01*
X115623741Y-53610500D01*
X115623721Y-53610499D01*
X115617607Y-53610499D01*
X115494394Y-53610499D01*
X115393597Y-53630548D01*
X115393592Y-53630548D01*
X115373549Y-53634536D01*
X115373547Y-53634536D01*
X115326397Y-53654067D01*
X115259719Y-53681685D01*
X115259717Y-53681686D01*
X115157266Y-53750141D01*
X115157263Y-53750144D01*
X113530227Y-55377181D01*
X113468904Y-55410666D01*
X113442546Y-55413500D01*
X111880129Y-55413500D01*
X111880123Y-55413501D01*
X111820516Y-55419908D01*
X111685671Y-55470202D01*
X111685664Y-55470206D01*
X111570455Y-55556452D01*
X111570452Y-55556455D01*
X111484206Y-55671664D01*
X111484202Y-55671671D01*
X111433908Y-55806517D01*
X111427501Y-55866116D01*
X111427500Y-55866135D01*
X111427500Y-57428546D01*
X111407815Y-57495585D01*
X111391181Y-57516227D01*
X109965904Y-58941504D01*
X109965891Y-58941517D01*
X109964269Y-58943140D01*
X109964267Y-58943142D01*
X109877142Y-59030267D01*
X109866328Y-59046452D01*
X109860832Y-59054676D01*
X109860830Y-59054679D01*
X109808686Y-59132716D01*
X109808685Y-59132718D01*
X109779042Y-59204284D01*
X109779040Y-59204289D01*
X109775347Y-59213207D01*
X109761537Y-59246548D01*
X109737500Y-59367394D01*
X86353453Y-59367394D01*
X86359144Y-59348010D01*
X86365668Y-59318024D01*
X86369422Y-59313008D01*
X86370185Y-59310412D01*
X86386815Y-59289774D01*
X87277640Y-58398948D01*
X87338961Y-58365465D01*
X87382013Y-58364235D01*
X87382023Y-58364118D01*
X87383113Y-58364203D01*
X87384716Y-58364158D01*
X87386876Y-58364500D01*
X87386877Y-58364500D01*
X87619129Y-58364500D01*
X87720502Y-58348443D01*
X87848514Y-58328169D01*
X88069396Y-58256400D01*
X88276331Y-58150961D01*
X88464224Y-58014449D01*
X88628449Y-57850224D01*
X88764961Y-57662331D01*
X88870400Y-57455396D01*
X88942169Y-57234514D01*
X88965824Y-57085162D01*
X88978500Y-57005129D01*
X88978500Y-56772870D01*
X91107500Y-56772870D01*
X91107500Y-57005129D01*
X91143831Y-57234514D01*
X91215601Y-57455400D01*
X91290578Y-57602549D01*
X91321039Y-57662331D01*
X91457551Y-57850224D01*
X91621776Y-58014449D01*
X91809669Y-58150961D01*
X91880776Y-58187192D01*
X92016599Y-58256398D01*
X92016601Y-58256398D01*
X92016604Y-58256400D01*
X92237486Y-58328169D01*
X92355668Y-58346886D01*
X92466871Y-58364500D01*
X92466876Y-58364500D01*
X92699129Y-58364500D01*
X92800502Y-58348443D01*
X92928514Y-58328169D01*
X93149396Y-58256400D01*
X93356331Y-58150961D01*
X93544224Y-58014449D01*
X93708449Y-57850224D01*
X93844961Y-57662331D01*
X93950400Y-57455396D01*
X94022169Y-57234514D01*
X94045824Y-57085162D01*
X94058500Y-57005129D01*
X94058500Y-56772870D01*
X94039232Y-56651222D01*
X94022169Y-56543486D01*
X93950400Y-56322604D01*
X93950398Y-56322601D01*
X93950398Y-56322599D01*
X93894776Y-56213436D01*
X93844961Y-56115669D01*
X93708449Y-55927776D01*
X93544224Y-55763551D01*
X93356331Y-55627039D01*
X93149400Y-55521601D01*
X92928514Y-55449831D01*
X92699129Y-55413500D01*
X92699124Y-55413500D01*
X92466876Y-55413500D01*
X92466871Y-55413500D01*
X92237485Y-55449831D01*
X92016599Y-55521601D01*
X91809668Y-55627039D01*
X91621773Y-55763553D01*
X91457553Y-55927773D01*
X91321039Y-56115668D01*
X91215601Y-56322599D01*
X91143831Y-56543485D01*
X91107500Y-56772870D01*
X88978500Y-56772870D01*
X88959232Y-56651222D01*
X88942169Y-56543486D01*
X88870400Y-56322604D01*
X88870398Y-56322601D01*
X88870398Y-56322599D01*
X88814776Y-56213436D01*
X88764961Y-56115669D01*
X88628449Y-55927776D01*
X88464224Y-55763551D01*
X88276331Y-55627039D01*
X88069400Y-55521601D01*
X87848514Y-55449831D01*
X87619129Y-55413500D01*
X87619124Y-55413500D01*
X87386876Y-55413500D01*
X87386871Y-55413500D01*
X87157485Y-55449831D01*
X86936599Y-55521601D01*
X86729668Y-55627039D01*
X86541773Y-55763553D01*
X86377553Y-55927773D01*
X86241039Y-56115668D01*
X86135601Y-56322599D01*
X86063831Y-56543485D01*
X86027500Y-56772870D01*
X86027500Y-57005129D01*
X86061595Y-57220394D01*
X86063831Y-57234514D01*
X86099883Y-57345472D01*
X86135602Y-57455402D01*
X86201501Y-57584733D01*
X86214398Y-57653403D01*
X86188122Y-57718143D01*
X86178698Y-57728710D01*
X85741801Y-58165608D01*
X85326270Y-58581139D01*
X85326267Y-58581142D01*
X85297929Y-58609480D01*
X85239142Y-58668266D01*
X85215614Y-58703479D01*
X85170689Y-58770712D01*
X85170688Y-58770713D01*
X85157107Y-58803502D01*
X85123537Y-58884549D01*
X85123535Y-58884556D01*
X85099500Y-59005389D01*
X83593974Y-59005389D01*
X83566478Y-51939053D01*
X83585901Y-51871941D01*
X83638527Y-51825981D01*
X83689047Y-51814582D01*
X138559491Y-51182434D01*
X138626751Y-51201345D01*
G37*
%TD.AperFunction*%
%TD*%
M02*
