%TF.GenerationSoftware,KiCad,Pcbnew,9.0.8*%
%TF.CreationDate,2026-03-28T21:38:23-07:00*%
%TF.ProjectId,Shutdown_Circuit,53687574-646f-4776-9e5f-436972637569,rev?*%
%TF.SameCoordinates,Original*%
%TF.FileFunction,Copper,L2,Bot*%
%TF.FilePolarity,Positive*%
%FSLAX46Y46*%
G04 Gerber Fmt 4.6, Leading zero omitted, Abs format (unit mm)*
G04 Created by KiCad (PCBNEW 9.0.8) date 2026-03-28 21:38:23*
%MOMM*%
%LPD*%
G01*
G04 APERTURE LIST*
%TA.AperFunction,ComponentPad*%
%ADD10R,1.950000X1.950000*%
%TD*%
%TA.AperFunction,ComponentPad*%
%ADD11C,1.950000*%
%TD*%
%TA.AperFunction,ComponentPad*%
%ADD12C,2.700000*%
%TD*%
%TA.AperFunction,Conductor*%
%ADD13C,0.250000*%
%TD*%
G04 APERTURE END LIST*
D10*
%TO.P,K1,1,COIL_1*%
%TO.N,+12V*%
X115986000Y-92008000D03*
D11*
%TO.P,K1,2,COM_1*%
X95666000Y-92008000D03*
%TO.P,K1,3,NO_1*%
%TO.N,Net-(K1-NO_1)*%
X90586000Y-92008000D03*
%TO.P,K1,4,NO_2*%
%TO.N,unconnected-(K1-NO_2-Pad4)*%
X90586000Y-99608000D03*
%TO.P,K1,5,COM_2*%
%TO.N,unconnected-(K1-COM_2-Pad5)*%
X95666000Y-99608000D03*
%TO.P,K1,6,COIL_2*%
%TO.N,Net-(K1-COIL_2)*%
X115986000Y-99608000D03*
%TD*%
D10*
%TO.P,K3,1,COIL_1*%
%TO.N,+12V*%
X114427000Y-76320000D03*
D11*
%TO.P,K3,2,COM_1*%
%TO.N,Net-(K2-NO_1)*%
X94107000Y-76320000D03*
%TO.P,K3,3,NO_1*%
%TO.N,/RELAYS_OUT*%
X89027000Y-76320000D03*
%TO.P,K3,4,NO_2*%
%TO.N,unconnected-(K3-NO_2-Pad4)*%
X89027000Y-83920000D03*
%TO.P,K3,5,COM_2*%
%TO.N,unconnected-(K3-COM_2-Pad5)*%
X94107000Y-83920000D03*
%TO.P,K3,6,COIL_2*%
%TO.N,Net-(K3-COIL_2)*%
X114427000Y-83920000D03*
%TD*%
D10*
%TO.P,K2,1,COIL_1*%
%TO.N,+12V*%
X112903000Y-56889000D03*
D11*
%TO.P,K2,2,COM_1*%
%TO.N,Net-(K1-NO_1)*%
X92583000Y-56889000D03*
%TO.P,K2,3,NO_1*%
%TO.N,Net-(K2-NO_1)*%
X87503000Y-56889000D03*
%TO.P,K2,4,NO_2*%
%TO.N,unconnected-(K2-NO_2-Pad4)*%
X87503000Y-64489000D03*
%TO.P,K2,5,COM_2*%
%TO.N,unconnected-(K2-COM_2-Pad5)*%
X92583000Y-64489000D03*
%TO.P,K2,6,COIL_2*%
%TO.N,Net-(K2-COIL_2)*%
X112903000Y-64489000D03*
%TD*%
D12*
%TO.P,J2,1,Pin_1*%
%TO.N,+12V*%
X127854590Y-75500000D03*
%TO.P,J2,2,Pin_2*%
%TO.N,/RELAYS_OUT*%
X127854590Y-71500000D03*
%TO.P,J2,3,Pin_3*%
%TO.N,/BMS KILL SIGNAL*%
X127854590Y-67500000D03*
%TO.P,J2,4,Pin_4*%
%TO.N,AIR SIGNAL*%
X131854590Y-73500000D03*
%TO.P,J2,5,Pin_5*%
X131854590Y-69500000D03*
%TO.P,J2,6,Pin_6*%
%TO.N,/IMD KILL SIGNAL*%
X135854590Y-75500000D03*
%TO.P,J2,7,Pin_7*%
%TO.N,/BSPD KILL SIGNAL*%
X135854590Y-71500000D03*
%TO.P,J2,8,Pin_8*%
%TO.N,GND*%
X135854590Y-67500000D03*
%TD*%
D13*
%TO.N,+12V*%
X115986000Y-92008000D02*
X110490000Y-86512000D01*
X110490000Y-86512000D02*
X110490000Y-80257000D01*
X110490000Y-80257000D02*
X114427000Y-76320000D01*
%TO.N,Net-(K1-NO_1)*%
X86106000Y-87128000D02*
X90986000Y-92008000D01*
X92903000Y-56889000D02*
X86106000Y-63686000D01*
X86106000Y-63686000D02*
X86106000Y-87128000D01*
%TO.N,/RELAYS_OUT*%
X89427000Y-76320000D02*
X94247000Y-71500000D01*
X94247000Y-71500000D02*
X127854590Y-71500000D01*
%TD*%
%TA.AperFunction,Conductor*%
%TO.N,GND*%
G36*
X138626991Y-51201210D02*
G01*
X138673231Y-51253590D01*
X138684913Y-51305227D01*
X139063814Y-102835903D01*
X139063345Y-102847622D01*
X139060070Y-102885057D01*
X139034618Y-102950126D01*
X138978027Y-102991105D01*
X138937755Y-102998244D01*
X87244977Y-103503797D01*
X87177748Y-103484769D01*
X87131479Y-103432415D01*
X87119784Y-103382037D01*
X87112846Y-102997000D01*
X87049691Y-99491870D01*
X89110500Y-99491870D01*
X89110500Y-99724129D01*
X89146831Y-99953514D01*
X89218601Y-100174400D01*
X89324039Y-100381331D01*
X89460551Y-100569224D01*
X89624776Y-100733449D01*
X89812669Y-100869961D01*
X89910436Y-100919776D01*
X90019599Y-100975398D01*
X90019601Y-100975398D01*
X90019604Y-100975400D01*
X90240486Y-101047169D01*
X90358668Y-101065886D01*
X90469871Y-101083500D01*
X90469876Y-101083500D01*
X90702129Y-101083500D01*
X90803502Y-101067443D01*
X90931514Y-101047169D01*
X91152396Y-100975400D01*
X91359331Y-100869961D01*
X91547224Y-100733449D01*
X91711449Y-100569224D01*
X91847961Y-100381331D01*
X91953400Y-100174396D01*
X92025169Y-99953514D01*
X92045443Y-99825502D01*
X92061500Y-99724129D01*
X92061500Y-99491870D01*
X94190500Y-99491870D01*
X94190500Y-99724129D01*
X94226831Y-99953514D01*
X94298601Y-100174400D01*
X94404039Y-100381331D01*
X94540551Y-100569224D01*
X94704776Y-100733449D01*
X94892669Y-100869961D01*
X94990436Y-100919776D01*
X95099599Y-100975398D01*
X95099601Y-100975398D01*
X95099604Y-100975400D01*
X95320486Y-101047169D01*
X95438668Y-101065886D01*
X95549871Y-101083500D01*
X95549876Y-101083500D01*
X95782129Y-101083500D01*
X95883502Y-101067443D01*
X96011514Y-101047169D01*
X96232396Y-100975400D01*
X96439331Y-100869961D01*
X96627224Y-100733449D01*
X96791449Y-100569224D01*
X96927961Y-100381331D01*
X97033400Y-100174396D01*
X97105169Y-99953514D01*
X97125443Y-99825502D01*
X97141500Y-99724129D01*
X97141500Y-99491870D01*
X114510500Y-99491870D01*
X114510500Y-99724129D01*
X114546831Y-99953514D01*
X114618601Y-100174400D01*
X114724039Y-100381331D01*
X114860551Y-100569224D01*
X115024776Y-100733449D01*
X115212669Y-100869961D01*
X115310436Y-100919776D01*
X115419599Y-100975398D01*
X115419601Y-100975398D01*
X115419604Y-100975400D01*
X115640486Y-101047169D01*
X115758668Y-101065886D01*
X115869871Y-101083500D01*
X115869876Y-101083500D01*
X116102129Y-101083500D01*
X116203502Y-101067443D01*
X116331514Y-101047169D01*
X116552396Y-100975400D01*
X116759331Y-100869961D01*
X116947224Y-100733449D01*
X117111449Y-100569224D01*
X117247961Y-100381331D01*
X117353400Y-100174396D01*
X117425169Y-99953514D01*
X117445443Y-99825502D01*
X117461500Y-99724129D01*
X117461500Y-99491870D01*
X117442232Y-99370222D01*
X117425169Y-99262486D01*
X117353400Y-99041604D01*
X117353398Y-99041601D01*
X117353398Y-99041599D01*
X117247960Y-98834668D01*
X117111449Y-98646776D01*
X116947224Y-98482551D01*
X116759331Y-98346039D01*
X116552400Y-98240601D01*
X116331514Y-98168831D01*
X116102129Y-98132500D01*
X116102124Y-98132500D01*
X115869876Y-98132500D01*
X115869871Y-98132500D01*
X115640485Y-98168831D01*
X115419599Y-98240601D01*
X115212668Y-98346039D01*
X115024773Y-98482553D01*
X114860553Y-98646773D01*
X114724039Y-98834668D01*
X114618601Y-99041599D01*
X114546831Y-99262485D01*
X114510500Y-99491870D01*
X97141500Y-99491870D01*
X97122232Y-99370222D01*
X97105169Y-99262486D01*
X97033400Y-99041604D01*
X97033398Y-99041601D01*
X97033398Y-99041599D01*
X96927960Y-98834668D01*
X96791449Y-98646776D01*
X96627224Y-98482551D01*
X96439331Y-98346039D01*
X96232400Y-98240601D01*
X96011514Y-98168831D01*
X95782129Y-98132500D01*
X95782124Y-98132500D01*
X95549876Y-98132500D01*
X95549871Y-98132500D01*
X95320485Y-98168831D01*
X95099599Y-98240601D01*
X94892668Y-98346039D01*
X94704773Y-98482553D01*
X94540553Y-98646773D01*
X94404039Y-98834668D01*
X94298601Y-99041599D01*
X94226831Y-99262485D01*
X94190500Y-99491870D01*
X92061500Y-99491870D01*
X92042232Y-99370222D01*
X92025169Y-99262486D01*
X91953400Y-99041604D01*
X91953398Y-99041601D01*
X91953398Y-99041599D01*
X91847960Y-98834668D01*
X91711449Y-98646776D01*
X91547224Y-98482551D01*
X91359331Y-98346039D01*
X91152400Y-98240601D01*
X90931514Y-98168831D01*
X90702129Y-98132500D01*
X90702124Y-98132500D01*
X90469876Y-98132500D01*
X90469871Y-98132500D01*
X90240485Y-98168831D01*
X90019599Y-98240601D01*
X89812668Y-98346039D01*
X89624773Y-98482553D01*
X89460553Y-98646773D01*
X89324039Y-98834668D01*
X89218601Y-99041599D01*
X89146831Y-99262485D01*
X89110500Y-99491870D01*
X87049691Y-99491870D01*
X87031505Y-98482553D01*
X86887907Y-90512815D01*
X86868000Y-89408000D01*
X86317412Y-88571106D01*
X86297012Y-88504285D01*
X86315978Y-88437038D01*
X86368289Y-88390721D01*
X86437337Y-88380037D01*
X86501200Y-88408380D01*
X86508686Y-88415276D01*
X89261698Y-91168288D01*
X89295183Y-91229611D01*
X89290199Y-91299303D01*
X89284502Y-91312264D01*
X89218601Y-91441599D01*
X89146831Y-91662485D01*
X89110500Y-91891870D01*
X89110500Y-92124129D01*
X89146831Y-92353514D01*
X89218601Y-92574400D01*
X89324039Y-92781331D01*
X89460551Y-92969224D01*
X89624776Y-93133449D01*
X89812669Y-93269961D01*
X89910436Y-93319776D01*
X90019599Y-93375398D01*
X90019601Y-93375398D01*
X90019604Y-93375400D01*
X90240486Y-93447169D01*
X90358668Y-93465886D01*
X90469871Y-93483500D01*
X90469876Y-93483500D01*
X90702129Y-93483500D01*
X90803502Y-93467443D01*
X90931514Y-93447169D01*
X91152396Y-93375400D01*
X91359331Y-93269961D01*
X91547224Y-93133449D01*
X91711449Y-92969224D01*
X91847961Y-92781331D01*
X91953400Y-92574396D01*
X92025169Y-92353514D01*
X92045443Y-92225502D01*
X92061500Y-92124129D01*
X92061500Y-91891870D01*
X94190500Y-91891870D01*
X94190500Y-92124129D01*
X94226831Y-92353514D01*
X94298601Y-92574400D01*
X94404039Y-92781331D01*
X94540551Y-92969224D01*
X94704776Y-93133449D01*
X94892669Y-93269961D01*
X94990436Y-93319776D01*
X95099599Y-93375398D01*
X95099601Y-93375398D01*
X95099604Y-93375400D01*
X95320486Y-93447169D01*
X95438668Y-93465886D01*
X95549871Y-93483500D01*
X95549876Y-93483500D01*
X95782129Y-93483500D01*
X95883502Y-93467443D01*
X96011514Y-93447169D01*
X96232396Y-93375400D01*
X96439331Y-93269961D01*
X96627224Y-93133449D01*
X96791449Y-92969224D01*
X96927961Y-92781331D01*
X97033400Y-92574396D01*
X97105169Y-92353514D01*
X97125443Y-92225502D01*
X97141500Y-92124129D01*
X97141500Y-91891870D01*
X97122232Y-91770222D01*
X97105169Y-91662486D01*
X97033400Y-91441604D01*
X97033398Y-91441601D01*
X97033398Y-91441599D01*
X96927960Y-91234668D01*
X96879732Y-91168288D01*
X96791449Y-91046776D01*
X96627224Y-90882551D01*
X96439331Y-90746039D01*
X96403394Y-90727728D01*
X96232400Y-90640601D01*
X96011514Y-90568831D01*
X95782129Y-90532500D01*
X95782124Y-90532500D01*
X95549876Y-90532500D01*
X95549871Y-90532500D01*
X95320485Y-90568831D01*
X95099599Y-90640601D01*
X94892668Y-90746039D01*
X94704773Y-90882553D01*
X94540553Y-91046773D01*
X94404039Y-91234668D01*
X94298601Y-91441599D01*
X94226831Y-91662485D01*
X94190500Y-91891870D01*
X92061500Y-91891870D01*
X92042232Y-91770222D01*
X92025169Y-91662486D01*
X91953400Y-91441604D01*
X91953398Y-91441601D01*
X91953398Y-91441599D01*
X91847960Y-91234668D01*
X91799732Y-91168288D01*
X91711449Y-91046776D01*
X91547224Y-90882551D01*
X91359331Y-90746039D01*
X91323394Y-90727728D01*
X91152400Y-90640601D01*
X90931514Y-90568831D01*
X90702129Y-90532500D01*
X90702124Y-90532500D01*
X90469876Y-90532500D01*
X90469875Y-90532500D01*
X90467716Y-90532842D01*
X90466886Y-90532734D01*
X90465014Y-90532882D01*
X90464983Y-90532488D01*
X90398423Y-90523886D01*
X90360639Y-90498049D01*
X86767819Y-86905229D01*
X86734334Y-86843906D01*
X86731500Y-86817548D01*
X86731500Y-83803870D01*
X87551500Y-83803870D01*
X87551500Y-84036129D01*
X87587831Y-84265514D01*
X87659601Y-84486400D01*
X87724006Y-84612800D01*
X87765039Y-84693331D01*
X87901551Y-84881224D01*
X88065776Y-85045449D01*
X88253669Y-85181961D01*
X88351436Y-85231776D01*
X88460599Y-85287398D01*
X88460601Y-85287398D01*
X88460604Y-85287400D01*
X88681486Y-85359169D01*
X88799668Y-85377886D01*
X88910871Y-85395500D01*
X88910876Y-85395500D01*
X89143129Y-85395500D01*
X89244502Y-85379443D01*
X89372514Y-85359169D01*
X89593396Y-85287400D01*
X89800331Y-85181961D01*
X89988224Y-85045449D01*
X90152449Y-84881224D01*
X90288961Y-84693331D01*
X90394400Y-84486396D01*
X90466169Y-84265514D01*
X90486443Y-84137502D01*
X90502500Y-84036129D01*
X90502500Y-83803870D01*
X92631500Y-83803870D01*
X92631500Y-84036129D01*
X92667831Y-84265514D01*
X92739601Y-84486400D01*
X92804006Y-84612800D01*
X92845039Y-84693331D01*
X92981551Y-84881224D01*
X93145776Y-85045449D01*
X93333669Y-85181961D01*
X93431436Y-85231776D01*
X93540599Y-85287398D01*
X93540601Y-85287398D01*
X93540604Y-85287400D01*
X93761486Y-85359169D01*
X93879668Y-85377886D01*
X93990871Y-85395500D01*
X93990876Y-85395500D01*
X94223129Y-85395500D01*
X94324502Y-85379443D01*
X94452514Y-85359169D01*
X94673396Y-85287400D01*
X94880331Y-85181961D01*
X95068224Y-85045449D01*
X95232449Y-84881224D01*
X95368961Y-84693331D01*
X95474400Y-84486396D01*
X95546169Y-84265514D01*
X95566443Y-84137502D01*
X95582500Y-84036129D01*
X95582500Y-83803870D01*
X95563232Y-83682222D01*
X95546169Y-83574486D01*
X95474400Y-83353604D01*
X95474398Y-83353601D01*
X95474398Y-83353599D01*
X95368960Y-83146668D01*
X95327778Y-83089986D01*
X95232449Y-82958776D01*
X95068224Y-82794551D01*
X94880331Y-82658039D01*
X94673400Y-82552601D01*
X94452514Y-82480831D01*
X94223129Y-82444500D01*
X94223124Y-82444500D01*
X93990876Y-82444500D01*
X93990871Y-82444500D01*
X93761485Y-82480831D01*
X93540599Y-82552601D01*
X93333668Y-82658039D01*
X93145773Y-82794553D01*
X92981553Y-82958773D01*
X92845039Y-83146668D01*
X92739601Y-83353599D01*
X92667831Y-83574485D01*
X92631500Y-83803870D01*
X90502500Y-83803870D01*
X90483232Y-83682222D01*
X90466169Y-83574486D01*
X90394400Y-83353604D01*
X90394398Y-83353601D01*
X90394398Y-83353599D01*
X90288960Y-83146668D01*
X90247778Y-83089986D01*
X90152449Y-82958776D01*
X89988224Y-82794551D01*
X89800331Y-82658039D01*
X89593400Y-82552601D01*
X89372514Y-82480831D01*
X89143129Y-82444500D01*
X89143124Y-82444500D01*
X88910876Y-82444500D01*
X88910871Y-82444500D01*
X88681485Y-82480831D01*
X88460599Y-82552601D01*
X88253668Y-82658039D01*
X88065773Y-82794553D01*
X87901553Y-82958773D01*
X87765039Y-83146668D01*
X87659601Y-83353599D01*
X87587831Y-83574485D01*
X87551500Y-83803870D01*
X86731500Y-83803870D01*
X86731500Y-80195389D01*
X109864500Y-80195389D01*
X109864500Y-86573611D01*
X109888535Y-86694444D01*
X109888540Y-86694461D01*
X109935685Y-86808280D01*
X109935687Y-86808283D01*
X109935688Y-86808286D01*
X109969915Y-86859509D01*
X110004142Y-86910733D01*
X110091267Y-86997858D01*
X110091270Y-86997860D01*
X110098554Y-87005144D01*
X114474181Y-91380771D01*
X114507666Y-91442094D01*
X114510500Y-91468452D01*
X114510500Y-93030870D01*
X114510501Y-93030876D01*
X114516908Y-93090483D01*
X114567202Y-93225328D01*
X114567206Y-93225335D01*
X114653452Y-93340544D01*
X114653455Y-93340547D01*
X114768664Y-93426793D01*
X114768671Y-93426797D01*
X114903517Y-93477091D01*
X114903516Y-93477091D01*
X114910444Y-93477835D01*
X114963127Y-93483500D01*
X117008872Y-93483499D01*
X117068483Y-93477091D01*
X117203331Y-93426796D01*
X117318546Y-93340546D01*
X117404796Y-93225331D01*
X117455091Y-93090483D01*
X117461500Y-93030873D01*
X117461499Y-90985128D01*
X117455091Y-90925517D01*
X117439066Y-90882553D01*
X117404797Y-90790671D01*
X117404793Y-90790664D01*
X117318547Y-90675455D01*
X117318544Y-90675452D01*
X117203335Y-90589206D01*
X117203328Y-90589202D01*
X117068482Y-90538908D01*
X117068483Y-90538908D01*
X117008883Y-90532501D01*
X117008881Y-90532500D01*
X117008873Y-90532500D01*
X117008865Y-90532500D01*
X115446452Y-90532500D01*
X115379413Y-90512815D01*
X115358771Y-90496181D01*
X111151819Y-86289229D01*
X111118334Y-86227906D01*
X111115500Y-86201548D01*
X111115500Y-83803870D01*
X112951500Y-83803870D01*
X112951500Y-84036129D01*
X112987831Y-84265514D01*
X113059601Y-84486400D01*
X113124006Y-84612800D01*
X113165039Y-84693331D01*
X113301551Y-84881224D01*
X113465776Y-85045449D01*
X113653669Y-85181961D01*
X113751436Y-85231776D01*
X113860599Y-85287398D01*
X113860601Y-85287398D01*
X113860604Y-85287400D01*
X114081486Y-85359169D01*
X114199668Y-85377886D01*
X114310871Y-85395500D01*
X114310876Y-85395500D01*
X114543129Y-85395500D01*
X114644502Y-85379443D01*
X114772514Y-85359169D01*
X114993396Y-85287400D01*
X115200331Y-85181961D01*
X115388224Y-85045449D01*
X115552449Y-84881224D01*
X115688961Y-84693331D01*
X115794400Y-84486396D01*
X115866169Y-84265514D01*
X115886443Y-84137502D01*
X115902500Y-84036129D01*
X115902500Y-83803870D01*
X115883232Y-83682222D01*
X115866169Y-83574486D01*
X115794400Y-83353604D01*
X115794398Y-83353601D01*
X115794398Y-83353599D01*
X115688960Y-83146668D01*
X115647778Y-83089986D01*
X115552449Y-82958776D01*
X115388224Y-82794551D01*
X115200331Y-82658039D01*
X114993400Y-82552601D01*
X114772514Y-82480831D01*
X114543129Y-82444500D01*
X114543124Y-82444500D01*
X114310876Y-82444500D01*
X114310871Y-82444500D01*
X114081485Y-82480831D01*
X113860599Y-82552601D01*
X113653668Y-82658039D01*
X113465773Y-82794553D01*
X113301553Y-82958773D01*
X113165039Y-83146668D01*
X113059601Y-83353599D01*
X112987831Y-83574485D01*
X112951500Y-83803870D01*
X111115500Y-83803870D01*
X111115500Y-81390188D01*
X130679090Y-81390188D01*
X130679090Y-81609811D01*
X130679091Y-81609828D01*
X130707757Y-81827573D01*
X130764604Y-82039729D01*
X130848653Y-82242641D01*
X130848655Y-82242645D01*
X130958474Y-82432855D01*
X130958479Y-82432861D01*
X130958480Y-82432863D01*
X131092178Y-82607102D01*
X131092184Y-82607109D01*
X131247480Y-82762405D01*
X131247487Y-82762411D01*
X131371567Y-82857621D01*
X131421735Y-82896116D01*
X131611945Y-83005935D01*
X131713404Y-83047960D01*
X131814860Y-83089985D01*
X131814861Y-83089985D01*
X131814863Y-83089986D01*
X132027015Y-83146832D01*
X132244772Y-83175500D01*
X132244779Y-83175500D01*
X132464401Y-83175500D01*
X132464408Y-83175500D01*
X132682165Y-83146832D01*
X132894317Y-83089986D01*
X133097235Y-83005935D01*
X133287445Y-82896116D01*
X133461694Y-82762410D01*
X133617000Y-82607104D01*
X133750706Y-82432855D01*
X133860525Y-82242645D01*
X133944576Y-82039727D01*
X134001422Y-81827575D01*
X134030090Y-81609818D01*
X134030090Y-81390182D01*
X134001422Y-81172425D01*
X133944576Y-80960273D01*
X133860525Y-80757355D01*
X133750706Y-80567145D01*
X133617000Y-80392896D01*
X133616995Y-80392890D01*
X133461699Y-80237594D01*
X133461692Y-80237588D01*
X133287453Y-80103890D01*
X133287451Y-80103889D01*
X133287445Y-80103884D01*
X133097235Y-79994065D01*
X133097233Y-79994064D01*
X133097231Y-79994063D01*
X132894319Y-79910014D01*
X132682163Y-79853167D01*
X132464418Y-79824501D01*
X132464413Y-79824500D01*
X132464408Y-79824500D01*
X132244772Y-79824500D01*
X132244766Y-79824500D01*
X132244761Y-79824501D01*
X132027016Y-79853167D01*
X131814860Y-79910014D01*
X131611948Y-79994063D01*
X131611947Y-79994064D01*
X131421735Y-80103884D01*
X131421726Y-80103890D01*
X131247487Y-80237588D01*
X131247480Y-80237594D01*
X131092184Y-80392890D01*
X131092178Y-80392897D01*
X130958480Y-80567136D01*
X130958474Y-80567145D01*
X130848655Y-80757354D01*
X130848653Y-80757358D01*
X130764604Y-80960270D01*
X130707757Y-81172426D01*
X130679091Y-81390171D01*
X130679090Y-81390188D01*
X111115500Y-81390188D01*
X111115500Y-80567451D01*
X111135185Y-80500412D01*
X111151814Y-80479775D01*
X113799771Y-77831817D01*
X113861094Y-77798333D01*
X113887452Y-77795499D01*
X115449871Y-77795499D01*
X115449872Y-77795499D01*
X115509483Y-77789091D01*
X115644331Y-77738796D01*
X115759546Y-77652546D01*
X115845796Y-77537331D01*
X115896091Y-77402483D01*
X115902500Y-77342873D01*
X115902499Y-75378711D01*
X126004090Y-75378711D01*
X126004090Y-75621288D01*
X126035751Y-75861785D01*
X126098537Y-76096104D01*
X126143178Y-76203876D01*
X126191366Y-76320212D01*
X126312654Y-76530289D01*
X126312656Y-76530292D01*
X126312657Y-76530293D01*
X126460323Y-76722736D01*
X126460329Y-76722743D01*
X126631846Y-76894260D01*
X126631853Y-76894266D01*
X126700875Y-76947228D01*
X126824301Y-77041936D01*
X127034378Y-77163224D01*
X127258490Y-77256054D01*
X127492801Y-77318838D01*
X127673176Y-77342584D01*
X127733301Y-77350500D01*
X127733302Y-77350500D01*
X127975879Y-77350500D01*
X128033880Y-77342864D01*
X128216379Y-77318838D01*
X128450690Y-77256054D01*
X128674802Y-77163224D01*
X128884879Y-77041936D01*
X129077328Y-76894265D01*
X129248855Y-76722738D01*
X129396526Y-76530289D01*
X129517814Y-76320212D01*
X129610644Y-76096100D01*
X129673428Y-75861789D01*
X129705090Y-75621288D01*
X129705090Y-75378712D01*
X129705090Y-75378711D01*
X134004090Y-75378711D01*
X134004090Y-75621288D01*
X134035751Y-75861785D01*
X134098537Y-76096104D01*
X134143178Y-76203876D01*
X134191366Y-76320212D01*
X134312654Y-76530289D01*
X134312656Y-76530292D01*
X134312657Y-76530293D01*
X134460323Y-76722736D01*
X134460329Y-76722743D01*
X134631846Y-76894260D01*
X134631853Y-76894266D01*
X134700875Y-76947228D01*
X134824301Y-77041936D01*
X135034378Y-77163224D01*
X135258490Y-77256054D01*
X135492801Y-77318838D01*
X135673176Y-77342584D01*
X135733301Y-77350500D01*
X135733302Y-77350500D01*
X135975879Y-77350500D01*
X136033880Y-77342864D01*
X136216379Y-77318838D01*
X136450690Y-77256054D01*
X136674802Y-77163224D01*
X136884879Y-77041936D01*
X137077328Y-76894265D01*
X137248855Y-76722738D01*
X137396526Y-76530289D01*
X137517814Y-76320212D01*
X137610644Y-76096100D01*
X137673428Y-75861789D01*
X137705090Y-75621288D01*
X137705090Y-75378712D01*
X137702465Y-75358776D01*
X137688942Y-75256052D01*
X137673428Y-75138211D01*
X137610644Y-74903900D01*
X137609526Y-74901202D01*
X137535604Y-74722738D01*
X137517814Y-74679788D01*
X137396526Y-74469711D01*
X137248855Y-74277262D01*
X137248850Y-74277256D01*
X137077333Y-74105739D01*
X137077326Y-74105733D01*
X136884883Y-73958067D01*
X136884882Y-73958066D01*
X136884879Y-73958064D01*
X136674802Y-73836776D01*
X136674795Y-73836773D01*
X136450694Y-73743947D01*
X136216375Y-73681161D01*
X135975879Y-73649500D01*
X135975878Y-73649500D01*
X135733302Y-73649500D01*
X135733301Y-73649500D01*
X135492804Y-73681161D01*
X135258485Y-73743947D01*
X135034384Y-73836773D01*
X135034375Y-73836777D01*
X134824296Y-73958067D01*
X134631853Y-74105733D01*
X134631846Y-74105739D01*
X134460329Y-74277256D01*
X134460323Y-74277263D01*
X134312657Y-74469706D01*
X134191367Y-74679785D01*
X134191363Y-74679794D01*
X134098537Y-74903895D01*
X134035751Y-75138214D01*
X134004090Y-75378711D01*
X129705090Y-75378711D01*
X129702465Y-75358776D01*
X129688942Y-75256052D01*
X129673428Y-75138211D01*
X129610644Y-74903900D01*
X129609526Y-74901202D01*
X129535604Y-74722738D01*
X129517814Y-74679788D01*
X129396526Y-74469711D01*
X129248855Y-74277262D01*
X129248850Y-74277256D01*
X129077333Y-74105739D01*
X129077326Y-74105733D01*
X128884883Y-73958067D01*
X128884882Y-73958066D01*
X128884879Y-73958064D01*
X128674802Y-73836776D01*
X128674795Y-73836773D01*
X128450694Y-73743947D01*
X128216375Y-73681161D01*
X127975879Y-73649500D01*
X127975878Y-73649500D01*
X127733302Y-73649500D01*
X127733301Y-73649500D01*
X127492804Y-73681161D01*
X127258485Y-73743947D01*
X127034384Y-73836773D01*
X127034375Y-73836777D01*
X126824296Y-73958067D01*
X126631853Y-74105733D01*
X126631846Y-74105739D01*
X126460329Y-74277256D01*
X126460323Y-74277263D01*
X126312657Y-74469706D01*
X126191367Y-74679785D01*
X126191363Y-74679794D01*
X126098537Y-74903895D01*
X126035751Y-75138214D01*
X126004090Y-75378711D01*
X115902499Y-75378711D01*
X115902499Y-75297128D01*
X115896091Y-75237517D01*
X115880066Y-75194553D01*
X115845797Y-75102671D01*
X115845793Y-75102664D01*
X115759547Y-74987455D01*
X115759544Y-74987452D01*
X115644335Y-74901206D01*
X115644328Y-74901202D01*
X115509482Y-74850908D01*
X115509483Y-74850908D01*
X115449883Y-74844501D01*
X115449881Y-74844500D01*
X115449873Y-74844500D01*
X115449864Y-74844500D01*
X113404129Y-74844500D01*
X113404123Y-74844501D01*
X113344516Y-74850908D01*
X113209671Y-74901202D01*
X113209664Y-74901206D01*
X113094455Y-74987452D01*
X113094452Y-74987455D01*
X113008206Y-75102664D01*
X113008202Y-75102671D01*
X112957908Y-75237517D01*
X112951501Y-75297116D01*
X112951501Y-75297123D01*
X112951500Y-75297135D01*
X112951500Y-76859547D01*
X112931815Y-76926586D01*
X112915181Y-76947228D01*
X110004144Y-79858264D01*
X110004138Y-79858272D01*
X109935690Y-79960708D01*
X109935688Y-79960713D01*
X109921874Y-79994064D01*
X109888538Y-80074544D01*
X109888535Y-80074556D01*
X109864500Y-80195389D01*
X86731500Y-80195389D01*
X86731500Y-76203870D01*
X87551500Y-76203870D01*
X87551500Y-76436129D01*
X87587831Y-76665514D01*
X87659601Y-76886400D01*
X87738850Y-77041932D01*
X87765039Y-77093331D01*
X87901551Y-77281224D01*
X88065776Y-77445449D01*
X88253669Y-77581961D01*
X88351436Y-77631776D01*
X88460599Y-77687398D01*
X88460601Y-77687398D01*
X88460604Y-77687400D01*
X88681486Y-77759169D01*
X88799668Y-77777886D01*
X88910871Y-77795500D01*
X88910876Y-77795500D01*
X89143129Y-77795500D01*
X89244502Y-77779443D01*
X89372514Y-77759169D01*
X89593396Y-77687400D01*
X89800331Y-77581961D01*
X89988224Y-77445449D01*
X90152449Y-77281224D01*
X90288961Y-77093331D01*
X90394400Y-76886396D01*
X90466169Y-76665514D01*
X90487586Y-76530289D01*
X90502500Y-76436129D01*
X90502500Y-76205925D01*
X90502500Y-76203876D01*
X90502499Y-76203870D01*
X92631500Y-76203870D01*
X92631500Y-76436129D01*
X92667831Y-76665514D01*
X92739601Y-76886400D01*
X92818850Y-77041932D01*
X92845039Y-77093331D01*
X92981551Y-77281224D01*
X93145776Y-77445449D01*
X93333669Y-77581961D01*
X93431436Y-77631776D01*
X93540599Y-77687398D01*
X93540601Y-77687398D01*
X93540604Y-77687400D01*
X93761486Y-77759169D01*
X93879668Y-77777886D01*
X93990871Y-77795500D01*
X93990876Y-77795500D01*
X94223129Y-77795500D01*
X94324502Y-77779443D01*
X94452514Y-77759169D01*
X94673396Y-77687400D01*
X94880331Y-77581961D01*
X95068224Y-77445449D01*
X95232449Y-77281224D01*
X95368961Y-77093331D01*
X95474400Y-76886396D01*
X95546169Y-76665514D01*
X95567586Y-76530289D01*
X95582500Y-76436129D01*
X95582500Y-76203870D01*
X95563232Y-76082222D01*
X95546169Y-75974486D01*
X95474400Y-75753604D01*
X95474398Y-75753601D01*
X95474398Y-75753599D01*
X95368960Y-75546668D01*
X95246933Y-75378712D01*
X95232449Y-75358776D01*
X95068224Y-75194551D01*
X94880331Y-75058039D01*
X94848727Y-75041936D01*
X94673400Y-74952601D01*
X94452514Y-74880831D01*
X94223129Y-74844500D01*
X94223124Y-74844500D01*
X93990876Y-74844500D01*
X93990871Y-74844500D01*
X93761485Y-74880831D01*
X93540599Y-74952601D01*
X93333668Y-75058039D01*
X93145773Y-75194553D01*
X92981553Y-75358773D01*
X92845039Y-75546668D01*
X92739601Y-75753599D01*
X92667831Y-75974485D01*
X92631500Y-76203870D01*
X90502499Y-76203870D01*
X90501716Y-76198926D01*
X90501402Y-76196123D01*
X90506981Y-76164388D01*
X90511112Y-76132424D01*
X90513117Y-76129491D01*
X90513501Y-76127309D01*
X90517782Y-76122669D01*
X90536947Y-76094641D01*
X93252879Y-73378711D01*
X130004090Y-73378711D01*
X130004090Y-73621288D01*
X130035751Y-73861785D01*
X130098537Y-74096104D01*
X130173576Y-74277263D01*
X130191366Y-74320212D01*
X130312654Y-74530289D01*
X130312656Y-74530292D01*
X130312657Y-74530293D01*
X130460323Y-74722736D01*
X130460329Y-74722743D01*
X130631846Y-74894260D01*
X130631853Y-74894266D01*
X130707876Y-74952600D01*
X130824301Y-75041936D01*
X131034378Y-75163224D01*
X131258490Y-75256054D01*
X131492801Y-75318838D01*
X131673176Y-75342584D01*
X131733301Y-75350500D01*
X131733302Y-75350500D01*
X131975879Y-75350500D01*
X132023978Y-75344167D01*
X132216379Y-75318838D01*
X132450690Y-75256054D01*
X132674802Y-75163224D01*
X132884879Y-75041936D01*
X133077328Y-74894265D01*
X133248855Y-74722738D01*
X133396526Y-74530289D01*
X133517814Y-74320212D01*
X133610644Y-74096100D01*
X133673428Y-73861789D01*
X133705090Y-73621288D01*
X133705090Y-73378712D01*
X133673428Y-73138211D01*
X133610644Y-72903900D01*
X133606653Y-72894266D01*
X133535604Y-72722738D01*
X133517814Y-72679788D01*
X133396526Y-72469711D01*
X133281806Y-72320205D01*
X133248856Y-72277263D01*
X133248850Y-72277256D01*
X133077333Y-72105739D01*
X133077326Y-72105733D01*
X132884883Y-71958067D01*
X132884882Y-71958066D01*
X132884879Y-71958064D01*
X132674802Y-71836776D01*
X132674795Y-71836773D01*
X132450694Y-71743947D01*
X132216375Y-71681161D01*
X131975879Y-71649500D01*
X131975878Y-71649500D01*
X131733302Y-71649500D01*
X131733301Y-71649500D01*
X131492804Y-71681161D01*
X131258485Y-71743947D01*
X131034384Y-71836773D01*
X131034375Y-71836777D01*
X130824296Y-71958067D01*
X130631853Y-72105733D01*
X130631846Y-72105739D01*
X130460329Y-72277256D01*
X130460323Y-72277263D01*
X130312657Y-72469706D01*
X130191367Y-72679785D01*
X130191363Y-72679794D01*
X130098537Y-72903895D01*
X130035751Y-73138214D01*
X130004090Y-73378711D01*
X93252879Y-73378711D01*
X94469772Y-72161819D01*
X94531095Y-72128334D01*
X94557453Y-72125500D01*
X126027860Y-72125500D01*
X126094899Y-72145185D01*
X126140654Y-72197989D01*
X126142421Y-72202048D01*
X126191360Y-72320200D01*
X126191363Y-72320205D01*
X126191366Y-72320212D01*
X126312654Y-72530289D01*
X126312656Y-72530292D01*
X126312657Y-72530293D01*
X126460323Y-72722736D01*
X126460329Y-72722743D01*
X126631846Y-72894260D01*
X126631853Y-72894266D01*
X126744911Y-72981018D01*
X126824301Y-73041936D01*
X127034378Y-73163224D01*
X127258490Y-73256054D01*
X127492801Y-73318838D01*
X127673176Y-73342584D01*
X127733301Y-73350500D01*
X127733302Y-73350500D01*
X127975879Y-73350500D01*
X128023978Y-73344167D01*
X128216379Y-73318838D01*
X128450690Y-73256054D01*
X128674802Y-73163224D01*
X128884879Y-73041936D01*
X129077328Y-72894265D01*
X129248855Y-72722738D01*
X129396526Y-72530289D01*
X129517814Y-72320212D01*
X129610644Y-72096100D01*
X129673428Y-71861789D01*
X129705090Y-71621288D01*
X129705090Y-71378712D01*
X129705090Y-71378711D01*
X134004090Y-71378711D01*
X134004090Y-71621288D01*
X134035751Y-71861785D01*
X134098537Y-72096104D01*
X134173576Y-72277263D01*
X134191366Y-72320212D01*
X134312654Y-72530289D01*
X134312656Y-72530292D01*
X134312657Y-72530293D01*
X134460323Y-72722736D01*
X134460329Y-72722743D01*
X134631846Y-72894260D01*
X134631853Y-72894266D01*
X134744911Y-72981018D01*
X134824301Y-73041936D01*
X135034378Y-73163224D01*
X135258490Y-73256054D01*
X135492801Y-73318838D01*
X135673176Y-73342584D01*
X135733301Y-73350500D01*
X135733302Y-73350500D01*
X135975879Y-73350500D01*
X136023978Y-73344167D01*
X136216379Y-73318838D01*
X136450690Y-73256054D01*
X136674802Y-73163224D01*
X136884879Y-73041936D01*
X137077328Y-72894265D01*
X137248855Y-72722738D01*
X137396526Y-72530289D01*
X137517814Y-72320212D01*
X137610644Y-72096100D01*
X137673428Y-71861789D01*
X137705090Y-71621288D01*
X137705090Y-71378712D01*
X137673428Y-71138211D01*
X137610644Y-70903900D01*
X137606653Y-70894266D01*
X137535604Y-70722738D01*
X137517814Y-70679788D01*
X137396526Y-70469711D01*
X137248855Y-70277262D01*
X137248850Y-70277256D01*
X137077333Y-70105739D01*
X137077326Y-70105733D01*
X136884883Y-69958067D01*
X136884882Y-69958066D01*
X136884879Y-69958064D01*
X136674802Y-69836776D01*
X136674795Y-69836773D01*
X136450694Y-69743947D01*
X136216375Y-69681161D01*
X135975879Y-69649500D01*
X135975878Y-69649500D01*
X135733302Y-69649500D01*
X135733301Y-69649500D01*
X135492804Y-69681161D01*
X135258485Y-69743947D01*
X135034384Y-69836773D01*
X135034375Y-69836777D01*
X134824296Y-69958067D01*
X134631853Y-70105733D01*
X134631846Y-70105739D01*
X134460329Y-70277256D01*
X134460323Y-70277263D01*
X134312657Y-70469706D01*
X134191367Y-70679785D01*
X134191363Y-70679794D01*
X134098537Y-70903895D01*
X134035751Y-71138214D01*
X134004090Y-71378711D01*
X129705090Y-71378711D01*
X129673428Y-71138211D01*
X129610644Y-70903900D01*
X129606653Y-70894266D01*
X129535604Y-70722738D01*
X129517814Y-70679788D01*
X129396526Y-70469711D01*
X129248855Y-70277262D01*
X129248850Y-70277256D01*
X129077333Y-70105739D01*
X129077326Y-70105733D01*
X128884883Y-69958067D01*
X128884882Y-69958066D01*
X128884879Y-69958064D01*
X128674802Y-69836776D01*
X128674795Y-69836773D01*
X128450694Y-69743947D01*
X128216375Y-69681161D01*
X127975879Y-69649500D01*
X127975878Y-69649500D01*
X127733302Y-69649500D01*
X127733301Y-69649500D01*
X127492804Y-69681161D01*
X127258485Y-69743947D01*
X127034384Y-69836773D01*
X127034375Y-69836777D01*
X126824296Y-69958067D01*
X126631853Y-70105733D01*
X126631846Y-70105739D01*
X126460329Y-70277256D01*
X126460323Y-70277263D01*
X126312657Y-70469706D01*
X126191367Y-70679785D01*
X126191360Y-70679799D01*
X126142421Y-70797952D01*
X126098581Y-70852356D01*
X126032287Y-70874421D01*
X126027860Y-70874500D01*
X94185389Y-70874500D01*
X94124971Y-70886518D01*
X94086050Y-70894260D01*
X94064546Y-70898537D01*
X93950716Y-70945687D01*
X93848265Y-71014142D01*
X89866710Y-74995697D01*
X89805387Y-75029182D01*
X89735695Y-75024198D01*
X89722734Y-75018501D01*
X89593400Y-74952601D01*
X89372514Y-74880831D01*
X89143129Y-74844500D01*
X89143124Y-74844500D01*
X88910876Y-74844500D01*
X88910871Y-74844500D01*
X88681485Y-74880831D01*
X88460599Y-74952601D01*
X88253668Y-75058039D01*
X88065773Y-75194553D01*
X87901553Y-75358773D01*
X87765039Y-75546668D01*
X87659601Y-75753599D01*
X87587831Y-75974485D01*
X87551500Y-76203870D01*
X86731500Y-76203870D01*
X86731500Y-69378711D01*
X130004090Y-69378711D01*
X130004090Y-69621288D01*
X130035751Y-69861785D01*
X130098537Y-70096104D01*
X130173576Y-70277263D01*
X130191366Y-70320212D01*
X130312654Y-70530289D01*
X130312656Y-70530292D01*
X130312657Y-70530293D01*
X130460323Y-70722736D01*
X130460329Y-70722743D01*
X130631846Y-70894260D01*
X130631853Y-70894266D01*
X130698869Y-70945689D01*
X130824301Y-71041936D01*
X131034378Y-71163224D01*
X131258490Y-71256054D01*
X131492801Y-71318838D01*
X131673176Y-71342584D01*
X131733301Y-71350500D01*
X131733302Y-71350500D01*
X131975879Y-71350500D01*
X132023978Y-71344167D01*
X132216379Y-71318838D01*
X132450690Y-71256054D01*
X132674802Y-71163224D01*
X132884879Y-71041936D01*
X133077328Y-70894265D01*
X133248855Y-70722738D01*
X133396526Y-70530289D01*
X133517814Y-70320212D01*
X133610644Y-70096100D01*
X133673428Y-69861789D01*
X133705090Y-69621288D01*
X133705090Y-69378712D01*
X133673428Y-69138211D01*
X133610644Y-68903900D01*
X133606653Y-68894266D01*
X133535604Y-68722738D01*
X133517814Y-68679788D01*
X133396526Y-68469711D01*
X133248855Y-68277262D01*
X133248850Y-68277256D01*
X133077333Y-68105739D01*
X133077326Y-68105733D01*
X132884883Y-67958067D01*
X132884882Y-67958066D01*
X132884879Y-67958064D01*
X132674802Y-67836776D01*
X132674795Y-67836773D01*
X132450694Y-67743947D01*
X132216375Y-67681161D01*
X131975879Y-67649500D01*
X131975878Y-67649500D01*
X131733302Y-67649500D01*
X131733301Y-67649500D01*
X131492804Y-67681161D01*
X131258485Y-67743947D01*
X131034384Y-67836773D01*
X131034375Y-67836777D01*
X130824296Y-67958067D01*
X130631853Y-68105733D01*
X130631846Y-68105739D01*
X130460329Y-68277256D01*
X130460323Y-68277263D01*
X130312657Y-68469706D01*
X130191367Y-68679785D01*
X130191363Y-68679794D01*
X130098537Y-68903895D01*
X130035751Y-69138214D01*
X130004090Y-69378711D01*
X86731500Y-69378711D01*
X86731500Y-67378711D01*
X126004090Y-67378711D01*
X126004090Y-67621288D01*
X126035751Y-67861785D01*
X126098537Y-68096104D01*
X126173576Y-68277263D01*
X126191366Y-68320212D01*
X126312654Y-68530289D01*
X126312656Y-68530292D01*
X126312657Y-68530293D01*
X126460323Y-68722736D01*
X126460329Y-68722743D01*
X126631846Y-68894260D01*
X126631853Y-68894266D01*
X126713712Y-68957078D01*
X126824301Y-69041936D01*
X127034378Y-69163224D01*
X127258490Y-69256054D01*
X127492801Y-69318838D01*
X127673176Y-69342584D01*
X127733301Y-69350500D01*
X127733302Y-69350500D01*
X127975879Y-69350500D01*
X128023978Y-69344167D01*
X128216379Y-69318838D01*
X128450690Y-69256054D01*
X128674802Y-69163224D01*
X128884879Y-69041936D01*
X129077328Y-68894265D01*
X129248855Y-68722738D01*
X129396526Y-68530289D01*
X129517814Y-68320212D01*
X129610644Y-68096100D01*
X129673428Y-67861789D01*
X129705090Y-67621288D01*
X129705090Y-67378751D01*
X134004590Y-67378751D01*
X134004590Y-67621248D01*
X134004591Y-67621264D01*
X134036243Y-67861687D01*
X134099011Y-68095939D01*
X134191810Y-68319978D01*
X134191817Y-68319992D01*
X134313071Y-68530010D01*
X134381651Y-68619384D01*
X135046087Y-67954947D01*
X135136095Y-68089653D01*
X135264937Y-68218495D01*
X135399640Y-68308501D01*
X134735204Y-68972936D01*
X134735204Y-68972937D01*
X134824579Y-69041517D01*
X134824586Y-69041522D01*
X135034597Y-69162772D01*
X135034611Y-69162779D01*
X135258650Y-69255578D01*
X135492902Y-69318346D01*
X135733325Y-69349998D01*
X135733342Y-69350000D01*
X135975838Y-69350000D01*
X135975854Y-69349998D01*
X136216277Y-69318346D01*
X136450529Y-69255578D01*
X136674568Y-69162779D01*
X136674582Y-69162772D01*
X136884606Y-69041515D01*
X136973974Y-68972939D01*
X136973974Y-68972936D01*
X136309538Y-68308501D01*
X136444243Y-68218495D01*
X136573085Y-68089653D01*
X136663091Y-67954948D01*
X137327526Y-68619384D01*
X137327529Y-68619384D01*
X137396105Y-68530016D01*
X137517362Y-68319992D01*
X137517369Y-68319978D01*
X137610168Y-68095939D01*
X137672936Y-67861687D01*
X137704588Y-67621264D01*
X137704590Y-67621248D01*
X137704590Y-67378751D01*
X137704588Y-67378735D01*
X137672936Y-67138312D01*
X137610168Y-66904060D01*
X137517369Y-66680021D01*
X137517362Y-66680007D01*
X137396112Y-66469996D01*
X137396107Y-66469989D01*
X137327527Y-66380614D01*
X137327526Y-66380614D01*
X136663091Y-67045050D01*
X136573085Y-66910347D01*
X136444243Y-66781505D01*
X136309537Y-66691497D01*
X136973974Y-66027061D01*
X136884600Y-65958481D01*
X136674582Y-65837227D01*
X136674568Y-65837220D01*
X136450529Y-65744421D01*
X136216277Y-65681653D01*
X135975854Y-65650001D01*
X135975838Y-65650000D01*
X135733342Y-65650000D01*
X135733325Y-65650001D01*
X135492902Y-65681653D01*
X135258650Y-65744421D01*
X135034611Y-65837220D01*
X135034596Y-65837227D01*
X134824580Y-65958480D01*
X134735204Y-66027060D01*
X134735204Y-66027061D01*
X135399641Y-66691498D01*
X135264937Y-66781505D01*
X135136095Y-66910347D01*
X135046088Y-67045051D01*
X134381651Y-66380614D01*
X134381650Y-66380614D01*
X134313070Y-66469990D01*
X134191817Y-66680006D01*
X134191810Y-66680021D01*
X134099011Y-66904060D01*
X134036243Y-67138312D01*
X134004591Y-67378735D01*
X134004590Y-67378751D01*
X129705090Y-67378751D01*
X129705090Y-67378712D01*
X129673428Y-67138211D01*
X129610644Y-66903900D01*
X129517814Y-66679788D01*
X129396526Y-66469711D01*
X129248855Y-66277262D01*
X129248850Y-66277256D01*
X129077333Y-66105739D01*
X129077326Y-66105733D01*
X128884883Y-65958067D01*
X128884882Y-65958066D01*
X128884879Y-65958064D01*
X128674802Y-65836776D01*
X128662077Y-65831505D01*
X128450694Y-65743947D01*
X128216375Y-65681161D01*
X127975879Y-65649500D01*
X127975878Y-65649500D01*
X127733302Y-65649500D01*
X127733301Y-65649500D01*
X127492804Y-65681161D01*
X127258485Y-65743947D01*
X127034384Y-65836773D01*
X127034375Y-65836777D01*
X126824296Y-65958067D01*
X126631853Y-66105733D01*
X126631846Y-66105739D01*
X126460329Y-66277256D01*
X126460323Y-66277263D01*
X126312657Y-66469706D01*
X126312654Y-66469710D01*
X126312654Y-66469711D01*
X126296407Y-66497851D01*
X126191367Y-66679785D01*
X126191363Y-66679794D01*
X126098537Y-66903895D01*
X126035751Y-67138214D01*
X126004090Y-67378711D01*
X86731500Y-67378711D01*
X86731500Y-65954243D01*
X86751185Y-65887204D01*
X86803989Y-65841449D01*
X86873147Y-65831505D01*
X86911793Y-65843758D01*
X86936604Y-65856400D01*
X87157486Y-65928169D01*
X87275668Y-65946886D01*
X87386871Y-65964500D01*
X87386876Y-65964500D01*
X87619129Y-65964500D01*
X87720502Y-65948443D01*
X87848514Y-65928169D01*
X88069396Y-65856400D01*
X88276331Y-65750961D01*
X88464224Y-65614449D01*
X88628449Y-65450224D01*
X88764961Y-65262331D01*
X88870400Y-65055396D01*
X88942169Y-64834514D01*
X88962443Y-64706502D01*
X88978500Y-64605129D01*
X88978500Y-64372870D01*
X91107500Y-64372870D01*
X91107500Y-64605129D01*
X91143831Y-64834514D01*
X91215601Y-65055400D01*
X91321039Y-65262331D01*
X91457551Y-65450224D01*
X91621776Y-65614449D01*
X91809669Y-65750961D01*
X91907436Y-65800776D01*
X92016599Y-65856398D01*
X92016601Y-65856398D01*
X92016604Y-65856400D01*
X92237486Y-65928169D01*
X92355668Y-65946886D01*
X92466871Y-65964500D01*
X92466876Y-65964500D01*
X92699129Y-65964500D01*
X92800502Y-65948443D01*
X92928514Y-65928169D01*
X93149396Y-65856400D01*
X93356331Y-65750961D01*
X93544224Y-65614449D01*
X93708449Y-65450224D01*
X93844961Y-65262331D01*
X93950400Y-65055396D01*
X94022169Y-64834514D01*
X94042443Y-64706502D01*
X94058500Y-64605129D01*
X94058500Y-64372870D01*
X111427500Y-64372870D01*
X111427500Y-64605129D01*
X111463831Y-64834514D01*
X111535601Y-65055400D01*
X111641039Y-65262331D01*
X111777551Y-65450224D01*
X111941776Y-65614449D01*
X112129669Y-65750961D01*
X112227436Y-65800776D01*
X112336599Y-65856398D01*
X112336601Y-65856398D01*
X112336604Y-65856400D01*
X112557486Y-65928169D01*
X112675668Y-65946886D01*
X112786871Y-65964500D01*
X112786876Y-65964500D01*
X113019129Y-65964500D01*
X113120502Y-65948443D01*
X113248514Y-65928169D01*
X113469396Y-65856400D01*
X113676331Y-65750961D01*
X113864224Y-65614449D01*
X114028449Y-65450224D01*
X114164961Y-65262331D01*
X114270400Y-65055396D01*
X114342169Y-64834514D01*
X114362443Y-64706502D01*
X114378500Y-64605129D01*
X114378500Y-64372870D01*
X114359232Y-64251222D01*
X114342169Y-64143486D01*
X114270400Y-63922604D01*
X114270398Y-63922601D01*
X114270398Y-63922599D01*
X114164960Y-63715668D01*
X114028449Y-63527776D01*
X113864224Y-63363551D01*
X113676331Y-63227039D01*
X113623539Y-63200140D01*
X113469400Y-63121601D01*
X113248514Y-63049831D01*
X113019129Y-63013500D01*
X113019124Y-63013500D01*
X112786876Y-63013500D01*
X112786871Y-63013500D01*
X112557485Y-63049831D01*
X112336599Y-63121601D01*
X112129668Y-63227039D01*
X111941773Y-63363553D01*
X111777553Y-63527773D01*
X111641039Y-63715668D01*
X111535601Y-63922599D01*
X111463831Y-64143485D01*
X111427500Y-64372870D01*
X94058500Y-64372870D01*
X94039232Y-64251222D01*
X94022169Y-64143486D01*
X93950400Y-63922604D01*
X93950398Y-63922601D01*
X93950398Y-63922599D01*
X93844960Y-63715668D01*
X93708449Y-63527776D01*
X93544224Y-63363551D01*
X93356331Y-63227039D01*
X93303539Y-63200140D01*
X93149400Y-63121601D01*
X92928514Y-63049831D01*
X92699129Y-63013500D01*
X92699124Y-63013500D01*
X92466876Y-63013500D01*
X92466871Y-63013500D01*
X92237485Y-63049831D01*
X92016599Y-63121601D01*
X91809668Y-63227039D01*
X91621773Y-63363553D01*
X91457553Y-63527773D01*
X91321039Y-63715668D01*
X91215601Y-63922599D01*
X91143831Y-64143485D01*
X91107500Y-64372870D01*
X88978500Y-64372870D01*
X88959232Y-64251222D01*
X88942169Y-64143486D01*
X88870400Y-63922604D01*
X88870398Y-63922601D01*
X88870398Y-63922599D01*
X88764960Y-63715668D01*
X88628449Y-63527776D01*
X88464224Y-63363551D01*
X88276331Y-63227039D01*
X88223539Y-63200140D01*
X88069400Y-63121601D01*
X87873585Y-63057977D01*
X87815910Y-63018539D01*
X87788712Y-62954180D01*
X87800627Y-62885334D01*
X87824220Y-62852368D01*
X89286400Y-61390188D01*
X130679090Y-61390188D01*
X130679090Y-61609811D01*
X130679091Y-61609828D01*
X130707757Y-61827573D01*
X130764604Y-62039729D01*
X130848653Y-62242641D01*
X130848655Y-62242645D01*
X130958474Y-62432855D01*
X130958479Y-62432861D01*
X130958480Y-62432863D01*
X131092178Y-62607102D01*
X131092184Y-62607109D01*
X131247480Y-62762405D01*
X131247486Y-62762410D01*
X131421735Y-62896116D01*
X131611945Y-63005935D01*
X131630209Y-63013500D01*
X131814860Y-63089985D01*
X131814861Y-63089985D01*
X131814863Y-63089986D01*
X132027015Y-63146832D01*
X132244772Y-63175500D01*
X132244779Y-63175500D01*
X132464401Y-63175500D01*
X132464408Y-63175500D01*
X132682165Y-63146832D01*
X132894317Y-63089986D01*
X133097235Y-63005935D01*
X133287445Y-62896116D01*
X133461694Y-62762410D01*
X133617000Y-62607104D01*
X133750706Y-62432855D01*
X133860525Y-62242645D01*
X133944576Y-62039727D01*
X134001422Y-61827575D01*
X134030090Y-61609818D01*
X134030090Y-61390182D01*
X134001422Y-61172425D01*
X133944576Y-60960273D01*
X133860525Y-60757355D01*
X133750706Y-60567145D01*
X133617000Y-60392896D01*
X133616995Y-60392890D01*
X133461699Y-60237594D01*
X133461692Y-60237588D01*
X133287453Y-60103890D01*
X133287451Y-60103889D01*
X133287445Y-60103884D01*
X133097235Y-59994065D01*
X133097231Y-59994063D01*
X132894319Y-59910014D01*
X132682163Y-59853167D01*
X132464418Y-59824501D01*
X132464413Y-59824500D01*
X132464408Y-59824500D01*
X132244772Y-59824500D01*
X132244766Y-59824500D01*
X132244761Y-59824501D01*
X132027016Y-59853167D01*
X131814860Y-59910014D01*
X131611948Y-59994063D01*
X131611944Y-59994065D01*
X131421735Y-60103884D01*
X131421726Y-60103890D01*
X131247487Y-60237588D01*
X131247480Y-60237594D01*
X131092184Y-60392890D01*
X131092178Y-60392897D01*
X130958480Y-60567136D01*
X130958474Y-60567145D01*
X130848655Y-60757354D01*
X130848653Y-60757358D01*
X130764604Y-60960270D01*
X130707757Y-61172426D01*
X130679091Y-61390171D01*
X130679090Y-61390188D01*
X89286400Y-61390188D01*
X92288580Y-58388009D01*
X92349901Y-58354526D01*
X92395652Y-58353219D01*
X92466876Y-58364500D01*
X92466878Y-58364500D01*
X92699129Y-58364500D01*
X92800502Y-58348443D01*
X92928514Y-58328169D01*
X93149396Y-58256400D01*
X93356331Y-58150961D01*
X93544224Y-58014449D01*
X93708449Y-57850224D01*
X93844961Y-57662331D01*
X93950400Y-57455396D01*
X94022169Y-57234514D01*
X94042443Y-57106502D01*
X94058500Y-57005129D01*
X94058500Y-56772870D01*
X94039232Y-56651222D01*
X94022169Y-56543486D01*
X93950400Y-56322604D01*
X93950398Y-56322601D01*
X93950398Y-56322599D01*
X93912145Y-56247526D01*
X93844961Y-56115669D01*
X93708449Y-55927776D01*
X93646808Y-55866135D01*
X111427500Y-55866135D01*
X111427500Y-57911870D01*
X111427501Y-57911876D01*
X111433908Y-57971483D01*
X111484202Y-58106328D01*
X111484206Y-58106335D01*
X111570452Y-58221544D01*
X111570455Y-58221547D01*
X111685664Y-58307793D01*
X111685671Y-58307797D01*
X111820517Y-58358091D01*
X111820516Y-58358091D01*
X111827444Y-58358835D01*
X111880127Y-58364500D01*
X113925872Y-58364499D01*
X113985483Y-58358091D01*
X114120331Y-58307796D01*
X114235546Y-58221546D01*
X114321796Y-58106331D01*
X114372091Y-57971483D01*
X114378500Y-57911873D01*
X114378499Y-55866128D01*
X114372091Y-55806517D01*
X114356066Y-55763553D01*
X114321797Y-55671671D01*
X114321793Y-55671664D01*
X114235547Y-55556455D01*
X114235544Y-55556452D01*
X114120335Y-55470206D01*
X114120328Y-55470202D01*
X113985482Y-55419908D01*
X113985483Y-55419908D01*
X113925883Y-55413501D01*
X113925881Y-55413500D01*
X113925873Y-55413500D01*
X113925864Y-55413500D01*
X111880129Y-55413500D01*
X111880123Y-55413501D01*
X111820516Y-55419908D01*
X111685671Y-55470202D01*
X111685664Y-55470206D01*
X111570455Y-55556452D01*
X111570452Y-55556455D01*
X111484206Y-55671664D01*
X111484202Y-55671671D01*
X111433908Y-55806517D01*
X111427501Y-55866116D01*
X111427501Y-55866123D01*
X111427500Y-55866135D01*
X93646808Y-55866135D01*
X93544224Y-55763551D01*
X93356331Y-55627039D01*
X93149400Y-55521601D01*
X92928514Y-55449831D01*
X92699129Y-55413500D01*
X92699124Y-55413500D01*
X92466876Y-55413500D01*
X92466871Y-55413500D01*
X92237485Y-55449831D01*
X92016599Y-55521601D01*
X91809668Y-55627039D01*
X91621773Y-55763553D01*
X91457553Y-55927773D01*
X91321039Y-56115668D01*
X91215601Y-56322599D01*
X91143831Y-56543485D01*
X91107500Y-56772870D01*
X91107500Y-57005129D01*
X91143831Y-57234514D01*
X91215601Y-57455400D01*
X91254498Y-57531738D01*
X91267394Y-57600407D01*
X91241118Y-57665148D01*
X91231694Y-57675714D01*
X85707269Y-63200140D01*
X85620144Y-63287264D01*
X85620138Y-63287272D01*
X85551692Y-63389705D01*
X85551684Y-63389719D01*
X85518347Y-63470207D01*
X85512823Y-63483543D01*
X85504537Y-63503545D01*
X85504535Y-63503553D01*
X85480500Y-63624389D01*
X85480500Y-86884908D01*
X85460815Y-86951947D01*
X85408011Y-86997702D01*
X85338853Y-87007646D01*
X85275297Y-86978621D01*
X85252908Y-86953060D01*
X84228197Y-85395500D01*
X83713263Y-84612800D01*
X83692863Y-84545978D01*
X83692858Y-84545328D01*
X83585629Y-56772870D01*
X86027500Y-56772870D01*
X86027500Y-57005129D01*
X86063831Y-57234514D01*
X86135601Y-57455400D01*
X86174498Y-57531738D01*
X86241039Y-57662331D01*
X86377551Y-57850224D01*
X86541776Y-58014449D01*
X86729669Y-58150961D01*
X86827436Y-58200776D01*
X86936599Y-58256398D01*
X86936601Y-58256398D01*
X86936604Y-58256400D01*
X87157486Y-58328169D01*
X87275668Y-58346886D01*
X87386871Y-58364500D01*
X87386876Y-58364500D01*
X87619129Y-58364500D01*
X87720502Y-58348443D01*
X87848514Y-58328169D01*
X88069396Y-58256400D01*
X88276331Y-58150961D01*
X88464224Y-58014449D01*
X88628449Y-57850224D01*
X88764961Y-57662331D01*
X88870400Y-57455396D01*
X88942169Y-57234514D01*
X88962443Y-57106502D01*
X88978500Y-57005129D01*
X88978500Y-56772870D01*
X88959232Y-56651222D01*
X88942169Y-56543486D01*
X88870400Y-56322604D01*
X88870398Y-56322601D01*
X88870398Y-56322599D01*
X88764960Y-56115668D01*
X88764958Y-56115665D01*
X88628449Y-55927776D01*
X88464224Y-55763551D01*
X88276331Y-55627039D01*
X88069400Y-55521601D01*
X87848514Y-55449831D01*
X87619129Y-55413500D01*
X87619124Y-55413500D01*
X87386876Y-55413500D01*
X87386871Y-55413500D01*
X87157485Y-55449831D01*
X86936599Y-55521601D01*
X86729668Y-55627039D01*
X86541773Y-55763553D01*
X86377553Y-55927773D01*
X86241039Y-56115668D01*
X86135601Y-56322599D01*
X86063831Y-56543485D01*
X86027500Y-56772870D01*
X83585629Y-56772870D01*
X83566476Y-51812336D01*
X83585901Y-51745222D01*
X83638528Y-51699263D01*
X83689330Y-51687863D01*
X138559776Y-51182144D01*
X138626991Y-51201210D01*
G37*
%TD.AperFunction*%
%TD*%
M02*
