%TF.GenerationSoftware,KiCad,Pcbnew,9.0.8*%
%TF.CreationDate,2026-03-28T21:38:23-07:00*%
%TF.ProjectId,Shutdown_Circuit,53687574-646f-4776-9e5f-436972637569,rev?*%
%TF.SameCoordinates,Original*%
%TF.FileFunction,Soldermask,Top*%
%TF.FilePolarity,Negative*%
%FSLAX46Y46*%
G04 Gerber Fmt 4.6, Leading zero omitted, Abs format (unit mm)*
G04 Created by KiCad (PCBNEW 9.0.8) date 2026-03-28 21:38:23*
%MOMM*%
%LPD*%
G01*
G04 APERTURE LIST*
G04 Aperture macros list*
%AMRoundRect*
0 Rectangle with rounded corners*
0 $1 Rounding radius*
0 $2 $3 $4 $5 $6 $7 $8 $9 X,Y pos of 4 corners*
0 Add a 4 corners polygon primitive as box body*
4,1,4,$2,$3,$4,$5,$6,$7,$8,$9,$2,$3,0*
0 Add four circle primitives for the rounded corners*
1,1,$1+$1,$2,$3*
1,1,$1+$1,$4,$5*
1,1,$1+$1,$6,$7*
1,1,$1+$1,$8,$9*
0 Add four rect primitives between the rounded corners*
20,1,$1+$1,$2,$3,$4,$5,0*
20,1,$1+$1,$4,$5,$6,$7,0*
20,1,$1+$1,$6,$7,$8,$9,0*
20,1,$1+$1,$8,$9,$2,$3,0*%
G04 Aperture macros list end*
%ADD10R,0.640000X0.420000*%
%ADD11R,1.000000X1.000000*%
%ADD12R,1.950000X1.950000*%
%ADD13C,1.950000*%
%ADD14RoundRect,0.200000X0.275000X-0.200000X0.275000X0.200000X-0.275000X0.200000X-0.275000X-0.200000X0*%
%ADD15R,0.420000X0.640000*%
%ADD16RoundRect,0.200000X-0.200000X-0.275000X0.200000X-0.275000X0.200000X0.275000X-0.200000X0.275000X0*%
%ADD17RoundRect,0.200000X0.200000X0.275000X-0.200000X0.275000X-0.200000X-0.275000X0.200000X-0.275000X0*%
%ADD18RoundRect,0.200000X-0.275000X0.200000X-0.275000X-0.200000X0.275000X-0.200000X0.275000X0.200000X0*%
%ADD19RoundRect,0.218750X-0.256250X0.218750X-0.256250X-0.218750X0.256250X-0.218750X0.256250X0.218750X0*%
%ADD20RoundRect,0.218750X0.218750X0.256250X-0.218750X0.256250X-0.218750X-0.256250X0.218750X-0.256250X0*%
%ADD21RoundRect,0.218750X0.256250X-0.218750X0.256250X0.218750X-0.256250X0.218750X-0.256250X-0.218750X0*%
%ADD22C,2.700000*%
G04 APERTURE END LIST*
D10*
%TO.C,D2*%
X118931000Y-54236000D03*
X120431000Y-54236000D03*
%TD*%
D11*
%TO.C,Q3*%
X126179000Y-91501000D03*
X124079000Y-90551000D03*
X126179000Y-89601000D03*
%TD*%
%TO.C,Q1*%
X133545000Y-89723000D03*
X131445000Y-88773000D03*
X133545000Y-87823000D03*
%TD*%
%TO.C,Q2*%
X122877000Y-65593000D03*
X120777000Y-64643000D03*
X122877000Y-63693000D03*
%TD*%
D12*
%TO.C,K1*%
X115986000Y-92008000D03*
D13*
X95666000Y-92008000D03*
X90586000Y-92008000D03*
X90586000Y-99608000D03*
X95666000Y-99608000D03*
X115986000Y-99608000D03*
%TD*%
D14*
%TO.C,R6*%
X120523000Y-82867000D03*
X120523000Y-81217000D03*
%TD*%
D12*
%TO.C,K3*%
X114427000Y-76320000D03*
D13*
X94107000Y-76320000D03*
X89027000Y-76320000D03*
X89027000Y-83920000D03*
X94107000Y-83920000D03*
X114427000Y-83920000D03*
%TD*%
D15*
%TO.C,D1*%
X122682000Y-94500000D03*
X122682000Y-96000000D03*
%TD*%
D16*
%TO.C,R8*%
X129223000Y-56515000D03*
X130873000Y-56515000D03*
%TD*%
D17*
%TO.C,R5*%
X120078000Y-57785000D03*
X118428000Y-57785000D03*
%TD*%
D12*
%TO.C,K2*%
X112903000Y-56889000D03*
D13*
X92583000Y-56889000D03*
X87503000Y-56889000D03*
X87503000Y-64489000D03*
X92583000Y-64489000D03*
X112903000Y-64489000D03*
%TD*%
D18*
%TO.C,R4*%
X129540000Y-93409000D03*
X129540000Y-95059000D03*
%TD*%
D19*
%TO.C,D6*%
X120777000Y-85217000D03*
X120777000Y-86792000D03*
%TD*%
D20*
%TO.C,D8*%
X135177500Y-56500000D03*
X133602500Y-56500000D03*
%TD*%
D21*
%TO.C,D5*%
X134620000Y-96037500D03*
X134620000Y-94462500D03*
%TD*%
%TO.C,D4*%
X123999000Y-58833500D03*
X123999000Y-57258500D03*
%TD*%
D15*
%TO.C,D3*%
X124460000Y-81165000D03*
X124460000Y-82665000D03*
%TD*%
D22*
%TO.C,J2*%
X127854590Y-75500000D03*
X127854590Y-71500000D03*
X127854590Y-67500000D03*
X131854590Y-73500000D03*
X131854590Y-69500000D03*
X135854590Y-75500000D03*
X135854590Y-71500000D03*
X135854590Y-67500000D03*
%TD*%
M02*
