%TF.GenerationSoftware,KiCad,Pcbnew,9.0.6*%
%TF.CreationDate,2026-03-29T22:51:09-07:00*%
%TF.ProjectId,Ready_to_Move_Lights_2,52656164-795f-4746-9f5f-4d6f76655f4c,rev?*%
%TF.SameCoordinates,Original*%
%TF.FileFunction,Soldermask,Bot*%
%TF.FilePolarity,Negative*%
%FSLAX46Y46*%
G04 Gerber Fmt 4.6, Leading zero omitted, Abs format (unit mm)*
G04 Created by KiCad (PCBNEW 9.0.6) date 2026-03-29 22:51:09*
%MOMM*%
%LPD*%
G01*
G04 APERTURE LIST*
G04 Aperture macros list*
%AMRoundRect*
0 Rectangle with rounded corners*
0 $1 Rounding radius*
0 $2 $3 $4 $5 $6 $7 $8 $9 X,Y pos of 4 corners*
0 Add a 4 corners polygon primitive as box body*
4,1,4,$2,$3,$4,$5,$6,$7,$8,$9,$2,$3,0*
0 Add four circle primitives for the rounded corners*
1,1,$1+$1,$2,$3*
1,1,$1+$1,$4,$5*
1,1,$1+$1,$6,$7*
1,1,$1+$1,$8,$9*
0 Add four rect primitives between the rounded corners*
20,1,$1+$1,$2,$3,$4,$5,0*
20,1,$1+$1,$4,$5,$6,$7,0*
20,1,$1+$1,$6,$7,$8,$9,0*
20,1,$1+$1,$8,$9,$2,$3,0*%
G04 Aperture macros list end*
%ADD10C,2.700000*%
%ADD11C,2.490000*%
%ADD12C,2.184000*%
%ADD13C,3.200000*%
%ADD14C,1.303000*%
%ADD15C,2.400000*%
%ADD16RoundRect,0.249999X0.850001X-0.850001X0.850001X0.850001X-0.850001X0.850001X-0.850001X-0.850001X0*%
%ADD17C,2.200000*%
%ADD18R,1.905000X2.000000*%
%ADD19O,1.905000X2.000000*%
G04 APERTURE END LIST*
D10*
%TO.C,J2*%
X116130000Y-56960000D03*
X116130000Y-60960000D03*
X116130000Y-64960000D03*
X112130000Y-58960000D03*
X112130000Y-62960000D03*
X108130000Y-56960000D03*
X108130000Y-60960000D03*
X108130000Y-64960000D03*
%TD*%
D11*
%TO.C,J1*%
X105410000Y-88900000D03*
X105410000Y-110490000D03*
D12*
X111440000Y-95250000D03*
X111440000Y-97790000D03*
X108900000Y-95250000D03*
X108900000Y-97790000D03*
X106360000Y-95250000D03*
X106360000Y-97790000D03*
X103820000Y-95250000D03*
X103820000Y-97790000D03*
X111440000Y-101600000D03*
X111440000Y-104140000D03*
X108900000Y-101600000D03*
X108900000Y-104140000D03*
X106360000Y-101600000D03*
X106360000Y-104140000D03*
X103820000Y-101600000D03*
X103820000Y-104140000D03*
%TD*%
D13*
%TO.C,*%
X173990000Y-40640000D03*
%TD*%
%TO.C,*%
X173990000Y-96520000D03*
%TD*%
%TO.C,*%
X118110000Y-40640000D03*
%TD*%
D14*
%TO.C,PS1*%
X132080000Y-84760000D03*
X129540000Y-84760000D03*
X127000000Y-84760000D03*
X124460000Y-84760000D03*
%TD*%
%TO.C,VR1*%
X153670000Y-49530000D03*
X151130000Y-46990000D03*
X148590000Y-49530000D03*
%TD*%
D13*
%TO.C,*%
X118110000Y-110490000D03*
%TD*%
D15*
%TO.C,RED_TP1*%
X163830000Y-47432000D03*
%TD*%
D16*
%TO.C,D2*%
X175260000Y-77470000D03*
D17*
X175260000Y-67310000D03*
%TD*%
D18*
%TO.C,Q1*%
X160020000Y-67310000D03*
D19*
X157480000Y-67310000D03*
X154940000Y-67310000D03*
%TD*%
M02*
