M48
; DRILL file {KiCad 9.0.6} date 2026-03-29T22:52:31-0700
; FORMAT={-:-/ absolute / metric / decimal}
; #@! TF.CreationDate,2026-03-29T22:52:31-07:00
; #@! TF.GenerationSoftware,Kicad,Pcbnew,9.0.6
; #@! TF.FileFunction,Plated,1,2,PTH
FMAT,2
METRIC
; #@! TA.AperFunction,Plated,PTH,ViaDrill
T1C0.300
; #@! TA.AperFunction,Plated,PTH,ComponentDrill
T2C0.760
; #@! TA.AperFunction,Plated,PTH,ComponentDrill
T3C1.100
; #@! TA.AperFunction,Plated,PTH,ComponentDrill
T4C1.320
; #@! TA.AperFunction,Plated,PTH,ComponentDrill
T5C1.600
; #@! TA.AperFunction,Plated,PTH,ComponentDrill
T6C1.850
%
G90
G05
T1
X119.38Y-92.71
X119.38Y-102.87
X121.92Y-91.44
X123.19Y-53.34
X123.19Y-71.12
X124.46Y-44.45
X125.73Y-106.68
X127.0Y-68.58
X132.08Y-81.28
X133.35Y-78.74
X137.16Y-63.5
X137.16Y-95.25
X137.16Y-100.33
X137.16Y-104.14
X140.97Y-64.77
X142.24Y-52.07
X143.51Y-66.04
X143.51Y-73.66
X147.32Y-100.33
X149.86Y-96.52
X151.13Y-72.39
X151.13Y-97.79
X152.4Y-72.39
X153.67Y-90.17
X153.67Y-96.52
X153.67Y-101.6
X156.21Y-64.77
X157.48Y-71.12
X158.75Y-72.39
X161.29Y-58.42
X162.56Y-87.63
X163.83Y-50.8
X163.83Y-74.93
X163.83Y-85.09
X165.1Y-76.2
X166.37Y-69.85
X168.91Y-77.47
X171.45Y-66.04
X173.99Y-82.55
T2
X124.46Y-84.76
X127.0Y-84.76
X129.54Y-84.76
X132.08Y-84.76
X148.59Y-49.53
X151.13Y-46.99
X153.67Y-49.53
T3
X154.94Y-67.31
X157.48Y-67.31
X160.02Y-67.31
X175.26Y-67.31
X175.26Y-77.47
T4
X103.82Y-95.25
X103.82Y-97.79
X103.82Y-101.6
X103.82Y-104.14
X106.36Y-95.25
X106.36Y-97.79
X106.36Y-101.6
X106.36Y-104.14
X108.9Y-95.25
X108.9Y-97.79
X108.9Y-101.6
X108.9Y-104.14
X111.44Y-95.25
X111.44Y-97.79
X111.44Y-101.6
X111.44Y-104.14
T5
X163.83Y-47.432
T6
X108.13Y-56.96
X108.13Y-60.96
X108.13Y-64.96
X112.13Y-58.96
X112.13Y-62.96
X116.13Y-56.96
X116.13Y-60.96
X116.13Y-64.96
M30
