%TF.GenerationSoftware,KiCad,Pcbnew,9.0.6*%
%TF.CreationDate,2026-03-29T22:51:09-07:00*%
%TF.ProjectId,Ready_to_Move_Lights_2,52656164-795f-4746-9f5f-4d6f76655f4c,rev?*%
%TF.SameCoordinates,Original*%
%TF.FileFunction,Copper,L2,Bot*%
%TF.FilePolarity,Positive*%
%FSLAX46Y46*%
G04 Gerber Fmt 4.6, Leading zero omitted, Abs format (unit mm)*
G04 Created by KiCad (PCBNEW 9.0.6) date 2026-03-29 22:51:09*
%MOMM*%
%LPD*%
G01*
G04 APERTURE LIST*
G04 Aperture macros list*
%AMRoundRect*
0 Rectangle with rounded corners*
0 $1 Rounding radius*
0 $2 $3 $4 $5 $6 $7 $8 $9 X,Y pos of 4 corners*
0 Add a 4 corners polygon primitive as box body*
4,1,4,$2,$3,$4,$5,$6,$7,$8,$9,$2,$3,0*
0 Add four circle primitives for the rounded corners*
1,1,$1+$1,$2,$3*
1,1,$1+$1,$4,$5*
1,1,$1+$1,$6,$7*
1,1,$1+$1,$8,$9*
0 Add four rect primitives between the rounded corners*
20,1,$1+$1,$2,$3,$4,$5,0*
20,1,$1+$1,$4,$5,$6,$7,0*
20,1,$1+$1,$6,$7,$8,$9,0*
20,1,$1+$1,$8,$9,$2,$3,0*%
G04 Aperture macros list end*
%TA.AperFunction,ComponentPad*%
%ADD10C,2.700000*%
%TD*%
%TA.AperFunction,ComponentPad*%
%ADD11C,1.980000*%
%TD*%
%TA.AperFunction,ComponentPad*%
%ADD12C,1.303000*%
%TD*%
%TA.AperFunction,ComponentPad*%
%ADD13C,2.400000*%
%TD*%
%TA.AperFunction,ComponentPad*%
%ADD14RoundRect,0.249999X0.850001X-0.850001X0.850001X0.850001X-0.850001X0.850001X-0.850001X-0.850001X0*%
%TD*%
%TA.AperFunction,ComponentPad*%
%ADD15C,2.200000*%
%TD*%
%TA.AperFunction,ComponentPad*%
%ADD16R,1.905000X2.000000*%
%TD*%
%TA.AperFunction,ComponentPad*%
%ADD17O,1.905000X2.000000*%
%TD*%
%TA.AperFunction,ViaPad*%
%ADD18C,0.600000*%
%TD*%
%TA.AperFunction,Conductor*%
%ADD19C,0.200000*%
%TD*%
G04 APERTURE END LIST*
D10*
%TO.P,J2,1,Pin_1*%
%TO.N,/12V Master*%
X116130000Y-56960000D03*
%TO.P,J2,2,Pin_2*%
%TO.N,GND*%
X116130000Y-60960000D03*
%TO.P,J2,3,Pin_3*%
%TO.N,/Light1+*%
X116130000Y-64960000D03*
%TO.P,J2,4,Pin_4*%
%TO.N,/Light1GND*%
X112130000Y-58960000D03*
%TO.P,J2,5,Pin_5*%
%TO.N,/Light1+*%
X112130000Y-62960000D03*
%TO.P,J2,6,Pin_6*%
%TO.N,/Light2GND*%
X108130000Y-56960000D03*
%TO.P,J2,7,Pin_7*%
%TO.N,unconnected-(J2-Pin_7-Pad7)*%
X108130000Y-60960000D03*
%TO.P,J2,8,Pin_8*%
%TO.N,unconnected-(J2-Pin_8-Pad8)*%
X108130000Y-64960000D03*
%TD*%
D11*
%TO.P,J1,01_1,01*%
%TO.N,01*%
X111440000Y-95250000D03*
%TO.P,J1,01_2,01*%
X111440000Y-97790000D03*
%TO.P,J1,01_3,01*%
X108900000Y-95250000D03*
%TO.P,J1,01_4,01*%
X108900000Y-97790000D03*
%TO.P,J1,01_5,01*%
X106360000Y-95250000D03*
%TO.P,J1,01_6,01*%
X106360000Y-97790000D03*
%TO.P,J1,01_7,01*%
X103820000Y-95250000D03*
%TO.P,J1,01_8,01*%
X103820000Y-97790000D03*
%TO.P,J1,02_1,02*%
%TO.N,02*%
X111440000Y-101600000D03*
%TO.P,J1,02_2,02*%
X111440000Y-104140000D03*
%TO.P,J1,02_3,02*%
X108900000Y-101600000D03*
%TO.P,J1,02_4,02*%
X108900000Y-104140000D03*
%TO.P,J1,02_5,02*%
X106360000Y-101600000D03*
%TO.P,J1,02_6,02*%
X106360000Y-104140000D03*
%TO.P,J1,02_7,02*%
X103820000Y-101600000D03*
%TO.P,J1,02_8,02*%
X103820000Y-104140000D03*
%TD*%
D12*
%TO.P,PS1,1,-VIN_(GND)*%
%TO.N,GND*%
X132080000Y-84760000D03*
%TO.P,PS1,2,+VIN_(VCC)*%
%TO.N,+5V*%
X129540000Y-84760000D03*
%TO.P,PS1,3,-VOUT*%
%TO.N,02*%
X127000000Y-84760000D03*
%TO.P,PS1,4,+VOUT*%
%TO.N,+5VDD*%
X124460000Y-84760000D03*
%TD*%
%TO.P,VR1,1,CCW*%
%TO.N,+5V*%
X153670000Y-49530000D03*
%TO.P,VR1,2,Wiper*%
%TO.N,/V_LOW_REF*%
X151130000Y-46990000D03*
%TO.P,VR1,3,CW*%
%TO.N,GND*%
X148590000Y-49530000D03*
%TD*%
D13*
%TO.P,RED_TP1,1,1*%
%TO.N,/V_LOW_REF*%
X163830000Y-47432000D03*
%TD*%
D14*
%TO.P,D2,1,K*%
%TO.N,Net-(D2-K)*%
X175260000Y-77470000D03*
D15*
%TO.P,D2,2,A*%
%TO.N,Net-(D2-A)*%
X175260000Y-67310000D03*
%TD*%
D16*
%TO.P,Q1,1,G*%
%TO.N,Net-(Q1-G)*%
X160020000Y-67310000D03*
D17*
%TO.P,Q1,2,D*%
%TO.N,Net-(Q1-D)*%
X157480000Y-67310000D03*
%TO.P,Q1,3,S*%
%TO.N,GND*%
X154940000Y-67310000D03*
%TD*%
D18*
%TO.N,GND*%
X124460000Y-44450000D03*
%TO.N,/12V Master*%
X142240000Y-52070000D03*
%TO.N,/Light1GND*%
X123190000Y-53340000D03*
%TO.N,Net-(K1-Pad1)*%
X162560000Y-87630000D03*
X166370000Y-69850000D03*
%TO.N,GND*%
X132080000Y-81280000D03*
%TO.N,+5VDD*%
X125730000Y-106680000D03*
X121920000Y-91440000D03*
%TO.N,Net-(U2-SNSP)*%
X119380000Y-102870000D03*
X119380000Y-92710000D03*
%TO.N,GND*%
X143510000Y-66040000D03*
X156210000Y-64770000D03*
X171450000Y-66040000D03*
X147320000Y-100330000D03*
X137160000Y-95250000D03*
X173990000Y-82550000D03*
X153670000Y-90170000D03*
X151130000Y-72390000D03*
X149860000Y-96520000D03*
%TO.N,+5V*%
X153670000Y-101600000D03*
X153670000Y-96520000D03*
%TO.N,/12V Master*%
X161290000Y-58420000D03*
%TO.N,/Light1+*%
X127000000Y-68580000D03*
X140970000Y-64770000D03*
%TO.N,Net-(D2-K)*%
X158750000Y-72390000D03*
X165100000Y-76200000D03*
X152400000Y-72390000D03*
X168910000Y-77470000D03*
%TO.N,Net-(IC1-IN+)*%
X137160000Y-104140000D03*
X137160000Y-100330000D03*
%TO.N,/Light2GND*%
X133350000Y-78740000D03*
X123190000Y-71120000D03*
%TO.N,/Light1GND*%
X137160000Y-63500000D03*
%TO.N,Net-(Q1-G)*%
X163830000Y-74930000D03*
X163830000Y-85090000D03*
%TO.N,Net-(Q1-D)*%
X143510000Y-73660000D03*
X157480000Y-71120000D03*
%TO.N,/V_LOW_REF*%
X151130000Y-97790000D03*
X163830000Y-50800000D03*
%TD*%
D19*
%TO.N,+5VDD*%
X124460000Y-93980000D02*
X121920000Y-91440000D01*
X124460000Y-97790000D02*
X124460000Y-93980000D01*
%TO.N,/12V Master*%
X142240000Y-54610000D02*
X146050000Y-58420000D01*
X142240000Y-52070000D02*
X142240000Y-54610000D01*
X146050000Y-58420000D02*
X161290000Y-58420000D01*
%TO.N,/Light1GND*%
X125730000Y-55880000D02*
X128270000Y-55880000D01*
X128270000Y-55880000D02*
X135890000Y-63500000D01*
X135890000Y-63500000D02*
X137160000Y-63500000D01*
X123190000Y-53340000D02*
X125730000Y-55880000D01*
%TO.N,Net-(K1-Pad1)*%
X162560000Y-73660000D02*
X163830000Y-72390000D01*
X163830000Y-72390000D02*
X166370000Y-69850000D01*
X162560000Y-87630000D02*
X162560000Y-73660000D01*
%TO.N,+5VDD*%
X124460000Y-97790000D02*
X125730000Y-99060000D01*
X125730000Y-99060000D02*
X125730000Y-106680000D01*
%TO.N,Net-(U2-SNSP)*%
X119380000Y-92710000D02*
X119380000Y-102870000D01*
%TO.N,+5V*%
X153670000Y-101600000D02*
X153670000Y-96520000D01*
%TO.N,/Light1+*%
X139700000Y-66040000D02*
X140970000Y-64770000D01*
X132080000Y-68580000D02*
X134620000Y-66040000D01*
X127000000Y-68580000D02*
X132080000Y-68580000D01*
X134620000Y-66040000D02*
X139700000Y-66040000D01*
%TO.N,Net-(D2-K)*%
X156210000Y-69850000D02*
X157480000Y-69850000D01*
X153670000Y-72390000D02*
X156210000Y-69850000D01*
X166370000Y-77470000D02*
X168910000Y-77470000D01*
X158750000Y-71120000D02*
X158750000Y-72390000D01*
X152400000Y-72390000D02*
X153670000Y-72390000D01*
X165100000Y-76200000D02*
X166370000Y-77470000D01*
X157480000Y-69850000D02*
X158750000Y-71120000D01*
%TO.N,Net-(IC1-IN+)*%
X137160000Y-100330000D02*
X137160000Y-104140000D01*
%TO.N,/Light2GND*%
X133350000Y-78740000D02*
X125730000Y-71120000D01*
X125730000Y-71120000D02*
X123190000Y-71120000D01*
%TO.N,Net-(Q1-G)*%
X163830000Y-74930000D02*
X163830000Y-85090000D01*
%TO.N,Net-(Q1-D)*%
X144780000Y-74930000D02*
X153670000Y-74930000D01*
X153670000Y-74930000D02*
X157480000Y-71120000D01*
X143510000Y-73660000D02*
X144780000Y-74930000D01*
%TO.N,/V_LOW_REF*%
X151130000Y-80010000D02*
X157480000Y-73660000D01*
X163830000Y-69850000D02*
X163830000Y-50800000D01*
X151130000Y-97790000D02*
X151130000Y-80010000D01*
X157480000Y-73660000D02*
X160020000Y-73660000D01*
X160020000Y-73660000D02*
X163830000Y-69850000D01*
%TD*%
%TA.AperFunction,Conductor*%
%TO.N,GND*%
G36*
X177743039Y-38119685D02*
G01*
X177788794Y-38172489D01*
X177800000Y-38224000D01*
X177800000Y-98964197D01*
X177780315Y-99031236D01*
X177727511Y-99076991D01*
X177707300Y-99084182D01*
X129083381Y-111768682D01*
X129080920Y-111769297D01*
X121804456Y-113509321D01*
X121804455Y-113509320D01*
X121797355Y-113511017D01*
X121761131Y-113515290D01*
X121733554Y-113526276D01*
X121724828Y-113528364D01*
X121704689Y-113533180D01*
X121679010Y-113547092D01*
X121665846Y-113553254D01*
X121638711Y-113564066D01*
X121638704Y-113564070D01*
X121622105Y-113576452D01*
X121622106Y-113576453D01*
X121614911Y-113581820D01*
X121588816Y-113595959D01*
X121562324Y-113621053D01*
X121556485Y-113625409D01*
X121556482Y-113625409D01*
X121533084Y-113642867D01*
X121533075Y-113642875D01*
X121520248Y-113659131D01*
X121508188Y-113672333D01*
X121493142Y-113686587D01*
X121477856Y-113711479D01*
X121469533Y-113723403D01*
X121464010Y-113730402D01*
X121407028Y-113770836D01*
X121397967Y-113773573D01*
X119380000Y-114300000D01*
X119380000Y-116716000D01*
X119360315Y-116783039D01*
X119307511Y-116828794D01*
X119256000Y-116840000D01*
X99184000Y-116840000D01*
X99116961Y-116820315D01*
X99071206Y-116767511D01*
X99060000Y-116716000D01*
X99060000Y-110372302D01*
X103914500Y-110372302D01*
X103914500Y-110607697D01*
X103951325Y-110840198D01*
X104024064Y-111064070D01*
X104024065Y-111064073D01*
X104130934Y-111273813D01*
X104269297Y-111464253D01*
X104435747Y-111630703D01*
X104626187Y-111769066D01*
X104729058Y-111821481D01*
X104835926Y-111875934D01*
X104835929Y-111875935D01*
X104947865Y-111912304D01*
X105059803Y-111948675D01*
X105292302Y-111985500D01*
X105292303Y-111985500D01*
X105527697Y-111985500D01*
X105527698Y-111985500D01*
X105760197Y-111948675D01*
X105984073Y-111875934D01*
X106193813Y-111769066D01*
X106384253Y-111630703D01*
X106550703Y-111464253D01*
X106689066Y-111273813D01*
X106795934Y-111064073D01*
X106868675Y-110840197D01*
X106905500Y-110607698D01*
X106905500Y-110372302D01*
X106904931Y-110368711D01*
X116259500Y-110368711D01*
X116259500Y-110611288D01*
X116291161Y-110851785D01*
X116353947Y-111086104D01*
X116431699Y-111273813D01*
X116446776Y-111310212D01*
X116568064Y-111520289D01*
X116568066Y-111520292D01*
X116568067Y-111520293D01*
X116715733Y-111712736D01*
X116715739Y-111712743D01*
X116887256Y-111884260D01*
X116887262Y-111884265D01*
X117079711Y-112031936D01*
X117289788Y-112153224D01*
X117513900Y-112246054D01*
X117748211Y-112308838D01*
X117928586Y-112332584D01*
X117988711Y-112340500D01*
X117988712Y-112340500D01*
X118231289Y-112340500D01*
X118279388Y-112334167D01*
X118471789Y-112308838D01*
X118706100Y-112246054D01*
X118930212Y-112153224D01*
X119140289Y-112031936D01*
X119332738Y-111884265D01*
X119504265Y-111712738D01*
X119651936Y-111520289D01*
X119773224Y-111310212D01*
X119866054Y-111086100D01*
X119928838Y-110851789D01*
X119960500Y-110611288D01*
X119960500Y-110368712D01*
X119928838Y-110128211D01*
X119866054Y-109893900D01*
X119773224Y-109669788D01*
X119651936Y-109459711D01*
X119504265Y-109267262D01*
X119504260Y-109267256D01*
X119332743Y-109095739D01*
X119332736Y-109095733D01*
X119140293Y-108948067D01*
X119140292Y-108948066D01*
X119140289Y-108948064D01*
X118930212Y-108826776D01*
X118930205Y-108826773D01*
X118706104Y-108733947D01*
X118471785Y-108671161D01*
X118231289Y-108639500D01*
X118231288Y-108639500D01*
X117988712Y-108639500D01*
X117988711Y-108639500D01*
X117748214Y-108671161D01*
X117513895Y-108733947D01*
X117289794Y-108826773D01*
X117289785Y-108826777D01*
X117079706Y-108948067D01*
X116887263Y-109095733D01*
X116887256Y-109095739D01*
X116715739Y-109267256D01*
X116715733Y-109267263D01*
X116568067Y-109459706D01*
X116446777Y-109669785D01*
X116446773Y-109669794D01*
X116353947Y-109893895D01*
X116291161Y-110128214D01*
X116259500Y-110368711D01*
X106904931Y-110368711D01*
X106868675Y-110139803D01*
X106795934Y-109915927D01*
X106795934Y-109915926D01*
X106689065Y-109706186D01*
X106550703Y-109515747D01*
X106384253Y-109349297D01*
X106193813Y-109210934D01*
X105984073Y-109104065D01*
X105984070Y-109104064D01*
X105760198Y-109031325D01*
X105643947Y-109012912D01*
X105527698Y-108994500D01*
X105292302Y-108994500D01*
X105214802Y-109006775D01*
X105059801Y-109031325D01*
X104835929Y-109104064D01*
X104835926Y-109104065D01*
X104626186Y-109210934D01*
X104548658Y-109267262D01*
X104435747Y-109349297D01*
X104435745Y-109349299D01*
X104435744Y-109349299D01*
X104269299Y-109515744D01*
X104269299Y-109515745D01*
X104269297Y-109515747D01*
X104209875Y-109597533D01*
X104130934Y-109706186D01*
X104024065Y-109915926D01*
X104024064Y-109915929D01*
X103951325Y-110139801D01*
X103914500Y-110372302D01*
X99060000Y-110372302D01*
X99060000Y-101482695D01*
X102329500Y-101482695D01*
X102329500Y-101717304D01*
X102366201Y-101949027D01*
X102438697Y-102172150D01*
X102438699Y-102172153D01*
X102539373Y-102369737D01*
X102545212Y-102381195D01*
X102683104Y-102570989D01*
X102683108Y-102570994D01*
X102849005Y-102736891D01*
X102849010Y-102736895D01*
X102894137Y-102769682D01*
X102936803Y-102825012D01*
X102942782Y-102894625D01*
X102910176Y-102956420D01*
X102894137Y-102970318D01*
X102849010Y-103003104D01*
X102849005Y-103003108D01*
X102683108Y-103169005D01*
X102683104Y-103169010D01*
X102545212Y-103358804D01*
X102438697Y-103567849D01*
X102366201Y-103790972D01*
X102329500Y-104022695D01*
X102329500Y-104257304D01*
X102366201Y-104489027D01*
X102438697Y-104712150D01*
X102438699Y-104712153D01*
X102539373Y-104909737D01*
X102545212Y-104921195D01*
X102683104Y-105110989D01*
X102683108Y-105110994D01*
X102849005Y-105276891D01*
X102849010Y-105276895D01*
X103014558Y-105397171D01*
X103038808Y-105414790D01*
X103247847Y-105521301D01*
X103247849Y-105521302D01*
X103359410Y-105557550D01*
X103470974Y-105593799D01*
X103702695Y-105630500D01*
X103702696Y-105630500D01*
X103937304Y-105630500D01*
X103937305Y-105630500D01*
X104169026Y-105593799D01*
X104392153Y-105521301D01*
X104601192Y-105414790D01*
X104790996Y-105276890D01*
X104956890Y-105110996D01*
X104989681Y-105065863D01*
X105045011Y-105023196D01*
X105114624Y-105017216D01*
X105176419Y-105049822D01*
X105190319Y-105065863D01*
X105223106Y-105110992D01*
X105389005Y-105276891D01*
X105389010Y-105276895D01*
X105554558Y-105397171D01*
X105578808Y-105414790D01*
X105787847Y-105521301D01*
X105787849Y-105521302D01*
X105899410Y-105557550D01*
X106010974Y-105593799D01*
X106242695Y-105630500D01*
X106242696Y-105630500D01*
X106477304Y-105630500D01*
X106477305Y-105630500D01*
X106709026Y-105593799D01*
X106932153Y-105521301D01*
X107141192Y-105414790D01*
X107330996Y-105276890D01*
X107496890Y-105110996D01*
X107529681Y-105065863D01*
X107585011Y-105023196D01*
X107654624Y-105017216D01*
X107716419Y-105049822D01*
X107730319Y-105065863D01*
X107763106Y-105110992D01*
X107929005Y-105276891D01*
X107929010Y-105276895D01*
X108094558Y-105397171D01*
X108118808Y-105414790D01*
X108327847Y-105521301D01*
X108327849Y-105521302D01*
X108439410Y-105557550D01*
X108550974Y-105593799D01*
X108782695Y-105630500D01*
X108782696Y-105630500D01*
X109017304Y-105630500D01*
X109017305Y-105630500D01*
X109249026Y-105593799D01*
X109472153Y-105521301D01*
X109681192Y-105414790D01*
X109870996Y-105276890D01*
X110036890Y-105110996D01*
X110069681Y-105065863D01*
X110125011Y-105023196D01*
X110194624Y-105017216D01*
X110256419Y-105049822D01*
X110270319Y-105065863D01*
X110303106Y-105110992D01*
X110469005Y-105276891D01*
X110469010Y-105276895D01*
X110634558Y-105397171D01*
X110658808Y-105414790D01*
X110867847Y-105521301D01*
X110867849Y-105521302D01*
X110979410Y-105557550D01*
X111090974Y-105593799D01*
X111322695Y-105630500D01*
X111322696Y-105630500D01*
X111557304Y-105630500D01*
X111557305Y-105630500D01*
X111789026Y-105593799D01*
X112012153Y-105521301D01*
X112221192Y-105414790D01*
X112410996Y-105276890D01*
X112576890Y-105110996D01*
X112714790Y-104921192D01*
X112821301Y-104712153D01*
X112893799Y-104489026D01*
X112930500Y-104257305D01*
X112930500Y-104022695D01*
X112893799Y-103790974D01*
X112854655Y-103670500D01*
X112821302Y-103567849D01*
X112782546Y-103491786D01*
X112714790Y-103358808D01*
X112697171Y-103334558D01*
X112576895Y-103169010D01*
X112576891Y-103169005D01*
X112410992Y-103003106D01*
X112365863Y-102970319D01*
X112323196Y-102914989D01*
X112317216Y-102845376D01*
X112349822Y-102783581D01*
X112365863Y-102769681D01*
X112410992Y-102736893D01*
X112410992Y-102736892D01*
X112410996Y-102736890D01*
X112576890Y-102570996D01*
X112714790Y-102381192D01*
X112821301Y-102172153D01*
X112893799Y-101949026D01*
X112930500Y-101717305D01*
X112930500Y-101482695D01*
X112893799Y-101250974D01*
X112821301Y-101027847D01*
X112714790Y-100818808D01*
X112697171Y-100794558D01*
X112576895Y-100629010D01*
X112576891Y-100629005D01*
X112410994Y-100463108D01*
X112410989Y-100463104D01*
X112221195Y-100325212D01*
X112221194Y-100325211D01*
X112221192Y-100325210D01*
X112116672Y-100271954D01*
X112012150Y-100218697D01*
X111789027Y-100146201D01*
X111673165Y-100127850D01*
X111557305Y-100109500D01*
X111322695Y-100109500D01*
X111245454Y-100121733D01*
X111090972Y-100146201D01*
X110867849Y-100218697D01*
X110658804Y-100325212D01*
X110469010Y-100463104D01*
X110469005Y-100463108D01*
X110303108Y-100629005D01*
X110303104Y-100629010D01*
X110270318Y-100674137D01*
X110214988Y-100716803D01*
X110145375Y-100722782D01*
X110083580Y-100690176D01*
X110069682Y-100674137D01*
X110036895Y-100629010D01*
X110036891Y-100629005D01*
X109870994Y-100463108D01*
X109870989Y-100463104D01*
X109681195Y-100325212D01*
X109681194Y-100325211D01*
X109681192Y-100325210D01*
X109576672Y-100271954D01*
X109472150Y-100218697D01*
X109249027Y-100146201D01*
X109133165Y-100127850D01*
X109017305Y-100109500D01*
X108782695Y-100109500D01*
X108705454Y-100121733D01*
X108550972Y-100146201D01*
X108327849Y-100218697D01*
X108118804Y-100325212D01*
X107929010Y-100463104D01*
X107929005Y-100463108D01*
X107763108Y-100629005D01*
X107763104Y-100629010D01*
X107730318Y-100674137D01*
X107674988Y-100716803D01*
X107605375Y-100722782D01*
X107543580Y-100690176D01*
X107529682Y-100674137D01*
X107496895Y-100629010D01*
X107496891Y-100629005D01*
X107330994Y-100463108D01*
X107330989Y-100463104D01*
X107141195Y-100325212D01*
X107141194Y-100325211D01*
X107141192Y-100325210D01*
X107036672Y-100271954D01*
X106932150Y-100218697D01*
X106709027Y-100146201D01*
X106593165Y-100127850D01*
X106477305Y-100109500D01*
X106242695Y-100109500D01*
X106165454Y-100121733D01*
X106010972Y-100146201D01*
X105787849Y-100218697D01*
X105578804Y-100325212D01*
X105389010Y-100463104D01*
X105389005Y-100463108D01*
X105223108Y-100629005D01*
X105223104Y-100629010D01*
X105190318Y-100674137D01*
X105134988Y-100716803D01*
X105065375Y-100722782D01*
X105003580Y-100690176D01*
X104989682Y-100674137D01*
X104956895Y-100629010D01*
X104956891Y-100629005D01*
X104790994Y-100463108D01*
X104790989Y-100463104D01*
X104601195Y-100325212D01*
X104601194Y-100325211D01*
X104601192Y-100325210D01*
X104496672Y-100271954D01*
X104392150Y-100218697D01*
X104169027Y-100146201D01*
X104053165Y-100127850D01*
X103937305Y-100109500D01*
X103702695Y-100109500D01*
X103625454Y-100121733D01*
X103470972Y-100146201D01*
X103247849Y-100218697D01*
X103038804Y-100325212D01*
X102849010Y-100463104D01*
X102849005Y-100463108D01*
X102683108Y-100629005D01*
X102683104Y-100629010D01*
X102545212Y-100818804D01*
X102438697Y-101027849D01*
X102366201Y-101250972D01*
X102329500Y-101482695D01*
X99060000Y-101482695D01*
X99060000Y-95132695D01*
X102329500Y-95132695D01*
X102329500Y-95367304D01*
X102366201Y-95599027D01*
X102438697Y-95822150D01*
X102545212Y-96031195D01*
X102683104Y-96220989D01*
X102683108Y-96220994D01*
X102849005Y-96386891D01*
X102849010Y-96386895D01*
X102894137Y-96419682D01*
X102936803Y-96475012D01*
X102942782Y-96544625D01*
X102910176Y-96606420D01*
X102894137Y-96620318D01*
X102849010Y-96653104D01*
X102849005Y-96653108D01*
X102683108Y-96819005D01*
X102683104Y-96819010D01*
X102545212Y-97008804D01*
X102438697Y-97217849D01*
X102366201Y-97440972D01*
X102347904Y-97556498D01*
X102329500Y-97672695D01*
X102329500Y-97907305D01*
X102330603Y-97914266D01*
X102366201Y-98139027D01*
X102438697Y-98362150D01*
X102438699Y-98362153D01*
X102539373Y-98559737D01*
X102545212Y-98571195D01*
X102683104Y-98760989D01*
X102683108Y-98760994D01*
X102849005Y-98926891D01*
X102849010Y-98926895D01*
X102992625Y-99031236D01*
X103038808Y-99064790D01*
X103247847Y-99171301D01*
X103247849Y-99171302D01*
X103327698Y-99197246D01*
X103470974Y-99243799D01*
X103702695Y-99280500D01*
X103702696Y-99280500D01*
X103937304Y-99280500D01*
X103937305Y-99280500D01*
X104169026Y-99243799D01*
X104392153Y-99171301D01*
X104601192Y-99064790D01*
X104790996Y-98926890D01*
X104956890Y-98760996D01*
X104989681Y-98715863D01*
X105045011Y-98673196D01*
X105114624Y-98667216D01*
X105176419Y-98699822D01*
X105190319Y-98715863D01*
X105223106Y-98760992D01*
X105389005Y-98926891D01*
X105389010Y-98926895D01*
X105532625Y-99031236D01*
X105578808Y-99064790D01*
X105787847Y-99171301D01*
X105787849Y-99171302D01*
X105867698Y-99197246D01*
X106010974Y-99243799D01*
X106242695Y-99280500D01*
X106242696Y-99280500D01*
X106477304Y-99280500D01*
X106477305Y-99280500D01*
X106709026Y-99243799D01*
X106932153Y-99171301D01*
X107141192Y-99064790D01*
X107330996Y-98926890D01*
X107496890Y-98760996D01*
X107529681Y-98715863D01*
X107585011Y-98673196D01*
X107654624Y-98667216D01*
X107716419Y-98699822D01*
X107730319Y-98715863D01*
X107763106Y-98760992D01*
X107929005Y-98926891D01*
X107929010Y-98926895D01*
X108072625Y-99031236D01*
X108118808Y-99064790D01*
X108327847Y-99171301D01*
X108327849Y-99171302D01*
X108407698Y-99197246D01*
X108550974Y-99243799D01*
X108782695Y-99280500D01*
X108782696Y-99280500D01*
X109017304Y-99280500D01*
X109017305Y-99280500D01*
X109249026Y-99243799D01*
X109472153Y-99171301D01*
X109681192Y-99064790D01*
X109870996Y-98926890D01*
X110036890Y-98760996D01*
X110069681Y-98715863D01*
X110125011Y-98673196D01*
X110194624Y-98667216D01*
X110256419Y-98699822D01*
X110270319Y-98715863D01*
X110303106Y-98760992D01*
X110469005Y-98926891D01*
X110469010Y-98926895D01*
X110612625Y-99031236D01*
X110658808Y-99064790D01*
X110867847Y-99171301D01*
X110867849Y-99171302D01*
X110947698Y-99197246D01*
X111090974Y-99243799D01*
X111322695Y-99280500D01*
X111322696Y-99280500D01*
X111557304Y-99280500D01*
X111557305Y-99280500D01*
X111789026Y-99243799D01*
X112012153Y-99171301D01*
X112221192Y-99064790D01*
X112410996Y-98926890D01*
X112576890Y-98760996D01*
X112714790Y-98571192D01*
X112821301Y-98362153D01*
X112893799Y-98139026D01*
X112930500Y-97907305D01*
X112930500Y-97672695D01*
X112893799Y-97440974D01*
X112821301Y-97217847D01*
X112714790Y-97008808D01*
X112697171Y-96984558D01*
X112576895Y-96819010D01*
X112576891Y-96819005D01*
X112410992Y-96653106D01*
X112365863Y-96620319D01*
X112323196Y-96564989D01*
X112317216Y-96495376D01*
X112349822Y-96433581D01*
X112365863Y-96419681D01*
X112410992Y-96386893D01*
X112410992Y-96386892D01*
X112410996Y-96386890D01*
X112576890Y-96220996D01*
X112714790Y-96031192D01*
X112821301Y-95822153D01*
X112893799Y-95599026D01*
X112930500Y-95367305D01*
X112930500Y-95132695D01*
X112893799Y-94900974D01*
X112857550Y-94789410D01*
X112821302Y-94677849D01*
X112817048Y-94669500D01*
X112714790Y-94468808D01*
X112697171Y-94444558D01*
X112576895Y-94279010D01*
X112576891Y-94279005D01*
X112410994Y-94113108D01*
X112410989Y-94113104D01*
X112221195Y-93975212D01*
X112221194Y-93975211D01*
X112221192Y-93975210D01*
X112116672Y-93921954D01*
X112012150Y-93868697D01*
X111789027Y-93796201D01*
X111673165Y-93777850D01*
X111557305Y-93759500D01*
X111322695Y-93759500D01*
X111245454Y-93771733D01*
X111090972Y-93796201D01*
X110867849Y-93868697D01*
X110658804Y-93975212D01*
X110469010Y-94113104D01*
X110469005Y-94113108D01*
X110303108Y-94279005D01*
X110303104Y-94279010D01*
X110270318Y-94324137D01*
X110214988Y-94366803D01*
X110145375Y-94372782D01*
X110083580Y-94340176D01*
X110069682Y-94324137D01*
X110036895Y-94279010D01*
X110036891Y-94279005D01*
X109870994Y-94113108D01*
X109870989Y-94113104D01*
X109681195Y-93975212D01*
X109681194Y-93975211D01*
X109681192Y-93975210D01*
X109576672Y-93921954D01*
X109472150Y-93868697D01*
X109249027Y-93796201D01*
X109133165Y-93777850D01*
X109017305Y-93759500D01*
X108782695Y-93759500D01*
X108705454Y-93771733D01*
X108550972Y-93796201D01*
X108327849Y-93868697D01*
X108118804Y-93975212D01*
X107929010Y-94113104D01*
X107929005Y-94113108D01*
X107763108Y-94279005D01*
X107763104Y-94279010D01*
X107730318Y-94324137D01*
X107674988Y-94366803D01*
X107605375Y-94372782D01*
X107543580Y-94340176D01*
X107529682Y-94324137D01*
X107496895Y-94279010D01*
X107496891Y-94279005D01*
X107330994Y-94113108D01*
X107330989Y-94113104D01*
X107141195Y-93975212D01*
X107141194Y-93975211D01*
X107141192Y-93975210D01*
X107036672Y-93921954D01*
X106932150Y-93868697D01*
X106709027Y-93796201D01*
X106593165Y-93777850D01*
X106477305Y-93759500D01*
X106242695Y-93759500D01*
X106165454Y-93771733D01*
X106010972Y-93796201D01*
X105787849Y-93868697D01*
X105578804Y-93975212D01*
X105389010Y-94113104D01*
X105389005Y-94113108D01*
X105223108Y-94279005D01*
X105223104Y-94279010D01*
X105190318Y-94324137D01*
X105134988Y-94366803D01*
X105065375Y-94372782D01*
X105003580Y-94340176D01*
X104989682Y-94324137D01*
X104956895Y-94279010D01*
X104956891Y-94279005D01*
X104790994Y-94113108D01*
X104790989Y-94113104D01*
X104601195Y-93975212D01*
X104601194Y-93975211D01*
X104601192Y-93975210D01*
X104496672Y-93921954D01*
X104392150Y-93868697D01*
X104169027Y-93796201D01*
X104053165Y-93777850D01*
X103937305Y-93759500D01*
X103702695Y-93759500D01*
X103625454Y-93771733D01*
X103470972Y-93796201D01*
X103247849Y-93868697D01*
X103038804Y-93975212D01*
X102849010Y-94113104D01*
X102849005Y-94113108D01*
X102683108Y-94279005D01*
X102683104Y-94279010D01*
X102545212Y-94468804D01*
X102438697Y-94677849D01*
X102366201Y-94900972D01*
X102329500Y-95132695D01*
X99060000Y-95132695D01*
X99060000Y-92631153D01*
X118579500Y-92631153D01*
X118579500Y-92788846D01*
X118610261Y-92943489D01*
X118610264Y-92943501D01*
X118670602Y-93089172D01*
X118670609Y-93089185D01*
X118758602Y-93220874D01*
X118779480Y-93287551D01*
X118779500Y-93289765D01*
X118779500Y-102290234D01*
X118759815Y-102357273D01*
X118758602Y-102359125D01*
X118670609Y-102490814D01*
X118670602Y-102490827D01*
X118610264Y-102636498D01*
X118610261Y-102636510D01*
X118579500Y-102791153D01*
X118579500Y-102948846D01*
X118610261Y-103103489D01*
X118610264Y-103103501D01*
X118670602Y-103249172D01*
X118670609Y-103249185D01*
X118758210Y-103380288D01*
X118758213Y-103380292D01*
X118869707Y-103491786D01*
X118869711Y-103491789D01*
X119000814Y-103579390D01*
X119000827Y-103579397D01*
X119070901Y-103608422D01*
X119146503Y-103639737D01*
X119301153Y-103670499D01*
X119301156Y-103670500D01*
X119301158Y-103670500D01*
X119458844Y-103670500D01*
X119458845Y-103670499D01*
X119613497Y-103639737D01*
X119759179Y-103579394D01*
X119890289Y-103491789D01*
X120001789Y-103380289D01*
X120089394Y-103249179D01*
X120149737Y-103103497D01*
X120180500Y-102948842D01*
X120180500Y-102791158D01*
X120180500Y-102791155D01*
X120180499Y-102791153D01*
X120169706Y-102736893D01*
X120149737Y-102636503D01*
X120149735Y-102636498D01*
X120089397Y-102490827D01*
X120089390Y-102490814D01*
X120001398Y-102359125D01*
X119980520Y-102292447D01*
X119980500Y-102290234D01*
X119980500Y-93289765D01*
X120000185Y-93222726D01*
X120001398Y-93220874D01*
X120089390Y-93089185D01*
X120089390Y-93089184D01*
X120089394Y-93089179D01*
X120149737Y-92943497D01*
X120180500Y-92788842D01*
X120180500Y-92631158D01*
X120180500Y-92631155D01*
X120180499Y-92631153D01*
X120149738Y-92476510D01*
X120149737Y-92476503D01*
X120149735Y-92476498D01*
X120089397Y-92330827D01*
X120089390Y-92330814D01*
X120001789Y-92199711D01*
X120001786Y-92199707D01*
X119890292Y-92088213D01*
X119890288Y-92088210D01*
X119759185Y-92000609D01*
X119759172Y-92000602D01*
X119613501Y-91940264D01*
X119613489Y-91940261D01*
X119458845Y-91909500D01*
X119458842Y-91909500D01*
X119301158Y-91909500D01*
X119301155Y-91909500D01*
X119146510Y-91940261D01*
X119146498Y-91940264D01*
X119000827Y-92000602D01*
X119000814Y-92000609D01*
X118869711Y-92088210D01*
X118869707Y-92088213D01*
X118758213Y-92199707D01*
X118758210Y-92199711D01*
X118670609Y-92330814D01*
X118670602Y-92330827D01*
X118610264Y-92476498D01*
X118610261Y-92476510D01*
X118579500Y-92631153D01*
X99060000Y-92631153D01*
X99060000Y-91361153D01*
X121119500Y-91361153D01*
X121119500Y-91518846D01*
X121150261Y-91673489D01*
X121150264Y-91673501D01*
X121210602Y-91819172D01*
X121210609Y-91819185D01*
X121298210Y-91950288D01*
X121298213Y-91950292D01*
X121409707Y-92061786D01*
X121409711Y-92061789D01*
X121540814Y-92149390D01*
X121540827Y-92149397D01*
X121662288Y-92199707D01*
X121686503Y-92209737D01*
X121751147Y-92222595D01*
X121841849Y-92240638D01*
X121903760Y-92273023D01*
X121905339Y-92274574D01*
X123823181Y-94192416D01*
X123856666Y-94253739D01*
X123859500Y-94280097D01*
X123859500Y-97703330D01*
X123859499Y-97703348D01*
X123859499Y-97869054D01*
X123859498Y-97869054D01*
X123900423Y-98021785D01*
X123929358Y-98071900D01*
X123929359Y-98071904D01*
X123929360Y-98071904D01*
X123979479Y-98158714D01*
X123979481Y-98158717D01*
X124098349Y-98277585D01*
X124098355Y-98277590D01*
X125093181Y-99272416D01*
X125126666Y-99333739D01*
X125129500Y-99360097D01*
X125129500Y-106100234D01*
X125109815Y-106167273D01*
X125108602Y-106169125D01*
X125020609Y-106300814D01*
X125020602Y-106300827D01*
X124960264Y-106446498D01*
X124960261Y-106446510D01*
X124929500Y-106601153D01*
X124929500Y-106758846D01*
X124960261Y-106913489D01*
X124960264Y-106913501D01*
X125020602Y-107059172D01*
X125020609Y-107059185D01*
X125108210Y-107190288D01*
X125108213Y-107190292D01*
X125219707Y-107301786D01*
X125219711Y-107301789D01*
X125350814Y-107389390D01*
X125350827Y-107389397D01*
X125496498Y-107449735D01*
X125496503Y-107449737D01*
X125651153Y-107480499D01*
X125651156Y-107480500D01*
X125651158Y-107480500D01*
X125808844Y-107480500D01*
X125808845Y-107480499D01*
X125963497Y-107449737D01*
X126109179Y-107389394D01*
X126240289Y-107301789D01*
X126351789Y-107190289D01*
X126439394Y-107059179D01*
X126499737Y-106913497D01*
X126530500Y-106758842D01*
X126530500Y-106601158D01*
X126530500Y-106601155D01*
X126530499Y-106601153D01*
X126499738Y-106446510D01*
X126499737Y-106446503D01*
X126499735Y-106446498D01*
X126439397Y-106300827D01*
X126439390Y-106300814D01*
X126351398Y-106169125D01*
X126330520Y-106102447D01*
X126330500Y-106100234D01*
X126330500Y-100251153D01*
X136359500Y-100251153D01*
X136359500Y-100408846D01*
X136390261Y-100563489D01*
X136390264Y-100563501D01*
X136450602Y-100709172D01*
X136450609Y-100709185D01*
X136538602Y-100840874D01*
X136559480Y-100907551D01*
X136559500Y-100909765D01*
X136559500Y-103560234D01*
X136539815Y-103627273D01*
X136538602Y-103629125D01*
X136450609Y-103760814D01*
X136450602Y-103760827D01*
X136390264Y-103906498D01*
X136390261Y-103906510D01*
X136359500Y-104061153D01*
X136359500Y-104218846D01*
X136390261Y-104373489D01*
X136390264Y-104373501D01*
X136450602Y-104519172D01*
X136450609Y-104519185D01*
X136538210Y-104650288D01*
X136538213Y-104650292D01*
X136649707Y-104761786D01*
X136649711Y-104761789D01*
X136780814Y-104849390D01*
X136780827Y-104849397D01*
X136926498Y-104909735D01*
X136926503Y-104909737D01*
X137081153Y-104940499D01*
X137081156Y-104940500D01*
X137081158Y-104940500D01*
X137238844Y-104940500D01*
X137238845Y-104940499D01*
X137393497Y-104909737D01*
X137539179Y-104849394D01*
X137670289Y-104761789D01*
X137781789Y-104650289D01*
X137869394Y-104519179D01*
X137929737Y-104373497D01*
X137960500Y-104218842D01*
X137960500Y-104061158D01*
X137960500Y-104061155D01*
X137960499Y-104061153D01*
X137929738Y-103906510D01*
X137929737Y-103906503D01*
X137881883Y-103790972D01*
X137869397Y-103760827D01*
X137869390Y-103760814D01*
X137781398Y-103629125D01*
X137760520Y-103562447D01*
X137760500Y-103560234D01*
X137760500Y-100909765D01*
X137780185Y-100842726D01*
X137781398Y-100840874D01*
X137869390Y-100709185D01*
X137869390Y-100709184D01*
X137869394Y-100709179D01*
X137929737Y-100563497D01*
X137960500Y-100408842D01*
X137960500Y-100251158D01*
X137960500Y-100251155D01*
X137960499Y-100251153D01*
X137946144Y-100178987D01*
X137929737Y-100096503D01*
X137929735Y-100096498D01*
X137869397Y-99950827D01*
X137869390Y-99950814D01*
X137781789Y-99819711D01*
X137781786Y-99819707D01*
X137670292Y-99708213D01*
X137670288Y-99708210D01*
X137539185Y-99620609D01*
X137539172Y-99620602D01*
X137393501Y-99560264D01*
X137393489Y-99560261D01*
X137238845Y-99529500D01*
X137238842Y-99529500D01*
X137081158Y-99529500D01*
X137081155Y-99529500D01*
X136926510Y-99560261D01*
X136926498Y-99560264D01*
X136780827Y-99620602D01*
X136780814Y-99620609D01*
X136649711Y-99708210D01*
X136649707Y-99708213D01*
X136538213Y-99819707D01*
X136538210Y-99819711D01*
X136450609Y-99950814D01*
X136450602Y-99950827D01*
X136390264Y-100096498D01*
X136390261Y-100096510D01*
X136359500Y-100251153D01*
X126330500Y-100251153D01*
X126330500Y-98980945D01*
X126330500Y-98980943D01*
X126289577Y-98828216D01*
X126289577Y-98828215D01*
X126214535Y-98698239D01*
X126210520Y-98691284D01*
X126098716Y-98579480D01*
X126098715Y-98579479D01*
X126094385Y-98575149D01*
X126094374Y-98575139D01*
X125096819Y-97577584D01*
X125063334Y-97516261D01*
X125060500Y-97489903D01*
X125060500Y-93900945D01*
X125060500Y-93900943D01*
X125019577Y-93748216D01*
X125019573Y-93748209D01*
X124940524Y-93611290D01*
X124940521Y-93611286D01*
X124940520Y-93611284D01*
X124828716Y-93499480D01*
X124828715Y-93499479D01*
X124824385Y-93495149D01*
X124824374Y-93495139D01*
X122754574Y-91425339D01*
X122721089Y-91364016D01*
X122720638Y-91361849D01*
X122689738Y-91206510D01*
X122689737Y-91206503D01*
X122689735Y-91206498D01*
X122629397Y-91060827D01*
X122629390Y-91060814D01*
X122541789Y-90929711D01*
X122541786Y-90929707D01*
X122430292Y-90818213D01*
X122430288Y-90818210D01*
X122299185Y-90730609D01*
X122299172Y-90730602D01*
X122153501Y-90670264D01*
X122153489Y-90670261D01*
X121998845Y-90639500D01*
X121998842Y-90639500D01*
X121841158Y-90639500D01*
X121841155Y-90639500D01*
X121686510Y-90670261D01*
X121686498Y-90670264D01*
X121540827Y-90730602D01*
X121540814Y-90730609D01*
X121409711Y-90818210D01*
X121409707Y-90818213D01*
X121298213Y-90929707D01*
X121298210Y-90929711D01*
X121210609Y-91060814D01*
X121210602Y-91060827D01*
X121150264Y-91206498D01*
X121150261Y-91206510D01*
X121119500Y-91361153D01*
X99060000Y-91361153D01*
X99060000Y-88782302D01*
X103914500Y-88782302D01*
X103914500Y-89017697D01*
X103951325Y-89250198D01*
X104024064Y-89474070D01*
X104024065Y-89474073D01*
X104130934Y-89683813D01*
X104269297Y-89874253D01*
X104435747Y-90040703D01*
X104626187Y-90179066D01*
X104729058Y-90231481D01*
X104835926Y-90285934D01*
X104835929Y-90285935D01*
X104947865Y-90322304D01*
X105059803Y-90358675D01*
X105292302Y-90395500D01*
X105292303Y-90395500D01*
X105527697Y-90395500D01*
X105527698Y-90395500D01*
X105760197Y-90358675D01*
X105984073Y-90285934D01*
X106193813Y-90179066D01*
X106384253Y-90040703D01*
X106550703Y-89874253D01*
X106689066Y-89683813D01*
X106795934Y-89474073D01*
X106868675Y-89250197D01*
X106905500Y-89017698D01*
X106905500Y-88782302D01*
X106868675Y-88549803D01*
X106832304Y-88437865D01*
X106795935Y-88325929D01*
X106795934Y-88325926D01*
X106701348Y-88140292D01*
X106689066Y-88116187D01*
X106550703Y-87925747D01*
X106384253Y-87759297D01*
X106193813Y-87620934D01*
X105984073Y-87514065D01*
X105984070Y-87514064D01*
X105760198Y-87441325D01*
X105643947Y-87422912D01*
X105527698Y-87404500D01*
X105292302Y-87404500D01*
X105214802Y-87416775D01*
X105059801Y-87441325D01*
X104835929Y-87514064D01*
X104835926Y-87514065D01*
X104626186Y-87620934D01*
X104517533Y-87699875D01*
X104435747Y-87759297D01*
X104435745Y-87759299D01*
X104435744Y-87759299D01*
X104269299Y-87925744D01*
X104269299Y-87925745D01*
X104269297Y-87925747D01*
X104209875Y-88007533D01*
X104130934Y-88116186D01*
X104024065Y-88325926D01*
X104024064Y-88325929D01*
X103951325Y-88549801D01*
X103914500Y-88782302D01*
X99060000Y-88782302D01*
X99060000Y-84669330D01*
X123308000Y-84669330D01*
X123308000Y-84850669D01*
X123336365Y-85029757D01*
X123336366Y-85029761D01*
X123392400Y-85202214D01*
X123474721Y-85363779D01*
X123581304Y-85510477D01*
X123709523Y-85638696D01*
X123856221Y-85745279D01*
X124017786Y-85827600D01*
X124190239Y-85883634D01*
X124257400Y-85894271D01*
X124369331Y-85912000D01*
X124369336Y-85912000D01*
X124550669Y-85912000D01*
X124650162Y-85896241D01*
X124729761Y-85883634D01*
X124902214Y-85827600D01*
X125063779Y-85745279D01*
X125210477Y-85638696D01*
X125338696Y-85510477D01*
X125445279Y-85363779D01*
X125527600Y-85202214D01*
X125583634Y-85029761D01*
X125603129Y-84906675D01*
X125607527Y-84878910D01*
X125637456Y-84815775D01*
X125696768Y-84778844D01*
X125766631Y-84779842D01*
X125824863Y-84818452D01*
X125852473Y-84878910D01*
X125876365Y-85029757D01*
X125876366Y-85029761D01*
X125932400Y-85202214D01*
X126014721Y-85363779D01*
X126121304Y-85510477D01*
X126249523Y-85638696D01*
X126396221Y-85745279D01*
X126557786Y-85827600D01*
X126730239Y-85883634D01*
X126797400Y-85894271D01*
X126909331Y-85912000D01*
X126909336Y-85912000D01*
X127090669Y-85912000D01*
X127190162Y-85896241D01*
X127269761Y-85883634D01*
X127442214Y-85827600D01*
X127603779Y-85745279D01*
X127750477Y-85638696D01*
X127878696Y-85510477D01*
X127985279Y-85363779D01*
X128067600Y-85202214D01*
X128123634Y-85029761D01*
X128143129Y-84906675D01*
X128147527Y-84878910D01*
X128177456Y-84815775D01*
X128236768Y-84778844D01*
X128306631Y-84779842D01*
X128364863Y-84818452D01*
X128392473Y-84878910D01*
X128416365Y-85029757D01*
X128416366Y-85029761D01*
X128472400Y-85202214D01*
X128554721Y-85363779D01*
X128661304Y-85510477D01*
X128789523Y-85638696D01*
X128936221Y-85745279D01*
X129097786Y-85827600D01*
X129270239Y-85883634D01*
X129337400Y-85894271D01*
X129449331Y-85912000D01*
X129449336Y-85912000D01*
X129630669Y-85912000D01*
X129730162Y-85896241D01*
X129809761Y-85883634D01*
X129982214Y-85827600D01*
X130143779Y-85745279D01*
X130290477Y-85638696D01*
X130418696Y-85510477D01*
X130525279Y-85363779D01*
X130607600Y-85202214D01*
X130663634Y-85029761D01*
X130683129Y-84906675D01*
X130687780Y-84877312D01*
X130717709Y-84814177D01*
X130777021Y-84777246D01*
X130846883Y-84778244D01*
X130905116Y-84816854D01*
X130932726Y-84877312D01*
X130956852Y-85029640D01*
X131012864Y-85202025D01*
X131095150Y-85363520D01*
X131106837Y-85379606D01*
X131106838Y-85379606D01*
X131700000Y-84786445D01*
X131700000Y-84810028D01*
X131725896Y-84906675D01*
X131775924Y-84993325D01*
X131846675Y-85064076D01*
X131933325Y-85114104D01*
X132029972Y-85140000D01*
X132053553Y-85140000D01*
X131460391Y-85733160D01*
X131460392Y-85733161D01*
X131476478Y-85744848D01*
X131637974Y-85827135D01*
X131810359Y-85883147D01*
X131810358Y-85883147D01*
X131989371Y-85911500D01*
X132170629Y-85911500D01*
X132349640Y-85883147D01*
X132522025Y-85827135D01*
X132683514Y-85744853D01*
X132699607Y-85733160D01*
X132106448Y-85140000D01*
X132130028Y-85140000D01*
X132226675Y-85114104D01*
X132313325Y-85064076D01*
X132384076Y-84993325D01*
X132434104Y-84906675D01*
X132460000Y-84810028D01*
X132460000Y-84786446D01*
X133053160Y-85379606D01*
X133064853Y-85363514D01*
X133147135Y-85202025D01*
X133203147Y-85029640D01*
X133231500Y-84850629D01*
X133231500Y-84669370D01*
X133203147Y-84490359D01*
X133147135Y-84317974D01*
X133064848Y-84156478D01*
X133053161Y-84140392D01*
X133053160Y-84140391D01*
X132460000Y-84733551D01*
X132460000Y-84709972D01*
X132434104Y-84613325D01*
X132384076Y-84526675D01*
X132313325Y-84455924D01*
X132226675Y-84405896D01*
X132130028Y-84380000D01*
X132106447Y-84380000D01*
X132699606Y-83786838D01*
X132699606Y-83786837D01*
X132683520Y-83775150D01*
X132522025Y-83692864D01*
X132349640Y-83636852D01*
X132349641Y-83636852D01*
X132170629Y-83608500D01*
X131989371Y-83608500D01*
X131810359Y-83636852D01*
X131637974Y-83692864D01*
X131476484Y-83775147D01*
X131460392Y-83786837D01*
X131460392Y-83786838D01*
X132053554Y-84380000D01*
X132029972Y-84380000D01*
X131933325Y-84405896D01*
X131846675Y-84455924D01*
X131775924Y-84526675D01*
X131725896Y-84613325D01*
X131700000Y-84709972D01*
X131700000Y-84733554D01*
X131106838Y-84140392D01*
X131106837Y-84140392D01*
X131095147Y-84156484D01*
X131012864Y-84317974D01*
X130956852Y-84490359D01*
X130932726Y-84642687D01*
X130902797Y-84705822D01*
X130843485Y-84742753D01*
X130773623Y-84741755D01*
X130715390Y-84703145D01*
X130687780Y-84642687D01*
X130663634Y-84490242D01*
X130663634Y-84490239D01*
X130607600Y-84317786D01*
X130525279Y-84156221D01*
X130418696Y-84009523D01*
X130290477Y-83881304D01*
X130143779Y-83774721D01*
X129982214Y-83692400D01*
X129809761Y-83636366D01*
X129809759Y-83636365D01*
X129809757Y-83636365D01*
X129630669Y-83608000D01*
X129630664Y-83608000D01*
X129449336Y-83608000D01*
X129449331Y-83608000D01*
X129270242Y-83636365D01*
X129097783Y-83692401D01*
X128936220Y-83774721D01*
X128919543Y-83786838D01*
X128789523Y-83881304D01*
X128789521Y-83881306D01*
X128789520Y-83881306D01*
X128661306Y-84009520D01*
X128661306Y-84009521D01*
X128661304Y-84009523D01*
X128615531Y-84072523D01*
X128554721Y-84156220D01*
X128472401Y-84317783D01*
X128416365Y-84490242D01*
X128392473Y-84641089D01*
X128362544Y-84704224D01*
X128303232Y-84741155D01*
X128233369Y-84740157D01*
X128175137Y-84701547D01*
X128147527Y-84641089D01*
X128123634Y-84490242D01*
X128123634Y-84490239D01*
X128067600Y-84317786D01*
X127985279Y-84156221D01*
X127878696Y-84009523D01*
X127750477Y-83881304D01*
X127603779Y-83774721D01*
X127442214Y-83692400D01*
X127269761Y-83636366D01*
X127269759Y-83636365D01*
X127269757Y-83636365D01*
X127090669Y-83608000D01*
X127090664Y-83608000D01*
X126909336Y-83608000D01*
X126909331Y-83608000D01*
X126730242Y-83636365D01*
X126557783Y-83692401D01*
X126396220Y-83774721D01*
X126379543Y-83786838D01*
X126249523Y-83881304D01*
X126249521Y-83881306D01*
X126249520Y-83881306D01*
X126121306Y-84009520D01*
X126121306Y-84009521D01*
X126121304Y-84009523D01*
X126075531Y-84072523D01*
X126014721Y-84156220D01*
X125932401Y-84317783D01*
X125876365Y-84490242D01*
X125852473Y-84641089D01*
X125822544Y-84704224D01*
X125763232Y-84741155D01*
X125693369Y-84740157D01*
X125635137Y-84701547D01*
X125607527Y-84641089D01*
X125583634Y-84490242D01*
X125583634Y-84490239D01*
X125527600Y-84317786D01*
X125445279Y-84156221D01*
X125338696Y-84009523D01*
X125210477Y-83881304D01*
X125063779Y-83774721D01*
X124902214Y-83692400D01*
X124729761Y-83636366D01*
X124729759Y-83636365D01*
X124729757Y-83636365D01*
X124550669Y-83608000D01*
X124550664Y-83608000D01*
X124369336Y-83608000D01*
X124369331Y-83608000D01*
X124190242Y-83636365D01*
X124017783Y-83692401D01*
X123856220Y-83774721D01*
X123839543Y-83786838D01*
X123709523Y-83881304D01*
X123709521Y-83881306D01*
X123709520Y-83881306D01*
X123581306Y-84009520D01*
X123581306Y-84009521D01*
X123581304Y-84009523D01*
X123535531Y-84072523D01*
X123474721Y-84156220D01*
X123392401Y-84317783D01*
X123336365Y-84490242D01*
X123308000Y-84669330D01*
X99060000Y-84669330D01*
X99060000Y-70850188D01*
X109954500Y-70850188D01*
X109954500Y-71069811D01*
X109954501Y-71069828D01*
X109983167Y-71287573D01*
X110040014Y-71499729D01*
X110114936Y-71680606D01*
X110124065Y-71702645D01*
X110233884Y-71892855D01*
X110233889Y-71892861D01*
X110233890Y-71892863D01*
X110367588Y-72067102D01*
X110367594Y-72067109D01*
X110522890Y-72222405D01*
X110522896Y-72222410D01*
X110697145Y-72356116D01*
X110887355Y-72465935D01*
X110894383Y-72468846D01*
X111090270Y-72549985D01*
X111090271Y-72549985D01*
X111090273Y-72549986D01*
X111302425Y-72606832D01*
X111520182Y-72635500D01*
X111520189Y-72635500D01*
X111739811Y-72635500D01*
X111739818Y-72635500D01*
X111957575Y-72606832D01*
X112169727Y-72549986D01*
X112372645Y-72465935D01*
X112562855Y-72356116D01*
X112737104Y-72222410D01*
X112892410Y-72067104D01*
X113026116Y-71892855D01*
X113135935Y-71702645D01*
X113219986Y-71499727D01*
X113276832Y-71287575D01*
X113305500Y-71069818D01*
X113305500Y-71041153D01*
X122389500Y-71041153D01*
X122389500Y-71198846D01*
X122420261Y-71353489D01*
X122420264Y-71353501D01*
X122480602Y-71499172D01*
X122480609Y-71499185D01*
X122568210Y-71630288D01*
X122568213Y-71630292D01*
X122679707Y-71741786D01*
X122679711Y-71741789D01*
X122810814Y-71829390D01*
X122810827Y-71829397D01*
X122930883Y-71879125D01*
X122956503Y-71889737D01*
X123111153Y-71920499D01*
X123111156Y-71920500D01*
X123111158Y-71920500D01*
X123268844Y-71920500D01*
X123268845Y-71920499D01*
X123423497Y-71889737D01*
X123569179Y-71829394D01*
X123633126Y-71786666D01*
X123700875Y-71741398D01*
X123767553Y-71720520D01*
X123769766Y-71720500D01*
X125429903Y-71720500D01*
X125496942Y-71740185D01*
X125517584Y-71756819D01*
X132515425Y-78754660D01*
X132548910Y-78815983D01*
X132549361Y-78818149D01*
X132580261Y-78973491D01*
X132580264Y-78973501D01*
X132640602Y-79119172D01*
X132640609Y-79119185D01*
X132728210Y-79250288D01*
X132728213Y-79250292D01*
X132839707Y-79361786D01*
X132839711Y-79361789D01*
X132970814Y-79449390D01*
X132970827Y-79449397D01*
X133116498Y-79509735D01*
X133116503Y-79509737D01*
X133271153Y-79540499D01*
X133271156Y-79540500D01*
X133271158Y-79540500D01*
X133428844Y-79540500D01*
X133428845Y-79540499D01*
X133583497Y-79509737D01*
X133729179Y-79449394D01*
X133860289Y-79361789D01*
X133971789Y-79250289D01*
X134059394Y-79119179D01*
X134119737Y-78973497D01*
X134150500Y-78818842D01*
X134150500Y-78661158D01*
X134150500Y-78661155D01*
X134150499Y-78661153D01*
X134119737Y-78506503D01*
X134105775Y-78472796D01*
X134059397Y-78360827D01*
X134059390Y-78360814D01*
X133971789Y-78229711D01*
X133971786Y-78229707D01*
X133860292Y-78118213D01*
X133860288Y-78118210D01*
X133729185Y-78030609D01*
X133729172Y-78030602D01*
X133583501Y-77970264D01*
X133583491Y-77970261D01*
X133428149Y-77939361D01*
X133366238Y-77906976D01*
X133364660Y-77905425D01*
X129040388Y-73581153D01*
X142709500Y-73581153D01*
X142709500Y-73738846D01*
X142740261Y-73893489D01*
X142740264Y-73893501D01*
X142800602Y-74039172D01*
X142800609Y-74039185D01*
X142888210Y-74170288D01*
X142888213Y-74170292D01*
X142999707Y-74281786D01*
X142999711Y-74281789D01*
X143130814Y-74369390D01*
X143130827Y-74369397D01*
X143252288Y-74419707D01*
X143276503Y-74429737D01*
X143341147Y-74442595D01*
X143431849Y-74460638D01*
X143493760Y-74493023D01*
X143495339Y-74494574D01*
X144295139Y-75294374D01*
X144295149Y-75294385D01*
X144299479Y-75298715D01*
X144299480Y-75298716D01*
X144411284Y-75410520D01*
X144445481Y-75430263D01*
X144498095Y-75460639D01*
X144498097Y-75460641D01*
X144548213Y-75489576D01*
X144548215Y-75489577D01*
X144700942Y-75530500D01*
X144700943Y-75530500D01*
X153583331Y-75530500D01*
X153583347Y-75530501D01*
X153590943Y-75530501D01*
X153749054Y-75530501D01*
X153749057Y-75530501D01*
X153901785Y-75489577D01*
X153951904Y-75460639D01*
X154038716Y-75410520D01*
X154150520Y-75298716D01*
X154150520Y-75298714D01*
X154160728Y-75288507D01*
X154160729Y-75288504D01*
X157494664Y-71954571D01*
X157555985Y-71921088D01*
X157558152Y-71920637D01*
X157558841Y-71920500D01*
X157558842Y-71920500D01*
X157713497Y-71889737D01*
X157859179Y-71829394D01*
X157887607Y-71810398D01*
X157954283Y-71789520D01*
X158021664Y-71808003D01*
X158068355Y-71859981D01*
X158079533Y-71928951D01*
X158059602Y-71982389D01*
X158040611Y-72010811D01*
X158040602Y-72010827D01*
X157980264Y-72156498D01*
X157980261Y-72156510D01*
X157949500Y-72311153D01*
X157949500Y-72468846D01*
X157980261Y-72623489D01*
X157980264Y-72623501D01*
X158040602Y-72769172D01*
X158040609Y-72769185D01*
X158105706Y-72866609D01*
X158126584Y-72933287D01*
X158108099Y-73000667D01*
X158056121Y-73047357D01*
X158002604Y-73059500D01*
X157559057Y-73059500D01*
X157400943Y-73059500D01*
X157248215Y-73100423D01*
X157248214Y-73100423D01*
X157248212Y-73100424D01*
X157248209Y-73100425D01*
X157198096Y-73129359D01*
X157198095Y-73129360D01*
X157162853Y-73149707D01*
X157111285Y-73179479D01*
X157111282Y-73179481D01*
X150649481Y-79641282D01*
X150649479Y-79641285D01*
X150599361Y-79728094D01*
X150599359Y-79728096D01*
X150570425Y-79778209D01*
X150570424Y-79778210D01*
X150570423Y-79778215D01*
X150529499Y-79930943D01*
X150529499Y-79930945D01*
X150529499Y-80099046D01*
X150529500Y-80099059D01*
X150529500Y-97210234D01*
X150509815Y-97277273D01*
X150508602Y-97279125D01*
X150420609Y-97410814D01*
X150420602Y-97410827D01*
X150360264Y-97556498D01*
X150360261Y-97556510D01*
X150329500Y-97711153D01*
X150329500Y-97868846D01*
X150360261Y-98023489D01*
X150360264Y-98023501D01*
X150420602Y-98169172D01*
X150420609Y-98169185D01*
X150508210Y-98300288D01*
X150508213Y-98300292D01*
X150619707Y-98411786D01*
X150619711Y-98411789D01*
X150750814Y-98499390D01*
X150750827Y-98499397D01*
X150885615Y-98555227D01*
X150896503Y-98559737D01*
X151051153Y-98590499D01*
X151051156Y-98590500D01*
X151051158Y-98590500D01*
X151208844Y-98590500D01*
X151208845Y-98590499D01*
X151363497Y-98559737D01*
X151509179Y-98499394D01*
X151640289Y-98411789D01*
X151751789Y-98300289D01*
X151839394Y-98169179D01*
X151843728Y-98158717D01*
X151899735Y-98023501D01*
X151899737Y-98023497D01*
X151930500Y-97868842D01*
X151930500Y-97711158D01*
X151930500Y-97711155D01*
X151930499Y-97711153D01*
X151899738Y-97556510D01*
X151899737Y-97556503D01*
X151893425Y-97541265D01*
X151839397Y-97410827D01*
X151839390Y-97410814D01*
X151751398Y-97279125D01*
X151730520Y-97212447D01*
X151730500Y-97210234D01*
X151730500Y-96441153D01*
X152869500Y-96441153D01*
X152869500Y-96598846D01*
X152900261Y-96753489D01*
X152900264Y-96753501D01*
X152960602Y-96899172D01*
X152960609Y-96899185D01*
X153048602Y-97030874D01*
X153069480Y-97097551D01*
X153069500Y-97099765D01*
X153069500Y-101020234D01*
X153049815Y-101087273D01*
X153048602Y-101089125D01*
X152960609Y-101220814D01*
X152960602Y-101220827D01*
X152900264Y-101366498D01*
X152900261Y-101366510D01*
X152869500Y-101521153D01*
X152869500Y-101678846D01*
X152900261Y-101833489D01*
X152900264Y-101833501D01*
X152960602Y-101979172D01*
X152960609Y-101979185D01*
X153048210Y-102110288D01*
X153048213Y-102110292D01*
X153159707Y-102221786D01*
X153159711Y-102221789D01*
X153290814Y-102309390D01*
X153290827Y-102309397D01*
X153360901Y-102338422D01*
X153436503Y-102369737D01*
X153591153Y-102400499D01*
X153591156Y-102400500D01*
X153591158Y-102400500D01*
X153748844Y-102400500D01*
X153748845Y-102400499D01*
X153903497Y-102369737D01*
X154049179Y-102309394D01*
X154180289Y-102221789D01*
X154291789Y-102110289D01*
X154379394Y-101979179D01*
X154439737Y-101833497D01*
X154470500Y-101678842D01*
X154470500Y-101521158D01*
X154470500Y-101521155D01*
X154470499Y-101521153D01*
X154439738Y-101366510D01*
X154439737Y-101366503D01*
X154391883Y-101250972D01*
X154379397Y-101220827D01*
X154379390Y-101220814D01*
X154291398Y-101089125D01*
X154270520Y-101022447D01*
X154270500Y-101020234D01*
X154270500Y-97099765D01*
X154290185Y-97032726D01*
X154291398Y-97030874D01*
X154379390Y-96899185D01*
X154379390Y-96899184D01*
X154379394Y-96899179D01*
X154439737Y-96753497D01*
X154470500Y-96598842D01*
X154470500Y-96441158D01*
X154470500Y-96441155D01*
X154466062Y-96418845D01*
X154466062Y-96418844D01*
X154462057Y-96398711D01*
X172139500Y-96398711D01*
X172139500Y-96641288D01*
X172171161Y-96881785D01*
X172233947Y-97116104D01*
X172326773Y-97340205D01*
X172326776Y-97340212D01*
X172448064Y-97550289D01*
X172448066Y-97550292D01*
X172448067Y-97550293D01*
X172595733Y-97742736D01*
X172595739Y-97742743D01*
X172767256Y-97914260D01*
X172767262Y-97914265D01*
X172959711Y-98061936D01*
X173169788Y-98183224D01*
X173393900Y-98276054D01*
X173628211Y-98338838D01*
X173805286Y-98362150D01*
X173868711Y-98370500D01*
X173868712Y-98370500D01*
X174111289Y-98370500D01*
X174174691Y-98362153D01*
X174351789Y-98338838D01*
X174586100Y-98276054D01*
X174810212Y-98183224D01*
X175020289Y-98061936D01*
X175212738Y-97914265D01*
X175384265Y-97742738D01*
X175531936Y-97550289D01*
X175653224Y-97340212D01*
X175746054Y-97116100D01*
X175808838Y-96881789D01*
X175840500Y-96641288D01*
X175840500Y-96398712D01*
X175808838Y-96158211D01*
X175746054Y-95923900D01*
X175653224Y-95699788D01*
X175531936Y-95489711D01*
X175384265Y-95297262D01*
X175384260Y-95297256D01*
X175212743Y-95125739D01*
X175212736Y-95125733D01*
X175020293Y-94978067D01*
X175020292Y-94978066D01*
X175020289Y-94978064D01*
X174810212Y-94856776D01*
X174810205Y-94856773D01*
X174586104Y-94763947D01*
X174351785Y-94701161D01*
X174111289Y-94669500D01*
X174111288Y-94669500D01*
X173868712Y-94669500D01*
X173868711Y-94669500D01*
X173628214Y-94701161D01*
X173393895Y-94763947D01*
X173169794Y-94856773D01*
X173169785Y-94856777D01*
X172959706Y-94978067D01*
X172767263Y-95125733D01*
X172767256Y-95125739D01*
X172595739Y-95297256D01*
X172595733Y-95297263D01*
X172448067Y-95489706D01*
X172326777Y-95699785D01*
X172326773Y-95699794D01*
X172233947Y-95923895D01*
X172171161Y-96158214D01*
X172139500Y-96398711D01*
X154462057Y-96398711D01*
X154439738Y-96286510D01*
X154439737Y-96286503D01*
X154439735Y-96286498D01*
X154379397Y-96140827D01*
X154379390Y-96140814D01*
X154291789Y-96009711D01*
X154291786Y-96009707D01*
X154180292Y-95898213D01*
X154180288Y-95898210D01*
X154049185Y-95810609D01*
X154049172Y-95810602D01*
X153903501Y-95750264D01*
X153903489Y-95750261D01*
X153748845Y-95719500D01*
X153748842Y-95719500D01*
X153591158Y-95719500D01*
X153591155Y-95719500D01*
X153436510Y-95750261D01*
X153436498Y-95750264D01*
X153290827Y-95810602D01*
X153290814Y-95810609D01*
X153159711Y-95898210D01*
X153159707Y-95898213D01*
X153048213Y-96009707D01*
X153048210Y-96009711D01*
X152960609Y-96140814D01*
X152960602Y-96140827D01*
X152900264Y-96286498D01*
X152900261Y-96286510D01*
X152869500Y-96441153D01*
X151730500Y-96441153D01*
X151730500Y-87551153D01*
X161759500Y-87551153D01*
X161759500Y-87708846D01*
X161790261Y-87863489D01*
X161790264Y-87863501D01*
X161850602Y-88009172D01*
X161850609Y-88009185D01*
X161938210Y-88140288D01*
X161938213Y-88140292D01*
X162049707Y-88251786D01*
X162049711Y-88251789D01*
X162180814Y-88339390D01*
X162180827Y-88339397D01*
X162326498Y-88399735D01*
X162326503Y-88399737D01*
X162481153Y-88430499D01*
X162481156Y-88430500D01*
X162481158Y-88430500D01*
X162638844Y-88430500D01*
X162638845Y-88430499D01*
X162793497Y-88399737D01*
X162939179Y-88339394D01*
X163070289Y-88251789D01*
X163181789Y-88140289D01*
X163269394Y-88009179D01*
X163329737Y-87863497D01*
X163360500Y-87708842D01*
X163360500Y-87551158D01*
X163360500Y-87551155D01*
X163360499Y-87551153D01*
X163353121Y-87514064D01*
X163329737Y-87396503D01*
X163329735Y-87396498D01*
X163269397Y-87250827D01*
X163269390Y-87250814D01*
X163181398Y-87119125D01*
X163160520Y-87052447D01*
X163160500Y-87050234D01*
X163160500Y-85837395D01*
X163180185Y-85770356D01*
X163232989Y-85724601D01*
X163302147Y-85714657D01*
X163353390Y-85734292D01*
X163450821Y-85799394D01*
X163450823Y-85799395D01*
X163450827Y-85799397D01*
X163542564Y-85837395D01*
X163596503Y-85859737D01*
X163716641Y-85883634D01*
X163751153Y-85890499D01*
X163751156Y-85890500D01*
X163751158Y-85890500D01*
X163908844Y-85890500D01*
X163908845Y-85890499D01*
X164063497Y-85859737D01*
X164209179Y-85799394D01*
X164340289Y-85711789D01*
X164451789Y-85600289D01*
X164539394Y-85469179D01*
X164599737Y-85323497D01*
X164630500Y-85168842D01*
X164630500Y-85011158D01*
X164630500Y-85011155D01*
X164630499Y-85011153D01*
X164599738Y-84856510D01*
X164599737Y-84856503D01*
X164599735Y-84856498D01*
X164539397Y-84710827D01*
X164539390Y-84710814D01*
X164451398Y-84579125D01*
X164430520Y-84512447D01*
X164430500Y-84510234D01*
X164430500Y-76947395D01*
X164450185Y-76880356D01*
X164502989Y-76834601D01*
X164572147Y-76824657D01*
X164623390Y-76844292D01*
X164720821Y-76909394D01*
X164720823Y-76909395D01*
X164720827Y-76909397D01*
X164812564Y-76947395D01*
X164866503Y-76969737D01*
X164931147Y-76982595D01*
X165021849Y-77000638D01*
X165083760Y-77033023D01*
X165085339Y-77034574D01*
X165885139Y-77834374D01*
X165885149Y-77834385D01*
X165889479Y-77838715D01*
X165889480Y-77838716D01*
X166001284Y-77950520D01*
X166035481Y-77970263D01*
X166088095Y-78000639D01*
X166088097Y-78000641D01*
X166138213Y-78029576D01*
X166138215Y-78029577D01*
X166290942Y-78070500D01*
X166290943Y-78070500D01*
X168330234Y-78070500D01*
X168397273Y-78090185D01*
X168399125Y-78091398D01*
X168530814Y-78179390D01*
X168530827Y-78179397D01*
X168652288Y-78229707D01*
X168676503Y-78239737D01*
X168831153Y-78270499D01*
X168831156Y-78270500D01*
X168831158Y-78270500D01*
X168988844Y-78270500D01*
X168988845Y-78270499D01*
X169143497Y-78239737D01*
X169289179Y-78179394D01*
X169420289Y-78091789D01*
X169531789Y-77980289D01*
X169619394Y-77849179D01*
X169679737Y-77703497D01*
X169710500Y-77548842D01*
X169710500Y-77391158D01*
X169710500Y-77391155D01*
X169710499Y-77391153D01*
X169679738Y-77236510D01*
X169679737Y-77236503D01*
X169679735Y-77236498D01*
X169619397Y-77090827D01*
X169619390Y-77090814D01*
X169531789Y-76959711D01*
X169531786Y-76959707D01*
X169420292Y-76848213D01*
X169420288Y-76848210D01*
X169289185Y-76760609D01*
X169289172Y-76760602D01*
X169143501Y-76700264D01*
X169143489Y-76700261D01*
X169084112Y-76688450D01*
X169084111Y-76688450D01*
X168988844Y-76669500D01*
X168988842Y-76669500D01*
X168831158Y-76669500D01*
X168831155Y-76669500D01*
X168676510Y-76700261D01*
X168676498Y-76700264D01*
X168530827Y-76760602D01*
X168530814Y-76760609D01*
X168399125Y-76848602D01*
X168332447Y-76869480D01*
X168330234Y-76869500D01*
X166670097Y-76869500D01*
X166603058Y-76849815D01*
X166582416Y-76833181D01*
X166319217Y-76569982D01*
X173659500Y-76569982D01*
X173659500Y-78370017D01*
X173670000Y-78472796D01*
X173725185Y-78639332D01*
X173725187Y-78639337D01*
X173760070Y-78695890D01*
X173817288Y-78788656D01*
X173941344Y-78912712D01*
X174090665Y-79004814D01*
X174257202Y-79059999D01*
X174359990Y-79070500D01*
X174359995Y-79070500D01*
X176160005Y-79070500D01*
X176160010Y-79070500D01*
X176262798Y-79059999D01*
X176429335Y-79004814D01*
X176578656Y-78912712D01*
X176702712Y-78788656D01*
X176794814Y-78639335D01*
X176849999Y-78472798D01*
X176860500Y-78370010D01*
X176860500Y-76569990D01*
X176849999Y-76467202D01*
X176794814Y-76300665D01*
X176702712Y-76151344D01*
X176578656Y-76027288D01*
X176429335Y-75935186D01*
X176262798Y-75880001D01*
X176262796Y-75880000D01*
X176160017Y-75869500D01*
X176160010Y-75869500D01*
X174359990Y-75869500D01*
X174359982Y-75869500D01*
X174257203Y-75880000D01*
X174257202Y-75880001D01*
X174174669Y-75907349D01*
X174090667Y-75935185D01*
X174090662Y-75935187D01*
X173941342Y-76027289D01*
X173817289Y-76151342D01*
X173725187Y-76300662D01*
X173725186Y-76300665D01*
X173670001Y-76467202D01*
X173670001Y-76467203D01*
X173670000Y-76467203D01*
X173659500Y-76569982D01*
X166319217Y-76569982D01*
X165934574Y-76185339D01*
X165901089Y-76124016D01*
X165900638Y-76121849D01*
X165869738Y-75966510D01*
X165869737Y-75966503D01*
X165833907Y-75880000D01*
X165809397Y-75820827D01*
X165809390Y-75820814D01*
X165721789Y-75689711D01*
X165721786Y-75689707D01*
X165610292Y-75578213D01*
X165610288Y-75578210D01*
X165479185Y-75490609D01*
X165479172Y-75490602D01*
X165333501Y-75430264D01*
X165333489Y-75430261D01*
X165178845Y-75399500D01*
X165178842Y-75399500D01*
X165021158Y-75399500D01*
X165021155Y-75399500D01*
X164866510Y-75430261D01*
X164866498Y-75430264D01*
X164720827Y-75490602D01*
X164720811Y-75490611D01*
X164692389Y-75509602D01*
X164625712Y-75530479D01*
X164558332Y-75511994D01*
X164511642Y-75460014D01*
X164500467Y-75391044D01*
X164520398Y-75337608D01*
X164539394Y-75309179D01*
X164599737Y-75163497D01*
X164630500Y-75008842D01*
X164630500Y-74851158D01*
X164630500Y-74851155D01*
X164630499Y-74851153D01*
X164599738Y-74696510D01*
X164599737Y-74696503D01*
X164599735Y-74696498D01*
X164539397Y-74550827D01*
X164539390Y-74550814D01*
X164451789Y-74419711D01*
X164451786Y-74419707D01*
X164340292Y-74308213D01*
X164340288Y-74308210D01*
X164209185Y-74220609D01*
X164209172Y-74220602D01*
X164063501Y-74160264D01*
X164063489Y-74160261D01*
X163908845Y-74129500D01*
X163908842Y-74129500D01*
X163751158Y-74129500D01*
X163751155Y-74129500D01*
X163596510Y-74160261D01*
X163596498Y-74160264D01*
X163450827Y-74220602D01*
X163450814Y-74220609D01*
X163353391Y-74285706D01*
X163343690Y-74288743D01*
X163336011Y-74295398D01*
X163310911Y-74299006D01*
X163286713Y-74306584D01*
X163276913Y-74303895D01*
X163266853Y-74305342D01*
X163243784Y-74294807D01*
X163219333Y-74288099D01*
X163212542Y-74280539D01*
X163203297Y-74276317D01*
X163189587Y-74254985D01*
X163172643Y-74236121D01*
X163170011Y-74224523D01*
X163165523Y-74217539D01*
X163160500Y-74182604D01*
X163160500Y-73960097D01*
X163180185Y-73893058D01*
X163196819Y-73872416D01*
X164310519Y-72758716D01*
X165329050Y-71740185D01*
X166384662Y-70684572D01*
X166445983Y-70651089D01*
X166448150Y-70650638D01*
X166526066Y-70635139D01*
X166603497Y-70619737D01*
X166749179Y-70559394D01*
X166880289Y-70471789D01*
X166991789Y-70360289D01*
X167079394Y-70229179D01*
X167083728Y-70218717D01*
X167139735Y-70083501D01*
X167139737Y-70083497D01*
X167170500Y-69928842D01*
X167170500Y-69771158D01*
X167170500Y-69771155D01*
X167170499Y-69771153D01*
X167139738Y-69616510D01*
X167139738Y-69616508D01*
X167139737Y-69616503D01*
X167083728Y-69481284D01*
X167079397Y-69470827D01*
X167079390Y-69470814D01*
X166991789Y-69339711D01*
X166991786Y-69339707D01*
X166880292Y-69228213D01*
X166880288Y-69228210D01*
X166749185Y-69140609D01*
X166749172Y-69140602D01*
X166603501Y-69080264D01*
X166603489Y-69080261D01*
X166448845Y-69049500D01*
X166448842Y-69049500D01*
X166291158Y-69049500D01*
X166291155Y-69049500D01*
X166136510Y-69080261D01*
X166136498Y-69080264D01*
X165990827Y-69140602D01*
X165990814Y-69140609D01*
X165859711Y-69228210D01*
X165859707Y-69228213D01*
X165748213Y-69339707D01*
X165748210Y-69339711D01*
X165660609Y-69470814D01*
X165660602Y-69470827D01*
X165600264Y-69616498D01*
X165600261Y-69616508D01*
X165569361Y-69771850D01*
X165536976Y-69833761D01*
X165535425Y-69835339D01*
X163461284Y-71909481D01*
X162191286Y-73179478D01*
X162079481Y-73291282D01*
X162079479Y-73291285D01*
X162029361Y-73378094D01*
X162029359Y-73378096D01*
X162000425Y-73428209D01*
X162000424Y-73428210D01*
X162000423Y-73428215D01*
X161959499Y-73580943D01*
X161959499Y-73580945D01*
X161959499Y-73749046D01*
X161959500Y-73749059D01*
X161959500Y-87050234D01*
X161939815Y-87117273D01*
X161938602Y-87119125D01*
X161850609Y-87250814D01*
X161850602Y-87250827D01*
X161790264Y-87396498D01*
X161790261Y-87396510D01*
X161759500Y-87551153D01*
X151730500Y-87551153D01*
X151730500Y-80310097D01*
X151750185Y-80243058D01*
X151766819Y-80222416D01*
X157692416Y-74296819D01*
X157753739Y-74263334D01*
X157780097Y-74260500D01*
X159933331Y-74260500D01*
X159933347Y-74260501D01*
X159940943Y-74260501D01*
X160099054Y-74260501D01*
X160099057Y-74260501D01*
X160251785Y-74219577D01*
X160301904Y-74190639D01*
X160388716Y-74140520D01*
X160500520Y-74028716D01*
X160500520Y-74028714D01*
X160510728Y-74018507D01*
X160510729Y-74018504D01*
X164310520Y-70218716D01*
X164389577Y-70081784D01*
X164430501Y-69929057D01*
X164430501Y-69770942D01*
X164430501Y-69763347D01*
X164430500Y-69763329D01*
X164430500Y-67184038D01*
X173659500Y-67184038D01*
X173659500Y-67435962D01*
X173679146Y-67560000D01*
X173698910Y-67684785D01*
X173776760Y-67924383D01*
X173891132Y-68148848D01*
X174039201Y-68352649D01*
X174039205Y-68352654D01*
X174217345Y-68530794D01*
X174217350Y-68530798D01*
X174312898Y-68600217D01*
X174421155Y-68678870D01*
X174564184Y-68751747D01*
X174645616Y-68793239D01*
X174645618Y-68793239D01*
X174645621Y-68793241D01*
X174885215Y-68871090D01*
X175134038Y-68910500D01*
X175134039Y-68910500D01*
X175385961Y-68910500D01*
X175385962Y-68910500D01*
X175634785Y-68871090D01*
X175874379Y-68793241D01*
X176098845Y-68678870D01*
X176302656Y-68530793D01*
X176480793Y-68352656D01*
X176628870Y-68148845D01*
X176743241Y-67924379D01*
X176821090Y-67684785D01*
X176860500Y-67435962D01*
X176860500Y-67184038D01*
X176821090Y-66935215D01*
X176743241Y-66695621D01*
X176743239Y-66695618D01*
X176743239Y-66695616D01*
X176679561Y-66570642D01*
X176628870Y-66471155D01*
X176576084Y-66398501D01*
X176480798Y-66267350D01*
X176480794Y-66267345D01*
X176302654Y-66089205D01*
X176302649Y-66089201D01*
X176098848Y-65941132D01*
X176098847Y-65941131D01*
X176098845Y-65941130D01*
X176028747Y-65905413D01*
X175874383Y-65826760D01*
X175634785Y-65748910D01*
X175385962Y-65709500D01*
X175134038Y-65709500D01*
X175009626Y-65729205D01*
X174885214Y-65748910D01*
X174645616Y-65826760D01*
X174421151Y-65941132D01*
X174217350Y-66089201D01*
X174217345Y-66089205D01*
X174039205Y-66267345D01*
X174039201Y-66267350D01*
X173891132Y-66471151D01*
X173776760Y-66695616D01*
X173698910Y-66935214D01*
X173679146Y-67060000D01*
X173659500Y-67184038D01*
X164430500Y-67184038D01*
X164430500Y-51379765D01*
X164450185Y-51312726D01*
X164451398Y-51310874D01*
X164458490Y-51300261D01*
X164539394Y-51179179D01*
X164599737Y-51033497D01*
X164630500Y-50878842D01*
X164630500Y-50721158D01*
X164630500Y-50721155D01*
X164630499Y-50721153D01*
X164622611Y-50681500D01*
X164599737Y-50566503D01*
X164599735Y-50566498D01*
X164539397Y-50420827D01*
X164539390Y-50420814D01*
X164451789Y-50289711D01*
X164451786Y-50289707D01*
X164340292Y-50178213D01*
X164340288Y-50178210D01*
X164209185Y-50090609D01*
X164209172Y-50090602D01*
X164063501Y-50030264D01*
X164063489Y-50030261D01*
X163908845Y-49999500D01*
X163908842Y-49999500D01*
X163751158Y-49999500D01*
X163751155Y-49999500D01*
X163596510Y-50030261D01*
X163596498Y-50030264D01*
X163450827Y-50090602D01*
X163450814Y-50090609D01*
X163319711Y-50178210D01*
X163319707Y-50178213D01*
X163208213Y-50289707D01*
X163208210Y-50289711D01*
X163120609Y-50420814D01*
X163120602Y-50420827D01*
X163060264Y-50566498D01*
X163060261Y-50566510D01*
X163029500Y-50721153D01*
X163029500Y-50878846D01*
X163060261Y-51033489D01*
X163060264Y-51033501D01*
X163120602Y-51179172D01*
X163120609Y-51179185D01*
X163193033Y-51287573D01*
X163201510Y-51300261D01*
X163208602Y-51310874D01*
X163229480Y-51377551D01*
X163229500Y-51379765D01*
X163229500Y-69549902D01*
X163209815Y-69616941D01*
X163193181Y-69637583D01*
X159807584Y-73023181D01*
X159780656Y-73037884D01*
X159754838Y-73054477D01*
X159748637Y-73055368D01*
X159746261Y-73056666D01*
X159719903Y-73059500D01*
X159497396Y-73059500D01*
X159430357Y-73039815D01*
X159384602Y-72987011D01*
X159374658Y-72917853D01*
X159394294Y-72866609D01*
X159459390Y-72769185D01*
X159459390Y-72769184D01*
X159459394Y-72769179D01*
X159519737Y-72623497D01*
X159550500Y-72468842D01*
X159550500Y-72311158D01*
X159550500Y-72311155D01*
X159550499Y-72311153D01*
X159519738Y-72156510D01*
X159519737Y-72156503D01*
X159482707Y-72067104D01*
X159459397Y-72010827D01*
X159459390Y-72010814D01*
X159371398Y-71879125D01*
X159350520Y-71812447D01*
X159350500Y-71810234D01*
X159350500Y-71040945D01*
X159350500Y-71040943D01*
X159309577Y-70888216D01*
X159309577Y-70888215D01*
X159309577Y-70888214D01*
X159280639Y-70838095D01*
X159280637Y-70838092D01*
X159234602Y-70758355D01*
X159230520Y-70751284D01*
X159118716Y-70639480D01*
X159118715Y-70639479D01*
X159114385Y-70635149D01*
X159114374Y-70635139D01*
X157967590Y-69488355D01*
X157967588Y-69488352D01*
X157848717Y-69369481D01*
X157848716Y-69369480D01*
X157751180Y-69313168D01*
X157711785Y-69290423D01*
X157559057Y-69249499D01*
X157400943Y-69249499D01*
X157393347Y-69249499D01*
X157393331Y-69249500D01*
X156130940Y-69249500D01*
X156090019Y-69260464D01*
X156090019Y-69260465D01*
X156052751Y-69270451D01*
X155978214Y-69290423D01*
X155978209Y-69290426D01*
X155841290Y-69369475D01*
X155841282Y-69369481D01*
X155756701Y-69454063D01*
X155729480Y-69481284D01*
X155729478Y-69481286D01*
X154575616Y-70635149D01*
X153457584Y-71753181D01*
X153396261Y-71786666D01*
X153369903Y-71789500D01*
X152979766Y-71789500D01*
X152912727Y-71769815D01*
X152910875Y-71768602D01*
X152779185Y-71680609D01*
X152779172Y-71680602D01*
X152633501Y-71620264D01*
X152633489Y-71620261D01*
X152478845Y-71589500D01*
X152478842Y-71589500D01*
X152321158Y-71589500D01*
X152321155Y-71589500D01*
X152166510Y-71620261D01*
X152166498Y-71620264D01*
X152020827Y-71680602D01*
X152020814Y-71680609D01*
X151889711Y-71768210D01*
X151889707Y-71768213D01*
X151778213Y-71879707D01*
X151778210Y-71879711D01*
X151690609Y-72010814D01*
X151690602Y-72010827D01*
X151630264Y-72156498D01*
X151630261Y-72156510D01*
X151599500Y-72311153D01*
X151599500Y-72468846D01*
X151630261Y-72623489D01*
X151630264Y-72623501D01*
X151690602Y-72769172D01*
X151690609Y-72769185D01*
X151778210Y-72900288D01*
X151778213Y-72900292D01*
X151889707Y-73011786D01*
X151889711Y-73011789D01*
X152020814Y-73099390D01*
X152020827Y-73099397D01*
X152093168Y-73129361D01*
X152166503Y-73159737D01*
X152321153Y-73190499D01*
X152321156Y-73190500D01*
X152321158Y-73190500D01*
X152478844Y-73190500D01*
X152478845Y-73190499D01*
X152633497Y-73159737D01*
X152776690Y-73100425D01*
X152779172Y-73099397D01*
X152779172Y-73099396D01*
X152779179Y-73099394D01*
X152843126Y-73056666D01*
X152910875Y-73011398D01*
X152977553Y-72990520D01*
X152979766Y-72990500D01*
X153583331Y-72990500D01*
X153583347Y-72990501D01*
X153590943Y-72990501D01*
X153749054Y-72990501D01*
X153749057Y-72990501D01*
X153901785Y-72949577D01*
X153951904Y-72920639D01*
X154038716Y-72870520D01*
X154150520Y-72758716D01*
X154150520Y-72758714D01*
X154160728Y-72748507D01*
X154160729Y-72748504D01*
X156422416Y-70486819D01*
X156449343Y-70472115D01*
X156475162Y-70455523D01*
X156481362Y-70454631D01*
X156483739Y-70453334D01*
X156510097Y-70450500D01*
X156732604Y-70450500D01*
X156799643Y-70470185D01*
X156845398Y-70522989D01*
X156855342Y-70592147D01*
X156835706Y-70643391D01*
X156770609Y-70740814D01*
X156770602Y-70740827D01*
X156710264Y-70886498D01*
X156710261Y-70886508D01*
X156679362Y-71041848D01*
X156646977Y-71103759D01*
X156645426Y-71105337D01*
X153457584Y-74293181D01*
X153396261Y-74326666D01*
X153369903Y-74329500D01*
X145080097Y-74329500D01*
X145013058Y-74309815D01*
X144992416Y-74293181D01*
X144344574Y-73645339D01*
X144311089Y-73584016D01*
X144310638Y-73581849D01*
X144292595Y-73491147D01*
X144279737Y-73426503D01*
X144279735Y-73426498D01*
X144219397Y-73280827D01*
X144219390Y-73280814D01*
X144131789Y-73149711D01*
X144131786Y-73149707D01*
X144020292Y-73038213D01*
X144020288Y-73038210D01*
X143889185Y-72950609D01*
X143889172Y-72950602D01*
X143743501Y-72890264D01*
X143743489Y-72890261D01*
X143588845Y-72859500D01*
X143588842Y-72859500D01*
X143431158Y-72859500D01*
X143431155Y-72859500D01*
X143276510Y-72890261D01*
X143276498Y-72890264D01*
X143130827Y-72950602D01*
X143130814Y-72950609D01*
X142999711Y-73038210D01*
X142999707Y-73038213D01*
X142888213Y-73149707D01*
X142888210Y-73149711D01*
X142800609Y-73280814D01*
X142800602Y-73280827D01*
X142740264Y-73426498D01*
X142740261Y-73426510D01*
X142709500Y-73581153D01*
X129040388Y-73581153D01*
X126217590Y-70758355D01*
X126217588Y-70758352D01*
X126098717Y-70639481D01*
X126098716Y-70639480D01*
X126011904Y-70589360D01*
X126011904Y-70589359D01*
X126011900Y-70589358D01*
X125961785Y-70560423D01*
X125809057Y-70519499D01*
X125650943Y-70519499D01*
X125643347Y-70519499D01*
X125643331Y-70519500D01*
X123769766Y-70519500D01*
X123702727Y-70499815D01*
X123700875Y-70498602D01*
X123569185Y-70410609D01*
X123569172Y-70410602D01*
X123423501Y-70350264D01*
X123423489Y-70350261D01*
X123268845Y-70319500D01*
X123268842Y-70319500D01*
X123111158Y-70319500D01*
X123111155Y-70319500D01*
X122956510Y-70350261D01*
X122956498Y-70350264D01*
X122810827Y-70410602D01*
X122810814Y-70410609D01*
X122679711Y-70498210D01*
X122679707Y-70498213D01*
X122568213Y-70609707D01*
X122568210Y-70609711D01*
X122480609Y-70740814D01*
X122480602Y-70740827D01*
X122420264Y-70886498D01*
X122420261Y-70886510D01*
X122389500Y-71041153D01*
X113305500Y-71041153D01*
X113305500Y-70850182D01*
X113276832Y-70632425D01*
X113219986Y-70420273D01*
X113190987Y-70350264D01*
X113140835Y-70229185D01*
X113135935Y-70217355D01*
X113026116Y-70027145D01*
X112950687Y-69928844D01*
X112892411Y-69852897D01*
X112892405Y-69852890D01*
X112737109Y-69697594D01*
X112737102Y-69697588D01*
X112562863Y-69563890D01*
X112562861Y-69563889D01*
X112562855Y-69563884D01*
X112372645Y-69454065D01*
X112372641Y-69454063D01*
X112169729Y-69370014D01*
X111957573Y-69313167D01*
X111739828Y-69284501D01*
X111739823Y-69284500D01*
X111739818Y-69284500D01*
X111520182Y-69284500D01*
X111520176Y-69284500D01*
X111520171Y-69284501D01*
X111302426Y-69313167D01*
X111090270Y-69370014D01*
X110887358Y-69454063D01*
X110887354Y-69454065D01*
X110697145Y-69563884D01*
X110697136Y-69563890D01*
X110522897Y-69697588D01*
X110522890Y-69697594D01*
X110367594Y-69852890D01*
X110367588Y-69852897D01*
X110233890Y-70027136D01*
X110233884Y-70027145D01*
X110124065Y-70217354D01*
X110124063Y-70217358D01*
X110040014Y-70420270D01*
X109983167Y-70632426D01*
X109954501Y-70850171D01*
X109954500Y-70850188D01*
X99060000Y-70850188D01*
X99060000Y-68501153D01*
X126199500Y-68501153D01*
X126199500Y-68658846D01*
X126230261Y-68813489D01*
X126230264Y-68813501D01*
X126290602Y-68959172D01*
X126290609Y-68959185D01*
X126378210Y-69090288D01*
X126378213Y-69090292D01*
X126489707Y-69201786D01*
X126489711Y-69201789D01*
X126620814Y-69289390D01*
X126620827Y-69289397D01*
X126678219Y-69313169D01*
X126766503Y-69349737D01*
X126868442Y-69370014D01*
X126921153Y-69380499D01*
X126921156Y-69380500D01*
X126921158Y-69380500D01*
X127078844Y-69380500D01*
X127078845Y-69380499D01*
X127233497Y-69349737D01*
X127379179Y-69289394D01*
X127386503Y-69284500D01*
X127510875Y-69201398D01*
X127577553Y-69180520D01*
X127579766Y-69180500D01*
X131993331Y-69180500D01*
X131993347Y-69180501D01*
X132000943Y-69180501D01*
X132159054Y-69180501D01*
X132159057Y-69180501D01*
X132311785Y-69139577D01*
X132361904Y-69110639D01*
X132448716Y-69060520D01*
X132560520Y-68948716D01*
X132560520Y-68948714D01*
X132570728Y-68938507D01*
X132570729Y-68938504D01*
X133690218Y-67819015D01*
X134073979Y-67435256D01*
X134449235Y-67060000D01*
X153501468Y-67060000D01*
X154449252Y-67060000D01*
X154427482Y-67097708D01*
X154390000Y-67237591D01*
X154390000Y-67382409D01*
X154427482Y-67522292D01*
X154449252Y-67560000D01*
X153501468Y-67560000D01*
X153523265Y-67697628D01*
X153593917Y-67915070D01*
X153697711Y-68118776D01*
X153832097Y-68303742D01*
X153993757Y-68465402D01*
X154178723Y-68599788D01*
X154382429Y-68703582D01*
X154599871Y-68774234D01*
X154690000Y-68788509D01*
X154690000Y-67800747D01*
X154727708Y-67822518D01*
X154867591Y-67860000D01*
X155012409Y-67860000D01*
X155152292Y-67822518D01*
X155190000Y-67800747D01*
X155190000Y-68788508D01*
X155280128Y-68774234D01*
X155497570Y-68703582D01*
X155701276Y-68599788D01*
X155886242Y-68465402D01*
X156047905Y-68303739D01*
X156109371Y-68219137D01*
X156164701Y-68176470D01*
X156234314Y-68170491D01*
X156296109Y-68203096D01*
X156310007Y-68219134D01*
X156371714Y-68304066D01*
X156533434Y-68465786D01*
X156718462Y-68600217D01*
X156921327Y-68703582D01*
X156922244Y-68704049D01*
X157139751Y-68774721D01*
X157139752Y-68774721D01*
X157139755Y-68774722D01*
X157365646Y-68810500D01*
X157365647Y-68810500D01*
X157594353Y-68810500D01*
X157594354Y-68810500D01*
X157820245Y-68774722D01*
X157820248Y-68774721D01*
X157820249Y-68774721D01*
X158037755Y-68704049D01*
X158037755Y-68704048D01*
X158037758Y-68704048D01*
X158241538Y-68600217D01*
X158424245Y-68467472D01*
X158490046Y-68443994D01*
X158558100Y-68459819D01*
X158606795Y-68509924D01*
X158613308Y-68524459D01*
X158623702Y-68552328D01*
X158623706Y-68552335D01*
X158709952Y-68667544D01*
X158709955Y-68667547D01*
X158825164Y-68753793D01*
X158825171Y-68753797D01*
X158960017Y-68804091D01*
X158960016Y-68804091D01*
X158966944Y-68804835D01*
X159019627Y-68810500D01*
X161020372Y-68810499D01*
X161079983Y-68804091D01*
X161214831Y-68753796D01*
X161330046Y-68667546D01*
X161416296Y-68552331D01*
X161466591Y-68417483D01*
X161473000Y-68357873D01*
X161472999Y-66262128D01*
X161466591Y-66202517D01*
X161459213Y-66182736D01*
X161416297Y-66067671D01*
X161416293Y-66067664D01*
X161330047Y-65952455D01*
X161330044Y-65952452D01*
X161214835Y-65866206D01*
X161214828Y-65866202D01*
X161079982Y-65815908D01*
X161079983Y-65815908D01*
X161020383Y-65809501D01*
X161020381Y-65809500D01*
X161020373Y-65809500D01*
X161020364Y-65809500D01*
X159019629Y-65809500D01*
X159019623Y-65809501D01*
X158960016Y-65815908D01*
X158825171Y-65866202D01*
X158825164Y-65866206D01*
X158709955Y-65952452D01*
X158709952Y-65952455D01*
X158623706Y-66067664D01*
X158623703Y-66067670D01*
X158613308Y-66095541D01*
X158571436Y-66151474D01*
X158505972Y-66175891D01*
X158437699Y-66161039D01*
X158424250Y-66152531D01*
X158241538Y-66019783D01*
X158183653Y-65990289D01*
X158037755Y-65915950D01*
X157820248Y-65845278D01*
X157634812Y-65815908D01*
X157594354Y-65809500D01*
X157365646Y-65809500D01*
X157325188Y-65815908D01*
X157139753Y-65845278D01*
X157139750Y-65845278D01*
X156922244Y-65915950D01*
X156718461Y-66019783D01*
X156622911Y-66089205D01*
X156533434Y-66154214D01*
X156533432Y-66154216D01*
X156533431Y-66154216D01*
X156371716Y-66315931D01*
X156371709Y-66315940D01*
X156310007Y-66400864D01*
X156254677Y-66443530D01*
X156185063Y-66449508D01*
X156123269Y-66416901D01*
X156109372Y-66400863D01*
X156047907Y-66316263D01*
X156047902Y-66316257D01*
X155886242Y-66154597D01*
X155701276Y-66020211D01*
X155497568Y-65916417D01*
X155280124Y-65845765D01*
X155190000Y-65831490D01*
X155190000Y-66819252D01*
X155152292Y-66797482D01*
X155012409Y-66760000D01*
X154867591Y-66760000D01*
X154727708Y-66797482D01*
X154690000Y-66819252D01*
X154690000Y-65831490D01*
X154689999Y-65831490D01*
X154599875Y-65845765D01*
X154382431Y-65916417D01*
X154178723Y-66020211D01*
X153993757Y-66154597D01*
X153832097Y-66316257D01*
X153697711Y-66501223D01*
X153593917Y-66704929D01*
X153523265Y-66922371D01*
X153501468Y-67060000D01*
X134449235Y-67060000D01*
X134832416Y-66676819D01*
X134893739Y-66643334D01*
X134920097Y-66640500D01*
X139613331Y-66640500D01*
X139613347Y-66640501D01*
X139620943Y-66640501D01*
X139779054Y-66640501D01*
X139779057Y-66640501D01*
X139931785Y-66599577D01*
X139981904Y-66570639D01*
X140068716Y-66520520D01*
X140180520Y-66408716D01*
X140180520Y-66408714D01*
X140190728Y-66398507D01*
X140190729Y-66398504D01*
X140984662Y-65604572D01*
X141045983Y-65571089D01*
X141048150Y-65570638D01*
X141121235Y-65556100D01*
X141203497Y-65539737D01*
X141349179Y-65479394D01*
X141480289Y-65391789D01*
X141591789Y-65280289D01*
X141679394Y-65149179D01*
X141739737Y-65003497D01*
X141770500Y-64848842D01*
X141770500Y-64691158D01*
X141770500Y-64691155D01*
X141770499Y-64691153D01*
X141756987Y-64623224D01*
X141739737Y-64536503D01*
X141725419Y-64501936D01*
X141679397Y-64390827D01*
X141679390Y-64390814D01*
X141591789Y-64259711D01*
X141591786Y-64259707D01*
X141480292Y-64148213D01*
X141480288Y-64148210D01*
X141349185Y-64060609D01*
X141349172Y-64060602D01*
X141203501Y-64000264D01*
X141203489Y-64000261D01*
X141048845Y-63969500D01*
X141048842Y-63969500D01*
X140891158Y-63969500D01*
X140891155Y-63969500D01*
X140736510Y-64000261D01*
X140736498Y-64000264D01*
X140590827Y-64060602D01*
X140590814Y-64060609D01*
X140459711Y-64148210D01*
X140459707Y-64148213D01*
X140348213Y-64259707D01*
X140348210Y-64259711D01*
X140260609Y-64390814D01*
X140260602Y-64390827D01*
X140200264Y-64536498D01*
X140200261Y-64536508D01*
X140169361Y-64691850D01*
X140136976Y-64753761D01*
X140135425Y-64755339D01*
X139487584Y-65403181D01*
X139426261Y-65436666D01*
X139399903Y-65439500D01*
X134540940Y-65439500D01*
X134500019Y-65450464D01*
X134500019Y-65450465D01*
X134462751Y-65460451D01*
X134388214Y-65480423D01*
X134388209Y-65480426D01*
X134251290Y-65559475D01*
X134251282Y-65559481D01*
X134139480Y-65671284D01*
X134139478Y-65671286D01*
X133000265Y-66810500D01*
X131867584Y-67943181D01*
X131806261Y-67976666D01*
X131779903Y-67979500D01*
X127579766Y-67979500D01*
X127512727Y-67959815D01*
X127510875Y-67958602D01*
X127379185Y-67870609D01*
X127379172Y-67870602D01*
X127233501Y-67810264D01*
X127233489Y-67810261D01*
X127078845Y-67779500D01*
X127078842Y-67779500D01*
X126921158Y-67779500D01*
X126921155Y-67779500D01*
X126766510Y-67810261D01*
X126766498Y-67810264D01*
X126620827Y-67870602D01*
X126620814Y-67870609D01*
X126489711Y-67958210D01*
X126489707Y-67958213D01*
X126378213Y-68069707D01*
X126378210Y-68069711D01*
X126290609Y-68200814D01*
X126290602Y-68200827D01*
X126230264Y-68346498D01*
X126230261Y-68346510D01*
X126199500Y-68501153D01*
X99060000Y-68501153D01*
X99060000Y-64838711D01*
X106279500Y-64838711D01*
X106279500Y-65081288D01*
X106311161Y-65321785D01*
X106373947Y-65556104D01*
X106421657Y-65671286D01*
X106466776Y-65780212D01*
X106588064Y-65990289D01*
X106588066Y-65990292D01*
X106588067Y-65990293D01*
X106735733Y-66182736D01*
X106735739Y-66182743D01*
X106907256Y-66354260D01*
X106907263Y-66354266D01*
X106964919Y-66398507D01*
X107099711Y-66501936D01*
X107309788Y-66623224D01*
X107533900Y-66716054D01*
X107768211Y-66778838D01*
X107909829Y-66797482D01*
X108008711Y-66810500D01*
X108008712Y-66810500D01*
X108251289Y-66810500D01*
X108299388Y-66804167D01*
X108491789Y-66778838D01*
X108726100Y-66716054D01*
X108950212Y-66623224D01*
X109160289Y-66501936D01*
X109352738Y-66354265D01*
X109524265Y-66182738D01*
X109671936Y-65990289D01*
X109793224Y-65780212D01*
X109886054Y-65556100D01*
X109948838Y-65321789D01*
X109980500Y-65081288D01*
X109980500Y-64838712D01*
X109980500Y-64838711D01*
X114279500Y-64838711D01*
X114279500Y-65081288D01*
X114311161Y-65321785D01*
X114373947Y-65556104D01*
X114421657Y-65671286D01*
X114466776Y-65780212D01*
X114588064Y-65990289D01*
X114588066Y-65990292D01*
X114588067Y-65990293D01*
X114735733Y-66182736D01*
X114735739Y-66182743D01*
X114907256Y-66354260D01*
X114907263Y-66354266D01*
X114964919Y-66398507D01*
X115099711Y-66501936D01*
X115309788Y-66623224D01*
X115533900Y-66716054D01*
X115768211Y-66778838D01*
X115909829Y-66797482D01*
X116008711Y-66810500D01*
X116008712Y-66810500D01*
X116251289Y-66810500D01*
X116299388Y-66804167D01*
X116491789Y-66778838D01*
X116726100Y-66716054D01*
X116950212Y-66623224D01*
X117160289Y-66501936D01*
X117352738Y-66354265D01*
X117524265Y-66182738D01*
X117671936Y-65990289D01*
X117793224Y-65780212D01*
X117886054Y-65556100D01*
X117948838Y-65321789D01*
X117980500Y-65081288D01*
X117980500Y-64838712D01*
X117948838Y-64598211D01*
X117886054Y-64363900D01*
X117882063Y-64354266D01*
X117859793Y-64300500D01*
X117793224Y-64139788D01*
X117671936Y-63929711D01*
X117524265Y-63737262D01*
X117524260Y-63737256D01*
X117352743Y-63565739D01*
X117352736Y-63565733D01*
X117160293Y-63418067D01*
X117160292Y-63418066D01*
X117160289Y-63418064D01*
X116950212Y-63296776D01*
X116950205Y-63296773D01*
X116726104Y-63203947D01*
X116491785Y-63141161D01*
X116251289Y-63109500D01*
X116251288Y-63109500D01*
X116008712Y-63109500D01*
X116008711Y-63109500D01*
X115768214Y-63141161D01*
X115533895Y-63203947D01*
X115309794Y-63296773D01*
X115309785Y-63296777D01*
X115099706Y-63418067D01*
X114907263Y-63565733D01*
X114907256Y-63565739D01*
X114735739Y-63737256D01*
X114735733Y-63737263D01*
X114588067Y-63929706D01*
X114466777Y-64139785D01*
X114466773Y-64139794D01*
X114373947Y-64363895D01*
X114311161Y-64598214D01*
X114279500Y-64838711D01*
X109980500Y-64838711D01*
X109948838Y-64598211D01*
X109886054Y-64363900D01*
X109882063Y-64354266D01*
X109859793Y-64300500D01*
X109793224Y-64139788D01*
X109671936Y-63929711D01*
X109524265Y-63737262D01*
X109524260Y-63737256D01*
X109352743Y-63565739D01*
X109352736Y-63565733D01*
X109160293Y-63418067D01*
X109160292Y-63418066D01*
X109160289Y-63418064D01*
X108950212Y-63296776D01*
X108950205Y-63296773D01*
X108726104Y-63203947D01*
X108491785Y-63141161D01*
X108251289Y-63109500D01*
X108251288Y-63109500D01*
X108008712Y-63109500D01*
X108008711Y-63109500D01*
X107768214Y-63141161D01*
X107533895Y-63203947D01*
X107309794Y-63296773D01*
X107309785Y-63296777D01*
X107099706Y-63418067D01*
X106907263Y-63565733D01*
X106907256Y-63565739D01*
X106735739Y-63737256D01*
X106735733Y-63737263D01*
X106588067Y-63929706D01*
X106466777Y-64139785D01*
X106466773Y-64139794D01*
X106373947Y-64363895D01*
X106311161Y-64598214D01*
X106279500Y-64838711D01*
X99060000Y-64838711D01*
X99060000Y-62838711D01*
X110279500Y-62838711D01*
X110279500Y-63081288D01*
X110311161Y-63321785D01*
X110373947Y-63556104D01*
X110448986Y-63737263D01*
X110466776Y-63780212D01*
X110588064Y-63990289D01*
X110588066Y-63990292D01*
X110588067Y-63990293D01*
X110735733Y-64182736D01*
X110735739Y-64182743D01*
X110907256Y-64354260D01*
X110907263Y-64354266D01*
X111020321Y-64441018D01*
X111099711Y-64501936D01*
X111309788Y-64623224D01*
X111533900Y-64716054D01*
X111768211Y-64778838D01*
X111948586Y-64802584D01*
X112008711Y-64810500D01*
X112008712Y-64810500D01*
X112251289Y-64810500D01*
X112299388Y-64804167D01*
X112491789Y-64778838D01*
X112726100Y-64716054D01*
X112950212Y-64623224D01*
X113160289Y-64501936D01*
X113352738Y-64354265D01*
X113524265Y-64182738D01*
X113671936Y-63990289D01*
X113793224Y-63780212D01*
X113886054Y-63556100D01*
X113948838Y-63321789D01*
X113980500Y-63081288D01*
X113980500Y-62838712D01*
X113948838Y-62598211D01*
X113886054Y-62363900D01*
X113882063Y-62354266D01*
X113811014Y-62182738D01*
X113793224Y-62139788D01*
X113671936Y-61929711D01*
X113524265Y-61737262D01*
X113524260Y-61737256D01*
X113352743Y-61565739D01*
X113352736Y-61565733D01*
X113160293Y-61418067D01*
X113160292Y-61418066D01*
X113160289Y-61418064D01*
X112950212Y-61296776D01*
X112950205Y-61296773D01*
X112726104Y-61203947D01*
X112491785Y-61141161D01*
X112251289Y-61109500D01*
X112251288Y-61109500D01*
X112008712Y-61109500D01*
X112008711Y-61109500D01*
X111768214Y-61141161D01*
X111533895Y-61203947D01*
X111309794Y-61296773D01*
X111309785Y-61296777D01*
X111099706Y-61418067D01*
X110907263Y-61565733D01*
X110907256Y-61565739D01*
X110735739Y-61737256D01*
X110735733Y-61737263D01*
X110588067Y-61929706D01*
X110466777Y-62139785D01*
X110466773Y-62139794D01*
X110373947Y-62363895D01*
X110311161Y-62598214D01*
X110279500Y-62838711D01*
X99060000Y-62838711D01*
X99060000Y-60838711D01*
X106279500Y-60838711D01*
X106279500Y-61081288D01*
X106311161Y-61321785D01*
X106373947Y-61556104D01*
X106448986Y-61737263D01*
X106466776Y-61780212D01*
X106588064Y-61990289D01*
X106588066Y-61990292D01*
X106588067Y-61990293D01*
X106735733Y-62182736D01*
X106735739Y-62182743D01*
X106907256Y-62354260D01*
X106907263Y-62354266D01*
X106989122Y-62417078D01*
X107099711Y-62501936D01*
X107309788Y-62623224D01*
X107533900Y-62716054D01*
X107768211Y-62778838D01*
X107948586Y-62802584D01*
X108008711Y-62810500D01*
X108008712Y-62810500D01*
X108251289Y-62810500D01*
X108299388Y-62804167D01*
X108491789Y-62778838D01*
X108726100Y-62716054D01*
X108950212Y-62623224D01*
X109160289Y-62501936D01*
X109352738Y-62354265D01*
X109524265Y-62182738D01*
X109671936Y-61990289D01*
X109793224Y-61780212D01*
X109886054Y-61556100D01*
X109948838Y-61321789D01*
X109980500Y-61081288D01*
X109980500Y-60838751D01*
X114280000Y-60838751D01*
X114280000Y-61081248D01*
X114280001Y-61081264D01*
X114311653Y-61321687D01*
X114374421Y-61555939D01*
X114467220Y-61779978D01*
X114467227Y-61779992D01*
X114588481Y-61990010D01*
X114657061Y-62079384D01*
X115321497Y-61414947D01*
X115411505Y-61549653D01*
X115540347Y-61678495D01*
X115675050Y-61768501D01*
X115010614Y-62432936D01*
X115010614Y-62432937D01*
X115099989Y-62501517D01*
X115099996Y-62501522D01*
X115310007Y-62622772D01*
X115310021Y-62622779D01*
X115534060Y-62715578D01*
X115768312Y-62778346D01*
X116008735Y-62809998D01*
X116008752Y-62810000D01*
X116251248Y-62810000D01*
X116251264Y-62809998D01*
X116491687Y-62778346D01*
X116725939Y-62715578D01*
X116949978Y-62622779D01*
X116949992Y-62622772D01*
X117160016Y-62501515D01*
X117249384Y-62432939D01*
X117249384Y-62432936D01*
X116584948Y-61768501D01*
X116719653Y-61678495D01*
X116848495Y-61549653D01*
X116938501Y-61414948D01*
X117602936Y-62079384D01*
X117602939Y-62079384D01*
X117671515Y-61990016D01*
X117792772Y-61779992D01*
X117792779Y-61779978D01*
X117885578Y-61555939D01*
X117948346Y-61321687D01*
X117979998Y-61081264D01*
X117980000Y-61081248D01*
X117980000Y-60838751D01*
X117979998Y-60838735D01*
X117948346Y-60598312D01*
X117885578Y-60364060D01*
X117792779Y-60140021D01*
X117792772Y-60140007D01*
X117671522Y-59929996D01*
X117671517Y-59929989D01*
X117602937Y-59840614D01*
X117602936Y-59840614D01*
X116938501Y-60505050D01*
X116848495Y-60370347D01*
X116719653Y-60241505D01*
X116584947Y-60151497D01*
X117249384Y-59487061D01*
X117160010Y-59418481D01*
X116949992Y-59297227D01*
X116949978Y-59297220D01*
X116725939Y-59204421D01*
X116491687Y-59141653D01*
X116251264Y-59110001D01*
X116251248Y-59110000D01*
X116008752Y-59110000D01*
X116008735Y-59110001D01*
X115768312Y-59141653D01*
X115534060Y-59204421D01*
X115310021Y-59297220D01*
X115310006Y-59297227D01*
X115099990Y-59418480D01*
X115010614Y-59487060D01*
X115010614Y-59487061D01*
X115675051Y-60151498D01*
X115540347Y-60241505D01*
X115411505Y-60370347D01*
X115321498Y-60505051D01*
X114657061Y-59840614D01*
X114657060Y-59840614D01*
X114588480Y-59929990D01*
X114467227Y-60140006D01*
X114467220Y-60140021D01*
X114374421Y-60364060D01*
X114311653Y-60598312D01*
X114280001Y-60838735D01*
X114280000Y-60838751D01*
X109980500Y-60838751D01*
X109980500Y-60838712D01*
X109948838Y-60598211D01*
X109886054Y-60363900D01*
X109882063Y-60354266D01*
X109811014Y-60182738D01*
X109793224Y-60139788D01*
X109671936Y-59929711D01*
X109524265Y-59737262D01*
X109524260Y-59737256D01*
X109352743Y-59565739D01*
X109352736Y-59565733D01*
X109160293Y-59418067D01*
X109160292Y-59418066D01*
X109160289Y-59418064D01*
X108950212Y-59296776D01*
X108950205Y-59296773D01*
X108726104Y-59203947D01*
X108491785Y-59141161D01*
X108251289Y-59109500D01*
X108251288Y-59109500D01*
X108008712Y-59109500D01*
X108008711Y-59109500D01*
X107768214Y-59141161D01*
X107533895Y-59203947D01*
X107309794Y-59296773D01*
X107309785Y-59296777D01*
X107099706Y-59418067D01*
X106907263Y-59565733D01*
X106907256Y-59565739D01*
X106735739Y-59737256D01*
X106735733Y-59737263D01*
X106588067Y-59929706D01*
X106588064Y-59929710D01*
X106588064Y-59929711D01*
X106571817Y-59957851D01*
X106466777Y-60139785D01*
X106466773Y-60139794D01*
X106373947Y-60363895D01*
X106311161Y-60598214D01*
X106279500Y-60838711D01*
X99060000Y-60838711D01*
X99060000Y-58838711D01*
X110279500Y-58838711D01*
X110279500Y-59081288D01*
X110311161Y-59321785D01*
X110373947Y-59556104D01*
X110448986Y-59737263D01*
X110466776Y-59780212D01*
X110588064Y-59990289D01*
X110588066Y-59990292D01*
X110588067Y-59990293D01*
X110735733Y-60182736D01*
X110735739Y-60182743D01*
X110907256Y-60354260D01*
X110907263Y-60354266D01*
X111020321Y-60441018D01*
X111099711Y-60501936D01*
X111309788Y-60623224D01*
X111533900Y-60716054D01*
X111768211Y-60778838D01*
X111948586Y-60802584D01*
X112008711Y-60810500D01*
X112008712Y-60810500D01*
X112251289Y-60810500D01*
X112299388Y-60804167D01*
X112491789Y-60778838D01*
X112726100Y-60716054D01*
X112950212Y-60623224D01*
X113160289Y-60501936D01*
X113352738Y-60354265D01*
X113524265Y-60182738D01*
X113671936Y-59990289D01*
X113793224Y-59780212D01*
X113886054Y-59556100D01*
X113948838Y-59321789D01*
X113980500Y-59081288D01*
X113980500Y-58838712D01*
X113975295Y-58799179D01*
X113964352Y-58716052D01*
X113948838Y-58598211D01*
X113886054Y-58363900D01*
X113882063Y-58354266D01*
X113874195Y-58335269D01*
X113793224Y-58139788D01*
X113671936Y-57929711D01*
X113524265Y-57737262D01*
X113524260Y-57737256D01*
X113352743Y-57565739D01*
X113352736Y-57565733D01*
X113160293Y-57418067D01*
X113160292Y-57418066D01*
X113160289Y-57418064D01*
X112950212Y-57296776D01*
X112950205Y-57296773D01*
X112726104Y-57203947D01*
X112491785Y-57141161D01*
X112251289Y-57109500D01*
X112251288Y-57109500D01*
X112008712Y-57109500D01*
X112008711Y-57109500D01*
X111768214Y-57141161D01*
X111533895Y-57203947D01*
X111309794Y-57296773D01*
X111309785Y-57296777D01*
X111099706Y-57418067D01*
X110907263Y-57565733D01*
X110907256Y-57565739D01*
X110735739Y-57737256D01*
X110735733Y-57737263D01*
X110588067Y-57929706D01*
X110466777Y-58139785D01*
X110466773Y-58139794D01*
X110373947Y-58363895D01*
X110311161Y-58598214D01*
X110279500Y-58838711D01*
X99060000Y-58838711D01*
X99060000Y-56838711D01*
X106279500Y-56838711D01*
X106279500Y-57081288D01*
X106311161Y-57321785D01*
X106373947Y-57556104D01*
X106448986Y-57737263D01*
X106466776Y-57780212D01*
X106588064Y-57990289D01*
X106588066Y-57990292D01*
X106588067Y-57990293D01*
X106735733Y-58182736D01*
X106735739Y-58182743D01*
X106907256Y-58354260D01*
X106907263Y-58354266D01*
X107020321Y-58441018D01*
X107099711Y-58501936D01*
X107309788Y-58623224D01*
X107533900Y-58716054D01*
X107768211Y-58778838D01*
X107922666Y-58799172D01*
X108008711Y-58810500D01*
X108008712Y-58810500D01*
X108251289Y-58810500D01*
X108337235Y-58799185D01*
X108491789Y-58778838D01*
X108726100Y-58716054D01*
X108950212Y-58623224D01*
X109160289Y-58501936D01*
X109352738Y-58354265D01*
X109524265Y-58182738D01*
X109671936Y-57990289D01*
X109793224Y-57780212D01*
X109886054Y-57556100D01*
X109948838Y-57321789D01*
X109980500Y-57081288D01*
X109980500Y-56838712D01*
X109980500Y-56838711D01*
X114279500Y-56838711D01*
X114279500Y-57081288D01*
X114311161Y-57321785D01*
X114373947Y-57556104D01*
X114448986Y-57737263D01*
X114466776Y-57780212D01*
X114588064Y-57990289D01*
X114588066Y-57990292D01*
X114588067Y-57990293D01*
X114735733Y-58182736D01*
X114735739Y-58182743D01*
X114907256Y-58354260D01*
X114907263Y-58354266D01*
X115020321Y-58441018D01*
X115099711Y-58501936D01*
X115309788Y-58623224D01*
X115533900Y-58716054D01*
X115768211Y-58778838D01*
X115922666Y-58799172D01*
X116008711Y-58810500D01*
X116008712Y-58810500D01*
X116251289Y-58810500D01*
X116337235Y-58799185D01*
X116491789Y-58778838D01*
X116726100Y-58716054D01*
X116950212Y-58623224D01*
X117160289Y-58501936D01*
X117352738Y-58354265D01*
X117524265Y-58182738D01*
X117671936Y-57990289D01*
X117793224Y-57780212D01*
X117886054Y-57556100D01*
X117948838Y-57321789D01*
X117980500Y-57081288D01*
X117980500Y-56838712D01*
X117948838Y-56598211D01*
X117886054Y-56363900D01*
X117793224Y-56139788D01*
X117671936Y-55929711D01*
X117524265Y-55737262D01*
X117524260Y-55737256D01*
X117352743Y-55565739D01*
X117352736Y-55565733D01*
X117160293Y-55418067D01*
X117160292Y-55418066D01*
X117160289Y-55418064D01*
X116950212Y-55296776D01*
X116908502Y-55279499D01*
X116726104Y-55203947D01*
X116491785Y-55141161D01*
X116251289Y-55109500D01*
X116251288Y-55109500D01*
X116008712Y-55109500D01*
X116008711Y-55109500D01*
X115768214Y-55141161D01*
X115533895Y-55203947D01*
X115309794Y-55296773D01*
X115309785Y-55296777D01*
X115099706Y-55418067D01*
X114907263Y-55565733D01*
X114907256Y-55565739D01*
X114735739Y-55737256D01*
X114735733Y-55737263D01*
X114588067Y-55929706D01*
X114466777Y-56139785D01*
X114466773Y-56139794D01*
X114373947Y-56363895D01*
X114311161Y-56598214D01*
X114279500Y-56838711D01*
X109980500Y-56838711D01*
X109948838Y-56598211D01*
X109886054Y-56363900D01*
X109793224Y-56139788D01*
X109671936Y-55929711D01*
X109524265Y-55737262D01*
X109524260Y-55737256D01*
X109352743Y-55565739D01*
X109352736Y-55565733D01*
X109160293Y-55418067D01*
X109160292Y-55418066D01*
X109160289Y-55418064D01*
X108950212Y-55296776D01*
X108908502Y-55279499D01*
X108726104Y-55203947D01*
X108491785Y-55141161D01*
X108251289Y-55109500D01*
X108251288Y-55109500D01*
X108008712Y-55109500D01*
X108008711Y-55109500D01*
X107768214Y-55141161D01*
X107533895Y-55203947D01*
X107309794Y-55296773D01*
X107309785Y-55296777D01*
X107099706Y-55418067D01*
X106907263Y-55565733D01*
X106907256Y-55565739D01*
X106735739Y-55737256D01*
X106735733Y-55737263D01*
X106588067Y-55929706D01*
X106466777Y-56139785D01*
X106466773Y-56139794D01*
X106373947Y-56363895D01*
X106311161Y-56598214D01*
X106279500Y-56838711D01*
X99060000Y-56838711D01*
X99060000Y-53261153D01*
X122389500Y-53261153D01*
X122389500Y-53418846D01*
X122420261Y-53573489D01*
X122420264Y-53573501D01*
X122480602Y-53719172D01*
X122480609Y-53719185D01*
X122568210Y-53850288D01*
X122568213Y-53850292D01*
X122679707Y-53961786D01*
X122679711Y-53961789D01*
X122810814Y-54049390D01*
X122810827Y-54049397D01*
X122956498Y-54109735D01*
X122956503Y-54109737D01*
X123021147Y-54122595D01*
X123111849Y-54140638D01*
X123173760Y-54173023D01*
X123175339Y-54174574D01*
X125245139Y-56244374D01*
X125245149Y-56244385D01*
X125249479Y-56248715D01*
X125249480Y-56248716D01*
X125361284Y-56360520D01*
X125361286Y-56360521D01*
X125361290Y-56360524D01*
X125498209Y-56439573D01*
X125498216Y-56439577D01*
X125610019Y-56469534D01*
X125650942Y-56480500D01*
X125650943Y-56480500D01*
X127969903Y-56480500D01*
X128036942Y-56500185D01*
X128057584Y-56516819D01*
X135405139Y-63864374D01*
X135405149Y-63864385D01*
X135409479Y-63868715D01*
X135409480Y-63868716D01*
X135521284Y-63980520D01*
X135521286Y-63980521D01*
X135521290Y-63980524D01*
X135658209Y-64059573D01*
X135658216Y-64059577D01*
X135770019Y-64089534D01*
X135810942Y-64100500D01*
X135810943Y-64100500D01*
X136580234Y-64100500D01*
X136647273Y-64120185D01*
X136649125Y-64121398D01*
X136780814Y-64209390D01*
X136780827Y-64209397D01*
X136902288Y-64259707D01*
X136926503Y-64269737D01*
X137081153Y-64300499D01*
X137081156Y-64300500D01*
X137081158Y-64300500D01*
X137238844Y-64300500D01*
X137238845Y-64300499D01*
X137393497Y-64269737D01*
X137539179Y-64209394D01*
X137670289Y-64121789D01*
X137781789Y-64010289D01*
X137869394Y-63879179D01*
X137929737Y-63733497D01*
X137960500Y-63578842D01*
X137960500Y-63421158D01*
X137960500Y-63421155D01*
X137960499Y-63421153D01*
X137935759Y-63296777D01*
X137929737Y-63266503D01*
X137903826Y-63203947D01*
X137869397Y-63120827D01*
X137869390Y-63120814D01*
X137781789Y-62989711D01*
X137781786Y-62989707D01*
X137670292Y-62878213D01*
X137670288Y-62878210D01*
X137539185Y-62790609D01*
X137539172Y-62790602D01*
X137393501Y-62730264D01*
X137393489Y-62730261D01*
X137238845Y-62699500D01*
X137238842Y-62699500D01*
X137081158Y-62699500D01*
X137081155Y-62699500D01*
X136926510Y-62730261D01*
X136926498Y-62730264D01*
X136780827Y-62790602D01*
X136780814Y-62790609D01*
X136649125Y-62878602D01*
X136582447Y-62899480D01*
X136580234Y-62899500D01*
X136190097Y-62899500D01*
X136123058Y-62879815D01*
X136102416Y-62863181D01*
X128757590Y-55518355D01*
X128757588Y-55518352D01*
X128638717Y-55399481D01*
X128638716Y-55399480D01*
X128551904Y-55349360D01*
X128551904Y-55349359D01*
X128551900Y-55349358D01*
X128501785Y-55320423D01*
X128349057Y-55279499D01*
X128190943Y-55279499D01*
X128183347Y-55279499D01*
X128183331Y-55279500D01*
X126030097Y-55279500D01*
X125963058Y-55259815D01*
X125942416Y-55243181D01*
X124024574Y-53325339D01*
X123991089Y-53264016D01*
X123990638Y-53261849D01*
X123959738Y-53106510D01*
X123959737Y-53106503D01*
X123959735Y-53106498D01*
X123899397Y-52960827D01*
X123899390Y-52960814D01*
X123811789Y-52829711D01*
X123811786Y-52829707D01*
X123700292Y-52718213D01*
X123700288Y-52718210D01*
X123569185Y-52630609D01*
X123569172Y-52630602D01*
X123423501Y-52570264D01*
X123423489Y-52570261D01*
X123268845Y-52539500D01*
X123268842Y-52539500D01*
X123111158Y-52539500D01*
X123111155Y-52539500D01*
X122956510Y-52570261D01*
X122956498Y-52570264D01*
X122810827Y-52630602D01*
X122810814Y-52630609D01*
X122679711Y-52718210D01*
X122679707Y-52718213D01*
X122568213Y-52829707D01*
X122568210Y-52829711D01*
X122480609Y-52960814D01*
X122480602Y-52960827D01*
X122420264Y-53106498D01*
X122420261Y-53106510D01*
X122389500Y-53261153D01*
X99060000Y-53261153D01*
X99060000Y-50850188D01*
X109954500Y-50850188D01*
X109954500Y-51069811D01*
X109954501Y-51069828D01*
X109983167Y-51287573D01*
X110040014Y-51499729D01*
X110124063Y-51702641D01*
X110124065Y-51702645D01*
X110233884Y-51892855D01*
X110233889Y-51892861D01*
X110233890Y-51892863D01*
X110367588Y-52067102D01*
X110367594Y-52067109D01*
X110522890Y-52222405D01*
X110522896Y-52222410D01*
X110697145Y-52356116D01*
X110887355Y-52465935D01*
X110988814Y-52507960D01*
X111090270Y-52549985D01*
X111090271Y-52549985D01*
X111090273Y-52549986D01*
X111302425Y-52606832D01*
X111520182Y-52635500D01*
X111520189Y-52635500D01*
X111739811Y-52635500D01*
X111739818Y-52635500D01*
X111957575Y-52606832D01*
X112169727Y-52549986D01*
X112372645Y-52465935D01*
X112562855Y-52356116D01*
X112737104Y-52222410D01*
X112892410Y-52067104D01*
X112950688Y-51991153D01*
X141439500Y-51991153D01*
X141439500Y-52148846D01*
X141470261Y-52303489D01*
X141470264Y-52303501D01*
X141530602Y-52449172D01*
X141530609Y-52449185D01*
X141597962Y-52549985D01*
X141611510Y-52570261D01*
X141618602Y-52580874D01*
X141639480Y-52647551D01*
X141639500Y-52649765D01*
X141639500Y-54523330D01*
X141639499Y-54523348D01*
X141639499Y-54689054D01*
X141639498Y-54689054D01*
X141680423Y-54841785D01*
X141709358Y-54891900D01*
X141709359Y-54891904D01*
X141709360Y-54891904D01*
X141759479Y-54978714D01*
X141759481Y-54978717D01*
X141878349Y-55097585D01*
X141878354Y-55097589D01*
X145681284Y-58900520D01*
X145681286Y-58900521D01*
X145681290Y-58900524D01*
X145818209Y-58979573D01*
X145818216Y-58979577D01*
X145970943Y-59020501D01*
X145970945Y-59020501D01*
X146136654Y-59020501D01*
X146136670Y-59020500D01*
X160710234Y-59020500D01*
X160777273Y-59040185D01*
X160779125Y-59041398D01*
X160910814Y-59129390D01*
X160910827Y-59129397D01*
X161056498Y-59189735D01*
X161056503Y-59189737D01*
X161211153Y-59220499D01*
X161211156Y-59220500D01*
X161211158Y-59220500D01*
X161368844Y-59220500D01*
X161368845Y-59220499D01*
X161523497Y-59189737D01*
X161669179Y-59129394D01*
X161800289Y-59041789D01*
X161911789Y-58930289D01*
X161999394Y-58799179D01*
X162059737Y-58653497D01*
X162090500Y-58498842D01*
X162090500Y-58341158D01*
X162090500Y-58341155D01*
X162090499Y-58341153D01*
X162059738Y-58186510D01*
X162059737Y-58186503D01*
X162058180Y-58182743D01*
X161999397Y-58040827D01*
X161999390Y-58040814D01*
X161911789Y-57909711D01*
X161911786Y-57909707D01*
X161800292Y-57798213D01*
X161800288Y-57798210D01*
X161669185Y-57710609D01*
X161669172Y-57710602D01*
X161523501Y-57650264D01*
X161523489Y-57650261D01*
X161368845Y-57619500D01*
X161368842Y-57619500D01*
X161211158Y-57619500D01*
X161211155Y-57619500D01*
X161056510Y-57650261D01*
X161056498Y-57650264D01*
X160910827Y-57710602D01*
X160910814Y-57710609D01*
X160779125Y-57798602D01*
X160712447Y-57819480D01*
X160710234Y-57819500D01*
X146350098Y-57819500D01*
X146283059Y-57799815D01*
X146262417Y-57783181D01*
X142876819Y-54397583D01*
X142843334Y-54336260D01*
X142840500Y-54309902D01*
X142840500Y-52649765D01*
X142860185Y-52582726D01*
X142861398Y-52580874D01*
X142868490Y-52570261D01*
X142949394Y-52449179D01*
X143009737Y-52303497D01*
X143040500Y-52148842D01*
X143040500Y-51991158D01*
X143040500Y-51991155D01*
X143040499Y-51991153D01*
X143009738Y-51836510D01*
X143009737Y-51836503D01*
X142954290Y-51702641D01*
X142949397Y-51690827D01*
X142949390Y-51690814D01*
X142861789Y-51559711D01*
X142861786Y-51559707D01*
X142750292Y-51448213D01*
X142750288Y-51448210D01*
X142619185Y-51360609D01*
X142619172Y-51360602D01*
X142473501Y-51300264D01*
X142473489Y-51300261D01*
X142318845Y-51269500D01*
X142318842Y-51269500D01*
X142161158Y-51269500D01*
X142161155Y-51269500D01*
X142006510Y-51300261D01*
X142006498Y-51300264D01*
X141860827Y-51360602D01*
X141860814Y-51360609D01*
X141729711Y-51448210D01*
X141729707Y-51448213D01*
X141618213Y-51559707D01*
X141618210Y-51559711D01*
X141530609Y-51690814D01*
X141530602Y-51690827D01*
X141470264Y-51836498D01*
X141470261Y-51836510D01*
X141439500Y-51991153D01*
X112950688Y-51991153D01*
X112952119Y-51989288D01*
X113013283Y-51909580D01*
X113016897Y-51904869D01*
X113026116Y-51892855D01*
X113135935Y-51702645D01*
X113219986Y-51499727D01*
X113276832Y-51287575D01*
X113305500Y-51069818D01*
X113305500Y-50850182D01*
X113276832Y-50632425D01*
X113219986Y-50420273D01*
X113135935Y-50217355D01*
X113026116Y-50027145D01*
X112983821Y-49972025D01*
X112892411Y-49852897D01*
X112892405Y-49852890D01*
X112737109Y-49697594D01*
X112737102Y-49697588D01*
X112562863Y-49563890D01*
X112562861Y-49563889D01*
X112562855Y-49563884D01*
X112372645Y-49454065D01*
X112372641Y-49454063D01*
X112337169Y-49439370D01*
X147438500Y-49439370D01*
X147438500Y-49620629D01*
X147466852Y-49799640D01*
X147522864Y-49972025D01*
X147605150Y-50133520D01*
X147616837Y-50149606D01*
X147616838Y-50149606D01*
X148210000Y-49556445D01*
X148210000Y-49580028D01*
X148235896Y-49676675D01*
X148285924Y-49763325D01*
X148356675Y-49834076D01*
X148443325Y-49884104D01*
X148539972Y-49910000D01*
X148563553Y-49910000D01*
X147970391Y-50503160D01*
X147970392Y-50503161D01*
X147986478Y-50514848D01*
X148147974Y-50597135D01*
X148320359Y-50653147D01*
X148320358Y-50653147D01*
X148499371Y-50681500D01*
X148680629Y-50681500D01*
X148859640Y-50653147D01*
X149032025Y-50597135D01*
X149193514Y-50514853D01*
X149209607Y-50503160D01*
X148616448Y-49910000D01*
X148640028Y-49910000D01*
X148736675Y-49884104D01*
X148823325Y-49834076D01*
X148894076Y-49763325D01*
X148944104Y-49676675D01*
X148970000Y-49580028D01*
X148970000Y-49556446D01*
X149563160Y-50149606D01*
X149574853Y-50133514D01*
X149657135Y-49972025D01*
X149713147Y-49799640D01*
X149741500Y-49620629D01*
X149741500Y-49439370D01*
X149741494Y-49439330D01*
X152518000Y-49439330D01*
X152518000Y-49620669D01*
X152546365Y-49799757D01*
X152546366Y-49799761D01*
X152602400Y-49972214D01*
X152684721Y-50133779D01*
X152791304Y-50280477D01*
X152919523Y-50408696D01*
X153066221Y-50515279D01*
X153227786Y-50597600D01*
X153400239Y-50653634D01*
X153467400Y-50664271D01*
X153579331Y-50682000D01*
X153579336Y-50682000D01*
X153760669Y-50682000D01*
X153860162Y-50666241D01*
X153939761Y-50653634D01*
X154112214Y-50597600D01*
X154273779Y-50515279D01*
X154420477Y-50408696D01*
X154548696Y-50280477D01*
X154655279Y-50133779D01*
X154737600Y-49972214D01*
X154793634Y-49799761D01*
X154813129Y-49676675D01*
X154822000Y-49620669D01*
X154822000Y-49439330D01*
X154799405Y-49296675D01*
X154793634Y-49260239D01*
X154737600Y-49087786D01*
X154655279Y-48926221D01*
X154548696Y-48779523D01*
X154420477Y-48651304D01*
X154273779Y-48544721D01*
X154112214Y-48462400D01*
X153939761Y-48406366D01*
X153939759Y-48406365D01*
X153939757Y-48406365D01*
X153760669Y-48378000D01*
X153760664Y-48378000D01*
X153579336Y-48378000D01*
X153579331Y-48378000D01*
X153400242Y-48406365D01*
X153227783Y-48462401D01*
X153066220Y-48544721D01*
X153049543Y-48556838D01*
X152919523Y-48651304D01*
X152919521Y-48651306D01*
X152919520Y-48651306D01*
X152791306Y-48779520D01*
X152791306Y-48779521D01*
X152791304Y-48779523D01*
X152745531Y-48842523D01*
X152684721Y-48926220D01*
X152602401Y-49087783D01*
X152546365Y-49260242D01*
X152518000Y-49439330D01*
X149741494Y-49439330D01*
X149713147Y-49260359D01*
X149657135Y-49087974D01*
X149574848Y-48926478D01*
X149563161Y-48910392D01*
X149563160Y-48910391D01*
X148970000Y-49503551D01*
X148970000Y-49479972D01*
X148944104Y-49383325D01*
X148894076Y-49296675D01*
X148823325Y-49225924D01*
X148736675Y-49175896D01*
X148640028Y-49150000D01*
X148616447Y-49150000D01*
X149209606Y-48556838D01*
X149209606Y-48556837D01*
X149193520Y-48545150D01*
X149032025Y-48462864D01*
X148859640Y-48406852D01*
X148859641Y-48406852D01*
X148680629Y-48378500D01*
X148499371Y-48378500D01*
X148320359Y-48406852D01*
X148147974Y-48462864D01*
X147986484Y-48545147D01*
X147970392Y-48556837D01*
X147970392Y-48556838D01*
X148563554Y-49150000D01*
X148539972Y-49150000D01*
X148443325Y-49175896D01*
X148356675Y-49225924D01*
X148285924Y-49296675D01*
X148235896Y-49383325D01*
X148210000Y-49479972D01*
X148210000Y-49503554D01*
X147616838Y-48910392D01*
X147616837Y-48910392D01*
X147605147Y-48926484D01*
X147522864Y-49087974D01*
X147466852Y-49260359D01*
X147438500Y-49439370D01*
X112337169Y-49439370D01*
X112169729Y-49370014D01*
X111957573Y-49313167D01*
X111739828Y-49284501D01*
X111739823Y-49284500D01*
X111739818Y-49284500D01*
X111520182Y-49284500D01*
X111520176Y-49284500D01*
X111520171Y-49284501D01*
X111302426Y-49313167D01*
X111090270Y-49370014D01*
X110887358Y-49454063D01*
X110887354Y-49454065D01*
X110697145Y-49563884D01*
X110697136Y-49563890D01*
X110522897Y-49697588D01*
X110522890Y-49697594D01*
X110367594Y-49852890D01*
X110367588Y-49852897D01*
X110233890Y-50027136D01*
X110233884Y-50027145D01*
X110124065Y-50217354D01*
X110124063Y-50217358D01*
X110040014Y-50420270D01*
X109983167Y-50632426D01*
X109954501Y-50850171D01*
X109954500Y-50850188D01*
X99060000Y-50850188D01*
X99060000Y-46899330D01*
X149978000Y-46899330D01*
X149978000Y-47080669D01*
X150006365Y-47259757D01*
X150006366Y-47259761D01*
X150062400Y-47432214D01*
X150144721Y-47593779D01*
X150251304Y-47740477D01*
X150379523Y-47868696D01*
X150526221Y-47975279D01*
X150687786Y-48057600D01*
X150860239Y-48113634D01*
X150927400Y-48124271D01*
X151039331Y-48142000D01*
X151039336Y-48142000D01*
X151220669Y-48142000D01*
X151320162Y-48126241D01*
X151399761Y-48113634D01*
X151572214Y-48057600D01*
X151733779Y-47975279D01*
X151880477Y-47868696D01*
X152008696Y-47740477D01*
X152115279Y-47593779D01*
X152197600Y-47432214D01*
X152233883Y-47320549D01*
X162129500Y-47320549D01*
X162129500Y-47543450D01*
X162129501Y-47543466D01*
X162158594Y-47764452D01*
X162158595Y-47764457D01*
X162158596Y-47764463D01*
X162215084Y-47975279D01*
X162216290Y-47979780D01*
X162216293Y-47979790D01*
X162283483Y-48142000D01*
X162301595Y-48185726D01*
X162413052Y-48378774D01*
X162413057Y-48378780D01*
X162413058Y-48378782D01*
X162548751Y-48555622D01*
X162548757Y-48555629D01*
X162706370Y-48713242D01*
X162706376Y-48713247D01*
X162883226Y-48848948D01*
X163076274Y-48960405D01*
X163282219Y-49045710D01*
X163497537Y-49103404D01*
X163718543Y-49132500D01*
X163718550Y-49132500D01*
X163941450Y-49132500D01*
X163941457Y-49132500D01*
X164162463Y-49103404D01*
X164377781Y-49045710D01*
X164583726Y-48960405D01*
X164776774Y-48848948D01*
X164953624Y-48713247D01*
X165111247Y-48555624D01*
X165246948Y-48378774D01*
X165358405Y-48185726D01*
X165443710Y-47979781D01*
X165501404Y-47764463D01*
X165530500Y-47543457D01*
X165530500Y-47320543D01*
X165501404Y-47099537D01*
X165443710Y-46884219D01*
X165358405Y-46678274D01*
X165246948Y-46485226D01*
X165170979Y-46386221D01*
X165111248Y-46308377D01*
X165111242Y-46308370D01*
X164953629Y-46150757D01*
X164953622Y-46150751D01*
X164776782Y-46015058D01*
X164776780Y-46015057D01*
X164776774Y-46015052D01*
X164583726Y-45903595D01*
X164583722Y-45903593D01*
X164377790Y-45818293D01*
X164377783Y-45818291D01*
X164377781Y-45818290D01*
X164162463Y-45760596D01*
X164162457Y-45760595D01*
X164162452Y-45760594D01*
X163941466Y-45731501D01*
X163941463Y-45731500D01*
X163941457Y-45731500D01*
X163718543Y-45731500D01*
X163718537Y-45731500D01*
X163718533Y-45731501D01*
X163497547Y-45760594D01*
X163497540Y-45760595D01*
X163497537Y-45760596D01*
X163282219Y-45818290D01*
X163282209Y-45818293D01*
X163076277Y-45903593D01*
X163076273Y-45903595D01*
X162883226Y-46015052D01*
X162883217Y-46015058D01*
X162706377Y-46150751D01*
X162706370Y-46150757D01*
X162548757Y-46308370D01*
X162548751Y-46308377D01*
X162413058Y-46485217D01*
X162413052Y-46485226D01*
X162301595Y-46678273D01*
X162301593Y-46678277D01*
X162216293Y-46884209D01*
X162216290Y-46884219D01*
X162158597Y-47099534D01*
X162158594Y-47099547D01*
X162129501Y-47320533D01*
X162129500Y-47320549D01*
X152233883Y-47320549D01*
X152253634Y-47259761D01*
X152266241Y-47180162D01*
X152282000Y-47080669D01*
X152282000Y-46899330D01*
X152253634Y-46720242D01*
X152253634Y-46720239D01*
X152197600Y-46547786D01*
X152115279Y-46386221D01*
X152008696Y-46239523D01*
X151880477Y-46111304D01*
X151733779Y-46004721D01*
X151572214Y-45922400D01*
X151399761Y-45866366D01*
X151399759Y-45866365D01*
X151399757Y-45866365D01*
X151220669Y-45838000D01*
X151220664Y-45838000D01*
X151039336Y-45838000D01*
X151039331Y-45838000D01*
X150860242Y-45866365D01*
X150687783Y-45922401D01*
X150526220Y-46004721D01*
X150511993Y-46015058D01*
X150379523Y-46111304D01*
X150379521Y-46111306D01*
X150379520Y-46111306D01*
X150251306Y-46239520D01*
X150251306Y-46239521D01*
X150251304Y-46239523D01*
X150205531Y-46302523D01*
X150144721Y-46386220D01*
X150062401Y-46547783D01*
X150006365Y-46720242D01*
X149978000Y-46899330D01*
X99060000Y-46899330D01*
X99060000Y-40518711D01*
X116259500Y-40518711D01*
X116259500Y-40761288D01*
X116291161Y-41001785D01*
X116353947Y-41236104D01*
X116446773Y-41460205D01*
X116446776Y-41460212D01*
X116568064Y-41670289D01*
X116568066Y-41670292D01*
X116568067Y-41670293D01*
X116715733Y-41862736D01*
X116715739Y-41862743D01*
X116887256Y-42034260D01*
X116887262Y-42034265D01*
X117079711Y-42181936D01*
X117289788Y-42303224D01*
X117513900Y-42396054D01*
X117748211Y-42458838D01*
X117928586Y-42482584D01*
X117988711Y-42490500D01*
X117988712Y-42490500D01*
X118231289Y-42490500D01*
X118279388Y-42484167D01*
X118471789Y-42458838D01*
X118706100Y-42396054D01*
X118930212Y-42303224D01*
X119140289Y-42181936D01*
X119332738Y-42034265D01*
X119504265Y-41862738D01*
X119651936Y-41670289D01*
X119773224Y-41460212D01*
X119866054Y-41236100D01*
X119928838Y-41001789D01*
X119960500Y-40761288D01*
X119960500Y-40518712D01*
X119960500Y-40518711D01*
X172139500Y-40518711D01*
X172139500Y-40761288D01*
X172171161Y-41001785D01*
X172233947Y-41236104D01*
X172326773Y-41460205D01*
X172326776Y-41460212D01*
X172448064Y-41670289D01*
X172448066Y-41670292D01*
X172448067Y-41670293D01*
X172595733Y-41862736D01*
X172595739Y-41862743D01*
X172767256Y-42034260D01*
X172767262Y-42034265D01*
X172959711Y-42181936D01*
X173169788Y-42303224D01*
X173393900Y-42396054D01*
X173628211Y-42458838D01*
X173808586Y-42482584D01*
X173868711Y-42490500D01*
X173868712Y-42490500D01*
X174111289Y-42490500D01*
X174159388Y-42484167D01*
X174351789Y-42458838D01*
X174586100Y-42396054D01*
X174810212Y-42303224D01*
X175020289Y-42181936D01*
X175212738Y-42034265D01*
X175384265Y-41862738D01*
X175531936Y-41670289D01*
X175653224Y-41460212D01*
X175746054Y-41236100D01*
X175808838Y-41001789D01*
X175840500Y-40761288D01*
X175840500Y-40518712D01*
X175808838Y-40278211D01*
X175746054Y-40043900D01*
X175653224Y-39819788D01*
X175531936Y-39609711D01*
X175384265Y-39417262D01*
X175384260Y-39417256D01*
X175212743Y-39245739D01*
X175212736Y-39245733D01*
X175020293Y-39098067D01*
X175020292Y-39098066D01*
X175020289Y-39098064D01*
X174810212Y-38976776D01*
X174810205Y-38976773D01*
X174586104Y-38883947D01*
X174351785Y-38821161D01*
X174111289Y-38789500D01*
X174111288Y-38789500D01*
X173868712Y-38789500D01*
X173868711Y-38789500D01*
X173628214Y-38821161D01*
X173393895Y-38883947D01*
X173169794Y-38976773D01*
X173169785Y-38976777D01*
X172959706Y-39098067D01*
X172767263Y-39245733D01*
X172767256Y-39245739D01*
X172595739Y-39417256D01*
X172595733Y-39417263D01*
X172448067Y-39609706D01*
X172326777Y-39819785D01*
X172326773Y-39819794D01*
X172233947Y-40043895D01*
X172171161Y-40278214D01*
X172139500Y-40518711D01*
X119960500Y-40518711D01*
X119928838Y-40278211D01*
X119866054Y-40043900D01*
X119773224Y-39819788D01*
X119651936Y-39609711D01*
X119504265Y-39417262D01*
X119504260Y-39417256D01*
X119332743Y-39245739D01*
X119332736Y-39245733D01*
X119140293Y-39098067D01*
X119140292Y-39098066D01*
X119140289Y-39098064D01*
X118930212Y-38976776D01*
X118930205Y-38976773D01*
X118706104Y-38883947D01*
X118471785Y-38821161D01*
X118231289Y-38789500D01*
X118231288Y-38789500D01*
X117988712Y-38789500D01*
X117988711Y-38789500D01*
X117748214Y-38821161D01*
X117513895Y-38883947D01*
X117289794Y-38976773D01*
X117289785Y-38976777D01*
X117079706Y-39098067D01*
X116887263Y-39245733D01*
X116887256Y-39245739D01*
X116715739Y-39417256D01*
X116715733Y-39417263D01*
X116568067Y-39609706D01*
X116446777Y-39819785D01*
X116446773Y-39819794D01*
X116353947Y-40043895D01*
X116291161Y-40278214D01*
X116259500Y-40518711D01*
X99060000Y-40518711D01*
X99060000Y-38224000D01*
X99079685Y-38156961D01*
X99132489Y-38111206D01*
X99184000Y-38100000D01*
X177676000Y-38100000D01*
X177743039Y-38119685D01*
G37*
%TD.AperFunction*%
%TD*%
M02*
