%TF.GenerationSoftware,KiCad,Pcbnew,9.0.6*%
%TF.CreationDate,2026-03-29T22:51:09-07:00*%
%TF.ProjectId,Ready_to_Move_Lights_2,52656164-795f-4746-9f5f-4d6f76655f4c,rev?*%
%TF.SameCoordinates,Original*%
%TF.FileFunction,Paste,Top*%
%TF.FilePolarity,Positive*%
%FSLAX46Y46*%
G04 Gerber Fmt 4.6, Leading zero omitted, Abs format (unit mm)*
G04 Created by KiCad (PCBNEW 9.0.6) date 2026-03-29 22:51:09*
%MOMM*%
%LPD*%
G01*
G04 APERTURE LIST*
G04 Aperture macros list*
%AMRoundRect*
0 Rectangle with rounded corners*
0 $1 Rounding radius*
0 $2 $3 $4 $5 $6 $7 $8 $9 X,Y pos of 4 corners*
0 Add a 4 corners polygon primitive as box body*
4,1,4,$2,$3,$4,$5,$6,$7,$8,$9,$2,$3,0*
0 Add four circle primitives for the rounded corners*
1,1,$1+$1,$2,$3*
1,1,$1+$1,$4,$5*
1,1,$1+$1,$6,$7*
1,1,$1+$1,$8,$9*
0 Add four rect primitives between the rounded corners*
20,1,$1+$1,$2,$3,$4,$5,0*
20,1,$1+$1,$4,$5,$6,$7,0*
20,1,$1+$1,$6,$7,$8,$9,0*
20,1,$1+$1,$8,$9,$2,$3,0*%
G04 Aperture macros list end*
%ADD10RoundRect,0.200000X0.200000X0.275000X-0.200000X0.275000X-0.200000X-0.275000X0.200000X-0.275000X0*%
%ADD11RoundRect,0.079500X0.079500X0.100500X-0.079500X0.100500X-0.079500X-0.100500X0.079500X-0.100500X0*%
%ADD12RoundRect,0.225000X-0.225000X-0.250000X0.225000X-0.250000X0.225000X0.250000X-0.225000X0.250000X0*%
%ADD13RoundRect,0.200000X-0.200000X-0.275000X0.200000X-0.275000X0.200000X0.275000X-0.200000X0.275000X0*%
%ADD14RoundRect,0.200000X-0.275000X0.200000X-0.275000X-0.200000X0.275000X-0.200000X0.275000X0.200000X0*%
%ADD15RoundRect,0.200000X0.275000X-0.200000X0.275000X0.200000X-0.275000X0.200000X-0.275000X-0.200000X0*%
%ADD16RoundRect,0.250000X0.250000X0.475000X-0.250000X0.475000X-0.250000X-0.475000X0.250000X-0.475000X0*%
%ADD17R,1.651000X0.431800*%
%ADD18RoundRect,0.225000X-0.250000X0.225000X-0.250000X-0.225000X0.250000X-0.225000X0.250000X0.225000X0*%
%ADD19R,1.600000X3.500000*%
%ADD20R,12.200000X9.750000*%
%ADD21RoundRect,0.150000X-0.825000X-0.150000X0.825000X-0.150000X0.825000X0.150000X-0.825000X0.150000X0*%
%ADD22RoundRect,0.225000X0.225000X0.250000X-0.225000X0.250000X-0.225000X-0.250000X0.225000X-0.250000X0*%
%ADD23R,0.457200X1.003300*%
%ADD24RoundRect,0.250000X0.625000X-0.312500X0.625000X0.312500X-0.625000X0.312500X-0.625000X-0.312500X0*%
%ADD25R,1.200000X0.600000*%
%ADD26R,1.295400X1.701800*%
%ADD27RoundRect,0.218750X0.256250X-0.218750X0.256250X0.218750X-0.256250X0.218750X-0.256250X-0.218750X0*%
G04 APERTURE END LIST*
D10*
%TO.C,R8*%
X163385000Y-82550000D03*
X161735000Y-82550000D03*
%TD*%
D11*
%TO.C,R6*%
X160365000Y-92710000D03*
X159675000Y-92710000D03*
%TD*%
D12*
%TO.C,C11*%
X149407500Y-95250000D03*
X150957500Y-95250000D03*
%TD*%
D13*
%TO.C,R1*%
X156210000Y-95250000D03*
X157860000Y-95250000D03*
%TD*%
D14*
%TO.C,R14*%
X138430000Y-68200000D03*
X138430000Y-69850000D03*
%TD*%
D12*
%TO.C,C13*%
X170180000Y-80010000D03*
X171730000Y-80010000D03*
%TD*%
D15*
%TO.C,R4*%
X146050000Y-97345000D03*
X146050000Y-95695000D03*
%TD*%
D12*
%TO.C,C3*%
X128060000Y-63498000D03*
X129610000Y-63498000D03*
%TD*%
D16*
%TO.C,C12*%
X158575000Y-85090000D03*
X156675000Y-85090000D03*
%TD*%
D17*
%TO.C,U2*%
X122148600Y-93535000D03*
X122148600Y-101985000D03*
X122148600Y-102635002D03*
X122148600Y-103285000D03*
X122148600Y-103934999D03*
X122148600Y-104585000D03*
X131851400Y-104585000D03*
X131851400Y-103934999D03*
X131851400Y-98734999D03*
X131851400Y-98085001D03*
X131851400Y-97434999D03*
X131851400Y-96785001D03*
X131851400Y-96135000D03*
X131851400Y-95485001D03*
X131851400Y-93535000D03*
%TD*%
D18*
%TO.C,C7*%
X118110000Y-78740000D03*
X118110000Y-80290000D03*
%TD*%
D19*
%TO.C,CR2*%
X130810000Y-54725000D03*
D20*
X133350000Y-44450000D03*
D19*
X135890000Y-54725000D03*
%TD*%
D21*
%TO.C,U3*%
X144780000Y-67310000D03*
X144780000Y-68580000D03*
X144780000Y-69850000D03*
X144780000Y-71120000D03*
X149730000Y-71120000D03*
X149730000Y-69850000D03*
X149730000Y-68580000D03*
X149730000Y-67310000D03*
%TD*%
D22*
%TO.C,C10*%
X150957500Y-92710000D03*
X149407500Y-92710000D03*
%TD*%
D23*
%TO.C,U1*%
X150892129Y-99327843D03*
X150242143Y-99327843D03*
X149592157Y-99327843D03*
X148942171Y-99327843D03*
X148942171Y-101982143D03*
X149592157Y-101982143D03*
X150242143Y-101982143D03*
X150892129Y-101982143D03*
%TD*%
D18*
%TO.C,C5*%
X121920000Y-78740000D03*
X121920000Y-80290000D03*
%TD*%
D24*
%TO.C,R7*%
X144780000Y-79125000D03*
X144780000Y-76200000D03*
%TD*%
D12*
%TO.C,C2*%
X128270000Y-60960000D03*
X129820000Y-60960000D03*
%TD*%
D13*
%TO.C,R2*%
X135890000Y-97790000D03*
X137540000Y-97790000D03*
%TD*%
D25*
%TO.C,IC1*%
X140022500Y-94300000D03*
X140022500Y-95250000D03*
X140022500Y-96200000D03*
X142522500Y-96200000D03*
X142522500Y-94300000D03*
%TD*%
D12*
%TO.C,C4*%
X128270000Y-65980000D03*
X129820000Y-65980000D03*
%TD*%
D10*
%TO.C,R11*%
X171450000Y-82550000D03*
X169800000Y-82550000D03*
%TD*%
D13*
%TO.C,R10*%
X165545000Y-82550000D03*
X167195000Y-82550000D03*
%TD*%
D26*
%TO.C,K1*%
X166370000Y-63931800D03*
X173990000Y-63931800D03*
X173990000Y-54610000D03*
X166370000Y-54610000D03*
%TD*%
D12*
%TO.C,C8*%
X131800000Y-71120000D03*
X133350000Y-71120000D03*
%TD*%
D10*
%TO.C,R5*%
X140080000Y-101600000D03*
X138430000Y-101600000D03*
%TD*%
D12*
%TO.C,C9*%
X131800000Y-73630000D03*
X133350000Y-73630000D03*
%TD*%
D10*
%TO.C,R13*%
X140188500Y-76200000D03*
X138538500Y-76200000D03*
%TD*%
D22*
%TO.C,C1*%
X159030000Y-88900000D03*
X157480000Y-88900000D03*
%TD*%
D13*
%TO.C,R9*%
X165545000Y-79980000D03*
X167195000Y-79980000D03*
%TD*%
D27*
%TO.C,D1*%
X152400000Y-85395000D03*
X152400000Y-83820000D03*
%TD*%
D10*
%TO.C,R3*%
X135890000Y-106680000D03*
X134240000Y-106680000D03*
%TD*%
D18*
%TO.C,C6*%
X125730000Y-78740000D03*
X125730000Y-80290000D03*
%TD*%
D10*
%TO.C,R15*%
X140188500Y-79654501D03*
X138538500Y-79654501D03*
%TD*%
D13*
%TO.C,R12*%
X138430000Y-73660000D03*
X140080000Y-73660000D03*
%TD*%
M02*
