%TF.GenerationSoftware,KiCad,Pcbnew,9.0.6*%
%TF.CreationDate,2026-03-29T22:51:09-07:00*%
%TF.ProjectId,Ready_to_Move_Lights_2,52656164-795f-4746-9f5f-4d6f76655f4c,rev?*%
%TF.SameCoordinates,Original*%
%TF.FileFunction,Legend,Top*%
%TF.FilePolarity,Positive*%
%FSLAX46Y46*%
G04 Gerber Fmt 4.6, Leading zero omitted, Abs format (unit mm)*
G04 Created by KiCad (PCBNEW 9.0.6) date 2026-03-29 22:51:09*
%MOMM*%
%LPD*%
G01*
G04 APERTURE LIST*
%ADD10C,0.254000*%
%ADD11C,0.150000*%
%ADD12C,0.200000*%
%ADD13C,0.120000*%
%ADD14C,0.152400*%
%ADD15C,0.000000*%
%ADD16C,0.100000*%
G04 APERTURE END LIST*
D10*
X119334318Y-61383332D02*
X120241461Y-61383332D01*
X120241461Y-61383332D02*
X120422889Y-61443809D01*
X120422889Y-61443809D02*
X120543842Y-61564761D01*
X120543842Y-61564761D02*
X120604318Y-61746190D01*
X120604318Y-61746190D02*
X120604318Y-61867142D01*
X119455270Y-60839047D02*
X119394794Y-60778571D01*
X119394794Y-60778571D02*
X119334318Y-60657618D01*
X119334318Y-60657618D02*
X119334318Y-60355237D01*
X119334318Y-60355237D02*
X119394794Y-60234285D01*
X119394794Y-60234285D02*
X119455270Y-60173809D01*
X119455270Y-60173809D02*
X119576222Y-60113332D01*
X119576222Y-60113332D02*
X119697175Y-60113332D01*
X119697175Y-60113332D02*
X119878603Y-60173809D01*
X119878603Y-60173809D02*
X120604318Y-60899523D01*
X120604318Y-60899523D02*
X120604318Y-60113332D01*
D11*
X115749819Y-99393333D02*
X116464104Y-99393333D01*
X116464104Y-99393333D02*
X116606961Y-99440952D01*
X116606961Y-99440952D02*
X116702200Y-99536190D01*
X116702200Y-99536190D02*
X116749819Y-99679047D01*
X116749819Y-99679047D02*
X116749819Y-99774285D01*
X116749819Y-98393333D02*
X116749819Y-98964761D01*
X116749819Y-98679047D02*
X115749819Y-98679047D01*
X115749819Y-98679047D02*
X115892676Y-98774285D01*
X115892676Y-98774285D02*
X115987914Y-98869523D01*
X115987914Y-98869523D02*
X116035533Y-98964761D01*
X162393333Y-84434819D02*
X162060000Y-83958628D01*
X161821905Y-84434819D02*
X161821905Y-83434819D01*
X161821905Y-83434819D02*
X162202857Y-83434819D01*
X162202857Y-83434819D02*
X162298095Y-83482438D01*
X162298095Y-83482438D02*
X162345714Y-83530057D01*
X162345714Y-83530057D02*
X162393333Y-83625295D01*
X162393333Y-83625295D02*
X162393333Y-83768152D01*
X162393333Y-83768152D02*
X162345714Y-83863390D01*
X162345714Y-83863390D02*
X162298095Y-83911009D01*
X162298095Y-83911009D02*
X162202857Y-83958628D01*
X162202857Y-83958628D02*
X161821905Y-83958628D01*
X162964762Y-83863390D02*
X162869524Y-83815771D01*
X162869524Y-83815771D02*
X162821905Y-83768152D01*
X162821905Y-83768152D02*
X162774286Y-83672914D01*
X162774286Y-83672914D02*
X162774286Y-83625295D01*
X162774286Y-83625295D02*
X162821905Y-83530057D01*
X162821905Y-83530057D02*
X162869524Y-83482438D01*
X162869524Y-83482438D02*
X162964762Y-83434819D01*
X162964762Y-83434819D02*
X163155238Y-83434819D01*
X163155238Y-83434819D02*
X163250476Y-83482438D01*
X163250476Y-83482438D02*
X163298095Y-83530057D01*
X163298095Y-83530057D02*
X163345714Y-83625295D01*
X163345714Y-83625295D02*
X163345714Y-83672914D01*
X163345714Y-83672914D02*
X163298095Y-83768152D01*
X163298095Y-83768152D02*
X163250476Y-83815771D01*
X163250476Y-83815771D02*
X163155238Y-83863390D01*
X163155238Y-83863390D02*
X162964762Y-83863390D01*
X162964762Y-83863390D02*
X162869524Y-83911009D01*
X162869524Y-83911009D02*
X162821905Y-83958628D01*
X162821905Y-83958628D02*
X162774286Y-84053866D01*
X162774286Y-84053866D02*
X162774286Y-84244342D01*
X162774286Y-84244342D02*
X162821905Y-84339580D01*
X162821905Y-84339580D02*
X162869524Y-84387200D01*
X162869524Y-84387200D02*
X162964762Y-84434819D01*
X162964762Y-84434819D02*
X163155238Y-84434819D01*
X163155238Y-84434819D02*
X163250476Y-84387200D01*
X163250476Y-84387200D02*
X163298095Y-84339580D01*
X163298095Y-84339580D02*
X163345714Y-84244342D01*
X163345714Y-84244342D02*
X163345714Y-84053866D01*
X163345714Y-84053866D02*
X163298095Y-83958628D01*
X163298095Y-83958628D02*
X163250476Y-83911009D01*
X163250476Y-83911009D02*
X163155238Y-83863390D01*
X162393333Y-93164819D02*
X162060000Y-92688628D01*
X161821905Y-93164819D02*
X161821905Y-92164819D01*
X161821905Y-92164819D02*
X162202857Y-92164819D01*
X162202857Y-92164819D02*
X162298095Y-92212438D01*
X162298095Y-92212438D02*
X162345714Y-92260057D01*
X162345714Y-92260057D02*
X162393333Y-92355295D01*
X162393333Y-92355295D02*
X162393333Y-92498152D01*
X162393333Y-92498152D02*
X162345714Y-92593390D01*
X162345714Y-92593390D02*
X162298095Y-92641009D01*
X162298095Y-92641009D02*
X162202857Y-92688628D01*
X162202857Y-92688628D02*
X161821905Y-92688628D01*
X163250476Y-92164819D02*
X163060000Y-92164819D01*
X163060000Y-92164819D02*
X162964762Y-92212438D01*
X162964762Y-92212438D02*
X162917143Y-92260057D01*
X162917143Y-92260057D02*
X162821905Y-92402914D01*
X162821905Y-92402914D02*
X162774286Y-92593390D01*
X162774286Y-92593390D02*
X162774286Y-92974342D01*
X162774286Y-92974342D02*
X162821905Y-93069580D01*
X162821905Y-93069580D02*
X162869524Y-93117200D01*
X162869524Y-93117200D02*
X162964762Y-93164819D01*
X162964762Y-93164819D02*
X163155238Y-93164819D01*
X163155238Y-93164819D02*
X163250476Y-93117200D01*
X163250476Y-93117200D02*
X163298095Y-93069580D01*
X163298095Y-93069580D02*
X163345714Y-92974342D01*
X163345714Y-92974342D02*
X163345714Y-92736247D01*
X163345714Y-92736247D02*
X163298095Y-92641009D01*
X163298095Y-92641009D02*
X163250476Y-92593390D01*
X163250476Y-92593390D02*
X163155238Y-92545771D01*
X163155238Y-92545771D02*
X162964762Y-92545771D01*
X162964762Y-92545771D02*
X162869524Y-92593390D01*
X162869524Y-92593390D02*
X162821905Y-92641009D01*
X162821905Y-92641009D02*
X162774286Y-92736247D01*
X153027142Y-95609580D02*
X152979523Y-95657200D01*
X152979523Y-95657200D02*
X152836666Y-95704819D01*
X152836666Y-95704819D02*
X152741428Y-95704819D01*
X152741428Y-95704819D02*
X152598571Y-95657200D01*
X152598571Y-95657200D02*
X152503333Y-95561961D01*
X152503333Y-95561961D02*
X152455714Y-95466723D01*
X152455714Y-95466723D02*
X152408095Y-95276247D01*
X152408095Y-95276247D02*
X152408095Y-95133390D01*
X152408095Y-95133390D02*
X152455714Y-94942914D01*
X152455714Y-94942914D02*
X152503333Y-94847676D01*
X152503333Y-94847676D02*
X152598571Y-94752438D01*
X152598571Y-94752438D02*
X152741428Y-94704819D01*
X152741428Y-94704819D02*
X152836666Y-94704819D01*
X152836666Y-94704819D02*
X152979523Y-94752438D01*
X152979523Y-94752438D02*
X153027142Y-94800057D01*
X153979523Y-95704819D02*
X153408095Y-95704819D01*
X153693809Y-95704819D02*
X153693809Y-94704819D01*
X153693809Y-94704819D02*
X153598571Y-94847676D01*
X153598571Y-94847676D02*
X153503333Y-94942914D01*
X153503333Y-94942914D02*
X153408095Y-94990533D01*
X154931904Y-95704819D02*
X154360476Y-95704819D01*
X154646190Y-95704819D02*
X154646190Y-94704819D01*
X154646190Y-94704819D02*
X154550952Y-94847676D01*
X154550952Y-94847676D02*
X154455714Y-94942914D01*
X154455714Y-94942914D02*
X154360476Y-94990533D01*
X156868333Y-94274819D02*
X156535000Y-93798628D01*
X156296905Y-94274819D02*
X156296905Y-93274819D01*
X156296905Y-93274819D02*
X156677857Y-93274819D01*
X156677857Y-93274819D02*
X156773095Y-93322438D01*
X156773095Y-93322438D02*
X156820714Y-93370057D01*
X156820714Y-93370057D02*
X156868333Y-93465295D01*
X156868333Y-93465295D02*
X156868333Y-93608152D01*
X156868333Y-93608152D02*
X156820714Y-93703390D01*
X156820714Y-93703390D02*
X156773095Y-93751009D01*
X156773095Y-93751009D02*
X156677857Y-93798628D01*
X156677857Y-93798628D02*
X156296905Y-93798628D01*
X157820714Y-94274819D02*
X157249286Y-94274819D01*
X157535000Y-94274819D02*
X157535000Y-93274819D01*
X157535000Y-93274819D02*
X157439762Y-93417676D01*
X157439762Y-93417676D02*
X157344524Y-93512914D01*
X157344524Y-93512914D02*
X157249286Y-93560533D01*
X140314819Y-69667857D02*
X139838628Y-70001190D01*
X140314819Y-70239285D02*
X139314819Y-70239285D01*
X139314819Y-70239285D02*
X139314819Y-69858333D01*
X139314819Y-69858333D02*
X139362438Y-69763095D01*
X139362438Y-69763095D02*
X139410057Y-69715476D01*
X139410057Y-69715476D02*
X139505295Y-69667857D01*
X139505295Y-69667857D02*
X139648152Y-69667857D01*
X139648152Y-69667857D02*
X139743390Y-69715476D01*
X139743390Y-69715476D02*
X139791009Y-69763095D01*
X139791009Y-69763095D02*
X139838628Y-69858333D01*
X139838628Y-69858333D02*
X139838628Y-70239285D01*
X140314819Y-68715476D02*
X140314819Y-69286904D01*
X140314819Y-69001190D02*
X139314819Y-69001190D01*
X139314819Y-69001190D02*
X139457676Y-69096428D01*
X139457676Y-69096428D02*
X139552914Y-69191666D01*
X139552914Y-69191666D02*
X139600533Y-69286904D01*
X139648152Y-67858333D02*
X140314819Y-67858333D01*
X139267200Y-68096428D02*
X139981485Y-68334523D01*
X139981485Y-68334523D02*
X139981485Y-67715476D01*
X173347142Y-80369580D02*
X173299523Y-80417200D01*
X173299523Y-80417200D02*
X173156666Y-80464819D01*
X173156666Y-80464819D02*
X173061428Y-80464819D01*
X173061428Y-80464819D02*
X172918571Y-80417200D01*
X172918571Y-80417200D02*
X172823333Y-80321961D01*
X172823333Y-80321961D02*
X172775714Y-80226723D01*
X172775714Y-80226723D02*
X172728095Y-80036247D01*
X172728095Y-80036247D02*
X172728095Y-79893390D01*
X172728095Y-79893390D02*
X172775714Y-79702914D01*
X172775714Y-79702914D02*
X172823333Y-79607676D01*
X172823333Y-79607676D02*
X172918571Y-79512438D01*
X172918571Y-79512438D02*
X173061428Y-79464819D01*
X173061428Y-79464819D02*
X173156666Y-79464819D01*
X173156666Y-79464819D02*
X173299523Y-79512438D01*
X173299523Y-79512438D02*
X173347142Y-79560057D01*
X174299523Y-80464819D02*
X173728095Y-80464819D01*
X174013809Y-80464819D02*
X174013809Y-79464819D01*
X174013809Y-79464819D02*
X173918571Y-79607676D01*
X173918571Y-79607676D02*
X173823333Y-79702914D01*
X173823333Y-79702914D02*
X173728095Y-79750533D01*
X174632857Y-79464819D02*
X175251904Y-79464819D01*
X175251904Y-79464819D02*
X174918571Y-79845771D01*
X174918571Y-79845771D02*
X175061428Y-79845771D01*
X175061428Y-79845771D02*
X175156666Y-79893390D01*
X175156666Y-79893390D02*
X175204285Y-79941009D01*
X175204285Y-79941009D02*
X175251904Y-80036247D01*
X175251904Y-80036247D02*
X175251904Y-80274342D01*
X175251904Y-80274342D02*
X175204285Y-80369580D01*
X175204285Y-80369580D02*
X175156666Y-80417200D01*
X175156666Y-80417200D02*
X175061428Y-80464819D01*
X175061428Y-80464819D02*
X174775714Y-80464819D01*
X174775714Y-80464819D02*
X174680476Y-80417200D01*
X174680476Y-80417200D02*
X174632857Y-80369580D01*
X145074819Y-96686666D02*
X144598628Y-97019999D01*
X145074819Y-97258094D02*
X144074819Y-97258094D01*
X144074819Y-97258094D02*
X144074819Y-96877142D01*
X144074819Y-96877142D02*
X144122438Y-96781904D01*
X144122438Y-96781904D02*
X144170057Y-96734285D01*
X144170057Y-96734285D02*
X144265295Y-96686666D01*
X144265295Y-96686666D02*
X144408152Y-96686666D01*
X144408152Y-96686666D02*
X144503390Y-96734285D01*
X144503390Y-96734285D02*
X144551009Y-96781904D01*
X144551009Y-96781904D02*
X144598628Y-96877142D01*
X144598628Y-96877142D02*
X144598628Y-97258094D01*
X144408152Y-95829523D02*
X145074819Y-95829523D01*
X144027200Y-96067618D02*
X144741485Y-96305713D01*
X144741485Y-96305713D02*
X144741485Y-95686666D01*
X131913333Y-63859580D02*
X131865714Y-63907200D01*
X131865714Y-63907200D02*
X131722857Y-63954819D01*
X131722857Y-63954819D02*
X131627619Y-63954819D01*
X131627619Y-63954819D02*
X131484762Y-63907200D01*
X131484762Y-63907200D02*
X131389524Y-63811961D01*
X131389524Y-63811961D02*
X131341905Y-63716723D01*
X131341905Y-63716723D02*
X131294286Y-63526247D01*
X131294286Y-63526247D02*
X131294286Y-63383390D01*
X131294286Y-63383390D02*
X131341905Y-63192914D01*
X131341905Y-63192914D02*
X131389524Y-63097676D01*
X131389524Y-63097676D02*
X131484762Y-63002438D01*
X131484762Y-63002438D02*
X131627619Y-62954819D01*
X131627619Y-62954819D02*
X131722857Y-62954819D01*
X131722857Y-62954819D02*
X131865714Y-63002438D01*
X131865714Y-63002438D02*
X131913333Y-63050057D01*
X132246667Y-62954819D02*
X132865714Y-62954819D01*
X132865714Y-62954819D02*
X132532381Y-63335771D01*
X132532381Y-63335771D02*
X132675238Y-63335771D01*
X132675238Y-63335771D02*
X132770476Y-63383390D01*
X132770476Y-63383390D02*
X132818095Y-63431009D01*
X132818095Y-63431009D02*
X132865714Y-63526247D01*
X132865714Y-63526247D02*
X132865714Y-63764342D01*
X132865714Y-63764342D02*
X132818095Y-63859580D01*
X132818095Y-63859580D02*
X132770476Y-63907200D01*
X132770476Y-63907200D02*
X132675238Y-63954819D01*
X132675238Y-63954819D02*
X132389524Y-63954819D01*
X132389524Y-63954819D02*
X132294286Y-63907200D01*
X132294286Y-63907200D02*
X132246667Y-63859580D01*
X155299580Y-85732857D02*
X155347200Y-85780476D01*
X155347200Y-85780476D02*
X155394819Y-85923333D01*
X155394819Y-85923333D02*
X155394819Y-86018571D01*
X155394819Y-86018571D02*
X155347200Y-86161428D01*
X155347200Y-86161428D02*
X155251961Y-86256666D01*
X155251961Y-86256666D02*
X155156723Y-86304285D01*
X155156723Y-86304285D02*
X154966247Y-86351904D01*
X154966247Y-86351904D02*
X154823390Y-86351904D01*
X154823390Y-86351904D02*
X154632914Y-86304285D01*
X154632914Y-86304285D02*
X154537676Y-86256666D01*
X154537676Y-86256666D02*
X154442438Y-86161428D01*
X154442438Y-86161428D02*
X154394819Y-86018571D01*
X154394819Y-86018571D02*
X154394819Y-85923333D01*
X154394819Y-85923333D02*
X154442438Y-85780476D01*
X154442438Y-85780476D02*
X154490057Y-85732857D01*
X155394819Y-84780476D02*
X155394819Y-85351904D01*
X155394819Y-85066190D02*
X154394819Y-85066190D01*
X154394819Y-85066190D02*
X154537676Y-85161428D01*
X154537676Y-85161428D02*
X154632914Y-85256666D01*
X154632914Y-85256666D02*
X154680533Y-85351904D01*
X154490057Y-84399523D02*
X154442438Y-84351904D01*
X154442438Y-84351904D02*
X154394819Y-84256666D01*
X154394819Y-84256666D02*
X154394819Y-84018571D01*
X154394819Y-84018571D02*
X154442438Y-83923333D01*
X154442438Y-83923333D02*
X154490057Y-83875714D01*
X154490057Y-83875714D02*
X154585295Y-83828095D01*
X154585295Y-83828095D02*
X154680533Y-83828095D01*
X154680533Y-83828095D02*
X154823390Y-83875714D01*
X154823390Y-83875714D02*
X155394819Y-84447142D01*
X155394819Y-84447142D02*
X155394819Y-83828095D01*
X126238095Y-106134819D02*
X126238095Y-106944342D01*
X126238095Y-106944342D02*
X126285714Y-107039580D01*
X126285714Y-107039580D02*
X126333333Y-107087200D01*
X126333333Y-107087200D02*
X126428571Y-107134819D01*
X126428571Y-107134819D02*
X126619047Y-107134819D01*
X126619047Y-107134819D02*
X126714285Y-107087200D01*
X126714285Y-107087200D02*
X126761904Y-107039580D01*
X126761904Y-107039580D02*
X126809523Y-106944342D01*
X126809523Y-106944342D02*
X126809523Y-106134819D01*
X127238095Y-106230057D02*
X127285714Y-106182438D01*
X127285714Y-106182438D02*
X127380952Y-106134819D01*
X127380952Y-106134819D02*
X127619047Y-106134819D01*
X127619047Y-106134819D02*
X127714285Y-106182438D01*
X127714285Y-106182438D02*
X127761904Y-106230057D01*
X127761904Y-106230057D02*
X127809523Y-106325295D01*
X127809523Y-106325295D02*
X127809523Y-106420533D01*
X127809523Y-106420533D02*
X127761904Y-106563390D01*
X127761904Y-106563390D02*
X127190476Y-107134819D01*
X127190476Y-107134819D02*
X127809523Y-107134819D01*
X128270000Y-106134819D02*
X128270000Y-106372914D01*
X128031905Y-106277676D02*
X128270000Y-106372914D01*
X128270000Y-106372914D02*
X128508095Y-106277676D01*
X128127143Y-106563390D02*
X128270000Y-106372914D01*
X128270000Y-106372914D02*
X128412857Y-106563390D01*
X125730000Y-106134819D02*
X125730000Y-106372914D01*
X125491905Y-106277676D02*
X125730000Y-106372914D01*
X125730000Y-106372914D02*
X125968095Y-106277676D01*
X125587143Y-106563390D02*
X125730000Y-106372914D01*
X125730000Y-106372914D02*
X125872857Y-106563390D01*
X119899580Y-79681666D02*
X119947200Y-79729285D01*
X119947200Y-79729285D02*
X119994819Y-79872142D01*
X119994819Y-79872142D02*
X119994819Y-79967380D01*
X119994819Y-79967380D02*
X119947200Y-80110237D01*
X119947200Y-80110237D02*
X119851961Y-80205475D01*
X119851961Y-80205475D02*
X119756723Y-80253094D01*
X119756723Y-80253094D02*
X119566247Y-80300713D01*
X119566247Y-80300713D02*
X119423390Y-80300713D01*
X119423390Y-80300713D02*
X119232914Y-80253094D01*
X119232914Y-80253094D02*
X119137676Y-80205475D01*
X119137676Y-80205475D02*
X119042438Y-80110237D01*
X119042438Y-80110237D02*
X118994819Y-79967380D01*
X118994819Y-79967380D02*
X118994819Y-79872142D01*
X118994819Y-79872142D02*
X119042438Y-79729285D01*
X119042438Y-79729285D02*
X119090057Y-79681666D01*
X118994819Y-79348332D02*
X118994819Y-78681666D01*
X118994819Y-78681666D02*
X119994819Y-79110237D01*
D10*
X137734318Y-87902143D02*
X136464318Y-87902143D01*
X136464318Y-87902143D02*
X136464318Y-87418333D01*
X136464318Y-87418333D02*
X136524794Y-87297381D01*
X136524794Y-87297381D02*
X136585270Y-87236904D01*
X136585270Y-87236904D02*
X136706222Y-87176428D01*
X136706222Y-87176428D02*
X136887651Y-87176428D01*
X136887651Y-87176428D02*
X137008603Y-87236904D01*
X137008603Y-87236904D02*
X137069080Y-87297381D01*
X137069080Y-87297381D02*
X137129556Y-87418333D01*
X137129556Y-87418333D02*
X137129556Y-87902143D01*
X137673842Y-86692619D02*
X137734318Y-86511190D01*
X137734318Y-86511190D02*
X137734318Y-86208809D01*
X137734318Y-86208809D02*
X137673842Y-86087857D01*
X137673842Y-86087857D02*
X137613365Y-86027381D01*
X137613365Y-86027381D02*
X137492413Y-85966904D01*
X137492413Y-85966904D02*
X137371461Y-85966904D01*
X137371461Y-85966904D02*
X137250508Y-86027381D01*
X137250508Y-86027381D02*
X137190032Y-86087857D01*
X137190032Y-86087857D02*
X137129556Y-86208809D01*
X137129556Y-86208809D02*
X137069080Y-86450714D01*
X137069080Y-86450714D02*
X137008603Y-86571666D01*
X137008603Y-86571666D02*
X136948127Y-86632143D01*
X136948127Y-86632143D02*
X136827175Y-86692619D01*
X136827175Y-86692619D02*
X136706222Y-86692619D01*
X136706222Y-86692619D02*
X136585270Y-86632143D01*
X136585270Y-86632143D02*
X136524794Y-86571666D01*
X136524794Y-86571666D02*
X136464318Y-86450714D01*
X136464318Y-86450714D02*
X136464318Y-86148333D01*
X136464318Y-86148333D02*
X136524794Y-85966904D01*
X137734318Y-84757380D02*
X137734318Y-85483095D01*
X137734318Y-85120238D02*
X136464318Y-85120238D01*
X136464318Y-85120238D02*
X136645746Y-85241190D01*
X136645746Y-85241190D02*
X136766699Y-85362142D01*
X136766699Y-85362142D02*
X136827175Y-85483095D01*
X132503333Y-58873365D02*
X132442857Y-58933842D01*
X132442857Y-58933842D02*
X132261428Y-58994318D01*
X132261428Y-58994318D02*
X132140476Y-58994318D01*
X132140476Y-58994318D02*
X131959047Y-58933842D01*
X131959047Y-58933842D02*
X131838095Y-58812889D01*
X131838095Y-58812889D02*
X131777618Y-58691937D01*
X131777618Y-58691937D02*
X131717142Y-58450032D01*
X131717142Y-58450032D02*
X131717142Y-58268603D01*
X131717142Y-58268603D02*
X131777618Y-58026699D01*
X131777618Y-58026699D02*
X131838095Y-57905746D01*
X131838095Y-57905746D02*
X131959047Y-57784794D01*
X131959047Y-57784794D02*
X132140476Y-57724318D01*
X132140476Y-57724318D02*
X132261428Y-57724318D01*
X132261428Y-57724318D02*
X132442857Y-57784794D01*
X132442857Y-57784794D02*
X132503333Y-57845270D01*
X133773333Y-58994318D02*
X133349999Y-58389556D01*
X133047618Y-58994318D02*
X133047618Y-57724318D01*
X133047618Y-57724318D02*
X133531428Y-57724318D01*
X133531428Y-57724318D02*
X133652380Y-57784794D01*
X133652380Y-57784794D02*
X133712857Y-57845270D01*
X133712857Y-57845270D02*
X133773333Y-57966222D01*
X133773333Y-57966222D02*
X133773333Y-58147651D01*
X133773333Y-58147651D02*
X133712857Y-58268603D01*
X133712857Y-58268603D02*
X133652380Y-58329080D01*
X133652380Y-58329080D02*
X133531428Y-58389556D01*
X133531428Y-58389556D02*
X133047618Y-58389556D01*
X134257142Y-57845270D02*
X134317618Y-57784794D01*
X134317618Y-57784794D02*
X134438571Y-57724318D01*
X134438571Y-57724318D02*
X134740952Y-57724318D01*
X134740952Y-57724318D02*
X134861904Y-57784794D01*
X134861904Y-57784794D02*
X134922380Y-57845270D01*
X134922380Y-57845270D02*
X134982857Y-57966222D01*
X134982857Y-57966222D02*
X134982857Y-58087175D01*
X134982857Y-58087175D02*
X134922380Y-58268603D01*
X134922380Y-58268603D02*
X134196666Y-58994318D01*
X134196666Y-58994318D02*
X134982857Y-58994318D01*
X147561904Y-42484318D02*
X147561904Y-41214318D01*
X147561904Y-41214318D02*
X147985238Y-42121461D01*
X147985238Y-42121461D02*
X148408571Y-41214318D01*
X148408571Y-41214318D02*
X148408571Y-42484318D01*
X149497143Y-42423842D02*
X149376191Y-42484318D01*
X149376191Y-42484318D02*
X149134286Y-42484318D01*
X149134286Y-42484318D02*
X149013333Y-42423842D01*
X149013333Y-42423842D02*
X148952857Y-42302889D01*
X148952857Y-42302889D02*
X148952857Y-41819080D01*
X148952857Y-41819080D02*
X149013333Y-41698127D01*
X149013333Y-41698127D02*
X149134286Y-41637651D01*
X149134286Y-41637651D02*
X149376191Y-41637651D01*
X149376191Y-41637651D02*
X149497143Y-41698127D01*
X149497143Y-41698127D02*
X149557619Y-41819080D01*
X149557619Y-41819080D02*
X149557619Y-41940032D01*
X149557619Y-41940032D02*
X148952857Y-42060984D01*
X150646190Y-42484318D02*
X150646190Y-41819080D01*
X150646190Y-41819080D02*
X150585714Y-41698127D01*
X150585714Y-41698127D02*
X150464762Y-41637651D01*
X150464762Y-41637651D02*
X150222857Y-41637651D01*
X150222857Y-41637651D02*
X150101904Y-41698127D01*
X150646190Y-42423842D02*
X150525238Y-42484318D01*
X150525238Y-42484318D02*
X150222857Y-42484318D01*
X150222857Y-42484318D02*
X150101904Y-42423842D01*
X150101904Y-42423842D02*
X150041428Y-42302889D01*
X150041428Y-42302889D02*
X150041428Y-42181937D01*
X150041428Y-42181937D02*
X150101904Y-42060984D01*
X150101904Y-42060984D02*
X150222857Y-42000508D01*
X150222857Y-42000508D02*
X150525238Y-42000508D01*
X150525238Y-42000508D02*
X150646190Y-41940032D01*
X151190476Y-42423842D02*
X151311429Y-42484318D01*
X151311429Y-42484318D02*
X151553333Y-42484318D01*
X151553333Y-42484318D02*
X151674286Y-42423842D01*
X151674286Y-42423842D02*
X151734762Y-42302889D01*
X151734762Y-42302889D02*
X151734762Y-42242413D01*
X151734762Y-42242413D02*
X151674286Y-42121461D01*
X151674286Y-42121461D02*
X151553333Y-42060984D01*
X151553333Y-42060984D02*
X151371905Y-42060984D01*
X151371905Y-42060984D02*
X151250952Y-42000508D01*
X151250952Y-42000508D02*
X151190476Y-41879556D01*
X151190476Y-41879556D02*
X151190476Y-41819080D01*
X151190476Y-41819080D02*
X151250952Y-41698127D01*
X151250952Y-41698127D02*
X151371905Y-41637651D01*
X151371905Y-41637651D02*
X151553333Y-41637651D01*
X151553333Y-41637651D02*
X151674286Y-41698127D01*
X152823333Y-41637651D02*
X152823333Y-42484318D01*
X152279047Y-41637651D02*
X152279047Y-42302889D01*
X152279047Y-42302889D02*
X152339524Y-42423842D01*
X152339524Y-42423842D02*
X152460476Y-42484318D01*
X152460476Y-42484318D02*
X152641905Y-42484318D01*
X152641905Y-42484318D02*
X152762857Y-42423842D01*
X152762857Y-42423842D02*
X152823333Y-42363365D01*
X153428095Y-42484318D02*
X153428095Y-41637651D01*
X153428095Y-41879556D02*
X153488572Y-41758603D01*
X153488572Y-41758603D02*
X153549048Y-41698127D01*
X153549048Y-41698127D02*
X153670000Y-41637651D01*
X153670000Y-41637651D02*
X153790953Y-41637651D01*
X154698095Y-42423842D02*
X154577143Y-42484318D01*
X154577143Y-42484318D02*
X154335238Y-42484318D01*
X154335238Y-42484318D02*
X154214285Y-42423842D01*
X154214285Y-42423842D02*
X154153809Y-42302889D01*
X154153809Y-42302889D02*
X154153809Y-41819080D01*
X154153809Y-41819080D02*
X154214285Y-41698127D01*
X154214285Y-41698127D02*
X154335238Y-41637651D01*
X154335238Y-41637651D02*
X154577143Y-41637651D01*
X154577143Y-41637651D02*
X154698095Y-41698127D01*
X154698095Y-41698127D02*
X154758571Y-41819080D01*
X154758571Y-41819080D02*
X154758571Y-41940032D01*
X154758571Y-41940032D02*
X154153809Y-42060984D01*
D11*
X146493095Y-65269819D02*
X146493095Y-66079342D01*
X146493095Y-66079342D02*
X146540714Y-66174580D01*
X146540714Y-66174580D02*
X146588333Y-66222200D01*
X146588333Y-66222200D02*
X146683571Y-66269819D01*
X146683571Y-66269819D02*
X146874047Y-66269819D01*
X146874047Y-66269819D02*
X146969285Y-66222200D01*
X146969285Y-66222200D02*
X147016904Y-66174580D01*
X147016904Y-66174580D02*
X147064523Y-66079342D01*
X147064523Y-66079342D02*
X147064523Y-65269819D01*
X147445476Y-65269819D02*
X148064523Y-65269819D01*
X148064523Y-65269819D02*
X147731190Y-65650771D01*
X147731190Y-65650771D02*
X147874047Y-65650771D01*
X147874047Y-65650771D02*
X147969285Y-65698390D01*
X147969285Y-65698390D02*
X148016904Y-65746009D01*
X148016904Y-65746009D02*
X148064523Y-65841247D01*
X148064523Y-65841247D02*
X148064523Y-66079342D01*
X148064523Y-66079342D02*
X148016904Y-66174580D01*
X148016904Y-66174580D02*
X147969285Y-66222200D01*
X147969285Y-66222200D02*
X147874047Y-66269819D01*
X147874047Y-66269819D02*
X147588333Y-66269819D01*
X147588333Y-66269819D02*
X147493095Y-66222200D01*
X147493095Y-66222200D02*
X147445476Y-66174580D01*
X153027142Y-93069580D02*
X152979523Y-93117200D01*
X152979523Y-93117200D02*
X152836666Y-93164819D01*
X152836666Y-93164819D02*
X152741428Y-93164819D01*
X152741428Y-93164819D02*
X152598571Y-93117200D01*
X152598571Y-93117200D02*
X152503333Y-93021961D01*
X152503333Y-93021961D02*
X152455714Y-92926723D01*
X152455714Y-92926723D02*
X152408095Y-92736247D01*
X152408095Y-92736247D02*
X152408095Y-92593390D01*
X152408095Y-92593390D02*
X152455714Y-92402914D01*
X152455714Y-92402914D02*
X152503333Y-92307676D01*
X152503333Y-92307676D02*
X152598571Y-92212438D01*
X152598571Y-92212438D02*
X152741428Y-92164819D01*
X152741428Y-92164819D02*
X152836666Y-92164819D01*
X152836666Y-92164819D02*
X152979523Y-92212438D01*
X152979523Y-92212438D02*
X153027142Y-92260057D01*
X153979523Y-93164819D02*
X153408095Y-93164819D01*
X153693809Y-93164819D02*
X153693809Y-92164819D01*
X153693809Y-92164819D02*
X153598571Y-92307676D01*
X153598571Y-92307676D02*
X153503333Y-92402914D01*
X153503333Y-92402914D02*
X153408095Y-92450533D01*
X154598571Y-92164819D02*
X154693809Y-92164819D01*
X154693809Y-92164819D02*
X154789047Y-92212438D01*
X154789047Y-92212438D02*
X154836666Y-92260057D01*
X154836666Y-92260057D02*
X154884285Y-92355295D01*
X154884285Y-92355295D02*
X154931904Y-92545771D01*
X154931904Y-92545771D02*
X154931904Y-92783866D01*
X154931904Y-92783866D02*
X154884285Y-92974342D01*
X154884285Y-92974342D02*
X154836666Y-93069580D01*
X154836666Y-93069580D02*
X154789047Y-93117200D01*
X154789047Y-93117200D02*
X154693809Y-93164819D01*
X154693809Y-93164819D02*
X154598571Y-93164819D01*
X154598571Y-93164819D02*
X154503333Y-93117200D01*
X154503333Y-93117200D02*
X154455714Y-93069580D01*
X154455714Y-93069580D02*
X154408095Y-92974342D01*
X154408095Y-92974342D02*
X154360476Y-92783866D01*
X154360476Y-92783866D02*
X154360476Y-92545771D01*
X154360476Y-92545771D02*
X154408095Y-92355295D01*
X154408095Y-92355295D02*
X154455714Y-92260057D01*
X154455714Y-92260057D02*
X154503333Y-92212438D01*
X154503333Y-92212438D02*
X154598571Y-92164819D01*
X152945180Y-99893088D02*
X152135657Y-99893088D01*
X152135657Y-99893088D02*
X152040419Y-99940707D01*
X152040419Y-99940707D02*
X151992800Y-99988326D01*
X151992800Y-99988326D02*
X151945180Y-100083564D01*
X151945180Y-100083564D02*
X151945180Y-100274040D01*
X151945180Y-100274040D02*
X151992800Y-100369278D01*
X151992800Y-100369278D02*
X152040419Y-100416897D01*
X152040419Y-100416897D02*
X152135657Y-100464516D01*
X152135657Y-100464516D02*
X152945180Y-100464516D01*
X151945180Y-101464516D02*
X151945180Y-100893088D01*
X151945180Y-101178802D02*
X152945180Y-101178802D01*
X152945180Y-101178802D02*
X152802323Y-101083564D01*
X152802323Y-101083564D02*
X152707085Y-100988326D01*
X152707085Y-100988326D02*
X152659466Y-100893088D01*
X153037509Y-99073843D02*
X152799414Y-99073843D01*
X152894652Y-98835748D02*
X152799414Y-99073843D01*
X152799414Y-99073843D02*
X152894652Y-99311938D01*
X152608938Y-98930986D02*
X152799414Y-99073843D01*
X152799414Y-99073843D02*
X152608938Y-99216700D01*
X151947148Y-99073842D02*
X152185243Y-99073842D01*
X152090005Y-99311937D02*
X152185243Y-99073842D01*
X152185243Y-99073842D02*
X152090005Y-98835747D01*
X152375719Y-99216699D02*
X152185243Y-99073842D01*
X152185243Y-99073842D02*
X152375719Y-98930985D01*
X123709580Y-79681666D02*
X123757200Y-79729285D01*
X123757200Y-79729285D02*
X123804819Y-79872142D01*
X123804819Y-79872142D02*
X123804819Y-79967380D01*
X123804819Y-79967380D02*
X123757200Y-80110237D01*
X123757200Y-80110237D02*
X123661961Y-80205475D01*
X123661961Y-80205475D02*
X123566723Y-80253094D01*
X123566723Y-80253094D02*
X123376247Y-80300713D01*
X123376247Y-80300713D02*
X123233390Y-80300713D01*
X123233390Y-80300713D02*
X123042914Y-80253094D01*
X123042914Y-80253094D02*
X122947676Y-80205475D01*
X122947676Y-80205475D02*
X122852438Y-80110237D01*
X122852438Y-80110237D02*
X122804819Y-79967380D01*
X122804819Y-79967380D02*
X122804819Y-79872142D01*
X122804819Y-79872142D02*
X122852438Y-79729285D01*
X122852438Y-79729285D02*
X122900057Y-79681666D01*
X122804819Y-78776904D02*
X122804819Y-79253094D01*
X122804819Y-79253094D02*
X123281009Y-79300713D01*
X123281009Y-79300713D02*
X123233390Y-79253094D01*
X123233390Y-79253094D02*
X123185771Y-79157856D01*
X123185771Y-79157856D02*
X123185771Y-78919761D01*
X123185771Y-78919761D02*
X123233390Y-78824523D01*
X123233390Y-78824523D02*
X123281009Y-78776904D01*
X123281009Y-78776904D02*
X123376247Y-78729285D01*
X123376247Y-78729285D02*
X123614342Y-78729285D01*
X123614342Y-78729285D02*
X123709580Y-78776904D01*
X123709580Y-78776904D02*
X123757200Y-78824523D01*
X123757200Y-78824523D02*
X123804819Y-78919761D01*
X123804819Y-78919761D02*
X123804819Y-79157856D01*
X123804819Y-79157856D02*
X123757200Y-79253094D01*
X123757200Y-79253094D02*
X123709580Y-79300713D01*
X143404819Y-77829166D02*
X142928628Y-78162499D01*
X143404819Y-78400594D02*
X142404819Y-78400594D01*
X142404819Y-78400594D02*
X142404819Y-78019642D01*
X142404819Y-78019642D02*
X142452438Y-77924404D01*
X142452438Y-77924404D02*
X142500057Y-77876785D01*
X142500057Y-77876785D02*
X142595295Y-77829166D01*
X142595295Y-77829166D02*
X142738152Y-77829166D01*
X142738152Y-77829166D02*
X142833390Y-77876785D01*
X142833390Y-77876785D02*
X142881009Y-77924404D01*
X142881009Y-77924404D02*
X142928628Y-78019642D01*
X142928628Y-78019642D02*
X142928628Y-78400594D01*
X142404819Y-77495832D02*
X142404819Y-76829166D01*
X142404819Y-76829166D02*
X143404819Y-77257737D01*
X131913333Y-61319580D02*
X131865714Y-61367200D01*
X131865714Y-61367200D02*
X131722857Y-61414819D01*
X131722857Y-61414819D02*
X131627619Y-61414819D01*
X131627619Y-61414819D02*
X131484762Y-61367200D01*
X131484762Y-61367200D02*
X131389524Y-61271961D01*
X131389524Y-61271961D02*
X131341905Y-61176723D01*
X131341905Y-61176723D02*
X131294286Y-60986247D01*
X131294286Y-60986247D02*
X131294286Y-60843390D01*
X131294286Y-60843390D02*
X131341905Y-60652914D01*
X131341905Y-60652914D02*
X131389524Y-60557676D01*
X131389524Y-60557676D02*
X131484762Y-60462438D01*
X131484762Y-60462438D02*
X131627619Y-60414819D01*
X131627619Y-60414819D02*
X131722857Y-60414819D01*
X131722857Y-60414819D02*
X131865714Y-60462438D01*
X131865714Y-60462438D02*
X131913333Y-60510057D01*
X132294286Y-60510057D02*
X132341905Y-60462438D01*
X132341905Y-60462438D02*
X132437143Y-60414819D01*
X132437143Y-60414819D02*
X132675238Y-60414819D01*
X132675238Y-60414819D02*
X132770476Y-60462438D01*
X132770476Y-60462438D02*
X132818095Y-60510057D01*
X132818095Y-60510057D02*
X132865714Y-60605295D01*
X132865714Y-60605295D02*
X132865714Y-60700533D01*
X132865714Y-60700533D02*
X132818095Y-60843390D01*
X132818095Y-60843390D02*
X132246667Y-61414819D01*
X132246667Y-61414819D02*
X132865714Y-61414819D01*
X136548333Y-96814819D02*
X136215000Y-96338628D01*
X135976905Y-96814819D02*
X135976905Y-95814819D01*
X135976905Y-95814819D02*
X136357857Y-95814819D01*
X136357857Y-95814819D02*
X136453095Y-95862438D01*
X136453095Y-95862438D02*
X136500714Y-95910057D01*
X136500714Y-95910057D02*
X136548333Y-96005295D01*
X136548333Y-96005295D02*
X136548333Y-96148152D01*
X136548333Y-96148152D02*
X136500714Y-96243390D01*
X136500714Y-96243390D02*
X136453095Y-96291009D01*
X136453095Y-96291009D02*
X136357857Y-96338628D01*
X136357857Y-96338628D02*
X135976905Y-96338628D01*
X136929286Y-95910057D02*
X136976905Y-95862438D01*
X136976905Y-95862438D02*
X137072143Y-95814819D01*
X137072143Y-95814819D02*
X137310238Y-95814819D01*
X137310238Y-95814819D02*
X137405476Y-95862438D01*
X137405476Y-95862438D02*
X137453095Y-95910057D01*
X137453095Y-95910057D02*
X137500714Y-96005295D01*
X137500714Y-96005295D02*
X137500714Y-96100533D01*
X137500714Y-96100533D02*
X137453095Y-96243390D01*
X137453095Y-96243390D02*
X136881667Y-96814819D01*
X136881667Y-96814819D02*
X137500714Y-96814819D01*
D10*
X140032737Y-93284318D02*
X140032737Y-92014318D01*
X141363214Y-93163365D02*
X141302738Y-93223842D01*
X141302738Y-93223842D02*
X141121309Y-93284318D01*
X141121309Y-93284318D02*
X141000357Y-93284318D01*
X141000357Y-93284318D02*
X140818928Y-93223842D01*
X140818928Y-93223842D02*
X140697976Y-93102889D01*
X140697976Y-93102889D02*
X140637499Y-92981937D01*
X140637499Y-92981937D02*
X140577023Y-92740032D01*
X140577023Y-92740032D02*
X140577023Y-92558603D01*
X140577023Y-92558603D02*
X140637499Y-92316699D01*
X140637499Y-92316699D02*
X140697976Y-92195746D01*
X140697976Y-92195746D02*
X140818928Y-92074794D01*
X140818928Y-92074794D02*
X141000357Y-92014318D01*
X141000357Y-92014318D02*
X141121309Y-92014318D01*
X141121309Y-92014318D02*
X141302738Y-92074794D01*
X141302738Y-92074794D02*
X141363214Y-92135270D01*
X142572738Y-93284318D02*
X141847023Y-93284318D01*
X142209880Y-93284318D02*
X142209880Y-92014318D01*
X142209880Y-92014318D02*
X142088928Y-92195746D01*
X142088928Y-92195746D02*
X141967976Y-92316699D01*
X141967976Y-92316699D02*
X141847023Y-92377175D01*
D11*
X131913333Y-66399580D02*
X131865714Y-66447200D01*
X131865714Y-66447200D02*
X131722857Y-66494819D01*
X131722857Y-66494819D02*
X131627619Y-66494819D01*
X131627619Y-66494819D02*
X131484762Y-66447200D01*
X131484762Y-66447200D02*
X131389524Y-66351961D01*
X131389524Y-66351961D02*
X131341905Y-66256723D01*
X131341905Y-66256723D02*
X131294286Y-66066247D01*
X131294286Y-66066247D02*
X131294286Y-65923390D01*
X131294286Y-65923390D02*
X131341905Y-65732914D01*
X131341905Y-65732914D02*
X131389524Y-65637676D01*
X131389524Y-65637676D02*
X131484762Y-65542438D01*
X131484762Y-65542438D02*
X131627619Y-65494819D01*
X131627619Y-65494819D02*
X131722857Y-65494819D01*
X131722857Y-65494819D02*
X131865714Y-65542438D01*
X131865714Y-65542438D02*
X131913333Y-65590057D01*
X132770476Y-65828152D02*
X132770476Y-66494819D01*
X132532381Y-65447200D02*
X132294286Y-66161485D01*
X132294286Y-66161485D02*
X132913333Y-66161485D01*
X169982142Y-84434819D02*
X169648809Y-83958628D01*
X169410714Y-84434819D02*
X169410714Y-83434819D01*
X169410714Y-83434819D02*
X169791666Y-83434819D01*
X169791666Y-83434819D02*
X169886904Y-83482438D01*
X169886904Y-83482438D02*
X169934523Y-83530057D01*
X169934523Y-83530057D02*
X169982142Y-83625295D01*
X169982142Y-83625295D02*
X169982142Y-83768152D01*
X169982142Y-83768152D02*
X169934523Y-83863390D01*
X169934523Y-83863390D02*
X169886904Y-83911009D01*
X169886904Y-83911009D02*
X169791666Y-83958628D01*
X169791666Y-83958628D02*
X169410714Y-83958628D01*
X170934523Y-84434819D02*
X170363095Y-84434819D01*
X170648809Y-84434819D02*
X170648809Y-83434819D01*
X170648809Y-83434819D02*
X170553571Y-83577676D01*
X170553571Y-83577676D02*
X170458333Y-83672914D01*
X170458333Y-83672914D02*
X170363095Y-83720533D01*
X171886904Y-84434819D02*
X171315476Y-84434819D01*
X171601190Y-84434819D02*
X171601190Y-83434819D01*
X171601190Y-83434819D02*
X171505952Y-83577676D01*
X171505952Y-83577676D02*
X171410714Y-83672914D01*
X171410714Y-83672914D02*
X171315476Y-83720533D01*
X165727142Y-85544819D02*
X165393809Y-85068628D01*
X165155714Y-85544819D02*
X165155714Y-84544819D01*
X165155714Y-84544819D02*
X165536666Y-84544819D01*
X165536666Y-84544819D02*
X165631904Y-84592438D01*
X165631904Y-84592438D02*
X165679523Y-84640057D01*
X165679523Y-84640057D02*
X165727142Y-84735295D01*
X165727142Y-84735295D02*
X165727142Y-84878152D01*
X165727142Y-84878152D02*
X165679523Y-84973390D01*
X165679523Y-84973390D02*
X165631904Y-85021009D01*
X165631904Y-85021009D02*
X165536666Y-85068628D01*
X165536666Y-85068628D02*
X165155714Y-85068628D01*
X166679523Y-85544819D02*
X166108095Y-85544819D01*
X166393809Y-85544819D02*
X166393809Y-84544819D01*
X166393809Y-84544819D02*
X166298571Y-84687676D01*
X166298571Y-84687676D02*
X166203333Y-84782914D01*
X166203333Y-84782914D02*
X166108095Y-84830533D01*
X167298571Y-84544819D02*
X167393809Y-84544819D01*
X167393809Y-84544819D02*
X167489047Y-84592438D01*
X167489047Y-84592438D02*
X167536666Y-84640057D01*
X167536666Y-84640057D02*
X167584285Y-84735295D01*
X167584285Y-84735295D02*
X167631904Y-84925771D01*
X167631904Y-84925771D02*
X167631904Y-85163866D01*
X167631904Y-85163866D02*
X167584285Y-85354342D01*
X167584285Y-85354342D02*
X167536666Y-85449580D01*
X167536666Y-85449580D02*
X167489047Y-85497200D01*
X167489047Y-85497200D02*
X167393809Y-85544819D01*
X167393809Y-85544819D02*
X167298571Y-85544819D01*
X167298571Y-85544819D02*
X167203333Y-85497200D01*
X167203333Y-85497200D02*
X167155714Y-85449580D01*
X167155714Y-85449580D02*
X167108095Y-85354342D01*
X167108095Y-85354342D02*
X167060476Y-85163866D01*
X167060476Y-85163866D02*
X167060476Y-84925771D01*
X167060476Y-84925771D02*
X167108095Y-84735295D01*
X167108095Y-84735295D02*
X167155714Y-84640057D01*
X167155714Y-84640057D02*
X167203333Y-84592438D01*
X167203333Y-84592438D02*
X167298571Y-84544819D01*
X169441905Y-52524819D02*
X169441905Y-51524819D01*
X170013333Y-52524819D02*
X169584762Y-51953390D01*
X170013333Y-51524819D02*
X169441905Y-52096247D01*
X170965714Y-52524819D02*
X170394286Y-52524819D01*
X170680000Y-52524819D02*
X170680000Y-51524819D01*
X170680000Y-51524819D02*
X170584762Y-51667676D01*
X170584762Y-51667676D02*
X170489524Y-51762914D01*
X170489524Y-51762914D02*
X170394286Y-51810533D01*
X171995180Y-52070000D02*
X171757085Y-52070000D01*
X171852323Y-51831905D02*
X171757085Y-52070000D01*
X171757085Y-52070000D02*
X171852323Y-52308095D01*
X171566609Y-51927143D02*
X171757085Y-52070000D01*
X171757085Y-52070000D02*
X171566609Y-52212857D01*
X168364819Y-52069999D02*
X168602914Y-52069999D01*
X168507676Y-52308094D02*
X168602914Y-52069999D01*
X168602914Y-52069999D02*
X168507676Y-51831904D01*
X168793390Y-52212856D02*
X168602914Y-52069999D01*
X168602914Y-52069999D02*
X168793390Y-51927142D01*
D10*
X160261904Y-45006318D02*
X160261904Y-43736318D01*
X160261904Y-43736318D02*
X160685238Y-44643461D01*
X160685238Y-44643461D02*
X161108571Y-43736318D01*
X161108571Y-43736318D02*
X161108571Y-45006318D01*
X162197143Y-44945842D02*
X162076191Y-45006318D01*
X162076191Y-45006318D02*
X161834286Y-45006318D01*
X161834286Y-45006318D02*
X161713333Y-44945842D01*
X161713333Y-44945842D02*
X161652857Y-44824889D01*
X161652857Y-44824889D02*
X161652857Y-44341080D01*
X161652857Y-44341080D02*
X161713333Y-44220127D01*
X161713333Y-44220127D02*
X161834286Y-44159651D01*
X161834286Y-44159651D02*
X162076191Y-44159651D01*
X162076191Y-44159651D02*
X162197143Y-44220127D01*
X162197143Y-44220127D02*
X162257619Y-44341080D01*
X162257619Y-44341080D02*
X162257619Y-44462032D01*
X162257619Y-44462032D02*
X161652857Y-44582984D01*
X163346190Y-45006318D02*
X163346190Y-44341080D01*
X163346190Y-44341080D02*
X163285714Y-44220127D01*
X163285714Y-44220127D02*
X163164762Y-44159651D01*
X163164762Y-44159651D02*
X162922857Y-44159651D01*
X162922857Y-44159651D02*
X162801904Y-44220127D01*
X163346190Y-44945842D02*
X163225238Y-45006318D01*
X163225238Y-45006318D02*
X162922857Y-45006318D01*
X162922857Y-45006318D02*
X162801904Y-44945842D01*
X162801904Y-44945842D02*
X162741428Y-44824889D01*
X162741428Y-44824889D02*
X162741428Y-44703937D01*
X162741428Y-44703937D02*
X162801904Y-44582984D01*
X162801904Y-44582984D02*
X162922857Y-44522508D01*
X162922857Y-44522508D02*
X163225238Y-44522508D01*
X163225238Y-44522508D02*
X163346190Y-44462032D01*
X163890476Y-44945842D02*
X164011429Y-45006318D01*
X164011429Y-45006318D02*
X164253333Y-45006318D01*
X164253333Y-45006318D02*
X164374286Y-44945842D01*
X164374286Y-44945842D02*
X164434762Y-44824889D01*
X164434762Y-44824889D02*
X164434762Y-44764413D01*
X164434762Y-44764413D02*
X164374286Y-44643461D01*
X164374286Y-44643461D02*
X164253333Y-44582984D01*
X164253333Y-44582984D02*
X164071905Y-44582984D01*
X164071905Y-44582984D02*
X163950952Y-44522508D01*
X163950952Y-44522508D02*
X163890476Y-44401556D01*
X163890476Y-44401556D02*
X163890476Y-44341080D01*
X163890476Y-44341080D02*
X163950952Y-44220127D01*
X163950952Y-44220127D02*
X164071905Y-44159651D01*
X164071905Y-44159651D02*
X164253333Y-44159651D01*
X164253333Y-44159651D02*
X164374286Y-44220127D01*
X165523333Y-44159651D02*
X165523333Y-45006318D01*
X164979047Y-44159651D02*
X164979047Y-44824889D01*
X164979047Y-44824889D02*
X165039524Y-44945842D01*
X165039524Y-44945842D02*
X165160476Y-45006318D01*
X165160476Y-45006318D02*
X165341905Y-45006318D01*
X165341905Y-45006318D02*
X165462857Y-44945842D01*
X165462857Y-44945842D02*
X165523333Y-44885365D01*
X166128095Y-45006318D02*
X166128095Y-44159651D01*
X166128095Y-44401556D02*
X166188572Y-44280603D01*
X166188572Y-44280603D02*
X166249048Y-44220127D01*
X166249048Y-44220127D02*
X166370000Y-44159651D01*
X166370000Y-44159651D02*
X166490953Y-44159651D01*
X167398095Y-44945842D02*
X167277143Y-45006318D01*
X167277143Y-45006318D02*
X167035238Y-45006318D01*
X167035238Y-45006318D02*
X166914285Y-44945842D01*
X166914285Y-44945842D02*
X166853809Y-44824889D01*
X166853809Y-44824889D02*
X166853809Y-44341080D01*
X166853809Y-44341080D02*
X166914285Y-44220127D01*
X166914285Y-44220127D02*
X167035238Y-44159651D01*
X167035238Y-44159651D02*
X167277143Y-44159651D01*
X167277143Y-44159651D02*
X167398095Y-44220127D01*
X167398095Y-44220127D02*
X167458571Y-44341080D01*
X167458571Y-44341080D02*
X167458571Y-44462032D01*
X167458571Y-44462032D02*
X166853809Y-44582984D01*
D11*
X129373333Y-71479580D02*
X129325714Y-71527200D01*
X129325714Y-71527200D02*
X129182857Y-71574819D01*
X129182857Y-71574819D02*
X129087619Y-71574819D01*
X129087619Y-71574819D02*
X128944762Y-71527200D01*
X128944762Y-71527200D02*
X128849524Y-71431961D01*
X128849524Y-71431961D02*
X128801905Y-71336723D01*
X128801905Y-71336723D02*
X128754286Y-71146247D01*
X128754286Y-71146247D02*
X128754286Y-71003390D01*
X128754286Y-71003390D02*
X128801905Y-70812914D01*
X128801905Y-70812914D02*
X128849524Y-70717676D01*
X128849524Y-70717676D02*
X128944762Y-70622438D01*
X128944762Y-70622438D02*
X129087619Y-70574819D01*
X129087619Y-70574819D02*
X129182857Y-70574819D01*
X129182857Y-70574819D02*
X129325714Y-70622438D01*
X129325714Y-70622438D02*
X129373333Y-70670057D01*
X129944762Y-71003390D02*
X129849524Y-70955771D01*
X129849524Y-70955771D02*
X129801905Y-70908152D01*
X129801905Y-70908152D02*
X129754286Y-70812914D01*
X129754286Y-70812914D02*
X129754286Y-70765295D01*
X129754286Y-70765295D02*
X129801905Y-70670057D01*
X129801905Y-70670057D02*
X129849524Y-70622438D01*
X129849524Y-70622438D02*
X129944762Y-70574819D01*
X129944762Y-70574819D02*
X130135238Y-70574819D01*
X130135238Y-70574819D02*
X130230476Y-70622438D01*
X130230476Y-70622438D02*
X130278095Y-70670057D01*
X130278095Y-70670057D02*
X130325714Y-70765295D01*
X130325714Y-70765295D02*
X130325714Y-70812914D01*
X130325714Y-70812914D02*
X130278095Y-70908152D01*
X130278095Y-70908152D02*
X130230476Y-70955771D01*
X130230476Y-70955771D02*
X130135238Y-71003390D01*
X130135238Y-71003390D02*
X129944762Y-71003390D01*
X129944762Y-71003390D02*
X129849524Y-71051009D01*
X129849524Y-71051009D02*
X129801905Y-71098628D01*
X129801905Y-71098628D02*
X129754286Y-71193866D01*
X129754286Y-71193866D02*
X129754286Y-71384342D01*
X129754286Y-71384342D02*
X129801905Y-71479580D01*
X129801905Y-71479580D02*
X129849524Y-71527200D01*
X129849524Y-71527200D02*
X129944762Y-71574819D01*
X129944762Y-71574819D02*
X130135238Y-71574819D01*
X130135238Y-71574819D02*
X130230476Y-71527200D01*
X130230476Y-71527200D02*
X130278095Y-71479580D01*
X130278095Y-71479580D02*
X130325714Y-71384342D01*
X130325714Y-71384342D02*
X130325714Y-71193866D01*
X130325714Y-71193866D02*
X130278095Y-71098628D01*
X130278095Y-71098628D02*
X130230476Y-71051009D01*
X130230476Y-71051009D02*
X130135238Y-71003390D01*
X173244819Y-73128094D02*
X172244819Y-73128094D01*
X172244819Y-73128094D02*
X172244819Y-72889999D01*
X172244819Y-72889999D02*
X172292438Y-72747142D01*
X172292438Y-72747142D02*
X172387676Y-72651904D01*
X172387676Y-72651904D02*
X172482914Y-72604285D01*
X172482914Y-72604285D02*
X172673390Y-72556666D01*
X172673390Y-72556666D02*
X172816247Y-72556666D01*
X172816247Y-72556666D02*
X173006723Y-72604285D01*
X173006723Y-72604285D02*
X173101961Y-72651904D01*
X173101961Y-72651904D02*
X173197200Y-72747142D01*
X173197200Y-72747142D02*
X173244819Y-72889999D01*
X173244819Y-72889999D02*
X173244819Y-73128094D01*
X172340057Y-72175713D02*
X172292438Y-72128094D01*
X172292438Y-72128094D02*
X172244819Y-72032856D01*
X172244819Y-72032856D02*
X172244819Y-71794761D01*
X172244819Y-71794761D02*
X172292438Y-71699523D01*
X172292438Y-71699523D02*
X172340057Y-71651904D01*
X172340057Y-71651904D02*
X172435295Y-71604285D01*
X172435295Y-71604285D02*
X172530533Y-71604285D01*
X172530533Y-71604285D02*
X172673390Y-71651904D01*
X172673390Y-71651904D02*
X173244819Y-72223332D01*
X173244819Y-72223332D02*
X173244819Y-71604285D01*
X173174819Y-77731904D02*
X172174819Y-77731904D01*
X173174819Y-77160476D02*
X172603390Y-77589047D01*
X172174819Y-77160476D02*
X172746247Y-77731904D01*
X157384761Y-71960057D02*
X157289523Y-71912438D01*
X157289523Y-71912438D02*
X157194285Y-71817200D01*
X157194285Y-71817200D02*
X157051428Y-71674342D01*
X157051428Y-71674342D02*
X156956190Y-71626723D01*
X156956190Y-71626723D02*
X156860952Y-71626723D01*
X156908571Y-71864819D02*
X156813333Y-71817200D01*
X156813333Y-71817200D02*
X156718095Y-71721961D01*
X156718095Y-71721961D02*
X156670476Y-71531485D01*
X156670476Y-71531485D02*
X156670476Y-71198152D01*
X156670476Y-71198152D02*
X156718095Y-71007676D01*
X156718095Y-71007676D02*
X156813333Y-70912438D01*
X156813333Y-70912438D02*
X156908571Y-70864819D01*
X156908571Y-70864819D02*
X157099047Y-70864819D01*
X157099047Y-70864819D02*
X157194285Y-70912438D01*
X157194285Y-70912438D02*
X157289523Y-71007676D01*
X157289523Y-71007676D02*
X157337142Y-71198152D01*
X157337142Y-71198152D02*
X157337142Y-71531485D01*
X157337142Y-71531485D02*
X157289523Y-71721961D01*
X157289523Y-71721961D02*
X157194285Y-71817200D01*
X157194285Y-71817200D02*
X157099047Y-71864819D01*
X157099047Y-71864819D02*
X156908571Y-71864819D01*
X158289523Y-71864819D02*
X157718095Y-71864819D01*
X158003809Y-71864819D02*
X158003809Y-70864819D01*
X158003809Y-70864819D02*
X157908571Y-71007676D01*
X157908571Y-71007676D02*
X157813333Y-71102914D01*
X157813333Y-71102914D02*
X157718095Y-71150533D01*
X139088333Y-103484819D02*
X138755000Y-103008628D01*
X138516905Y-103484819D02*
X138516905Y-102484819D01*
X138516905Y-102484819D02*
X138897857Y-102484819D01*
X138897857Y-102484819D02*
X138993095Y-102532438D01*
X138993095Y-102532438D02*
X139040714Y-102580057D01*
X139040714Y-102580057D02*
X139088333Y-102675295D01*
X139088333Y-102675295D02*
X139088333Y-102818152D01*
X139088333Y-102818152D02*
X139040714Y-102913390D01*
X139040714Y-102913390D02*
X138993095Y-102961009D01*
X138993095Y-102961009D02*
X138897857Y-103008628D01*
X138897857Y-103008628D02*
X138516905Y-103008628D01*
X139993095Y-102484819D02*
X139516905Y-102484819D01*
X139516905Y-102484819D02*
X139469286Y-102961009D01*
X139469286Y-102961009D02*
X139516905Y-102913390D01*
X139516905Y-102913390D02*
X139612143Y-102865771D01*
X139612143Y-102865771D02*
X139850238Y-102865771D01*
X139850238Y-102865771D02*
X139945476Y-102913390D01*
X139945476Y-102913390D02*
X139993095Y-102961009D01*
X139993095Y-102961009D02*
X140040714Y-103056247D01*
X140040714Y-103056247D02*
X140040714Y-103294342D01*
X140040714Y-103294342D02*
X139993095Y-103389580D01*
X139993095Y-103389580D02*
X139945476Y-103437200D01*
X139945476Y-103437200D02*
X139850238Y-103484819D01*
X139850238Y-103484819D02*
X139612143Y-103484819D01*
X139612143Y-103484819D02*
X139516905Y-103437200D01*
X139516905Y-103437200D02*
X139469286Y-103389580D01*
X129373333Y-74019580D02*
X129325714Y-74067200D01*
X129325714Y-74067200D02*
X129182857Y-74114819D01*
X129182857Y-74114819D02*
X129087619Y-74114819D01*
X129087619Y-74114819D02*
X128944762Y-74067200D01*
X128944762Y-74067200D02*
X128849524Y-73971961D01*
X128849524Y-73971961D02*
X128801905Y-73876723D01*
X128801905Y-73876723D02*
X128754286Y-73686247D01*
X128754286Y-73686247D02*
X128754286Y-73543390D01*
X128754286Y-73543390D02*
X128801905Y-73352914D01*
X128801905Y-73352914D02*
X128849524Y-73257676D01*
X128849524Y-73257676D02*
X128944762Y-73162438D01*
X128944762Y-73162438D02*
X129087619Y-73114819D01*
X129087619Y-73114819D02*
X129182857Y-73114819D01*
X129182857Y-73114819D02*
X129325714Y-73162438D01*
X129325714Y-73162438D02*
X129373333Y-73210057D01*
X129849524Y-74114819D02*
X130040000Y-74114819D01*
X130040000Y-74114819D02*
X130135238Y-74067200D01*
X130135238Y-74067200D02*
X130182857Y-74019580D01*
X130182857Y-74019580D02*
X130278095Y-73876723D01*
X130278095Y-73876723D02*
X130325714Y-73686247D01*
X130325714Y-73686247D02*
X130325714Y-73305295D01*
X130325714Y-73305295D02*
X130278095Y-73210057D01*
X130278095Y-73210057D02*
X130230476Y-73162438D01*
X130230476Y-73162438D02*
X130135238Y-73114819D01*
X130135238Y-73114819D02*
X129944762Y-73114819D01*
X129944762Y-73114819D02*
X129849524Y-73162438D01*
X129849524Y-73162438D02*
X129801905Y-73210057D01*
X129801905Y-73210057D02*
X129754286Y-73305295D01*
X129754286Y-73305295D02*
X129754286Y-73543390D01*
X129754286Y-73543390D02*
X129801905Y-73638628D01*
X129801905Y-73638628D02*
X129849524Y-73686247D01*
X129849524Y-73686247D02*
X129944762Y-73733866D01*
X129944762Y-73733866D02*
X130135238Y-73733866D01*
X130135238Y-73733866D02*
X130230476Y-73686247D01*
X130230476Y-73686247D02*
X130278095Y-73638628D01*
X130278095Y-73638628D02*
X130325714Y-73543390D01*
X138720642Y-78084819D02*
X138387309Y-77608628D01*
X138149214Y-78084819D02*
X138149214Y-77084819D01*
X138149214Y-77084819D02*
X138530166Y-77084819D01*
X138530166Y-77084819D02*
X138625404Y-77132438D01*
X138625404Y-77132438D02*
X138673023Y-77180057D01*
X138673023Y-77180057D02*
X138720642Y-77275295D01*
X138720642Y-77275295D02*
X138720642Y-77418152D01*
X138720642Y-77418152D02*
X138673023Y-77513390D01*
X138673023Y-77513390D02*
X138625404Y-77561009D01*
X138625404Y-77561009D02*
X138530166Y-77608628D01*
X138530166Y-77608628D02*
X138149214Y-77608628D01*
X139673023Y-78084819D02*
X139101595Y-78084819D01*
X139387309Y-78084819D02*
X139387309Y-77084819D01*
X139387309Y-77084819D02*
X139292071Y-77227676D01*
X139292071Y-77227676D02*
X139196833Y-77322914D01*
X139196833Y-77322914D02*
X139101595Y-77370533D01*
X140006357Y-77084819D02*
X140625404Y-77084819D01*
X140625404Y-77084819D02*
X140292071Y-77465771D01*
X140292071Y-77465771D02*
X140434928Y-77465771D01*
X140434928Y-77465771D02*
X140530166Y-77513390D01*
X140530166Y-77513390D02*
X140577785Y-77561009D01*
X140577785Y-77561009D02*
X140625404Y-77656247D01*
X140625404Y-77656247D02*
X140625404Y-77894342D01*
X140625404Y-77894342D02*
X140577785Y-77989580D01*
X140577785Y-77989580D02*
X140530166Y-78037200D01*
X140530166Y-78037200D02*
X140434928Y-78084819D01*
X140434928Y-78084819D02*
X140149214Y-78084819D01*
X140149214Y-78084819D02*
X140053976Y-78037200D01*
X140053976Y-78037200D02*
X140006357Y-77989580D01*
X161123333Y-89259580D02*
X161075714Y-89307200D01*
X161075714Y-89307200D02*
X160932857Y-89354819D01*
X160932857Y-89354819D02*
X160837619Y-89354819D01*
X160837619Y-89354819D02*
X160694762Y-89307200D01*
X160694762Y-89307200D02*
X160599524Y-89211961D01*
X160599524Y-89211961D02*
X160551905Y-89116723D01*
X160551905Y-89116723D02*
X160504286Y-88926247D01*
X160504286Y-88926247D02*
X160504286Y-88783390D01*
X160504286Y-88783390D02*
X160551905Y-88592914D01*
X160551905Y-88592914D02*
X160599524Y-88497676D01*
X160599524Y-88497676D02*
X160694762Y-88402438D01*
X160694762Y-88402438D02*
X160837619Y-88354819D01*
X160837619Y-88354819D02*
X160932857Y-88354819D01*
X160932857Y-88354819D02*
X161075714Y-88402438D01*
X161075714Y-88402438D02*
X161123333Y-88450057D01*
X162075714Y-89354819D02*
X161504286Y-89354819D01*
X161790000Y-89354819D02*
X161790000Y-88354819D01*
X161790000Y-88354819D02*
X161694762Y-88497676D01*
X161694762Y-88497676D02*
X161599524Y-88592914D01*
X161599524Y-88592914D02*
X161504286Y-88640533D01*
X166203333Y-79004819D02*
X165870000Y-78528628D01*
X165631905Y-79004819D02*
X165631905Y-78004819D01*
X165631905Y-78004819D02*
X166012857Y-78004819D01*
X166012857Y-78004819D02*
X166108095Y-78052438D01*
X166108095Y-78052438D02*
X166155714Y-78100057D01*
X166155714Y-78100057D02*
X166203333Y-78195295D01*
X166203333Y-78195295D02*
X166203333Y-78338152D01*
X166203333Y-78338152D02*
X166155714Y-78433390D01*
X166155714Y-78433390D02*
X166108095Y-78481009D01*
X166108095Y-78481009D02*
X166012857Y-78528628D01*
X166012857Y-78528628D02*
X165631905Y-78528628D01*
X166679524Y-79004819D02*
X166870000Y-79004819D01*
X166870000Y-79004819D02*
X166965238Y-78957200D01*
X166965238Y-78957200D02*
X167012857Y-78909580D01*
X167012857Y-78909580D02*
X167108095Y-78766723D01*
X167108095Y-78766723D02*
X167155714Y-78576247D01*
X167155714Y-78576247D02*
X167155714Y-78195295D01*
X167155714Y-78195295D02*
X167108095Y-78100057D01*
X167108095Y-78100057D02*
X167060476Y-78052438D01*
X167060476Y-78052438D02*
X166965238Y-78004819D01*
X166965238Y-78004819D02*
X166774762Y-78004819D01*
X166774762Y-78004819D02*
X166679524Y-78052438D01*
X166679524Y-78052438D02*
X166631905Y-78100057D01*
X166631905Y-78100057D02*
X166584286Y-78195295D01*
X166584286Y-78195295D02*
X166584286Y-78433390D01*
X166584286Y-78433390D02*
X166631905Y-78528628D01*
X166631905Y-78528628D02*
X166679524Y-78576247D01*
X166679524Y-78576247D02*
X166774762Y-78623866D01*
X166774762Y-78623866D02*
X166965238Y-78623866D01*
X166965238Y-78623866D02*
X167060476Y-78576247D01*
X167060476Y-78576247D02*
X167108095Y-78528628D01*
X167108095Y-78528628D02*
X167155714Y-78433390D01*
X151424819Y-85345594D02*
X150424819Y-85345594D01*
X150424819Y-85345594D02*
X150424819Y-85107499D01*
X150424819Y-85107499D02*
X150472438Y-84964642D01*
X150472438Y-84964642D02*
X150567676Y-84869404D01*
X150567676Y-84869404D02*
X150662914Y-84821785D01*
X150662914Y-84821785D02*
X150853390Y-84774166D01*
X150853390Y-84774166D02*
X150996247Y-84774166D01*
X150996247Y-84774166D02*
X151186723Y-84821785D01*
X151186723Y-84821785D02*
X151281961Y-84869404D01*
X151281961Y-84869404D02*
X151377200Y-84964642D01*
X151377200Y-84964642D02*
X151424819Y-85107499D01*
X151424819Y-85107499D02*
X151424819Y-85345594D01*
X151424819Y-83821785D02*
X151424819Y-84393213D01*
X151424819Y-84107499D02*
X150424819Y-84107499D01*
X150424819Y-84107499D02*
X150567676Y-84202737D01*
X150567676Y-84202737D02*
X150662914Y-84297975D01*
X150662914Y-84297975D02*
X150710533Y-84393213D01*
X134898333Y-108564819D02*
X134565000Y-108088628D01*
X134326905Y-108564819D02*
X134326905Y-107564819D01*
X134326905Y-107564819D02*
X134707857Y-107564819D01*
X134707857Y-107564819D02*
X134803095Y-107612438D01*
X134803095Y-107612438D02*
X134850714Y-107660057D01*
X134850714Y-107660057D02*
X134898333Y-107755295D01*
X134898333Y-107755295D02*
X134898333Y-107898152D01*
X134898333Y-107898152D02*
X134850714Y-107993390D01*
X134850714Y-107993390D02*
X134803095Y-108041009D01*
X134803095Y-108041009D02*
X134707857Y-108088628D01*
X134707857Y-108088628D02*
X134326905Y-108088628D01*
X135231667Y-107564819D02*
X135850714Y-107564819D01*
X135850714Y-107564819D02*
X135517381Y-107945771D01*
X135517381Y-107945771D02*
X135660238Y-107945771D01*
X135660238Y-107945771D02*
X135755476Y-107993390D01*
X135755476Y-107993390D02*
X135803095Y-108041009D01*
X135803095Y-108041009D02*
X135850714Y-108136247D01*
X135850714Y-108136247D02*
X135850714Y-108374342D01*
X135850714Y-108374342D02*
X135803095Y-108469580D01*
X135803095Y-108469580D02*
X135755476Y-108517200D01*
X135755476Y-108517200D02*
X135660238Y-108564819D01*
X135660238Y-108564819D02*
X135374524Y-108564819D01*
X135374524Y-108564819D02*
X135279286Y-108517200D01*
X135279286Y-108517200D02*
X135231667Y-108469580D01*
X127519580Y-79681666D02*
X127567200Y-79729285D01*
X127567200Y-79729285D02*
X127614819Y-79872142D01*
X127614819Y-79872142D02*
X127614819Y-79967380D01*
X127614819Y-79967380D02*
X127567200Y-80110237D01*
X127567200Y-80110237D02*
X127471961Y-80205475D01*
X127471961Y-80205475D02*
X127376723Y-80253094D01*
X127376723Y-80253094D02*
X127186247Y-80300713D01*
X127186247Y-80300713D02*
X127043390Y-80300713D01*
X127043390Y-80300713D02*
X126852914Y-80253094D01*
X126852914Y-80253094D02*
X126757676Y-80205475D01*
X126757676Y-80205475D02*
X126662438Y-80110237D01*
X126662438Y-80110237D02*
X126614819Y-79967380D01*
X126614819Y-79967380D02*
X126614819Y-79872142D01*
X126614819Y-79872142D02*
X126662438Y-79729285D01*
X126662438Y-79729285D02*
X126710057Y-79681666D01*
X126614819Y-78824523D02*
X126614819Y-79014999D01*
X126614819Y-79014999D02*
X126662438Y-79110237D01*
X126662438Y-79110237D02*
X126710057Y-79157856D01*
X126710057Y-79157856D02*
X126852914Y-79253094D01*
X126852914Y-79253094D02*
X127043390Y-79300713D01*
X127043390Y-79300713D02*
X127424342Y-79300713D01*
X127424342Y-79300713D02*
X127519580Y-79253094D01*
X127519580Y-79253094D02*
X127567200Y-79205475D01*
X127567200Y-79205475D02*
X127614819Y-79110237D01*
X127614819Y-79110237D02*
X127614819Y-78919761D01*
X127614819Y-78919761D02*
X127567200Y-78824523D01*
X127567200Y-78824523D02*
X127519580Y-78776904D01*
X127519580Y-78776904D02*
X127424342Y-78729285D01*
X127424342Y-78729285D02*
X127186247Y-78729285D01*
X127186247Y-78729285D02*
X127091009Y-78776904D01*
X127091009Y-78776904D02*
X127043390Y-78824523D01*
X127043390Y-78824523D02*
X126995771Y-78919761D01*
X126995771Y-78919761D02*
X126995771Y-79110237D01*
X126995771Y-79110237D02*
X127043390Y-79205475D01*
X127043390Y-79205475D02*
X127091009Y-79253094D01*
X127091009Y-79253094D02*
X127186247Y-79300713D01*
X138720642Y-81539320D02*
X138387309Y-81063129D01*
X138149214Y-81539320D02*
X138149214Y-80539320D01*
X138149214Y-80539320D02*
X138530166Y-80539320D01*
X138530166Y-80539320D02*
X138625404Y-80586939D01*
X138625404Y-80586939D02*
X138673023Y-80634558D01*
X138673023Y-80634558D02*
X138720642Y-80729796D01*
X138720642Y-80729796D02*
X138720642Y-80872653D01*
X138720642Y-80872653D02*
X138673023Y-80967891D01*
X138673023Y-80967891D02*
X138625404Y-81015510D01*
X138625404Y-81015510D02*
X138530166Y-81063129D01*
X138530166Y-81063129D02*
X138149214Y-81063129D01*
X139673023Y-81539320D02*
X139101595Y-81539320D01*
X139387309Y-81539320D02*
X139387309Y-80539320D01*
X139387309Y-80539320D02*
X139292071Y-80682177D01*
X139292071Y-80682177D02*
X139196833Y-80777415D01*
X139196833Y-80777415D02*
X139101595Y-80825034D01*
X140577785Y-80539320D02*
X140101595Y-80539320D01*
X140101595Y-80539320D02*
X140053976Y-81015510D01*
X140053976Y-81015510D02*
X140101595Y-80967891D01*
X140101595Y-80967891D02*
X140196833Y-80920272D01*
X140196833Y-80920272D02*
X140434928Y-80920272D01*
X140434928Y-80920272D02*
X140530166Y-80967891D01*
X140530166Y-80967891D02*
X140577785Y-81015510D01*
X140577785Y-81015510D02*
X140625404Y-81110748D01*
X140625404Y-81110748D02*
X140625404Y-81348843D01*
X140625404Y-81348843D02*
X140577785Y-81444081D01*
X140577785Y-81444081D02*
X140530166Y-81491701D01*
X140530166Y-81491701D02*
X140434928Y-81539320D01*
X140434928Y-81539320D02*
X140196833Y-81539320D01*
X140196833Y-81539320D02*
X140101595Y-81491701D01*
X140101595Y-81491701D02*
X140053976Y-81444081D01*
X138612142Y-72684819D02*
X138278809Y-72208628D01*
X138040714Y-72684819D02*
X138040714Y-71684819D01*
X138040714Y-71684819D02*
X138421666Y-71684819D01*
X138421666Y-71684819D02*
X138516904Y-71732438D01*
X138516904Y-71732438D02*
X138564523Y-71780057D01*
X138564523Y-71780057D02*
X138612142Y-71875295D01*
X138612142Y-71875295D02*
X138612142Y-72018152D01*
X138612142Y-72018152D02*
X138564523Y-72113390D01*
X138564523Y-72113390D02*
X138516904Y-72161009D01*
X138516904Y-72161009D02*
X138421666Y-72208628D01*
X138421666Y-72208628D02*
X138040714Y-72208628D01*
X139564523Y-72684819D02*
X138993095Y-72684819D01*
X139278809Y-72684819D02*
X139278809Y-71684819D01*
X139278809Y-71684819D02*
X139183571Y-71827676D01*
X139183571Y-71827676D02*
X139088333Y-71922914D01*
X139088333Y-71922914D02*
X138993095Y-71970533D01*
X139945476Y-71780057D02*
X139993095Y-71732438D01*
X139993095Y-71732438D02*
X140088333Y-71684819D01*
X140088333Y-71684819D02*
X140326428Y-71684819D01*
X140326428Y-71684819D02*
X140421666Y-71732438D01*
X140421666Y-71732438D02*
X140469285Y-71780057D01*
X140469285Y-71780057D02*
X140516904Y-71875295D01*
X140516904Y-71875295D02*
X140516904Y-71970533D01*
X140516904Y-71970533D02*
X140469285Y-72113390D01*
X140469285Y-72113390D02*
X139897857Y-72684819D01*
X139897857Y-72684819D02*
X140516904Y-72684819D01*
D12*
%TO.C,J2*%
X118739180Y-56938000D02*
G75*
G02*
X118464820Y-56938000I-137180J0D01*
G01*
X118464820Y-56938000D02*
G75*
G02*
X118739180Y-56938000I137180J0D01*
G01*
%TO.C,J1*%
X110910000Y-84090000D02*
X104910000Y-84090000D01*
X104910000Y-84090000D02*
X104910000Y-85090000D01*
X115160000Y-85090000D02*
X110910000Y-85090000D01*
X110910000Y-85090000D02*
X110910000Y-84090000D01*
X104910000Y-85090000D02*
X100660000Y-85090000D01*
X100660000Y-85090000D02*
X100660000Y-114300000D01*
X115160000Y-114300000D02*
X115160000Y-85090000D01*
X110910000Y-114300000D02*
X115160000Y-114300000D01*
X104910000Y-114300000D02*
X104910000Y-115300000D01*
X100660000Y-114300000D02*
X104910000Y-114300000D01*
X110910000Y-115300000D02*
X110910000Y-114300000D01*
X104910000Y-115300000D02*
X110910000Y-115300000D01*
X116040000Y-95195000D02*
G75*
G02*
X115840000Y-95195000I-100000J0D01*
G01*
X115840000Y-95195000D02*
G75*
G02*
X116040000Y-95195000I100000J0D01*
G01*
D13*
%TO.C,R8*%
X162797258Y-82027500D02*
X162322742Y-82027500D01*
X162797258Y-83072500D02*
X162322742Y-83072500D01*
%TO.C,C11*%
X150041920Y-94740000D02*
X150323080Y-94740000D01*
X150041920Y-95760000D02*
X150323080Y-95760000D01*
%TO.C,R1*%
X156797742Y-94727500D02*
X157272258Y-94727500D01*
X156797742Y-95772500D02*
X157272258Y-95772500D01*
%TO.C,R14*%
X137907500Y-68787742D02*
X137907500Y-69262258D01*
X138952500Y-68787742D02*
X138952500Y-69262258D01*
%TO.C,C13*%
X170814420Y-79500000D02*
X171095580Y-79500000D01*
X170814420Y-80520000D02*
X171095580Y-80520000D01*
%TO.C,R4*%
X145527500Y-96757258D02*
X145527500Y-96282742D01*
X146572500Y-96757258D02*
X146572500Y-96282742D01*
%TO.C,C3*%
X128694420Y-62988000D02*
X128975580Y-62988000D01*
X128694420Y-64008000D02*
X128975580Y-64008000D01*
%TO.C,C12*%
X157886252Y-84355000D02*
X157363748Y-84355000D01*
X157886252Y-85825000D02*
X157363748Y-85825000D01*
D14*
%TO.C,U2*%
X122974100Y-92468700D02*
X122974100Y-92986360D01*
X122974100Y-94083640D02*
X122974100Y-101436360D01*
X122974100Y-105133640D02*
X122974100Y-105651300D01*
X122974100Y-105651300D02*
X131025900Y-105651300D01*
X131025900Y-92468700D02*
X122974100Y-92468700D01*
X131025900Y-92986360D02*
X131025900Y-92468700D01*
X131025900Y-94936361D02*
X131025900Y-94083640D01*
X131025900Y-103386359D02*
X131025900Y-99283639D01*
X131025900Y-105651300D02*
X131025900Y-105133640D01*
D15*
G36*
X133184900Y-98275499D02*
G01*
X132930900Y-98275499D01*
X132930900Y-97894499D01*
X133184900Y-97894499D01*
X133184900Y-98275499D01*
G37*
G36*
X133184900Y-104125499D02*
G01*
X132930900Y-104125499D01*
X132930900Y-103744499D01*
X133184900Y-103744499D01*
X133184900Y-104125499D01*
G37*
D13*
%TO.C,C7*%
X117600000Y-79374420D02*
X117600000Y-79655580D01*
X118620000Y-79374420D02*
X118620000Y-79655580D01*
D16*
%TO.C,PS1*%
X122430000Y-83860000D02*
X134110000Y-83860000D01*
X122430000Y-89860000D02*
X122430000Y-83860000D01*
D12*
X132080000Y-82960000D02*
X132080000Y-82960000D01*
X132280000Y-82960000D02*
X132280000Y-82960000D01*
D16*
X134110000Y-83860000D02*
X134110000Y-89860000D01*
X134110000Y-89860000D02*
X122430000Y-89860000D01*
D12*
X132080000Y-82960000D02*
G75*
G02*
X132280000Y-82960000I100000J0D01*
G01*
X132280000Y-82960000D02*
G75*
G02*
X132080000Y-82960000I-100000J0D01*
G01*
%TO.C,CR2*%
X128250000Y-49818000D02*
X128250000Y-50060000D01*
X128250000Y-50060000D02*
X138450000Y-50060000D01*
D16*
X130810000Y-56918000D02*
X130810000Y-56918000D01*
X130810000Y-57018000D02*
X130810000Y-57018000D01*
D12*
X138450000Y-50060000D02*
X138450000Y-49818000D01*
D16*
X130810000Y-56918000D02*
G75*
G02*
X130810000Y-57018000I0J-50000D01*
G01*
X130810000Y-57018000D02*
G75*
G02*
X130810000Y-56918000I0J50000D01*
G01*
D12*
%TO.C,VR1*%
X156570000Y-49530000D02*
X156570000Y-49530000D01*
X156570000Y-49530000D02*
X156570000Y-49530000D01*
X156670000Y-49530000D02*
X156670000Y-49530000D01*
X156570000Y-49530000D02*
G75*
G02*
X156670000Y-49530000I50000J0D01*
G01*
X156670000Y-49530000D02*
G75*
G02*
X156570000Y-49530000I-50000J0D01*
G01*
X156670000Y-49530000D02*
G75*
G02*
X156570000Y-49530000I-50000J0D01*
G01*
D13*
%TO.C,U3*%
X145195000Y-66655000D02*
X149315000Y-66655000D01*
X145195000Y-66750000D02*
X145195000Y-66655000D01*
X145195000Y-71775000D02*
X145195000Y-71680000D01*
X149315000Y-66655000D02*
X149315000Y-66750000D01*
X149315000Y-71680000D02*
X149315000Y-71775000D01*
X149315000Y-71775000D02*
X145195000Y-71775000D01*
X144655000Y-66745000D02*
X144415000Y-66415000D01*
X144895000Y-66415000D01*
X144655000Y-66745000D01*
G36*
X144655000Y-66745000D02*
G01*
X144415000Y-66415000D01*
X144895000Y-66415000D01*
X144655000Y-66745000D01*
G37*
%TO.C,C10*%
X150323080Y-92200000D02*
X150041920Y-92200000D01*
X150323080Y-93220000D02*
X150041920Y-93220000D01*
D14*
%TO.C,U1*%
X148316950Y-99702493D02*
X148316950Y-101607493D01*
X151517350Y-101607493D02*
X151517350Y-99702493D01*
D13*
%TO.C,C5*%
X121410000Y-79374420D02*
X121410000Y-79655580D01*
X122430000Y-79374420D02*
X122430000Y-79655580D01*
%TO.C,R7*%
X143870000Y-78389564D02*
X143870000Y-76935436D01*
X145690000Y-78389564D02*
X145690000Y-76935436D01*
%TO.C,C2*%
X128904420Y-60450000D02*
X129185580Y-60450000D01*
X128904420Y-61470000D02*
X129185580Y-61470000D01*
%TO.C,R2*%
X136477742Y-97267500D02*
X136952258Y-97267500D01*
X136477742Y-98312500D02*
X136952258Y-98312500D01*
D12*
%TO.C,IC1*%
X139422500Y-93750000D02*
X140622500Y-93750000D01*
X140972500Y-93800000D02*
X141572500Y-93800000D01*
X140972500Y-96700000D02*
X140972500Y-93800000D01*
X141572500Y-93800000D02*
X141572500Y-96700000D01*
X141572500Y-96700000D02*
X140972500Y-96700000D01*
D13*
%TO.C,C4*%
X128904420Y-65470000D02*
X129185580Y-65470000D01*
X128904420Y-66490000D02*
X129185580Y-66490000D01*
%TO.C,R11*%
X170862258Y-82027500D02*
X170387742Y-82027500D01*
X170862258Y-83072500D02*
X170387742Y-83072500D01*
%TO.C,R10*%
X166132742Y-82027500D02*
X166607258Y-82027500D01*
X166132742Y-83072500D02*
X166607258Y-83072500D01*
D14*
%TO.C,K1*%
X164973000Y-55765700D02*
X164973000Y-62776100D01*
X164973000Y-62776100D02*
X165588835Y-62776100D01*
X165588835Y-55765700D02*
X164973000Y-55765700D01*
X167151165Y-62776100D02*
X173208835Y-62776100D01*
X173208835Y-55765700D02*
X167151165Y-55765700D01*
X174771165Y-62776100D02*
X175387000Y-62776100D01*
X175387000Y-55765700D02*
X174771165Y-55765700D01*
X175387000Y-62776100D02*
X175387000Y-55765700D01*
D10*
%TO.C,RED_TP1*%
X165420000Y-47432000D02*
G75*
G02*
X162240000Y-47432000I-1590000J0D01*
G01*
X162240000Y-47432000D02*
G75*
G02*
X165420000Y-47432000I1590000J0D01*
G01*
D13*
%TO.C,C8*%
X132434420Y-70610000D02*
X132715580Y-70610000D01*
X132434420Y-71630000D02*
X132715580Y-71630000D01*
%TO.C,D2*%
X173790000Y-74090000D02*
X176730000Y-74090000D01*
X173790000Y-74210000D02*
X176730000Y-74210000D01*
X173790000Y-74330000D02*
X176730000Y-74330000D01*
X175260000Y-68650000D02*
X175260000Y-69670000D01*
X175260000Y-76130000D02*
X175260000Y-75110000D01*
X173790000Y-75110000D02*
X176730000Y-75110000D01*
X176730000Y-69670000D01*
X173790000Y-69670000D01*
X173790000Y-75110000D01*
%TO.C,Q1*%
X152370000Y-65950000D02*
X162590000Y-65950000D01*
X152370000Y-70570000D02*
X152370000Y-65950000D01*
X155630000Y-70570000D02*
X155630000Y-69190000D01*
X159330000Y-70570000D02*
X159330000Y-69190000D01*
X162590000Y-65950000D02*
X162590000Y-70570000D01*
X162590000Y-69190000D02*
X152370000Y-69190000D01*
X162590000Y-70570000D02*
X152370000Y-70570000D01*
%TO.C,R5*%
X139492258Y-101077500D02*
X139017742Y-101077500D01*
X139492258Y-102122500D02*
X139017742Y-102122500D01*
%TO.C,C9*%
X132434420Y-73120000D02*
X132715580Y-73120000D01*
X132434420Y-74140000D02*
X132715580Y-74140000D01*
%TO.C,R13*%
X139600758Y-75677500D02*
X139126242Y-75677500D01*
X139600758Y-76722500D02*
X139126242Y-76722500D01*
%TO.C,C1*%
X158395580Y-88390000D02*
X158114420Y-88390000D01*
X158395580Y-89410000D02*
X158114420Y-89410000D01*
%TO.C,R9*%
X166132742Y-79457500D02*
X166607258Y-79457500D01*
X166132742Y-80502500D02*
X166607258Y-80502500D01*
%TO.C,D1*%
X151665000Y-83807500D02*
X151665000Y-86092500D01*
X151665000Y-86092500D02*
X153135000Y-86092500D01*
X153135000Y-86092500D02*
X153135000Y-83807500D01*
%TO.C,R3*%
X135302258Y-106157500D02*
X134827742Y-106157500D01*
X135302258Y-107202500D02*
X134827742Y-107202500D01*
%TO.C,C6*%
X125220000Y-79374420D02*
X125220000Y-79655580D01*
X126240000Y-79374420D02*
X126240000Y-79655580D01*
%TO.C,R15*%
X139600758Y-79132001D02*
X139126242Y-79132001D01*
X139600758Y-80177001D02*
X139126242Y-80177001D01*
%TO.C,R12*%
X139017742Y-73137500D02*
X139492258Y-73137500D01*
X139017742Y-74182500D02*
X139492258Y-74182500D01*
%TD*%
M02*
